<?xml version="1.0" encoding="utf-8"?>
<!-- Generator: Adobe Illustrator 23.0.1, SVG Export Plug-In . SVG Version: 6.00 Build 0)  -->
<svg version="1.1" id="Layer_1" xmlns="http://www.w3.org/2000/svg" xmlns:xlink="http://www.w3.org/1999/xlink" x="0px" y="0px"
	 viewBox="0 0 212.6 212.6" style="enable-background:new 0 0 212.6 212.6;" xml:space="preserve">
<style type="text/css">
	.st0{fill:#160E44;}
	.st1{fill:#FFFFFF;}
</style>
<rect y="0" class="st0" width="212.6" height="212.6"/>
<g>
	<g>
		<g>
			<path class="st1" d="M88.91,147.31v27.52h-6.35v-11.7c-1.11-0.33-2.34-0.56-3.68-0.56l0,0l0,0l0,0c-1.23,0-2.45,0.22-3.57,0.56
				v11.7h-6.35v-27.52h6.35v11.7c1.11,0.33,2.34,0.56,3.68,0.56s2.56-0.22,3.68-0.56v-11.7H88.91z"/>
			<path class="st1" d="M137.16,156.33v-5.46c0-0.11,0-0.22,0-0.22c-0.11-0.33-0.33-0.67-0.67-0.89l0,0l0,0l0,0
				c-0.89-0.33-1.78-0.56-2.79-0.56l0,0l0,0l0,0l0,0c-0.11,0-0.33,0-0.45,0c-0.89,0.11-1.67,0.22-2.34,0.56l0,0c0,0,0,0-0.11,0l0,0
				c-0.33,0.11-0.67,0.45-0.67,0.89c0,0.11,0,0.22,0,0.22v20.95v0.11c0.11,0.33,0.33,0.67,0.67,0.78l0,0
				c0.89,0.33,1.78,0.56,2.9,0.56l0,0l0,0h0.22c1,0,1.89-0.22,2.79-0.56c0,0,0.11,0,0.11-0.11c0.22-0.11,0.45-0.33,0.56-0.56v-6.91
				h-2.45c-0.11,0-0.22,0-0.33-0.11c-0.45-0.11-0.89-0.67-0.89-1.11v-1c0-0.67,0.56-1.23,1.23-1.23h7.58c0.67,0,1.11,0.45,1.23,1.11
				v9.58c0,0.33-0.22,0.67-0.56,0.89c0,0-0.11,0-0.11,0.11l0,0c-0.89,0.45-1.78,0.78-2.79,1.11c-2.01,0.67-4.12,1-6.46,1h-0.22
				c-2.23,0-4.35-0.33-6.35-1c-1-0.33-1.89-0.67-2.79-1.11l0,0c0,0-0.11,0-0.11-0.11c-0.33-0.22-0.56-0.56-0.56-0.89v-22.73
				c0.11-0.33,0.33-0.56,0.56-0.67c0,0,0.11,0,0.11-0.11c0.89-0.45,1.78-0.89,2.79-1.23c0.89-0.33,1.78-0.56,2.79-0.78
				c1.23-0.22,2.34-0.33,3.57-0.33l0,0l0,0l0,0c0,0,0,0,0.11,0c1.23,0,2.56,0.11,3.68,0.33c0.89,0.22,1.78,0.45,2.67,0.67
				c0.67,0.22,1.34,0.56,2.12,0.78c0.22,0.11,0.56,0.22,0.78,0.33l0,0c0,0,0.11,0,0.11,0.11c0.33,0.22,0.56,0.56,0.56,1V156
				c0,0.45-0.33,0.89-0.67,1c-0.11,0-0.11,0-0.22,0.11c-0.56,0.22-1.11,0.33-1.78,0.33l0,0c-0.22,0-0.33,0-0.56,0
				c-0.67,0-1.23-0.11-1.89-0.22c-0.11,0-0.33-0.11-0.45-0.11h-0.11c-0.33-0.11-0.56-0.33-0.67-0.67
				C137.16,156.55,137.16,156.44,137.16,156.33z"/>
			<path class="st1" d="M109.97,147.31v23.62c0,0.11,0,0.22,0,0.22c-0.11,0.33-0.33,0.67-0.56,0.89c0,0-0.11,0-0.11,0.11
				c-0.89,0.45-1.78,0.67-2.79,0.67l0,0l0,0l0,0c-1,0-2.01-0.22-2.9-0.67l0,0c-0.33-0.22-0.56-0.45-0.67-0.89c0-0.11,0-0.22,0-0.22
				v-23.62H96.6v24.51c0,0.45,0.22,0.89,0.56,1.11l0.11,0.11l0,0c0.89,0.45,1.78,0.89,2.79,1.23c2.01,0.78,4.23,1.11,6.46,1.11
				c2.23,0,4.46-0.45,6.46-1.11c1-0.33,1.89-0.78,2.79-1.23l0,0c0.11,0,0.11-0.11,0.22-0.11c0.33-0.22,0.56-0.67,0.56-1.11v-24.51
				h-6.57V147.31z"/>
		</g>
	</g>
	<g>
		<g>
			<g>
				<path class="st1" d="M100.28,74.1c1,0.78,3.01,1.11,6.02,1.11c2.79,0,4.68-0.33,5.79-1c1.11-0.67,1.78-1.45,1.78-2.45V37.1
					H98.72v34.65C98.72,72.65,99.27,73.43,100.28,74.1z"/>
			</g>
		</g>
		<g>
			<g>
				<path class="st1" d="M112.2,95.6c-1-0.78-3.01-1.11-6.02-1.11c-2.79,0-4.68,0.33-5.79,1c-1.11,0.67-1.78,1.45-1.78,2.45v34.43
					h15.15V97.94C113.76,97.05,113.2,96.38,112.2,95.6z"/>
			</g>
		</g>
		<path class="st1" d="M143.4,52.03v65.41c0,8.25-6.69,14.93-14.82,14.93h-1.89V97.94c0-1.23-0.45-2.34-1.23-3.45
			c-0.89-1.11-2.12-2.12-3.9-3.01c-1.78-0.89-3.9-1.56-6.46-2.12c-2.56-0.56-5.57-0.78-9.03-0.78c-3.57,0-6.69,0.22-9.25,0.89
			c-2.56,0.56-4.68,1.23-6.24,2.12c-1.67,0.89-2.79,1.89-3.57,3.01s-0.78,2.23-0.78,3.23l-0.33,34.32
			c-9.25,0-16.71-5.57-16.71-14.93V52.03c0-8.25,6.69-14.93,14.82-14.93h1.89v34.32c0,1.23,0.45,2.34,1.23,3.45
			c0.89,1.11,2.12,2.12,3.9,3.01c1.78,0.89,3.9,1.56,6.46,2.12c2.56,0.56,5.57,0.78,9.03,0.78c3.57,0,6.69-0.33,9.25-0.89
			c2.56-0.56,4.68-1.23,6.24-2.12c1.67-0.89,2.79-1.89,3.57-3.01c0.78-1.11,0.78-2.23,0.78-3.23l0.33-34.32
			C135.82,37.1,143.4,42.79,143.4,52.03z"/>
	</g>
</g>
</svg>
