<?xml version="1.0" standalone="no"?>
<!DOCTYPE svg PUBLIC "-//W3C//DTD SVG 1.1//EN" "http://www.w3.org/Graphics/SVG/1.1/DTD/svg11.dtd" >
<svg xmlns="http://www.w3.org/2000/svg" xmlns:xlink="http://www.w3.org/1999/xlink" version="1.1">
<metadata>
Created by FontForge 20170731 at Tue Jul 18 17:32:29 2023
 By Aleksey,,,
Copyright (c) 2019 by Eko Bimantara. All rights reserved.
</metadata>
<defs>
<font id="HornbillPersonalUse-BlackIta" horiz-adv-x="825" >
  <font-face 
    font-family="Hornbill Personal Use Blk Ita"
    font-weight="1000"
    font-style="italic"
    font-stretch="normal"
    units-per-em="2048"
    panose-1="0 0 0 0 0 0 0 0 0 0"
    ascent="1536"
    descent="-512"
    x-height="1024"
    cap-height="1372"
    bbox="-199.485 -434 3258.38 1970"
    underline-thickness="102"
    underline-position="-358"
    unicode-range="U+000D-FB02"
  />
<missing-glyph horiz-adv-x="1003" 
d="M184 0v1372h635v-1372h-635zM737 1290h-471v-1208h471v1208z" />
    <glyph glyph-name="fi" unicode="fi" horiz-adv-x="1435" 
d="M1464 821l-90 -557q-3 -20 7.5 -38.5t24 -31.5t22.5 -38t4 -56q-7 -47 -35.5 -73t-63.5 -29q-106 -8 -141 -8q-155 0 -203.5 59t-23.5 215l71 445q6 43 -14.5 72t-67.5 44t-99.5 21t-127.5 8q-22 0 -25 -20l-155 -992q-5 -32 -18 -63t-42.5 -67t-71.5 -62t-112 -44
t-158 -18q-8 0 -25 1t-26 1q-46 3 -69.5 27.5t-16.5 69.5q5 30 25 53.5t41 36t40.5 29.5t22.5 36l150 946q3 21 -17 21q-9 0 -30 -1t-31 -1q-50 -1 -63 55q-12 57 19 111q30 51 79 51q41 0 59 -2q23 0 23 18l22 134q12 74 48.5 133t91.5 97.5t118 65.5t138.5 40.5t142 19.5
t137.5 6q54 0 82.5 -0.5t80.5 -2.5t83 -6t73 -12t68.5 -19.5t50.5 -29.5t37 -41q20 -40 20.5 -83.5t-21.5 -85.5t-55 -75.5t-79.5 -54t-95.5 -20.5q-59 0 -98.5 14.5t-58.5 38t-30 51.5t-20 56t-22 51.5t-41.5 38t-73.5 14.5q-137 0 -158 -147l-37 -222q-1 -9 4 -13.5
t15 -4.5q59 3 175.5 22t186.5 19h158q107 0 159 -52t37 -151z" />
    <glyph glyph-name="fl" unicode="fl" horiz-adv-x="1435" 
d="M965 264l141 891q-49 0 -82.5 22t-49 53t-27 62.5t-28.5 54t-42 23.5q-24 0 -42.5 -9t-30 -22t-19.5 -34.5t-11.5 -39t-7.5 -42.5l-33 -205q-3 -17 12 -17h5q126 23 184 23q52 0 65 -56t-20 -110q-31 -50 -80 -51q-22 0 -41.5 1.5t-39 5t-31.5 5.5t-34 7.5l-30 7.5
t-15 -3t-8 -14l-153 -975q-5 -32 -18 -63t-42.5 -67t-71.5 -62t-112 -44t-158 -18q-8 0 -25 1t-26 1q-46 3 -69.5 27.5t-16.5 69.5q5 30 25 53.5t41 36t40.5 29.5t22.5 36l150 949q3 18 -17 18q-20 -2 -61 -2q-50 -1 -63 55q-12 57 19 111q30 51 79 51q23 0 59 -4
q19 -3 23 18l22 136q10 64 40.5 117t72.5 89.5t97 65t110.5 45t117 27t112.5 14.5t101 4q52 0 96.5 -1.5t105 -6t108.5 -13t97 -24t80 -36t47.5 -52t10.5 -70.5l-170 -1069q-3 -20 7.5 -38.5t24 -31.5t22.5 -38t4 -56q-7 -47 -35.5 -73t-63.5 -29q-106 -8 -141 -8
q-155 0 -203.5 59t-23.5 215z" />
    <glyph glyph-name=".notdef" horiz-adv-x="1003" 
d="M184 0v1372h635v-1372h-635zM737 1290h-471v-1208h471v1208z" />
    <glyph glyph-name="uni0000" horiz-adv-x="0" 
 />
    <glyph glyph-name="uni0000" horiz-adv-x="0" 
 />
    <glyph glyph-name="uni000D" unicode="&#xd;" horiz-adv-x="512" 
 />
    <glyph glyph-name="space" unicode=" " horiz-adv-x="512" 
 />
    <glyph glyph-name="exclam" unicode="!" horiz-adv-x="645" 
d="M741 1145l-211 -567q-22 -56 -52.5 -83.5t-84.5 -27.5q-58 0 -79 27.5t-23 83.5l-23 567q-4 104 79 176t198 72q114 0 173 -73t23 -175zM143 172q13 85 79.5 137.5t158.5 52.5q91 0 139 -52.5t35 -137.5q-13 -86 -79 -139t-157 -53q-92 0 -140.5 53t-35.5 139z" />
    <glyph glyph-name="quotedbl" unicode="&#x22;" horiz-adv-x="978" 
d="M653 1391l-121 -381q-16 -55 -46.5 -83t-86.5 -28q-59 0 -83.5 28.5t-22.5 82.5l10 381q2 64 60.5 114.5t140.5 50.5t125 -50.5t24 -114.5zM1116 1391l-121 -381q-16 -55 -46.5 -83t-86.5 -28q-59 0 -83.5 28.5t-22.5 82.5l10 381q2 64 60.5 114.5t140.5 50.5t125 -50.5
t24 -114.5z" />
    <glyph glyph-name="numbersign" unicode="#" horiz-adv-x="1400" 
d="M162 0q-51 0 -72.5 32t8.5 87l131 219q13 22 -10 22h-2q-55 0 -82.5 30t-19.5 81q9 51 45.5 81t91.5 30h100q26 0 39 22l125 207q6 11 2.5 17t-14.5 6h-80q-55 0 -81.5 29.5t-18.5 80.5t45 81t92 30h178q24 0 37 22l119 197q38 66 71.5 92.5t106.5 26.5q51 0 71.5 -31.5
t-8.5 -87.5l-118 -197q-6 -11 -2.5 -16.5t14.5 -5.5h190q24 0 37 22l119 197q38 66 71.5 92.5t106.5 26.5q51 0 72 -31.5t-8 -87.5l-119 -197q-6 -11 -2.5 -16.5t12.5 -5.5h2q54 0 80 -29t18 -80q-7 -52 -44 -82t-93 -30h-96q-24 0 -37 -23l-125 -207q-13 -22 10 -22h76
q56 0 83 -29t20 -80q-9 -53 -46 -83t-92 -30h-174q-26 0 -39 -22l-131 -219q-72 -119 -178 -119q-51 0 -72 32t9 87l131 219q13 22 -11 22h-190q-26 0 -39 -22l-131 -219q-72 -119 -178 -119zM633 604q-13 -22 10 -22h191q25 0 38 22l125 207q6 11 2.5 17t-14.5 6h-190
q-24 0 -37 -23z" />
    <glyph glyph-name="dollar" unicode="$" horiz-adv-x="1345" 
d="M707 1370q25 7 28 31l21 131q6 35 30.5 56.5t59.5 21.5h186q35 0 53.5 -21.5t12.5 -56.5l-19 -123q-2 -11 4.5 -19.5t16.5 -9.5q264 -35 303 -176q17 -62 -8.5 -127t-79 -106t-111.5 -41q-33 0 -61 14q-37 18 -76.5 55.5t-67 69.5t-69.5 57t-88 25q-62 0 -112 -27.5
t-60 -85.5q-6 -35 15 -63.5t61 -49t93 -39.5t112 -39t117.5 -43t110 -56t89.5 -74.5t56 -102.5t9 -135q-13 -100 -56.5 -179t-109 -129t-135.5 -80.5t-151 -47.5q-26 -7 -29 -29l-21 -131q-6 -35 -30.5 -56.5t-59.5 -21.5h-186q-35 0 -53.5 21.5t-12.5 56.5l19 121
q1 10 -4.5 17.5t-16.5 9.5q-313 33 -358 194q-28 102 40 178t163 76q33 0 63 -12q36 -14 72 -41t65.5 -54.5t61.5 -53t72 -42t84 -16.5q66 0 103 24.5t42 65.5q5 36 -31.5 65.5t-97.5 53.5t-135 50t-146.5 63.5t-129.5 85t-85.5 122.5t-13.5 168q16 102 59 183t105.5 134.5
t133 86.5t153.5 51z" />
    <glyph glyph-name="percent" unicode="%" horiz-adv-x="2256" 
d="M1776 1274l-799 -1155q-29 -42 -51.5 -65t-59.5 -38.5t-88 -15.5q-33 0 -61 14.5t-38 41t15 63.5l799 1155q41 62 83 90.5t116 28.5q54 0 86 -34t-2 -85zM242 1010q30 189 173.5 286t360.5 97t328.5 -97t81.5 -286q-30 -188 -171 -279.5t-360 -91.5q-143 0 -240.5 37.5
t-145 122t-27.5 211.5zM618 1012q-18 -132 -2.5 -192t60.5 -60q43 0 78.5 62.5t54.5 189.5q20 132 5 196t-58 64q-44 0 -80.5 -66t-57.5 -194zM1288 365q30 189 174 286t361 97t328 -97t81 -286q-30 -188 -169.5 -279.5t-358.5 -91.5q-143 0 -241.5 37.5t-146.5 122.5
t-28 211zM1665 367q-18 -132 -3 -192t60 -60q43 0 78.5 62.5t54.5 189.5q20 132 5 196t-58 64q-44 0 -80 -65.5t-57 -194.5z" />
    <glyph glyph-name="ampersand" unicode="&#x26;" horiz-adv-x="1624" 
d="M1180 119q-187 -139 -408 -139q-109 0 -205.5 15t-180.5 49t-141.5 84t-84.5 125t-13 167q21 126 103 214.5t207 141.5q23 9 8 27q-56 62 -75 122.5t-7 139.5q16 100 95 175.5t197.5 114t258.5 38.5q183 0 303.5 -58t157.5 -161q18 -53 6 -98.5t-43.5 -78.5t-75.5 -52
t-90 -19q-49 0 -90.5 23t-65.5 69q-2 4 -12.5 24.5t-15.5 29t-16 26t-20 26t-22 19.5t-27.5 15.5t-31.5 4.5q-52 0 -90 -28.5t-47 -83.5q-7 -49 10.5 -87t56.5 -79q90 -86 344 -312q6 -6 13 -6q8 0 16 15q22 64 37 123q13 49 69 82.5t117 33.5q68 0 102 -48t7 -148
q-27 -112 -107 -240q-13 -22 4 -39q133 -124 138 -129q26 -27 -3.5 -80.5t-85.5 -96t-98 -42.5q-23 0 -35 12l-120 109q-5 8 -19 8q-9 0 -20 -8zM698 575q-23 0 -43 -53.5t-22 -85.5q-11 -92 42.5 -159.5t160.5 -67.5q87 0 165 65q22 18 5 35l-291 260q-6 6 -17 6z" />
    <glyph glyph-name="quotesingle" unicode="'" horiz-adv-x="516" 
d="M653 1391l-121 -381q-16 -55 -46.5 -83t-86.5 -28q-59 0 -83.5 28.5t-22.5 82.5l10 381q2 64 60.5 114.5t140.5 50.5t125 -50.5t24 -114.5z" />
    <glyph glyph-name="parenleft" unicode="(" horiz-adv-x="745" 
d="M586 600q-71 -452 28 -842q22 -77 -49 -77h-96q-25 0 -47 19.5t-51 57.5q-120 156 -176.5 377t-18.5 461q38 241 165.5 465t297.5 383q42 40 70 60t53 20h96q70 0 25 -80q-225 -395 -297 -844z" />
    <glyph glyph-name="parenright" unicode=")" horiz-adv-x="745" 
d="M348 600q73 452 -26 844q-19 80 49 80h96q17 0 35.5 -13t29.5 -26t33 -41q118 -160 174.5 -383.5t18.5 -464.5q-38 -240 -165 -461t-296 -377q-81 -77 -123 -77h-96q-67 0 -25 77q224 391 295 842z" />
    <glyph glyph-name="asterisk" unicode="*" horiz-adv-x="940" 
d="M573 1284q8 -8 9 -8q6 0 2 14q-19 89 -11 142q7 52 47 84t99 32q53 0 80 -32t20 -84q-2 -13 -6 -26.5t-7 -23.5t-10 -25t-11 -22.5t-13 -25t-12 -23.5q-2 -4 -3 -7t-0.5 -5t1.5 -2q2 0 10 8q33 35 56 56t63 44t74 23q60 0 88 -66q21 -48 2.5 -92t-68.5 -71
q-50 -29 -147 -44q-7 -1 -9.5 -2.5t0 -3t9.5 -2.5q95 -21 129 -43q44 -28 49.5 -72t-31.5 -94q-48 -63 -113 -63q-31 0 -61 18q-15 10 -29 24t-20 21t-23.5 31.5t-19.5 26.5l-8 8q-3 0 0 -14q20 -96 12 -146q-7 -55 -45.5 -87t-91.5 -32q-58 0 -87.5 31.5t-21.5 87.5
q3 18 10 38.5t12.5 32.5t18 38t16.5 35q4 7 5 10.5t0 3.5q-3 0 -11 -8q-7 -6 -22.5 -21.5t-24 -23t-21.5 -19t-26 -20.5t-26 -17q-38 -18 -68 -18q-62 0 -90 63q-21 50 -3 94t70 72q40 21 146 43q7 1 9.5 2.5t0 3t-9.5 2.5q-89 15 -131 44q-42 26 -46.5 71t29.5 92
q48 66 111 66q29 0 61 -19q11 -8 21 -16.5t20 -20.5t15 -18.5t17 -23.5t15 -21z" />
    <glyph glyph-name="plus" unicode="+" horiz-adv-x="897" 
d="M246 494q-55 0 -87 41t-32 110t32 110.5t87 41.5h108q12 0 20.5 8t8.5 20v109q0 55 40 87t109 32q71 0 112.5 -32t41.5 -87v-109q0 -12 8.5 -20t20.5 -8h108q55 0 87 -40.5t32 -109.5q0 -71 -32 -112t-87 -41h-108q-12 0 -20.5 -8.5t-8.5 -20.5v-109q0 -55 -41 -86.5
t-110 -31.5q-70 0 -111 31.5t-41 86.5v109q0 12 -8.5 20.5t-20.5 8.5h-108z" />
    <glyph glyph-name="comma" unicode="," horiz-adv-x="638" 
d="M100 -141l78 321q17 68 87.5 113t144.5 45q53 0 90 -19.5t49.5 -63.5t-27.5 -114l-157 -286q-21 -36 -67.5 -61t-100.5 -25q-48 0 -77 26.5t-20 63.5z" />
    <glyph glyph-name="hyphen" unicode="-" horiz-adv-x="835" 
d="M283 776h516q56 0 81 -40t13 -109q-11 -71 -48.5 -112.5t-92.5 -41.5h-516q-55 0 -81.5 41.5t-15.5 110.5t50 110t94 41z" />
    <glyph glyph-name="period" unicode="." horiz-adv-x="657" 
d="M147 152q12 84 78.5 137t159.5 53q90 0 138 -52.5t36 -137.5q-13 -86 -78.5 -139.5t-156.5 -53.5q-92 0 -141 53.5t-36 139.5z" />
    <glyph glyph-name="slash" unicode="/" horiz-adv-x="956" 
d="M1149 1274l-797 -1155q-24 -34 -38 -50.5t-39.5 -35.5t-59.5 -26t-84 -7q-57 0 -97 34.5t-5 84.5l796 1155q41 59 92 89t127 30q34 0 66.5 -14.5t48 -41t-9.5 -63.5z" />
    <glyph glyph-name="zero" unicode="0" 
d="M96 0v1372h635v-1372h-635zM649 1290h-471v-1208h471v1208z" />
    <glyph glyph-name="one" unicode="1" 
d="M96 0v1372h635v-1372h-635zM649 1290h-471v-1208h471v1208z" />
    <glyph glyph-name="two" unicode="2" 
d="M96 0v1372h635v-1372h-635zM649 1290h-471v-1208h471v1208z" />
    <glyph glyph-name="three" unicode="3" 
d="M96 0v1372h635v-1372h-635zM649 1290h-471v-1208h471v1208z" />
    <glyph glyph-name="four" unicode="4" 
d="M96 0v1372h635v-1372h-635zM649 1290h-471v-1208h471v1208z" />
    <glyph glyph-name="five" unicode="5" 
d="M96 0v1372h635v-1372h-635zM649 1290h-471v-1208h471v1208z" />
    <glyph glyph-name="six" unicode="6" 
d="M96 0v1372h635v-1372h-635zM649 1290h-471v-1208h471v1208z" />
    <glyph glyph-name="seven" unicode="7" 
d="M96 0v1372h635v-1372h-635zM649 1290h-471v-1208h471v1208z" />
    <glyph glyph-name="eight" unicode="8" 
d="M96 0v1372h635v-1372h-635zM649 1290h-471v-1208h471v1208z" />
    <glyph glyph-name="nine" unicode="9" 
d="M96 0v1372h635v-1372h-635zM649 1290h-471v-1208h471v1208z" />
    <glyph glyph-name="colon" unicode=":" horiz-adv-x="575" 
d="M213 834q13 85 79.5 137.5t158.5 52.5q91 0 139 -52.5t35 -137.5q-12 -86 -77.5 -139.5t-156.5 -53.5q-92 0 -141 53.5t-37 139.5zM106 152q12 85 78 137.5t158 52.5q91 0 139.5 -52.5t36.5 -137.5q-13 -86 -78.5 -139.5t-156.5 -53.5q-92 0 -141 53.5t-36 139.5z" />
    <glyph glyph-name="semicolon" unicode=";" horiz-adv-x="575" 
d="M59 -141l88 321q18 69 83.5 113.5t138.5 44.5q78 0 118 -42.5t5 -105.5l-189 -335q-21 -35 -66.5 -60.5t-91.5 -25.5q-47 0 -72 26.5t-14 63.5zM213 834q13 85 79.5 137.5t158.5 52.5q91 0 139 -52.5t35 -137.5q-12 -86 -77.5 -139.5t-156.5 -53.5q-92 0 -141 53.5
t-37 139.5z" />
    <glyph glyph-name="less" unicode="&#x3c;" horiz-adv-x="1101" 
d="M1087 836l-432 -209q-23 -11 -23 -25t23 -24l432 -209q53 -26 60 -89.5t-33 -113.5q-45 -60 -106 -60q-41 0 -93 25l-722 350q-66 32 -66 121t66 121l722 350q52 25 93 25q61 0 106 -60q40 -50 33 -113t-60 -89z" />
    <glyph glyph-name="equal" unicode="=" horiz-adv-x="847" 
d="M246 926h528q55 0 87 -34.5t32 -94.5q0 -62 -32 -97.5t-87 -35.5h-528q-55 0 -87 35.5t-32 95.5t32 95.5t87 35.5zM246 555h528q55 0 87 -34.5t32 -94.5q0 -62 -32 -97.5t-87 -35.5h-528q-55 0 -87 35.5t-32 95.5t32 95.5t87 35.5z" />
    <glyph glyph-name="greater" unicode="&#x3e;" horiz-adv-x="1101" 
d="M618 627l-432 209q-53 26 -59.5 89t33.5 113q45 60 106 60q40 0 92 -25l723 -350q66 -32 66 -121t-66 -121l-723 -350q-52 -25 -92 -25q-61 0 -106 60q-40 50 -33.5 113.5t59.5 89.5l432 209q23 10 23 24t-23 25z" />
    <glyph glyph-name="question" unicode="?" horiz-adv-x="1232" 
d="M424 172q13 85 79.5 137.5t158.5 52.5q91 0 139 -52.5t35 -137.5q-13 -86 -79 -139t-157 -53q-92 0 -140.5 53t-35.5 139zM1317 1042q-7 -43 -24 -83.5t-34.5 -70t-49 -61.5t-53 -51t-61.5 -45.5t-58.5 -38t-59.5 -35.5q-36 -21 -60 -51.5t-37.5 -56t-31.5 -49.5
t-54 -37.5t-94 -13.5h-79q-59 0 -105.5 27t-61.5 77t31 121q27 41 85.5 89.5t111.5 86t102.5 88.5t65.5 100q19 47 4 86t-59 39q-35 0 -64.5 -15t-46.5 -32.5t-46 -51t-48 -52.5q-88 -88 -191 -88q-64 0 -106 34t-44.5 91.5t50.5 132.5q80 109 229.5 160t327.5 51
q106 0 194 -21.5t153.5 -63t96 -110t17.5 -156.5z" />
    <glyph glyph-name="at" unicode="@" horiz-adv-x="1851" 
d="M1182 981q8 -4 14 -4q4 0 16 4q53 35 109 35h100q56 0 81 -17t22 -41t-13.5 -37t-20.5 -16.5t-20.5 -16.5t-13.5 -38l-49 -311q-14 -88 8.5 -131t95.5 -43q72 0 126 74t77 214q45 289 -111.5 450t-463.5 161q-302 0 -516 -179.5t-261 -472.5q-30 -195 29.5 -343.5
t197.5 -229t335 -80.5q179 0 329 66q23 10 41 10q45 0 60 -41l8 -19q12 -31 -0.5 -59t-46.5 -43q-216 -94 -434 -94q-185 0 -331 59.5t-237.5 166.5t-128 261t-6.5 338q39 244 173 431.5t341 289.5t457 102q190 0 338 -53t243.5 -152t133 -246.5t8.5 -330.5
q-34 -214 -167.5 -338.5t-328.5 -124.5q-180 0 -266 109q-7 10 -14 10q-8 0 -19 -14q-81 -117 -215 -117q-89 0 -159.5 25.5t-119.5 76.5t-67.5 134.5t-1.5 193.5q18 109 67.5 193.5t119 135t148.5 76t163 25.5q101 0 159 -43q2 -1 5.5 -3t5.5 -3zM870 592q-26 -281 80 -281
q25 0 46 20.5t35 52t22.5 58.5t13.5 52l45 280q-8 58 -29 82.5t-75 24.5q-57 -6 -91 -74t-47 -215z" />
    <glyph glyph-name="A" unicode="A" horiz-adv-x="1525" 
d="M467 264l-4 -12q-11 -18 -5 -36t18 -30t21.5 -36.5t4.5 -53.5q-6 -35 -29 -57.5t-60.5 -32.5t-68.5 -13t-72 -3h-41h-16q-28 0 -46.5 1t-46.5 4t-45.5 10.5t-34.5 19t-23.5 31.5t-2.5 46q5 31 24 55.5t40 38t44 32.5t34 38l471 903q58 108 113.5 155.5t144.5 47.5h166
q64 0 103.5 -34.5t62.5 -127.5l235 -944q4 -19 21 -38t33.5 -32.5t27.5 -38t6 -55.5q-7 -48 -50 -75t-97 -27h-193q-188 0 -237 252l-4 12q-3 21 -27 21h-432q-24 0 -35 -21zM633 541h241q11 0 15.5 5.5t1.5 14.5l-76 336q-4 12 -8 12q-5 0 -14 -12l-170 -334
q-11 -22 10 -22z" />
    <glyph glyph-name="B" unicode="B" horiz-adv-x="1427" 
d="M219 1268q6 45 49 74.5t117 29.5h631q98 0 179 -25t139.5 -72.5t84.5 -124t11 -173.5q-28 -171 -168 -254q237 -83 198 -322q-16 -104 -72.5 -182.5t-141.5 -125.5t-186.5 -70t-217.5 -23h-721q-48 0 -71.5 23t-16.5 67q4 28 23.5 51t41.5 35t40.5 28.5t21.5 33.5
l131 819q4 25 -3.5 46.5t-20.5 38.5t-25.5 34.5t-19.5 41t-3 50.5zM643 563l-41 -256q-4 -13 -1 -31t13 -24q68 -19 123 -19q228 0 256 177q7 42 -3 74t-31 51t-54 31t-67 16t-76 4h-94q-22 0 -25 -23zM707 821h53q195 0 221 158q23 160 -139 160q-67 0 -90.5 -17t-32.5 -80
l-33 -198q-3 -23 21 -23z" />
    <glyph glyph-name="C" unicode="C" horiz-adv-x="1431" 
d="M168 676q23 142 79 261t133 202t174 141t201 85.5t214 27.5q95 0 172 -11t150.5 -38t130.5 -78t94 -125q52 -112 20 -199t-113 -139.5t-172 -52.5q-74 0 -131 39.5t-80 121.5q-38 129 -79 190.5t-111 61.5h-16q-183 -17 -183 -428q-1 -153 52 -258.5t137 -142.5
q58 -23 112 -23q176 0 359 168q38 35 73 35q30 0 40.5 -27t-5.5 -71q-55 -143 -162 -244t-234.5 -147t-266.5 -45q-104 1 -199.5 28.5t-176 85t-135.5 138.5t-76.5 195.5t-0.5 248.5z" />
    <glyph glyph-name="D" unicode="D" horiz-adv-x="1490" 
d="M291 1057q4 25 -3.5 46.5t-20.5 38.5t-25.5 34.5t-19.5 41t-3 50.5q8 46 50 75t116 29h549q116 0 215.5 -25.5t182.5 -79t135 -136t72.5 -196t-3.5 -259.5q-22 -142 -78 -257t-133.5 -192t-177.5 -129t-206.5 -75t-223.5 -23h-596q-48 0 -71.5 23t-16.5 67q5 28 24.5 51
t41 35t40 28.5t21.5 33.5zM610 281q49 -43 113 -43q114 0 206 110t128 334q34 218 -23 335.5t-168 117.5q-64 0 -125 -43q-16 -16 -28 -78l-109 -686q-4 -28 6 -47z" />
    <glyph glyph-name="E" unicode="E" horiz-adv-x="1255" 
d="M657 532l-28 -178q-3 -32 5 -49.5t36 -17.5h305q30 0 59.5 16.5t50.5 35.5t52.5 35.5t64.5 16.5q46 0 69.5 -37.5t12.5 -111.5l-10 -56q-11 -79 -73.5 -132.5t-158.5 -53.5h-921q-48 0 -71.5 23t-16.5 67q5 28 24.5 51t41 35t40 28.5t21.5 33.5l131 819q4 25 -3.5 46.5
t-20.5 38.5t-25.5 34.5t-19.5 41t-3 50.5q8 46 50 75t116 29h834q96 0 141.5 -53.5t32.5 -132.5l-11 -56q-11 -74 -46 -111.5t-81 -37.5q-33 0 -59 16.5t-41 35.5t-39.5 35.5t-54.5 16.5h-275q-24 0 -34.5 -12.5t-16.5 -48.5l-30 -201q-3 -22 18 -22h154q19 0 39 16.5
t35.5 35.5t41.5 35.5t56 16.5q44 0 61.5 -26t17.5 -76q0 -41 -11.5 -118t-26.5 -132q-27 -102 -113 -102q-30 0 -51 16.5t-30.5 35.5t-24 35.5t-33.5 16.5h-154q-24 0 -27 -23z" />
    <glyph glyph-name="F" unicode="F" horiz-adv-x="1255" 
d="M655 516l-43 -264q-3 -19 11 -36.5t31.5 -30t30 -36t7.5 -53.5q-6 -44 -35.5 -66t-81.5 -30q-112 -16 -223 -16q-109 0 -231 16q-98 13 -88 96q5 30 25 53.5t41.5 36t40.5 30t22 36.5l129 805q4 25 -3.5 46.5t-20.5 38.5t-25.5 34.5t-19.5 41t-3 50.5q6 45 49 74.5
t117 29.5h875q95 0 140 -53.5t34 -132.5l-7 -35q-11 -73 -45.5 -106t-81.5 -33q-50 0 -102 36.5t-96 36.5h-316q-40 0 -51 -69l-35 -209q-3 -23 21 -23h194q19 0 39 16.5t35.5 36t41.5 36t56 16.5q44 0 62 -26.5t18 -76.5q0 -39 -13 -115.5t-28 -133.5q-24 -103 -110 -103
q-30 0 -51 16.5t-30.5 36t-24 36t-33.5 16.5h-195q-24 0 -27 -23z" />
    <glyph glyph-name="G" unicode="G" horiz-adv-x="1568" 
d="M1460 438q-20 -213 -186 -336t-477 -122q-116 1 -219.5 28.5t-188 85t-141.5 138.5t-79 195t-1 249q23 142 80.5 261t138 202.5t181 141t210.5 85t226 27.5q157 0 276.5 -20t198.5 -79q57 -43 70 -100t-13.5 -110.5t-72.5 -100t-109 -74.5t-121 -28q-118 0 -170 110
q-38 81 -82.5 126.5t-116.5 45.5q-97 -9 -155 -125t-58 -303q-2 -155 50 -269.5t145 -143.5q47 -13 84 -13q76 0 145.5 41t114.5 109q9 18 -10 18q-27 -2 -65.5 -6.5t-71.5 -7t-72 -2.5q-64 0 -76.5 87.5t27.5 175t104 87.5q52 0 125.5 -11.5t130.5 -11.5t141.5 10.5
t139.5 10.5q64 0 76 -87.5t-28 -175t-104 -87.5h-22q-22 0 -25 -21z" />
    <glyph glyph-name="H" unicode="H" horiz-adv-x="1544" 
d="M121 0q-98 13 -88 96q5 30 25 53.5t42 36t41.5 30t22.5 36.5l127 805q4 25 -3.5 46.5t-20.5 38.5t-25.5 34.5t-19.5 41t-3 50.5q8 46 50 75t116 29h340q73 0 99 -28.5t18 -75.5q-5 -33 -23.5 -62t-38 -47t-37 -45t-22.5 -57l-39 -248q-3 -13 4 -22t21 -9h376q30 0 37 31
l39 248q5 30 -5 57t-23.5 45t-22.5 47t-4 62q18 104 149 104h340q74 0 107.5 -29t25.5 -75q-5 -33 -26 -62t-43.5 -47t-42.5 -45t-25 -57l-127 -805q-3 -19 10 -36.5t30.5 -30t30 -36t7.5 -53.5q-10 -82 -117 -96q-118 -16 -225 -16q-95 0 -207 16q-36 5 -60.5 30.5
t-17.5 71.5q5 31 23.5 56t38.5 38t38 31.5t21 38.5l35 226q1 13 -6 21.5t-21 8.5h-376q-14 0 -24 -8.5t-11 -21.5l-35 -226q-3 -20 6.5 -38.5t22.5 -31.5t22 -38t4 -56q-7 -47 -34.5 -72t-63.5 -30q-118 -16 -213 -16q-104 0 -219 16z" />
    <glyph glyph-name="I" unicode="I" horiz-adv-x="675" 
d="M721 1057l-127 -805q-3 -19 10 -36.5t30.5 -30t30 -36t7.5 -53.5q-6 -44 -35.5 -66t-81.5 -30q-112 -16 -213 -16q-99 0 -221 16q-98 13 -88 96q5 30 25 53.5t42 36t41.5 30t22.5 36.5l127 805q4 25 -3.5 46.5t-20.5 38.5t-25.5 34.5t-19.5 41t-3 50.5q8 46 50 75t116 29
h338q74 0 107.5 -29t25.5 -75q-4 -27 -18.5 -50.5t-32 -41t-35 -34.5t-31.5 -38.5t-18 -46.5z" />
    <glyph glyph-name="J" unicode="J" horiz-adv-x="1036" 
d="M1061 1057l-100 -633q-12 -74 -30.5 -132.5t-57.5 -119t-93.5 -101t-142 -66t-199.5 -25.5q-177 0 -272.5 57.5t-106.5 148.5q-4 42 6 86.5t33.5 85.5t69.5 67t106 26q49 0 80 -25t43 -61t18.5 -72t14.5 -61t23 -25q12 0 21.5 8t17 26t13 37.5t11.5 52.5t9.5 59.5t10 70
t11.5 74.5l84 522q4 25 -3.5 46.5t-20.5 38.5t-25.5 34.5t-19.5 41t-3 50.5q8 46 50 75t116 29h338q74 0 107.5 -29t25.5 -75q-4 -27 -18.5 -50.5t-32 -41t-35 -34.5t-31.5 -38.5t-18 -46.5z" />
    <glyph glyph-name="K" unicode="K" horiz-adv-x="1398" 
d="M121 0q-98 13 -88 96q5 30 25 53.5t42 36t41.5 30t22.5 36.5l127 805q4 25 -3.5 46.5t-20.5 38.5t-25.5 34.5t-19.5 41t-3 50.5q8 46 50 75t116 29h158q107 0 159 -52.5t35 -150.5l-53 -344q-3 -18 10 -18q9 0 15 4q93 55 169.5 125.5t114.5 138.5q16 30 19 52t-2 37
t-8 40t2 62q6 35 27.5 57.5t57 32.5t65 13t69.5 3h41q66 0 116 -12.5t82 -48t23 -90.5q-18 -117 -135.5 -252.5t-296.5 -263.5q-12 -9 -16 -22t3 -24l236 -360q26 -39 56.5 -70t48 -45t28 -34.5t6.5 -47.5q-7 -39 -97 -80.5t-198 -41.5q-37 0 -64 3t-50 13.5t-38.5 21
t-34 34.5t-31.5 44t-36 60l-159 274q-13 24 -23.5 34.5t-24.5 10.5q-8 0 -14 -2q-4 -1 -7 -2l-6 -2t-5 -2l-31 -201q-3 -20 6.5 -38.5t22.5 -31.5t22 -38t4 -56q-7 -47 -34.5 -72t-63.5 -30q-118 -16 -213 -16q-104 0 -219 16z" />
    <glyph glyph-name="L" unicode="L" horiz-adv-x="1122" 
d="M291 1057q4 25 -3.5 46.5t-20.5 38.5t-25.5 34.5t-19.5 41t-3 50.5q8 46 50 75t116 29h338q74 0 107.5 -29t25.5 -75q-4 -27 -18.5 -50.5t-32 -41t-35 -34.5t-31.5 -38.5t-18 -46.5l-109 -678q-9 -72 56 -72h168q30 0 59.5 16.5t50.5 36t52.5 36t64.5 16.5q46 0 68.5 -38
t11.5 -112l-13 -76q-11 -79 -73 -132.5t-158 -53.5h-778q-48 0 -71.5 23t-16.5 67q5 28 24.5 51t41 35t40 28.5t21.5 33.5z" />
    <glyph glyph-name="M" unicode="M" horiz-adv-x="2029" 
d="M123 0q-98 13 -88 96q5 30 24.5 53.5t40 36t40 30t24.5 36.5l221 805q7 29 0.5 47t-20 38t-27 35.5t-21.5 39.5t-4 51q6 45 49 74.5t117 29.5h404q125 0 149 -252l51 -606q3 -27 11 -27q9 0 18 27l242 606q47 123 106 187.5t121 64.5h404q74 0 106.5 -29t26.5 -75
q-4 -27 -19.5 -50.5t-35 -40.5t-38 -34.5t-31.5 -39t-14 -46.5l-36 -805q-1 -15 8.5 -29t22.5 -25.5t25.5 -24.5t19.5 -33t3 -44q-10 -83 -116 -96q-118 -16 -226 -16q-94 0 -206 16q-79 12 -66 102q5 31 22.5 56t36 38t34 31.5t16.5 38.5l28 520q3 29 -4 29q-4 0 -18 -27
l-246 -585q-40 -97 -96 -146.5t-138 -56.5h-59q-79 7 -119 57t-49 146l-61 585q-3 27 -8 27t-15 -29l-135 -520q-7 -25 9.5 -46.5t34 -50t11.5 -67.5q-7 -47 -35 -72t-63 -30q-118 -16 -213 -16q-104 0 -219 16z" />
    <glyph glyph-name="N" unicode="N" horiz-adv-x="1495" 
d="M121 0q-47 0 -70.5 25t-17.5 71q5 30 25 53.5t42 36t41.5 30t22.5 36.5l127 805q4 25 -3.5 46.5t-20.5 38.5t-25.5 34.5t-19.5 41t-3 50.5q8 46 50 75t116 29h279q109 0 167.5 -62t98.5 -190l176 -575q6 -23 14 -23q7 0 13 29l90 569q3 19 -11 36.5t-31.5 30t-30 36
t-7.5 53.5q7 46 38.5 71t78.5 25h331q47 0 71 -25t17 -71q-5 -30 -25 -53.5t-41.5 -36t-40.5 -30t-22 -36.5l-129 -805q-4 -25 3.5 -46.5t20.5 -38.5t25.5 -34.5t19.5 -41t3 -50.5q-6 -45 -49 -74.5t-117 -29.5h-278q-100 0 -175.5 67.5t-111.5 184.5l-164 526q-6 23 -12 23
q-7 0 -13 -29l-81 -520q-3 -19 10 -36.5t30 -30t29.5 -36t7.5 -53.5q-6 -46 -37.5 -71t-78.5 -25h-332z" />
    <glyph glyph-name="O" unicode="O" horiz-adv-x="1552" 
d="M168 676q23 142 80 261t137 202.5t180 141t209.5 85t224.5 27.5t215 -28t181.5 -84.5t133.5 -142t72 -201t-4 -261.5q-22 -142 -78.5 -259t-135 -197t-178 -135t-207.5 -80t-224 -25t-216 25.5t-183 79t-135.5 136t-74 196t2.5 259.5zM643 635q1 -233 52.5 -340
t154.5 -107q25 0 37 2q119 19 177.5 146t57.5 381q0 234 -50 341t-152 107q-277 0 -277 -530z" />
    <glyph glyph-name="P" unicode="P" horiz-adv-x="1357" 
d="M614 387l-20 -133q-3 -19 6.5 -37t22.5 -31t22 -36.5t4 -53.5q-6 -43 -33.5 -67t-62.5 -29h-432q-48 0 -71.5 23t-16.5 67q4 28 23.5 51t41.5 35t40.5 28.5t21.5 33.5l131 819q4 25 -3.5 46.5t-20.5 38.5t-25.5 34.5t-19.5 41t-3 50.5q6 45 49 74.5t117 29.5h520
q102 0 191 -17.5t163 -56t123 -95t69.5 -138.5t4.5 -182q-19 -123 -84 -216.5t-162.5 -148t-211.5 -81.5t-244 -27h-113q-24 0 -27 -23zM666 713q-4 -31 11 -48.5t46 -17.5h33q78 0 139 60t82 182q19 118 -23.5 182t-119.5 64q-58 0 -85 -39.5t-40 -106.5z" />
    <glyph glyph-name="Q" unicode="Q" horiz-adv-x="1552" 
d="M1026 12q-114 -32 -252 -32q-116 0 -216 25.5t-183 79t-135.5 136t-74 196t2.5 259.5q23 142 80 261t137 202.5t180 141t209.5 85t224.5 27.5t215 -28t181.5 -84.5t133.5 -142t72 -201t-4 -261.5q-49 -320 -268 -506q-9 -8 -9 -16t9 -13q99 -64 121 -82q32 -25 19 -71
t-46 -90.5t-81.5 -77.5t-86.5 -33q-30 0 -47 20q-22 24 -44.5 53.5t-55 75.5t-47.5 66q-6 12 -25 12q-6 0 -10 -2zM1079 379q43 122 43 338q0 234 -50 341t-152 107q-277 0 -277 -530q0 -447 199 -447q43 0 40 13q0 2 -3 4q-33 23 -80 67q-28 28 -23 64.5t26.5 69.5t57 56
t68.5 23q54 0 133 -112q3 -6 8 -6q7 0 10 12z" />
    <glyph glyph-name="R" unicode="R" horiz-adv-x="1409" 
d="M618 408l-22 -142q-4 -25 12.5 -47t32.5 -50.5t10 -68.5q-7 -46 -34.5 -70.5t-63.5 -29.5h-432q-48 0 -71.5 23t-16.5 67q5 28 24.5 51t41 35t40 28.5t21.5 33.5l131 819q4 25 -3.5 46.5t-20.5 38.5t-25.5 34.5t-19.5 41t-3 50.5q8 46 50 75t116 29h520q102 0 191 -17.5
t163 -55t123.5 -92.5t70 -135.5t5.5 -178.5q-41 -261 -295 -381q-13 -6 -17.5 -17.5t3.5 -21.5l127 -174q27 -37 58 -68.5t48 -45.5t27 -35t6 -48q-7 -39 -97 -80.5t-198 -41.5q-45 0 -76 6t-53.5 16t-44.5 34.5t-37.5 48.5t-42.5 71l-129 229q-13 25 -24 35t-29 10h-41
q-22 0 -25 -22zM670 733q-6 -32 13.5 -48.5t59.5 -16.5q102 0 160 61.5t76 169.5q18 114 -25 175t-120 61q-47 0 -80 -33q-32 -37 -43 -107z" />
    <glyph glyph-name="S" unicode="S" horiz-adv-x="1243" 
d="M205 915q17 110 66.5 196t115.5 138t151 85.5t166 46t168 12.5q72 0 140.5 -7.5t143.5 -26.5t128 -58.5t68 -96.5q17 -62 -8.5 -127t-79 -106t-111.5 -41q-33 0 -61 14q-38 19 -71.5 48t-55.5 55.5t-46 50.5t-55.5 38.5t-72.5 14.5q-75 0 -120 -32.5t-53 -80.5
q-6 -35 15 -63.5t61 -49t93 -39.5t112 -39t118 -43t110.5 -56t89.5 -74.5t56 -102.5t9 -135q-13 -110 -66.5 -194.5t-123 -132.5t-159 -78.5t-164 -40.5t-148.5 -10q-487 0 -543 202q-28 102 40 178t163 76q33 0 63 -12q39 -15 76 -43t65 -55t58 -52.5t69.5 -41t85.5 -15.5
q66 0 103.5 24.5t42.5 65.5q4 28 -18 52t-62 43t-92 38.5t-109.5 41.5t-114 48t-105.5 62.5t-84.5 80.5t-50.5 106t-3 136z" />
    <glyph glyph-name="T" unicode="T" horiz-adv-x="1409" 
d="M264 1004q-46 0 -69.5 37.5t-12.5 111.5l6 33q13 79 74.5 132.5t157.5 53.5h1003q96 0 141.5 -53.5t32.5 -132.5l-6 -33q-11 -74 -46 -111.5t-81 -37.5q-33 0 -59.5 12.5t-42.5 28t-41 28t-55 12.5h-152q-24 0 -27 -22l-126 -811q-3 -19 10 -36.5t30 -30t29.5 -36
t7.5 -53.5q-6 -44 -35 -66t-81 -30q-112 -16 -213 -16q-100 0 -222 16q-98 13 -88 96q5 30 25 53.5t42 36t41.5 30t22.5 36.5l127 811q3 22 -18 22h-152q-44 0 -108.5 -40.5t-114.5 -40.5z" />
    <glyph glyph-name="U" unicode="U" horiz-adv-x="1505" 
d="M750 -20q-96 0 -183 17t-162 55t-126.5 93.5t-74 137t-7.5 180.5l94 594q4 25 -3.5 46.5t-20.5 38.5t-25.5 34.5t-19.5 41t-3 50.5q8 46 50 75t116 29h340q73 0 99 -28.5t18 -75.5q-5 -33 -23.5 -62t-38 -47t-37 -45t-22.5 -57l-90 -561q-42 -263 157 -263
q104 0 162.5 66.5t79.5 196.5l90 561q5 30 -5 57t-23.5 45t-22.5 47t-4 62q18 104 149 104h340q74 0 108 -29.5t26 -74.5q-4 -27 -19 -50.5t-33 -41t-36 -34.5t-32 -38.5t-18 -46.5l-94 -594q-15 -99 -63.5 -180.5t-117.5 -137t-156.5 -93.5t-180 -55t-188.5 -17z" />
    <glyph glyph-name="V" unicode="V" horiz-adv-x="1525" 
d="M1511 1382h17q28 0 46.5 -1t46 -4t45 -10.5t34.5 -19t23.5 -31.5t2.5 -46q-5 -31 -23.5 -55.5t-39.5 -38t-43.5 -32t-32.5 -38.5l-473 -903q-58 -108 -113.5 -155.5t-144.5 -47.5h-166q-65 0 -103.5 34.5t-60.5 127.5l-235 944q-5 19 -22.5 38t-34 32.5t-27.5 38t-6 55.5
q7 48 50 75t97 27h193q183 0 237 -243q1 -6 2 -9l148 -645q4 -12 8 -12q5 0 14 12l332 645q10 18 3.5 36t-18.5 30t-21.5 36.5t-4.5 53.5q6 35 29 57.5t60 32.5t68 13t72 3h41z" />
    <glyph glyph-name="W" unicode="W" horiz-adv-x="2060" 
d="M291 1106q-4 20 -21 38.5t-34 32t-28.5 38t-6.5 55.5q7 48 50 75t97 27h152q55 0 98.5 -22t67.5 -51.5t41.5 -68.5t23 -63.5t8.5 -46.5l74 -585q4 -15 12 -15q9 0 15 15l209 505q8 23 4 45l-2 21q-4 20 -21 38.5t-34 32t-28.5 38t-6.5 55.5q7 48 50 75t97 27h152
q55 0 98.5 -22t67.5 -51.5t41.5 -68.5t23 -63.5t8.5 -46.5l76 -596q3 -10 8 -10t10 10l224 596q7 18 0 36t-18.5 30t-19.5 36.5t-3 53.5q6 35 29 57.5t60 32.5t68 13t72 3h57q28 0 46.5 -1t46.5 -4t45.5 -10.5t34.5 -19t23.5 -31.5t2.5 -46q-5 -31 -24.5 -55.5t-41 -38
t-43.5 -32t-30 -38.5l-371 -903q-43 -105 -104.5 -154t-153.5 -49h-125q-68 0 -109 34t-55 128l-53 315q-3 27 -14 27q-9 0 -21 -27l-117 -274q-45 -105 -105.5 -154t-152.5 -49h-131q-68 0 -109 34t-55 128z" />
    <glyph glyph-name="X" unicode="X" horiz-adv-x="1320" 
d="M1034 723q-19 -19 -8 -41l223 -416q10 -19 38 -44.5t42 -52t8 -67.5q-7 -48 -50 -75t-97 -27h-203q-43 0 -79.5 20.5t-62.5 55t-43.5 65.5t-33 67t-20.5 44l-76 143q-6 13 -19 13q-7 0 -20 -13q-9 -9 -55.5 -57t-55.5 -57q-31 -33 -42 -65.5t-4.5 -55.5t12.5 -48t9 -44
t-14 -43q-17 -21 -71 -33t-121 -12q-102 0 -172 28.5t-62 85.5q17 110 166 262q23 23 142 143t143 144q19 19 8 41l-225 422q-10 17 -29.5 36.5t-33.5 32.5t-23 38t-4 57q7 48 50 75t97 27h203q43 0 80 -20.5t62.5 -55t43 -65.5t33.5 -67t21 -44l79 -149q10 -13 19 -13
q10 0 20 13q10 10 58 60t57 59q31 33 42 65.5t4.5 55.5t-12.5 48t-9 44t14 43q17 21 71 33t121 12q102 0 172 -29t62 -86q-17 -110 -166 -262q-23 -23 -143.5 -144.5t-145.5 -146.5z" />
    <glyph glyph-name="Y" unicode="Y" horiz-adv-x="1417" 
d="M936 811l223 309q15 18 9 37t-19.5 30.5t-24.5 35.5t-6 53q5 36 31.5 59t69.5 32.5t75 12t76 2.5h19h18q28 0 47 -1t48.5 -4t49 -10.5t37.5 -19t25.5 -31.5t3.5 -46q-6 -40 -34.5 -66.5t-66 -50t-53.5 -47.5l-436 -608l-39 -246q-3 -19 10 -36.5t30.5 -30t30 -36
t7.5 -53.5q-6 -44 -35.5 -66t-81.5 -30q-112 -16 -213 -16q-99 0 -221 16q-98 13 -88 96q5 30 25 53.5t42 36t41.5 30t22.5 36.5l23 143l-291 711q-10 25 -37 49t-43 49.5t-10 65.5q7 48 50 75t97 27h162q31 0 59 -6t49.5 -15t42 -24.5t34.5 -28t28 -33.5t22 -34t17.5 -34.5
t12.5 -30t9 -27.5l7 -19l112 -309q3 -12 15 -12q9 0 18 12z" />
    <glyph glyph-name="Z" unicode="Z" horiz-adv-x="1257" 
d="M686 287h2q69 0 131 22.5t101 49t92.5 49t107.5 22.5q82 0 125 -51.5t29 -149.5q-36 -229 -361 -229h-684q-101 0 -149.5 31.5t-40.5 81.5q3 25 27 53.5t53.5 52t68.5 59.5t64 70l534 713q8 11 5 17.5t-15 6.5h-59q-57 0 -100.5 -14.5t-70.5 -35.5t-53 -42.5t-62.5 -36
t-84.5 -14.5q-79 0 -114.5 50.5t-20.5 150.5q11 66 43.5 112t82.5 71t106.5 35.5t127.5 10.5h660q100 0 148 -31t40 -81q-4 -32 -38.5 -67t-88 -81.5t-84.5 -87.5l-532 -713q-8 -11 -5 -17.5t15 -6.5z" />
    <glyph glyph-name="bracketleft" unicode="[" horiz-adv-x="851" 
d="M885 1300h-146q-19 0 -32.5 -11t-16.5 -29l-207 -1315q-3 -19 6.5 -30t28.5 -11h146q41 0 62 -25.5t13 -66.5l-6 -41q-6 -41 -35.5 -67t-70.5 -26h-463q-41 0 -62.5 27t-13.5 70l262 1659q6 41 36 66.5t71 25.5h463q41 0 62 -25.5t15 -66.5l-6 -41q-8 -42 -36.5 -67.5
t-69.5 -25.5z" />
    <glyph glyph-name="backslash" unicode="\" horiz-adv-x="956" 
d="M211 1274q-20 50 32 84.5t109 34.5q76 0 118 -30t65 -89l430 -1155q20 -50 -32.5 -84.5t-109.5 -34.5q-40 0 -69 6t-45.5 13.5t-30.5 26.5t-20 31.5t-17 41.5z" />
    <glyph glyph-name="bracketright" unicode="]" horiz-adv-x="851" 
d="M526 1300h-145q-41 0 -63 26t-15 67l6 41q6 41 36 66.5t71 25.5h463q41 0 62 -25.5t15 -66.5l-262 -1659q-8 -43 -37.5 -70t-70.5 -27h-463q-41 0 -62.5 26t-15.5 67l6 41q7 41 37.5 66.5t71.5 25.5h145q40 0 47 41l207 1315q6 40 -33 40z" />
    <glyph glyph-name="asciicircum" unicode="^" horiz-adv-x="1167" 
d="M903 823l-209 287q-8 14 -24 14q-14 0 -25 -14l-209 -287q-42 -57 -112 -57q-46 0 -91 31q-54 38 -63 91t29 107l350 478q48 63 121 63t121 -63l350 -478q38 -54 28.5 -107t-63.5 -91q-45 -31 -90 -31q-71 0 -113 57z" />
    <glyph glyph-name="underscore" unicode="_" horiz-adv-x="1148" 
d="M193 -51h747q55 0 81 -37t15 -102q-11 -66 -48.5 -105t-92.5 -39h-748q-55 0 -81 38t-15 103t49 103.5t93 38.5z" />
    <glyph glyph-name="grave" unicode="`" horiz-adv-x="722" 
d="M575 1180l-217 161q-57 44 -45.5 112t74.5 106q54 32 115 32q87 0 133 -67l162 -221q27 -37 33.5 -69.5t-4 -53.5t-33.5 -35q-40 -21 -76 -21q-63 0 -142 56z" />
    <glyph glyph-name="a" unicode="a" horiz-adv-x="1265" 
d="M565 -20q-111 0 -199.5 31.5t-151.5 94t-87.5 166.5t-3.5 240t78.5 240t141 166.5t182.5 94t210 31.5q153 0 230 -86q2 2 7 6.5t7 6.5q77 53 164 53h96q64 0 92.5 -29.5t20.5 -74.5q-7 -50 -38 -108.5t-38 -102.5l-64 -394q-5 -30 4.5 -57t22.5 -45t21.5 -47t3.5 -62
q-6 -45 -49 -74.5t-117 -29.5h-117q-44 0 -95 16t-81 45q-100 -81 -240 -81zM758 860q-159 0 -199 -352q-18 -180 11 -263t98 -81q46 1 75 20t50 60l81 518q-8 48 -41 73t-75 25z" />
    <glyph glyph-name="b" unicode="b" horiz-adv-x="1282" 
d="M418 102q-58 -49 -138 -75.5t-161 -26.5q-59 0 -86 25t-21 71q5 29 25 53.5t42 38.5t42 36t24 48l152 951q4 25 -3.5 46.5t-20.5 38.5t-25.5 34.5t-19.5 41t-3 50.5q6 45 49 74.5t117 29.5h137q84 0 147.5 -55t47.5 -148l-49 -309q-3 -27 16 -27q4 0 19 5q93 40 219 40
q96 0 175 -31.5t136.5 -94t81 -167t2.5 -239.5q-21 -136 -74.5 -240t-127.5 -166.5t-160.5 -94t-182.5 -31.5q-198 0 -303 122q-12 15 -26 15q-16 0 -31 -15zM782 850q-118 -7 -166 -188l-12 -78q-21 -197 -10 -288q18 -140 102 -140h6q70 3 114 86.5t65 267.5
q41 340 -93 340h-6z" />
    <glyph glyph-name="c" unicode="c" horiz-adv-x="1155" 
d="M715 856q-73 -13 -132.5 -109.5t-58.5 -222.5q-1 -113 51.5 -179.5t139.5 -80.5q28 -4 47 -4q152 0 297 123q26 23 55 23q31 0 42.5 -24t-11.5 -75q-78 -155 -223 -238.5t-310 -88.5q-93 0 -175 21.5t-151 65t-113 116.5t-54 169q-13 148 32 277t134.5 220t221 143
t286.5 52q77 0 137.5 -7t115.5 -24.5t93 -46t63.5 -74t32.5 -106.5q12 -101 -65.5 -175t-182.5 -74q-59 0 -110 26q-39 20 -60 58t-26 77.5t-8 76t-15 60t-39 23.5q-2 0 -6.5 -1t-7.5 -1z" />
    <glyph glyph-name="d" unicode="d" horiz-adv-x="1280" 
d="M825 55q-88 -75 -219 -75q-119 0 -214.5 31.5t-164.5 94t-97 166.5t-7 240q17 109 60 198.5t103 150.5t134.5 103t153.5 61t161 19q91 0 158 -28q12 -4 16 -4q22 0 25 28l27 181q5 30 -7 57t-28.5 45t-28 47t-6.5 62q6 45 49 74.5t117 29.5h137q84 0 146.5 -55t48.5 -148
l-168 -1067q-3 -20 6.5 -38.5t22.5 -31.5t22 -38t4 -56q-5 -35 -21.5 -58t-43 -33t-52 -13.5t-61.5 -3.5q-124 0 -209 65q-15 11 -29 11q-17 0 -35 -15zM731 858q-69 -8 -111 -91.5t-59 -264.5q-36 -348 101 -348h4q46 3 94 70t67 155l39 239q0 133 -28.5 186.5t-89.5 53.5
h-17z" />
    <glyph glyph-name="e" unicode="e" horiz-adv-x="1146" 
d="M614 303q59 -59 152 -59q145 0 313 145q26 23 56 23q26 0 33 -23t-15 -72q-166 -337 -547 -337q-216 0 -348 115t-139 325q-4 92 26.5 184.5t91.5 171.5t142.5 140.5t188 97t220.5 35.5q152 0 258 -59.5t142 -178.5q25 -81 -5.5 -157.5t-115.5 -114.5l-440 -199
q-13 -6 -17 -17t4 -20zM559 549l172 74q74 32 53 106q-11 47 -40.5 77t-71.5 30q-21 0 -45 -9q-59 -21 -88.5 -90.5t-14.5 -169.5q3 -22 23 -22q4 0 12 4z" />
    <glyph glyph-name="f" unicode="f" horiz-adv-x="1046" 
d="M270 809q-20 -2 -61 -2q-50 -1 -63 55q-12 57 19 111q30 51 79 51q23 0 59 -4q19 -3 23 18l22 136q12 73 49.5 133t90 97.5t110 65t116.5 41t101 19.5t72 6q52 0 80 -0.5t75 -3.5t75.5 -10t62.5 -19t56.5 -31.5t37.5 -46.5q29 -49 23.5 -97.5t-33 -86.5t-79 -62
t-112.5 -24q-49 0 -79 22t-40.5 53t-17.5 62.5t-20.5 54t-38.5 23.5q-24 0 -42.5 -9t-30 -22t-19.5 -34.5t-11.5 -39t-7.5 -42.5l-33 -205q-3 -17 12 -17h5q126 23 184 23q52 0 65 -56t-20 -110q-31 -50 -80 -51q-22 0 -41.5 1.5t-39 5t-31.5 5.5t-34 7.5l-30 7.5t-15 -3
t-8 -14l-153 -975q-5 -32 -18 -63t-42.5 -67t-71.5 -62t-112 -44t-158 -18q-8 0 -25 1t-26 1q-46 3 -69.5 27.5t-16.5 69.5q5 30 25 53.5t41 36t40.5 29.5t22.5 36l150 949q3 18 -17 18z" />
    <glyph glyph-name="g" unicode="g" horiz-adv-x="1265" 
d="M125 532q21 130 78.5 230t140.5 160.5t181.5 91t209.5 30.5q147 0 226 -79q0 -3 4 -7q37 31 85.5 48.5t92.5 17.5h96q64 0 91.5 -29t21.5 -75q-8 -50 -38.5 -108.5t-37.5 -102.5l-109 -684q-17 -105 -67.5 -186t-114.5 -127.5t-146 -76t-152.5 -39.5t-143.5 -10
q-60 0 -96 1.5t-103 7.5t-108 22t-84 41t-59 69.5t-7 102.5q9 55 52 85t100 30q71 0 122 -45q14 -12 36 -33.5t35.5 -33.5t34.5 -26t46.5 -20t56.5 -6q73 0 121 57t62 148l10 63q-88 -49 -193 -49q-110 0 -199.5 33.5t-152 97.5t-88 167.5t-4.5 233.5zM756 860
q-42 0 -76 -27.5t-54 -66t-35.5 -90.5t-21.5 -90.5t-10 -77.5q-18 -177 11.5 -251.5t99.5 -72.5q46 1 75 20t50 60l79 498q-9 48 -42 73t-76 25z" />
    <glyph glyph-name="h" unicode="h" horiz-adv-x="1290" 
d="M686 903q144 141 313 141q166 0 246 -88t55 -251l-71 -441q-3 -20 7.5 -38.5t23.5 -31.5t22 -38t4 -56q-7 -47 -35 -73t-63 -29q-106 -8 -141 -8q-155 0 -204 59t-24 215l49 305q31 195 -67 195q-49 0 -100.5 -69t-83 -147.5t-39.5 -131.5l-23 -146q-3 -20 6.5 -38.5
t22.5 -31.5t22 -38t4 -56q-7 -47 -34.5 -72t-63.5 -30q-118 -16 -203 -16q-94 0 -209 16q-99 13 -86 96q5 30 25 53.5t41 36t40.5 30t22.5 36.5l152 965q5 30 -7 57t-28.5 45t-28 47t-6.5 62q6 45 49 74.5t117 29.5h137q84 0 146.5 -55t48.5 -148l-66 -420q-6 -24 5 -24
q10 0 24 14z" />
    <glyph glyph-name="i" unicode="i" horiz-adv-x="614" 
d="M250 1321q15 97 91 156t185 59t165.5 -59t41.5 -156t-90 -156t-184 -59t-166.5 59t-42.5 156zM143 264l72 445q4 25 -3.5 46.5t-20 38.5t-25 34.5t-20 41t-3.5 50.5q8 46 45.5 75t100.5 29h157q107 0 159.5 -52.5t37.5 -150.5l-90 -557q-3 -20 7.5 -38.5t23.5 -31.5
t22 -38t4 -56q-7 -47 -35 -73t-63 -29q-106 -8 -141 -8q-155 0 -204 59t-24 215z" />
    <glyph glyph-name="j" unicode="j" horiz-adv-x="700" 
d="M229 920q8 46 50 75t116 29h137q39 0 76 -13.5t67.5 -38t45.5 -64t8 -87.5l-123 -786q-12 -72 -31.5 -132.5t-56.5 -120t-87 -100.5t-127 -66.5t-173 -25.5q-152 0 -234.5 47t-93.5 127q-13 81 42 138t137 57q38 0 62.5 -21t35 -50.5t17 -59.5t13.5 -51t19 -21
q18 0 29.5 50.5t33.5 198.5q13 88 21 140l90 564q5 30 -7.5 57t-29.5 45t-29.5 47t-7.5 62zM334 1321q15 97 91 156t185 59t165.5 -59t41.5 -156t-90 -156t-184 -59t-166.5 59t-42.5 156z" />
    <glyph glyph-name="k" unicode="k" horiz-adv-x="1224" 
d="M571 369l-16 -99q-3 -20 6.5 -38.5t22.5 -31.5t22 -38t4 -56q-7 -47 -34.5 -72t-63.5 -30q-118 -16 -203 -16q-94 0 -209 16q-99 13 -86 96q5 30 25 53.5t41 36t40.5 30t22.5 36.5l152 965q5 30 -7 57t-28.5 45t-28 47t-6.5 62q6 45 49 74.5t117 29.5h137q84 0 146.5 -55
t48.5 -148l-111 -694q-3 -18 11 -18q8 0 14 4q144 82 205 155q27 31 34 53.5t0 36t-10 34.5t4 50q7 25 28.5 43t46.5 27t61.5 13.5t58.5 5.5t53 1h8q68 0 110 -23.5t52.5 -60t-2.5 -81t-49 -86.5q-72 -82 -264 -201q-26 -16 -12 -41l133 -242q23 -41 52.5 -72t48.5 -44.5
t30.5 -33t7.5 -46.5q-7 -42 -73 -82.5t-171 -40.5q-111 0 -161 34.5t-93 141.5l-78 196q-9 25 -18.5 35.5t-32.5 10.5q-13 -1 -23 -12.5t-12 -26.5z" />
    <glyph glyph-name="l" unicode="l" horiz-adv-x="614" 
d="M143 264l152 957q5 30 -7 57t-28.5 45t-28 47t-6.5 62q6 45 44.5 74.5t101.5 29.5h157q107 0 158.5 -52t36.5 -151l-170 -1069q-3 -20 7.5 -38.5t23.5 -31.5t22 -38t4 -56q-7 -47 -35 -73t-63 -29q-106 -8 -141 -8q-155 0 -204 59t-24 215z" />
    <glyph glyph-name="m" unicode="m" horiz-adv-x="1912" 
d="M793 264l49 305q31 195 -60 195q-54 0 -108 -88t-86 -193l-33 -209q-3 -20 7 -38.5t23 -31.5t22.5 -37.5t4.5 -55.5q-8 -47 -35.5 -72.5t-62.5 -30.5q-118 -16 -203 -16q-94 0 -209 16q-101 13 -88 96q5 30 25 53.5t41.5 36t40.5 30t22 36.5l72 449q4 25 -3.5 46.5
t-20 38.5t-25 34.5t-20 41t-3.5 50.5q8 46 50 75t116 29h137q57 0 108.5 -30.5t72.5 -82.5q6 -12 6 -16q6 -12 12 -12q7 0 17 10q148 151 321 151q113 0 185.5 -44t97.5 -128q6 -12 12 -12t16 10q68 81 155.5 127.5t182.5 46.5q161 0 238 -88t51 -251l-70 -441
q-3 -20 7 -38.5t23 -31.5t22 -38t4 -56q-7 -47 -35.5 -73t-63.5 -29q-106 -8 -141 -8q-155 0 -203.5 59t-23.5 215l51 305q31 195 -59 195q-54 0 -108.5 -88.5t-86.5 -192.5l-35 -219q-3 -20 7 -38.5t23 -31.5t21.5 -38t3.5 -56q-7 -47 -35 -73t-63 -29q-106 -8 -141 -8
q-154 0 -202 59t-23 215z" />
    <glyph glyph-name="n" unicode="n" horiz-adv-x="1290" 
d="M1300 705l-71 -441q-3 -20 7.5 -38.5t23.5 -31.5t22 -38t4 -56q-7 -47 -35 -73t-63 -29q-106 -8 -141 -8q-155 0 -204 59t-24 215l49 305q31 195 -67 195q-49 0 -100.5 -69t-83 -147.5t-39.5 -131.5l-23 -146q-3 -20 6.5 -38.5t22.5 -31.5t22 -38t4 -56q-7 -47 -34.5 -72
t-63.5 -30q-118 -16 -203 -16q-94 0 -209 16q-99 13 -86 96q5 30 25 53.5t41 36t40.5 30t22.5 36.5l72 453q4 25 -3.5 46.5t-20 38.5t-25 34.5t-20 41t-3.5 50.5q8 46 50 75t116 29h137q60 0 115.5 -30.5t73.5 -84.5q2 -4 4 -12.5t4 -13.5q5 -9 10 -9q7 0 13 9
q63 77 150 119t183 42q166 0 246 -88t55 -251z" />
    <glyph glyph-name="o" unicode="o" horiz-adv-x="1218" 
d="M123 512q17 109 60.5 198t105 150.5t140.5 103.5t165.5 61t181.5 19q118 0 213.5 -31.5t164.5 -94t98 -166.5t8 -240t-83 -240t-151.5 -166.5t-195.5 -94t-224 -31.5q-119 0 -214.5 31.5t-164.5 94t-97 166.5t-7 240zM821 535q1 170 -25.5 246.5t-86.5 76.5q-3 0 -9.5 -1
t-9.5 -1q-68 -11 -99 -96.5t-32 -270.5q-1 -168 26.5 -245.5t86.5 -77.5q2 0 7.5 1t8.5 1q70 10 100.5 95t32.5 272z" />
    <glyph glyph-name="p" unicode="p" horiz-adv-x="1282" 
d="M516 27l-27 -172q-3 -19 10.5 -36.5t31 -30t30.5 -36t8 -53.5q-7 -44 -36.5 -66t-81.5 -30q-116 -17 -201 -17q-80 0 -213 17q-99 13 -86 96q5 30 25 54t41 37t40.5 30.5t22.5 36.5l135 852q4 25 -3.5 46.5t-20 38.5t-25 34.5t-20 41t-3.5 50.5q8 46 50 75t116 29h137
q73 0 150 -57q9 -9 20 -9q13 0 25 9q113 77 287 77q96 0 175 -31.5t136.5 -94t81 -167t2.5 -239.5q-21 -136 -74.5 -240t-127.5 -166.5t-160.5 -94t-182.5 -31.5q-135 0 -233 61q-4 4 -13 4q-13 0 -16 -18zM604 584q-21 -197 -10 -288q18 -140 102 -140h6q70 3 114 86.5
t65 267.5q41 340 -93 340h-6q-118 -7 -166 -188z" />
    <glyph glyph-name="q" unicode="q" horiz-adv-x="1257" 
d="M717 -6q-46 -14 -111 -14q-119 0 -214.5 31.5t-164.5 94t-97 166.5t-7 240q17 109 60 198.5t103 150.5t134.5 103t153.5 61t161 19q109 0 178 -38q11 -8 29 -19q20 -8 31 -8t20 6q70 39 123 39h127q69 0 99 -29t22 -75q-7 -50 -48 -108.5t-48 -102.5l-140 -873
q-2 -16 6.5 -29.5t22 -25t27 -24t21 -32.5t3.5 -44q-7 -45 -36 -67t-80 -30q-112 -16 -203 -16q-89 0 -211 16q-101 13 -88 97q5 30 25 53.5t41.5 36t40.5 29.5t22 36l22 137q3 23 -14 23q-6 0 -10 -2zM731 858q-69 -8 -111 -91.5t-59 -264.5q-36 -348 101 -348q37 0 70 35
t56 79l72 457q-8 72 -35 102.5t-94 30.5z" />
    <glyph glyph-name="r" unicode="r" horiz-adv-x="970" 
d="M653 905q82 139 234 139q110 0 166 -53.5t41 -154.5q-16 -98 -77 -153.5t-132 -55.5q-40 0 -75.5 12t-55.5 27t-41 27t-37 12q-8 0 -14 -3q-34 -11 -56 -104l-53 -342q-3 -19 10.5 -36.5t31 -30t30.5 -36t8 -53.5q-7 -44 -37 -66t-82 -30q-109 -16 -201 -16
q-88 0 -213 16q-99 13 -86 96q5 30 25 53.5t41 36t40.5 30t22.5 36.5l72 453q4 25 -3.5 46.5t-20 38.5t-25 34.5t-20 41t-3.5 50.5q8 46 50 75t116 29h137q59 0 112.5 -33t76.5 -86q4 -8 8 -8q6 0 10 8z" />
    <glyph glyph-name="s" unicode="s" horiz-adv-x="1052" 
d="M172 688q12 79 54.5 142t100.5 102t132 65t145 36.5t144 10.5q61 0 115 -7.5t112 -26t98.5 -58t52.5 -96.5q18 -85 -32.5 -148t-124.5 -63q-48 0 -90 33q-39 33 -72 81.5t-56.5 72.5t-62.5 24q-46 0 -74 -26.5t-34 -71.5q-6 -35 20 -62t71.5 -46.5t101.5 -38t111.5 -42.5
t100.5 -54.5t70 -80t18 -112.5q-9 -83 -49.5 -146t-95.5 -99.5t-128.5 -59t-139 -30t-138.5 -7.5q-82 0 -147.5 8t-130 28.5t-108 62.5t-60.5 103q-23 83 21 134t114 51q67 0 115 -45q25 -24 57 -59.5t48.5 -52t42 -29.5t56.5 -13q49 0 79 25.5t36 68.5q4 26 -23 47t-72 37
t-100 33t-108.5 42.5t-95.5 58.5t-63.5 86.5t-10.5 121.5z" />
    <glyph glyph-name="t" unicode="t" horiz-adv-x="813" 
d="M240 809q-16 -2 -52 -2q-50 -1 -63 55q-12 57 19 111q30 51 79 51q35 0 49 -2q21 0 23 16l22 144q17 98 371 184q8 2 21 2q25 0 34.5 -18.5t4.5 -46.5l-46 -277q-3 -16 15 -16h4q68 14 135 14q52 0 65 -56t-20 -110q-31 -50 -80 -51q-59 0 -129 16q-21 0 -24 -16
l-72 -465q-9 -66 -3 -89.5t28 -23.5q17 0 70 26t79 26q17 0 29 -9q30 -20 12 -81q-24 -80 -108 -140q-101 -71 -244 -71q-29 0 -55 2.5t-55.5 9t-52.5 17t-47 27.5t-38.5 40.5t-26.5 55.5t-12 72t6 91l78 496q2 9 -2.5 14t-13.5 4z" />
    <glyph glyph-name="u" unicode="u" horiz-adv-x="1259" 
d="M438 -20q-160 0 -235 88t-49 251l61 390q4 25 -3.5 46.5t-20 38.5t-25 34.5t-20 41t-3.5 50.5q8 46 50 75t116 29h137q39 0 76 -13.5t67.5 -38t45.5 -64t8 -87.5l-59 -366q-28 -195 55 -195q33 0 69.5 41t63.5 98.5t46.5 114.5t25.5 94l16 101q4 25 -3.5 46.5t-20 38.5
t-25 34.5t-20 41t-3.5 50.5q8 46 50 75t116 29h138q84 0 147 -55t49 -148l-82 -506q-4 -25 3.5 -46.5t20.5 -38.5t25.5 -34.5t19.5 -41t3 -50.5q-6 -45 -49 -74.5t-117 -29.5h-137q-66 0 -123 38t-70 103q-4 11 -8 11q-3 0 -10 -7q-144 -165 -326 -165z" />
    <glyph glyph-name="v" unicode="v" horiz-adv-x="1177" 
d="M784 461l136 246q19 40 22.5 76.5t-2.5 62t-12.5 48t-5 44t17.5 41.5q18 24 79.5 37.5t133.5 13.5q75 -2 125 -17.5t51 -45.5q1 -33 -31.5 -75t-84 -99t-78.5 -105l-269 -485q-8 -15 -27 -49.5t-26 -46.5t-22.5 -35.5t-25.5 -32t-26 -20.5t-33 -15.5t-38 -3.5h-103
q-73 0 -122 54.5t-72 148.5l-140 561q-8 34 -31 68t-38.5 59.5t-11.5 48.5q11 84 147 84h172q72 0 121.5 -54t75.5 -149l94 -360q3 -12 10 -12q8 0 14 12z" />
    <glyph glyph-name="w" unicode="w" horiz-adv-x="1685" 
d="M231 764q-5 36 -28 69t-40 58.5t-13 48.5q11 84 147 84h172q76 0 131.5 -55.5t65.5 -147.5l43 -413q0 -15 6 -15q3 0 10 13l129 251q16 35 10 60l-6 47q-4 36 -27 69t-41 58.5t-14 48.5q11 84 148 84h172q78 0 133.5 -54.5t62.5 -148.5l29 -383q3 -14 6 -14t10 14
l121 269q16 34 19 65.5t-4 53.5t-16 44t-16.5 38.5t-6.5 35t14 35.5q18 24 79.5 37.5t133.5 13.5q73 0 124 -16t52 -47q1 -26 -22 -58.5t-53.5 -61.5t-66 -73t-53.5 -86l-210 -485q-45 -104 -99 -153.5t-137 -49.5h-66q-76 0 -129 54.5t-65 148.5l-23 151q-3 15 -6 15
t-10 -13l-80 -153q-53 -102 -107.5 -152.5t-125.5 -50.5h-68q-75 0 -128 55t-66 148z" />
    <glyph glyph-name="x" unicode="x" horiz-adv-x="1122" 
d="M399 500l-147 264q-15 28 -45 64t-45.5 62t-11.5 50q5 37 48.5 60.5t118.5 23.5h213q18 0 35 -5t29.5 -10.5t26.5 -20.5t22.5 -24t22 -31.5t19.5 -33t21 -39.5t21 -39l57 -102q3 -8 13 -8q6 0 10 4l14 12q36 29 48 59.5t5 53.5t-15 49t-12.5 46t13.5 44t78 37.5t131 13.5
q74 0 126.5 -16t53.5 -47q1 -56 -53 -133t-141 -146l-162 -131q-15 -12 -8 -29l147 -268q15 -28 45.5 -64t46 -62t11.5 -50q-5 -37 -49 -60.5t-119 -23.5h-213q-29 0 -54 11t-42.5 27t-37 46t-31 53.5t-30.5 65.5l-59 106q-3 8 -13 8q-8 0 -12 -4l-14 -12q-36 -29 -48 -59
t-5 -53.5t15.5 -49.5t13 -46t-12.5 -44q-18 -24 -78 -37.5t-131 -13.5q-74 0 -126.5 16t-53.5 47q-1 56 52.5 133t139.5 146l162 131q16 13 10 29z" />
    <glyph glyph-name="y" unicode="y" horiz-adv-x="1177" 
d="M784 467l136 240q19 40 22.5 76.5t-2.5 62t-12.5 48t-5 44t17.5 41.5q18 24 77 37.5t130 13.5q76 0 128.5 -15.5t53.5 -47.5q1 -33 -31 -75t-84 -99.5t-79 -104.5l-473 -844q-75 -134 -158.5 -195t-190.5 -61q-93 0 -164 41t-92 106.5t21 147.5q39 64 86 64
q25 0 86.5 -29t99.5 -29q88 0 174 117q-111 26 -153 197l-140 561q-8 34 -31 68t-38.5 59.5t-11.5 48.5q11 84 147 84h172q72 0 121.5 -54t75.5 -149l92 -354q6 -14 12 -14q8 0 14 14z" />
    <glyph glyph-name="z" unicode="z" horiz-adv-x="1073" 
d="M625 178h12q43 0 79.5 15t63 36t51.5 42t55.5 36t63.5 15q63 0 101.5 -39.5t27.5 -110.5q-25 -172 -268 -172h-635q-75 0 -111 23.5t-30 60.5q4 31 69.5 88t88.5 88q60 79 202.5 269.5t214.5 285.5q10 13 6.5 22t-18.5 9h-53q-42 0 -73.5 -15t-50.5 -36t-36.5 -42
t-44 -36t-61.5 -15q-61 0 -94 39t-21 111q11 65 51 105t92.5 53.5t124.5 13.5h615q75 0 111.5 -23.5t31.5 -60.5q-4 -24 -30.5 -50t-66.5 -60.5t-63 -65.5q-154 -207 -418 -555q-9 -13 -5.5 -22t18.5 -9z" />
    <glyph glyph-name="braceleft" unicode="{" horiz-adv-x="1013" 
d="M182 629q6 41 25.5 68t43.5 38.5t53.5 30t55.5 40t48.5 70.5t33.5 121l29 181q53 338 330 338h278q41 0 62.5 -26t15.5 -67l-6 -41q-6 -41 -36 -66.5t-71 -25.5h-96q-46 0 -73.5 -33.5t-40.5 -113.5l-31 -203q-32 -191 -174 -289q-34 -24 -6 -49q111 -103 79 -289
l-40 -262q-13 -80 4 -113.5t63 -33.5h96q41 0 62 -25.5t14 -66.5l-6 -41q-6 -41 -36 -67t-71 -26h-278q-276 0 -219 359l35 225q10 67 6 107.5t-18 68t-33 41.5t-39 27.5t-35.5 26t-23 37t-1.5 59.5z" />
    <glyph glyph-name="bar" unicode="|" horiz-adv-x="573" 
d="M537 1434v-1659q0 -43 -26 -70t-67 -27h-143q-41 0 -66.5 27t-25.5 70v1659q0 41 25.5 66.5t66.5 25.5h143q41 0 67 -25.5t26 -66.5z" />
    <glyph glyph-name="braceright" unicode="}" horiz-adv-x="1013" 
d="M1032 629q-6 -35 -21 -59t-35 -37.5t-43.5 -25.5t-48 -28.5t-46 -40.5t-40 -69t-28.5 -107l-35 -225q-57 -359 -334 -359h-278q-41 0 -62.5 26t-15.5 67l6 41q7 41 37.5 66.5t71.5 25.5h96q46 0 73 33t40 114l41 262q32 191 174 289q34 24 6 49q-111 104 -80 289l31 203
q13 81 -3.5 114t-62.5 33h-96q-41 0 -62.5 25.5t-15.5 66.5l6 41q6 41 36 67t71 26h278q276 0 223 -338l-28 -181q-10 -67 -5.5 -107.5t18.5 -68t33 -41.5t38.5 -27.5t35.5 -26t23 -37t2 -60.5z" />
    <glyph glyph-name="asciitilde" unicode="~" horiz-adv-x="933" 
d="M813 723q36 31 66 31q34 0 61.5 -28t34.5 -71q22 -105 -78 -194q-88 -76 -180 -76q-61 0 -163.5 41t-147.5 41q-64 0 -113 -49q-36 -31 -66 -31q-34 0 -61.5 27.5t-34.5 70.5q-23 109 78 195q93 78 184 78q61 0 163 -42t146 -42q59 0 111 49z" />
    <glyph glyph-name="exclamdown" unicode="&#xa1;" horiz-adv-x="645" 
d="M596 227q4 -101 -79.5 -174t-197.5 -73q-115 0 -174.5 71.5t-21.5 175.5l201 568q23 57 52.5 83.5t86.5 26.5q54 0 76 -27.5t24 -82.5zM307 1200q13 86 79.5 139.5t158.5 53.5q91 0 139 -53.5t35 -139.5q-13 -85 -79 -137.5t-157 -52.5q-92 0 -141 52.5t-35 137.5z" />
    <glyph glyph-name="cent" unicode="&#xa2;" horiz-adv-x="1241" 
d="M473 215q-117 40 -192 128t-88 214q-20 237 100 413.5t338 243.5q24 6 31 35l22 148q6 35 30.5 56.5t59.5 21.5h174q35 0 53.5 -21.5t12.5 -56.5l-21 -127q-3 -26 23 -29q129 -16 204 -75t89 -175q8 -67 -26.5 -125.5t-95 -91.5t-128.5 -33q-59 0 -111 27
q-38 20 -58.5 58.5t-25 77.5t-7.5 76t-15 60t-39 23q-2 0 -7 -1t-8 -1q-73 -13 -132.5 -109t-59.5 -223q0 -118 64 -191t178 -73q73 0 150 34t142 89q25 22 58 22q31 0 42.5 -23.5t-11.5 -74.5q-58 -114 -154 -190t-215 -111q-25 -6 -29 -35l-22 -139q-6 -35 -30.5 -56.5
t-59.5 -21.5h-174q-35 0 -53.5 21.5t-12.5 56.5l23 143q4 29 -19 35z" />
    <glyph glyph-name="sterling" unicode="&#xa3;" horiz-adv-x="1335" 
d="M621 287h362q30 0 59.5 16.5t50.5 35.5t52.5 35.5t64.5 16.5q46 0 69.5 -37.5t12.5 -111.5l-10 -56q-11 -79 -73 -132.5t-158 -53.5h-875q-93 0 -76 102l17 103q12 82 63 82q32 0 56 14.5t39 44.5t23.5 61.5t16.5 77.5l2 25q6 25 -22 25q-7 0 -23 -1.5t-24 -1.5
q-50 -1 -63 55t19 111q30 51 79 52q33 0 47 -2q23 -3 30 24l27 172q39 253 157 351t371 98q328 0 424 -197q41 -88 19 -153t-78 -102.5t-121 -37.5q-54 0 -95 28t-58 83q-7 23 -12.5 50.5t-8 42.5t-8 29.5t-15 20.5t-24.5 6h-6q-13 -1 -23 -7.5t-17 -20t-12 -28t-9 -37.5
t-6.5 -41.5t-6 -47.5t-6.5 -49l-29 -187q-6 -22 19 -22h4q12 2 47.5 9t53 9.5t48 5.5t60.5 3q53 0 65 -57q12 -56 -20 -110q-31 -51 -80 -51q-20 0 -40.5 1.5t-34 2.5t-35 5.5t-29 5.5t-32.5 7t-30 7q-1 0 -3 1t-3 1q-19 0 -22 -22q-3 -6 -3 -13q-32 -150 -170 -227
q-11 -6 -10 -10t13 -4z" />
    <glyph glyph-name="currency" unicode="&#xa4;" horiz-adv-x="1288" 
d="M193 303q-25 25 -25 55.5t25 55.5l77 78q19 19 9 43q-37 84 -37 184q0 94 37 182q10 24 -9 43l-77 78q-25 25 -25 55.5t25 55.5l122 122q25 25 56 25q30 0 55 -25l78 -77q11 -11 28 -11q11 0 15 2q84 37 184 37q94 0 182 -37q4 -2 15 -2q17 0 28 11l78 77q25 25 56 25
q30 0 55 -25l123 -122q25 -25 25 -55.5t-25 -55.5l-78 -78q-18 -18 -8 -43q37 -88 37 -182q0 -100 -37 -184q-10 -25 8 -43l78 -78q25 -25 25 -55.5t-25 -55.5l-123 -123q-24 -24 -55 -24q-32 0 -56 24l-78 78q-10 10 -28 10q-11 0 -15 -2q-88 -37 -182 -37q-100 0 -184 37
q-4 2 -15 2q-18 0 -28 -10l-78 -78q-24 -24 -55 -24q-32 0 -56 24zM500 715q0 -95 70 -160.5t165 -65.5q93 3 158 71.5t65 162.5q-1 95 -68.5 160t-162.5 65q-95 -3 -161 -70.5t-66 -162.5z" />
    <glyph glyph-name="yen" unicode="&#xa5;" horiz-adv-x="1417" 
d="M291 1106q-10 25 -37 49t-43 49.5t-10 65.5q7 48 50 75t97 27h162q31 0 59 -6t49.5 -15t42 -24.5t34.5 -28t28 -33.5t22 -34t17.5 -34.5t12.5 -30t9 -27.5l7 -19l112 -307q7 -14 15 -14t18 14l223 307q15 18 9 37t-19.5 30.5t-24.5 35.5t-6 53q5 36 31.5 59t69.5 32.5
t75 12t76 2.5h37q28 0 47 -1t48.5 -4t49 -10.5t37.5 -19t25.5 -31.5t3.5 -46q-6 -40 -34.5 -66.5t-66 -50t-53.5 -47.5q-35 -49 -112.5 -153.5t-135.5 -185t-108 -155.5q-7 -10 -3.5 -16t15.5 -6h94q53 0 71.5 -22t12.5 -66q-8 -46 -33.5 -69t-78.5 -23h-146q-12 0 -20 -7.5
t-10 -19.5l-6 -33q-3 -26 22 -26h145q53 0 71.5 -22t12.5 -66q-13 -93 -112 -93h-146q-27 0 -30 -26l-9 -51q-5 -29 -25.5 -47.5t-49.5 -18.5h-299q-29 0 -44.5 18.5t-11.5 47.5l9 51q3 26 -23 26h-186q-53 0 -71.5 23t-12.5 67q13 91 112 91h187q27 0 30 26l7 33
q3 27 -23 27h-186q-100 0 -84 90q13 90 112 90h76q26 0 17 22q-44 98 -201 494z" />
    <glyph glyph-name="brokenbar" unicode="&#xa6;" horiz-adv-x="573" 
d="M209 870v523q0 41 25.5 66.5t66.5 25.5h143q41 0 67 -25.5t26 -66.5v-523q0 -43 -26 -69.5t-67 -26.5h-143q-41 0 -66.5 26.5t-25.5 69.5zM209 256q0 41 25.5 66.5t66.5 25.5h143q41 0 67 -25.5t26 -66.5v-522q0 -43 -26 -69.5t-67 -26.5h-143q-41 0 -66.5 26.5
t-25.5 69.5v522z" />
    <glyph glyph-name="section" unicode="&#xa7;" horiz-adv-x="1019" 
d="M342 795q22 15 6 28q-101 77 -80 207q16 104 66 178.5t121.5 113t144.5 55t154 16.5q52 0 101 -5.5t103 -19t92 -43t50 -70.5q20 -68 -29 -132t-115 -64q-28 0 -45 10q-34 16 -63 44t-46 50t-44.5 39t-63.5 17q-55 0 -87.5 -25t-37.5 -61q-6 -34 19.5 -60t70 -44
t99.5 -36t109 -43.5t97.5 -58.5t66 -88t13.5 -127q-19 -168 -151 -260q-21 -15 -4 -29q93 -73 80 -199q-10 -80 -49 -141t-89 -95.5t-115 -56.5t-119 -29t-108 -7q-352 0 -393 145q-21 74 29 129t119 55q26 0 45 -8q35 -13 68.5 -40t55 -50t56.5 -41t76 -18q94 0 104 65
q3 25 -23 46.5t-70 38.5t-97.5 36t-105.5 46t-93 61.5t-61.5 88.5t-10.5 122q27 172 154 260zM606 707q-52 -1 -83 -25t-36 -57q-7 -45 28.5 -73t107.5 -54q46 1 72.5 27.5t31.5 60.5q6 39 -25.5 66.5t-95.5 54.5z" />
    <glyph glyph-name="dieresis" unicode="&#xa8;" horiz-adv-x="858" 
d="M293 1331q10 64 59.5 103t120.5 39q72 0 109.5 -39t27.5 -103t-60 -102.5t-122 -38.5q-71 0 -108 38.5t-27 102.5zM670 1331q10 64 59.5 103t120.5 39q72 0 109.5 -39t27.5 -103t-60 -102.5t-122 -38.5q-71 0 -108 38.5t-27 102.5z" />
    <glyph glyph-name="copyright" unicode="&#xa9;" horiz-adv-x="1845" 
d="M328 696q0 -306 187.5 -493t494.5 -187q306 0 493 187t187 493q0 307 -187 494.5t-493 187.5q-203 0 -358 -84.5t-239.5 -239.5t-84.5 -358zM168 696q0 188 60.5 345.5t169.5 266.5t266.5 169.5t345.5 60.5t344.5 -60.5t265 -169.5t169 -266.5t60.5 -345.5t-60.5 -344.5
t-169 -265t-265 -169t-344.5 -60.5t-345.5 60.5t-266.5 169t-169.5 265t-60.5 344.5zM1012 182q-95 1 -183.5 33.5t-160.5 93t-115 157.5t-43 216q0 127 40.5 227t109.5 161.5t156.5 93.5t187.5 32q141 0 247 -39.5t174 -140.5q50 -81 37 -143.5t-65 -100t-117 -37.5
q-54 0 -99.5 29t-72.5 88q-41 92 -77.5 136t-86.5 44h-12q-66 -6 -86 -89t4 -218q8 -56 27.5 -107.5t51 -97t79.5 -73t106 -27.5q123 0 238 121q23 26 49 26q22 0 33 -20t4 -51q-34 -153 -152.5 -233.5t-273.5 -80.5z" />
    <glyph glyph-name="ordfeminine" unicode="&#xaa;" horiz-adv-x="1044" 
d="M713 1124q23 3 26 25l4 25q8 57 -0.5 82.5t-42.5 25.5q-25 0 -49 -22t-51.5 -57t-46.5 -50q-41 -33 -117 -33q-59 0 -97 27.5t-30 83.5q13 76 138.5 118t283.5 42q62 0 115 -6.5t101.5 -23.5t80 -42.5t46.5 -66.5t7 -93l-43 -272q-4 -25 3.5 -33.5t23 -13t22.5 -17.5
q3 -9 3 -19.5t-9 -23t-21 -24.5t-32.5 -23.5t-44 -20t-55.5 -13.5t-68 -5q-117 0 -155 70q-91 -78 -240 -78q-38 0 -73 5.5t-70 19.5t-59.5 35t-36.5 55.5t-5 77.5q10 59 62 105.5t131.5 73.5t150 42t148.5 24zM715 991q1 9 -4 14t-13 5h-4q-105 -23 -123 -101
q-7 -35 10 -56.5t48 -21.5h10q18 2 36 12t19 21q3 20 10.5 64t10.5 63z" />
    <glyph glyph-name="guillemotleft" unicode="&#xab;" horiz-adv-x="1409" 
d="M1427 754l-208 -127q-19 -10 -20.5 -24.5t13.5 -24.5l168 -127q44 -34 42 -93t-48 -110q-57 -66 -121 -66q-39 0 -84 31l-354 268q-27 20 -38 52.5t-5 68.5q5 36 27 68.5t55 52.5l440 268q51 31 92 31q66 0 101 -66q31 -51 14 -109.5t-74 -92.5zM793 754l-209 -127
q-18 -10 -19.5 -24.5t13.5 -24.5l167 -127q44 -34 42 -93t-48 -110q-57 -66 -121 -66q-38 0 -83 31l-355 268q-27 20 -38 52.5t-5 68.5q5 36 27 68.5t55 52.5l440 268q51 31 93 31q65 0 100 -66q31 -51 14.5 -109.5t-73.5 -92.5z" />
    <glyph glyph-name="logicalnot" unicode="&#xac;" horiz-adv-x="1179" 
d="M881 279l24 163q3 15 -4 24t-22 9h-643q-55 0 -81.5 41.5t-15.5 110.5q12 70 50.5 110.5t93.5 40.5h860q58 0 82 -37.5t16 -97.5l-57 -364q-10 -61 -56.5 -96.5t-115.5 -35.5q-71 0 -106 35.5t-25 96.5z" />
    <glyph glyph-name="registered" unicode="&#xae;" horiz-adv-x="1845" 
d="M168 696q0 188 60.5 345.5t169.5 266.5t266.5 169.5t345.5 60.5t344.5 -60.5t265 -169.5t169 -266.5t60.5 -345.5t-60.5 -344.5t-169 -265t-265 -169t-344.5 -60.5t-345.5 60.5t-266.5 169t-169.5 265t-60.5 344.5zM1010 1378q-203 0 -358 -84.5t-239.5 -239.5
t-84.5 -358q0 -306 187.5 -493t494.5 -187q306 0 493 187t187 493q0 307 -187 494.5t-493 187.5zM614 956q0 30 -35.5 69.5t-35.5 74.5q0 31 25.5 51t76.5 20h354q88 0 163.5 -19.5t136.5 -59t96 -105t35 -149.5q0 -180 -160 -265q-14 -7 -4 -20l102 -113q28 -31 61 -57
t44.5 -40t11.5 -38q0 -27 -57 -55.5t-132 -28.5q-46 0 -76 12t-48 30t-55 63q-8 10 -13 16l-115 141q-24 31 -43 31h-22q-17 0 -17 -16v-90q0 -17 28 -46t28 -61q0 -57 -56 -65h-295q-69 0 -69 61q0 19 11 34.5t24.5 23.5t24.5 19t11 23v559zM907 909v-159q0 -37 18.5 -55.5
t37.5 -18.5h18q54 0 86.5 41t32.5 125q0 79 -33.5 123.5t-85.5 44.5h-6q-68 0 -68 -101z" />
    <glyph glyph-name="macron" unicode="&#xaf;" horiz-adv-x="815" 
d="M436 1491h414q55 0 81 -37t17 -102q-11 -66 -48.5 -105t-92.5 -39h-414q-55 0 -81 38.5t-17 103.5q11 65 48.5 103t92.5 38z" />
    <glyph glyph-name="degree" unicode="&#xb0;" horiz-adv-x="753" 
d="M168 1077q0 125 85 210t210 85t210 -85t85 -210t-85 -210t-210 -85t-210 85t-85 210zM360 1077q0 -41 31 -71.5t72 -30.5t71.5 30.5t30.5 71.5t-30.5 72t-71.5 31t-72 -31t-31 -72z" />
    <glyph glyph-name="plusminus" unicode="&#xb1;" horiz-adv-x="917" 
d="M147 705q0 69 32 110t87 41h111q16 0 16 16v70q0 55 41.5 87t110.5 32t110 -32t41 -87v-70q0 -16 17 -16h110q55 0 87 -40t32 -109q0 -71 -32 -112.5t-87 -41.5h-110q-17 0 -17 -16v-50q0 -55 -40 -86.5t-109 -31.5q-71 0 -112.5 31.5t-41.5 86.5v50q0 16 -16 16h-111
q-55 0 -87 41.5t-32 110.5zM147 152q0 69 32 110t87 41h557q55 0 87 -40t32 -109q0 -71 -32 -112.5t-87 -41.5h-557q-55 0 -87 41.5t-32 110.5z" />
    <glyph glyph-name="twosuperior" unicode="&#xb2;" horiz-adv-x="1003" 
d="M834 782h20q26 0 65.5 32t69.5 32q26 0 40 -23t7 -67l-12 -86q-8 -48 -45 -80.5t-94 -32.5h-645q-14 0 -27 6.5t-21 20t-9.5 30.5t10 40t36.5 48q43 42 154 138.5t194.5 177t114.5 133.5q24 38 23 71t-29 33q-45 0 -92 -84q-33 -61 -86.5 -90.5t-110.5 -29.5
q-54 0 -91.5 25t-41 67.5t44.5 97.5q138 152 422 152q78 0 147 -14t124.5 -41.5t84 -74t19.5 -106.5q-21 -133 -279 -348q-15 -12 -12.5 -19.5t19.5 -7.5z" />
    <glyph glyph-name="threesuperior" unicode="&#xb3;" horiz-adv-x="1032" 
d="M973 961q120 -57 100 -181q-21 -129 -147 -182t-353 -53q-297 0 -360 88q-33 50 -11.5 89t73.5 63t108 24q75 0 106 -39q9 -10 26 -37.5t31.5 -39t37.5 -11.5q33 0 55.5 30t28.5 74q5 33 -5 53.5t-51 34t-118 13.5q-38 0 -44 44q-7 46 23 85q21 27 49 28q169 3 185 123
q7 44 -1.5 66t-25.5 22q-7 0 -14.5 -3.5t-16.5 -12.5t-15 -15.5t-19 -22.5t-19 -23q-55 -66 -141 -66q-81 0 -125 50t4 110q109 121 397 121q178 0 275 -58.5t79 -177.5q-15 -89 -112 -158q-29 -23 0 -38z" />
    <glyph glyph-name="acute" unicode="&#xb4;" horiz-adv-x="722" 
d="M791 1341l-271 -161q-95 -56 -158 -56q-37 0 -67 21q-19 14 -23 35t12.5 53.5t55.5 69.5l231 221q70 67 156 67q61 0 104 -32q33 -24 40.5 -64.5t-14 -83t-66.5 -70.5z" />
    <glyph glyph-name="mu" unicode="&#xb5;" horiz-adv-x="1427" 
d="M264 -352q-60 0 -90.5 36.5t-21.5 96.5l147 928q4 25 -3.5 46.5t-20 38.5t-25 34.5t-20 41t-3.5 50.5q8 46 50 75t116 29h137q39 0 76 -13.5t67.5 -38t45.5 -64t8 -87.5l-59 -366q-28 -195 55 -195q33 0 69.5 41t63.5 98.5t46.5 114.5t25.5 94l16 101q4 25 -3.5 46.5
t-20 38.5t-25 34.5t-20 41t-3.5 50.5q8 46 50 75t116 29h138q84 0 147 -55t49 -148l-82 -506q-4 -25 3.5 -46.5t20.5 -38.5t25.5 -34.5t19.5 -41t3 -50.5q-6 -45 -49 -74.5t-117 -29.5h-137q-59 0 -113 27t-72 75q-1 4 -4 13.5t-4 13.5q-6 16 -14 16q-4 0 -14 -10
q-86 -89 -174 -127q-18 -9 -50 -16q-21 -7 -24 -27l-29 -184q-9 -60 -51 -96.5t-102 -36.5h-144z" />
    <glyph glyph-name="paragraph" unicode="&#xb6;" horiz-adv-x="1478" 
d="M561 426q-184 37 -273 175.5t-57 346.5q38 243 209 390t414 147h143q41 0 62.5 -25.5t15.5 -66.5l-264 -1659q-6 -43 -35.5 -69.5t-70.5 -26.5h-144q-41 0 -62.5 26.5t-15.5 69.5l105 653q6 32 -27 39zM1063 -362q-41 0 -62.5 26.5t-15.5 69.5l264 1659q6 41 36 66.5
t71 25.5h143q41 0 62.5 -25.5t15.5 -66.5l-264 -1659q-6 -43 -36 -69.5t-71 -26.5h-143z" />
    <glyph glyph-name="periodcentered" unicode="&#xb7;" horiz-adv-x="575" 
d="M195 711q14 85 79.5 137.5t157.5 52.5q91 0 139 -52.5t35 -137.5q-13 -86 -78.5 -139.5t-156.5 -53.5q-92 0 -141 53.5t-35 139.5z" />
    <glyph glyph-name="cedilla" unicode="&#xb8;" horiz-adv-x="585" 
d="M168 -135q-17 27 8 55l96 100h193l-94 -106q-17 -21 -4 -27q32 -16 51.5 -30t36 -43.5t10.5 -65.5q-14 -92 -103 -137t-225 -45q-26 0 -88 4q-15 2 -24 10.5t-7 20.5l13 71q2 13 12.5 23.5t24.5 11.5q125 16 135 74q3 18 -3 32.5t-17.5 29.5t-14.5 22z" />
    <glyph glyph-name="onesuperior" unicode="&#xb9;" horiz-adv-x="757" 
d="M795 1303l-93 -582q-2 -11 10 -24t27 -23t26.5 -26t8.5 -34q-8 -47 -96 -57q-58 -6 -186 -6q-146 0 -220 6q-40 3 -59.5 16.5t-15.5 40.5q3 23 28 42t49.5 35t26.5 30l68 426q1 11 -14.5 16t-35 7.5t-33.5 17t-10 43.5q10 57 167.5 109.5t256.5 52.5q49 0 74.5 -26.5
t20.5 -63.5z" />
    <glyph glyph-name="ordmasculine" unicode="&#xba;" horiz-adv-x="1021" 
d="M764 1044q3 222 -78 222q-2 0 -6 -1t-6 -1q-46 -8 -67.5 -65.5t-22.5 -184.5q-3 -221 78 -221h10q49 7 70.5 65t21.5 186zM246 1028q14 93 59.5 164.5t112.5 114.5t146.5 64.5t168.5 21.5q88 0 160.5 -21.5t125.5 -64.5t76 -114.5t9 -164.5q-15 -92 -61 -163t-113 -113.5
t-146.5 -64t-167.5 -21.5q-89 0 -161.5 21.5t-125.5 64t-75.5 113.5t-7.5 163z" />
    <glyph glyph-name="guillemotright" unicode="&#xbb;" horiz-adv-x="1409" 
d="M387 627l-168 127q-44 34 -42 92.5t48 109.5q60 66 121 66q42 0 84 -31l354 -268q55 -40 45 -121q-6 -36 -28.5 -68.5t-55.5 -52.5l-440 -268q-51 -31 -92 -31q-62 0 -100 66q-31 51 -14.5 110.5t73.5 92.5l209 127q18 10 19.5 24.5t-13.5 24.5zM1022 627l-168 127
q-44 34 -42 92.5t48 109.5q60 66 121 66q42 0 84 -31l354 -268q55 -40 45 -121q-6 -36 -28.5 -68.5t-55.5 -52.5l-440 -268q-51 -31 -92 -31q-62 0 -100 66q-31 51 -14.5 110.5t73.5 92.5l209 127q18 10 19.5 24.5t-13.5 24.5z" />
    <glyph glyph-name="onequarter" unicode="&#xbc;" horiz-adv-x="2076" 
d="M1214 174q-36 0 -54.5 15t-12.5 49l16 104q7 42 35 64l483 393q15 12 35 12h289q30 0 46.5 -14.5t12.5 -42.5l-61 -387q-3 -27 22 -27h52q8 0 11 -17t0.5 -41.5t-7.5 -49t-13.5 -41.5t-17.5 -17h-51q-12 0 -21 -7.5t-10 -19.5l-2 -6q-2 -14 11.5 -26.5t26 -28t9.5 -37.5
q-4 -27 -21 -39.5t-48 -17.5q-68 -10 -199 -10q-130 0 -205 10q-59 7 -51 57q3 17 15 31t24.5 21t24 17.5t12.5 22.5l2 6q3 27 -23 27h-330zM602 -10q-34 0 -66.5 14.5t-47.5 41t10 63.5l796 1155q41 59 92 88.5t127 29.5q34 0 66.5 -14t48 -40.5t-9.5 -63.5l-797 -1155
q-24 -35 -37.5 -51t-38.5 -35t-59 -26t-84 -7zM256 557q-40 3 -60 16.5t-16 40.5q3 23 28 42t50 35t27 30l67 426q1 11 -14.5 16t-34.5 7.5t-33 17t-10 43.5q10 57 167.5 109.5t256.5 52.5q49 0 74 -26.5t20 -63.5l-92 -582q-2 -11 10 -24t27 -23t26.5 -26t8.5 -34
q-8 -47 -96 -57q-58 -6 -187 -6q-145 0 -219 6zM1427 362q-9 -9 -7 -15.5t14 -6.5h137q12 0 21 7.5t10 19.5l20 129q3 14 -4 14q-5 0 -14 -6z" />
    <glyph glyph-name="onehalf" unicode="&#xbd;" horiz-adv-x="2084" 
d="M1642 1274l-796 -1155q-24 -34 -38 -50.5t-39.5 -35.5t-59.5 -26t-84 -7q-57 0 -97.5 34.5t-5.5 84.5l797 1155q41 59 92 89t127 30q34 0 66.5 -14.5t47.5 -41t-10 -63.5zM795 1303l-93 -582q-2 -11 10 -24t27 -23t26.5 -26t8.5 -34q-8 -47 -96 -57q-58 -6 -186 -6
q-146 0 -220 6q-40 3 -59.5 16.5t-15.5 40.5q3 23 28 42t49.5 35t26.5 30l68 426q1 11 -14.5 16t-35 7.5t-33.5 17t-10 43.5q10 57 167.5 109.5t256.5 52.5q49 0 74.5 -26.5t20.5 -63.5zM1915 219h20q26 0 66 32t70 32q26 0 40 -23t7 -67l-13 -87q-8 -48 -44.5 -80
t-94.5 -32h-645q-14 0 -27 6.5t-21 20t-9 30.5t10.5 40t36.5 48q43 42 154 138.5t194.5 177t114.5 133.5q24 38 22.5 71t-29.5 33q-45 0 -92 -84q-33 -61 -86 -91t-110 -30q-54 0 -91.5 25.5t-40.5 67.5t44 98q138 151 421 151q106 0 192.5 -23t140.5 -78t42 -134
q-21 -133 -278 -348q-15 -12 -13 -19.5t19 -7.5z" />
    <glyph glyph-name="threequarters" unicode="&#xbe;" horiz-adv-x="2271" 
d="M1448 190q-36 0 -55 15t-13 49l17 104q7 42 35 64l483 393q15 12 35 12h288q30 0 47 -14.5t13 -42.5l-62 -387q-3 -27 23 -27h51q8 0 11.5 -17t1 -41.5t-7.5 -49t-13.5 -41.5t-17.5 -17h-52q-27 0 -30 -26l-2 -6q-2 -14 11.5 -26.5t26 -28t9.5 -37.5q-7 -48 -70 -58
q-68 -10 -199 -10q-129 0 -204 10q-60 7 -52 58q3 17 15 31t24.5 21t24 17.5t12.5 22.5l2 6q3 26 -22 26h-330zM213 633q-33 50 -11.5 89t73.5 63t108 24q75 0 106 -39q9 -10 26 -37.5t31.5 -39t37.5 -11.5q33 0 55.5 30t28.5 74q5 33 -5 53.5t-51 34t-118 13.5
q-38 0 -44 44q-7 46 23 85q21 27 49 28q169 3 185 123q7 44 -1.5 66t-25.5 22q-7 0 -14.5 -3.5t-16.5 -12.5t-15 -15.5t-19 -22.5t-19 -23q-55 -66 -141 -66q-81 0 -125 50t4 110q109 121 397 121q178 0 275 -58.5t79 -177.5q-15 -89 -112 -158q-29 -23 0 -38
q120 -57 100 -181q-21 -129 -147 -182t-353 -53q-297 0 -360 88zM829 0q-57 0 -97 34.5t-5 84.5l797 1155q41 59 92 89t127 30q34 0 66.5 -14.5t47.5 -41t-10 -63.5l-796 -1155q-23 -34 -37.5 -51t-40 -35.5t-60 -25.5t-84.5 -7zM1661 379q-9 -9 -7.5 -16t13.5 -7h137
q12 0 21 7.5t10 19.5l20 129q3 14 -4 14q-5 0 -14 -6z" />
    <glyph glyph-name="questiondown" unicode="&#xbf;" horiz-adv-x="1232" 
d="M1026 1200q-13 -85 -79.5 -137.5t-158.5 -52.5q-91 0 -139 52.5t-35 137.5q13 86 79 139.5t157 53.5q92 0 141 -53.5t35 -139.5zM133 330q7 43 24 83.5t34.5 70t49 61.5t53 51t61.5 45.5t58.5 38t59.5 35.5q36 21 60 51.5t37.5 56.5t31.5 49.5t54 37.5t94 14h79
q59 0 105.5 -27.5t61.5 -77.5t-31 -121q-27 -41 -85.5 -89.5t-111.5 -86t-102.5 -88.5t-65.5 -100q-19 -47 -4 -86t59 -39q35 0 64.5 15t46.5 32.5t46 51t48 52.5q89 89 191 89q64 0 106 -34.5t44.5 -92t-50.5 -132.5q-80 -109 -229.5 -159.5t-327.5 -50.5q-106 0 -194 21
t-153.5 62.5t-96 110t-17.5 156.5z" />
    <glyph glyph-name="Agrave" unicode="&#xc0;" horiz-adv-x="1525" 
d="M467 264l-4 -12q-11 -18 -5 -36t18 -30t21.5 -36.5t4.5 -53.5q-6 -35 -29 -57.5t-60.5 -32.5t-68.5 -13t-72 -3h-41h-16q-28 0 -46.5 1t-46.5 4t-45.5 10.5t-34.5 19t-23.5 31.5t-2.5 46q5 31 24 55.5t40 38t44 32.5t34 38l471 903q58 108 113.5 155.5t144.5 47.5h166
q64 0 103.5 -34.5t62.5 -127.5l235 -944q4 -19 21 -38t33.5 -32.5t27.5 -38t6 -55.5q-7 -48 -50 -75t-97 -27h-193q-188 0 -237 252l-4 12q-3 21 -27 21h-432q-24 0 -35 -21zM633 541h241q11 0 15.5 5.5t1.5 14.5l-76 336q-4 12 -8 12q-5 0 -14 -12l-170 -334
q-11 -22 10 -22zM977 1528l-217 162q-57 44 -46 111.5t74 105.5q54 32 115 32q87 0 133 -67l162 -221q27 -37 33.5 -69.5t-4 -53.5t-33.5 -35q-39 -20 -76 -20q-63 0 -141 55z" />
    <glyph glyph-name="Aacute" unicode="&#xc1;" horiz-adv-x="1525" 
d="M467 264l-4 -12q-11 -18 -5 -36t18 -30t21.5 -36.5t4.5 -53.5q-6 -35 -29 -57.5t-60.5 -32.5t-68.5 -13t-72 -3h-41h-16q-28 0 -46.5 1t-46.5 4t-45.5 10.5t-34.5 19t-23.5 31.5t-2.5 46q5 31 24 55.5t40 38t44 32.5t34 38l471 903q58 108 113.5 155.5t144.5 47.5h166
q64 0 103.5 -34.5t62.5 -127.5l235 -944q4 -19 21 -38t33.5 -32.5t27.5 -38t6 -55.5q-7 -48 -50 -75t-97 -27h-193q-188 0 -237 252l-4 12q-3 21 -27 21h-432q-24 0 -35 -21zM633 541h241q11 0 15.5 5.5t1.5 14.5l-76 336q-4 12 -8 12q-5 0 -14 -12l-170 -334
q-11 -22 10 -22zM1192 1690l-270 -162q-93 -55 -158 -55q-39 0 -68 20q-19 14 -23 35t12.5 53.5t55.5 69.5l232 221q70 67 155 67q62 0 105 -32q33 -24 40 -64.5t-14.5 -82.5t-66.5 -70z" />
    <glyph glyph-name="Acircumflex" unicode="&#xc2;" horiz-adv-x="1525" 
d="M467 264l-4 -12q-11 -18 -5 -36t18 -30t21.5 -36.5t4.5 -53.5q-6 -35 -29 -57.5t-60.5 -32.5t-68.5 -13t-72 -3h-41h-16q-28 0 -46.5 1t-46.5 4t-45.5 10.5t-34.5 19t-23.5 31.5t-2.5 46q5 31 24 55.5t40 38t44 32.5t34 38l471 903q58 108 113.5 155.5t144.5 47.5h166
q64 0 103.5 -34.5t62.5 -127.5l235 -944q4 -19 21 -38t33.5 -32.5t27.5 -38t6 -55.5q-7 -48 -50 -75t-97 -27h-193q-188 0 -237 252l-4 12q-3 21 -27 21h-432q-24 0 -35 -21zM633 541h241q11 0 15.5 5.5t1.5 14.5l-76 336q-4 12 -8 12q-5 0 -14 -12l-170 -334
q-11 -22 10 -22zM987 1655q-6 6 -14 6q-10 0 -19 -6q-7 -4 -72 -48t-81 -53q-5 -3 -28.5 -19t-32 -20.5t-26.5 -14t-32.5 -12.5t-30.5 -3q-3 0 -9 1t-9 1q-52 6 -63.5 42.5t26.5 76.5l154 161q35 36 55 55t59 50.5t77 47t75 15.5q30 0 59.5 -13t48 -26.5t43 -43.5t32.5 -42
t28 -43l100 -161q26 -40 3.5 -76.5t-77.5 -42.5q-3 0 -9 -1t-9 -1q-16 0 -30.5 3.5t-29 12t-22 14t-24.5 20t-23 19.5q-65 58 -119 101z" />
    <glyph glyph-name="Atilde" unicode="&#xc3;" horiz-adv-x="1525" 
d="M467 264l-4 -12q-11 -18 -5 -36t18 -30t21.5 -36.5t4.5 -53.5q-6 -35 -29 -57.5t-60.5 -32.5t-68.5 -13t-72 -3h-41h-16q-28 0 -46.5 1t-46.5 4t-45.5 10.5t-34.5 19t-23.5 31.5t-2.5 46q5 31 24 55.5t40 38t44 32.5t34 38l471 903q58 108 113.5 155.5t144.5 47.5h166
q64 0 103.5 -34.5t62.5 -127.5l235 -944q4 -19 21 -38t33.5 -32.5t27.5 -38t6 -55.5q-7 -48 -50 -75t-97 -27h-193q-188 0 -237 252l-4 12q-3 21 -27 21h-432q-24 0 -35 -21zM633 541h241q11 0 15.5 5.5t1.5 14.5l-76 336q-4 12 -8 12q-5 0 -14 -12l-170 -334
q-11 -22 10 -22zM786 1565q-33 -29 -65 -29t-53 25t-23 65q-5 97 100 178q96 70 158 70q34 0 64.5 -19t57.5 -38t52 -19q41 0 92 43q33 29 66 29q31 0 51.5 -25t22.5 -63q5 -103 -101 -180q-88 -68 -151 -68q-34 0 -64.5 19t-58 38t-53.5 19q-42 0 -95 -45z" />
    <glyph glyph-name="Adieresis" unicode="&#xc4;" horiz-adv-x="1525" 
d="M467 264l-4 -12q-11 -18 -5 -36t18 -30t21.5 -36.5t4.5 -53.5q-6 -35 -29 -57.5t-60.5 -32.5t-68.5 -13t-72 -3h-41h-16q-28 0 -46.5 1t-46.5 4t-45.5 10.5t-34.5 19t-23.5 31.5t-2.5 46q5 31 24 55.5t40 38t44 32.5t34 38l471 903q58 108 113.5 155.5t144.5 47.5h166
q64 0 103.5 -34.5t62.5 -127.5l235 -944q4 -19 21 -38t33.5 -32.5t27.5 -38t6 -55.5q-7 -48 -50 -75t-97 -27h-193q-188 0 -237 252l-4 12q-3 21 -27 21h-432q-24 0 -35 -21zM633 541h241q11 0 15.5 5.5t1.5 14.5l-76 336q-4 12 -8 12q-5 0 -14 -12l-170 -334
q-11 -22 10 -22zM627 1679q10 64 59.5 103t120.5 39q72 0 109.5 -39t27.5 -103t-60 -102.5t-122 -38.5q-71 0 -108 38.5t-27 102.5zM1004 1679q10 64 59.5 103t120.5 39q72 0 109.5 -39t27.5 -103t-60 -102.5t-122 -38.5q-71 0 -108 38.5t-27 102.5z" />
    <glyph glyph-name="Aring" unicode="&#xc5;" horiz-adv-x="1525" 
d="M467 264l-4 -12q-11 -18 -5 -36t18 -30t21.5 -36.5t4.5 -53.5q-6 -35 -29 -57.5t-60.5 -32.5t-68.5 -13t-72 -3h-41h-16q-28 0 -46.5 1t-46.5 4t-45.5 10.5t-34.5 19t-23.5 31.5t-2.5 46q5 31 24 55.5t40 38t44 32.5t34 38l471 903q58 108 113.5 155.5t144.5 47.5h166
q64 0 103.5 -34.5t62.5 -127.5l235 -944q4 -19 21 -38t33.5 -32.5t27.5 -38t6 -55.5q-7 -48 -50 -75t-97 -27h-193q-188 0 -237 252l-4 12q-3 21 -27 21h-432q-24 0 -35 -21zM633 541h241q11 0 15.5 5.5t1.5 14.5l-76 336q-4 12 -8 12q-5 0 -14 -12l-170 -334
q-11 -22 10 -22zM711 1704q19 110 109 188t200 78t176 -78t47 -188q-17 -110 -107 -188t-200 -78t-176 78t-49 188zM895 1704q-5 -34 15.5 -58t54.5 -24t60.5 24t31.5 58q6 34 -13 57t-53 23t-62 -23t-34 -57z" />
    <glyph glyph-name="AE" unicode="&#xc6;" horiz-adv-x="1937" 
d="M475 258l-6 -6q-12 -17 -10.5 -27t11 -24.5t20.5 -26.5t17.5 -33t2.5 -45q-6 -35 -29 -57.5t-60 -32.5t-68 -13t-72 -3h-41h-17q-35 0 -58 1t-56.5 7t-53 17t-32 33.5t-7.5 53.5q6 41 31 67t63 50.5t56 46.5l731 903q83 101 149 152t144 51h711q95 0 140 -53.5t34 -132.5
l-11 -56q-11 -74 -46 -111.5t-81 -37.5q-33 0 -59 16.5t-41 35.5t-39.5 35.5t-54.5 16.5h-193q-24 0 -34.5 -12.5t-16.5 -48.5l-31 -190q-3 -33 29 -33h62q19 0 39 16.5t35.5 35.5t41.5 35.5t56 16.5q44 0 61.5 -26t17.5 -76q0 -38 -12 -115t-26 -135q-27 -102 -113 -102
q-30 0 -51 16.5t-30.5 35.5t-24 35.5t-33.5 16.5h-62q-32 0 -39 -33l-26 -168q-3 -32 5 -49.5t36 -17.5h223q30 0 59.5 16.5t50.5 35.5t52.5 35.5t64.5 16.5q46 0 69.5 -37.5t12.5 -111.5l-10 -56q-11 -79 -73.5 -132.5t-158.5 -53.5h-839q-48 0 -71.5 23t-16.5 67
q4 28 23.5 51t41.5 35t40.5 28.5t21.5 33.5l2 14q3 15 -4.5 24t-22.5 9h-369q-31 0 -55 -27zM977 573l51 324q-1 0 -3.5 1t-4.5 1q-14 0 -27 -16l-260 -314q-9 -12 -7 -20t17 -8h197q15 0 25.5 8.5t11.5 23.5z" />
    <glyph glyph-name="Ccedilla" unicode="&#xc7;" horiz-adv-x="1431" 
d="M662 -14q-116 16 -214.5 67.5t-170.5 135t-102.5 210t-6.5 277.5q23 142 79 261t133 202t174 141t201 85.5t214 27.5q95 0 172 -11t150.5 -38t130.5 -78t94 -125q52 -112 20 -199t-113 -139.5t-172 -52.5q-74 0 -132 39.5t-81 121.5q-36 129 -77 190.5t-111 61.5h-16
q-183 -17 -183 -428q-1 -154 51.5 -259t137.5 -142q58 -23 112 -23q173 0 359 168q38 35 73 35q30 0 40.5 -27t-5.5 -71q-71 -187 -223 -297t-340 -133l-61 -72q-20 -20 -4 -27q31 -16 50.5 -30t35.5 -43.5t10 -65.5q-14 -92 -102.5 -137t-225.5 -45q-26 0 -88 4
q-15 2 -23.5 10.5t-5.5 20.5l11 71q2 12 13 23t26 12q125 17 135 74q3 18 -3.5 32.5t-18 29t-15.5 22.5q-17 27 8 55z" />
    <glyph glyph-name="Egrave" unicode="&#xc8;" horiz-adv-x="1255" 
d="M657 532l-28 -178q-3 -32 5 -49.5t36 -17.5h305q30 0 59.5 16.5t50.5 35.5t52.5 35.5t64.5 16.5q46 0 69.5 -37.5t12.5 -111.5l-10 -56q-11 -79 -73.5 -132.5t-158.5 -53.5h-921q-48 0 -71.5 23t-16.5 67q5 28 24.5 51t41 35t40 28.5t21.5 33.5l131 819q4 25 -3.5 46.5
t-20.5 38.5t-25.5 34.5t-19.5 41t-3 50.5q8 46 50 75t116 29h834q96 0 141.5 -53.5t32.5 -132.5l-11 -56q-11 -74 -46 -111.5t-81 -37.5q-33 0 -59 16.5t-41 35.5t-39.5 35.5t-54.5 16.5h-275q-24 0 -34.5 -12.5t-16.5 -48.5l-30 -201q-3 -22 18 -22h154q19 0 39 16.5
t35.5 35.5t41.5 35.5t56 16.5q44 0 61.5 -26t17.5 -76q0 -41 -11.5 -118t-26.5 -132q-27 -102 -113 -102q-30 0 -51 16.5t-30.5 35.5t-24 35.5t-33.5 16.5h-154q-24 0 -27 -23zM842 1528l-217 162q-57 44 -46 111.5t74 105.5q54 32 115 32q87 0 133 -67l162 -221
q27 -37 33.5 -69.5t-4 -53.5t-33.5 -35q-39 -20 -76 -20q-63 0 -141 55z" />
    <glyph glyph-name="Eacute" unicode="&#xc9;" horiz-adv-x="1255" 
d="M657 532l-28 -178q-3 -32 5 -49.5t36 -17.5h305q30 0 59.5 16.5t50.5 35.5t52.5 35.5t64.5 16.5q46 0 69.5 -37.5t12.5 -111.5l-10 -56q-11 -79 -73.5 -132.5t-158.5 -53.5h-921q-48 0 -71.5 23t-16.5 67q5 28 24.5 51t41 35t40 28.5t21.5 33.5l131 819q4 25 -3.5 46.5
t-20.5 38.5t-25.5 34.5t-19.5 41t-3 50.5q8 46 50 75t116 29h834q96 0 141.5 -53.5t32.5 -132.5l-11 -56q-11 -74 -46 -111.5t-81 -37.5q-33 0 -59 16.5t-41 35.5t-39.5 35.5t-54.5 16.5h-275q-24 0 -34.5 -12.5t-16.5 -48.5l-30 -201q-3 -22 18 -22h154q19 0 39 16.5
t35.5 35.5t41.5 35.5t56 16.5q44 0 61.5 -26t17.5 -76q0 -41 -11.5 -118t-26.5 -132q-27 -102 -113 -102q-30 0 -51 16.5t-30.5 35.5t-24 35.5t-33.5 16.5h-154q-24 0 -27 -23zM1057 1690l-271 -162q-93 -55 -157 -55q-39 0 -68 20q-19 14 -23 35t12.5 53.5t55.5 69.5
l232 221q70 67 155 67q62 0 105 -32q33 -24 40 -64.5t-14.5 -82.5t-66.5 -70z" />
    <glyph glyph-name="Ecircumflex" unicode="&#xca;" horiz-adv-x="1255" 
d="M657 532l-28 -178q-3 -32 5 -49.5t36 -17.5h305q30 0 59.5 16.5t50.5 35.5t52.5 35.5t64.5 16.5q46 0 69.5 -37.5t12.5 -111.5l-10 -56q-11 -79 -73.5 -132.5t-158.5 -53.5h-921q-48 0 -71.5 23t-16.5 67q5 28 24.5 51t41 35t40 28.5t21.5 33.5l131 819q4 25 -3.5 46.5
t-20.5 38.5t-25.5 34.5t-19.5 41t-3 50.5q8 46 50 75t116 29h834q96 0 141.5 -53.5t32.5 -132.5l-11 -56q-11 -74 -46 -111.5t-81 -37.5q-33 0 -59 16.5t-41 35.5t-39.5 35.5t-54.5 16.5h-275q-24 0 -34.5 -12.5t-16.5 -48.5l-30 -201q-3 -22 18 -22h154q19 0 39 16.5
t35.5 35.5t41.5 35.5t56 16.5q44 0 61.5 -26t17.5 -76q0 -41 -11.5 -118t-26.5 -132q-27 -102 -113 -102q-30 0 -51 16.5t-30.5 35.5t-24 35.5t-33.5 16.5h-154q-24 0 -27 -23zM852 1655q-6 6 -14 6q-10 0 -19 -6q-7 -4 -72 -48t-81 -53q-5 -3 -28.5 -19t-32 -20.5
t-26.5 -14t-32.5 -12.5t-30.5 -3q-3 0 -9 1t-9 1q-52 6 -63.5 42.5t26.5 76.5l153 161q34 35 54.5 54.5t59.5 51t77.5 47t75.5 15.5q30 0 59.5 -13t48 -26.5t43 -43.5t32.5 -42t28 -43l100 -161q26 -40 3.5 -76.5t-77.5 -42.5q-3 0 -9 -1t-9 -1q-16 0 -30.5 3.5t-29 12
t-22 14t-24.5 20t-23 19.5q-65 58 -119 101z" />
    <glyph glyph-name="Edieresis" unicode="&#xcb;" horiz-adv-x="1255" 
d="M657 532l-28 -178q-3 -32 5 -49.5t36 -17.5h305q30 0 59.5 16.5t50.5 35.5t52.5 35.5t64.5 16.5q46 0 69.5 -37.5t12.5 -111.5l-10 -56q-11 -79 -73.5 -132.5t-158.5 -53.5h-921q-48 0 -71.5 23t-16.5 67q5 28 24.5 51t41 35t40 28.5t21.5 33.5l131 819q4 25 -3.5 46.5
t-20.5 38.5t-25.5 34.5t-19.5 41t-3 50.5q8 46 50 75t116 29h834q96 0 141.5 -53.5t32.5 -132.5l-11 -56q-11 -74 -46 -111.5t-81 -37.5q-33 0 -59 16.5t-41 35.5t-39.5 35.5t-54.5 16.5h-275q-24 0 -34.5 -12.5t-16.5 -48.5l-30 -201q-3 -22 18 -22h154q19 0 39 16.5
t35.5 35.5t41.5 35.5t56 16.5q44 0 61.5 -26t17.5 -76q0 -41 -11.5 -118t-26.5 -132q-27 -102 -113 -102q-30 0 -51 16.5t-30.5 35.5t-24 35.5t-33.5 16.5h-154q-24 0 -27 -23zM492 1679q10 64 59.5 103t120.5 39q72 0 109.5 -39t27.5 -103t-60 -102.5t-122 -38.5
q-71 0 -108 38.5t-27 102.5zM868 1679q10 64 60 103t121 39q72 0 109.5 -39t27.5 -103t-60 -102.5t-122 -38.5q-71 0 -108.5 38.5t-27.5 102.5z" />
    <glyph glyph-name="Igrave" unicode="&#xcc;" horiz-adv-x="675" 
d="M721 1057l-127 -805q-3 -19 10 -36.5t30.5 -30t30 -36t7.5 -53.5q-6 -44 -35.5 -66t-81.5 -30q-112 -16 -213 -16q-99 0 -221 16q-98 13 -88 96q5 30 25 53.5t42 36t41.5 30t22.5 36.5l127 805q4 25 -3.5 46.5t-20.5 38.5t-25.5 34.5t-19.5 41t-3 50.5q8 46 50 75t116 29
h338q74 0 107.5 -29t25.5 -75q-4 -27 -18.5 -50.5t-32 -41t-35 -34.5t-31.5 -38.5t-18 -46.5zM553 1528l-219 162q-56 44 -45.5 111.5t73.5 105.5q54 32 115 32q87 0 133 -67l162 -221q27 -37 33.5 -69.5t-4 -53.5t-33.5 -35q-36 -20 -76 -20q-65 0 -139 55z" />
    <glyph glyph-name="Iacute" unicode="&#xcd;" horiz-adv-x="675" 
d="M721 1057l-127 -805q-3 -19 10 -36.5t30.5 -30t30 -36t7.5 -53.5q-6 -44 -35.5 -66t-81.5 -30q-112 -16 -213 -16q-99 0 -221 16q-98 13 -88 96q5 30 25 53.5t42 36t41.5 30t22.5 36.5l127 805q4 25 -3.5 46.5t-20.5 38.5t-25.5 34.5t-19.5 41t-3 50.5q8 46 50 75t116 29
h338q74 0 107.5 -29t25.5 -75q-4 -27 -18.5 -50.5t-32 -41t-35 -34.5t-31.5 -38.5t-18 -46.5zM766 1690l-268 -162q-93 -55 -158 -55q-41 0 -70 20q-19 14 -23 35t12.5 53.5t55.5 69.5l232 221q70 67 155 67q62 0 105 -32q51 -36 40 -105.5t-81 -111.5z" />
    <glyph glyph-name="Icircumflex" unicode="&#xce;" horiz-adv-x="675" 
d="M721 1057l-127 -805q-3 -19 10 -36.5t30.5 -30t30 -36t7.5 -53.5q-6 -44 -35.5 -66t-81.5 -30q-112 -16 -213 -16q-99 0 -221 16q-98 13 -88 96q5 30 25 53.5t42 36t41.5 30t22.5 36.5l127 805q4 25 -3.5 46.5t-20.5 38.5t-25.5 34.5t-19.5 41t-3 50.5q8 46 50 75t116 29
h338q74 0 107.5 -29t25.5 -75q-4 -27 -18.5 -50.5t-32 -41t-35 -34.5t-31.5 -38.5t-18 -46.5zM604 1655q-6 6 -16 6q-8 0 -17 -6q-16 -9 -81 -53t-72 -48q-5 -3 -28.5 -19t-32 -20.5t-26.5 -14t-32.5 -12.5t-30.5 -3q-3 0 -9 1t-9 1q-54 6 -65 42.5t28 76.5l152 161
q35 36 55 55t59 50.5t77 47t75 15.5q30 0 59.5 -13t48 -26.5t43 -43.5t32.5 -42t28 -43l102 -161q26 -40 3 -76.5t-77 -42.5q-3 0 -9 -1t-9 -1q-16 0 -30.5 3.5t-29 12t-22 14t-24.5 20t-23 19.5q-54 43 -119 101z" />
    <glyph glyph-name="Idieresis" unicode="&#xcf;" horiz-adv-x="675" 
d="M721 1057l-127 -805q-3 -19 10 -36.5t30.5 -30t30 -36t7.5 -53.5q-6 -44 -35.5 -66t-81.5 -30q-112 -16 -213 -16q-99 0 -221 16q-98 13 -88 96q5 30 25 53.5t42 36t41.5 30t22.5 36.5l127 805q4 25 -3.5 46.5t-20.5 38.5t-25.5 34.5t-19.5 41t-3 50.5q8 46 50 75t116 29
h338q74 0 107.5 -29t25.5 -75q-4 -27 -18.5 -50.5t-32 -41t-35 -34.5t-31.5 -38.5t-18 -46.5zM244 1679q9 64 58 103t120 39q72 0 110 -39t29 -103q-10 -64 -60 -102.5t-122 -38.5q-71 0 -108 38.5t-27 102.5zM621 1679q9 64 58 103t120 39q72 0 110 -39t29 -103
q-10 -64 -60 -102.5t-122 -38.5q-71 0 -108 38.5t-27 102.5z" />
    <glyph glyph-name="Eth" unicode="&#xd0;" horiz-adv-x="1511" 
d="M141 0q-48 0 -71.5 23t-16.5 67q5 28 24.5 51t41 35t40 28.5t21.5 33.5l39 245q3 15 -4 24t-22 9h-15q-55 0 -81 35.5t-17 95.5t46.5 95.5t92.5 35.5h14q32 0 39 33l39 246q4 25 -3.5 46.5t-20 38.5t-25 34.5t-19.5 41t-3 50.5q8 46 50 75t116 29h548q116 0 215.5 -25.5
t182.5 -79t135 -136t72.5 -196t-3.5 -259.5q-22 -142 -78 -257t-133.5 -192t-177.5 -129t-206.5 -75t-223.5 -23h-596zM625 328q-7 -46 30 -68t88 -22h11q111 5 199.5 115t123.5 329q34 215 -21 332.5t-163 120.5h-6q-67 0 -105.5 -29t-48.5 -92l-31 -203q-3 -15 4.5 -24
t22.5 -9h55q55 0 81.5 -34.5t17.5 -94.5q-9 -61 -46.5 -97t-93.5 -36h-55q-32 0 -39 -33z" />
    <glyph glyph-name="Ntilde" unicode="&#xd1;" horiz-adv-x="1495" 
d="M121 0q-47 0 -70.5 25t-17.5 71q5 30 25 53.5t42 36t41.5 30t22.5 36.5l127 805q4 25 -3.5 46.5t-20.5 38.5t-25.5 34.5t-19.5 41t-3 50.5q8 46 50 75t116 29h279q109 0 167.5 -62t98.5 -190l176 -575q6 -23 14 -23q7 0 13 29l90 569q3 19 -11 36.5t-31.5 30t-30 36
t-7.5 53.5q7 46 38.5 71t78.5 25h331q47 0 71 -25t17 -71q-5 -30 -25 -53.5t-41.5 -36t-40.5 -30t-22 -36.5l-129 -805q-4 -25 3.5 -46.5t20.5 -38.5t25.5 -34.5t19.5 -41t3 -50.5q-6 -45 -49 -74.5t-117 -29.5h-278q-100 0 -175.5 67.5t-111.5 184.5l-164 526q-6 23 -12 23
q-7 0 -13 -29l-81 -520q-3 -19 10 -36.5t30 -30t29.5 -36t7.5 -53.5q-6 -46 -37.5 -71t-78.5 -25h-332zM631 1626q-5 100 100 178q96 70 158 70q41 0 92.5 -38t81.5 -38q42 0 90 43q33 29 66 29q32 0 52.5 -24.5t22.5 -63.5q5 -101 -100 -180q-91 -68 -154 -68
q-34 0 -64.5 19t-58 38t-53.5 19q-41 0 -94 -45q-33 -29 -65 -29q-31 0 -52 25t-22 65z" />
    <glyph glyph-name="Ograve" unicode="&#xd2;" horiz-adv-x="1552" 
d="M168 676q23 142 80 261t137 202.5t180 141t209.5 85t224.5 27.5t215 -28t181.5 -84.5t133.5 -142t72 -201t-4 -261.5q-22 -142 -78.5 -259t-135 -197t-178 -135t-207.5 -80t-224 -25t-216 25.5t-183 79t-135.5 136t-74 196t2.5 259.5zM643 635q1 -233 52.5 -340
t154.5 -107q25 0 37 2q119 19 177.5 146t57.5 381q0 234 -50 341t-152 107q-277 0 -277 -530zM991 1528l-219 162q-56 44 -45 111.5t74 105.5q54 32 114 32q88 0 134 -67l161 -221q27 -37 33.5 -69.5t-4 -53.5t-33.5 -35q-36 -20 -76 -20q-65 0 -139 55z" />
    <glyph glyph-name="Oacute" unicode="&#xd3;" horiz-adv-x="1552" 
d="M168 676q23 142 80 261t137 202.5t180 141t209.5 85t224.5 27.5t215 -28t181.5 -84.5t133.5 -142t72 -201t-4 -261.5q-22 -142 -78.5 -259t-135 -197t-178 -135t-207.5 -80t-224 -25t-216 25.5t-183 79t-135.5 136t-74 196t2.5 259.5zM643 635q1 -233 52.5 -340
t154.5 -107q25 0 37 2q119 19 177.5 146t57.5 381q0 234 -50 341t-152 107q-277 0 -277 -530zM1204 1690l-268 -162q-93 -55 -158 -55q-40 0 -69 20q-19 14 -23 35t12.5 53.5t55.5 69.5l231 221q70 67 156 67q61 0 104 -32q51 -36 40 -105.5t-81 -111.5z" />
    <glyph glyph-name="Ocircumflex" unicode="&#xd4;" horiz-adv-x="1552" 
d="M168 676q23 142 80 261t137 202.5t180 141t209.5 85t224.5 27.5t215 -28t181.5 -84.5t133.5 -142t72 -201t-4 -261.5q-22 -142 -78.5 -259t-135 -197t-178 -135t-207.5 -80t-224 -25t-216 25.5t-183 79t-135.5 136t-74 196t2.5 259.5zM643 635q1 -233 52.5 -340
t154.5 -107q25 0 37 2q119 19 177.5 146t57.5 381q0 234 -50 341t-152 107q-277 0 -277 -530zM1001 1655q-6 6 -16 6q-7 0 -16 -6q-16 -9 -82 -53l-72 -48q-7 -4 -29 -19t-31 -20.5t-26.5 -14t-32 -12t-30.5 -3.5q-3 0 -9.5 1t-9.5 1q-54 6 -65 42.5t28 76.5l152 161
q35 36 55 55t59 50.5t77 47t75 15.5q30 0 59.5 -13t48 -26.5t43 -43.5t32.5 -42t28 -43l102 -161q26 -40 3.5 -76.5t-76.5 -42.5q-3 0 -9.5 -1t-9.5 -1q-16 0 -30.5 3.5t-29 12t-22 14t-24.5 20t-23 19.5q-54 43 -119 101z" />
    <glyph glyph-name="Otilde" unicode="&#xd5;" horiz-adv-x="1552" 
d="M168 676q23 142 80 261t137 202.5t180 141t209.5 85t224.5 27.5t215 -28t181.5 -84.5t133.5 -142t72 -201t-4 -261.5q-22 -142 -78.5 -259t-135 -197t-178 -135t-207.5 -80t-224 -25t-216 25.5t-183 79t-135.5 136t-74 196t2.5 259.5zM643 635q1 -233 52.5 -340
t154.5 -107q25 0 37 2q119 19 177.5 146t57.5 381q0 234 -50 341t-152 107q-277 0 -277 -530zM799 1565q-33 -29 -66 -29q-31 0 -52 25t-22 65q-5 99 101 178q96 70 158 70q41 0 92.5 -38t81.5 -38q42 0 90 43q33 29 65 29t53 -25t23 -63q5 -101 -100 -180q-91 -68 -154 -68
q-34 0 -64.5 19t-58 38t-53.5 19q-41 0 -94 -45z" />
    <glyph glyph-name="Odieresis" unicode="&#xd6;" horiz-adv-x="1552" 
d="M168 676q23 142 80 261t137 202.5t180 141t209.5 85t224.5 27.5t215 -28t181.5 -84.5t133.5 -142t72 -201t-4 -261.5q-22 -142 -78.5 -259t-135 -197t-178 -135t-207.5 -80t-224 -25t-216 25.5t-183 79t-135.5 136t-74 196t2.5 259.5zM643 635q1 -233 52.5 -340
t154.5 -107q25 0 37 2q119 19 177.5 146t57.5 381q0 234 -50 341t-152 107q-277 0 -277 -530zM641 1679q9 64 58 103t120 39q72 0 110 -39t29 -103q-10 -64 -60 -102.5t-122 -38.5q-71 0 -108 38.5t-27 102.5zM1018 1679q9 64 58 103t120 39q72 0 110 -39t29 -103
q-10 -64 -60 -102.5t-122 -38.5q-71 0 -108 38.5t-27 102.5z" />
    <glyph glyph-name="multiply" unicode="&#xd7;" horiz-adv-x="827" 
d="M209 358q-50 50 -58 103t29 90l86 84q16 17 0 33l-86 86q-37 36 -30.5 87.5t55.5 100.5q59 62 119 62q40 0 73 -33l86 -86q12 -8 17 -8q8 0 16 8l88 88q31 31 72 31q58 0 117 -62q50 -50 57.5 -99.5t-29.5 -86.5l-88 -88q-17 -16 0 -33l86 -86q37 -36 30 -88t-58 -103
q-57 -57 -117 -57q-41 0 -72 31l-92 92q-2 2 -10 2q-9 0 -17 -8l-86 -84q-31 -31 -73 -31q-60 0 -115 55z" />
    <glyph glyph-name="Oslash" unicode="&#xd8;" horiz-adv-x="1552" 
d="M311 133q-198 185 -143 543q23 142 80 261t137 202.5t180 141t209.5 85t224.5 27.5q104 0 207 -25q1 0 3.5 -1t4.5 -1q17 0 31 14q51 54 146 54q33 0 61 -14.5t38 -41t-15 -63.5l-31 -41q-15 -22 2 -35q210 -190 151 -563q-22 -142 -78.5 -259t-135 -197t-178 -135
t-207.5 -80t-224 -25q-125 0 -223 28q-4 2 -10 2q-19 0 -31 -12q-48 -39 -127 -39q-71 0 -92.5 38t24.5 101q14 21 -4 35zM727 244q45 -56 123 -56q25 0 37 2q119 19 177.5 146t57.5 381q3 45 0 84q0 10 -6 10q-5 0 -10 -8l-379 -522q-13 -20 0 -37zM1028 1124
q-41 41 -108 41q-277 0 -277 -530q0 -37 2 -55q0 -11 4 -11t10 9l369 509q6 9 6 20t-6 17z" />
    <glyph glyph-name="Ugrave" unicode="&#xd9;" horiz-adv-x="1505" 
d="M750 -20q-96 0 -183 17t-162 55t-126.5 93.5t-74 137t-7.5 180.5l94 594q4 25 -3.5 46.5t-20.5 38.5t-25.5 34.5t-19.5 41t-3 50.5q8 46 50 75t116 29h340q73 0 99 -28.5t18 -75.5q-5 -33 -23.5 -62t-38 -47t-37 -45t-22.5 -57l-90 -561q-42 -263 157 -263
q104 0 162.5 66.5t79.5 196.5l90 561q5 30 -5 57t-23.5 45t-22.5 47t-4 62q18 104 149 104h340q74 0 108 -29.5t26 -74.5q-4 -27 -19 -50.5t-33 -41t-36 -34.5t-32 -38.5t-18 -46.5l-94 -594q-15 -99 -63.5 -180.5t-117.5 -137t-156.5 -93.5t-180 -55t-188.5 -17zM750 1690
q-57 44 -46 111.5t74 105.5q54 32 115 32q87 0 133 -67l162 -221q27 -37 33.5 -69.5t-4 -53.5t-33.5 -35q-39 -20 -76 -20q-63 0 -141 55z" />
    <glyph glyph-name="Uacute" unicode="&#xda;" horiz-adv-x="1505" 
d="M750 -20q-96 0 -183 17t-162 55t-126.5 93.5t-74 137t-7.5 180.5l94 594q4 25 -3.5 46.5t-20.5 38.5t-25.5 34.5t-19.5 41t-3 50.5q8 46 50 75t116 29h340q73 0 99 -28.5t18 -75.5q-5 -33 -23.5 -62t-38 -47t-37 -45t-22.5 -57l-90 -561q-42 -263 157 -263
q104 0 162.5 66.5t79.5 196.5l90 561q5 30 -5 57t-23.5 45t-22.5 47t-4 62q18 104 149 104h340q74 0 108 -29.5t26 -74.5q-4 -27 -19 -50.5t-33 -41t-36 -34.5t-32 -38.5t-18 -46.5l-94 -594q-15 -99 -63.5 -180.5t-117.5 -137t-156.5 -93.5t-180 -55t-188.5 -17zM686 1493
q-19 14 -23 35t12.5 53.5t55.5 69.5l232 221q70 67 155 67q62 0 105 -32q33 -24 40 -64.5t-14.5 -82.5t-66.5 -70l-271 -162q-93 -55 -157 -55q-39 0 -68 20z" />
    <glyph glyph-name="Ucircumflex" unicode="&#xdb;" horiz-adv-x="1505" 
d="M750 -20q-96 0 -183 17t-162 55t-126.5 93.5t-74 137t-7.5 180.5l94 594q4 25 -3.5 46.5t-20.5 38.5t-25.5 34.5t-19.5 41t-3 50.5q8 46 50 75t116 29h340q73 0 99 -28.5t18 -75.5q-5 -33 -23.5 -62t-38 -47t-37 -45t-22.5 -57l-90 -561q-42 -263 157 -263
q104 0 162.5 66.5t79.5 196.5l90 561q5 30 -5 57t-23.5 45t-22.5 47t-4 62q18 104 149 104h340q74 0 108 -29.5t26 -74.5q-4 -27 -19 -50.5t-33 -41t-36 -34.5t-32 -38.5t-18 -46.5l-94 -594q-15 -99 -63.5 -180.5t-117.5 -137t-156.5 -93.5t-180 -55t-188.5 -17zM623 1487
q-52 6 -63.5 42.5t26.5 76.5l153 161q34 35 54.5 54.5t59.5 51t77.5 47t75.5 15.5q30 0 59.5 -13t48 -26.5t43 -43.5t32.5 -42t28 -43l100 -161q26 -40 3.5 -76.5t-77.5 -42.5q-3 0 -9 -1t-9 -1q-16 0 -30.5 3.5t-29 12t-22 14t-24.5 20t-23 19.5q-65 58 -119 101
q-6 6 -14 6q-10 0 -19 -6q-7 -4 -72 -48t-81 -53q-5 -3 -28.5 -19t-32 -20.5t-26.5 -14t-32.5 -12.5t-30.5 -3q-3 0 -9 1t-9 1z" />
    <glyph glyph-name="Udieresis" unicode="&#xdc;" horiz-adv-x="1505" 
d="M750 -20q-96 0 -183 17t-162 55t-126.5 93.5t-74 137t-7.5 180.5l94 594q4 25 -3.5 46.5t-20.5 38.5t-25.5 34.5t-19.5 41t-3 50.5q8 46 50 75t116 29h340q73 0 99 -28.5t18 -75.5q-5 -33 -23.5 -62t-38 -47t-37 -45t-22.5 -57l-90 -561q-42 -263 157 -263
q104 0 162.5 66.5t79.5 196.5l90 561q5 30 -5 57t-23.5 45t-22.5 47t-4 62q18 104 149 104h340q74 0 108 -29.5t26 -74.5q-4 -27 -19 -50.5t-33 -41t-36 -34.5t-32 -38.5t-18 -46.5l-94 -594q-15 -99 -63.5 -180.5t-117.5 -137t-156.5 -93.5t-180 -55t-188.5 -17zM1169 1538
q-71 0 -108 38.5t-27 102.5t59.5 103t120.5 39q72 0 110 -39t28 -103t-60.5 -102.5t-122.5 -38.5zM793 1538q-71 0 -108.5 38.5t-27.5 102.5t60 103t121 39q72 0 109.5 -39t27.5 -103t-60 -102.5t-122 -38.5z" />
    <glyph glyph-name="Yacute" unicode="&#xdd;" horiz-adv-x="1417" 
d="M936 811l223 309q15 18 9 37t-19.5 30.5t-24.5 35.5t-6 53q5 36 31.5 59t69.5 32.5t75 12t76 2.5h19h18q28 0 47 -1t48.5 -4t49 -10.5t37.5 -19t25.5 -31.5t3.5 -46q-6 -40 -34.5 -66.5t-66 -50t-53.5 -47.5l-436 -608l-39 -246q-3 -19 10 -36.5t30.5 -30t30 -36
t7.5 -53.5q-6 -44 -35.5 -66t-81.5 -30q-112 -16 -213 -16q-99 0 -221 16q-98 13 -88 96q5 30 25 53.5t42 36t41.5 30t22.5 36.5l23 143l-291 711q-10 25 -37 49t-43 49.5t-10 65.5q7 48 50 75t97 27h162q31 0 59 -6t49.5 -15t42 -24.5t34.5 -28t28 -33.5t22 -34t17.5 -34.5
t12.5 -30t9 -27.5l7 -19l112 -309q3 -12 15 -12q9 0 18 12zM1137 1690l-269 -162q-93 -55 -157 -55q-41 0 -70 20q-19 14 -23 35t12.5 53.5t55.5 69.5l232 221q70 67 155 67q62 0 105 -32q51 -36 40 -105.5t-81 -111.5z" />
    <glyph glyph-name="Thorn" unicode="&#xde;" horiz-adv-x="1335" 
d="M578 158l-13 -76q-4 -37 -30.5 -59.5t-63.5 -22.5h-266q-37 0 -56 22.5t-14 59.5l193 1208q6 37 31.5 59.5t62.5 22.5h266q37 0 56.5 -22.5t13.5 -59.5l-21 -125q-3 -22 19 -22h90q102 0 191 -18t163 -56.5t123.5 -95t70 -138.5t5.5 -182q-20 -123 -85.5 -216.5
t-163 -148t-212 -81.5t-244.5 -27h-90q-23 0 -26 -22zM696 418q95 0 151 69.5t71 171.5q18 114 -21 177.5t-113 68.5q-36 0 -64.5 -14.5t-33.5 -46.5l-57 -369q-5 -31 17 -44t50 -13z" />
    <glyph glyph-name="germandbls" unicode="&#xdf;" horiz-adv-x="1695" 
d="M1468 1192q-10 -62 -43 -117.5t-73.5 -95t-81 -75t-70.5 -73t-35 -73.5q-5 -31 17 -56t62 -41.5t92 -35t107 -34.5t106.5 -40.5t91 -53.5t60.5 -74t15 -101q-9 -83 -49.5 -146t-95.5 -99.5t-128.5 -59t-139 -30t-138.5 -7.5q-82 0 -147.5 8t-130 28.5t-108 62.5
t-60.5 103q-23 83 21 134t114 51q67 0 115 -45q25 -24 57.5 -59.5t48.5 -52t42 -29.5t57 -13q49 0 78.5 25t35.5 69q4 26 -23 47t-72 37t-100 33t-108.5 42.5t-95.5 58.5t-63.5 86.5t-10.5 121.5q9 55 34.5 105t57 90t63 80.5t57.5 94t36 113.5q15 94 -24.5 146.5
t-116.5 52.5q-70 0 -124 -42.5t-67 -129.5l-149 -940q-3 -19 11 -36.5t31.5 -30t30 -36t7.5 -53.5q-7 -44 -37 -66t-82 -30q-109 -16 -201 -16q-88 0 -213 16q-99 13 -86 96q5 30 25 53.5t41.5 36t40.5 30t22 36.5l145 916q14 89 58.5 155.5t104 105t141.5 62t159 31.5
t170 8q66 0 127.5 -6t126 -20.5t115 -40.5t89.5 -62.5t55 -91.5t5 -123z" />
    <glyph glyph-name="agrave" unicode="&#xe0;" horiz-adv-x="1265" 
d="M565 -20q-111 0 -199.5 31.5t-151.5 94t-87.5 166.5t-3.5 240t78.5 240t141 166.5t182.5 94t210 31.5q153 0 230 -86q2 2 7 6.5t7 6.5q77 53 164 53h96q64 0 92.5 -29.5t20.5 -74.5q-7 -50 -38 -108.5t-38 -102.5l-64 -394q-5 -30 4.5 -57t22.5 -45t21.5 -47t3.5 -62
q-6 -45 -49 -74.5t-117 -29.5h-117q-44 0 -95 16t-81 45q-100 -81 -240 -81zM758 860q-159 0 -199 -352q-18 -180 11 -263t98 -81q46 1 75 20t50 60l81 518q-8 48 -41 73t-75 25zM821 1180l-219 161q-56 44 -45 112t74 106q54 32 114 32q88 0 134 -67l161 -221
q27 -37 33.5 -69.5t-4 -53.5t-33.5 -35q-38 -21 -75 -21q-65 0 -140 56z" />
    <glyph glyph-name="aacute" unicode="&#xe1;" horiz-adv-x="1265" 
d="M565 -20q-111 0 -199.5 31.5t-151.5 94t-87.5 166.5t-3.5 240t78.5 240t141 166.5t182.5 94t210 31.5q153 0 230 -86q2 2 7 6.5t7 6.5q77 53 164 53h96q64 0 92.5 -29.5t20.5 -74.5q-7 -50 -38 -108.5t-38 -102.5l-64 -394q-5 -30 4.5 -57t22.5 -45t21.5 -47t3.5 -62
q-6 -45 -49 -74.5t-117 -29.5h-117q-44 0 -95 16t-81 45q-100 -81 -240 -81zM758 860q-159 0 -199 -352q-18 -180 11 -263t98 -81q46 1 75 20t50 60l81 518q-8 48 -41 73t-75 25zM1034 1341l-268 -161q-95 -56 -158 -56q-39 0 -69 21q-19 14 -23 35t12.5 53.5t55.5 69.5
l231 221q70 67 156 67q61 0 104 -32q51 -36 40 -106t-81 -112z" />
    <glyph glyph-name="acircumflex" unicode="&#xe2;" horiz-adv-x="1265" 
d="M565 -20q-111 0 -199.5 31.5t-151.5 94t-87.5 166.5t-3.5 240t78.5 240t141 166.5t182.5 94t210 31.5q153 0 230 -86q2 2 7 6.5t7 6.5q77 53 164 53h96q64 0 92.5 -29.5t20.5 -74.5q-7 -50 -38 -108.5t-38 -102.5l-64 -394q-5 -30 4.5 -57t22.5 -45t21.5 -47t3.5 -62
q-6 -45 -49 -74.5t-117 -29.5h-117q-44 0 -95 16t-81 45q-100 -81 -240 -81zM758 860q-159 0 -199 -352q-18 -180 11 -263t98 -81q46 1 75 20t50 60l81 518q-8 48 -41 73t-75 25zM831 1307q-6 6 -16 6q-7 0 -16 -6q-16 -9 -82 -53l-72 -48q-7 -4 -29 -19t-31 -20.5
t-26.5 -14t-32 -12t-30.5 -3.5q-3 0 -9.5 1t-9.5 1q-54 6 -65 42t28 76l152 162q35 36 55 55t59 50.5t77 47t75 15.5q30 0 59.5 -13t48 -26.5t43 -43.5t32.5 -42t28 -43l102 -162q26 -40 3.5 -76t-76.5 -42q-3 0 -9.5 -1t-9.5 -1q-16 0 -30.5 3.5t-29 12t-22 14t-24.5 20
t-23 19.5q-54 43 -119 101z" />
    <glyph glyph-name="atilde" unicode="&#xe3;" horiz-adv-x="1265" 
d="M565 -20q-111 0 -199.5 31.5t-151.5 94t-87.5 166.5t-3.5 240t78.5 240t141 166.5t182.5 94t210 31.5q153 0 230 -86q2 2 7 6.5t7 6.5q77 53 164 53h96q64 0 92.5 -29.5t20.5 -74.5q-7 -50 -38 -108.5t-38 -102.5l-64 -394q-5 -30 4.5 -57t22.5 -45t21.5 -47t3.5 -62
q-6 -45 -49 -74.5t-117 -29.5h-117q-44 0 -95 16t-81 45q-100 -81 -240 -81zM758 860q-159 0 -199 -352q-18 -180 11 -263t98 -81q46 1 75 20t50 60l81 518q-8 48 -41 73t-75 25zM629 1217q-33 -29 -66 -29q-31 0 -52 25t-22 65q-5 99 101 178q96 70 158 70q41 0 92.5 -38
t81.5 -38q42 0 90 43q33 29 65 29t53 -25t23 -63q5 -102 -100 -181q-89 -67 -154 -67q-34 0 -64.5 19t-58 38t-53.5 19q-41 0 -94 -45z" />
    <glyph glyph-name="adieresis" unicode="&#xe4;" horiz-adv-x="1265" 
d="M565 -20q-111 0 -199.5 31.5t-151.5 94t-87.5 166.5t-3.5 240t78.5 240t141 166.5t182.5 94t210 31.5q153 0 230 -86q2 2 7 6.5t7 6.5q77 53 164 53h96q64 0 92.5 -29.5t20.5 -74.5q-7 -50 -38 -108.5t-38 -102.5l-64 -394q-5 -30 4.5 -57t22.5 -45t21.5 -47t3.5 -62
q-6 -45 -49 -74.5t-117 -29.5h-117q-44 0 -95 16t-81 45q-100 -81 -240 -81zM758 860q-159 0 -199 -352q-18 -180 11 -263t98 -81q46 1 75 20t50 60l81 518q-8 48 -41 73t-75 25zM471 1331q9 64 58 103t120 39q72 0 110 -39t29 -103q-10 -64 -60 -102.5t-122 -38.5
q-71 0 -108 38.5t-27 102.5zM848 1331q9 64 58 103t120 39q72 0 110 -39t29 -103q-10 -64 -60 -102.5t-122 -38.5q-71 0 -108 38.5t-27 102.5z" />
    <glyph glyph-name="aring" unicode="&#xe5;" horiz-adv-x="1265" 
d="M565 -20q-111 0 -199.5 31.5t-151.5 94t-87.5 166.5t-3.5 240t78.5 240t141 166.5t182.5 94t210 31.5q153 0 230 -86q2 2 7 6.5t7 6.5q77 53 164 53h96q64 0 92.5 -29.5t20.5 -74.5q-7 -50 -38 -108.5t-38 -102.5l-64 -394q-5 -30 4.5 -57t22.5 -45t21.5 -47t3.5 -62
q-6 -45 -49 -74.5t-117 -29.5h-117q-44 0 -95 16t-81 45q-100 -81 -240 -81zM758 860q-159 0 -199 -352q-18 -180 11 -263t98 -81q46 1 75 20t50 60l81 518q-8 48 -41 73t-75 25zM555 1356q17 110 108 188t201 78t175 -78t48 -188t-108 -188t-201 -78t-175 78t-48 188z
M739 1356q-6 -34 15 -58t55 -24q33 0 59.5 24t32.5 58q5 34 -14 57t-53 23t-62.5 -23.5t-32.5 -56.5z" />
    <glyph glyph-name="ae" unicode="&#xe6;" horiz-adv-x="1892" 
d="M565 -20q-111 0 -199.5 31.5t-151.5 94t-87.5 166.5t-3.5 240t78.5 240t141 166.5t182.5 94t210 31.5q43 0 99 -11t77 -32q7 21 69.5 32t143.5 11q156 0 191 -30q4 1 7 2l6 2t5 2q98 29 201 29q152 0 257.5 -59.5t141.5 -178.5q25 -81 -5.5 -157.5t-115.5 -114.5
l-440 -199q-13 -6 -16.5 -17t4.5 -20q59 -59 151 -59q146 0 314 145q26 23 55 23q26 0 33 -23t-15 -72q-169 -337 -546 -337q-109 0 -191 26q-1 1 -4.5 2t-5.5 2q-51 -39 -197 -39q-79 0 -137 16t-59 44q-1 -1 -3 -2t-3 -2q-75 -47 -187 -47zM758 860q-159 0 -199 -352
q-18 -180 11 -263t98 -81q46 1 75 20t50 60l81 518q-8 48 -41 73t-75 25zM1372 827q-70 -24 -92.5 -104t-9.5 -156q3 -22 20 -22q5 0 13 4l174 74q74 32 53 106q-11 47 -41 77t-72 30q-21 0 -45 -9z" />
    <glyph glyph-name="ccedilla" unicode="&#xe7;" horiz-adv-x="1155" 
d="M119 352q-13 148 32 277t134.5 220t221 143t286.5 52q77 0 137.5 -7t115.5 -24.5t93 -46t63.5 -74t32.5 -106.5q12 -101 -65.5 -175t-182.5 -74q-59 0 -110 26q-39 20 -60 58t-26 77.5t-8 76t-15 60t-39 23.5q-2 0 -6.5 -1t-7.5 -1q-73 -13 -132.5 -109.5t-58.5 -222.5
q-1 -113 51.5 -179.5t139.5 -80.5q28 -4 47 -4q152 0 297 123q26 23 55 23q31 0 42.5 -24t-11.5 -75q-65 -128 -176.5 -207.5t-245.5 -107.5l-68 -78q-17 -21 -4 -27q23 -12 38.5 -22t33 -27t24.5 -39.5t3 -50.5q-14 -92 -103 -137t-225 -45q-26 0 -88 4q-15 2 -23.5 10.5
t-7.5 20.5l12 71q2 13 12.5 23.5t24.5 11.5q125 16 135 74q3 18 -2.5 32.5t-17 29.5t-14.5 22q-17 27 8 55l59 64q-106 12 -191.5 56t-142.5 124.5t-67 187.5z" />
    <glyph glyph-name="egrave" unicode="&#xe8;" horiz-adv-x="1146" 
d="M614 303q59 -59 152 -59q145 0 313 145q26 23 56 23q26 0 33 -23t-15 -72q-166 -337 -547 -337q-216 0 -348 115t-139 325q-4 92 26.5 184.5t91.5 171.5t142.5 140.5t188 97t220.5 35.5q152 0 258 -59.5t142 -178.5q25 -81 -5.5 -157.5t-115.5 -114.5l-440 -199
q-13 -6 -17 -17t4 -20zM559 549l172 74q74 32 53 106q-11 47 -40.5 77t-71.5 30q-21 0 -45 -9q-59 -21 -88.5 -90.5t-14.5 -169.5q3 -22 23 -22q4 0 12 4zM788 1180l-219 161q-56 44 -45 112t74 106q54 32 115 32q87 0 133 -67l162 -221q27 -37 33.5 -69.5t-4 -53.5
t-33.5 -35q-38 -21 -76 -21q-65 0 -140 56z" />
    <glyph glyph-name="eacute" unicode="&#xe9;" horiz-adv-x="1146" 
d="M614 303q59 -59 152 -59q145 0 313 145q26 23 56 23q26 0 33 -23t-15 -72q-166 -337 -547 -337q-216 0 -348 115t-139 325q-4 92 26.5 184.5t91.5 171.5t142.5 140.5t188 97t220.5 35.5q152 0 258 -59.5t142 -178.5q25 -81 -5.5 -157.5t-115.5 -114.5l-440 -199
q-13 -6 -17 -17t4 -20zM559 549l172 74q74 32 53 106q-11 47 -40.5 77t-71.5 30q-21 0 -45 -9q-59 -21 -88.5 -90.5t-14.5 -169.5q3 -22 23 -22q4 0 12 4zM1001 1341l-268 -161q-95 -56 -158 -56q-39 0 -69 21q-19 14 -23 35t12.5 53.5t55.5 69.5l231 221q70 67 156 67
q61 0 104 -32q51 -36 40 -106t-81 -112z" />
    <glyph glyph-name="ecircumflex" unicode="&#xea;" horiz-adv-x="1146" 
d="M614 303q59 -59 152 -59q145 0 313 145q26 23 56 23q26 0 33 -23t-15 -72q-166 -337 -547 -337q-216 0 -348 115t-139 325q-4 92 26.5 184.5t91.5 171.5t142.5 140.5t188 97t220.5 35.5q152 0 258 -59.5t142 -178.5q25 -81 -5.5 -157.5t-115.5 -114.5l-440 -199
q-13 -6 -17 -17t4 -20zM559 549l172 74q74 32 53 106q-11 47 -40.5 77t-71.5 30q-21 0 -45 -9q-59 -21 -88.5 -90.5t-14.5 -169.5q3 -22 23 -22q4 0 12 4zM799 1307q-6 6 -17 6q-7 0 -16 -6q-16 -9 -82 -53l-72 -48q-7 -4 -29 -19t-31 -20.5t-26.5 -14t-32 -12t-30.5 -3.5
q-3 0 -9.5 1t-9.5 1q-54 6 -64.5 42t28.5 76l151 162q35 36 55 55t59 50.5t77 47t75 15.5q30 0 59.5 -13t48 -26.5t43 -43.5t32.5 -42t28 -43l103 -162q26 -40 3 -76t-77 -42q-3 0 -9 -1t-9 -1q-16 0 -30.5 3.5t-29 12t-22 14t-24.5 20t-23 19.5q-54 43 -119 101z" />
    <glyph glyph-name="edieresis" unicode="&#xeb;" horiz-adv-x="1146" 
d="M614 303q59 -59 152 -59q145 0 313 145q26 23 56 23q26 0 33 -23t-15 -72q-166 -337 -547 -337q-216 0 -348 115t-139 325q-4 92 26.5 184.5t91.5 171.5t142.5 140.5t188 97t220.5 35.5q152 0 258 -59.5t142 -178.5q25 -81 -5.5 -157.5t-115.5 -114.5l-440 -199
q-13 -6 -17 -17t4 -20zM559 549l172 74q74 32 53 106q-11 47 -40.5 77t-71.5 30q-21 0 -45 -9q-59 -21 -88.5 -90.5t-14.5 -169.5q3 -22 23 -22q4 0 12 4zM438 1331q9 64 58 103t120 39q72 0 110.5 -39t29.5 -103q-10 -64 -60.5 -102.5t-122.5 -38.5q-71 0 -108 38.5
t-27 102.5zM815 1331q9 64 58 103t120 39q72 0 110.5 -39t29.5 -103q-10 -64 -60.5 -102.5t-122.5 -38.5q-71 0 -108 38.5t-27 102.5z" />
    <glyph glyph-name="igrave" unicode="&#xec;" horiz-adv-x="614" 
d="M143 264l72 445q4 25 -3.5 46.5t-20 38.5t-25 34.5t-20 41t-3.5 50.5q8 46 45.5 75t100.5 29h157q107 0 159.5 -52.5t37.5 -150.5l-90 -557q-3 -20 7.5 -38.5t23.5 -31.5t22 -38t4 -56q-7 -47 -35 -73t-63 -29q-106 -8 -141 -8q-155 0 -204 59t-24 215zM522 1180
l-219 161q-56 44 -45 112t74 106q54 32 114 32q88 0 134 -67l161 -221q27 -37 33.5 -69.5t-4 -53.5t-33.5 -35q-37 -21 -75 -21q-65 0 -140 56z" />
    <glyph glyph-name="iacute" unicode="&#xed;" horiz-adv-x="614" 
d="M143 264l72 445q4 25 -3.5 46.5t-20 38.5t-25 34.5t-20 41t-3.5 50.5q8 46 45.5 75t100.5 29h157q107 0 159.5 -52.5t37.5 -150.5l-90 -557q-3 -20 7.5 -38.5t23.5 -31.5t22 -38t4 -56q-7 -47 -35 -73t-63 -29q-106 -8 -141 -8q-155 0 -204 59t-24 215zM735 1341
l-268 -161q-95 -56 -158 -56q-39 0 -69 21q-19 14 -23 35t12.5 53.5t55.5 69.5l231 221q70 67 156 67q61 0 104 -32q51 -36 40 -106t-81 -112z" />
    <glyph glyph-name="icircumflex" unicode="&#xee;" horiz-adv-x="614" 
d="M143 264l72 445q4 25 -3.5 46.5t-20 38.5t-25 34.5t-20 41t-3.5 50.5q8 46 45.5 75t100.5 29h157q107 0 159.5 -52.5t37.5 -150.5l-90 -557q-3 -20 7.5 -38.5t23.5 -31.5t22 -38t4 -56q-7 -47 -35 -73t-63 -29q-106 -8 -141 -8q-155 0 -204 59t-24 215zM532 1307
q-6 6 -16 6q-7 0 -16 -6q-16 -9 -82 -53l-72 -48q-7 -4 -29 -19t-31 -20.5t-26.5 -14t-32 -12t-30.5 -3.5q-3 0 -9.5 1t-9.5 1q-54 6 -65 42t28 76l152 162q35 36 55 55t59 50.5t77 47t75 15.5q30 0 59.5 -13t48 -26.5t43 -43.5t32.5 -42t28 -43l102 -162q26 -40 3.5 -76
t-76.5 -42q-3 0 -9.5 -1t-9.5 -1q-16 0 -30.5 3.5t-29 12t-22 14t-24.5 20t-23 19.5q-54 43 -119 101z" />
    <glyph glyph-name="idieresis" unicode="&#xef;" horiz-adv-x="614" 
d="M143 264l72 445q4 25 -3.5 46.5t-20 38.5t-25 34.5t-20 41t-3.5 50.5q8 46 45.5 75t100.5 29h157q107 0 159.5 -52.5t37.5 -150.5l-90 -557q-3 -20 7.5 -38.5t23.5 -31.5t22 -38t4 -56q-7 -47 -35 -73t-63 -29q-106 -8 -141 -8q-155 0 -204 59t-24 215zM172 1331
q9 64 58 103t120 39q72 0 110 -39t29 -103q-10 -64 -60 -102.5t-122 -38.5q-71 0 -108 38.5t-27 102.5zM549 1331q9 64 58 103t120 39q72 0 110 -39t29 -103q-10 -64 -60 -102.5t-122 -38.5q-71 0 -108 38.5t-27 102.5z" />
    <glyph glyph-name="eth" unicode="&#xf0;" horiz-adv-x="1222" 
d="M1163 1169q174 -199 119 -532q-51 -318 -228 -487.5t-448 -169.5q-266 0 -398.5 113.5t-98.5 334.5q26 162 152 273.5t304 111.5q145 0 295 -82q4 -2 8 -2q9 0 9 12q6 131 -48 213q-7 11 -18 11q-6 0 -14 -4l-170 -99q-13 -8 -33 -8q-31 0 -47 29l-39 86q-21 52 31 80
l45 26q9 5 9 9t-9 6q-31 6 -101 14q-59 6 -59 78t49 143q47 68 100 68q116 0 198.5 -17t172.5 -53q6 -2 19 -2q14 0 20 4l145 82q17 10 31 10q30 0 47 -31l41 -86q21 -50 -33 -79l-45 -27q-17 -10 -6 -25zM821 487q-83 62 -155 62q-58 0 -97 -41t-51 -119q-13 -91 19 -136.5
t102 -45.5q61 0 108 57.5t82 190.5q7 21 -8 32z" />
    <glyph glyph-name="ntilde" unicode="&#xf1;" horiz-adv-x="1290" 
d="M1300 705l-71 -441q-3 -20 7.5 -38.5t23.5 -31.5t22 -38t4 -56q-7 -47 -35 -73t-63 -29q-106 -8 -141 -8q-155 0 -204 59t-24 215l49 305q31 195 -67 195q-49 0 -100.5 -69t-83 -147.5t-39.5 -131.5l-23 -146q-3 -20 6.5 -38.5t22.5 -31.5t22 -38t4 -56q-7 -47 -34.5 -72
t-63.5 -30q-118 -16 -203 -16q-94 0 -209 16q-99 13 -86 96q5 30 25 53.5t41 36t40.5 30t22.5 36.5l72 453q4 25 -3.5 46.5t-20 38.5t-25 34.5t-20 41t-3.5 50.5q8 46 50 75t116 29h137q60 0 115.5 -30.5t73.5 -84.5q2 -4 4 -12.5t4 -13.5q5 -9 10 -9q7 0 13 9
q63 77 150 119t183 42q166 0 246 -88t55 -251zM668 1217q-33 -29 -66 -29q-31 0 -52 25t-22 65q-5 99 101 178q96 70 157 70q41 0 93 -38t82 -38q42 0 90 43q33 29 65 29t53 -25t23 -63q5 -102 -100 -181q-89 -67 -154 -67q-34 0 -64.5 19t-58 38t-53.5 19q-41 0 -94 -45z
" />
    <glyph glyph-name="ograve" unicode="&#xf2;" horiz-adv-x="1218" 
d="M123 512q17 109 60.5 198t105 150.5t140.5 103.5t165.5 61t181.5 19q118 0 213.5 -31.5t164.5 -94t98 -166.5t8 -240t-83 -240t-151.5 -166.5t-195.5 -94t-224 -31.5q-119 0 -214.5 31.5t-164.5 94t-97 166.5t-7 240zM821 535q1 170 -25.5 246.5t-86.5 76.5q-3 0 -9.5 -1
t-9.5 -1q-68 -11 -99 -96.5t-32 -270.5q-1 -168 26.5 -245.5t86.5 -77.5q2 0 7.5 1t8.5 1q70 10 100.5 95t32.5 272zM823 1180l-217 161q-57 44 -45.5 112t74.5 106q54 32 115 32q87 0 133 -67l161 -221q27 -37 33.5 -69.5t-4 -53.5t-33.5 -35q-40 -21 -75 -21
q-63 0 -142 56z" />
    <glyph glyph-name="oacute" unicode="&#xf3;" horiz-adv-x="1218" 
d="M123 512q17 109 60.5 198t105 150.5t140.5 103.5t165.5 61t181.5 19q118 0 213.5 -31.5t164.5 -94t98 -166.5t8 -240t-83 -240t-151.5 -166.5t-195.5 -94t-224 -31.5q-119 0 -214.5 31.5t-164.5 94t-97 166.5t-7 240zM821 535q1 170 -25.5 246.5t-86.5 76.5q-3 0 -9.5 -1
t-9.5 -1q-68 -11 -99 -96.5t-32 -270.5q-1 -168 26.5 -245.5t86.5 -77.5q2 0 7.5 1t8.5 1q70 10 100.5 95t32.5 272zM1038 1341l-270 -161q-95 -56 -158 -56q-37 0 -67 21q-19 14 -23 35t12.5 53.5t55.5 69.5l231 221q70 67 156 67q61 0 104 -32q33 -24 40 -64.5t-14.5 -83
t-66.5 -70.5z" />
    <glyph glyph-name="ocircumflex" unicode="&#xf4;" horiz-adv-x="1218" 
d="M123 512q17 109 60.5 198t105 150.5t140.5 103.5t165.5 61t181.5 19q118 0 213.5 -31.5t164.5 -94t98 -166.5t8 -240t-83 -240t-151.5 -166.5t-195.5 -94t-224 -31.5q-119 0 -214.5 31.5t-164.5 94t-97 166.5t-7 240zM821 535q1 170 -25.5 246.5t-86.5 76.5q-3 0 -9.5 -1
t-9.5 -1q-68 -11 -99 -96.5t-32 -270.5q-1 -168 26.5 -245.5t86.5 -77.5q2 0 7.5 1t8.5 1q70 10 100.5 95t32.5 272zM834 1307q-6 6 -15 6t-18 -6l-72 -48t-82 -53q-7 -4 -29 -19t-31 -20.5t-26.5 -14t-32 -12t-30.5 -3.5q-3 0 -9.5 1t-9.5 1q-53 6 -64 42t27 76l154 162
q35 36 55 55t59 50.5t77 47t75 15.5q30 0 59.5 -13t48 -26.5t43 -43.5t32.5 -42t28 -43l101 -162q26 -40 3.5 -76t-77.5 -42q-3 0 -9.5 -1t-9.5 -1q-16 0 -30.5 3.5t-29 12t-22 14t-24.5 20t-23 19.5q-74 66 -118 101z" />
    <glyph glyph-name="otilde" unicode="&#xf5;" horiz-adv-x="1218" 
d="M123 512q17 109 60.5 198t105 150.5t140.5 103.5t165.5 61t181.5 19q118 0 213.5 -31.5t164.5 -94t98 -166.5t8 -240t-83 -240t-151.5 -166.5t-195.5 -94t-224 -31.5q-119 0 -214.5 31.5t-164.5 94t-97 166.5t-7 240zM821 535q1 170 -25.5 246.5t-86.5 76.5q-3 0 -9.5 -1
t-9.5 -1q-68 -11 -99 -96.5t-32 -270.5q-1 -168 26.5 -245.5t86.5 -77.5q2 0 7.5 1t8.5 1q70 10 100.5 95t32.5 272zM633 1217q-33 -29 -66 -29q-32 0 -52.5 25t-22.5 65q-5 97 100 178q96 70 158 70q34 0 64.5 -19t57.5 -38t52 -19q41 0 92 43q33 29 65 29q31 0 51.5 -25
t22.5 -63q5 -104 -100 -181q-87 -67 -152 -67q-34 0 -64.5 19t-58 38t-53.5 19q-41 0 -94 -45z" />
    <glyph glyph-name="odieresis" unicode="&#xf6;" horiz-adv-x="1218" 
d="M123 512q17 109 60.5 198t105 150.5t140.5 103.5t165.5 61t181.5 19q118 0 213.5 -31.5t164.5 -94t98 -166.5t8 -240t-83 -240t-151.5 -166.5t-195.5 -94t-224 -31.5q-119 0 -214.5 31.5t-164.5 94t-97 166.5t-7 240zM821 535q1 170 -25.5 246.5t-86.5 76.5q-3 0 -9.5 -1
t-9.5 -1q-68 -11 -99 -96.5t-32 -270.5q-1 -168 26.5 -245.5t86.5 -77.5q2 0 7.5 1t8.5 1q70 10 100.5 95t32.5 272zM473 1331q10 64 59.5 103t120.5 39q72 0 110 -39t28 -103t-60.5 -102.5t-122.5 -38.5q-71 0 -108 38.5t-27 102.5zM850 1331q10 64 59.5 103t120.5 39
q72 0 109.5 -39t27.5 -103t-60 -102.5t-122 -38.5q-71 0 -108 38.5t-27 102.5z" />
    <glyph glyph-name="divide" unicode="&#xf7;" horiz-adv-x="958" 
d="M246 690h639q55 0 87 -37t32 -102q0 -66 -32 -104.5t-87 -38.5h-639q-55 0 -87 38t-32 103t32 103t87 38zM401 203q0 70 42.5 111.5t123.5 41.5q80 0 122 -41.5t42 -111.5q0 -71 -42 -113.5t-122 -42.5q-81 0 -123.5 42.5t-42.5 113.5zM401 897q0 70 42.5 112t123.5 42
q79 0 121.5 -42t42.5 -112q0 -71 -42 -113.5t-122 -42.5q-81 0 -123.5 42.5t-42.5 113.5z" />
    <glyph glyph-name="oslash" unicode="&#xf8;" horiz-adv-x="1218" 
d="M236 96q-157 143 -113 416q17 109 60.5 198t105 150.5t140.5 103.5t165.5 61t181.5 19q68 0 117 -8h4q18 0 29 15q25 34 39.5 51.5t39 40t51.5 32t60 9.5q52 0 73.5 -32t-11.5 -87l-60 -88q-6 -8 -5 -17t7 -14q187 -139 140 -434q-21 -136 -83 -240t-151.5 -166.5
t-195.5 -94t-224 -31.5q-85 0 -151 14q-24 0 -35 -14q-31 -43 -61.5 -61.5t-90.5 -18.5q-32 0 -51.5 7t-25 20.5t-5.5 28t10 36t19 37t23 37.5q14 17 -2 30zM602 209q17 -27 34 -34t52 -7q65 9 96 80t35 223q4 42 2 64q0 10 -4 10q-2 0 -10 -8l-201 -293q-13 -20 -4 -35z
M756 842q-22 16 -47 16q-3 0 -9.5 -1t-9.5 -1q-58 -9 -89 -70.5t-38 -187.5q0 -35 -2 -53q0 -10 4 -10l8 8l185 266q15 23 -2 33z" />
    <glyph glyph-name="ugrave" unicode="&#xf9;" horiz-adv-x="1259" 
d="M438 -20q-160 0 -235 88t-49 251l61 390q4 25 -3.5 46.5t-20 38.5t-25 34.5t-20 41t-3.5 50.5q8 46 50 75t116 29h137q39 0 76 -13.5t67.5 -38t45.5 -64t8 -87.5l-59 -366q-28 -195 55 -195q33 0 69.5 41t63.5 98.5t46.5 114.5t25.5 94l16 101q4 25 -3.5 46.5t-20 38.5
t-25 34.5t-20 41t-3.5 50.5q8 46 50 75t116 29h138q84 0 147 -55t49 -148l-82 -506q-4 -25 3.5 -46.5t20.5 -38.5t25.5 -34.5t19.5 -41t3 -50.5q-6 -45 -49 -74.5t-117 -29.5h-137q-66 0 -123 38t-70 103q-4 11 -8 11q-3 0 -10 -7q-144 -165 -326 -165zM627 1341
q-57 44 -46 112t74 106q54 32 115 32q87 0 133 -67l162 -221q27 -37 33.5 -69.5t-4 -53.5t-33.5 -35q-40 -21 -76 -21q-62 0 -141 56z" />
    <glyph glyph-name="uacute" unicode="&#xfa;" horiz-adv-x="1259" 
d="M438 -20q-160 0 -235 88t-49 251l61 390q4 25 -3.5 46.5t-20 38.5t-25 34.5t-20 41t-3.5 50.5q8 46 50 75t116 29h137q39 0 76 -13.5t67.5 -38t45.5 -64t8 -87.5l-59 -366q-28 -195 55 -195q33 0 69.5 41t63.5 98.5t46.5 114.5t25.5 94l16 101q4 25 -3.5 46.5t-20 38.5
t-25 34.5t-20 41t-3.5 50.5q8 46 50 75t116 29h138q84 0 147 -55t49 -148l-82 -506q-4 -25 3.5 -46.5t20.5 -38.5t25.5 -34.5t19.5 -41t3 -50.5q-6 -45 -49 -74.5t-117 -29.5h-137q-66 0 -123 38t-70 103q-4 11 -8 11q-3 0 -10 -7q-144 -165 -326 -165zM563 1145
q-19 14 -23 35t12.5 53.5t55.5 69.5l232 221q70 67 155 67q62 0 105 -32q33 -24 40 -64.5t-14.5 -83t-66.5 -70.5l-271 -161q-95 -56 -157 -56q-38 0 -68 21z" />
    <glyph glyph-name="ucircumflex" unicode="&#xfb;" horiz-adv-x="1259" 
d="M438 -20q-160 0 -235 88t-49 251l61 390q4 25 -3.5 46.5t-20 38.5t-25 34.5t-20 41t-3.5 50.5q8 46 50 75t116 29h137q39 0 76 -13.5t67.5 -38t45.5 -64t8 -87.5l-59 -366q-28 -195 55 -195q33 0 69.5 41t63.5 98.5t46.5 114.5t25.5 94l16 101q4 25 -3.5 46.5t-20 38.5
t-25 34.5t-20 41t-3.5 50.5q8 46 50 75t116 29h138q84 0 147 -55t49 -148l-82 -506q-4 -25 3.5 -46.5t20.5 -38.5t25.5 -34.5t19.5 -41t3 -50.5q-6 -45 -49 -74.5t-117 -29.5h-137q-66 0 -123 38t-70 103q-4 11 -8 11q-3 0 -10 -7q-144 -165 -326 -165zM500 1139
q-53 6 -64 42t27 76l153 162q34 35 54.5 54.5t59.5 51t77.5 47t75.5 15.5q30 0 59.5 -13t48 -26.5t43 -43.5t32.5 -42t28 -43l100 -162q26 -40 3.5 -76t-77.5 -42q-3 0 -9 -1t-9 -1q-16 0 -30.5 3.5t-29 12t-22 14t-24.5 20t-23 19.5q-65 58 -119 101q-6 6 -14 6
q-10 0 -19 -6q-7 -4 -72 -48t-81 -53q-5 -3 -28.5 -19t-32 -20.5t-26.5 -14t-32.5 -12.5t-30.5 -3q-3 0 -9 1t-9 1z" />
    <glyph glyph-name="udieresis" unicode="&#xfc;" horiz-adv-x="1259" 
d="M438 -20q-160 0 -235 88t-49 251l61 390q4 25 -3.5 46.5t-20 38.5t-25 34.5t-20 41t-3.5 50.5q8 46 50 75t116 29h137q39 0 76 -13.5t67.5 -38t45.5 -64t8 -87.5l-59 -366q-28 -195 55 -195q33 0 69.5 41t63.5 98.5t46.5 114.5t25.5 94l16 101q4 25 -3.5 46.5t-20 38.5
t-25 34.5t-20 41t-3.5 50.5q8 46 50 75t116 29h138q84 0 147 -55t49 -148l-82 -506q-4 -25 3.5 -46.5t20.5 -38.5t25.5 -34.5t19.5 -41t3 -50.5q-6 -45 -49 -74.5t-117 -29.5h-137q-66 0 -123 38t-70 103q-4 11 -8 11q-3 0 -10 -7q-144 -165 -326 -165zM1006 1190
q-71 0 -108.5 38.5t-27.5 102.5t60 103t121 39q72 0 109.5 -39t27.5 -103t-60 -102.5t-122 -38.5zM629 1190q-71 0 -108 38.5t-27 102.5t59.5 103t120.5 39q72 0 109.5 -39t27.5 -103t-60 -102.5t-122 -38.5z" />
    <glyph glyph-name="yacute" unicode="&#xfd;" horiz-adv-x="1177" 
d="M784 467l136 240q19 40 22.5 76.5t-2.5 62t-12.5 48t-5 44t17.5 41.5q18 24 77 37.5t130 13.5q76 0 128.5 -15.5t53.5 -47.5q1 -33 -31 -75t-84 -99.5t-79 -104.5l-473 -844q-75 -134 -158.5 -195t-190.5 -61q-93 0 -164 41t-92 106.5t21 147.5q39 64 86 64
q25 0 86.5 -29t99.5 -29q88 0 174 117q-111 26 -153 197l-140 561q-8 34 -31 68t-38.5 59.5t-11.5 48.5q11 84 147 84h172q72 0 121.5 -54t75.5 -149l92 -354q6 -14 12 -14q8 0 14 14zM1018 1341l-270 -161q-95 -56 -158 -56q-38 0 -68 21q-19 14 -23 35t12.5 53.5
t55.5 69.5l232 221q70 67 155 67q62 0 105 -32q33 -24 40 -64.5t-14.5 -83t-66.5 -70.5z" />
    <glyph glyph-name="thorn" unicode="&#xfe;" horiz-adv-x="1282" 
d="M555 12l-47 -295q-6 -37 -31.5 -59.5t-62.5 -22.5h-246q-37 0 -56.5 22.5t-13.5 59.5l267 1676q6 37 31.5 59.5t62.5 22.5h246q37 0 56 -22.5t13 -59.5l-59 -367q-3 -14 8 -14q1 0 4 1t4 1q88 30 197 30q96 0 175 -31.5t136.5 -94t81 -167t2.5 -239.5
q-21 -136 -74.5 -240t-127.5 -166.5t-160.5 -94t-182.5 -31.5q-124 0 -203 43q-4 2 -10 2q-7 0 -10 -13zM600 299q-8 -47 21.5 -95t76.5 -48q26 0 48.5 10.5t39 32t30 42.5t23.5 56t16.5 57t12.5 60.5t7.5 51t5.5 44.5q41 340 -93 340q-37 0 -71.5 -21t-40.5 -55z" />
    <glyph glyph-name="ydieresis" unicode="&#xff;" horiz-adv-x="1177" 
d="M784 467l136 240q19 40 22.5 76.5t-2.5 62t-12.5 48t-5 44t17.5 41.5q18 24 77 37.5t130 13.5q76 0 128.5 -15.5t53.5 -47.5q1 -33 -31 -75t-84 -99.5t-79 -104.5l-473 -844q-75 -134 -158.5 -195t-190.5 -61q-93 0 -164 41t-92 106.5t21 147.5q39 64 86 64
q25 0 86.5 -29t99.5 -29q88 0 174 117q-111 26 -153 197l-140 561q-8 34 -31 68t-38.5 59.5t-11.5 48.5q11 84 147 84h172q72 0 121.5 -54t75.5 -149l92 -354q6 -14 12 -14q8 0 14 14zM453 1331q10 64 59.5 103t120.5 39q72 0 109.5 -39t27.5 -103t-60 -102.5t-122 -38.5
q-71 0 -108 38.5t-27 102.5zM829 1331q10 64 60 103t121 39q72 0 109.5 -39t27.5 -103t-60 -102.5t-122 -38.5q-71 0 -108.5 38.5t-27.5 102.5z" />
    <glyph glyph-name="Dcroat" unicode="&#x110;" horiz-adv-x="1511" 
d="M141 0q-48 0 -71.5 23t-16.5 67q5 28 24.5 51t41 35t40 28.5t21.5 33.5l39 245q3 15 -4 24t-22 9h-15q-55 0 -81 35.5t-17 95.5t46.5 95.5t92.5 35.5h14q32 0 39 33l39 246q4 25 -3.5 46.5t-20 38.5t-25 34.5t-19.5 41t-3 50.5q8 46 50 75t116 29h548q116 0 215.5 -25.5
t182.5 -79t135 -136t72.5 -196t-3.5 -259.5q-22 -142 -78 -257t-133.5 -192t-177.5 -129t-206.5 -75t-223.5 -23h-596zM625 328q-7 -46 30 -68t88 -22h11q111 5 199.5 115t123.5 329q34 215 -21 332.5t-163 120.5h-6q-67 0 -105.5 -29t-48.5 -92l-31 -203q-3 -15 4.5 -24
t22.5 -9h55q55 0 81.5 -34.5t17.5 -94.5q-9 -61 -46.5 -97t-93.5 -36h-55q-32 0 -39 -33z" />
    <glyph glyph-name="dcroat" unicode="&#x111;" horiz-adv-x="1280" 
d="M606 -20q-119 0 -214.5 31.5t-164.5 94t-97 166.5t-7 240q17 109 60 198.5t103 150.5t134.5 103t153.5 61t161 19q109 0 174 -36q4 -2 9 -2q9 0 12 12l8 53q1 9 -4 15t-14 6h-109q-55 0 -81.5 29.5t-18.5 80.5t45 81t92 30h106q13 0 13 12q2 7 -2 16q-4 4 -28 18
t-36.5 34t-7.5 51q13 92 164 92h137q84 0 142 -45t57 -123q0 -19 -4 -35q-3 -20 12 -20h33q27 0 42.5 -32t8.5 -77q-6 -44 -32 -78t-52 -34h-33q-18 0 -22 -35l-125 -791q-3 -20 6.5 -38.5t22.5 -31.5t22 -38t4 -56q-5 -35 -21.5 -58t-43 -33t-52 -13.5t-61.5 -3.5
q-139 0 -224 78q-6 6 -16 6q-8 0 -16 -8q-93 -90 -236 -90zM561 502q-36 -348 101 -348h4q46 3 94 70t67 155l39 239q0 133 -28.5 186.5t-89.5 53.5h-17q-69 -8 -111 -91.5t-59 -264.5z" />
    <glyph glyph-name="dotlessi" unicode="&#x131;" horiz-adv-x="614" 
d="M143 264l72 445q4 25 -3.5 46.5t-20 38.5t-25 34.5t-20 41t-3.5 50.5q8 46 45.5 75t100.5 29h157q107 0 159.5 -52.5t37.5 -150.5l-90 -557q-3 -20 7.5 -38.5t23.5 -31.5t22 -38t4 -56q-7 -47 -35 -73t-63 -29q-106 -8 -141 -8q-155 0 -204 59t-24 215z" />
    <glyph glyph-name="Lslash" unicode="&#x141;" horiz-adv-x="1142" 
d="M-8 590q-12 59 10.5 100t77.5 53l43 11q20 3 20 24v279q0 30 -16.5 57t-35.5 45t-35.5 47t-16.5 62q0 46 37.5 75t111.5 29h338q74 0 112 -29t38 -75q0 -27 -10.5 -50.5t-26 -41t-30.5 -34.5t-25.5 -38.5t-10.5 -46.5v-178q0 -17 21 -17l94 23q20 4 31 4q43 0 72 -27.5
t40 -77.5q14 -60 -8.5 -101t-77.5 -54l-151 -37q-21 -4 -21 -25v-188q0 -72 66 -72h168q30 0 57 16.5t45 36t47 36t62 16.5q46 0 75 -38t29 -112v-76q0 -79 -53 -132.5t-149 -53.5h-779q-48 0 -75 23t-27 67q0 28 16.5 51t35.5 35t35.5 28.5t16.5 33.5v231q0 14 -18 14h-2
q-6 -2 -21 -2q-39 0 -69 30.5t-41 78.5z" />
    <glyph glyph-name="lslash" unicode="&#x142;" horiz-adv-x="614" 
d="M553 264q-3 -20 7.5 -38.5t23.5 -31.5t22 -38t4 -56q-7 -47 -35 -73t-63 -29q-106 -8 -141 -8q-155 0 -204 59t-24 215l39 246q3 16 -12 16h-4q-3 0 -9.5 -1t-9.5 -1q-45 0 -71.5 27.5t-30.5 79.5q-3 60 26 100.5t87 52.5l51 13q9 1 16 8t8 16l62 400q5 30 -7 57
t-28.5 45t-28 47t-6.5 62q6 45 44.5 74.5t101.5 29.5h157q107 0 158.5 -52t36.5 -151l-66 -415q-3 -17 15 -17h4q3 0 9 1t9 1q44 0 71 -27t30 -77q5 -60 -24.5 -102t-86.5 -54l-51 -12q-21 -4 -25 -25z" />
    <glyph glyph-name="OE" unicode="&#x152;" horiz-adv-x="1880" 
d="M1364 535l-29 -181q-3 -32 5 -49.5t36 -17.5h223q30 0 60 16.5t51 35.5t52.5 35.5t64.5 16.5q46 0 69.5 -37.5t12.5 -111.5l-11 -56q-11 -79 -73 -132.5t-158 -53.5h-692q-90 -20 -201 -20q-116 0 -216 25.5t-183 79t-135.5 136t-74 196t2.5 259.5q23 142 80 261
t137 202.5t180 141t209.5 85t224.5 27.5q78 0 160 -21h684q95 0 140 -53.5t34 -132.5l-10 -56q-11 -74 -46 -111.5t-81 -37.5q-33 0 -59 16.5t-41 35.5t-39.5 35.5t-54.5 16.5h-193q-24 0 -34.5 -12.5t-16.5 -48.5l-31 -203q-3 -20 16 -20h74q19 0 39 16.5t35.5 35.5
t41.5 35.5t56 16.5q45 0 62.5 -26t17.5 -76q0 -90 -39 -250q-27 -102 -112 -102q-30 0 -51 16.5t-30.5 35.5t-24.5 35.5t-34 16.5h-73q-22 0 -25 -20zM926 1167q-283 0 -283 -532q1 -224 47 -332.5t139 -114.5q17 0 24.5 6t10.5 23l142 889q4 32 -19.5 46.5t-60.5 14.5z" />
    <glyph glyph-name="oe" unicode="&#x153;" horiz-adv-x="1892" 
d="M987 80q-156 -100 -381 -100q-119 0 -214.5 31.5t-164.5 94t-97 166.5t-7 240q17 109 60.5 198t105 150.5t140.5 103.5t165.5 61t181.5 19q221 0 352 -102q6 -6 15 -6t18 6q169 107 373 107q152 0 257.5 -59.5t141.5 -178.5q25 -81 -5.5 -157.5t-115.5 -114.5l-450 -203
q-20 -9 -8 -25q60 -67 157 -67q146 0 314 145q26 23 55 23q26 0 33 -23t-15 -72q-169 -337 -546 -337q-202 0 -332 100q-6 6 -16 6q-8 0 -17 -6zM690 856q-68 -11 -99 -96.5t-32 -270.5q-1 -168 26.5 -245.5t86.5 -77.5q2 0 7.5 1t8.5 1q70 10 100.5 95t32.5 272
q1 170 -25.5 246.5t-86.5 76.5q-3 0 -9.5 -1t-9.5 -1zM1292 545l185 78q74 32 53 106q-11 47 -41 77t-72 30q-21 0 -45 -9q-58 -20 -84.5 -91t-17.5 -179q0 -14 12 -14q6 0 10 2z" />
    <glyph glyph-name="Scaron" unicode="&#x160;" horiz-adv-x="1243" 
d="M205 915q17 110 66.5 196t115.5 138t151 85.5t166 46t168 12.5q72 0 140.5 -7.5t143.5 -26.5t128 -58.5t68 -96.5q17 -62 -8.5 -127t-79 -106t-111.5 -41q-33 0 -61 14q-38 19 -71.5 48t-55.5 55.5t-46 50.5t-55.5 38.5t-72.5 14.5q-75 0 -120 -32.5t-53 -80.5
q-6 -35 15 -63.5t61 -49t93 -39.5t112 -39t118 -43t110.5 -56t89.5 -74.5t56 -102.5t9 -135q-13 -110 -66.5 -194.5t-123 -132.5t-159 -78.5t-164 -40.5t-148.5 -10q-487 0 -543 202q-28 102 40 178t163 76q33 0 63 -12q39 -15 76 -43t65 -55t58 -52.5t69.5 -41t85.5 -15.5
q66 0 103.5 24.5t42.5 65.5q4 28 -18 52t-62 43t-92 38.5t-109.5 41.5t-114 48t-105.5 62.5t-84.5 80.5t-50.5 106t-3 136zM848 1759q7 0 23.5 8.5t39.5 23.5t40.5 27t39.5 27.5t23 16.5q7 4 29 19t31 20.5t26.5 14t32 12t30.5 3.5q3 0 9.5 -1t9.5 -1q54 -6 65 -42.5
t-28 -76.5l-152 -161q-31 -32 -42.5 -43.5t-45.5 -42t-57 -44t-56 -26.5t-63 -12q-48 -1 -92.5 29.5t-63 55t-50.5 73.5q-5 7 -7 10l-103 161q-26 40 -3 76.5t77 42.5q3 0 9.5 1t9.5 1q16 0 30.5 -3.5t29 -12t22 -14t24.5 -20t23 -19.5q9 -8 57 -47.5t57 -47.5q8 -8 25 -8z
" />
    <glyph glyph-name="scaron" unicode="&#x161;" horiz-adv-x="1052" 
d="M172 688q12 79 54.5 142t100.5 102t132 65t145 36.5t144 10.5q61 0 115 -7.5t112 -26t98.5 -58t52.5 -96.5q18 -85 -32.5 -148t-124.5 -63q-48 0 -90 33q-39 33 -72 81.5t-56.5 72.5t-62.5 24q-46 0 -74 -26.5t-34 -71.5q-6 -35 20 -62t71.5 -46.5t101.5 -38t111.5 -42.5
t100.5 -54.5t70 -80t18 -112.5q-9 -83 -49.5 -146t-95.5 -99.5t-128.5 -59t-139 -30t-138.5 -7.5q-82 0 -147.5 8t-130 28.5t-108 62.5t-60.5 103q-23 83 21 134t114 51q67 0 115 -45q25 -24 57 -59.5t48.5 -52t42 -29.5t56.5 -13q49 0 79 25.5t36 68.5q4 26 -23 47t-72 37
t-100 33t-108.5 42.5t-95.5 58.5t-63.5 86.5t-10.5 121.5zM776 1419q12 8 71.5 47t72.5 47q9 6 28.5 19.5t30.5 20t27 15t31.5 12t31.5 3.5q3 0 9 -1t9 -1q52 -6 63.5 -42.5t-26.5 -76.5l-153 -162q-83 -86 -129 -118q-72 -50 -135 -49q-30 -1 -59.5 11.5t-49 27t-43 43.5
t-33 42t-28.5 43l-101 162q-26 40 -3.5 76.5t77.5 42.5q3 0 9 1t9 1q19 0 38.5 -7.5t29 -14t32 -25t29.5 -23.5q8 -8 56.5 -47t56.5 -47q11 -8 25 -8q13 0 24 8z" />
    <glyph glyph-name="Ydieresis" unicode="&#x178;" horiz-adv-x="1417" 
d="M936 811l223 309q15 18 9 37t-19.5 30.5t-24.5 35.5t-6 53q5 36 31.5 59t69.5 32.5t75 12t76 2.5h19h18q28 0 47 -1t48.5 -4t49 -10.5t37.5 -19t25.5 -31.5t3.5 -46q-6 -40 -34.5 -66.5t-66 -50t-53.5 -47.5l-436 -608l-39 -246q-3 -19 10 -36.5t30.5 -30t30 -36
t7.5 -53.5q-6 -44 -35.5 -66t-81.5 -30q-112 -16 -213 -16q-99 0 -221 16q-98 13 -88 96q5 30 25 53.5t42 36t41.5 30t22.5 36.5l23 143l-291 711q-10 25 -37 49t-43 49.5t-10 65.5q7 48 50 75t97 27h162q31 0 59 -6t49.5 -15t42 -24.5t34.5 -28t28 -33.5t22 -34t17.5 -34.5
t12.5 -30t9 -27.5l7 -19l112 -309q3 -12 15 -12q9 0 18 12zM614 1679q9 64 58.5 103t120.5 39q72 0 110 -39t29 -103q-10 -64 -60 -102.5t-122 -38.5q-71 0 -108.5 38.5t-27.5 102.5zM991 1679q9 64 58 103t120 39q72 0 110.5 -39t29.5 -103q-10 -64 -60.5 -102.5
t-122.5 -38.5q-71 0 -108 38.5t-27 102.5z" />
    <glyph glyph-name="Zcaron" unicode="&#x17d;" horiz-adv-x="1257" 
d="M686 287h2q69 0 131 22.5t101 49t92.5 49t107.5 22.5q82 0 125 -51.5t29 -149.5q-36 -229 -361 -229h-684q-101 0 -149.5 31.5t-40.5 81.5q3 25 27 53.5t53.5 52t68.5 59.5t64 70l534 713q8 11 5 17.5t-15 6.5h-59q-57 0 -100.5 -14.5t-70.5 -35.5t-53 -42.5t-62.5 -36
t-84.5 -14.5q-79 0 -114.5 50.5t-20.5 150.5q11 66 43.5 112t82.5 71t106.5 35.5t127.5 10.5h660q100 0 148 -31t40 -81q-4 -32 -38.5 -67t-88 -81.5t-84.5 -87.5l-532 -713q-8 -11 -5 -17.5t15 -6.5zM879 1767q13 8 72 47.5t71 47.5q8 5 28.5 19t30.5 20t26.5 14.5t32 12
t31.5 3.5q3 0 9.5 -1t9.5 -1q52 -6 63.5 -42.5t-26.5 -76.5l-154 -161q-82 -85 -125 -116q-75 -53 -139 -52q-30 -1 -59.5 12t-48.5 27t-43.5 43.5t-33 42.5t-28.5 43l-100 161q-27 40 -4.5 76.5t77.5 42.5q3 0 9.5 1t9.5 1q19 0 38.5 -7.5t28.5 -13t33 -25t29 -23.5
q8 -8 56 -47.5t56 -47.5q11 -8 25 -8t25 8z" />
    <glyph glyph-name="zcaron" unicode="&#x17e;" horiz-adv-x="1073" 
d="M625 178h12q43 0 79.5 15t63 36t51.5 42t55.5 36t63.5 15q63 0 101.5 -39.5t27.5 -110.5q-25 -172 -268 -172h-635q-75 0 -111 23.5t-30 60.5q4 31 69.5 88t88.5 88q60 79 202.5 269.5t214.5 285.5q10 13 6.5 22t-18.5 9h-53q-42 0 -73.5 -15t-50.5 -36t-36.5 -42
t-44 -36t-61.5 -15q-61 0 -94 39t-21 111q11 65 51 105t92.5 53.5t124.5 13.5h615q75 0 111.5 -23.5t31.5 -60.5q-4 -24 -30.5 -50t-66.5 -60.5t-63 -65.5q-154 -207 -418 -555q-9 -13 -5.5 -22t18.5 -9zM786 1419q13 8 72 47t72 47q9 6 28.5 19.5t30.5 20t27 15t31.5 12
t31.5 3.5q3 0 9.5 -1t9.5 -1q52 -6 63.5 -42.5t-26.5 -76.5l-154 -162q-83 -86 -129 -118q-72 -50 -135 -49q-30 -1 -59.5 11.5t-49 27t-43 43.5t-33 42t-28.5 43l-101 162q-26 40 -3.5 76.5t77.5 42.5q3 0 9.5 1t9.5 1q19 0 38.5 -7.5t29 -14t32 -25t29.5 -23.5
q8 -8 56 -47t56 -47q11 -8 25 -8q13 0 24 8z" />
    <glyph glyph-name="florin" unicode="&#x192;" horiz-adv-x="1189" 
d="M698 817l-118 -618q-27 -140 -71.5 -244.5t-92.5 -162t-107.5 -92t-107 -44.5t-101.5 -10q-162 0 -245 95q-56 65 -47 133q6 45 40 65q19 12 48 12q24 0 71 -16.5t68 -16.5q38 0 66.5 42.5t50.5 152.5l133 678q3 18 -17 18q-18 -2 -59 -2q-51 -1 -62 55t21 110
q32 52 82 52q21 0 57 -4q9 -1 16 4t9 14l26 136q17 87 71.5 155t120 105.5t141.5 62t129 32t91 7.5q52 0 80 -0.5t75 -3.5t75 -10t61.5 -19t55.5 -31.5t36 -46.5q28 -49 20.5 -97.5t-36 -86.5t-80.5 -62t-113 -24q-49 0 -78.5 22t-39 53t-15.5 62.5t-19 54t-38 23.5
q-24 0 -43 -9t-30.5 -22t-20.5 -35t-13.5 -38.5t-9.5 -42.5l-39 -205q-3 -17 13 -17h4q122 23 184 23q54 0 70.5 -54.5t-14.5 -106.5q-33 -56 -97 -56q-22 0 -41 1.5t-41 5t-30.5 5t-35 8t-28.5 7.5q-22 0 -25 -17z" />
    <glyph glyph-name="circumflex" unicode="&#x2c6;" horiz-adv-x="935" 
d="M692 1307q-6 6 -14 6q-10 0 -19 -6q-7 -4 -72 -48t-81 -53q-5 -3 -28.5 -19t-32 -20.5t-26.5 -14t-32.5 -12.5t-30.5 -3q-3 0 -9 1t-9 1q-53 6 -64 42t27 76l154 162q35 36 55 55t59 50.5t77 47t75 15.5q30 0 59.5 -13t48 -26.5t43 -43.5t32.5 -42t28 -43l100 -162
q26 -40 3.5 -76t-77.5 -42q-3 0 -9 -1t-9 -1q-16 0 -30.5 3.5t-29 12t-22 14t-24.5 20t-23 19.5q-65 58 -119 101z" />
    <glyph glyph-name="caron" unicode="&#x2c7;" horiz-adv-x="935" 
d="M694 1411q19 0 166 102q7 5 28.5 19.5t31.5 20t27 14.5t32 12.5t31 3.5q3 0 9 -1t9 -1q54 -6 65 -42.5t-28 -76.5l-152 -162q-36 -37 -55 -55t-58.5 -50.5t-76.5 -47.5t-74 -14q-31 -1 -61 12t-48 26t-43.5 44.5t-32 41t-28.5 43.5l-102 162q-26 40 -3 76.5t77 42.5
q3 0 9 1t9 1q16 0 30.5 -3.5t28.5 -12t22.5 -15t24.5 -20.5t23 -19q9 -8 57.5 -47t57.5 -47q8 -8 24 -8z" />
    <glyph glyph-name="breve" unicode="&#x2d8;" horiz-adv-x="864" 
d="M616 1161q-142 0 -223.5 76t-83.5 197q0 26 19.5 43.5t48.5 17.5h108q35 0 74 -57q30 -45 94 -45q62 0 107 45q32 32 52 44.5t40 12.5h111q29 0 42.5 -17.5t4.5 -43.5q-39 -120 -145 -196.5t-249 -76.5z" />
    <glyph glyph-name="dotaccent" unicode="&#x2d9;" horiz-adv-x="591" 
d="M293 1331q13 86 80.5 138.5t163.5 52.5q97 0 147.5 -52.5t36.5 -138.5q-13 -86 -81 -138t-165 -52q-95 0 -145 52t-37 138z" />
    <glyph glyph-name="ring" unicode="&#x2da;" horiz-adv-x="696" 
d="M297 1356q17 110 108 188t201 78t175 -78t48 -188t-108 -188t-201 -78t-175 78t-48 188zM481 1356q-6 -34 15 -58t55 -24q33 0 59.5 24t32.5 58q5 34 -14.5 57t-53.5 23t-62 -23.5t-32 -56.5z" />
    <glyph glyph-name="ogonek" unicode="&#x2db;" horiz-adv-x="565" 
d="M410 -258q30 -9 26 -41l-14 -94q-3 -15 -14.5 -25t-26.5 -12q-20 -2 -57 -2q-141 0 -217.5 51.5t-61.5 149.5q13 80 92 149t172 102h178q-150 -96 -165 -188q-9 -65 88 -90z" />
    <glyph glyph-name="tilde" unicode="&#x2dc;" horiz-adv-x="811" 
d="M428 1217q-33 -29 -66 -29q-31 0 -51 25t-22 65q-5 97 100 178q96 70 158 70q34 0 64 -19t57 -38t53 -19q41 0 92 43q33 29 66 29q31 0 51 -25t22 -63q5 -102 -100 -181q-89 -67 -154 -67q-34 0 -64.5 19t-58 38t-53.5 19q-41 0 -94 -45z" />
    <glyph glyph-name="hungarumlaut" unicode="&#x2dd;" horiz-adv-x="991" 
d="M760 1124q-115 0 -55 129l88 197q14 30 20.5 42t22 38t30 38.5t36.5 29t50.5 25t63.5 11.5h16q52 0 86 -27t34 -73t-42 -94l-180 -213q-32 -37 -49 -54t-49.5 -33t-71.5 -16zM346 1124q-115 0 -55 129l88 197q14 30 20.5 42t22 38t30 38.5t36.5 29t50.5 25t63.5 11.5h16
q52 0 86 -27t34 -73t-42 -94l-180 -213q-32 -37 -49 -54t-49.5 -33t-71.5 -16z" />
    <glyph glyph-name="endash" unicode="&#x2013;" horiz-adv-x="1181" 
d="M283 776h862q56 0 81 -40t13 -109q-11 -71 -48.5 -112.5t-92.5 -41.5h-862q-55 0 -81.5 41.5t-15.5 110.5t50 110t94 41z" />
    <glyph glyph-name="emdash" unicode="&#x2014;" horiz-adv-x="2281" 
d="M283 776h1962q56 0 81 -40t13 -109q-11 -71 -48.5 -112.5t-92.5 -41.5h-1962q-55 0 -81.5 41.5t-15.5 110.5t50 110t94 41z" />
    <glyph glyph-name="quoteleft" unicode="&#x2018;" horiz-adv-x="548" 
d="M639 1104q2 -52 -50 -106.5t-134 -57.5h-13q-89 0 -142.5 49.5t-37.5 149.5q21 133 107.5 222t212.5 126q47 12 73 12q37 0 45 -17t-14 -36q-3 -3 -28.5 -26t-43.5 -41t-37 -46t-22 -51q-3 -22 4 -37t20 -25.5t26 -23t23 -36t11 -56.5z" />
    <glyph glyph-name="quoteright" unicode="&#x2019;" horiz-adv-x="548" 
d="M299 1354q-2 52 50 106.5t134 57.5h13q89 0 142.5 -49.5t37.5 -149.5q-21 -133 -107.5 -222t-212.5 -126q-50 -13 -73 -13q-37 0 -45 17.5t14 36.5q3 3 28.5 26t43.5 41t37 46t22 51q3 22 -4 37t-20 25.5t-26 23t-23 36t-11 56.5z" />
    <glyph glyph-name="quotesinglbase" unicode="&#x201a;" horiz-adv-x="548" 
d="M104 125q-2 51 50.5 106t134.5 58h12q89 0 142.5 -49.5t37.5 -149.5q-21 -133 -107 -222t-212 -126q-46 -12 -74 -12q-37 0 -45 17t14 36q3 3 28.5 26t43.5 41t37 46t22 51q3 22 -4 37t-20 25.5t-26 23t-23 36t-11 56.5z" />
    <glyph glyph-name="quotedblleft" unicode="&#x201c;" horiz-adv-x="1001" 
d="M895 940q-89 0 -142.5 49.5t-37.5 149.5q21 133 107 222t212 126q46 12 74 12q37 0 45 -17t-14 -36q-3 -3 -28.5 -26t-43.5 -41t-37 -46t-22 -51q-3 -22 4 -37t20 -25.5t26 -23t23 -36t11 -56.5q2 -51 -50.5 -106t-134.5 -58h-12zM442 940q-89 0 -142.5 49.5t-37.5 149.5
q21 133 107.5 222t212.5 126q47 12 73 12q37 0 45 -17t-14 -36q-3 -3 -28.5 -26t-43.5 -41t-37 -46t-22 -51q-3 -22 4 -37t20 -25.5t26 -23t23 -36t11 -56.5q2 -52 -50 -106.5t-134 -57.5h-13z" />
    <glyph glyph-name="quotedblright" unicode="&#x201d;" horiz-adv-x="1001" 
d="M735 958q-37 0 -44.5 17.5t14.5 36.5q3 3 28.5 26t43.5 41t37 46t22 51q3 22 -4 37t-20 25.5t-26 23t-23 36t-11 56.5q-2 52 50 106.5t134 57.5h12q89 0 142.5 -49.5t37.5 -149.5q-21 -133 -107 -222t-212 -126q-50 -13 -74 -13zM283 958q-37 0 -45 17.5t14 36.5
q3 3 28.5 26t43.5 41t37 46t22 51q3 22 -4 37t-20 25.5t-26 23t-23 36t-11 56.5q-2 52 50 106.5t134 57.5h13q89 0 142.5 -49.5t37.5 -149.5q-21 -133 -107.5 -222t-212.5 -126q-50 -13 -73 -13z" />
    <glyph glyph-name="quotedblbase" unicode="&#x201e;" horiz-adv-x="1001" 
d="M541 -272q-37 0 -45 17t14 36q3 3 28.5 26t43.5 41t37 46t22 51q3 22 -4 37t-20 25.5t-26 23t-23 36t-11 56.5q-2 52 50 106.5t134 57.5h13q87 0 141.5 -49.5t38.5 -149.5q-22 -134 -108.5 -222.5t-211.5 -125.5q-46 -12 -73 -12zM88 -272q-37 0 -45 17t14 36
q3 3 28.5 26t43.5 41t37 46t22 51q3 22 -4 37t-20 25.5t-26 23t-23 36t-11 56.5q-2 51 50.5 106t134.5 58h12q87 0 141.5 -49.5t38.5 -149.5q-22 -134 -108 -222.5t-211 -125.5q-46 -12 -74 -12z" />
    <glyph glyph-name="dagger" unicode="&#x2020;" horiz-adv-x="774" 
d="M260 762q-55 0 -81 35.5t-17 95.5t46.5 95.5t92.5 35.5h49q15 0 26.5 10t14.5 25l53 334q6 41 36 66.5t71 25.5h143q41 0 62.5 -25.5t15.5 -66.5l-53 -334q-3 -15 5.5 -25t23.5 -10h49q55 0 81 -34.5t17 -94.5q-9 -62 -46.5 -97.5t-92.5 -35.5h-49q-15 0 -26.5 -10
t-14.5 -25l-158 -993q-6 -43 -36 -69.5t-71 -26.5h-143q-41 0 -62.5 26.5t-15.5 69.5l158 993q3 15 -5.5 25t-23.5 10h-49z" />
    <glyph glyph-name="daggerdbl" unicode="&#x2021;" horiz-adv-x="897" 
d="M233 213q-55 0 -81 35.5t-15 95.5q9 60 46.5 95.5t92.5 35.5h50q15 0 26.5 10t12.5 25l34 217q3 15 -5 25t-23 10h-49q-55 0 -81.5 35.5t-17.5 95.5t46.5 95.5t92.5 35.5h50q15 0 26.5 10t14.5 25l53 334q6 41 35.5 66.5t70.5 25.5h144q41 0 62.5 -25.5t15.5 -66.5
l-54 -334q-3 -15 5.5 -25t23.5 -10h49q55 0 81 -34.5t17 -94.5q-9 -62 -46.5 -97.5t-92.5 -35.5h-49q-15 0 -26.5 -10t-14.5 -25l-35 -217q-2 -15 7 -25t24 -10h49q55 0 81 -34.5t17 -94.5q-11 -62 -48.5 -97.5t-92.5 -35.5h-49q-15 0 -26.5 -10t-12.5 -25l-72 -444
q-6 -43 -35.5 -69.5t-70.5 -26.5h-144q-41 0 -62 26.5t-15 69.5l71 444q2 15 -6.5 25t-23.5 10h-50z" />
    <glyph glyph-name="bullet" unicode="&#x2022;" horiz-adv-x="753" 
d="M168 666q0 133 81.5 215t213.5 82t213.5 -82t81.5 -215q0 -132 -81.5 -213.5t-213.5 -81.5t-213.5 81.5t-81.5 213.5z" />
    <glyph glyph-name="ellipsis" unicode="&#x2026;" horiz-adv-x="1972" 
d="M147 152q12 84 78.5 137t159.5 53q90 0 138 -52.5t36 -137.5q-13 -86 -78.5 -139.5t-156.5 -53.5q-92 0 -141 53.5t-36 139.5zM805 152q12 84 78 137t159 53q91 0 139 -52.5t36 -137.5q-13 -86 -79 -139.5t-157 -53.5q-92 0 -141 53.5t-35 139.5zM1462 152
q12 84 78.5 137t159.5 53q90 0 138 -52.5t36 -137.5q-13 -86 -79 -139.5t-157 -53.5q-92 0 -141 53.5t-35 139.5z" />
    <glyph glyph-name="perthousand" unicode="&#x2030;" horiz-adv-x="3276" 
d="M1776 1274l-799 -1155q-29 -42 -51.5 -65t-59.5 -38.5t-88 -15.5q-33 0 -61 14.5t-38 41t15 63.5l799 1155q41 62 83 90.5t116 28.5q54 0 86 -34t-2 -85zM242 1010q30 189 173.5 286t360.5 97t328.5 -97t81.5 -286q-30 -188 -171 -279.5t-360 -91.5q-143 0 -240.5 37.5
t-145 122t-27.5 211.5zM618 1012q-18 -132 -2.5 -192t60.5 -60q43 0 78.5 62.5t54.5 189.5q20 132 5 196t-58 64q-44 0 -80.5 -66t-57.5 -194zM1288 365q30 189 174 286t361 97t328 -97t81 -286q-30 -188 -169.5 -279.5t-358.5 -91.5q-143 0 -241.5 37.5t-146.5 122.5
t-28 211zM1665 367q-18 -132 -3 -192t60 -60q43 0 78.5 62.5t54.5 189.5q20 132 5 196t-58 64q-44 0 -80 -65.5t-57 -194.5zM2308 365q30 189 174 286t361 97t328 -97t81 -286q-30 -188 -169.5 -279.5t-358.5 -91.5q-143 0 -241.5 37.5t-146.5 122.5t-28 211zM2685 367
q-18 -132 -3 -192t60 -60q43 0 78.5 62.5t54.5 189.5q20 132 5 196t-58 64q-44 0 -80 -65.5t-57 -194.5z" />
    <glyph glyph-name="guilsinglleft" unicode="&#x2039;" horiz-adv-x="774" 
d="M793 754l-218 -133q-28 -18 -6 -37l176 -133q44 -34 42 -93t-48 -110q-57 -66 -121 -66q-38 0 -83 31l-355 268q-27 20 -38 52.5t-5 68.5q5 36 27 68.5t55 52.5l440 268q51 31 93 31q65 0 100 -66q31 -51 14.5 -109.5t-73.5 -92.5z" />
    <glyph glyph-name="guilsinglright" unicode="&#x203a;" horiz-adv-x="774" 
d="M395 621l-176 133q-44 34 -42 92.5t48 109.5q60 66 121 66q42 0 84 -31l354 -268q55 -40 45 -121q-6 -36 -28.5 -68.5t-55.5 -52.5l-440 -268q-51 -31 -92 -31q-62 0 -100 66q-31 51 -14.5 110.5t73.5 92.5l217 133q28 18 6 37z" />
    <glyph glyph-name="fraction" unicode="&#x2044;" horiz-adv-x="956" 
d="M1149 1264l-797 -1155q-24 -35 -37.5 -51t-38.5 -35t-59 -26t-84 -7q-34 0 -66.5 14.5t-47.5 41t10 63.5l796 1155q41 59 92 88.5t127 29.5q34 0 66.5 -14t48 -40.5t-9.5 -63.5z" />
    <glyph glyph-name="Euro" unicode="&#x20ac;" horiz-adv-x="1619" 
d="M240 438q-54 0 -77.5 23.5t-17.5 66.5q6 42 37.5 66t85.5 24h35q17 0 21 21q8 60 16 92q0 21 -16 21h-25q-54 0 -77 23.5t-17 66.5q6 42 37.5 66t85.5 24h57q21 0 31 20q105 216 297.5 328.5t416.5 112.5q95 0 172 -11t150.5 -38t130.5 -78t94 -125q51 -106 32.5 -185.5
t-78.5 -125.5t-134 -46q-71 0 -128.5 45t-82.5 134q-56 202 -223 202q-5 0 -14.5 -1t-14.5 -1q-66 -6 -116 -61.5t-76 -149.5q-3 -9 1 -14.5t13 -5.5h199q55 0 78.5 -23t15.5 -65q-13 -92 -123 -92h-192q-9 0 -15.5 -6t-5.5 -15q-3 -43 4 -94q3 -19 25 -19h258q54 0 77 -23
t17 -65q-13 -92 -123 -92h-166q-9 0 -11.5 -5t3.5 -11q77 -111 217 -111q173 0 359 168q38 35 73 35q30 0 40.5 -27t-5.5 -71q-55 -143 -162 -244t-234.5 -147t-266.5 -45q-103 1 -198 29.5t-175 82t-137 138t-78 190.5q-3 18 -23 18h-67z" />
    <glyph glyph-name="trademark" unicode="&#x2122;" horiz-adv-x="2334" 
d="M1081 520q-61 7 -53 60q3 24 21.5 40.5t36.5 29t20 26.5l137 500q8 29 -20 65t-23 66q11 65 103 65h333q38 0 62.5 -40t30.5 -115l18 -199q0 -19 6 -19q5 0 14 21l78 197q65 155 142 155h333q47 0 67 -17.5t15 -47.5q-4 -25 -25.5 -46.5t-40 -41t-18.5 -43.5l-22 -500
q-1 -14 13 -27t26.5 -29t9.5 -40q-8 -54 -74 -60q-57 -8 -153 -8q-93 0 -156 8q-20 4 -32.5 19t-8.5 45q5 30 36 56.5t32 43.5l18 322q3 20 -2 20q-6 0 -12 -18l-154 -363q-26 -60 -59 -90.5t-84 -34.5h-39q-49 4 -73 34.5t-30 90.5l-38 356q0 19 -7 19q-4 0 -10 -21
l-82 -315q-4 -15 6.5 -28t21.5 -30.5t7 -41.5q-8 -56 -61 -64q-63 -8 -160 -8q-93 0 -150 8zM319 1087q-29 0 -43.5 24t-7.5 71l13 73q8 50 46.5 83.5t98.5 33.5h623q59 0 87.5 -33.5t20.5 -83.5l-12 -73q-7 -47 -29.5 -71t-50.5 -24q-31 0 -62.5 33t-58.5 33h-67
q-20 0 -23 -20l-74 -457q-2 -15 26.5 -40.5t24.5 -55.5q-8 -50 -73 -60q-68 -10 -146 -10q-84 0 -166 10q-61 10 -53 60q3 19 15.5 33.5t26 22t25.5 18.5t13 22l74 457q1 9 -4.5 14.5t-14.5 5.5h-67q-28 0 -69.5 -33t-72.5 -33z" />
    <glyph glyph-name="minus" unicode="&#x2212;" horiz-adv-x="835" 
d="M246 776h516q55 0 87 -40t32 -109q0 -71 -32 -112.5t-87 -41.5h-516q-55 0 -87 41.5t-32 110.5t32 110t87 41z" />
    <glyph glyph-name="uni0000.1" horiz-adv-x="0" 
 />
    <glyph glyph-name="uni000D.1" horiz-adv-x="512" 
 />
    <glyph glyph-name="uni0000.1.1" horiz-adv-x="0" 
 />
    <glyph glyph-name="uni000D.1.1" horiz-adv-x="0" 
 />
    </font>
</defs>
</svg>
