<?xml version="1.0" standalone="no"?>
<!DOCTYPE svg PUBLIC "-//W3C//DTD SVG 1.1//EN" "http://www.w3.org/Graphics/SVG/1.1/DTD/svg11.dtd" >
<svg xmlns="http://www.w3.org/2000/svg" xmlns:xlink="http://www.w3.org/1999/xlink" version="1.1">
<metadata>
Created by FontForge 20170731 at Tue Jul 18 23:50:10 2023
 By Aleksey,,,
Copyright (c) 2016 Monotype Imaging Inc. All rights reserved.
</metadata>
<defs>
<font id="NeueKabel-BlackItalic" horiz-adv-x="1228" >
  <font-face 
    font-family="Neue Kabel Black"
    font-weight="900"
    font-style="italic"
    font-stretch="normal"
    units-per-em="2048"
    panose-1="2 12 10 2 2 2 3 9 3 3"
    ascent="1565"
    descent="-483"
    x-height="963"
    cap-height="1434"
    bbox="-1268 -530 2480 2013"
    underline-thickness="102"
    underline-position="-358"
    slope="-11"
    unicode-range="U+000D-FEFF"
  />
<missing-glyph horiz-adv-x="1392" 
d="M1479 1454l-283 -1454h-1188l283 1454h1188zM1020 1227h-383l135 -299zM465 1071l-129 -674l282 340zM868 717l154 -334l129 674zM467 227h383l-135 299z" />
    <glyph glyph-name="ff" unicode="ff" horiz-adv-x="1556" 
d="M1657 1464h55l-67 -352h-27q-156 0 -182 -145v-4h180l-64 -322h-180l-125 -641h-416l125 641h-352l-125 -641h-416l125 641h-118l61 322h119l4 18q48 245 201 364t434 119h55l-67 -352h-27q-156 0 -182 -145v-4h350l4 18q48 245 201 364t434 119z" />
    <glyph glyph-name="fi" unicode="fi" horiz-adv-x="1368" 
d="M889 1464h55l-67 -352h-27q-156 0 -182 -145v-4h180l-64 -322h-180l-125 -641h-416l125 641h-118l61 322h119l4 18q48 245 201 364t434 119zM770 0l182 942l424 41l-190 -983h-416zM985 1249q0 100 76 172t182 72q96 0 158.5 -59t62.5 -152q0 -100 -76 -172t-182 -72
q-96 0 -158.5 59t-62.5 152z" />
    <glyph glyph-name="fl" unicode="fl" horiz-adv-x="1386" 
d="M889 1464h55l-67 -352h-27q-156 0 -182 -145v-4h180l-64 -322h-180l-125 -641h-416l125 641h-118l61 322h119l4 18q48 245 201 364t434 119zM788 0l279 1434l424 41l-287 -1475h-416z" />
    <glyph glyph-name="ffi" unicode="ffi" horiz-adv-x="2150" 
d="M1657 1464h55l-67 -352h-27q-156 0 -182 -145v-4h180l-64 -322h-180l-125 -641h-416l125 641h-352l-125 -641h-416l125 641h-118l61 322h119l4 18q48 245 201 364t434 119h55l-67 -352h-27q-156 0 -182 -145v-4h350l4 18q48 245 201 364t434 119zM1552 0l183 942l424 41
l-191 -983h-416zM1767 1249q0 100 76 172t182 72q96 0 159 -59t63 -152q0 -100 -76 -172t-182 -72q-96 0 -159 59t-63 152z" />
    <glyph glyph-name="ffl" unicode="ffl" horiz-adv-x="2168" 
d="M1657 1464h55l-67 -352h-27q-156 0 -182 -145v-4h180l-64 -322h-180l-125 -641h-416l125 641h-352l-125 -641h-416l125 641h-118l61 322h119l4 18q48 245 201 364t434 119h55l-67 -352h-27q-156 0 -182 -145v-4h350l4 18q48 245 201 364t434 119zM1571 0l278 1434l424 41
l-286 -1475h-416z" />
    <glyph glyph-name="T_T.liga" unicode="TT" horiz-adv-x="2088" 
d="M2204 1434l-19 -398h-336l-200 -1036h-426l200 1036h-536l-201 -1036h-426l201 1036h-340l133 398h1950z" />
    <glyph glyph-name="t_t.liga" unicode="tt" horiz-adv-x="1611" 
d="M1366 641l-39 -197q-2 -6 -2 -28q0 -38 25 -60t69 -22q55 0 111 16l-66 -334q-95 -30 -217 -30q-167 0 -260.5 83t-93.5 228q0 33 10 98l47 246h-366l-39 -197q-2 -6 -2 -28q0 -38 25 -60t69 -22q55 0 111 16l-66 -334q-95 -30 -217 -30q-167 0 -260.5 83t-93.5 228
q0 33 10 98l47 246h-111l64 322h110l33 172l447 161l-66 -333h369l33 172l446 161l-66 -333h222l-64 -322h-219z" />
    <glyph glyph-name=".notdef" horiz-adv-x="1392" 
d="M1479 1454l-283 -1454h-1188l283 1454h1188zM1020 1227h-383l135 -299zM465 1071l-129 -674l282 340zM868 717l154 -334l129 674zM467 227h383l-135 299z" />
    <glyph glyph-name=".null" horiz-adv-x="0" 
 />
    <glyph glyph-name="nonmarkingreturn" horiz-adv-x="682" 
 />
    <glyph glyph-name="NULL" horiz-adv-x="0" 
 />
    <glyph glyph-name="NULL" horiz-adv-x="0" 
 />
    <glyph glyph-name="CR" unicode="&#xd;" horiz-adv-x="368" 
 />
    <glyph glyph-name="space" unicode=" " horiz-adv-x="368" 
 />
    <glyph glyph-name="exclam" unicode="!" horiz-adv-x="657" 
d="M162 502l49 461l92 471h426l-92 -471l-127 -461h-348zM29 188q0 101 78.5 175.5t185.5 74.5q100 0 163.5 -61t63.5 -156q0 -101 -78.5 -175.5t-185.5 -74.5q-100 0 -163.5 61t-63.5 156z" />
    <glyph glyph-name="quotedbl" unicode="&#x22;" horiz-adv-x="1067" 
d="M133 743l135 691h369l-127 -656zM666 743l135 691h368l-127 -656z" />
    <glyph glyph-name="numbersign" unicode="#" horiz-adv-x="1515" 
d="M1479 842h-195l-76 -207h135l-63 -328h-193l-114 -307h-357l115 307h-166l-114 -307h-357l115 307h-135l63 328h193l76 207h-134l64 327h190l99 265h356l-98 -265h166l98 265h356l-98 -265h137zM852 635l76 207h-166l-76 -207h166z" />
    <glyph glyph-name="dollar" unicode="$" horiz-adv-x="1140" 
d="M580 1020q0 -64 100 -111l82 -39q158 -73 230.5 -171.5t72.5 -239.5q0 -181 -107.5 -310.5t-289.5 -166.5l-29 -146h-389l33 168q-161 50 -285 143l115 351q101 -77 212.5 -122.5t194.5 -45.5q56 0 86.5 23.5t30.5 62.5q0 33 -28 61t-101 64l-84 41q-256 126 -256 397
q0 173 108 301t287 168l29 149h389l-31 -161q120 -35 242 -103l-115 -354q-97 60 -200.5 94.5t-174.5 34.5q-57 0 -89.5 -23.5t-32.5 -64.5z" />
    <glyph glyph-name="percent" unicode="%" horiz-adv-x="1730" 
d="M295 -29l-131 138l1362 1353l131 -137zM950 303q0 117 46 221.5t132 171t193 66.5q128 0 202 -89t74 -231q0 -118 -44.5 -222t-129 -170t-190.5 -66q-130 0 -206.5 88.5t-76.5 230.5zM1370 442q0 111 -65 111q-38 0 -68 -44.5t-43.5 -100.5t-13.5 -105q0 -110 65 -110
q38 0 68 44.5t43.5 100t13.5 104.5zM223 989q0 117 46 221.5t132 171t193 66.5q128 0 202 -89t74 -231q0 -118 -44.5 -222t-129 -170t-190.5 -66q-130 0 -206.5 88.5t-76.5 230.5zM643 1128q0 111 -65 111q-38 0 -68 -44.5t-43.5 -100.5t-13.5 -105q0 -110 65 -110
q38 0 68 44.5t43.5 100t13.5 104.5z" />
    <glyph glyph-name="ampersand" unicode="&#x26;" horiz-adv-x="1376" 
d="M1174 336l126 -143l-247 -226l-129 146q-215 -142 -437 -142q-204 0 -330 116.5t-126 293.5q0 274 315 420q-67 119 -67 233q0 116 66 214.5t178.5 156t244.5 57.5q185 0 308.5 -107t123.5 -268q0 -248 -342 -393l94 -106q75 87 125 178l312 -119q-94 -172 -215 -311z
M641 1051q0 -68 37 -129q160 63 160 155q0 37 -26 62.5t-64 25.5q-44 0 -75.5 -33.5t-31.5 -80.5zM700 367l-174 198q-104 -64 -104 -141q0 -47 33 -78t84 -31q70 0 161 52z" />
    <glyph glyph-name="quotesingle" unicode="'" horiz-adv-x="534" 
d="M133 743l135 691h369l-127 -656z" />
    <glyph glyph-name="parenleft" unicode="(" horiz-adv-x="806" 
d="M92 496q-2 232 88 452t251 390.5t368 269.5l162 -285q-234 -111 -381.5 -335t-147.5 -492q0 -178 65 -330.5t187 -261.5l-217 -254q-179 156 -277 375.5t-98 470.5z" />
    <glyph glyph-name="parenright" unicode=")" horiz-adv-x="806" 
d="M772 762q2 -232 -88 -452t-250.5 -390.5t-367.5 -269.5l-162 284q234 111 381 335.5t147 492.5q0 178 -65 330.5t-187 261.5l217 254q179 -156 277 -375.5t98 -470.5z" />
    <glyph glyph-name="asterisk" unicode="*" horiz-adv-x="927" 
d="M993 1139l-215 -41l150 -162l-230 -166l-106 195l-107 -195l-229 166l150 162l-216 41l86 268l201 -94l-26 221h282l-26 -221l200 94z" />
    <glyph glyph-name="plus" unicode="+" horiz-adv-x="1236" 
d="M1227 850l-68 -348h-354l-72 -373h-368l71 373h-350l68 348h352l72 373h368l-72 -373h353z" />
    <glyph glyph-name="comma" unicode="," horiz-adv-x="684" 
d="M-156 -324l320 727h424l-383 -692z" />
    <glyph glyph-name="hyphen" unicode="-" horiz-adv-x="757" 
d="M23 334l65 336h655l-65 -336h-655z" />
    <glyph glyph-name="period" unicode="." horiz-adv-x="657" 
d="M29 188q0 101 78.5 175.5t185.5 74.5q100 0 163.5 -61t63.5 -156q0 -101 -78.5 -175.5t-185.5 -74.5q-100 0 -163.5 61t-63.5 156z" />
    <glyph glyph-name="slash" unicode="/" horiz-adv-x="999" 
d="M-135 -317l936 1884h399l-936 -1884h-399z" />
    <glyph glyph-name="zero" unicode="0" horiz-adv-x="1349" 
d="M102 588q-2 144 34 279t102.5 243t155 189t197.5 123.5t224 39.5q238 0 381 -167.5t143 -448.5q3 -179 -52 -342.5t-148.5 -281t-222.5 -186t-269 -65.5q-249 0 -397 168t-148 449zM920 836q0 107 -36.5 171t-103.5 64q-66 4 -126.5 -71t-94.5 -186t-33 -216
q0 -107 36.5 -171.5t103.5 -64.5q66 -4 126.5 71.5t94.5 186.5t33 216z" />
    <glyph glyph-name="one" unicode="1" horiz-adv-x="823" 
d="M174 1214l733 261l-286 -1475h-426l170 877l-211 -64z" />
    <glyph glyph-name="two" unicode="2" horiz-adv-x="1255" 
d="M942 465l-94 -82h295l-123 -383h-1065l668 647q20 20 48.5 48t46.5 46t30 31q90 93 90 170q0 56 -39.5 94.5t-100.5 38.5q-68 0 -113.5 -47t-45.5 -125q0 -51 22 -112l-393 -41q-25 89 -25 161q-4 147 79 276.5t221 204.5t290 72q219 0 367.5 -142t148.5 -349
q-2 -79 -21.5 -143.5t-61 -126t-92.5 -114.5t-132 -124z" />
    <glyph glyph-name="three" unicode="3" horiz-adv-x="1144" 
d="M1092 518q3 -150 -82.5 -278t-235.5 -202t-328 -71q-248 0 -460 150l180 329q150 -108 299 -108q91 0 146 44t55 114q0 68 -52 107.5t-155 39.5q-85 0 -189 -22l250 444h-366l118 369h938l-395 -533q124 -37 200.5 -141.5t76.5 -241.5z" />
    <glyph glyph-name="four" unicode="4" horiz-adv-x="1251" 
d="M1260 1434l-170 -873h114l-67 -350h-115l-41 -211h-389l41 211h-664l54 276l698 947h539zM508 561h194l76 389z" />
    <glyph glyph-name="five" unicode="5" horiz-adv-x="1165" 
d="M1133 1065h-504l-37 -133q44 6 84 6q191 0 311.5 -123t120.5 -313q2 -110 -46 -209t-132.5 -171t-204.5 -113.5t-256 -39.5q-127 0 -253.5 36.5t-227.5 100.5l118 351q216 -125 367 -125q92 0 152.5 44.5t60.5 110.5q0 63 -51.5 99.5t-147.5 36.5q-122 0 -346 -54
l197 865h915z" />
    <glyph glyph-name="six" unicode="6" horiz-adv-x="1204" 
d="M1161 526q3 -153 -76 -283.5t-215 -204.5t-295 -71q-226 0 -372 148t-146 381q-1 107 31 216.5t103.5 222t175.5 212t258 188t342 148.5l176 -340q-289 -73 -471 -189q40 7 71 7q182 0 300 -124.5t118 -310.5zM762 510q0 63 -41.5 104t-104.5 41q-65 0 -115 -49t-50 -117
q0 -63 41 -104t104 -41q66 0 116 49t50 117z" />
    <glyph glyph-name="seven" unicode="7" horiz-adv-x="1138" 
d="M252 1434h1071l-760 -1434h-479l561 1028h-528z" />
    <glyph glyph-name="eight" unicode="8" horiz-adv-x="1169" 
d="M1112 424q0 -124 -76.5 -229t-209 -166.5t-289.5 -61.5q-221 0 -367.5 113t-146.5 285q0 122 73.5 225.5t202.5 165.5q-125 106 -125 266q0 121 72.5 223t199 161.5t277.5 59.5q211 0 351 -109t140 -276q0 -116 -66 -214t-183 -160q147 -115 147 -283zM557 999
q0 -51 34 -83.5t85 -32.5q56 0 97.5 38t41.5 93q0 49 -35 81.5t-86 32.5q-54 0 -95.5 -38t-41.5 -91zM715 453q0 54 -37 89.5t-94 35.5q-58 0 -103 -41.5t-45 -100.5q0 -54 36.5 -89.5t92.5 -35.5q61 0 105.5 41.5t44.5 100.5z" />
    <glyph glyph-name="nine" unicode="9" horiz-adv-x="1204" 
d="M1239 938q1 -107 -31 -216.5t-103 -222t-175 -212t-258 -188t-342 -148.5l-176 340q291 73 471 188q-35 -6 -72 -6q-182 0 -300 124t-118 310q-3 153 76 283.5t215 204.5t295 71q226 0 372 -147.5t146 -380.5zM680 778q66 0 116 49t50 117q0 63 -41.5 104.5t-104.5 41.5
q-65 0 -115 -49t-50 -117q0 -63 41 -104.5t104 -41.5z" />
    <glyph glyph-name="colon" unicode=":" horiz-adv-x="657" 
d="M29 188q0 101 78.5 175.5t185.5 74.5q100 0 163.5 -61t63.5 -156q0 -101 -78.5 -175.5t-185.5 -74.5q-100 0 -163.5 61t-63.5 156zM137 741q0 101 78.5 175.5t185.5 74.5q100 0 164 -61t64 -156q0 -101 -78.5 -175.5t-185.5 -74.5q-100 0 -164 61t-64 156z" />
    <glyph glyph-name="semicolon" unicode=";" horiz-adv-x="724" 
d="M205 741q0 101 78.5 175.5t185.5 74.5q100 0 163.5 -61t63.5 -156q0 -101 -78.5 -175.5t-185.5 -74.5q-100 0 -163.5 61t-63.5 156zM-156 -324l320 727h424l-383 -692z" />
    <glyph glyph-name="less" unicode="&#x3c;" horiz-adv-x="1034" 
d="M1081 1153l-65 -336l-463 -162l399 -161l-63 -336l-815 387l43 221z" />
    <glyph glyph-name="equal" unicode="=" horiz-adv-x="1142" 
d="M131 735l59 303h979l-59 -303h-979zM41 272l59 303h979l-59 -303h-979z" />
    <glyph glyph-name="greater" unicode="&#x3e;" horiz-adv-x="1034" 
d="M213 1153l815 -387l-43 -221l-965 -387l66 336l463 161l-399 162z" />
    <glyph glyph-name="question" unicode="?" horiz-adv-x="1032" 
d="M328 502l10 73q11 62 29.5 107.5t51.5 83t63 62t85 61.5q73 48 102 80t29 78q0 37 -22.5 60t-57.5 23q-47 0 -78.5 -42t-25.5 -121h-350q-4 114 33.5 208.5t105.5 156t157 95t189 33.5q187 0 303.5 -107t116.5 -272q-3 -66 -18.5 -116.5t-49.5 -92.5t-68 -71.5t-95 -73.5
q-75 -55 -109.5 -91.5t-44.5 -78.5l-12 -55h-344zM201 188q0 101 78.5 175.5t185.5 74.5q100 0 163.5 -61t63.5 -156q0 -101 -78.5 -175.5t-185.5 -74.5q-100 0 -163.5 61t-63.5 156z" />
    <glyph glyph-name="at" unicode="@" horiz-adv-x="1779" 
d="M1339 952l-69 -346q-6 -37 -6 -65q0 -61 27 -93t75 -32q69 0 115.5 64.5t46.5 166.5q3 142 -73.5 267t-210.5 199t-290 71q-99 2 -197.5 -30t-181 -92t-146 -139t-98 -179t-32.5 -205q0 -159 75 -288.5t206 -203.5t292 -74q247 0 512 168l33 -235q-129 -72 -273.5 -111
t-281.5 -39q-162 -3 -308 56.5t-250.5 163t-164.5 247.5t-57 303q-4 175 70.5 340t198 282.5t286.5 187t330 65.5q159 2 304.5 -57t250 -160t165 -239t58.5 -288q0 -102 -32 -188t-85 -142t-122 -87t-144 -31q-85 0 -145.5 41t-90.5 117q-44 -77 -115 -120.5t-161 -43.5
q-140 0 -240 103t-100 257q0 109 49 204t136 151.5t190 56.5q140 0 215 -109l12 64zM1059 606q0 60 -38.5 99.5t-98.5 39.5q-70 0 -120 -50.5t-50 -121.5q0 -60 38.5 -99.5t98.5 -39.5q70 0 120 50.5t50 121.5z" />
    <glyph glyph-name="A" unicode="A" horiz-adv-x="1480" 
d="M942 0l-20 238h-424l-109 -238h-473l764 1434h506l190 -1434h-434zM659 598h234l-37 434z" />
    <glyph glyph-name="B" unicode="B" 
d="M1174 432q0 -118 -74 -217.5t-202 -157t-280 -57.5h-614l281 1434h551q192 0 308 -97.5t116 -259.5q0 -109 -71.5 -200t-195.5 -146q181 -102 181 -299zM705 1118h-64l-47 -244h74q71 0 119.5 40t48.5 98q0 48 -35.5 77t-95.5 29zM739 453q0 54 -37 84t-100 30h-65
l-50 -252h84q71 0 119.5 40.5t48.5 97.5z" />
    <glyph glyph-name="C" unicode="C" horiz-adv-x="1241" 
d="M86 651q-4 160 60.5 311.5t175 263t267 178t326.5 62.5q221 0 400 -92l-129 -399q-147 80 -285 80q-163 0 -270 -108t-107 -263q0 -132 82.5 -217.5t222.5 -85.5q117 0 277 68v-424q-165 -58 -332 -58q-153 0 -282.5 53t-218 144.5t-138 217.5t-49.5 269z" />
    <glyph glyph-name="D" unicode="D" horiz-adv-x="1388" 
d="M1399 809q4 -223 -110.5 -410.5t-315 -295t-438.5 -103.5h-531l279 1434h454q302 0 482 -170t180 -455zM965 774q0 121 -73 191.5t-198 70.5h-61l-127 -639h67q167 0 279.5 107.5t112.5 269.5z" />
    <glyph glyph-name="E" unicode="E" horiz-adv-x="1093" 
d="M1133 1063h-500l-31 -154h402l-72 -370h-402l-32 -168h518l-123 -371h-889l279 1434h868z" />
    <glyph glyph-name="F" unicode="F" horiz-adv-x="1038" 
d="M1108 1051h-473l-33 -168h383l-74 -383h-383l-96 -500h-428l279 1434h843z" />
    <glyph glyph-name="G" unicode="G" horiz-adv-x="1423" 
d="M854 891h561l-155 -799q-232 -125 -469 -125q-151 -2 -284 51t-225 145.5t-144.5 220.5t-51.5 271q-3 158 62 307.5t176 261t269 178.5t331 64q112 0 233 -26t219 -72l-125 -393q-73 42 -163 65t-170 23q-176 0 -288 -111.5t-112 -271.5q0 -138 85 -221.5t220 -83.5
q46 0 121 16l31 150h-234z" />
    <glyph glyph-name="H" unicode="H" horiz-adv-x="1470" 
d="M1128 1434h428l-278 -1434h-428l102 524h-417l-103 -524h-428l279 1434h428l-97 -500h418z" />
    <glyph glyph-name="I" unicode="I" horiz-adv-x="645" 
d="M721 1434l-279 -1434h-428l279 1434h428z" />
    <glyph glyph-name="J" unicode="J" horiz-adv-x="966" 
d="M-25 61l72 369q101 -55 203 -55q96 0 151.5 53t75.5 160l164 846h428l-180 -934q-49 -256 -204 -391.5t-382 -135.5q-188 0 -328 88z" />
    <glyph glyph-name="K" unicode="K" horiz-adv-x="1343" 
d="M1503 1434l-555 -721l301 -713h-465l-233 608l-119 -608h-428l279 1434h428l-113 -578l410 578h495z" />
    <glyph glyph-name="L" unicode="L" horiz-adv-x="1009" 
d="M512 410h467l-133 -410h-842l279 1434h428z" />
    <glyph glyph-name="M" unicode="M" horiz-adv-x="1839" 
d="M1413 1434h406l-131 -1434h-428l65 657l-500 -657l-237 678l-197 -678h-428l414 1434h387l201 -629z" />
    <glyph glyph-name="N" unicode="N" horiz-adv-x="1529" 
d="M1194 1434h422l-279 -1434h-399l-369 739l-143 -739h-422l279 1434h399l371 -736z" />
    <glyph glyph-name="O" unicode="O" horiz-adv-x="1603" 
d="M86 653q-3 163 62.5 314.5t176.5 261.5t265.5 175t320.5 62q147 2 278 -50t224 -143.5t146 -220t51 -272.5q3 -163 -62.5 -314.5t-177 -261.5t-266 -175t-320.5 -62q-196 -3 -357.5 86.5t-252.5 248t-88 351.5zM1176 750q0 134 -83.5 221.5t-213.5 87.5q-147 0 -253 -111
t-106 -264q0 -134 83.5 -221.5t213.5 -87.5q147 0 253 111t106 264z" />
    <glyph glyph-name="P" unicode="P" horiz-adv-x="1234" 
d="M1284 963q2 -120 -49.5 -229.5t-141 -188.5t-214.5 -124.5t-263 -43.5h-110l-74 -377h-428l279 1434h471q239 0 384.5 -129.5t145.5 -341.5zM856 938q0 63 -43.5 101t-116.5 38h-55l-68 -344h76q86 0 146.5 60t60.5 145z" />
    <glyph glyph-name="Q" unicode="Q" horiz-adv-x="1630" 
d="M1618 117l-303 -252l-166 182q-174 -80 -365 -80q-196 -3 -357.5 86.5t-252.5 248t-88 351.5q-3 163 62.5 314.5t176.5 261.5t265.5 175t320.5 62q147 2 278 -50t224 -143.5t146 -220t51 -272.5q0 -272 -162 -489zM850 377l-119 131l283 231l133 -137q29 76 29 148
q0 134 -83.5 221.5t-213.5 87.5q-147 0 -253 -111t-106 -264q0 -134 83.5 -221.5t213.5 -87.5q27 0 33 2z" />
    <glyph glyph-name="R" unicode="R" horiz-adv-x="1273" 
d="M956 578l213 -578h-477l-155 537l-105 -537h-428l279 1434h491q225 0 363.5 -116t138.5 -302q0 -147 -86 -264t-234 -174zM645 1098l-61 -312h63q86 0 144.5 52t58.5 127q0 62 -41.5 97.5t-114.5 35.5h-49z" />
    <glyph glyph-name="S" unicode="S" horiz-adv-x="1140" 
d="M-2 147l115 351q101 -77 212.5 -122.5t194.5 -45.5q56 0 86.5 23.5t30.5 62.5q0 33 -28 61t-101 64l-84 41q-256 126 -256 397q0 213 156.5 350t400.5 137q228 0 467 -133l-115 -354q-97 60 -200.5 94.5t-174.5 34.5q-57 0 -89.5 -23.5t-32.5 -64.5q0 -64 100 -111
l82 -39q158 -73 230.5 -171.5t72.5 -239.5q0 -217 -150 -354.5t-389 -137.5q-142 0 -280 49t-248 131z" />
    <glyph glyph-name="T" unicode="T" horiz-adv-x="1126" 
d="M1241 1434l-18 -398h-336l-201 -1036h-426l201 1036h-340l133 398h987z" />
    <glyph glyph-name="U" unicode="U" horiz-adv-x="1396" 
d="M96 479q0 56 17 156l155 799h428l-164 -848q-6 -30 -6 -56q0 -72 40 -113.5t112 -41.5q186 0 233 237l160 822h428l-168 -867q-25 -126 -81 -232.5t-140 -188t-202.5 -127.5t-258.5 -46q-157 0 -280.5 56.5t-198 173t-74.5 276.5z" />
    <glyph glyph-name="V" unicode="V" horiz-adv-x="1480" 
d="M1169 1434h486l-764 -1434h-506l-190 1434h446l96 -879z" />
    <glyph glyph-name="W" unicode="W" horiz-adv-x="1957" 
d="M1661 1434h461l-600 -1434h-398l-127 575l-348 -575h-395l-49 1434h430l14 -750l494 774l223 -780z" />
    <glyph glyph-name="X" unicode="X" horiz-adv-x="1390" 
d="M1534 1434l-512 -713l264 -721h-457l-141 412l-278 -412h-494l545 743l-244 691h457l123 -377l243 377h494z" />
    <glyph glyph-name="Y" unicode="Y" horiz-adv-x="1314" 
d="M1493 1434l-623 -930l-98 -504h-428l96 498l-250 936h443l96 -457l268 457h496z" />
    <glyph glyph-name="Z" unicode="Z" horiz-adv-x="1232" 
d="M1391 1434l-697 -1047h465l-125 -387h-1102l695 1032h-461l131 402h1094z" />
    <glyph glyph-name="bracketleft" unicode="[" horiz-adv-x="786" 
d="M-57 -317l366 1884h647l-63 -320h-309l-242 -1245h309l-61 -319h-647z" />
    <glyph glyph-name="backslash" unicode="\" horiz-adv-x="1003" 
d="M467 -317l-246 1884h361l245 -1884h-360z" />
    <glyph glyph-name="bracketright" unicode="]" horiz-adv-x="786" 
d="M899 1567l-367 -1884h-647l64 319h309l242 1245h-310l62 320h647z" />
    <glyph glyph-name="asciicircum" unicode="^" horiz-adv-x="1056" 
d="M1090 807h-345l-81 342l-213 -342h-357l426 627h381z" />
    <glyph glyph-name="underscore" unicode="_" horiz-adv-x="921" 
d="M-176 -420l65 328h922l-66 -328h-921z" />
    <glyph glyph-name="grave" unicode="`" horiz-adv-x="819" 
d="M721 1065h-332l-207 389h457z" />
    <glyph glyph-name="a" unicode="a" horiz-adv-x="1062" 
d="M1018 672q0 -36 -10 -101l-80 -409l-21 -162h-340v63q-106 -98 -258 -98q-137 0 -225 84t-88 217q0 154 115 258.5t286 104.5q121 0 232 -51q2 6 2 28q0 60 -46 86.5t-151 26.5q-115 0 -258 -33l88 270q156 27 281 27q473 0 473 -311zM588 328q0 38 -27.5 63t-68.5 25
q-47 0 -78 -30t-31 -75q0 -38 27.5 -63t68.5 -25q47 0 78 30t31 75z" />
    <glyph glyph-name="b" unicode="b" horiz-adv-x="1191" 
d="M1153 528q0 -117 -46 -221t-125 -178.5t-191 -118t-240 -43.5q-220 0 -357 132.5t-137 340.5q0 54 13 121l168 873l424 41l-103 -527q85 43 178 43q174 0 295 -133.5t121 -329.5zM770 498q0 66 -41.5 108.5t-107.5 42.5q-75 0 -129 -54.5t-54 -129.5q0 -66 42 -109
t108 -43q75 0 128.5 55t53.5 130z" />
    <glyph glyph-name="c" unicode="c" horiz-adv-x="874" 
d="M39 438q-2 112 43.5 216t124 179.5t189 119.5t231.5 42q133 0 266 -47l-109 -332q-78 35 -149 35q-88 0 -145.5 -55t-57.5 -133q0 -68 47.5 -109t128.5 -41q58 0 137 27l7 -344q-110 -29 -209 -29q-219 0 -361.5 133.5t-142.5 337.5z" />
    <glyph glyph-name="d" unicode="d" horiz-adv-x="1222" 
d="M905 1434l424 41l-287 -1475h-360l16 82q-105 -111 -256 -111q-171 0 -287 133.5t-116 333.5q-3 147 70 276.5t194.5 204.5t255.5 72q154 0 242 -94zM754 498q0 66 -42 108.5t-108 42.5q-75 0 -128.5 -54.5t-53.5 -129.5q0 -66 41.5 -109t107.5 -43q75 0 129 55t54 130z
" />
    <glyph glyph-name="e" unicode="e" horiz-adv-x="1110" 
d="M903 375l68 -283q-215 -125 -434 -125q-218 0 -358 133t-140 338q-3 150 72.5 279.5t209 205t291.5 72.5q206 0 334 -130t131 -359l-637 -207q48 -39 123 -39q145 0 340 115zM377 522l344 113q-41 63 -135 63q-74 0 -132 -49t-77 -127z" />
    <glyph glyph-name="f" unicode="f" horiz-adv-x="774" 
d="M889 1464h55l-67 -352h-27q-156 0 -182 -145v-4h180l-64 -322h-180l-125 -641h-416l125 641h-118l61 322h119l4 18q48 245 201 364t434 119z" />
    <glyph glyph-name="g" unicode="g" horiz-adv-x="1146" 
d="M1090 532q0 -202 -148 -356q45 -77 45 -172q0 -126 -75 -233t-204.5 -169.5t-283.5 -62.5q-166 0 -288.5 59t-217.5 173l238 237q127 -145 286 -145q87 0 141 38t54 99q0 14 -2 20q-65 -10 -109 -10q-207 0 -344 126t-137 317q0 145 74 264t207 187.5t299 68.5h526
l-129 -211q68 -103 68 -230zM555 334q69 0 118.5 49.5t49.5 118.5q0 66 -40.5 106.5t-104.5 40.5q-68 0 -117 -49.5t-49 -118.5q0 -66 40 -106.5t103 -40.5z" />
    <glyph glyph-name="h" unicode="h" horiz-adv-x="1187" 
d="M1145 692q0 -50 -12 -112l-113 -580h-416l107 543q2 6 2 24q0 36 -22 57t-60 21q-45 0 -78 -29t-43 -79l-102 -537h-416l278 1434l424 41l-119 -615q112 127 279 127q136 0 213.5 -77.5t77.5 -217.5z" />
    <glyph glyph-name="i" unicode="i" horiz-adv-x="593" 
d="M-4 0l182 942l424 41l-190 -983h-416zM211 1249q0 100 76 172t182 72q96 0 158.5 -59t62.5 -152q0 -100 -76 -172t-182 -72q-96 0 -158.5 59t-62.5 152z" />
    <glyph glyph-name="j" unicode="j" horiz-adv-x="593" 
d="M-215 -446l65 348q69 5 104 33t48 98l176 909l424 41l-186 -963q-46 -241 -195 -352t-436 -114zM211 1249q0 100 76 172t182 72q96 0 158.5 -59t62.5 -152q0 -100 -76 -172t-182 -72q-96 0 -158.5 59t-62.5 152z" />
    <glyph glyph-name="k" unicode="k" horiz-adv-x="1183" 
d="M1253 963l-389 -484l215 -479h-442l-154 391l-75 -391h-416l278 1434l424 41l-170 -871l252 359h477z" />
    <glyph glyph-name="l" unicode="l" horiz-adv-x="591" 
d="M-6 0l278 1434l424 41l-286 -1475h-416z" />
    <glyph glyph-name="m" unicode="m" horiz-adv-x="1736" 
d="M1692 696q0 -51 -13 -118l-110 -578h-406l107 547q1 6 2 13.5t1.5 11.5t0.5 6q0 71 -64 71q-47 0 -81 -35.5t-46 -97.5l-100 -516h-405l106 547q4 32 4 35q0 67 -63 67q-45 0 -80 -35.5t-47 -97.5l-101 -516h-405l184 940l391 39l-20 -117q107 125 274 125
q169 0 236 -119q141 119 334 119q150 0 225.5 -76t75.5 -215z" />
    <glyph glyph-name="n" unicode="n" horiz-adv-x="1189" 
d="M1147 694q0 -52 -12 -114l-113 -580h-416l107 543q2 6 2 24q0 36 -22 57t-60 21q-45 0 -78 -29t-43 -79l-102 -537h-416l182 942l416 39l-25 -125q107 131 285 131q140 0 217.5 -76.5t77.5 -216.5z" />
    <glyph glyph-name="o" unicode="o" horiz-adv-x="1171" 
d="M39 438q-3 150 76 279.5t216.5 205t297.5 72.5q219 0 361.5 -133.5t142.5 -337.5q3 -150 -76 -279.5t-216.5 -205t-297.5 -72.5q-219 0 -361.5 133.5t-142.5 337.5zM752 498q0 66 -42 108.5t-108 42.5q-75 0 -128.5 -54.5t-53.5 -129.5q0 -66 41.5 -109t107.5 -43
q75 0 129 55t54 130z" />
    <glyph glyph-name="p" unicode="p" horiz-adv-x="1222" 
d="M1184 524q3 -147 -70 -276.5t-194.5 -204.5t-255.5 -72q-153 0 -242 95l-96 -496h-416l266 1372l369 35l-19 -92q100 106 254 106q171 0 287.5 -133.5t116.5 -333.5zM801 498q0 66 -42 108.5t-108 42.5q-75 0 -128.5 -54.5t-53.5 -129.5q0 -66 41.5 -109t107.5 -43
q75 0 129 55t54 130z" />
    <glyph glyph-name="q" unicode="q" horiz-adv-x="1220" 
d="M844 946l389 37l-275 -1413h-415l90 457q-83 -56 -191 -56q-171 0 -287 133.5t-116 333.5q-3 147 70 276.5t194.5 204.5t255.5 72q184 0 268 -129zM571 313q75 0 129 55t54 130q0 66 -42 108.5t-108 42.5q-75 0 -128.5 -54.5t-53.5 -129.5q0 -66 41.5 -109t107.5 -43z
" />
    <glyph glyph-name="r" unicode="r" horiz-adv-x="770" 
d="M858 985l-70 -356q-139 0 -207 -54.5t-96 -187.5l-75 -387h-416l182 942l399 39l-30 -160q48 87 120.5 125.5t192.5 38.5z" />
    <glyph glyph-name="s" unicode="s" horiz-adv-x="829" 
d="M-20 84l83 256q57 -43 121.5 -67.5t118.5 -24.5q62 0 62 41q0 19 -13 30.5t-55 32.5l-39 21q-80 42 -125 113.5t-45 162.5q0 147 113.5 246.5t290.5 99.5q84 0 176.5 -23t165.5 -65l-86 -260q-55 34 -125 56t-115 22q-28 0 -43.5 -12t-15.5 -31q0 -31 45 -51l38 -21
q107 -58 159 -132t52 -173q0 -149 -111 -243.5t-286 -94.5q-202 0 -366 117z" />
    <glyph glyph-name="t" unicode="t" horiz-adv-x="813" 
d="M584 641l-39 -197q-2 -6 -2 -28q0 -38 25 -60t69 -22q55 0 111 16l-66 -334q-95 -30 -217 -30q-167 0 -260.5 83t-93.5 228q0 33 10 98l47 246h-111l64 322h110l33 172l447 161l-66 -333h221l-63 -322h-219z" />
    <glyph glyph-name="u" unicode="u" horiz-adv-x="1181" 
d="M768 942l424 41l-191 -983h-407l20 104q-108 -129 -280 -129q-136 0 -213.5 76.5t-77.5 216.5q0 54 12 115l109 559l424 41l-109 -563q-2 -6 -2 -27q0 -35 20.5 -55.5t55.5 -20.5q44 0 76 29.5t39 79.5z" />
    <glyph glyph-name="v" unicode="v" horiz-adv-x="1105" 
d="M750 963h450l-536 -963h-410l-160 963h414l27 -488z" />
    <glyph glyph-name="w" unicode="w" horiz-adv-x="1613" 
d="M1253 963h445l-465 -963h-377l-51 440l-236 -440h-376l-89 963h404l10 -445l246 445h274l47 -416z" />
    <glyph glyph-name="x" unicode="x" horiz-adv-x="1144" 
d="M1214 963l-374 -496l200 -467h-428l-75 244l-154 -244h-467l389 508l-190 455h420l71 -236l150 236h458z" />
    <glyph glyph-name="y" unicode="y" horiz-adv-x="1105" 
d="M758 963h442l-774 -1393h-446l270 412l-156 981h420l25 -490z" />
    <glyph glyph-name="z" unicode="z" horiz-adv-x="987" 
d="M1055 963l-465 -629h315l-108 -334h-865l459 629h-321l108 334h877z" />
    <glyph glyph-name="braceleft" unicode="{" horiz-adv-x="737" 
d="M803 1567h94l-61 -318h-41q-72 0 -109 -38.5t-37 -110.5v-168q-3 -248 -254 -314q73 -31 114.5 -87t41.5 -130q0 -52 -23 -116l-63 -168q-12 -34 -12 -58q0 -59 82 -59h57l-62 -317h-77q-169 0 -265 78t-96 214q0 75 31 166l67 178q15 35 15 64q0 43 -39 64.5t-127 25.5
l59 307q119 5 172.5 45.5t53.5 126.5v189q6 207 128.5 316.5t350.5 109.5z" />
    <glyph glyph-name="bar" unicode="|" horiz-adv-x="567" 
d="M-55 -317l364 1884h369l-365 -1884h-368z" />
    <glyph glyph-name="braceright" unicode="}" horiz-adv-x="737" 
d="M588 866q0 -43 39 -64.5t127 -25.5l-60 -307q-119 -5 -172 -45.5t-53 -126.5v-188q-6 -207 -128.5 -316.5t-350.5 -109.5h-94l61 317h41q71 0 108 38.5t37 111.5v167q3 248 254 314q-73 31 -114 87t-41 130q0 56 22 117l64 168q12 35 12 57q0 31 -19.5 45t-62.5 14h-57
l61 318h78q169 0 264.5 -78.5t95.5 -214.5q0 -78 -30 -166l-68 -178q-14 -41 -14 -64z" />
    <glyph glyph-name="asciitilde" unicode="~" horiz-adv-x="1040" 
d="M504 535q-72 34 -113 34q-36 0 -60 -22.5t-32 -61.5h-246q26 163 118 252.5t237 89.5q52 0 90.5 -11t107.5 -40q75 -35 113 -35q36 0 60 22.5t32 61.5h246q-30 -164 -120.5 -253t-234.5 -89q-51 0 -89.5 11t-108.5 41z" />
    <glyph glyph-name="uni00A0" unicode="&#xa0;" horiz-adv-x="368" 
 />
    <glyph glyph-name="exclamdown" unicode="&#xa1;" horiz-adv-x="659" 
d="M653 897q0 -101 -78.5 -175.5t-185.5 -74.5q-100 0 -163.5 61t-63.5 156q0 101 78.5 175.5t185.5 74.5q100 0 163.5 -61t63.5 -156zM520 584l-49 -461l-92 -471h-426l92 471l127 461h348z" />
    <glyph glyph-name="cent" unicode="&#xa2;" horiz-adv-x="874" 
d="M432 463q0 -68 47.5 -109t128.5 -41q58 0 137 27l7 -344q-86 -24 -170 -29l-25 -131h-362l41 219q-93 63 -145 164t-52 219q0 179 102 320t273 200l28 152l369 35l-33 -164q44 -10 115 -33l-109 -332q-78 35 -149 35q-88 0 -145.5 -55t-57.5 -133z" />
    <glyph glyph-name="sterling" unicode="&#xa3;" horiz-adv-x="1282" 
d="M829 918h371l-119 -367h-323l-35 -180h451l-121 -371h-1022l71 371h205l35 180h-205l72 367h205l8 40q46 245 222.5 393t432.5 148q155 0 295 -51l-121 -375q-77 41 -180 41q-100 0 -162 -53t-80 -143z" />
    <glyph glyph-name="currency" unicode="&#xa4;" horiz-adv-x="1433" 
d="M1167 426l125 -147l-209 -177l-120 158q-107 -55 -234 -55q-151 0 -276 82l-174 -152l-170 211l180 146q-37 84 -37 192q0 179 108 322l-127 149l209 176l121 -157q113 55 234 55q151 0 276 -82l178 158l170 -211l-184 -148q39 -91 39 -196q0 -177 -109 -324zM748 471
q103 0 182.5 77.5t79.5 184.5q0 98 -66 164t-164 66q-103 0 -182.5 -78t-79.5 -185q0 -98 66 -163.5t164 -65.5z" />
    <glyph glyph-name="yen" unicode="&#xa5;" horiz-adv-x="1409" 
d="M1511 1434l-407 -582h219l-57 -295h-334l-14 -72h333l-53 -276h-334l-41 -209h-426l41 209h-334l54 276h334l14 72h-334l57 295h220l-183 582h424l98 -443l271 443h452z" />
    <glyph glyph-name="brokenbar" unicode="&#xa6;" horiz-adv-x="563" 
d="M150 737l159 830h365l-160 -830h-364zM-55 -317l164 849h364l-164 -849h-364z" />
    <glyph glyph-name="section" unicode="&#xa7;" horiz-adv-x="1071" 
d="M1042 743q0 -102 -46.5 -184.5t-133.5 -136.5q27 -56 27 -137q0 -166 -121 -271.5t-315 -105.5q-223 0 -404 129l92 280q67 -49 142.5 -77.5t138.5 -28.5q32 0 49.5 12t17.5 33q0 19 -15 32.5t-64 39.5l-103 53q-188 96 -188 305q0 99 47.5 181.5t134.5 133.5
q-33 62 -33 144q0 163 123.5 272t319.5 109q90 0 189.5 -23t176.5 -65l-96 -291q-61 35 -141.5 60.5t-130.5 25.5q-31 0 -47.5 -12.5t-16.5 -32.5q0 -19 12.5 -31t47.5 -31l106 -51q121 -59 176 -139.5t55 -192.5zM487 682l160 -76q62 21 62 74q0 47 -62 82l-145 74
q-66 -28 -66 -82q0 -49 51 -72z" />
    <glyph glyph-name="dieresis" unicode="&#xa8;" horiz-adv-x="819" 
d="M127 1235q0 80 62 138.5t147 58.5q77 0 128.5 -49.5t51.5 -122.5q0 -80 -62 -138.5t-147 -58.5q-77 0 -128.5 49.5t-51.5 122.5zM600 1235q0 80 62 138.5t147 58.5q77 0 128.5 -49.5t51.5 -122.5q0 -80 -62 -138.5t-147 -58.5q-77 0 -128.5 49.5t-51.5 122.5z" />
    <glyph glyph-name="copyright" unicode="&#xa9;" horiz-adv-x="1583" 
d="M88 668q-3 130 39.5 253.5t120 222t178 172.5t220.5 113t241 37q146 2 276.5 -52t224 -147.5t147.5 -224t52 -276.5q4 -162 -64 -312.5t-180 -257t-259 -169.5t-296 -60q-146 -2 -276.5 52t-224 147.5t-147.5 224.5t-52 277zM1391 754q0 144 -67.5 262.5t-186.5 186
t-263 67.5q-111 2 -219 -44t-190.5 -124.5t-132.5 -190t-47 -231.5q0 -220 147.5 -368t368.5 -148q111 -2 219.5 44t191 124.5t132.5 190t47 231.5zM455 682q0 186 133 310t330 124q106 0 194 -33l-74 -227q-64 27 -123 27q-83 0 -136.5 -52t-53.5 -129q0 -67 46 -107
t122 -40q42 0 104 16l4 -235q-78 -19 -153 -19q-170 0 -281.5 104t-111.5 261z" />
    <glyph glyph-name="ordfeminine" unicode="&#xaa;" horiz-adv-x="841" 
d="M903 1196q0 -47 -8 -78l-64 -323l-16 -129h-254v49q-85 -76 -203 -76q-107 0 -176 67.5t-69 170.5q0 121 90.5 203.5t224.5 82.5q93 0 184 -45q2 6 2 27q0 50 -35.5 72t-119.5 22q-83 0 -203 -27l68 205q108 21 217 21q362 0 362 -242zM580 926q0 32 -23.5 53.5
t-58.5 21.5q-41 0 -69 -27t-28 -65q0 -32 23.5 -53.5t60.5 -21.5q39 0 67 27t28 65z" />
    <glyph glyph-name="guillemotleft" unicode="&#xab;" horiz-adv-x="1230" 
d="M670 809l-269 -350l136 -336l-279 -125l-195 498l371 493zM1182 809l-269 -350l136 -336l-279 -125l-195 498l371 493z" />
    <glyph glyph-name="logicalnot" unicode="&#xac;" horiz-adv-x="1142" 
d="M182 999h979l-133 -682h-332l74 379h-647z" />
    <glyph glyph-name="uni00AD" unicode="&#xad;" horiz-adv-x="757" 
d="M23 334l65 336h655l-65 -336h-655z" />
    <glyph glyph-name="registered" unicode="&#xae;" horiz-adv-x="1583" 
d="M1587 766q4 -162 -64 -312.5t-180 -257t-259 -169.5t-296 -60q-146 -2 -276.5 52t-224 147.5t-147.5 224.5t-52 277q-3 130 39.5 253.5t120 222t178 172.5t220.5 113t241 37q146 2 276.5 -52t224 -147.5t147.5 -224t52 -276.5zM1391 754q0 144 -67.5 262.5t-186.5 186
t-263 67.5q-111 2 -219 -44t-190.5 -124.5t-132.5 -190t-47 -231.5q0 -220 147.5 -368t368.5 -148q111 -2 219.5 44t191 124.5t132.5 190t47 231.5zM1032 655l115 -307h-301l-76 287l-55 -287h-262l147 764h334q129 0 199.5 -59.5t70.5 -163.5q0 -77 -46 -139.5t-126 -94.5z
M942 850q0 32 -20.5 51t-57.5 19h-39l-30 -158h45q44 0 73 25t29 63z" />
    <glyph glyph-name="overscore" unicode="&#xaf;" horiz-adv-x="819" 
d="M190 1139l52 266h694l-51 -266h-695z" />
    <glyph glyph-name="degree" unicode="&#xb0;" horiz-adv-x="841" 
d="M197 1092q0 152 109.5 259t266.5 107q138 0 229 -88t91 -221q0 -152 -110 -259.5t-267 -107.5q-138 0 -228.5 88t-90.5 222zM698 1130q0 62 -41 103t-102 41q-63 0 -113.5 -48.5t-50.5 -115.5q0 -61 41 -102t103 -41q63 0 113 48t50 115z" />
    <glyph glyph-name="plusminus" unicode="&#xb1;" horiz-adv-x="1236" 
d="M913 1085h351l-68 -348h-348l-62 -311h-368l61 311h-348l68 348h346l61 312h369zM-12 0l67 348h1073l-67 -348h-1073z" />
    <glyph glyph-name="twosuperior" unicode="&#xb2;" horiz-adv-x="684" 
d="M643 1139l-47 -43h141l-67 -205h-543l354 369q90 95 90 137q0 23 -17 39t-42 16q-30 0 -50 -20t-20 -50q0 -32 21 -69l-217 -35q-25 55 -25 108q0 110 89.5 191.5t211.5 81.5q114 0 192.5 -73t78.5 -179q0 -70 -36.5 -133.5t-113.5 -134.5z" />
    <glyph glyph-name="threesuperior" unicode="&#xb3;" horiz-adv-x="612" 
d="M709 1157q0 -121 -97 -202t-237 -81q-129 0 -244 89l109 178q84 -66 145 -66q40 0 68 18.5t28 49.5q0 32 -27 51.5t-75 19.5q-34 0 -92 -6l137 234h-209l64 194h505l-196 -288q55 -24 88 -75t33 -116z" />
    <glyph glyph-name="acute" unicode="&#xb4;" horiz-adv-x="819" 
d="M307 1065l230 389h481l-354 -389h-357z" />
    <glyph glyph-name="mu" unicode="&#xb5;" horiz-adv-x="1193" 
d="M780 942l424 41l-190 -983h-408l8 43q-47 -47 -114 -47q-57 0 -84 41l-90 -467h-416l266 1372l424 41l-113 -584q-2 -6 -2 -26q0 -35 20.5 -55.5t57.5 -20.5q42 0 74 29.5t39 79.5z" />
    <glyph glyph-name="paragraph" unicode="&#xb6;" horiz-adv-x="1398" 
d="M399 -184l142 725q-183 6 -296.5 113.5t-113.5 283.5q0 211 163.5 353.5t410.5 142.5h780l-316 -1618h-323l258 1323h-123l-258 -1323h-324z" />
    <glyph glyph-name="middot" unicode="&#xb7;" horiz-adv-x="657" 
d="M104 575q0 101 79 175.5t186 74.5q100 0 163.5 -61t63.5 -156q0 -101 -78.5 -175.5t-185.5 -74.5q-100 0 -164 61t-64 156z" />
    <glyph glyph-name="cedilla" unicode="&#xb8;" horiz-adv-x="819" 
d="M184 -455l-293 174l304 332h299z" />
    <glyph glyph-name="onesuperior" unicode="&#xb9;" horiz-adv-x="466" 
d="M209 1499l414 166l-152 -774h-223l86 424l-129 -43z" />
    <glyph glyph-name="ordmasculine" unicode="&#xba;" horiz-adv-x="923" 
d="M143 1010q0 183 134.5 310.5t326.5 127.5q170 0 282.5 -106t112.5 -265q0 -181 -135 -308.5t-327 -127.5q-168 0 -281 106t-113 263zM713 1059q0 56 -36 92.5t-91 36.5q-65 0 -110.5 -46.5t-45.5 -111.5q0 -56 36 -92.5t91 -36.5q65 0 110.5 46.5t45.5 111.5z" />
    <glyph glyph-name="guillemotright" unicode="&#xbb;" horiz-adv-x="1230" 
d="M465 989l194 -497l-370 -494l-236 180l269 350l-136 336zM977 989l194 -497l-370 -494l-236 180l269 350l-136 336z" />
    <glyph glyph-name="onequarter" unicode="&#xbc;" horiz-adv-x="1599" 
d="M250 1294l414 166l-152 -774h-223l86 424l-129 -43zM197 -29l-131 138l1361 1353l132 -137zM1409 745l-90 -458h74l-39 -197h-72l-18 -90h-209l18 90h-325l36 189l375 466h250zM1022 287h90l33 157z" />
    <glyph glyph-name="onehalf" unicode="&#xbd;" horiz-adv-x="1693" 
d="M250 1294l414 166l-152 -774h-223l86 424l-129 -43zM1399 248l-47 -43h141l-68 -205h-542l354 369q90 95 90 137q0 23 -17 39t-42 16q-30 0 -50 -19.5t-20 -49.5q0 -32 21 -70l-218 -35q-24 52 -24 109q0 110 89.5 191t211.5 81q114 0 192 -73t78 -179q0 -70 -36 -133.5
t-113 -134.5zM221 -29l-131 138l1362 1353l131 -137z" />
    <glyph glyph-name="threequarters" unicode="&#xbe;" horiz-adv-x="1687" 
d="M752 952q0 -121 -96.5 -201.5t-237.5 -80.5q-131 0 -244 88l109 178q84 -66 145 -66q40 0 68 18.5t28 49.5q0 32 -27 52t-75 20q-34 0 -92 -6l137 233h-209l64 195h505l-196 -289q55 -24 88 -75t33 -116zM285 -29l-131 138l1362 1353l131 -137zM1497 745l-90 -458h74
l-39 -197h-72l-18 -90h-209l18 90h-325l36 189l375 466h250zM1110 287h90l33 157z" />
    <glyph glyph-name="questiondown" unicode="&#xbf;" horiz-adv-x="1030" 
d="M854 897q0 -101 -78.5 -175.5t-185.5 -74.5q-100 0 -164 61t-64 156q0 101 79 175.5t186 74.5q100 0 163.5 -61t63.5 -156zM727 584l-10 -74q-11 -62 -29.5 -107.5t-52 -82.5t-63 -61t-85.5 -62q-73 -48 -102 -80t-29 -78q0 -37 22.5 -60.5t57.5 -23.5q47 0 79 42.5
t26 121.5h350q6 -151 -61.5 -265.5t-178.5 -171.5t-245 -57q-187 0 -303.5 107t-116.5 272q3 66 18.5 116.5t49.5 92.5t68 71.5t95 73.5q75 55 109.5 91.5t44.5 78.5l12 56h344z" />
    <glyph glyph-name="Agrave" unicode="&#xc0;" horiz-adv-x="1480" 
d="M942 0l-20 238h-424l-109 -238h-473l764 1434h506l190 -1434h-434zM659 598h234l-37 434zM1153 1536h-354l-297 369h489z" />
    <glyph glyph-name="Aacute" unicode="&#xc1;" horiz-adv-x="1480" 
d="M942 0l-20 238h-424l-109 -238h-473l764 1434h506l190 -1434h-434zM659 598h234l-37 434zM756 1536l162 369h489l-297 -369h-354z" />
    <glyph glyph-name="Acircumflex" unicode="&#xc2;" horiz-adv-x="1480" 
d="M942 0l-20 238h-424l-109 -238h-473l764 1434h506l190 -1434h-434zM659 598h234l-37 434zM1397 1536h-301l-99 154l-159 -154h-326l309 369h410z" />
    <glyph glyph-name="Atilde" unicode="&#xc3;" horiz-adv-x="1480" 
d="M942 0l-20 238h-424l-109 -238h-473l764 1434h506l190 -1434h-434zM659 598h234l-37 434zM950 1597q-66 31 -110 31q-76 0 -92 -69h-224q28 164 116 246.5t212 82.5q10 0 19.5 -0.5t19.5 -2t16.5 -2t18.5 -3.5t17 -4.5t19.5 -6t19.5 -6t23.5 -8t24.5 -8.5q64 -30 111 -30
q76 0 92 69h223q-28 -165 -116 -247.5t-214 -82.5q-43 0 -77 8.5t-99 32.5z" />
    <glyph glyph-name="Adieresis" unicode="&#xc4;" horiz-adv-x="1480" 
d="M942 0l-20 238h-424l-109 -238h-473l764 1434h506l190 -1434h-434zM659 598h234l-37 434zM498 1700q0 91 68 155t163 64q86 0 142.5 -53.5t56.5 -136.5q0 -91 -68.5 -155.5t-163.5 -64.5q-86 0 -142 54t-56 137zM1051 1700q0 91 68 155t163 64q86 0 142.5 -53.5
t56.5 -136.5q0 -91 -68.5 -155.5t-163.5 -64.5q-86 0 -142 54t-56 137z" />
    <glyph glyph-name="Aring" unicode="&#xc5;" horiz-adv-x="1480" 
d="M942 0l-20 238h-424l-109 -238h-473l764 1434h506l190 -1434h-434zM659 598h234l-37 434zM735 1745q0 110 83 189t200 79q104 0 173 -64t69 -163q0 -111 -81.5 -189.5t-199.5 -78.5q-105 0 -174.5 64t-69.5 163zM1104 1774q0 41 -26.5 67.5t-67.5 26.5q-51 0 -85 -32
t-34 -79q0 -41 27.5 -67.5t68.5 -26.5q50 0 83.5 32t33.5 79z" />
    <glyph glyph-name="AE" unicode="&#xc6;" horiz-adv-x="1837" 
d="M1876 1063h-500l-30 -154h401l-72 -370h-401l-33 -168h518l-123 -371h-888l38 197h-321l-117 -197h-473l920 1434h1099zM676 557h180l88 453z" />
    <glyph glyph-name="Ccedilla" unicode="&#xc7;" horiz-adv-x="1241" 
d="M524 684q0 -132 82.5 -217.5t222.5 -85.5q117 0 277 68v-424q-162 -55 -307 -58l-260 -428l-308 182l271 293q-193 73 -304.5 245.5t-111.5 391.5q-4 160 60.5 311.5t175 263t267 178t326.5 62.5q221 0 400 -92l-129 -399q-147 80 -285 80q-163 0 -270 -108t-107 -263z
" />
    <glyph glyph-name="Egrave" unicode="&#xc8;" horiz-adv-x="1093" 
d="M1133 1063h-500l-31 -154h402l-72 -370h-402l-32 -168h518l-123 -371h-889l279 1434h868zM961 1536h-355l-297 369h490z" />
    <glyph glyph-name="Eacute" unicode="&#xc9;" horiz-adv-x="1093" 
d="M1133 1063h-500l-31 -154h402l-72 -370h-402l-32 -168h518l-123 -371h-889l279 1434h868zM563 1536l162 369h489l-296 -369h-355z" />
    <glyph glyph-name="Ecircumflex" unicode="&#xca;" horiz-adv-x="1093" 
d="M1133 1063h-500l-31 -154h402l-72 -370h-402l-32 -168h518l-123 -371h-889l279 1434h868zM1204 1536h-301l-98 154l-160 -154h-326l310 369h409z" />
    <glyph glyph-name="Edieresis" unicode="&#xcb;" horiz-adv-x="1093" 
d="M1133 1063h-500l-31 -154h402l-72 -370h-402l-32 -168h518l-123 -371h-889l279 1434h868zM305 1700q0 91 68.5 155t163.5 64q86 0 142 -53.5t56 -136.5q0 -92 -68.5 -156t-162.5 -64q-86 0 -142.5 54t-56.5 137zM858 1700q0 91 68.5 155t163.5 64q86 0 142 -53.5
t56 -136.5q0 -92 -68.5 -156t-162.5 -64q-86 0 -142.5 54t-56.5 137z" />
    <glyph glyph-name="Igrave" unicode="&#xcc;" horiz-adv-x="645" 
d="M721 1434l-279 -1434h-428l279 1434h428zM727 1536h-354l-297 369h489z" />
    <glyph glyph-name="Iacute" unicode="&#xcd;" horiz-adv-x="645" 
d="M721 1434l-279 -1434h-428l279 1434h428zM330 1536l162 369h489l-297 -369h-354z" />
    <glyph glyph-name="Icircumflex" unicode="&#xce;" horiz-adv-x="645" 
d="M721 1434l-279 -1434h-428l279 1434h428zM971 1536h-301l-99 154l-159 -154h-326l309 369h410z" />
    <glyph glyph-name="Idieresis" unicode="&#xcf;" horiz-adv-x="645" 
d="M721 1434l-279 -1434h-428l279 1434h428zM92 1700q0 91 68.5 155t163.5 64q86 0 142 -53.5t56 -136.5q0 -92 -68.5 -156t-162.5 -64q-86 0 -142.5 54t-56.5 137zM604 1700q0 91 68.5 155t163.5 64q86 0 142 -53.5t56 -136.5q0 -92 -68.5 -156t-162.5 -64q-86 0 -142.5 54
t-56.5 137z" />
    <glyph glyph-name="Eth" unicode="&#xd0;" horiz-adv-x="1388" 
d="M1399 809q4 -223 -110.5 -410.5t-315 -295t-438.5 -103.5h-531l109 563h-99l64 324h98l107 547h454q302 0 482 -170t180 -455zM965 774q0 121 -73 191.5t-198 70.5h-61l-31 -149h229l-63 -324h-229l-33 -166h67q167 0 279.5 107.5t112.5 269.5z" />
    <glyph glyph-name="Ntilde" unicode="&#xd1;" horiz-adv-x="1529" 
d="M1194 1434h422l-279 -1434h-399l-369 739l-143 -739h-422l279 1434h399l371 -736zM965 1597q-66 31 -111 31q-76 0 -92 -69h-223q28 164 115.5 246.5t211.5 82.5q10 0 19.5 -0.5t19.5 -2t16.5 -2t18.5 -3.5t17 -4.5t19.5 -6t19.5 -6t23.5 -8t24.5 -8.5q64 -30 111 -30
q76 0 92 69h223q-28 -165 -115.5 -247.5t-213.5 -82.5q-43 0 -77 8.5t-99 32.5z" />
    <glyph glyph-name="Ograve" unicode="&#xd2;" horiz-adv-x="1603" 
d="M86 653q-3 163 62.5 314.5t176.5 261.5t265.5 175t320.5 62q147 2 278 -50t224 -143.5t146 -220t51 -272.5q3 -163 -62.5 -314.5t-177 -261.5t-266 -175t-320.5 -62q-196 -3 -357.5 86.5t-252.5 248t-88 351.5zM1176 750q0 134 -83.5 221.5t-213.5 87.5q-147 0 -253 -111
t-106 -264q0 -134 83.5 -221.5t213.5 -87.5q147 0 253 111t106 264zM1206 1536h-354l-297 369h489z" />
    <glyph glyph-name="Oacute" unicode="&#xd3;" horiz-adv-x="1603" 
d="M86 653q-3 163 62.5 314.5t176.5 261.5t265.5 175t320.5 62q147 2 278 -50t224 -143.5t146 -220t51 -272.5q3 -163 -62.5 -314.5t-177 -261.5t-266 -175t-320.5 -62q-196 -3 -357.5 86.5t-252.5 248t-88 351.5zM1176 750q0 134 -83.5 221.5t-213.5 87.5q-147 0 -253 -111
t-106 -264q0 -134 83.5 -221.5t213.5 -87.5q147 0 253 111t106 264zM809 1536l162 369h489l-297 -369h-354z" />
    <glyph glyph-name="Ocircumflex" unicode="&#xd4;" horiz-adv-x="1603" 
d="M86 653q-3 163 62.5 314.5t176.5 261.5t265.5 175t320.5 62q147 2 278 -50t224 -143.5t146 -220t51 -272.5q3 -163 -62.5 -314.5t-177 -261.5t-266 -175t-320.5 -62q-196 -3 -357.5 86.5t-252.5 248t-88 351.5zM1176 750q0 134 -83.5 221.5t-213.5 87.5q-147 0 -253 -111
t-106 -264q0 -134 83.5 -221.5t213.5 -87.5q147 0 253 111t106 264zM1450 1536h-301l-98 154l-160 -154h-326l309 369h410z" />
    <glyph glyph-name="Otilde" unicode="&#xd5;" horiz-adv-x="1603" 
d="M86 653q-3 163 62.5 314.5t176.5 261.5t265.5 175t320.5 62q147 2 278 -50t224 -143.5t146 -220t51 -272.5q3 -163 -62.5 -314.5t-177 -261.5t-266 -175t-320.5 -62q-196 -3 -357.5 86.5t-252.5 248t-88 351.5zM1176 750q0 134 -83.5 221.5t-213.5 87.5q-147 0 -253 -111
t-106 -264q0 -134 83.5 -221.5t213.5 -87.5q147 0 253 111t106 264zM1004 1597q-66 31 -111 31q-76 0 -92 -69h-223q28 164 115.5 246.5t211.5 82.5q10 0 19.5 -0.5t19.5 -2t16.5 -2t18.5 -3.5t17 -4.5t19.5 -6t19.5 -6t23.5 -8t24.5 -8.5q64 -30 111 -30q76 0 92 69h223
q-28 -165 -115.5 -247.5t-213.5 -82.5q-43 0 -77 8.5t-99 32.5z" />
    <glyph glyph-name="Odieresis" unicode="&#xd6;" horiz-adv-x="1603" 
d="M86 653q-3 163 62.5 314.5t176.5 261.5t265.5 175t320.5 62q147 2 278 -50t224 -143.5t146 -220t51 -272.5q3 -163 -62.5 -314.5t-177 -261.5t-266 -175t-320.5 -62q-196 -3 -357.5 86.5t-252.5 248t-88 351.5zM1176 750q0 134 -83.5 221.5t-213.5 87.5q-147 0 -253 -111
t-106 -264q0 -134 83.5 -221.5t213.5 -87.5q147 0 253 111t106 264zM551 1700q0 91 68 155t163 64q86 0 142.5 -53.5t56.5 -136.5q0 -92 -68.5 -156t-162.5 -64q-86 0 -142.5 54t-56.5 137zM1104 1700q0 91 68 155t163 64q86 0 142.5 -53.5t56.5 -136.5q0 -92 -68.5 -156
t-162.5 -64q-86 0 -142.5 54t-56.5 137z" />
    <glyph glyph-name="multiply" unicode="&#xd7;" 
d="M1260 971l-379 -318l237 -293l-252 -213l-237 295l-377 -315l-207 256l377 315l-236 293l252 213l238 -293l377 316z" />
    <glyph glyph-name="Oslash" unicode="&#xd8;" horiz-adv-x="1603" 
d="M1653 1300l-150 -139q107 -172 107 -381q3 -163 -62.5 -314.5t-177 -261.5t-266 -175t-320.5 -62q-247 0 -426 131l-149 -139l-162 174l148 137q-109 160 -109 383q-3 163 62.5 314.5t176.5 261.5t265.5 175t320.5 62q243 0 428 -133l152 142zM535 586l477 444
q-66 29 -133 29q-147 0 -253 -111t-106 -264q0 -54 15 -98zM1163 846l-477 -443q64 -28 131 -28q147 0 253 111t106 264q0 46 -13 96z" />
    <glyph glyph-name="Ugrave" unicode="&#xd9;" horiz-adv-x="1396" 
d="M96 479q0 56 17 156l155 799h428l-164 -848q-6 -30 -6 -56q0 -72 40 -113.5t112 -41.5q186 0 233 237l160 822h428l-168 -867q-25 -126 -81 -232.5t-140 -188t-202.5 -127.5t-258.5 -46q-157 0 -280.5 56.5t-198 173t-74.5 276.5zM1106 1536h-354l-297 369h489z" />
    <glyph glyph-name="Uacute" unicode="&#xda;" horiz-adv-x="1396" 
d="M96 479q0 56 17 156l155 799h428l-164 -848q-6 -30 -6 -56q0 -72 40 -113.5t112 -41.5q186 0 233 237l160 822h428l-168 -867q-25 -126 -81 -232.5t-140 -188t-202.5 -127.5t-258.5 -46q-157 0 -280.5 56.5t-198 173t-74.5 276.5zM709 1536l161 369h490l-297 -369h-354z
" />
    <glyph glyph-name="Ucircumflex" unicode="&#xdb;" horiz-adv-x="1396" 
d="M96 479q0 56 17 156l155 799h428l-164 -848q-6 -30 -6 -56q0 -72 40 -113.5t112 -41.5q186 0 233 237l160 822h428l-168 -867q-25 -126 -81 -232.5t-140 -188t-202.5 -127.5t-258.5 -46q-157 0 -280.5 56.5t-198 173t-74.5 276.5zM1350 1536h-301l-99 154l-159 -154h-326
l309 369h410z" />
    <glyph glyph-name="Udieresis" unicode="&#xdc;" horiz-adv-x="1396" 
d="M96 479q0 56 17 156l155 799h428l-164 -848q-6 -30 -6 -56q0 -72 40 -113.5t112 -41.5q186 0 233 237l160 822h428l-168 -867q-25 -126 -81 -232.5t-140 -188t-202.5 -127.5t-258.5 -46q-157 0 -280.5 56.5t-198 173t-74.5 276.5zM451 1700q0 91 68 155t163 64
q86 0 142.5 -53.5t56.5 -136.5q0 -91 -68.5 -155.5t-163.5 -64.5q-86 0 -142 54t-56 137zM1004 1700q0 91 68 155t163 64q86 0 142.5 -53.5t56.5 -136.5q0 -91 -68.5 -155.5t-163.5 -64.5q-86 0 -142 54t-56 137z" />
    <glyph glyph-name="Yacute" unicode="&#xdd;" horiz-adv-x="1314" 
d="M1493 1434l-623 -930l-98 -504h-428l96 498l-250 936h443l96 -457l268 457h496zM645 1536l162 369h489l-297 -369h-354z" />
    <glyph glyph-name="Thorn" unicode="&#xde;" horiz-adv-x="1232" 
d="M1251 795q2 -120 -49.5 -229.5t-140.5 -188.5t-214 -124.5t-263 -43.5h-111l-41 -209h-428l279 1434h428l-33 -168h43q239 0 384.5 -129.5t145.5 -341.5zM823 770q0 63 -43 101t-116 38h-56l-65 -344h73q86 0 146.5 60t60.5 145z" />
    <glyph glyph-name="germandbls" unicode="&#xdf;" horiz-adv-x="1198" 
d="M1151 473q1 -54 -14 -109.5t-45 -111.5t-82 -104.5t-121 -86t-166.5 -58t-212.5 -19.5l65 342q88 0 135.5 46t47.5 105q0 51 -37.5 87t-91.5 36l55 283q77 0 121.5 42t44.5 99q0 55 -31 89t-84 34q-56 0 -96 -38.5t-53 -111.5l-193 -997h-401l196 1012q43 227 198 357
t388 130q195 0 324 -113t129 -286q0 -116 -58.5 -210t-164.5 -151q70 -45 108.5 -113.5t38.5 -152.5z" />
    <glyph glyph-name="agrave" unicode="&#xe0;" horiz-adv-x="1062" 
d="M1018 672q0 -36 -10 -101l-80 -409l-21 -162h-340v63q-106 -98 -258 -98q-137 0 -225 84t-88 217q0 154 115 258.5t286 104.5q121 0 232 -51q2 6 2 28q0 60 -46 86.5t-151 26.5q-115 0 -258 -33l88 270q156 27 281 27q473 0 473 -311zM588 328q0 38 -27.5 63t-68.5 25
q-47 0 -78 -30t-31 -75q0 -38 27.5 -63t68.5 -25q47 0 78 30t31 75zM840 1065h-332l-207 389h457z" />
    <glyph glyph-name="aacute" unicode="&#xe1;" horiz-adv-x="1062" 
d="M1018 672q0 -36 -10 -101l-80 -409l-21 -162h-340v63q-106 -98 -258 -98q-137 0 -225 84t-88 217q0 154 115 258.5t286 104.5q121 0 232 -51q2 6 2 28q0 60 -46 86.5t-151 26.5q-115 0 -258 -33l88 270q156 27 281 27q473 0 473 -311zM588 328q0 38 -27.5 63t-68.5 25
q-47 0 -78 -30t-31 -75q0 -38 27.5 -63t68.5 -25q47 0 78 30t31 75zM426 1065l229 389h482l-355 -389h-356z" />
    <glyph glyph-name="acircumflex" unicode="&#xe2;" horiz-adv-x="1062" 
d="M1018 672q0 -36 -10 -101l-80 -409l-21 -162h-340v63q-106 -98 -258 -98q-137 0 -225 84t-88 217q0 154 115 258.5t286 104.5q121 0 232 -51q2 6 2 28q0 60 -46 86.5t-151 26.5q-115 0 -258 -33l88 270q156 27 281 27q473 0 473 -311zM588 328q0 38 -27.5 63t-68.5 25
q-47 0 -78 -30t-31 -75q0 -38 27.5 -63t68.5 -25q47 0 78 30t31 75zM1079 1065h-301l-98 154l-160 -154h-325l333 389h369z" />
    <glyph glyph-name="atilde" unicode="&#xe3;" horiz-adv-x="1062" 
d="M1018 672q0 -36 -10 -101l-80 -409l-21 -162h-340v63q-106 -98 -258 -98q-137 0 -225 84t-88 217q0 154 115 258.5t286 104.5q121 0 232 -51q2 6 2 28q0 60 -46 86.5t-151 26.5q-115 0 -258 -33l88 270q156 27 281 27q473 0 473 -311zM588 328q0 38 -27.5 63t-68.5 25
q-47 0 -78 -30t-31 -75q0 -38 27.5 -63t68.5 -25q47 0 78 30t31 75zM641 1120q-63 31 -104 31q-70 0 -86 -70h-224q34 173 116.5 257.5t201.5 84.5q28 0 55.5 -5.5t48 -12t64.5 -23.5q73 -30 106 -30q70 0 86 69h223q-34 -173 -116.5 -257.5t-202.5 -84.5q-28 0 -55.5 5.5
t-48 12t-64.5 23.5z" />
    <glyph glyph-name="adieresis" unicode="&#xe4;" horiz-adv-x="1062" 
d="M1018 672q0 -36 -10 -101l-80 -409l-21 -162h-340v63q-106 -98 -258 -98q-137 0 -225 84t-88 217q0 154 115 258.5t286 104.5q121 0 232 -51q2 6 2 28q0 60 -46 86.5t-151 26.5q-115 0 -258 -33l88 270q156 27 281 27q473 0 473 -311zM588 328q0 38 -27.5 63t-68.5 25
q-47 0 -78 -30t-31 -75q0 -38 27.5 -63t68.5 -25q47 0 78 30t31 75zM246 1235q0 80 62 138.5t147 58.5q77 0 128.5 -49.5t51.5 -122.5q0 -80 -62 -138.5t-147 -58.5q-77 0 -128.5 49.5t-51.5 122.5zM719 1235q0 80 62 138.5t147 58.5q77 0 128.5 -49.5t51.5 -122.5
q0 -80 -62 -138.5t-147 -58.5q-77 0 -128.5 49.5t-51.5 122.5z" />
    <glyph glyph-name="aring" unicode="&#xe5;" horiz-adv-x="1062" 
d="M1018 672q0 -36 -10 -101l-80 -409l-21 -162h-340v63q-106 -98 -258 -98q-137 0 -225 84t-88 217q0 154 115 258.5t286 104.5q121 0 232 -51q2 6 2 28q0 60 -46 86.5t-151 26.5q-115 0 -258 -33l88 270q156 27 281 27q473 0 473 -311zM588 328q0 38 -27.5 63t-68.5 25
q-47 0 -78 -30t-31 -75q0 -38 27.5 -63t68.5 -25q47 0 78 30t31 75zM428 1264q0 112 80 189t194 77q103 0 170.5 -63.5t67.5 -161.5q0 -112 -80 -189.5t-194 -77.5q-103 0 -170.5 64t-67.5 162zM786 1292q0 41 -25.5 67.5t-66.5 26.5q-47 0 -79.5 -31.5t-32.5 -78.5
q0 -41 25.5 -67.5t66.5 -26.5q47 0 79.5 31.5t32.5 78.5z" />
    <glyph glyph-name="ae" unicode="&#xe6;" horiz-adv-x="1689" 
d="M1483 375l67 -283q-215 -125 -434 -125q-109 0 -201.5 43.5t-156.5 122.5q-155 -168 -389 -168q-179 0 -276 84.5t-97 220.5q0 153 115 256t286 103q121 0 232 -51q2 6 2 28q0 60 -46 86.5t-151 26.5q-115 0 -258 -33l88 270q156 27 281 27q224 0 319 -100
q136 112 328 112q206 0 334 -130t131 -359l-637 -207q48 -39 123 -39q145 0 340 115zM956 522l344 113q-41 63 -135 63q-74 0 -132 -49t-77 -127zM588 328q0 38 -27.5 63t-68.5 25q-47 0 -78 -30t-31 -75q0 -38 27.5 -63t68.5 -25q47 0 78 30t31 75z" />
    <glyph glyph-name="ccedilla" unicode="&#xe7;" horiz-adv-x="874" 
d="M432 463q0 -68 47.5 -109t128.5 -41q58 0 137 27l7 -344q-90 -26 -181 -29l-258 -422l-293 174l277 301q-119 61 -188.5 172t-69.5 246q-2 112 43.5 216t124 179.5t189 119.5t231.5 42q133 0 266 -47l-109 -332q-78 35 -149 35q-88 0 -145.5 -55t-57.5 -133z" />
    <glyph glyph-name="egrave" unicode="&#xe8;" horiz-adv-x="1110" 
d="M903 375l68 -283q-215 -125 -434 -125q-218 0 -358 133t-140 338q-3 150 72.5 279.5t209 205t291.5 72.5q206 0 334 -130t131 -359l-637 -207q48 -39 123 -39q145 0 340 115zM377 522l344 113q-41 63 -135 63q-74 0 -132 -49t-77 -127zM877 1065h-332l-207 389h457z" />
    <glyph glyph-name="eacute" unicode="&#xe9;" horiz-adv-x="1110" 
d="M903 375l68 -283q-215 -125 -434 -125q-218 0 -358 133t-140 338q-3 150 72.5 279.5t209 205t291.5 72.5q206 0 334 -130t131 -359l-637 -207q48 -39 123 -39q145 0 340 115zM377 522l344 113q-41 63 -135 63q-74 0 -132 -49t-77 -127zM463 1065l229 389h482l-355 -389
h-356z" />
    <glyph glyph-name="ecircumflex" unicode="&#xea;" horiz-adv-x="1110" 
d="M903 375l68 -283q-215 -125 -434 -125q-218 0 -358 133t-140 338q-3 150 72.5 279.5t209 205t291.5 72.5q206 0 334 -130t131 -359l-637 -207q48 -39 123 -39q145 0 340 115zM377 522l344 113q-41 63 -135 63q-74 0 -132 -49t-77 -127zM1116 1065h-301l-98 154l-160 -154
h-326l334 389h369z" />
    <glyph glyph-name="edieresis" unicode="&#xeb;" horiz-adv-x="1110" 
d="M903 375l68 -283q-215 -125 -434 -125q-218 0 -358 133t-140 338q-3 150 72.5 279.5t209 205t291.5 72.5q206 0 334 -130t131 -359l-637 -207q48 -39 123 -39q145 0 340 115zM377 522l344 113q-41 63 -135 63q-74 0 -132 -49t-77 -127zM283 1235q0 80 62 138.5t147 58.5
q77 0 128.5 -49.5t51.5 -122.5q0 -80 -62 -138.5t-147 -58.5q-77 0 -128.5 49.5t-51.5 122.5zM756 1235q0 80 62 138.5t147 58.5q77 0 128.5 -49.5t51.5 -122.5q0 -80 -62 -138.5t-147 -58.5q-77 0 -128.5 49.5t-51.5 122.5z" />
    <glyph glyph-name="igrave" unicode="&#xec;" horiz-adv-x="593" 
d="M-4 0l182 942l424 41l-190 -983h-416zM608 1065h-332l-206 389h456z" />
    <glyph glyph-name="iacute" unicode="&#xed;" horiz-adv-x="593" 
d="M-4 0l182 942l424 41l-190 -983h-416zM195 1065l229 389h481l-354 -389h-356z" />
    <glyph glyph-name="icircumflex" unicode="&#xee;" horiz-adv-x="593" 
d="M-4 0l182 942l424 41l-190 -983h-416zM807 1065h-301l-60 152l-116 -152h-326l303 389h348z" />
    <glyph glyph-name="idieresis" unicode="&#xef;" horiz-adv-x="593" 
d="M-4 0l182 942l424 41l-190 -983h-416zM53 1235q0 75 59 130.5t138 55.5q75 0 122.5 -45t47.5 -116q0 -75 -59 -131t-138 -56q-75 0 -122.5 45.5t-47.5 116.5zM471 1235q0 75 59 130.5t138 55.5q75 0 122.5 -45t47.5 -116q0 -75 -59 -131t-138 -56q-75 0 -122.5 45.5
t-47.5 116.5z" />
    <glyph glyph-name="eth" unicode="&#xf0;" horiz-adv-x="1202" 
d="M1159 1260l-133 -46q133 -233 133 -512q0 -102 -22 -215q-46 -241 -202 -378.5t-384 -137.5q-222 0 -367 132.5t-145 334.5q-3 147 70 276.5t194.5 204.5t255.5 72q132 0 223 -67q-23 91 -77 182l-271 -92l-41 205l172 59q-85 85 -194 156l424 41q59 -46 96 -86l225 77z
M754 498q0 66 -42 108.5t-108 42.5q-75 0 -128.5 -54.5t-53.5 -129.5q0 -66 41.5 -109t107.5 -43q75 0 129 55t54 130z" />
    <glyph glyph-name="ntilde" unicode="&#xf1;" horiz-adv-x="1189" 
d="M1147 694q0 -52 -12 -114l-113 -580h-416l107 543q2 6 2 24q0 36 -22 57t-60 21q-45 0 -78 -29t-43 -79l-102 -537h-416l182 942l416 39l-25 -125q107 131 285 131q140 0 217.5 -76.5t77.5 -216.5zM713 1120q-63 31 -105 31q-70 0 -86 -70h-223q34 174 116 258t201 84
q28 0 55.5 -5.5t48 -12t64.5 -23.5q73 -30 107 -30q70 0 86 69h223q-34 -173 -116.5 -257.5t-202.5 -84.5q-28 0 -55.5 5.5t-48 12t-64.5 23.5z" />
    <glyph glyph-name="ograve" unicode="&#xf2;" horiz-adv-x="1171" 
d="M39 438q-3 150 76 279.5t216.5 205t297.5 72.5q219 0 361.5 -133.5t142.5 -337.5q3 -150 -76 -279.5t-216.5 -205t-297.5 -72.5q-219 0 -361.5 133.5t-142.5 337.5zM752 498q0 66 -42 108.5t-108 42.5q-75 0 -128.5 -54.5t-53.5 -129.5q0 -66 41.5 -109t107.5 -43
q75 0 129 55t54 130zM897 1065h-332l-207 389h457z" />
    <glyph glyph-name="oacute" unicode="&#xf3;" horiz-adv-x="1171" 
d="M39 438q-3 150 76 279.5t216.5 205t297.5 72.5q219 0 361.5 -133.5t142.5 -337.5q3 -150 -76 -279.5t-216.5 -205t-297.5 -72.5q-219 0 -361.5 133.5t-142.5 337.5zM752 498q0 66 -42 108.5t-108 42.5q-75 0 -128.5 -54.5t-53.5 -129.5q0 -66 41.5 -109t107.5 -43
q75 0 129 55t54 130zM483 1065l230 389h481l-354 -389h-357z" />
    <glyph glyph-name="ocircumflex" unicode="&#xf4;" horiz-adv-x="1171" 
d="M39 438q-3 150 76 279.5t216.5 205t297.5 72.5q219 0 361.5 -133.5t142.5 -337.5q3 -150 -76 -279.5t-216.5 -205t-297.5 -72.5q-219 0 -361.5 133.5t-142.5 337.5zM752 498q0 66 -42 108.5t-108 42.5q-75 0 -128.5 -54.5t-53.5 -129.5q0 -66 41.5 -109t107.5 -43
q75 0 129 55t54 130zM1137 1065h-301l-99 154l-159 -154h-326l334 389h368z" />
    <glyph glyph-name="otilde" unicode="&#xf5;" horiz-adv-x="1171" 
d="M39 438q-3 150 76 279.5t216.5 205t297.5 72.5q219 0 361.5 -133.5t142.5 -337.5q3 -150 -76 -279.5t-216.5 -205t-297.5 -72.5q-219 0 -361.5 133.5t-142.5 337.5zM752 498q0 66 -42 108.5t-108 42.5q-75 0 -128.5 -54.5t-53.5 -129.5q0 -66 41.5 -109t107.5 -43
q75 0 129 55t54 130zM698 1120q-63 31 -104 31q-70 0 -86 -70h-223q34 174 116 258t201 84q28 0 55.5 -5.5t48 -12t64.5 -23.5q73 -30 107 -30q70 0 86 69h223q-34 -173 -117 -257.5t-203 -84.5q-28 0 -55.5 5.5t-48 12t-64.5 23.5z" />
    <glyph glyph-name="odieresis" unicode="&#xf6;" horiz-adv-x="1171" 
d="M39 438q-3 150 76 279.5t216.5 205t297.5 72.5q219 0 361.5 -133.5t142.5 -337.5q3 -150 -76 -279.5t-216.5 -205t-297.5 -72.5q-219 0 -361.5 133.5t-142.5 337.5zM752 498q0 66 -42 108.5t-108 42.5q-75 0 -128.5 -54.5t-53.5 -129.5q0 -66 41.5 -109t107.5 -43
q75 0 129 55t54 130zM303 1235q0 80 62 138.5t147 58.5q77 0 128.5 -49.5t51.5 -122.5q0 -80 -62 -138.5t-147 -58.5q-77 0 -128.5 49.5t-51.5 122.5zM776 1235q0 80 62 138.5t147 58.5q77 0 128.5 -49.5t51.5 -122.5q0 -80 -62 -138.5t-147 -58.5q-77 0 -128.5 49.5
t-51.5 122.5z" />
    <glyph glyph-name="divide" unicode="&#xf7;" horiz-adv-x="1236" 
d="M535 1094q0 92 65.5 155.5t153.5 63.5q82 0 136 -54.5t54 -136.5q0 -92 -66 -155.5t-153 -63.5q-82 0 -136 54.5t-54 136.5zM86 502l68 348h1073l-68 -348h-1073zM367 229q0 92 65.5 156t153.5 64q82 0 136 -54.5t54 -136.5q0 -92 -66 -155.5t-153 -63.5q-82 0 -136 54
t-54 136z" />
    <glyph glyph-name="oslash" unicode="&#xf8;" horiz-adv-x="1171" 
d="M1133 883l-89 -82q89 -119 89 -277q3 -150 -76 -279.5t-216.5 -205t-297.5 -72.5q-175 0 -305 88l-99 -92l-102 113l92 84q-90 120 -90 278q-3 150 76 279.5t216.5 205t297.5 72.5q173 0 307 -90l96 90zM420 465l2 -33l227 211q-21 6 -47 6q-75 0 -128.5 -54.5
t-53.5 -129.5zM750 528l-226 -209q21 -6 45 -6q75 0 129 55t54 130q0 24 -2 30z" />
    <glyph glyph-name="ugrave" unicode="&#xf9;" horiz-adv-x="1181" 
d="M768 942l424 41l-191 -983h-407l20 104q-108 -129 -280 -129q-136 0 -213.5 76.5t-77.5 216.5q0 54 12 115l109 559l424 41l-109 -563q-2 -6 -2 -27q0 -35 20.5 -55.5t55.5 -20.5q44 0 76 29.5t39 79.5zM897 1065h-332l-207 389h457z" />
    <glyph glyph-name="uacute" unicode="&#xfa;" horiz-adv-x="1181" 
d="M768 942l424 41l-191 -983h-407l20 104q-108 -129 -280 -129q-136 0 -213.5 76.5t-77.5 216.5q0 54 12 115l109 559l424 41l-109 -563q-2 -6 -2 -27q0 -35 20.5 -55.5t55.5 -20.5q44 0 76 29.5t39 79.5zM483 1065l230 389h481l-354 -389h-357z" />
    <glyph glyph-name="ucircumflex" unicode="&#xfb;" horiz-adv-x="1181" 
d="M768 942l424 41l-191 -983h-407l20 104q-108 -129 -280 -129q-136 0 -213.5 76.5t-77.5 216.5q0 54 12 115l109 559l424 41l-109 -563q-2 -6 -2 -27q0 -35 20.5 -55.5t55.5 -20.5q44 0 76 29.5t39 79.5zM1137 1065h-301l-99 154l-159 -154h-326l334 389h368z" />
    <glyph glyph-name="udieresis" unicode="&#xfc;" horiz-adv-x="1181" 
d="M768 942l424 41l-191 -983h-407l20 104q-108 -129 -280 -129q-136 0 -213.5 76.5t-77.5 216.5q0 54 12 115l109 559l424 41l-109 -563q-2 -6 -2 -27q0 -35 20.5 -55.5t55.5 -20.5q44 0 76 29.5t39 79.5zM303 1235q0 80 62 138.5t147 58.5q77 0 128.5 -49.5t51.5 -122.5
q0 -80 -62 -138.5t-147 -58.5q-77 0 -128.5 49.5t-51.5 122.5zM776 1235q0 80 62 138.5t147 58.5q77 0 128.5 -49.5t51.5 -122.5q0 -80 -62 -138.5t-147 -58.5q-77 0 -128.5 49.5t-51.5 122.5z" />
    <glyph glyph-name="yacute" unicode="&#xfd;" horiz-adv-x="1105" 
d="M758 963h442l-774 -1393h-446l270 412l-156 981h420l25 -490zM451 1065l229 389h481l-354 -389h-356z" />
    <glyph glyph-name="thorn" unicode="&#xfe;" horiz-adv-x="1222" 
d="M1184 524q3 -147 -70 -276.5t-194.5 -204.5t-255.5 -72q-153 0 -242 95l-96 -496h-416l360 1864l424 41l-100 -535q83 51 186 51q171 0 287.5 -133.5t116.5 -333.5zM801 498q0 66 -42 108.5t-108 42.5q-75 0 -128.5 -54.5t-53.5 -129.5q0 -66 41.5 -109t107.5 -43
q75 0 129 55t54 130z" />
    <glyph glyph-name="ydieresis" unicode="&#xff;" horiz-adv-x="1105" 
d="M758 963h442l-774 -1393h-446l270 412l-156 981h420l25 -490zM270 1235q0 80 62 138.5t147 58.5q77 0 128.5 -49.5t51.5 -122.5q0 -80 -61.5 -138.5t-146.5 -58.5q-77 0 -129 49.5t-52 122.5zM743 1235q0 80 62 138.5t147 58.5q77 0 129 -49.5t52 -122.5
q0 -80 -62 -138.5t-147 -58.5q-77 0 -129 49.5t-52 122.5z" />
    <glyph glyph-name="Amacron" unicode="&#x100;" horiz-adv-x="1480" 
d="M942 0l-20 238h-424l-109 -238h-473l764 1434h506l190 -1434h-434zM659 598h234l-37 434zM596 1589l51 266h737l-51 -266h-737z" />
    <glyph glyph-name="amacron" unicode="&#x101;" horiz-adv-x="1062" 
d="M1018 672q0 -36 -10 -101l-80 -409l-21 -162h-340v63q-106 -98 -258 -98q-137 0 -225 84t-88 217q0 154 115 258.5t286 104.5q121 0 232 -51q2 6 2 28q0 60 -46 86.5t-151 26.5q-115 0 -258 -33l88 270q156 27 281 27q473 0 473 -311zM588 328q0 38 -27.5 63t-68.5 25
q-47 0 -78 -30t-31 -75q0 -38 27.5 -63t68.5 -25q47 0 78 30t31 75zM309 1139l51 266h695l-51 -266h-695z" />
    <glyph glyph-name="Abreve" unicode="&#x102;" horiz-adv-x="1480" 
d="M942 0l-20 238h-424l-109 -238h-473l764 1434h506l190 -1434h-434zM659 598h234l-37 434zM621 1878q0 31 2 39h260q-4 -56 33.5 -91.5t95.5 -35.5q63 0 106 35.5t49 91.5h263q-12 -166 -137.5 -276.5t-303.5 -110.5q-154 0 -261 100.5t-107 247.5z" />
    <glyph glyph-name="abreve" unicode="&#x103;" horiz-adv-x="1062" 
d="M1018 672q0 -36 -10 -101l-80 -409l-21 -162h-340v63q-106 -98 -258 -98q-137 0 -225 84t-88 217q0 154 115 258.5t286 104.5q121 0 232 -51q2 6 2 28q0 60 -46 86.5t-151 26.5q-115 0 -258 -33l88 270q156 27 281 27q473 0 473 -311zM588 328q0 38 -27.5 63t-68.5 25
q-47 0 -78 -30t-31 -75q0 -38 27.5 -63t68.5 -25q47 0 78 30t31 75zM326 1405q0 31 2 41h260q-4 -56 28 -91.5t84 -35.5q55 0 94.5 35.5t45.5 91.5h262q-12 -166 -133.5 -276.5t-290.5 -110.5q-149 0 -250.5 99t-101.5 247z" />
    <glyph glyph-name="Aogonek" unicode="&#x104;" horiz-adv-x="1480" 
d="M1292 -219q24 0 45 8l-41 -213q-66 -16 -104 -16q-114 0 -183 65.5t-69 169.5q0 115 96 205h-94l-20 238h-424l-109 -238h-473l764 1434h506l190 -1434q-153 -60 -153 -147q0 -30 19 -51t50 -21zM659 598h234l-37 434z" />
    <glyph glyph-name="aogonek" unicode="&#x105;" horiz-adv-x="1062" 
d="M1018 672q0 -36 -10 -101l-80 -409l-21 -162q-141 -54 -141 -133q0 -27 17.5 -46.5t45.5 -19.5q17 0 41 6l-36 -192q-46 -14 -95 -14q-102 0 -165.5 59.5t-63.5 153.5q0 110 88 186h-31v63q-106 -98 -258 -98q-137 0 -225 84t-88 217q0 154 115 258.5t286 104.5
q121 0 232 -51q2 6 2 28q0 60 -46 86.5t-151 26.5q-115 0 -258 -33l88 270q156 27 281 27q473 0 473 -311zM588 328q0 38 -27.5 63t-68.5 25q-47 0 -78 -30t-31 -75q0 -38 27.5 -63t68.5 -25q47 0 78 30t31 75z" />
    <glyph glyph-name="Cacute" unicode="&#x106;" horiz-adv-x="1241" 
d="M86 651q-4 160 60.5 311.5t175 263t267 178t326.5 62.5q221 0 400 -92l-129 -399q-147 80 -285 80q-163 0 -270 -108t-107 -263q0 -132 82.5 -217.5t222.5 -85.5q117 0 277 68v-424q-165 -58 -332 -58q-153 0 -282.5 53t-218 144.5t-138 217.5t-49.5 269zM764 1536
l162 369h489l-297 -369h-354z" />
    <glyph glyph-name="cacute" unicode="&#x107;" horiz-adv-x="874" 
d="M39 438q-2 112 43.5 216t124 179.5t189 119.5t231.5 42q133 0 266 -47l-109 -332q-78 35 -149 35q-88 0 -145.5 -55t-57.5 -133q0 -68 47.5 -109t128.5 -41q58 0 137 27l7 -344q-110 -29 -209 -29q-219 0 -361.5 133.5t-142.5 337.5zM436 1065l230 389h481l-354 -389
h-357z" />
    <glyph glyph-name="Ccircumflex" unicode="&#x108;" horiz-adv-x="1241" 
d="M86 651q-4 160 60.5 311.5t175 263t267 178t326.5 62.5q221 0 400 -92l-129 -399q-147 80 -285 80q-163 0 -270 -108t-107 -263q0 -132 82.5 -217.5t222.5 -85.5q117 0 277 68v-424q-165 -58 -332 -58q-153 0 -282.5 53t-218 144.5t-138 217.5t-49.5 269zM1405 1536h-301
l-98 154l-160 -154h-326l309 369h410z" />
    <glyph glyph-name="ccircumflex" unicode="&#x109;" horiz-adv-x="874" 
d="M39 438q-2 112 43.5 216t124 179.5t189 119.5t231.5 42q133 0 266 -47l-109 -332q-78 35 -149 35q-88 0 -145.5 -55t-57.5 -133q0 -68 47.5 -109t128.5 -41q58 0 137 27l7 -344q-110 -29 -209 -29q-219 0 -361.5 133.5t-142.5 337.5zM1090 1065h-302l-98 154l-160 -154
h-325l334 389h368z" />
    <glyph glyph-name="Cdotaccent" unicode="&#x10a;" horiz-adv-x="1241" 
d="M86 651q-4 160 60.5 311.5t175 263t267 178t326.5 62.5q221 0 400 -92l-129 -399q-147 80 -285 80q-163 0 -270 -108t-107 -263q0 -132 82.5 -217.5t222.5 -85.5q117 0 277 68v-424q-165 -58 -332 -58q-153 0 -282.5 53t-218 144.5t-138 217.5t-49.5 269zM752 1724
q0 104 79 180t189 76q103 0 168 -62.5t65 -160.5q0 -104 -79 -180t-189 -76q-103 0 -168 62.5t-65 160.5z" />
    <glyph glyph-name="cdotaccent" unicode="&#x10b;" horiz-adv-x="874" 
d="M39 438q-2 112 43.5 216t124 179.5t189 119.5t231.5 42q133 0 266 -47l-109 -332q-78 35 -149 35q-88 0 -145.5 -55t-57.5 -133q0 -68 47.5 -109t128.5 -41q58 0 137 27l7 -344q-110 -29 -209 -29q-219 0 -361.5 133.5t-142.5 337.5zM453 1249q0 100 76 172t182 72
q96 0 158.5 -59t62.5 -152q0 -100 -76 -172t-182 -72q-96 0 -158.5 59t-62.5 152z" />
    <glyph glyph-name="Ccaron" unicode="&#x10c;" horiz-adv-x="1241" 
d="M86 651q-4 160 60.5 311.5t175 263t267 178t326.5 62.5q221 0 400 -92l-129 -399q-147 80 -285 80q-163 0 -270 -108t-107 -263q0 -132 82.5 -217.5t222.5 -85.5q117 0 277 68v-424q-165 -58 -332 -58q-153 0 -282.5 53t-218 144.5t-138 217.5t-49.5 269zM1151 1905h326
l-310 -369h-409l-166 369h301l98 -154z" />
    <glyph glyph-name="ccaron" unicode="&#x10d;" horiz-adv-x="874" 
d="M39 438q-2 112 43.5 216t124 179.5t189 119.5t231.5 42q133 0 266 -47l-109 -332q-78 35 -149 35q-88 0 -145.5 -55t-57.5 -133q0 -68 47.5 -109t128.5 -41q58 0 137 27l7 -344q-110 -29 -209 -29q-219 0 -361.5 133.5t-142.5 337.5zM850 1464h326l-334 -389h-369
l-182 389h301l98 -153z" />
    <glyph glyph-name="Dcaron" unicode="&#x10e;" horiz-adv-x="1388" 
d="M1399 809q4 -223 -110.5 -410.5t-315 -295t-438.5 -103.5h-531l279 1434h454q302 0 482 -170t180 -455zM965 774q0 121 -73 191.5t-198 70.5h-61l-127 -639h67q167 0 279.5 107.5t112.5 269.5zM1087 1905h326l-309 -369h-410l-166 369h301l99 -154z" />
    <glyph glyph-name="dcaron" unicode="&#x10f;" horiz-adv-x="1222" 
d="M905 1434l424 41l-287 -1475h-360l16 82q-105 -111 -256 -111q-171 0 -287 133.5t-116 333.5q-3 147 70 276.5t194.5 204.5t255.5 72q154 0 242 -94zM754 498q0 66 -42 108.5t-108 42.5q-75 0 -128.5 -54.5t-53.5 -129.5q0 -66 41.5 -109t107.5 -43q75 0 129 55t54 130z
M1303 1030l122 424h349l-170 -397z" />
    <glyph glyph-name="Dcroat" unicode="&#x110;" horiz-adv-x="1388" 
d="M1399 809q4 -223 -110.5 -410.5t-315 -295t-438.5 -103.5h-531l109 563h-99l64 324h98l107 547h454q302 0 482 -170t180 -455zM965 774q0 121 -73 191.5t-198 70.5h-61l-31 -149h229l-63 -324h-229l-33 -166h67q167 0 279.5 107.5t112.5 269.5z" />
    <glyph glyph-name="dslash" unicode="&#x111;" horiz-adv-x="1222" 
d="M1386 1329l-55 -282h-86l-203 -1047h-360l16 82q-105 -111 -256 -111q-171 0 -287 133.5t-116 333.5q-3 147 70 276.5t194.5 204.5t255.5 72q154 0 242 -94l28 150h-292l55 282h293l20 105l424 41l-29 -146h86zM754 498q0 66 -42 108.5t-108 42.5q-75 0 -128.5 -54.5
t-53.5 -129.5q0 -66 41.5 -109t107.5 -43q75 0 129 55t54 130z" />
    <glyph glyph-name="Emacron" unicode="&#x112;" horiz-adv-x="1093" 
d="M1133 1063h-500l-31 -154h402l-72 -370h-402l-32 -168h518l-123 -371h-889l279 1434h868zM403 1589l52 266h737l-51 -266h-738z" />
    <glyph glyph-name="emacron" unicode="&#x113;" horiz-adv-x="1110" 
d="M903 375l68 -283q-215 -125 -434 -125q-218 0 -358 133t-140 338q-3 150 72.5 279.5t209 205t291.5 72.5q206 0 334 -130t131 -359l-637 -207q48 -39 123 -39q145 0 340 115zM377 522l344 113q-41 63 -135 63q-74 0 -132 -49t-77 -127zM346 1139l51 266h695l-52 -266
h-694z" />
    <glyph glyph-name="Ebreve" unicode="&#x114;" horiz-adv-x="1093" 
d="M1133 1063h-500l-31 -154h402l-72 -370h-402l-32 -168h518l-123 -371h-889l279 1434h868zM428 1878q0 31 2 39h260q-4 -56 33.5 -91.5t95.5 -35.5q63 0 106.5 35.5t49.5 91.5h262q-12 -166 -137 -276.5t-303 -110.5q-154 0 -261.5 100.5t-107.5 247.5z" />
    <glyph glyph-name="ebreve" unicode="&#x115;" horiz-adv-x="1110" 
d="M903 375l68 -283q-215 -125 -434 -125q-218 0 -358 133t-140 338q-3 150 72.5 279.5t209 205t291.5 72.5q206 0 334 -130t131 -359l-637 -207q48 -39 123 -39q145 0 340 115zM377 522l344 113q-41 63 -135 63q-74 0 -132 -49t-77 -127zM362 1405q0 26 3 41h260
q-4 -56 28 -91.5t84 -35.5q55 0 94.5 35.5t45.5 91.5h262q-12 -166 -133.5 -276.5t-290.5 -110.5q-150 0 -251.5 99.5t-101.5 246.5z" />
    <glyph glyph-name="Edotaccent" unicode="&#x116;" horiz-adv-x="1093" 
d="M1133 1063h-500l-31 -154h402l-72 -370h-402l-32 -168h518l-123 -371h-889l279 1434h868zM551 1724q0 104 79 180t189 76q103 0 168.5 -62.5t65.5 -160.5q0 -104 -79.5 -180t-189.5 -76q-103 0 -168 62.5t-65 160.5z" />
    <glyph glyph-name="edotaccent" unicode="&#x117;" horiz-adv-x="1110" 
d="M903 375l68 -283q-215 -125 -434 -125q-218 0 -358 133t-140 338q-3 150 72.5 279.5t209 205t291.5 72.5q206 0 334 -130t131 -359l-637 -207q48 -39 123 -39q145 0 340 115zM377 522l344 113q-41 63 -135 63q-74 0 -132 -49t-77 -127zM479 1249q0 100 76 172t182 72
q96 0 158.5 -59t62.5 -152q0 -100 -76 -172t-182 -72q-96 0 -158.5 59t-62.5 152z" />
    <glyph glyph-name="Eogonek" unicode="&#x118;" horiz-adv-x="1093" 
d="M1133 1063h-500l-31 -154h402l-72 -370h-402l-32 -168h518l-123 -371q-154 -60 -154 -147q0 -30 19.5 -51t50.5 -21q24 0 45 8l-41 -213q-66 -16 -104 -16q-114 0 -183 65.5t-69 169.5q0 115 96 205h-549l279 1434h868z" />
    <glyph glyph-name="eogonek" unicode="&#x119;" horiz-adv-x="1110" 
d="M903 375l68 -283q-56 -37 -144 -69q-68 -26 -104.5 -61.5t-36.5 -74.5q0 -27 18 -46t46 -19q17 0 41 6l-37 -193q-49 -14 -95 -14q-102 0 -165.5 59.5t-63.5 153.5q0 73 43 137q-193 19 -313.5 149t-120.5 318q-3 150 72.5 279.5t209 205t291.5 72.5q206 0 334 -130
t131 -359l-637 -207q48 -39 123 -39q145 0 340 115zM377 522l346 113q-41 63 -137 63q-74 0 -132 -49t-77 -127z" />
    <glyph glyph-name="Ecaron" unicode="&#x11a;" horiz-adv-x="1093" 
d="M1133 1063h-500l-31 -154h402l-72 -370h-402l-32 -168h518l-123 -371h-889l279 1434h868zM950 1905h326l-309 -369h-410l-166 369h301l99 -154z" />
    <glyph glyph-name="ecaron" unicode="&#x11b;" horiz-adv-x="1110" 
d="M903 375l68 -283q-215 -125 -434 -125q-218 0 -358 133t-140 338q-3 150 72.5 279.5t209 205t291.5 72.5q206 0 334 -130t131 -359l-637 -207q48 -39 123 -39q145 0 340 115zM377 522l344 113q-41 63 -135 63q-74 0 -132 -49t-77 -127zM877 1464h325l-334 -389h-368
l-183 389h301l99 -153z" />
    <glyph glyph-name="Gcircumflex" unicode="&#x11c;" horiz-adv-x="1423" 
d="M854 891h561l-155 -799q-232 -125 -469 -125q-151 -2 -284 51t-225 145.5t-144.5 220.5t-51.5 271q-3 158 62 307.5t176 261t269 178.5t331 64q112 0 233 -26t219 -72l-125 -393q-73 42 -163 65t-170 23q-176 0 -288 -111.5t-112 -271.5q0 -138 85 -221.5t220 -83.5
q46 0 121 16l31 150h-234zM1425 1536h-301l-98 154l-160 -154h-325l309 369h410z" />
    <glyph glyph-name="gcircumflex" unicode="&#x11d;" horiz-adv-x="1146" 
d="M1090 532q0 -202 -148 -356q45 -77 45 -172q0 -126 -75 -233t-204.5 -169.5t-283.5 -62.5q-166 0 -288.5 59t-217.5 173l238 237q127 -145 286 -145q87 0 141 38t54 99q0 14 -2 20q-65 -10 -109 -10q-207 0 -344 126t-137 317q0 145 74 264t207 187.5t299 68.5h526
l-129 -211q68 -103 68 -230zM555 334q69 0 118.5 49.5t49.5 118.5q0 66 -40.5 106.5t-104.5 40.5q-68 0 -117 -49.5t-49 -118.5q0 -66 40 -106.5t103 -40.5zM1116 1065h-301l-98 154l-160 -154h-326l334 389h369z" />
    <glyph glyph-name="Gbreve" unicode="&#x11e;" horiz-adv-x="1423" 
d="M854 891h561l-155 -799q-232 -125 -469 -125q-151 -2 -284 51t-225 145.5t-144.5 220.5t-51.5 271q-3 158 62 307.5t176 261t269 178.5t331 64q112 0 233 -26t219 -72l-125 -393q-73 42 -163 65t-170 23q-176 0 -288 -111.5t-112 -271.5q0 -138 85 -221.5t220 -83.5
q46 0 121 16l31 150h-234zM649 1878q0 31 2 39h260q-4 -56 33.5 -91.5t95.5 -35.5q63 0 106.5 35.5t49.5 91.5h262q-12 -166 -137 -276.5t-303 -110.5q-154 0 -261.5 100.5t-107.5 247.5z" />
    <glyph glyph-name="gbreve" unicode="&#x11f;" horiz-adv-x="1146" 
d="M1090 532q0 -202 -148 -356q45 -77 45 -172q0 -126 -75 -233t-204.5 -169.5t-283.5 -62.5q-166 0 -288.5 59t-217.5 173l238 237q127 -145 286 -145q87 0 141 38t54 99q0 14 -2 20q-65 -10 -109 -10q-207 0 -344 126t-137 317q0 145 74 264t207 187.5t299 68.5h526
l-129 -211q68 -103 68 -230zM555 334q69 0 118.5 49.5t49.5 118.5q0 66 -40.5 106.5t-104.5 40.5q-68 0 -117 -49.5t-49 -118.5q0 -66 40 -106.5t103 -40.5zM362 1405q0 26 3 41h260q-4 -56 28 -91.5t84 -35.5q55 0 94.5 35.5t45.5 91.5h262q-12 -166 -133.5 -276.5
t-290.5 -110.5q-150 0 -251.5 99.5t-101.5 246.5z" />
    <glyph glyph-name="Gdotaccent" unicode="&#x120;" horiz-adv-x="1423" 
d="M854 891h561l-155 -799q-232 -125 -469 -125q-151 -2 -284 51t-225 145.5t-144.5 220.5t-51.5 271q-3 158 62 307.5t176 261t269 178.5t331 64q112 0 233 -26t219 -72l-125 -393q-73 42 -163 65t-170 23q-176 0 -288 -111.5t-112 -271.5q0 -138 85 -221.5t220 -83.5
q46 0 121 16l31 150h-234zM772 1724q0 104 79 180t189 76q103 0 168.5 -62.5t65.5 -160.5q0 -104 -79 -180t-189 -76q-103 0 -168.5 62.5t-65.5 160.5z" />
    <glyph glyph-name="gdotaccent" unicode="&#x121;" horiz-adv-x="1146" 
d="M1090 532q0 -202 -148 -356q45 -77 45 -172q0 -126 -75 -233t-204.5 -169.5t-283.5 -62.5q-166 0 -288.5 59t-217.5 173l238 237q127 -145 286 -145q87 0 141 38t54 99q0 14 -2 20q-65 -10 -109 -10q-207 0 -344 126t-137 317q0 145 74 264t207 187.5t299 68.5h526
l-129 -211q68 -103 68 -230zM555 334q69 0 118.5 49.5t49.5 118.5q0 66 -40.5 106.5t-104.5 40.5q-68 0 -117 -49.5t-49 -118.5q0 -66 40 -106.5t103 -40.5zM479 1249q0 100 76 172t182 72q96 0 158.5 -59t62.5 -152q0 -100 -76 -172t-182 -72q-96 0 -158.5 59t-62.5 152z
" />
    <glyph glyph-name="Gcommaaccent" unicode="&#x122;" horiz-adv-x="1423" 
d="M854 891h561l-155 -799q-232 -125 -469 -125q-151 -2 -284 51t-225 145.5t-144.5 220.5t-51.5 271q-3 158 62 307.5t176 261t269 178.5t331 64q112 0 233 -26t219 -72l-125 -393q-73 42 -163 65t-170 23q-176 0 -288 -111.5t-112 -271.5q0 -138 85 -221.5t220 -83.5
q46 0 121 16l31 150h-234zM342 -530l176 428h297l-221 -404z" />
    <glyph glyph-name="gcommaaccent" unicode="&#x123;" horiz-adv-x="1146" 
d="M1090 532q0 -202 -148 -356q45 -77 45 -172q0 -126 -75 -233t-204.5 -169.5t-283.5 -62.5q-166 0 -288.5 59t-217.5 173l238 237q127 -145 286 -145q87 0 141 38t54 99q0 14 -2 20q-65 -10 -109 -10q-207 0 -344 126t-137 317q0 145 74 264t207 187.5t299 68.5h526
l-129 -211q68 -103 68 -230zM555 334q69 0 118.5 49.5t49.5 118.5q0 66 -40.5 106.5t-104.5 40.5q-68 0 -117 -49.5t-49 -118.5q0 -66 40 -106.5t103 -40.5zM1001 1493l-176 -428h-297l222 403z" />
    <glyph glyph-name="Hcircumflex" unicode="&#x124;" horiz-adv-x="1470" 
d="M1128 1434h428l-278 -1434h-428l102 524h-417l-103 -524h-428l279 1434h428l-97 -500h418zM1382 1536h-301l-98 154l-160 -154h-325l309 369h410z" />
    <glyph glyph-name="hcircumflex" unicode="&#x125;" horiz-adv-x="1187" 
d="M1145 692q0 -50 -12 -112l-113 -580h-416l107 543q2 6 2 24q0 36 -22 57t-60 21q-45 0 -78 -29t-43 -79l-102 -537h-416l278 1434l424 41l-119 -615q112 127 279 127q136 0 213.5 -77.5t77.5 -217.5zM956 1536h-301l-98 154l-160 -154h-325l309 369h410z" />
    <glyph glyph-name="Hbar" unicode="&#x126;" horiz-adv-x="1470" 
d="M1610 1309l-51 -262h-78l-203 -1047h-428l102 524h-417l-103 -524h-428l203 1047h-78l51 262h78l25 125h428l-25 -125h418l24 125h428l-24 -125h78zM1032 934l21 113h-418l-21 -113h418z" />
    <glyph glyph-name="hbar" unicode="&#x127;" horiz-adv-x="1187" 
d="M1145 692q0 -50 -12 -112l-113 -580h-416l107 543q2 6 2 24q0 36 -22 57t-60 21q-45 0 -78 -29t-43 -79l-102 -537h-416l203 1047h-84l55 282h84l20 105l424 41l-28 -146h295l-56 -282h-295l-35 -187q112 127 279 127q136 0 213.5 -77.5t77.5 -217.5z" />
    <glyph glyph-name="Itilde" unicode="&#x128;" horiz-adv-x="645" 
d="M721 1434l-279 -1434h-428l279 1434h428zM524 1597q-66 31 -110 31q-76 0 -92 -69h-224q28 164 116 246.5t212 82.5q10 0 19.5 -0.5t19.5 -2t16.5 -2t18.5 -3.5t17 -4.5t19.5 -6t19.5 -6t23.5 -8t24.5 -8.5q64 -30 111 -30q76 0 92 69h223q-28 -165 -116 -247.5
t-214 -82.5q-43 0 -77 8.5t-99 32.5z" />
    <glyph glyph-name="itilde" unicode="&#x129;" horiz-adv-x="593" 
d="M-4 0l182 942l424 41l-190 -983h-416zM418 1128q-55 25 -88 25q-54 0 -72 -59l-221 -2q31 161 110.5 242t188.5 81q66 0 141 -37q72 -24 88 -24q54 0 72 59l221 2q-31 -161 -110.5 -242t-188.5 -81q-68 0 -141 36z" />
    <glyph glyph-name="Imacron" unicode="&#x12a;" horiz-adv-x="645" 
d="M721 1434l-279 -1434h-428l279 1434h428zM170 1589l51 266h737l-51 -266h-737z" />
    <glyph glyph-name="imacron" unicode="&#x12b;" horiz-adv-x="593" 
d="M-4 0l182 942l424 41l-190 -983h-416zM139 1139l51 266h572l-51 -266h-572z" />
    <glyph glyph-name="Ibreve" unicode="&#x12c;" horiz-adv-x="645" 
d="M721 1434l-279 -1434h-428l279 1434h428zM195 1878q0 31 2 39h260q-4 -56 33.5 -91.5t95.5 -35.5q63 0 106 35.5t49 91.5h263q-12 -166 -137.5 -276.5t-303.5 -110.5q-154 0 -261 100.5t-107 247.5z" />
    <glyph glyph-name="ibreve" unicode="&#x12d;" horiz-adv-x="593" 
d="M-4 0l182 942l424 41l-190 -983h-416zM119 1401q0 31 2 41h254q-1 -55 25 -88t69 -33q49 0 81.5 33.5t37.5 87.5h258q-12 -165 -123.5 -271t-273.5 -106q-142 0 -236 96.5t-94 239.5z" />
    <glyph glyph-name="Iogonek" unicode="&#x12e;" horiz-adv-x="645" 
d="M289 -147q0 -30 19 -51t50 -21q24 0 45 8l-41 -213q-66 -16 -104 -16q-114 0 -183 65.5t-69 169.5q0 115 96 205h-88l279 1434h428l-279 -1434q-153 -60 -153 -147z" />
    <glyph glyph-name="iogonek" unicode="&#x12f;" horiz-adv-x="593" 
d="M690 1282q0 -100 -76 -172t-182 -72q-96 0 -158.5 59t-62.5 152q0 100 76 172t182 72q96 0 158.5 -59t62.5 -152zM-4 0l182 942l424 41l-190 -983q-142 -54 -142 -133q0 -27 18 -46.5t46 -19.5q17 0 41 6l-37 -192q-46 -14 -94 -14q-102 0 -166 59.5t-64 153.5
q0 110 88 186h-106z" />
    <glyph glyph-name="Idot" unicode="&#x130;" horiz-adv-x="645" 
d="M721 1434l-279 -1434h-428l279 1434h428zM317 1724q0 104 79.5 180t189.5 76q103 0 168 -62.5t65 -160.5q0 -104 -79 -180t-189 -76q-103 0 -168.5 62.5t-65.5 160.5z" />
    <glyph glyph-name="dotlessi" unicode="&#x131;" horiz-adv-x="593" 
d="M-4 0l182 942l424 41l-190 -983h-416z" />
    <glyph glyph-name="IJ" unicode="&#x132;" horiz-adv-x="1611" 
d="M721 1434l-279 -1434h-428l279 1434h428zM621 61l71 369q101 -55 203 -55q96 0 151.5 53t75.5 160l164 846h428l-180 -934q-49 -256 -204 -391.5t-382 -135.5q-187 0 -327 88z" />
    <glyph glyph-name="ij" unicode="&#x133;" horiz-adv-x="1187" 
d="M-4 0l182 942l424 41l-190 -983h-416zM211 1249q0 100 76 172t182 72q96 0 158.5 -59t62.5 -152q0 -100 -76 -172t-182 -72q-96 0 -158.5 59t-62.5 152zM379 -446l65 348q69 5 104 33t48 98l176 909l424 41l-186 -963q-46 -241 -195 -352t-436 -114zM805 1249
q0 100 76 172t182 72q96 0 158.5 -59t62.5 -152q0 -100 -76 -172t-182 -72q-96 0 -158.5 59t-62.5 152z" />
    <glyph glyph-name="Jcircumflex" unicode="&#x134;" horiz-adv-x="966" 
d="M-25 61l72 369q101 -55 203 -55q96 0 151.5 53t75.5 160l164 846h428l-180 -934q-49 -256 -204 -391.5t-382 -135.5q-188 0 -328 88zM1317 1536h-301l-98 154l-160 -154h-326l309 369h410z" />
    <glyph glyph-name="jcircumflex" unicode="&#x135;" horiz-adv-x="593" 
d="M-215 -446l65 348q69 5 104 33t48 98l176 909l424 41l-186 -963q-46 -241 -195 -352t-436 -114zM807 1065h-301l-60 152l-116 -152h-326l303 389h348z" />
    <glyph glyph-name="Kcommaaccent" unicode="&#x136;" horiz-adv-x="1343" 
d="M1503 1434l-555 -721l301 -713h-465l-233 608l-119 -608h-428l279 1434h428l-113 -578l410 578h495zM231 -530l177 428h297l-222 -404z" />
    <glyph glyph-name="kcommaaccent" unicode="&#x137;" horiz-adv-x="1183" 
d="M1253 963l-389 -484l215 -479h-442l-154 391l-75 -391h-416l278 1434l424 41l-170 -871l252 359h477zM164 -530l176 428h297l-221 -404z" />
    <glyph glyph-name="kgreenlandic" unicode="&#x138;" horiz-adv-x="1185" 
d="M1255 963l-389 -484l215 -479h-442l-154 391l-75 -391h-416l182 942l424 41l-74 -379l252 359h477z" />
    <glyph glyph-name="Lacute" unicode="&#x139;" horiz-adv-x="1009" 
d="M512 410h467l-133 -410h-842l279 1434h428zM520 1536l162 369h489l-297 -369h-354z" />
    <glyph glyph-name="lacute" unicode="&#x13a;" horiz-adv-x="591" 
d="M-6 0l278 1434l424 41l-286 -1475h-416zM307 1556l162 369h489l-296 -369h-355z" />
    <glyph glyph-name="Lcommaaccent" unicode="&#x13b;" horiz-adv-x="1009" 
d="M512 410h467l-133 -410h-842l279 1434h428zM78 -530l176 428h297l-221 -404z" />
    <glyph glyph-name="lcommaaccent" unicode="&#x13c;" horiz-adv-x="591" 
d="M-6 0l278 1434l424 41l-286 -1475h-416zM-139 -530l176 428h297l-221 -404z" />
    <glyph glyph-name="Lcaron" unicode="&#x13d;" horiz-adv-x="1009" 
d="M512 410h467l-133 -410h-842l279 1434h428zM729 1010l123 424h348l-170 -398z" />
    <glyph glyph-name="lcaron" unicode="&#x13e;" horiz-adv-x="591" 
d="M-6 0l278 1434l424 41l-286 -1475h-416zM670 1030l123 424h348l-170 -397z" />
    <glyph glyph-name="Ldot" unicode="&#x13f;" horiz-adv-x="1036" 
d="M512 410h467l-133 -410h-842l279 1434h428zM643 797q0 101 78.5 175.5t185.5 74.5q100 0 164 -61.5t64 -156.5q0 -101 -79 -175t-186 -74q-100 0 -163.5 61t-63.5 156z" />
    <glyph glyph-name="ldot" unicode="&#x140;" horiz-adv-x="1042" 
d="M-6 0l278 1434l424 41l-286 -1475h-416zM627 737q0 101 78.5 175.5t185.5 74.5q100 0 163.5 -61t63.5 -156q0 -101 -78.5 -175.5t-185.5 -74.5q-100 0 -163.5 61t-63.5 156z" />
    <glyph glyph-name="Lslash" unicode="&#x141;" horiz-adv-x="1009" 
d="M512 410h467l-133 -410h-842l82 424l-109 -43l70 352l109 43l127 658h428l-93 -473l336 133l-69 -353l-336 -133z" />
    <glyph glyph-name="lslash" unicode="&#x142;" horiz-adv-x="591" 
d="M727 1094l-70 -353l-114 -59l-133 -682h-416l86 440l-115 -59l70 352l112 60l125 641l424 41l-86 -443z" />
    <glyph glyph-name="Nacute" unicode="&#x143;" horiz-adv-x="1529" 
d="M1194 1434h422l-279 -1434h-399l-369 739l-143 -739h-422l279 1434h399l371 -736zM770 1536l162 369h489l-297 -369h-354z" />
    <glyph glyph-name="nacute" unicode="&#x144;" horiz-adv-x="1189" 
d="M1147 694q0 -52 -12 -114l-113 -580h-416l107 543q2 6 2 24q0 36 -22 57t-60 21q-45 0 -78 -29t-43 -79l-102 -537h-416l182 942l416 39l-25 -125q107 131 285 131q140 0 217.5 -76.5t77.5 -216.5zM498 1065l229 389h481l-354 -389h-356z" />
    <glyph glyph-name="Ncommaaccent" unicode="&#x145;" horiz-adv-x="1529" 
d="M1194 1434h422l-279 -1434h-399l-369 739l-143 -739h-422l279 1434h399l371 -736zM328 -530l176 428h297l-221 -404z" />
    <glyph glyph-name="ncommaaccent" unicode="&#x146;" horiz-adv-x="1189" 
d="M1147 694q0 -52 -12 -114l-113 -580h-416l107 543q2 6 2 24q0 36 -22 57t-60 21q-45 0 -78 -29t-43 -79l-102 -537h-416l182 942l416 39l-25 -125q107 131 285 131q140 0 217.5 -76.5t77.5 -216.5zM164 -530l176 428h297l-221 -404z" />
    <glyph glyph-name="Ncaron" unicode="&#x147;" horiz-adv-x="1529" 
d="M1194 1434h422l-279 -1434h-399l-369 739l-143 -739h-422l279 1434h399l371 -736zM1157 1905h326l-309 -369h-410l-166 369h301l98 -154z" />
    <glyph glyph-name="ncaron" unicode="&#x148;" horiz-adv-x="1189" 
d="M1147 694q0 -52 -12 -114l-113 -580h-416l107 543q2 6 2 24q0 36 -22 57t-60 21q-45 0 -78 -29t-43 -79l-102 -537h-416l182 942l416 39l-25 -125q107 131 285 131q140 0 217.5 -76.5t77.5 -216.5zM911 1464h326l-334 -389h-368l-183 389h301l99 -153z" />
    <glyph glyph-name="napostrophe" unicode="&#x149;" horiz-adv-x="1458" 
d="M1415 694q0 -52 -12 -114l-113 -580h-416l107 543q2 6 2 24q0 36 -22 57t-60 21q-45 0 -78 -29t-43 -79l-102 -537h-416l182 942l416 39l-24 -125q107 131 284 131q140 0 217.5 -76.5t77.5 -216.5zM-31 741l301 695h387l-366 -664z" />
    <glyph glyph-name="Eng" unicode="&#x14a;" horiz-adv-x="1529" 
d="M1194 1434h422l-279 -1434l-12 -61q-40 -203 -180 -323t-342 -120q-154 0 -293 74l72 371q82 -43 163 -43q145 0 175 139l-351 702l-143 -739h-422l279 1434h399l371 -736z" />
    <glyph glyph-name="eng" unicode="&#x14b;" horiz-adv-x="1189" 
d="M1147 694q0 -52 -12 -114l-109 -560q-46 -241 -195 -352t-436 -114l66 348q69 5 103.5 32.5t47.5 98.5l99 510q2 6 2 24q0 35 -21.5 56.5t-58.5 21.5q-45 0 -78 -29t-43 -79l-102 -537h-416l182 942l416 39l-25 -125q107 131 285 131q140 0 217.5 -76.5t77.5 -216.5z" />
    <glyph glyph-name="Omacron" unicode="&#x14c;" horiz-adv-x="1603" 
d="M86 653q-3 163 62.5 314.5t176.5 261.5t265.5 175t320.5 62q147 2 278 -50t224 -143.5t146 -220t51 -272.5q3 -163 -62.5 -314.5t-177 -261.5t-266 -175t-320.5 -62q-196 -3 -357.5 86.5t-252.5 248t-88 351.5zM1176 750q0 134 -83.5 221.5t-213.5 87.5q-147 0 -253 -111
t-106 -264q0 -134 83.5 -221.5t213.5 -87.5q147 0 253 111t106 264zM649 1589l51 266h738l-52 -266h-737z" />
    <glyph glyph-name="omacron" unicode="&#x14d;" horiz-adv-x="1171" 
d="M39 438q-3 150 76 279.5t216.5 205t297.5 72.5q219 0 361.5 -133.5t142.5 -337.5q3 -150 -76 -279.5t-216.5 -205t-297.5 -72.5q-219 0 -361.5 133.5t-142.5 337.5zM752 498q0 66 -42 108.5t-108 42.5q-75 0 -128.5 -54.5t-53.5 -129.5q0 -66 41.5 -109t107.5 -43
q75 0 129 55t54 130zM367 1139l51 266h694l-51 -266h-694z" />
    <glyph glyph-name="Obreve" unicode="&#x14e;" horiz-adv-x="1603" 
d="M86 653q-3 163 62.5 314.5t176.5 261.5t265.5 175t320.5 62q147 2 278 -50t224 -143.5t146 -220t51 -272.5q3 -163 -62.5 -314.5t-177 -261.5t-266 -175t-320.5 -62q-196 -3 -357.5 86.5t-252.5 248t-88 351.5zM1176 750q0 134 -83.5 221.5t-213.5 87.5q-147 0 -253 -111
t-106 -264q0 -134 83.5 -221.5t213.5 -87.5q147 0 253 111t106 264zM674 1878q0 31 2 39h260q-4 -56 33.5 -91.5t95.5 -35.5q63 0 106.5 35.5t49.5 91.5h262q-12 -166 -137.5 -276.5t-303.5 -110.5q-154 0 -261 100.5t-107 247.5z" />
    <glyph glyph-name="obreve" unicode="&#x14f;" horiz-adv-x="1171" 
d="M39 438q-3 150 76 279.5t216.5 205t297.5 72.5q219 0 361.5 -133.5t142.5 -337.5q3 -150 -76 -279.5t-216.5 -205t-297.5 -72.5q-219 0 -361.5 133.5t-142.5 337.5zM752 498q0 66 -42 108.5t-108 42.5q-75 0 -128.5 -54.5t-53.5 -129.5q0 -66 41.5 -109t107.5 -43
q75 0 129 55t54 130zM383 1405q0 31 2 41h260q-4 -56 28.5 -91.5t84.5 -35.5q55 0 94 35.5t45 91.5h262q-12 -166 -133.5 -276.5t-290.5 -110.5q-149 0 -250.5 99t-101.5 247z" />
    <glyph glyph-name="Ohungarumlaut" unicode="&#x150;" horiz-adv-x="1603" 
d="M86 653q-3 163 62.5 314.5t176.5 261.5t265.5 175t320.5 62q147 2 278 -50t224 -143.5t146 -220t51 -272.5q3 -163 -62.5 -314.5t-177 -261.5t-266 -175t-320.5 -62q-196 -3 -357.5 86.5t-252.5 248t-88 351.5zM1176 750q0 134 -83.5 221.5t-213.5 87.5q-147 0 -253 -111
t-106 -264q0 -134 83.5 -221.5t213.5 -87.5q147 0 253 111t106 264zM659 1536l207 369h361l-320 -369h-248zM1102 1536l207 369h360l-319 -369h-248z" />
    <glyph glyph-name="ohungarumlaut" unicode="&#x151;" horiz-adv-x="1171" 
d="M39 438q-3 150 76 279.5t216.5 205t297.5 72.5q219 0 361.5 -133.5t142.5 -337.5q3 -150 -76 -279.5t-216.5 -205t-297.5 -72.5q-219 0 -361.5 133.5t-142.5 337.5zM752 498q0 66 -42 108.5t-108 42.5q-75 0 -128.5 -54.5t-53.5 -129.5q0 -66 41.5 -109t107.5 -43
q75 0 129 55t54 130zM362 1065l222 389h344l-330 -389h-236zM793 1065l221 389h344l-330 -389h-235z" />
    <glyph glyph-name="OE" unicode="&#x152;" horiz-adv-x="1859" 
d="M1898 1063h-499l-31 -154h401l-71 -370h-402l-32 -168h518l-123 -371h-918q-302 0 -481.5 170t-179.5 455q-4 223 110.5 410.5t315 295t438.5 103.5h973zM784 397h64l123 639h-66q-166 0 -278.5 -107.5t-112.5 -269.5q0 -121 72.5 -191.5t197.5 -70.5z" />
    <glyph glyph-name="oe" unicode="&#x153;" horiz-adv-x="1849" 
d="M1642 375l68 -283q-213 -125 -424 -125q-226 0 -360 156q-159 -156 -394 -156q-211 0 -352 134t-141 337q-2 111 44.5 215t125 179t186.5 119.5t223 43.5q111 0 204 -40.5t157 -114.5q155 155 383 155q199 0 325.5 -130.5t129.5 -358.5l-637 -207q48 -39 123 -39
q144 0 339 115zM1116 522l344 113q-41 63 -135 63q-74 0 -132 -49t-77 -127zM752 498q0 66 -42 108.5t-108 42.5q-75 0 -128.5 -54.5t-53.5 -129.5q0 -66 41.5 -109t107.5 -43q75 0 129 55t54 130z" />
    <glyph glyph-name="Racute" unicode="&#x154;" horiz-adv-x="1273" 
d="M956 578l213 -578h-477l-155 537l-105 -537h-428l279 1434h491q225 0 363.5 -116t138.5 -302q0 -147 -86 -264t-234 -174zM645 1098l-61 -312h63q86 0 144.5 52t58.5 127q0 62 -41.5 97.5t-114.5 35.5h-49zM633 1536l162 369h489l-297 -369h-354z" />
    <glyph glyph-name="racute" unicode="&#x155;" horiz-adv-x="770" 
d="M858 985l-70 -356q-139 0 -207 -54.5t-96 -187.5l-75 -387h-416l182 942l399 39l-30 -160q48 87 120.5 125.5t192.5 38.5zM281 1065l229 389h481l-354 -389h-356z" />
    <glyph glyph-name="Rcommaaccent" unicode="&#x156;" horiz-adv-x="1273" 
d="M956 578l213 -578h-477l-155 537l-105 -537h-428l279 1434h491q225 0 363.5 -116t138.5 -302q0 -147 -86 -264t-234 -174zM645 1098l-61 -312h63q86 0 144.5 52t58.5 127q0 62 -41.5 97.5t-114.5 35.5h-49zM190 -530l177 428h297l-222 -404z" />
    <glyph glyph-name="rcommaaccent" unicode="&#x157;" horiz-adv-x="770" 
d="M858 985l-70 -356q-139 0 -207 -54.5t-96 -187.5l-75 -387h-416l182 942l399 39l-30 -160q48 87 120.5 125.5t192.5 38.5zM-53 -530l176 428h297l-221 -404z" />
    <glyph glyph-name="Rcaron" unicode="&#x158;" horiz-adv-x="1273" 
d="M956 578l213 -578h-477l-155 537l-105 -537h-428l279 1434h491q225 0 363.5 -116t138.5 -302q0 -147 -86 -264t-234 -174zM645 1098l-61 -312h63q86 0 144.5 52t58.5 127q0 62 -41.5 97.5t-114.5 35.5h-49zM1020 1905h326l-310 -369h-409l-166 369h301l98 -154z" />
    <glyph glyph-name="rcaron" unicode="&#x159;" horiz-adv-x="770" 
d="M858 985l-70 -356q-139 0 -207 -54.5t-96 -187.5l-75 -387h-416l182 942l399 39l-30 -160q48 87 120.5 125.5t192.5 38.5zM694 1464h326l-334 -389h-369l-182 389h301l99 -153z" />
    <glyph glyph-name="Sacute" unicode="&#x15a;" horiz-adv-x="1140" 
d="M-2 147l115 351q101 -77 212.5 -122.5t194.5 -45.5q56 0 86.5 23.5t30.5 62.5q0 33 -28 61t-101 64l-84 41q-256 126 -256 397q0 213 156.5 350t400.5 137q228 0 467 -133l-115 -354q-97 60 -200.5 94.5t-174.5 34.5q-57 0 -89.5 -23.5t-32.5 -64.5q0 -64 100 -111
l82 -39q158 -73 230.5 -171.5t72.5 -239.5q0 -217 -150 -354.5t-389 -137.5q-142 0 -280 49t-248 131zM569 1536l162 369h490l-297 -369h-355z" />
    <glyph glyph-name="sacute" unicode="&#x15b;" horiz-adv-x="829" 
d="M-20 84l83 256q57 -43 121.5 -67.5t118.5 -24.5q62 0 62 41q0 19 -13 30.5t-55 32.5l-39 21q-80 42 -125 113.5t-45 162.5q0 147 113.5 246.5t290.5 99.5q84 0 176.5 -23t165.5 -65l-86 -260q-55 34 -125 56t-115 22q-28 0 -43.5 -12t-15.5 -31q0 -31 45 -51l38 -21
q107 -58 159 -132t52 -173q0 -149 -111 -243.5t-286 -94.5q-202 0 -366 117zM319 1065l230 389h481l-354 -389h-357z" />
    <glyph glyph-name="Scircumflex" unicode="&#x15c;" horiz-adv-x="1140" 
d="M-2 147l115 351q101 -77 212.5 -122.5t194.5 -45.5q56 0 86.5 23.5t30.5 62.5q0 33 -28 61t-101 64l-84 41q-256 126 -256 397q0 213 156.5 350t400.5 137q228 0 467 -133l-115 -354q-97 60 -200.5 94.5t-174.5 34.5q-57 0 -89.5 -23.5t-32.5 -64.5q0 -64 100 -111
l82 -39q158 -73 230.5 -171.5t72.5 -239.5q0 -217 -150 -354.5t-389 -137.5q-142 0 -280 49t-248 131zM1210 1536h-301l-98 154l-160 -154h-325l309 369h409z" />
    <glyph glyph-name="scircumflex" unicode="&#x15d;" horiz-adv-x="829" 
d="M-20 84l83 256q57 -43 121.5 -67.5t118.5 -24.5q62 0 62 41q0 19 -13 30.5t-55 32.5l-39 21q-80 42 -125 113.5t-45 162.5q0 147 113.5 246.5t290.5 99.5q84 0 176.5 -23t165.5 -65l-86 -260q-55 34 -125 56t-115 22q-28 0 -43.5 -12t-15.5 -31q0 -31 45 -51l38 -21
q107 -58 159 -132t52 -173q0 -149 -111 -243.5t-286 -94.5q-202 0 -366 117zM973 1065h-301l-99 154l-159 -154h-326l334 389h369z" />
    <glyph glyph-name="Scedilla" unicode="&#x15e;" horiz-adv-x="1140" 
d="M580 1020q0 -64 100 -111l82 -39q158 -73 230.5 -171.5t72.5 -239.5q0 -197 -127 -331.5t-332 -156.5l-262 -432l-307 182l256 279q-171 52 -295 147l115 351q101 -77 212.5 -122.5t194.5 -45.5q56 0 86.5 23.5t30.5 62.5q0 33 -28 61t-101 64l-84 41q-256 126 -256 397
q0 213 156.5 350t400.5 137q228 0 467 -133l-115 -354q-97 60 -200.5 94.5t-174.5 34.5q-57 0 -89.5 -23.5t-32.5 -64.5z" />
    <glyph glyph-name="scedilla" unicode="&#x15f;" horiz-adv-x="829" 
d="M449 682q0 -31 45 -51l38 -21q107 -58 159 -132t52 -173q0 -123 -74.5 -209.5t-203.5 -115.5l-266 -435l-293 174l252 277q-87 26 -178 88l83 256q57 -43 121.5 -67.5t118.5 -24.5q62 0 62 41q0 19 -13 30.5t-55 32.5l-39 21q-80 42 -125 113.5t-45 162.5
q0 147 113.5 246.5t290.5 99.5q84 0 176.5 -23t165.5 -65l-86 -260q-55 34 -125 56t-115 22q-28 0 -43.5 -12t-15.5 -31z" />
    <glyph glyph-name="Scaron" unicode="&#x160;" horiz-adv-x="1140" 
d="M-2 147l115 351q101 -77 212.5 -122.5t194.5 -45.5q56 0 86.5 23.5t30.5 62.5q0 33 -28 61t-101 64l-84 41q-256 126 -256 397q0 213 156.5 350t400.5 137q228 0 467 -133l-115 -354q-97 60 -200.5 94.5t-174.5 34.5q-57 0 -89.5 -23.5t-32.5 -64.5q0 -64 100 -111
l82 -39q158 -73 230.5 -171.5t72.5 -239.5q0 -217 -150 -354.5t-389 -137.5q-142 0 -280 49t-248 131zM956 1905h326l-309 -369h-410l-166 369h301l99 -154z" />
    <glyph glyph-name="scaron" unicode="&#x161;" horiz-adv-x="829" 
d="M-20 84l83 256q57 -43 121.5 -67.5t118.5 -24.5q62 0 62 41q0 19 -13 30.5t-55 32.5l-39 21q-80 42 -125 113.5t-45 162.5q0 147 113.5 246.5t290.5 99.5q84 0 176.5 -23t165.5 -65l-86 -260q-55 34 -125 56t-115 22q-28 0 -43.5 -12t-15.5 -31q0 -31 45 -51l38 -21
q107 -58 159 -132t52 -173q0 -149 -111 -243.5t-286 -94.5q-202 0 -366 117zM733 1464h326l-334 -389h-369l-182 389h301l98 -153z" />
    <glyph glyph-name="uni0162" unicode="&#x162;" horiz-adv-x="1126" 
d="M1241 1434l-18 -398h-336l-201 -1036h-426l201 1036h-340l133 398h987zM129 -530l176 428h297l-221 -404z" />
    <glyph glyph-name="uni0163" unicode="&#x163;" horiz-adv-x="813" 
d="M584 641l-39 -197q-2 -6 -2 -28q0 -38 25 -60t69 -22q55 0 111 16l-66 -334q-95 -30 -217 -30q-167 0 -260.5 83t-93.5 228q0 33 10 98l47 246h-111l64 322h110l33 172l447 161l-66 -333h221l-63 -322h-219zM12 -530l176 428h297l-221 -404z" />
    <glyph glyph-name="Tcaron" unicode="&#x164;" horiz-adv-x="1126" 
d="M1241 1434l-18 -398h-336l-201 -1036h-426l201 1036h-340l133 398h987zM958 1905h326l-309 -369h-410l-166 369h301l99 -154z" />
    <glyph glyph-name="tcaron" unicode="&#x165;" horiz-adv-x="813" 
d="M584 641l-39 -197q-2 -6 -2 -28q0 -38 25 -60t69 -22q55 0 111 16l-66 -334q-95 -30 -217 -30q-167 0 -260.5 83t-93.5 228q0 33 10 98l47 246h-111l64 322h110l33 172l447 161l-66 -333h221l-63 -322h-219zM719 1030l123 424h348l-170 -397z" />
    <glyph glyph-name="Tbar" unicode="&#x166;" horiz-adv-x="1126" 
d="M1223 1036h-336l-39 -198h162l-64 -324h-160l-100 -514h-426l100 514h-167l63 324h166l39 198h-340l133 398h987z" />
    <glyph glyph-name="tbar" unicode="&#x167;" horiz-adv-x="860" 
d="M840 698h-222l-8 -43h221l-51 -264h-211q15 -57 93 -57q54 0 110 16l-65 -334q-95 -30 -218 -30q-167 0 -260.5 83t-93.5 228q0 32 10 94h-129l52 264h129l8 43h-129l53 265h127l33 172l446 161l-65 -333h221z" />
    <glyph glyph-name="Utilde" unicode="&#x168;" horiz-adv-x="1396" 
d="M96 479q0 56 17 156l155 799h428l-164 -848q-6 -30 -6 -56q0 -72 40 -113.5t112 -41.5q186 0 233 237l160 822h428l-168 -867q-25 -126 -81 -232.5t-140 -188t-202.5 -127.5t-258.5 -46q-157 0 -280.5 56.5t-198 173t-74.5 276.5zM903 1597q-66 31 -110 31
q-37 0 -61 -18.5t-32 -50.5h-223q28 164 116 246.5t212 82.5q10 0 19.5 -0.5t19.5 -2t16.5 -2t18.5 -3.5t17 -4.5t19.5 -6t19.5 -6t23.5 -8t24.5 -8.5q64 -30 111 -30q76 0 92 69h223q-28 -165 -116 -247.5t-214 -82.5q-43 0 -77 8.5t-99 32.5z" />
    <glyph glyph-name="utilde" unicode="&#x169;" horiz-adv-x="1181" 
d="M768 942l424 41l-191 -983h-407l20 104q-108 -129 -280 -129q-136 0 -213.5 76.5t-77.5 216.5q0 54 12 115l109 559l424 41l-109 -563q-2 -6 -2 -27q0 -35 20.5 -55.5t55.5 -20.5q44 0 76 29.5t39 79.5zM698 1120q-63 31 -104 31q-70 0 -86 -70h-223q34 174 116 258
t201 84q28 0 55.5 -5.5t48 -12t64.5 -23.5q73 -30 107 -30q70 0 86 69h223q-34 -173 -117 -257.5t-203 -84.5q-28 0 -55.5 5.5t-48 12t-64.5 23.5z" />
    <glyph glyph-name="Umacron" unicode="&#x16a;" horiz-adv-x="1396" 
d="M96 479q0 56 17 156l155 799h428l-164 -848q-6 -30 -6 -56q0 -72 40 -113.5t112 -41.5q186 0 233 237l160 822h428l-168 -867q-25 -126 -81 -232.5t-140 -188t-202.5 -127.5t-258.5 -46q-157 0 -280.5 56.5t-198 173t-74.5 276.5zM549 1589l51 266h737l-51 -266h-737z
" />
    <glyph glyph-name="umacron" unicode="&#x16b;" horiz-adv-x="1181" 
d="M768 942l424 41l-191 -983h-407l20 104q-108 -129 -280 -129q-136 0 -213.5 76.5t-77.5 216.5q0 54 12 115l109 559l424 41l-109 -563q-2 -6 -2 -27q0 -35 20.5 -55.5t55.5 -20.5q44 0 76 29.5t39 79.5zM367 1139l51 266h694l-51 -266h-694z" />
    <glyph glyph-name="Ubreve" unicode="&#x16c;" horiz-adv-x="1396" 
d="M96 479q0 56 17 156l155 799h428l-164 -848q-6 -30 -6 -56q0 -72 40 -113.5t112 -41.5q186 0 233 237l160 822h428l-168 -867q-25 -126 -81 -232.5t-140 -188t-202.5 -127.5t-258.5 -46q-157 0 -280.5 56.5t-198 173t-74.5 276.5zM573 1878q0 31 2 39h261
q-4 -56 33.5 -91.5t95.5 -35.5q63 0 106 35.5t49 91.5h262q-12 -166 -137 -276.5t-303 -110.5q-154 0 -261.5 100.5t-107.5 247.5z" />
    <glyph glyph-name="ubreve" unicode="&#x16d;" horiz-adv-x="1181" 
d="M768 942l424 41l-191 -983h-407l20 104q-108 -129 -280 -129q-136 0 -213.5 76.5t-77.5 216.5q0 54 12 115l109 559l424 41l-109 -563q-2 -6 -2 -27q0 -35 20.5 -55.5t55.5 -20.5q44 0 76 29.5t39 79.5zM383 1405q0 31 2 41h260q-4 -56 28.5 -91.5t84.5 -35.5
q55 0 94 35.5t45 91.5h262q-12 -166 -133.5 -276.5t-290.5 -110.5q-149 0 -250.5 99t-101.5 247z" />
    <glyph glyph-name="Uring" unicode="&#x16e;" horiz-adv-x="1396" 
d="M96 479q0 56 17 156l155 799h428l-164 -848q-6 -30 -6 -56q0 -72 40 -113.5t112 -41.5q186 0 233 237l160 822h428l-168 -867q-25 -126 -81 -232.5t-140 -188t-202.5 -127.5t-258.5 -46q-157 0 -280.5 56.5t-198 173t-74.5 276.5zM688 1745q0 110 83 189t200 79
q103 0 172 -64t69 -163q0 -111 -81 -189.5t-199 -78.5q-105 0 -174.5 64t-69.5 163zM1057 1774q0 41 -26.5 67.5t-67.5 26.5q-51 0 -85 -32t-34 -79q0 -41 27.5 -67.5t68.5 -26.5q50 0 83.5 32t33.5 79z" />
    <glyph glyph-name="uring" unicode="&#x16f;" horiz-adv-x="1181" 
d="M768 942l424 41l-191 -983h-407l20 104q-108 -129 -280 -129q-136 0 -213.5 76.5t-77.5 216.5q0 54 12 115l109 559l424 41l-109 -563q-2 -6 -2 -27q0 -35 20.5 -55.5t55.5 -20.5q44 0 76 29.5t39 79.5zM485 1264q0 112 80 189t195 77q103 0 170 -63.5t67 -161.5
q0 -112 -80 -189.5t-194 -77.5q-103 0 -170.5 64t-67.5 162zM844 1292q0 41 -25.5 67.5t-66.5 26.5q-48 0 -80.5 -31.5t-32.5 -78.5q0 -41 25.5 -67.5t66.5 -26.5q48 0 80.5 31.5t32.5 78.5z" />
    <glyph glyph-name="Uhungarumlaut" unicode="&#x170;" horiz-adv-x="1396" 
d="M96 479q0 56 17 156l155 799h428l-164 -848q-6 -30 -6 -56q0 -72 40 -113.5t112 -41.5q186 0 233 237l160 822h428l-168 -867q-25 -126 -81 -232.5t-140 -188t-202.5 -127.5t-258.5 -46q-157 0 -280.5 56.5t-198 173t-74.5 276.5zM559 1536l207 369h360l-319 -369h-248z
M1001 1536l207 369h361l-320 -369h-248z" />
    <glyph glyph-name="uhungarumlaut" unicode="&#x171;" horiz-adv-x="1181" 
d="M768 942l424 41l-191 -983h-407l20 104q-108 -129 -280 -129q-136 0 -213.5 76.5t-77.5 216.5q0 54 12 115l109 559l424 41l-109 -563q-2 -6 -2 -27q0 -35 20.5 -55.5t55.5 -20.5q44 0 76 29.5t39 79.5zM362 1065l222 389h344l-330 -389h-236zM793 1065l221 389h344
l-330 -389h-235z" />
    <glyph glyph-name="Uogonek" unicode="&#x172;" horiz-adv-x="1396" 
d="M1071 1434h428l-168 -867q-33 -177 -128 -314.5t-242 -209.5q-73 -37 -104.5 -70.5t-31.5 -74.5q0 -30 19.5 -51t50.5 -21q24 0 45 8l-41 -213q-66 -16 -104 -16q-114 0 -183 65.5t-69 169.5q0 76 39 135q-216 20 -351 151t-135 353q0 56 17 156l155 799h428l-164 -848
q-6 -30 -6 -56q0 -72 40 -113.5t112 -41.5q186 0 233 237z" />
    <glyph glyph-name="uogonek" unicode="&#x173;" horiz-adv-x="1181" 
d="M860 -133q0 -27 18 -46.5t46 -19.5q17 0 41 6l-37 -192q-46 -14 -94 -14q-102 0 -166 59.5t-64 153.5q0 110 88 186h-98l20 104q-108 -129 -280 -129q-136 0 -213.5 76.5t-77.5 216.5q0 54 12 115l109 559l424 41l-109 -563q-2 -6 -2 -27q0 -35 20.5 -55.5t55.5 -20.5
q44 0 76 29.5t39 79.5l100 516l424 41l-191 -983q-141 -54 -141 -133z" />
    <glyph glyph-name="Wcircumflex" unicode="&#x174;" horiz-adv-x="1957" 
d="M1661 1434h461l-600 -1434h-398l-127 575l-348 -575h-395l-49 1434h430l14 -750l494 774l223 -780zM1604 1536h-301l-99 154l-160 -154h-325l309 369h410z" />
    <glyph glyph-name="wcircumflex" unicode="&#x175;" horiz-adv-x="1613" 
d="M1253 963h445l-465 -963h-377l-51 440l-236 -440h-376l-89 963h404l10 -445l246 445h274l47 -416zM1358 1065h-301l-99 154l-159 -154h-326l334 389h369z" />
    <glyph glyph-name="Ycircumflex" unicode="&#x176;" horiz-adv-x="1314" 
d="M1493 1434l-623 -930l-98 -504h-428l96 498l-250 936h443l96 -457l268 457h496zM1286 1536h-301l-98 154l-160 -154h-326l310 369h409z" />
    <glyph glyph-name="ycircumflex" unicode="&#x177;" horiz-adv-x="1105" 
d="M758 963h442l-774 -1393h-446l270 412l-156 981h420l25 -490zM1104 1065h-301l-98 154l-160 -154h-326l334 389h369z" />
    <glyph glyph-name="Ydieresis" unicode="&#x178;" horiz-adv-x="1314" 
d="M1493 1434l-623 -930l-98 -504h-428l96 498l-250 936h443l96 -457l268 457h496zM387 1700q0 91 68 155t163 64q86 0 142.5 -53.5t56.5 -136.5q0 -92 -68.5 -156t-162.5 -64q-86 0 -142.5 54t-56.5 137zM940 1700q0 91 68 155t163 64q86 0 142.5 -53.5t56.5 -136.5
q0 -92 -68.5 -156t-162.5 -64q-86 0 -142.5 54t-56.5 137z" />
    <glyph glyph-name="Zacute" unicode="&#x179;" horiz-adv-x="1232" 
d="M1391 1434l-697 -1047h465l-125 -387h-1102l695 1032h-461l131 402h1094zM623 1536l161 369h490l-297 -369h-354z" />
    <glyph glyph-name="zacute" unicode="&#x17a;" horiz-adv-x="987" 
d="M1055 963l-465 -629h315l-108 -334h-865l459 629h-321l108 334h877zM391 1065l230 389h481l-354 -389h-357z" />
    <glyph glyph-name="Zdotaccent" unicode="&#x17b;" horiz-adv-x="1232" 
d="M1391 1434l-697 -1047h465l-125 -387h-1102l695 1032h-461l131 402h1094zM610 1724q0 104 79.5 180t189.5 76q103 0 168 -62.5t65 -160.5q0 -104 -79 -180t-189 -76q-103 0 -168.5 62.5t-65.5 160.5z" />
    <glyph glyph-name="zdotaccent" unicode="&#x17c;" horiz-adv-x="987" 
d="M1055 963l-465 -629h315l-108 -334h-865l459 629h-321l108 334h877zM408 1249q0 100 76 172t182 72q96 0 158.5 -59t62.5 -152q0 -100 -76 -172t-182 -72q-96 0 -158.5 59t-62.5 152z" />
    <glyph glyph-name="Zcaron" unicode="&#x17d;" horiz-adv-x="1232" 
d="M1391 1434l-697 -1047h465l-125 -387h-1102l695 1032h-461l131 402h1094zM1010 1905h325l-309 -369h-410l-165 369h301l98 -154z" />
    <glyph glyph-name="zcaron" unicode="&#x17e;" horiz-adv-x="987" 
d="M1055 963l-465 -629h315l-108 -334h-865l459 629h-321l108 334h877zM805 1464h325l-333 -389h-369l-182 389h301l98 -153z" />
    <glyph glyph-name="florin" unicode="&#x192;" horiz-adv-x="872" 
d="M967 1464h55l-68 -352h-26q-150 0 -197 -145l-2 -4h162l-66 -334h-200l-199 -629h-416l199 629h-119l66 334h157l6 18q76 245 232 364t416 119z" />
    <glyph glyph-name="Scommaaccent" unicode="&#x218;" horiz-adv-x="1140" 
d="M-2 147l115 351q101 -77 212.5 -122.5t194.5 -45.5q56 0 86.5 23.5t30.5 62.5q0 33 -28 61t-101 64l-84 41q-256 126 -256 397q0 213 156.5 350t400.5 137q228 0 467 -133l-115 -354q-97 60 -200.5 94.5t-174.5 34.5q-57 0 -89.5 -23.5t-32.5 -64.5q0 -64 100 -111
l82 -39q158 -73 230.5 -171.5t72.5 -239.5q0 -217 -150 -354.5t-389 -137.5q-142 0 -280 49t-248 131zM127 -530l176 428h297l-221 -404z" />
    <glyph glyph-name="scommaaccent" unicode="&#x219;" horiz-adv-x="829" 
d="M-20 84l83 256q57 -43 121.5 -67.5t118.5 -24.5q62 0 62 41q0 19 -13 30.5t-55 32.5l-39 21q-80 42 -125 113.5t-45 162.5q0 147 113.5 246.5t290.5 99.5q84 0 176.5 -23t165.5 -65l-86 -260q-55 34 -125 56t-115 22q-28 0 -43.5 -12t-15.5 -31q0 -31 45 -51l38 -21
q107 -58 159 -132t52 -173q0 -149 -111 -243.5t-286 -94.5q-202 0 -366 117zM-12 -530l176 428h297l-221 -404z" />
    <glyph glyph-name="uni021A" unicode="&#x21a;" horiz-adv-x="1126" 
d="M1241 1434l-18 -398h-336l-201 -1036h-426l201 1036h-340l133 398h987zM129 -530l176 428h297l-221 -404z" />
    <glyph glyph-name="uni021B" unicode="&#x21b;" horiz-adv-x="813" 
d="M584 641l-39 -197q-2 -6 -2 -28q0 -38 25 -60t69 -22q55 0 111 16l-66 -334q-95 -30 -217 -30q-167 0 -260.5 83t-93.5 228q0 33 10 98l47 246h-111l64 322h110l33 172l447 161l-66 -333h221l-63 -322h-219zM12 -530l176 428h297l-221 -404z" />
    <glyph glyph-name="dotlessj" unicode="&#x237;" horiz-adv-x="593" 
d="M-215 -446l65 348q69 5 104 33t48 98l176 909l424 41l-186 -963q-46 -241 -195 -352t-436 -114z" />
    <glyph glyph-name="circumflex" unicode="&#x2c6;" horiz-adv-x="819" 
d="M961 1065h-302l-98 154l-160 -154h-325l334 389h368z" />
    <glyph glyph-name="caron" unicode="&#x2c7;" horiz-adv-x="819" 
d="M721 1464h326l-334 -389h-369l-182 389h301l98 -153z" />
    <glyph glyph-name="uni02C9" unicode="&#x2c9;" 
d="M293 1139l51 266h694l-51 -266h-694z" />
    <glyph glyph-name="breve" unicode="&#x2d8;" horiz-adv-x="819" 
d="M207 1405q0 31 2 41h260q-4 -56 28.5 -91.5t84.5 -35.5q55 0 94 35.5t45 91.5h262q-12 -166 -133.5 -276.5t-290.5 -110.5q-149 0 -250.5 99t-101.5 247z" />
    <glyph glyph-name="dotaccent" unicode="&#x2d9;" horiz-adv-x="819" 
d="M324 1249q0 100 76 172t182 72q96 0 158.5 -59t62.5 -152q0 -100 -76 -172t-182 -72q-96 0 -158.5 59t-62.5 152z" />
    <glyph glyph-name="ring" unicode="&#x2da;" horiz-adv-x="819" 
d="M309 1264q0 112 80 189t195 77q103 0 170 -63.5t67 -161.5q0 -112 -80 -189.5t-194 -77.5q-103 0 -170.5 64t-67.5 162zM668 1292q0 41 -26 67.5t-67 26.5q-47 0 -79.5 -31.5t-32.5 -78.5q0 -41 25.5 -67.5t66.5 -26.5q48 0 80.5 31.5t32.5 78.5z" />
    <glyph glyph-name="ogonek" unicode="&#x2db;" horiz-adv-x="819" 
d="M-82 -186q0 111 90.5 189t259.5 132l47 -135q-141 -54 -141 -133q0 -27 18 -46.5t46 -19.5q17 0 41 6l-37 -192q-49 -14 -95 -14q-102 0 -165.5 59.5t-63.5 153.5z" />
    <glyph glyph-name="tilde" unicode="&#x2dc;" horiz-adv-x="819" 
d="M522 1120q-63 31 -104 31q-70 0 -86 -70h-223q34 174 116 258t201 84q28 0 55.5 -5.5t48 -12t64.5 -23.5q73 -30 106 -30q70 0 86 69h224q-34 -173 -117 -257.5t-203 -84.5q-28 0 -55.5 5.5t-48 12t-64.5 23.5z" />
    <glyph glyph-name="hungarumlaut" unicode="&#x2dd;" horiz-adv-x="819" 
d="M186 1065l222 389h344l-330 -389h-236zM616 1065l222 389h344l-330 -389h-236z" />
    <glyph glyph-name="gravecomb" unicode="&#x300;" horiz-adv-x="0" 
d="M-201 1065h-331l-207 389h456z" />
    <glyph glyph-name="acutecomb" unicode="&#x301;" horiz-adv-x="0" 
d="M-614 1065l229 389h481l-354 -389h-356z" />
    <glyph glyph-name="circumflexcomb" unicode="&#x302;" horiz-adv-x="0" 
d="M39 1065h-301l-98 154l-160 -154h-326l334 389h369z" />
    <glyph glyph-name="tildecomb" unicode="&#x303;" horiz-adv-x="0" 
d="M-399 1120q-63 31 -105 31q-70 0 -86 -70h-223q34 174 116 258t201 84q28 0 55.5 -5.5t48 -12t64.5 -23.5q73 -30 107 -30q70 0 86 69h223q-34 -173 -116.5 -257.5t-202.5 -84.5q-28 0 -55.5 5.5t-48 12t-64.5 23.5z" />
    <glyph glyph-name="macroncomb" unicode="&#x304;" horiz-adv-x="0" 
d="M-731 1139l51 266h694l-51 -266h-694z" />
    <glyph glyph-name="brevecomb" unicode="&#x306;" horiz-adv-x="0" 
d="M-715 1405q0 31 2 41h260q-4 -56 28.5 -91.5t84.5 -35.5q55 0 94 35.5t45 91.5h262q-12 -166 -133 -276.5t-290 -110.5q-150 0 -251.5 99.5t-101.5 246.5z" />
    <glyph glyph-name="dotaccentcomb" unicode="&#x307;" horiz-adv-x="0" 
d="M-598 1249q0 100 76 172t182 72q96 0 158.5 -59t62.5 -152q0 -100 -76 -172t-182 -72q-96 0 -158.5 59t-62.5 152z" />
    <glyph glyph-name="dieresiscomb" unicode="&#x308;" horiz-adv-x="0" 
d="M-795 1235q0 80 62 138.5t147 58.5q77 0 128.5 -49.5t51.5 -122.5q0 -80 -61.5 -138.5t-146.5 -58.5q-77 0 -129 49.5t-52 122.5zM-322 1235q0 80 62 138.5t147 58.5q77 0 129 -49.5t52 -122.5q0 -80 -62 -138.5t-147 -58.5q-77 0 -129 49.5t-52 122.5z" />
    <glyph glyph-name="ringcomb" unicode="&#x30a;" horiz-adv-x="0" 
d="M-612 1264q0 112 80 189t194 77q103 0 170.5 -63.5t67.5 -161.5q0 -112 -80.5 -189.5t-194.5 -77.5q-103 0 -170 64t-67 162zM-254 1292q0 41 -25.5 67.5t-66.5 26.5q-48 0 -80.5 -31.5t-32.5 -78.5q0 -41 25.5 -67.5t66.5 -26.5q48 0 80.5 31.5t32.5 78.5z" />
    <glyph glyph-name="hungarumlautcomb" unicode="&#x30b;" horiz-adv-x="0" 
d="M-735 1065l221 389h344l-330 -389h-235zM-305 1065l221 389h344l-330 -389h-235z" />
    <glyph glyph-name="caroncomb" unicode="&#x30c;" horiz-adv-x="0" 
d="M-201 1464h326l-334 -389h-369l-182 389h301l99 -153z" />
    <glyph glyph-name="commaturnedabovecomb" unicode="&#x312;" horiz-adv-x="0" 
d="M-76 1493l-176 -428h-297l221 403z" />
    <glyph glyph-name="commaaccent" unicode="&#x326;" horiz-adv-x="0" 
d="M-948 -530l176 428h297l-221 -404z" />
    <glyph glyph-name="cedillacomb" unicode="&#x327;" horiz-adv-x="0" 
d="M-737 -455l-293 174l303 332h299z" />
    <glyph glyph-name="ogonekcomb" unicode="&#x328;" horiz-adv-x="0" 
d="M-1004 -186q0 210 351 321l47 -135q-142 -54 -142 -133q0 -27 18 -46.5t46 -19.5q17 0 41 6l-37 -192q-49 -14 -94 -14q-102 0 -166 59.5t-64 153.5z" />
    <glyph glyph-name="uni0335" unicode="&#x335;" horiz-adv-x="0" 
d="M-889 588l55 282h795l-55 -282h-795z" />
    <glyph glyph-name="uni0336" unicode="&#x336;" horiz-adv-x="0" 
d="M-1202 608l51 262h1430l-52 -262h-1429z" />
    <glyph glyph-name="uni0337" unicode="&#x337;" horiz-adv-x="0" 
d="M-844 381l70 352l692 361l-70 -353z" />
    <glyph glyph-name="uni0338" unicode="&#x338;" horiz-adv-x="0" 
d="M-958 -37l-103 113l995 919l101 -112z" />
    <glyph glyph-name="uni0394" unicode="&#x394;" horiz-adv-x="1480" 
d="M1186 1434l190 -1434h-1460l764 1434h506zM553 360h360l-57 672z" />
    <glyph glyph-name="uni03A9" unicode="&#x3a9;" horiz-adv-x="1531" 
d="M1249 344h185l-68 -344h-575l96 494q109 28 177.5 118.5t68.5 204.5t-80 190t-201 76q-135 0 -230.5 -94.5t-95.5 -224.5q0 -102 54 -175.5t147 -96.5l-96 -492h-611l68 344h236q-94 72 -146.5 181.5t-52.5 232.5q-3 142 57 273.5t161.5 227.5t243 152.5t294.5 54.5
q140 2 263 -43.5t209.5 -125.5t136 -192.5t48.5 -238.5q0 -161 -77 -299t-212 -223z" />
    <glyph glyph-name="uni03BC" unicode="&#x3bc;" horiz-adv-x="1193" 
d="M780 942l424 41l-190 -983h-408l8 43q-47 -47 -114 -47q-57 0 -84 41l-90 -467h-416l266 1372l424 41l-113 -584q-2 -6 -2 -26q0 -35 20.5 -55.5t57.5 -20.5q42 0 74 29.5t39 79.5z" />
    <glyph glyph-name="pi" unicode="&#x3c0;" horiz-adv-x="1443" 
d="M1210 629l-34 -185q-2 -6 -2 -28q0 -38 25 -60t69 -22q54 0 110 16l-65 -334q-95 -30 -217 -30q-168 0 -262.5 83t-94.5 228q0 27 11 98l45 234h-150l-121 -629h-415l120 629h-198l108 334h1358l-65 -334h-222z" />
    <glyph glyph-name="Wgrave" unicode="&#x1e80;" horiz-adv-x="1957" 
d="M1661 1434h461l-600 -1434h-398l-127 575l-348 -575h-395l-49 1434h430l14 -750l494 774l223 -780zM1360 1536h-354l-297 369h489z" />
    <glyph glyph-name="wgrave" unicode="&#x1e81;" horiz-adv-x="1613" 
d="M1253 963h445l-465 -963h-377l-51 440l-236 -440h-376l-89 963h404l10 -445l246 445h274l47 -416zM1118 1065h-332l-206 389h456z" />
    <glyph glyph-name="Wacute" unicode="&#x1e82;" horiz-adv-x="1957" 
d="M1661 1434h461l-600 -1434h-398l-127 575l-348 -575h-395l-49 1434h430l14 -750l494 774l223 -780zM963 1536l161 369h490l-297 -369h-354z" />
    <glyph glyph-name="wacute" unicode="&#x1e83;" horiz-adv-x="1613" 
d="M1253 963h445l-465 -963h-377l-51 440l-236 -440h-376l-89 963h404l10 -445l246 445h274l47 -416zM705 1065l229 389h481l-354 -389h-356z" />
    <glyph glyph-name="Wdieresis" unicode="&#x1e84;" horiz-adv-x="1957" 
d="M1661 1434h461l-600 -1434h-398l-127 575l-348 -575h-395l-49 1434h430l14 -750l494 774l223 -780zM705 1700q0 91 68 155t163 64q86 0 142.5 -53.5t56.5 -136.5q0 -91 -68.5 -155.5t-163.5 -64.5q-86 0 -142 54t-56 137zM1257 1700q0 91 68.5 155t163.5 64
q86 0 142.5 -53.5t56.5 -136.5q0 -91 -68.5 -155.5t-163.5 -64.5q-86 0 -142.5 54t-56.5 137z" />
    <glyph glyph-name="wdieresis" unicode="&#x1e85;" horiz-adv-x="1613" 
d="M1253 963h445l-465 -963h-377l-51 440l-236 -440h-376l-89 963h404l10 -445l246 445h274l47 -416zM524 1235q0 80 62 138.5t147 58.5q77 0 128.5 -49.5t51.5 -122.5q0 -80 -61.5 -138.5t-146.5 -58.5q-77 0 -129 49.5t-52 122.5zM997 1235q0 80 62 138.5t147 58.5
q77 0 128.5 -49.5t51.5 -122.5q0 -80 -61.5 -138.5t-146.5 -58.5q-77 0 -129 49.5t-52 122.5z" />
    <glyph glyph-name="Germandbls" unicode="&#x1e9e;" horiz-adv-x="2260" 
d="M-2 147l115 351q101 -77 212.5 -122.5t194.5 -45.5q56 0 86.5 23.5t30.5 62.5q0 33 -28 61t-101 64l-84 41q-256 126 -256 397q0 213 156.5 350t400.5 137q228 0 467 -133l-115 -354q-97 60 -200.5 94.5t-174.5 34.5q-57 0 -89.5 -23.5t-32.5 -64.5q0 -64 100 -111
l82 -39q158 -73 230.5 -171.5t72.5 -239.5q0 -217 -150 -354.5t-389 -137.5q-142 0 -280 49t-248 131zM1118 147l115 351q101 -77 212.5 -122.5t194.5 -45.5q56 0 86.5 23.5t30.5 62.5q0 33 -28 61t-101 64l-84 41q-256 126 -256 397q0 213 156.5 350t400.5 137
q228 0 467 -133l-114 -354q-97 60 -200.5 94.5t-174.5 34.5q-57 0 -90 -23.5t-33 -64.5q0 -64 100 -111l82 -39q158 -73 230.5 -171.5t72.5 -239.5q0 -217 -149.5 -354.5t-388.5 -137.5q-142 0 -280.5 49t-248.5 131z" />
    <glyph glyph-name="Ygrave" unicode="&#x1ef2;" horiz-adv-x="1314" 
d="M1493 1434l-623 -930l-98 -504h-428l96 498l-250 936h443l96 -457l268 457h496zM1042 1536h-354l-297 369h490z" />
    <glyph glyph-name="ygrave" unicode="&#x1ef3;" horiz-adv-x="1105" 
d="M758 963h442l-774 -1393h-446l270 412l-156 981h420l25 -490zM864 1065h-332l-206 389h456z" />
    <glyph glyph-name="uni2011" unicode="&#x2011;" horiz-adv-x="757" 
d="M23 334l65 336h655l-65 -336h-655z" />
    <glyph glyph-name="endash" unicode="&#x2013;" horiz-adv-x="1024" 
d="M12 338l64 328h942l-64 -328h-942z" />
    <glyph glyph-name="emdash" unicode="&#x2014;" horiz-adv-x="1843" 
d="M12 338l64 328h1761l-63 -328h-1762z" />
    <glyph glyph-name="quoteleft" unicode="&#x2018;" horiz-adv-x="634" 
d="M784 1456l-301 -694h-387l367 663z" />
    <glyph glyph-name="quoteright" unicode="&#x2019;" horiz-adv-x="634" 
d="M92 741l301 695h387l-366 -664z" />
    <glyph glyph-name="quotesinglbase" unicode="&#x201a;" horiz-adv-x="634" 
d="M-154 -307l301 694h388l-367 -663z" />
    <glyph glyph-name="quotedblleft" unicode="&#x201c;" horiz-adv-x="1187" 
d="M784 1456l-301 -694h-387l367 663zM1337 1456l-301 -694h-387l367 663z" />
    <glyph glyph-name="quotedblright" unicode="&#x201d;" horiz-adv-x="1187" 
d="M92 741l301 695h387l-366 -664zM645 741l301 695h387l-366 -664z" />
    <glyph glyph-name="quotedblbase" unicode="&#x201e;" horiz-adv-x="1187" 
d="M-154 -307l301 694h388l-367 -663zM399 -307l301 694h387l-366 -663z" />
    <glyph glyph-name="dagger" unicode="&#x2020;" horiz-adv-x="876" 
d="M938 1223l-53 -275h-205l-127 -661h-303l127 661h-205l53 275h205l41 211h303l-41 -211h205z" />
    <glyph glyph-name="daggerdbl" unicode="&#x2021;" horiz-adv-x="876" 
d="M885 948h-205l-33 -176h205l-53 -274h-205l-41 -211h-303l41 211h-205l53 274h205l33 176h-205l53 275h205l41 211h303l-41 -211h205z" />
    <glyph glyph-name="bullet" unicode="&#x2022;" horiz-adv-x="905" 
d="M86 467q0 107 56 198t146 143t191 52q146 0 245 -99t99 -245q0 -107 -56 -198t-146 -143t-191 -52q-146 0 -245 99t-99 245z" />
    <glyph glyph-name="ellipsis" unicode="&#x2026;" horiz-adv-x="1845" 
d="M29 188q0 101 78.5 175.5t185.5 74.5q100 0 163.5 -61t63.5 -156q0 -101 -78.5 -175.5t-185.5 -74.5q-100 0 -163.5 61t-63.5 156zM623 188q0 101 78.5 175.5t185.5 74.5q100 0 163.5 -61t63.5 -156q0 -101 -78.5 -175.5t-185.5 -74.5q-100 0 -163.5 61t-63.5 156z
M1217 188q0 101 78.5 175.5t185.5 74.5q100 0 163.5 -61t63.5 -156q0 -101 -78.5 -175.5t-185.5 -74.5q-100 0 -163.5 61t-63.5 156z" />
    <glyph glyph-name="perthousand" unicode="&#x2030;" horiz-adv-x="2449" 
d="M295 -29l-131 138l1362 1353l131 -137zM950 303q0 117 46 221.5t132 171t193 66.5q128 0 202 -89t74 -231q0 -118 -44.5 -222t-129 -170t-190.5 -66q-130 0 -206.5 88.5t-76.5 230.5zM1370 442q0 111 -65 111q-38 0 -68 -44.5t-43.5 -100.5t-13.5 -105q0 -110 65 -110
q38 0 68 44.5t43.5 100t13.5 104.5zM223 989q0 117 46 221.5t132 171t193 66.5q128 0 202 -89t74 -231q0 -118 -44.5 -222t-129 -170t-190.5 -66q-130 0 -206.5 88.5t-76.5 230.5zM643 1128q0 111 -65 111q-38 0 -68 -44.5t-43.5 -100.5t-13.5 -105q0 -110 65 -110
q38 0 68 44.5t43.5 100t13.5 104.5zM1669 303q0 117 46 221.5t132 171t193 66.5q128 0 202 -89t74 -231q0 -118 -44.5 -222t-129 -170t-190.5 -66q-130 0 -206.5 88.5t-76.5 230.5zM2089 442q0 111 -66 111q-38 0 -68 -44.5t-43.5 -100.5t-13.5 -105q0 -110 66 -110
q38 0 68 44.5t43.5 100t13.5 104.5z" />
    <glyph glyph-name="guilsinglleft" unicode="&#x2039;" horiz-adv-x="718" 
d="M670 809l-269 -350l136 -336l-279 -125l-195 498l371 493z" />
    <glyph glyph-name="guilsinglright" unicode="&#x203a;" horiz-adv-x="718" 
d="M465 989l194 -497l-370 -494l-236 180l269 350l-136 336z" />
    <glyph glyph-name="fraction" unicode="&#x2044;" horiz-adv-x="356" 
d="M-391 -29l-131 138l1362 1353l131 -137z" />
    <glyph glyph-name="zero.superior" unicode="&#x2070;" horiz-adv-x="706" 
d="M182 1194q0 117 46 221.5t132 171t193 66.5q128 0 202 -89t74 -231q0 -118 -44.5 -222t-129 -170.5t-190.5 -66.5q-130 0 -206.5 89t-76.5 231zM602 1333q0 111 -65 111q-38 0 -68 -44.5t-43.5 -100.5t-13.5 -105q0 -111 65 -111q38 0 68 44.5t43.5 100.5t13.5 105z" />
    <glyph glyph-name="four.superior" unicode="&#x2074;" horiz-adv-x="737" 
d="M801 1636l-90 -458h73l-39 -197h-71l-19 -90h-209l19 90h-326l37 188l375 467h250zM414 1178h90l33 157z" />
    <glyph glyph-name="five.superior" unicode="&#x2075;" horiz-adv-x="591" 
d="M696 1442h-252l-12 -53q6 2 33 2q94 0 158.5 -68t64.5 -168q0 -118 -96 -199.5t-232 -81.5q-126 0 -237 48l70 188q78 -35 159 -35q49 0 80 20t31 54q0 63 -103 63q-58 0 -157 -22l88 446h469z" />
    <glyph glyph-name="six.superior" unicode="&#x2076;" horiz-adv-x="657" 
d="M758 1143q0 -116 -92 -192.5t-220 -76.5q-124 0 -206 78t-82 197q0 153 125 290t352 222l104 -170q-160 -50 -239 -102h12q99 0 172.5 -72.5t73.5 -173.5zM535 1155q0 29 -20.5 48.5t-51.5 19.5t-55.5 -23t-24.5 -53q0 -29 20.5 -48.5t51.5 -19.5t55.5 23t24.5 53z" />
    <glyph glyph-name="seven.superior" unicode="&#x2077;" horiz-adv-x="612" 
d="M272 1636h559l-409 -745h-254l299 532h-264z" />
    <glyph glyph-name="eight.superior" unicode="&#x2078;" horiz-adv-x="655" 
d="M741 1116q0 -103 -89 -172.5t-218 -69.5q-121 0 -199.5 61t-78.5 155q0 61 34.5 113.5t96.5 84.5q-54 60 -54 129q0 100 83.5 168t207.5 68q115 0 193 -59.5t78 -149.5q0 -57 -31 -107t-86 -82q63 -54 63 -139zM449 1403q0 -23 16 -39t39 -16q25 0 44 18.5t19 44.5
q0 23 -16 39t-39 16q-25 0 -44 -18.5t-19 -44.5zM522 1133q0 26 -18.5 43.5t-44.5 17.5q-29 0 -50.5 -20.5t-21.5 -49.5q0 -26 18.5 -43.5t45.5 -17.5q30 0 50.5 20t20.5 50z" />
    <glyph glyph-name="nine.superior" unicode="&#x2079;" horiz-adv-x="655" 
d="M803 1378q0 -153 -125 -290t-352 -222l-105 170q159 50 240 103h-12q-99 0 -172.5 71.5t-73.5 173.5q0 116 92 192.5t219 76.5q124 0 206.5 -78t82.5 -197zM498 1305q31 0 55.5 22.5t24.5 52.5q0 29 -20.5 48.5t-51.5 19.5t-55.5 -23t-24.5 -53q0 -29 20.5 -48t51.5 -19z
" />
    <glyph glyph-name="uni207A" unicode="&#x207a;" horiz-adv-x="616" 
d="M737 1333l-32 -172h-173l-32 -170h-183l33 170h-172l33 172h172l33 168h182l-33 -168h172z" />
    <glyph glyph-name="uni207B" unicode="&#x207b;" horiz-adv-x="618" 
d="M178 1161l33 172h528l-32 -172h-529z" />
    <glyph glyph-name="uni207C" unicode="&#x207c;" horiz-adv-x="649" 
d="M211 1278l33 164h536l-32 -164h-537zM162 1024l33 162h536l-33 -162h-536z" />
    <glyph glyph-name="uni207D" unicode="&#x207d;" horiz-adv-x="464" 
d="M211 1198q0 177 101.5 326.5t265.5 220.5l71 -158q-113 -51 -184.5 -156t-71.5 -233q0 -170 125 -283l-108 -139q-94 76 -146.5 185.5t-52.5 236.5z" />
    <glyph glyph-name="uni207E" unicode="&#x207e;" horiz-adv-x="464" 
d="M557 1323q0 -177 -101.5 -326.5t-265.5 -220.5l-71 158q113 51 184.5 156t71.5 233q0 171 -125 283l108 139q94 -76 146.5 -185.5t52.5 -236.5z" />
    <glyph glyph-name="zero.inferior" unicode="&#x2080;" horiz-adv-x="706" 
d="M-31 98q0 117 46 221.5t132 171t193 66.5q128 0 202 -88.5t74 -230.5q0 -118 -44.5 -222t-129 -170.5t-190.5 -66.5q-130 0 -206.5 88.5t-76.5 230.5zM389 238q0 110 -65 110q-38 0 -68 -44.5t-43.5 -100.5t-13.5 -105q0 -110 65 -110q38 0 68 44.5t43.5 100.5t13.5 105z
" />
    <glyph glyph-name="one.inferior" unicode="&#x2081;" horiz-adv-x="466" 
d="M-4 403l414 166l-152 -774h-223l86 424l-129 -43z" />
    <glyph glyph-name="two.inferior" unicode="&#x2082;" horiz-adv-x="684" 
d="M430 43l-47 -43h141l-67 -205h-543l354 369q90 95 90 137q0 23 -17 39t-42 16q-30 0 -50 -19.5t-20 -49.5q0 -33 21 -70l-217 -35q-25 55 -25 109q0 110 89.5 191t211.5 81q114 0 192.5 -73t78.5 -179q0 -70 -36.5 -133.5t-113.5 -134.5z" />
    <glyph glyph-name="three.inferior" unicode="&#x2083;" horiz-adv-x="612" 
d="M496 61q0 -121 -96.5 -201.5t-237.5 -80.5q-131 0 -244 88l109 178q83 -65 145 -65q40 0 68 18t28 49q0 32 -27 52t-75 20q-34 0 -92 -6l137 233h-209l64 195h505l-196 -289q55 -24 88 -75t33 -116z" />
    <glyph glyph-name="four.inferior" unicode="&#x2084;" horiz-adv-x="737" 
d="M588 541l-90 -459h73l-39 -197h-71l-19 -90h-209l19 90h-326l37 189l375 467h250zM201 82h90l33 158z" />
    <glyph glyph-name="five.inferior" unicode="&#x2085;" horiz-adv-x="591" 
d="M483 346h-252l-12 -53q6 2 33 2q94 0 158.5 -68t64.5 -168q0 -118 -96 -199t-232 -81q-128 0 -237 47l70 188q75 -34 159 -34q49 0 80 19.5t31 53.5q0 64 -103 64q-53 0 -157 -23l88 447h469z" />
    <glyph glyph-name="six.inferior" unicode="&#x2086;" horiz-adv-x="657" 
d="M545 47q0 -116 -92 -192t-220 -76q-124 0 -206 77.5t-82 196.5q0 153 125 290t352 222l104 -170q-160 -50 -239 -102h12q99 0 172.5 -72.5t73.5 -173.5zM322 59q0 29 -20.5 48.5t-51.5 19.5t-55.5 -23t-24.5 -53q0 -29 20.5 -48t51.5 -19t55.5 22.5t24.5 52.5z" />
    <glyph glyph-name="seven.inferior" unicode="&#x2087;" horiz-adv-x="612" 
d="M59 541h559l-409 -746h-254l299 533h-264z" />
    <glyph glyph-name="eight.inferior" unicode="&#x2088;" horiz-adv-x="655" 
d="M528 20q0 -102 -89 -171.5t-218 -69.5q-121 0 -199.5 60.5t-78.5 154.5q0 61 34.5 114t96.5 85q-54 60 -54 129q0 100 83.5 167.5t207.5 67.5q115 0 193 -59.5t78 -149.5q0 -57 -30.5 -106.5t-86.5 -81.5q63 -54 63 -140zM236 307q0 -23 16 -39t39 -16q25 0 44 18.5
t19 44.5q0 23 -16 39.5t-39 16.5q-25 0 -44 -19t-19 -45zM309 37q0 26 -18.5 43.5t-44.5 17.5q-30 0 -51 -20t-21 -49q0 -26 19 -44t45 -18q30 0 50.5 20t20.5 50z" />
    <glyph glyph-name="nine.inferior" unicode="&#x2089;" horiz-adv-x="655" 
d="M590 283q0 -153 -125 -290t-352 -222l-105 170q162 50 240 102h-12q-99 0 -172.5 72t-73.5 174q0 116 91.5 192t219.5 76q124 0 206.5 -77.5t82.5 -196.5zM285 209q31 0 55.5 23t24.5 53q0 29 -20.5 48t-51.5 19t-55.5 -23t-24.5 -53q0 -29 20.5 -48t51.5 -19z" />
    <glyph glyph-name="uni208A" unicode="&#x208a;" horiz-adv-x="616" 
d="M524 238l-32 -172h-173l-32 -170h-183l33 170h-172l33 172h172l33 168h182l-33 -168h172z" />
    <glyph glyph-name="uni208B" unicode="&#x208b;" horiz-adv-x="618" 
d="M-35 66l33 172h528l-32 -172h-529z" />
    <glyph glyph-name="uni208C" unicode="&#x208c;" horiz-adv-x="649" 
d="M-2 182l33 164h536l-32 -164h-537zM-51 -72l33 162h536l-33 -162h-536z" />
    <glyph glyph-name="uni208D" unicode="&#x208d;" horiz-adv-x="464" 
d="M-2 102q0 177 101.5 326.5t265.5 220.5l71 -157q-112 -51 -184 -156.5t-72 -233.5q0 -170 125 -282l-108 -139q-95 76 -147 185.5t-52 235.5z" />
    <glyph glyph-name="uni208E" unicode="&#x208e;" horiz-adv-x="464" 
d="M344 227q0 -177 -101.5 -326t-265.5 -220l-71 157q113 51 184.5 156t71.5 233q0 171 -125 283l108 139q94 -76 146.5 -185.5t52.5 -236.5z" />
    <glyph glyph-name="Euro" unicode="&#x20ac;" horiz-adv-x="1329" 
d="M1034 1096q-161 0 -280 -101h458l-79 -241h-510q-7 -40 -7 -70h494l-78 -242h-327q91 -102 258 -102q87 0 182 33v-377q-135 -29 -238 -29q-248 0 -423.5 130t-235.5 345h-195l82 242h84l6 70h-110l82 241h98q97 213 299 342t455 129q158 0 301 -49l-119 -360
q-98 39 -197 39z" />
    <glyph glyph-name="uni20B9" unicode="&#x20b9;" horiz-adv-x="1110" 
d="M952 1055h238l-98 -295h-134q-35 -112 -125 -195.5t-219 -124.5l217 -438h-477l-258 664h185q141 0 235 94h-422l99 295h360q-60 84 -201 84h-184l98 295h998l-99 -295h-262q37 -58 49 -84z" />
    <glyph glyph-name="uni20BA" unicode="&#x20ba;" horiz-adv-x="1304" 
d="M893 717h434q-19 -201 -138 -366.5t-309.5 -259.5t-412.5 -91h-383l98 502l-127 -49l58 290l125 50l16 77l-127 -49l57 291l125 49l53 273h420l-18 -93l285 113l-58 -291l-284 -112l-15 -78l285 112l-57 -290l-285 -113l-55 -279q124 19 211 105.5t102 208.5z" />
    <glyph glyph-name="uni2113" unicode="&#x2113;" horiz-adv-x="1032" 
d="M586 522l-8 -37q-1 -7 -2 -16t-2 -15.5t-1 -9.5q0 -61 37 -95t101 -34q38 0 112 19l-59 -314q-106 -34 -232 -34q-175 0 -271.5 89t-96.5 244q0 36 2 46l-133 -33l-10 217q81 21 186 55l92 475q39 195 156 305.5t297 110.5q144 0 242 -97.5t98 -234.5
q0 -189 -131.5 -352.5t-376.5 -288.5zM702 1128l-55 -288q164 142 164 290q0 60 -47 60q-25 0 -41.5 -16.5t-20.5 -45.5z" />
    <glyph glyph-name="uni2117" unicode="&#x2117;" horiz-adv-x="1583" 
d="M1587 766q4 -162 -64 -312.5t-180 -257t-259 -169.5t-296 -60q-146 -2 -276.5 52t-224 147.5t-147.5 224.5t-52 277q-3 130 39.5 253.5t120 222t178 172.5t220.5 113t241 37q146 2 276.5 -52t224 -147.5t147.5 -224t52 -276.5zM1391 754q0 144 -67.5 262.5t-186.5 186
t-263 67.5q-111 2 -219 -44t-190.5 -124.5t-132.5 -190t-47 -231.5q0 -220 147.5 -368t368.5 -148q111 -2 219.5 44t191 124.5t132.5 190t47 231.5zM1235 827q0 -137 -108 -230t-265 -93h-80l-34 -180h-269l148 761h313q135 0 215 -70.5t80 -187.5zM967 809q0 35 -22 54.5
t-60 19.5h-29l-33 -174h37q44 0 75.5 29.5t31.5 70.5z" />
    <glyph glyph-name="trademark" unicode="&#x2122;" horiz-adv-x="1863" 
d="M874 1157h-212l-97 -491h-313l94 491h-205l86 277h656zM1632 1434h262l-36 -768h-281l12 301l-256 -295l-137 291l-102 -297h-287l260 768h221l115 -304z" />
    <glyph glyph-name="Omega" unicode="&#x2126;" horiz-adv-x="1531" 
d="M1249 344h185l-68 -344h-575l96 494q109 28 177.5 118.5t68.5 204.5t-80 190t-201 76q-135 0 -230.5 -94.5t-95.5 -224.5q0 -102 54 -175.5t147 -96.5l-96 -492h-611l68 344h236q-94 72 -146.5 181.5t-52.5 232.5q-3 142 57 273.5t161.5 227.5t243 152.5t294.5 54.5
q140 2 263 -43.5t209.5 -125.5t136 -192.5t48.5 -238.5q0 -161 -77 -299t-212 -223z" />
    <glyph glyph-name="estimated" unicode="&#x212e;" horiz-adv-x="1513" 
d="M74 608q-2 126 49 246t142.5 212t228 147t292.5 53q152 1 274.5 -36t203.5 -99.5t136 -149t78.5 -180.5t22.5 -197h-1157q-8 0 -8 -8v-330q0 -38 12 -53q74 -89 186 -136.5t250 -47.5q136 0 247 49.5t218 150.5h127q-111 -133 -242.5 -190t-345.5 -57q-161 -2 -297.5 48
t-227.5 136.5t-141 201t-48 240.5zM344 643h885q10 0 10 10v336q0 24 -20 47q-82 93 -200 140t-239 47q-204 0 -428 -183q-16 -16 -16 -51v-336q0 -10 8 -10z" />
    <glyph glyph-name="uni2153" unicode="&#x2153;" horiz-adv-x="1656" 
d="M250 1294l414 166l-152 -774h-223l86 424l-129 -43zM201 -29l-131 138l1362 1353l131 -137zM1497 266q0 -121 -96.5 -201.5t-237.5 -80.5q-130 0 -243 88l108 178q84 -66 146 -66q40 0 68 18.5t28 49.5q0 32 -27.5 52t-75.5 20q-24 0 -92 -7l137 234h-208l63 194h506
l-197 -288q55 -24 88 -75t33 -116z" />
    <glyph glyph-name="uni2154" unicode="&#x2154;" horiz-adv-x="1869" 
d="M686 934l-47 -43h141l-67 -205h-543l354 369q90 95 90 137q0 23 -17 39t-42 16q-30 0 -50 -19.5t-20 -49.5q0 -32 21 -70l-217 -35q-25 55 -25 109q0 110 89.5 191t211.5 81q114 0 192.5 -73t78.5 -179q0 -70 -36.5 -133.5t-113.5 -134.5zM344 -29l-131 138l1362 1353
l131 -137zM1710 266q0 -121 -96.5 -201.5t-237.5 -80.5q-130 0 -243 88l108 178q84 -66 145 -66q40 0 68.5 18.5t28.5 49.5q0 32 -27.5 52t-75.5 20q-24 0 -92 -7l137 234h-208l63 194h506l-197 -288q55 -24 88 -75t33 -116z" />
    <glyph glyph-name="oneeighth" unicode="&#x215b;" horiz-adv-x="1658" 
d="M250 1294l414 166l-152 -774h-223l86 424l-129 -43zM197 -29l-131 138l1361 1353l132 -137zM1491 225q0 -102 -89 -171.5t-218 -69.5q-122 0 -200.5 60.5t-78.5 154.5q0 61 34.5 113.5t96.5 84.5q-53 59 -53 129q0 100 83.5 168t207.5 68q115 0 192.5 -59.5t77.5 -149.5
q0 -57 -30.5 -106.5t-86.5 -81.5q64 -55 64 -140zM1198 512q0 -23 16 -39t39 -16q25 0 44.5 18.5t19.5 44.5q0 23 -16 39t-39 16q-25 0 -44.5 -18.5t-19.5 -44.5zM1272 242q0 26 -18.5 43.5t-45.5 17.5q-29 0 -50 -20.5t-21 -49.5q0 -26 18.5 -43.5t44.5 -17.5q30 0 51 20
t21 50z" />
    <glyph glyph-name="threeeighths" unicode="&#x215c;" horiz-adv-x="1746" 
d="M752 952q0 -121 -96.5 -201.5t-237.5 -80.5q-131 0 -244 88l109 178q84 -66 145 -66q40 0 68 18.5t28 49.5q0 32 -27 52t-75 20q-34 0 -92 -6l137 233h-209l64 195h505l-196 -289q55 -24 88 -75t33 -116zM285 -29l-131 138l1362 1353l131 -137zM1579 225
q0 -102 -89 -171.5t-218 -69.5q-122 0 -200.5 60.5t-78.5 154.5q0 61 34.5 113.5t96.5 84.5q-53 59 -53 129q0 100 83.5 168t207.5 68q115 0 192.5 -59.5t77.5 -149.5q0 -57 -30.5 -106.5t-85.5 -81.5q63 -54 63 -140zM1286 512q0 -23 16 -39t39 -16q25 0 44.5 18.5
t19.5 44.5q0 23 -16 39t-39 16q-25 0 -44.5 -18.5t-19.5 -44.5zM1360 242q0 26 -18.5 43.5t-45.5 17.5q-29 0 -50 -20.5t-21 -49.5q0 -26 18.5 -43.5t44.5 -17.5q30 0 51 20t21 50z" />
    <glyph glyph-name="fiveeighths" unicode="&#x215d;" horiz-adv-x="1724" 
d="M737 1237h-252l-12 -53q6 2 33 2q94 0 158.5 -68t64.5 -168q0 -118 -96 -199t-232 -81q-128 0 -237 47l69 188q78 -35 160 -35q49 0 80 20t31 54q0 64 -103 64q-53 0 -157 -23l88 447h469zM262 -29l-131 138l1362 1353l131 -137zM1556 225q0 -102 -89 -171.5t-218 -69.5
q-121 0 -199.5 60.5t-78.5 154.5q0 61 34.5 113.5t96.5 84.5q-53 59 -53 129q0 100 83 168t207 68q115 0 193 -59.5t78 -149.5q0 -57 -30.5 -106.5t-86.5 -81.5q63 -54 63 -140zM1264 512q0 -23 16 -39t39 -16q25 0 44 18.5t19 44.5q0 23 -16 39t-39 16q-25 0 -44 -18.5
t-19 -44.5zM1337 242q0 26 -18.5 43.5t-44.5 17.5q-29 0 -50.5 -20.5t-21.5 -49.5q0 -26 18.5 -43.5t45.5 -17.5q30 0 50.5 20t20.5 50z" />
    <glyph glyph-name="seveneighths" unicode="&#x215e;" horiz-adv-x="1730" 
d="M315 1432h559l-409 -746h-254l299 533h-264zM285 -29l-131 138l1362 1353l131 -137zM1563 225q0 -102 -89 -171.5t-219 -69.5q-121 0 -199.5 60.5t-78.5 154.5q0 61 34.5 113.5t96.5 84.5q-53 59 -53 129q0 100 83.5 168t207.5 68q115 0 192.5 -59.5t77.5 -149.5
q0 -57 -30.5 -106.5t-86.5 -81.5q64 -55 64 -140zM1270 512q0 -23 16 -39t39 -16q25 0 44.5 18.5t19.5 44.5q0 23 -16.5 39t-39.5 16q-25 0 -44 -18.5t-19 -44.5zM1343 242q0 26 -18.5 43.5t-44.5 17.5q-29 0 -50.5 -20.5t-21.5 -49.5q0 -26 18.5 -43.5t45.5 -17.5
q30 0 50.5 20t20.5 50z" />
    <glyph glyph-name="arrowleft" unicode="&#x2190;" 
d="M1223 860l-58 -287h-600l209 -241l-217 -187l-504 588l670 582l178 -225l-276 -230h598z" />
    <glyph glyph-name="arrowup" unicode="&#x2191;" 
d="M1253 698l-225 -178l-197 250l-114 -588h-293l115 586l-279 -227l-186 219l698 547z" />
    <glyph glyph-name="arrowright" unicode="&#x2192;" 
d="M764 1288l504 -588l-670 -581l-178 225l276 229h-598l58 287h600l-209 242z" />
    <glyph glyph-name="arrowdown" unicode="&#x2193;" 
d="M1061 893l186 -219l-698 -547l-481 608l225 178l196 -249l115 587h293l-115 -585z" />
    <glyph glyph-name="uni2196" unicode="&#x2196;" 
d="M1153 1147l-57 -285h-348l339 -422l-241 -202l-334 413l-66 -340l-292 -2l161 838h838z" />
    <glyph glyph-name="uni2197" unicode="&#x2197;" 
d="M336 1147h838l-164 -838l-289 2l63 322l-487 -408l-174 228l491 411h-329z" />
    <glyph glyph-name="uni2198" unicode="&#x2198;" 
d="M866 1083l293 2l-162 -837h-837l57 284h348l-340 422l242 203l334 -414z" />
    <glyph glyph-name="uni2199" unicode="&#x2199;" 
d="M1190 942l-492 -412h330l-51 -282h-838l164 837l289 -2l-64 -321l488 407z" />
    <glyph glyph-name="partialdiff" unicode="&#x2202;" horiz-adv-x="1300" 
d="M1284 819q1 -180 -51 -337.5t-146.5 -272t-233 -179.5t-300.5 -63q-224 0 -363 130.5t-139 334.5q-1 106 42 204.5t116.5 170t173.5 113.5t207 41q133 0 272 -56q-21 187 -227 187q-172 0 -389 -144l18 393q224 136 432 136q280 0 434 -173t154 -485zM831 594
q-82 59 -190 59q-72 0 -125 -50t-53 -122q0 -60 39 -98.5t100 -38.5q80 0 139 66t90 184z" />
    <glyph glyph-name="increment" unicode="&#x2206;" horiz-adv-x="1480" 
d="M1186 1434l190 -1434h-1460l764 1434h506zM553 360h360l-57 672z" />
    <glyph glyph-name="product" unicode="&#x220f;" horiz-adv-x="1476" 
d="M-82 -471l369 1905h1272l-369 -1905h-410l297 1536h-452l-297 -1536h-410z" />
    <glyph glyph-name="summation" unicode="&#x2211;" horiz-adv-x="1249" 
d="M1362 1434l-70 -359h-622l307 -553l-512 -594h604l-70 -358h-1103l63 326l553 641l-317 571l63 326h1104z" />
    <glyph glyph-name="minus" unicode="&#x2212;" horiz-adv-x="1236" 
d="M86 502l68 348h1073l-68 -348h-1073z" />
    <glyph glyph-name="uni2215" unicode="&#x2215;" horiz-adv-x="1302" 
d="M-74 0l1104 1434h436l-1104 -1434h-436z" />
    <glyph glyph-name="uni2219" unicode="&#x2219;" horiz-adv-x="698" 
d="M141 655q0 106 78.5 180t188.5 74q98 0 161.5 -60.5t63.5 -152.5q0 -106 -78 -180t-188 -74q-98 0 -162 60.5t-64 152.5z" />
    <glyph glyph-name="radical" unicode="&#x221a;" horiz-adv-x="1222" 
d="M1120 1434h328l-709 -1434h-288l-152 594l-156 -64l-59 226l412 178l133 -545z" />
    <glyph glyph-name="infinity" unicode="&#x221e;" horiz-adv-x="1800" 
d="M1769 680q3 -112 -60.5 -211t-166.5 -155t-213 -54q-116 0 -213.5 52t-195.5 155q-116 -105 -217 -156t-214 -51q-169 0 -280 106t-111 265q-3 112 61 211t167 155t213 54q116 0 214.5 -52.5t196.5 -154.5q113 103 214.5 155t213.5 52q166 0 278.5 -106.5t112.5 -264.5z
M748 651q-126 129 -224 129q-58 0 -99.5 -38.5t-41.5 -94.5q0 -50 35 -83.5t90 -33.5q97 0 240 121zM1485 664q0 50 -35 83t-90 33q-102 0 -238 -121q65 -66 116.5 -97.5t104.5 -31.5q58 0 100 39t42 95z" />
    <glyph glyph-name="integral" unicode="&#x222b;" horiz-adv-x="743" 
d="M-168 -446l66 348q69 5 103.5 33t47.5 98l184 948q48 245 201 364t434 119h56l-68 -352h-27q-156 0 -182 -145l-182 -947q-46 -241 -194.5 -352t-438.5 -114z" />
    <glyph glyph-name="approxequal" unicode="&#x2248;" horiz-adv-x="1150" 
d="M487 1059q107 0 232 -51q90 -29 115 -29q36 0 61 21.5t33 58.5h252q-25 -161 -118 -252.5t-243 -91.5q-106 0 -231 51q-90 29 -115 29q-36 0 -61 -21.5t-33 -58.5h-252q25 161 117.5 252.5t242.5 91.5zM399 596q107 0 232 -51q90 -29 114 -29q37 0 62 21.5t33 58.5h252
q-25 -161 -118 -252.5t-243 -91.5q-106 0 -231 51q-90 29 -115 29q-36 0 -61 -21.5t-33 -58.5h-252q25 161 117.5 252.5t242.5 91.5z" />
    <glyph glyph-name="notequal" unicode="&#x2260;" horiz-adv-x="1142" 
d="M1110 735h-313l-109 -160h391l-59 -303h-537l-178 -262l-201 107l107 155h-170l59 303h316l108 160h-393l59 303h539l178 262l201 -106l-107 -156h168z" />
    <glyph glyph-name="lessequal" unicode="&#x2264;" horiz-adv-x="1034" 
d="M1114 1319l-65 -336l-463 -162l399 -162l-63 -335l-816 387l44 221zM-31 0l56 283h888l-55 -283h-889z" />
    <glyph glyph-name="greaterequal" unicode="&#x2265;" horiz-adv-x="1034" 
d="M246 1319l815 -387l-43 -221l-965 -387l66 335l463 162l-400 162zM-10 0l55 283h889l-55 -283h-889z" />
    <glyph glyph-name="uni2460" unicode="&#x2460;" horiz-adv-x="1583" 
d="M1587 766q4 -162 -64 -312.5t-180 -257t-259 -169.5t-296 -60q-146 -2 -276.5 52t-224 147.5t-147.5 224.5t-52 277q-3 130 39.5 253.5t120 222t178 172.5t220.5 113t241 37q146 2 276.5 -52t224 -147.5t147.5 -224t52 -276.5zM1391 754q0 144 -67.5 262.5t-186.5 186
t-263 67.5q-111 2 -219 -44t-190.5 -124.5t-132.5 -190t-47 -231.5q0 -220 147.5 -368t368.5 -148q111 -2 219.5 44t191 124.5t132.5 190t47 231.5zM633 725l4 227l414 166l-152 -774h-223l86 424z" />
    <glyph glyph-name="uni2461" unicode="&#x2461;" horiz-adv-x="1583" 
d="M1587 766q4 -162 -64 -312.5t-180 -257t-259 -169.5t-296 -60q-146 -2 -276.5 52t-224 147.5t-147.5 224.5t-52 277q-3 130 39.5 253.5t120 222t178 172.5t220.5 113t241 37q146 2 276.5 -52t224 -147.5t147.5 -224t52 -276.5zM1391 754q0 144 -67.5 262.5t-186.5 186
t-263 67.5q-111 2 -219 -44t-190.5 -124.5t-132.5 -190t-47 -231.5q0 -220 147.5 -368t368.5 -148q111 -2 219.5 44t191 124.5t132.5 190t47 231.5zM1012 616l-47 -43h141l-68 -204h-542l354 368q90 95 90 137q0 23 -17 39.5t-42 16.5q-30 0 -50 -20t-20 -50q0 -33 20 -69
l-217 -35q-24 52 -24 108q0 110 89.5 191.5t211.5 81.5q114 0 192 -73t78 -179q0 -71 -36 -134.5t-113 -134.5z" />
    <glyph glyph-name="uni2462" unicode="&#x2462;" horiz-adv-x="1583" 
d="M1587 766q4 -162 -64 -312.5t-180 -257t-259 -169.5t-296 -60q-146 -2 -276.5 52t-224 147.5t-147.5 224.5t-52 277q-3 130 39.5 253.5t120 222t178 172.5t220.5 113t241 37q146 2 276.5 -52t224 -147.5t147.5 -224t52 -276.5zM1391 754q0 144 -67.5 262.5t-186.5 186
t-263 67.5q-111 2 -219 -44t-190.5 -124.5t-132.5 -190t-47 -231.5q0 -220 147.5 -368t368.5 -148q111 -2 219.5 44t191 124.5t132.5 190t47 231.5zM672 1079h506l-197 -288q55 -24 88 -75t33 -116q0 -121 -97 -202t-237 -81q-129 0 -244 89l109 178q84 -66 145 -66
q40 0 68 18.5t28 49.5q0 32 -27 51.5t-75 19.5q-34 0 -92 -6l137 234h-209z" />
    <glyph glyph-name="uni2463" unicode="&#x2463;" horiz-adv-x="1583" 
d="M1587 766q4 -162 -64 -312.5t-180 -257t-259 -169.5t-296 -60q-146 -2 -276.5 52t-224 147.5t-147.5 224.5t-52 277q-3 130 39.5 253.5t120 222t178 172.5t220.5 113t241 37q146 2 276.5 -52t224 -147.5t147.5 -224t52 -276.5zM1391 754q0 144 -67.5 262.5t-186.5 186
t-263 67.5q-111 2 -219 -44t-190.5 -124.5t-132.5 -190t-47 -231.5q0 -220 147.5 -368t368.5 -148q111 -2 219.5 44t191 124.5t132.5 190t47 231.5zM881 1100h249l-90 -459h74l-39 -197h-71l-19 -90h-209l19 90h-326l37 189zM743 641h91l32 158z" />
    <glyph glyph-name="uni2464" unicode="&#x2464;" horiz-adv-x="1583" 
d="M1587 766q4 -162 -64 -312.5t-180 -257t-259 -169.5t-296 -60q-146 -2 -276.5 52t-224 147.5t-147.5 224.5t-52 277q-3 130 39.5 253.5t120 222t178 172.5t220.5 113t241 37q146 2 276.5 -52t224 -147.5t147.5 -224t52 -276.5zM1391 754q0 144 -67.5 262.5t-186.5 186
t-263 67.5q-111 2 -219 -44t-190.5 -124.5t-132.5 -190t-47 -231.5q0 -220 147.5 -368t368.5 -148q111 -2 219.5 44t191 124.5t132.5 190t47 231.5zM608 643l88 447h469l-63 -195h-252l-12 -53q6 2 32 2q94 0 159 -68t65 -168q0 -118 -96 -199t-232 -81q-129 0 -238 47
l70 188q78 -35 160 -35q49 0 79.5 20t30.5 54q0 64 -102 64q-54 0 -158 -23z" />
    <glyph glyph-name="uni2465" unicode="&#x2465;" horiz-adv-x="1583" 
d="M1587 766q4 -162 -64 -312.5t-180 -257t-259 -169.5t-296 -60q-146 -2 -276.5 52t-224 147.5t-147.5 224.5t-52 277q-3 130 39.5 253.5t120 222t178 172.5t220.5 113t241 37q146 2 276.5 -52t224 -147.5t147.5 -224t52 -276.5zM1391 754q0 144 -67.5 262.5t-186.5 186
t-263 67.5q-111 2 -219 -44t-190.5 -124.5t-132.5 -190t-47 -231.5q0 -220 147.5 -368t368.5 -148q111 -2 219.5 44t191 124.5t132.5 190t47 231.5zM1108 606q0 -116 -91.5 -192t-219.5 -76q-124 0 -206.5 77.5t-82.5 196.5q0 153 125 290t352 222l105 -170
q-162 -50 -240 -102h12q99 0 172.5 -72.5t73.5 -173.5zM885 618q0 29 -20.5 48.5t-51.5 19.5t-55.5 -23t-24.5 -53q0 -29 20.5 -48t51.5 -19t55.5 22.5t24.5 52.5z" />
    <glyph glyph-name="uni2466" unicode="&#x2466;" horiz-adv-x="1583" 
d="M1587 766q4 -162 -64 -312.5t-180 -257t-259 -169.5t-296 -60q-146 -2 -276.5 52t-224 147.5t-147.5 224.5t-52 277q-3 130 39.5 253.5t120 222t178 172.5t220.5 113t241 37q146 2 276.5 -52t224 -147.5t147.5 -224t52 -276.5zM1391 754q0 144 -67.5 262.5t-186.5 186
t-263 67.5q-111 2 -219 -44t-190.5 -124.5t-132.5 -190t-47 -231.5q0 -220 147.5 -368t368.5 -148q111 -2 219.5 44t191 124.5t132.5 190t47 231.5zM586 852l69 213h559l-409 -746h-254l299 533h-264z" />
    <glyph glyph-name="uni2467" unicode="&#x2467;" horiz-adv-x="1583" 
d="M1587 766q4 -162 -64 -312.5t-180 -257t-259 -169.5t-296 -60q-146 -2 -276.5 52t-224 147.5t-147.5 224.5t-52 277q-3 130 39.5 253.5t120 222t178 172.5t220.5 113t241 37q146 2 276.5 -52t224 -147.5t147.5 -224t52 -276.5zM1391 754q0 144 -67.5 262.5t-186.5 186
t-263 67.5q-111 2 -219 -44t-190.5 -124.5t-132.5 -190t-47 -231.5q0 -220 147.5 -368t368.5 -148q111 -2 219.5 44t191 124.5t132.5 190t47 231.5zM1034 713q64 -55 64 -140q0 -102 -89 -171.5t-218 -69.5q-122 0 -200.5 60.5t-78.5 154.5q0 61 34.5 113.5t96.5 84.5
q-53 59 -53 129q0 100 83.5 168t207.5 68q115 0 192.5 -59.5t77.5 -149.5q0 -57 -30.5 -106.5t-86.5 -81.5zM805 860q0 -23 16 -39t39 -16q25 0 44.5 18.5t19.5 44.5q0 23 -16.5 39.5t-39.5 16.5q-25 0 -44 -19t-19 -45zM879 590q0 26 -18.5 43.5t-45.5 17.5q-30 0 -51 -20
t-21 -49q0 -26 19 -44t45 -18q30 0 51 20t21 50z" />
    <glyph glyph-name="uni2468" unicode="&#x2468;" horiz-adv-x="1583" 
d="M1587 766q4 -162 -64 -312.5t-180 -257t-259 -169.5t-296 -60q-146 -2 -276.5 52t-224 147.5t-147.5 224.5t-52 277q-3 130 39.5 253.5t120 222t178 172.5t220.5 113t241 37q146 2 276.5 -52t224 -147.5t147.5 -224t52 -276.5zM1391 754q0 144 -67.5 262.5t-186.5 186
t-263 67.5q-111 2 -219 -44t-190.5 -124.5t-132.5 -190t-47 -231.5q0 -220 147.5 -368t368.5 -148q111 -2 219.5 44t191 124.5t132.5 190t47 231.5zM1163 831q0 -153 -125 -290t-352 -222l-104 170q157 49 239 103h-12q-99 0 -172.5 72t-73.5 174q0 116 91.5 192t219.5 76
q124 0 206.5 -78t82.5 -197zM858 758q31 0 55.5 23t24.5 53q0 29 -20.5 48t-51.5 19t-55.5 -23t-24.5 -53q0 -29 20.5 -48t51.5 -19z" />
    <glyph glyph-name="uni24EA" unicode="&#x24ea;" horiz-adv-x="1583" 
d="M88 668q-3 130 39.5 253.5t120 222t178 172.5t220.5 113t241 37q146 2 276.5 -52t224 -147.5t147.5 -224t52 -276.5q4 -162 -64 -312.5t-180 -257t-259 -169.5t-296 -60q-146 -2 -276.5 52t-224 147.5t-147.5 224.5t-52 277zM1391 754q0 144 -67.5 262.5t-186.5 186
t-263 67.5q-111 2 -219 -44t-190.5 -124.5t-132.5 -190t-47 -231.5q0 -220 147.5 -368t368.5 -148q111 -2 219.5 44t191 124.5t132.5 190t47 231.5zM510 653q0 117 46 221.5t132 171t193 66.5q128 0 202 -88.5t74 -230.5q0 -118 -44.5 -222t-129 -170.5t-190.5 -66.5
q-130 0 -206.5 88.5t-76.5 230.5zM930 793q0 110 -66 110q-38 0 -68 -44.5t-43.5 -100.5t-13.5 -105q0 -110 66 -110q38 0 68 44.5t43.5 100.5t13.5 105z" />
    <glyph glyph-name="lozenge" unicode="&#x25ca;" horiz-adv-x="1204" 
d="M956 1516l224 -840l-535 -758h-305l-225 840l536 758h305zM559 311l264 402l-88 409l-264 -401z" />
    <glyph glyph-name="uniF8FF" unicode="&#xf8ff;" horiz-adv-x="1392" 
d="M1479 1454l-283 -1454h-1188l283 1454h1188zM1020 1227h-383l135 -299zM465 1071l-129 -674l282 340zM868 717l154 -334l129 674zM467 227h383l-135 299z" />
    <glyph glyph-name="uniFEFF" unicode="&#xfeff;" horiz-adv-x="0" 
 />
    <glyph glyph-name="A.c2sc" horiz-adv-x="1208" 
d="M719 0l-12 137h-299l-64 -137h-438l606 1065h410l192 -1065h-395zM532 414h148l-27 264z" />
    <glyph glyph-name="Aacute.c2sc" horiz-adv-x="1208" 
d="M719 0l-12 137h-299l-64 -137h-438l606 1065h410l192 -1065h-395zM532 414h148l-27 264zM520 1167l230 389h481l-354 -389h-357z" />
    <glyph glyph-name="Abreve.c2sc" horiz-adv-x="1208" 
d="M719 0l-12 137h-299l-64 -137h-438l606 1065h410l192 -1065h-395zM532 414h148l-27 264zM420 1507q0 31 2 41h260q-4 -56 28.5 -91.5t84.5 -35.5q55 0 94 35.5t45 91.5h262q-12 -166 -133.5 -276.5t-290.5 -110.5q-149 0 -250.5 99t-101.5 247z" />
    <glyph glyph-name="Acircumflex.c2sc" horiz-adv-x="1208" 
d="M719 0l-12 137h-299l-64 -137h-438l606 1065h410l192 -1065h-395zM532 414h148l-27 264zM1174 1167h-302l-98 154l-160 -154h-325l334 389h368z" />
    <glyph glyph-name="Adieresis.c2sc" horiz-adv-x="1208" 
d="M719 0l-12 137h-299l-64 -137h-438l606 1065h410l192 -1065h-395zM532 414h148l-27 264zM340 1337q0 80 62 138.5t147 58.5q77 0 128.5 -49.5t51.5 -122.5q0 -80 -62 -138.5t-147 -58.5q-77 0 -128.5 49.5t-51.5 122.5zM813 1337q0 80 62 138.5t147 58.5
q77 0 128.5 -49.5t51.5 -122.5q0 -80 -62 -138.5t-147 -58.5q-77 0 -128.5 49.5t-51.5 122.5z" />
    <glyph glyph-name="Adieresis.c2sc.ss08" horiz-adv-x="1208" 
d="M719 0l-12 137h-299l-64 -137h-438l606 1065h410l192 -1065h-395zM532 414h148l-27 264zM401 1507h328l-61 -315h-328zM877 1507h327l-61 -315h-328z" />
    <glyph glyph-name="Adieresis.ss08" horiz-adv-x="1480" 
d="M942 0l-20 238h-424l-109 -238h-473l764 1434h506l190 -1434h-434zM659 598h234l-37 434zM565 1888h363l-68 -348h-362zM1118 1888h363l-68 -348h-362z" />
    <glyph glyph-name="Agrave.c2sc" horiz-adv-x="1208" 
d="M719 0l-12 137h-299l-64 -137h-438l606 1065h410l192 -1065h-395zM532 414h148l-27 264zM934 1167h-332l-207 389h457z" />
    <glyph glyph-name="Amacron.c2sc" horiz-adv-x="1208" 
d="M719 0l-12 137h-299l-64 -137h-438l606 1065h410l192 -1065h-395zM532 414h148l-27 264zM403 1241l52 266h694l-51 -266h-695z" />
    <glyph glyph-name="Aogonek.c2sc" horiz-adv-x="1208" 
d="M1036 -199q17 0 41 6l-37 -192q-49 -14 -94 -14q-102 0 -165.5 59.5t-63.5 153.5q0 110 88 186h-86l-12 137h-299l-64 -137h-438l606 1065h410l192 -1065q-141 -54 -141 -133q0 -27 17.5 -46.5t45.5 -19.5zM532 414h148l-27 264z" />
    <glyph glyph-name="Aring.c2sc" horiz-adv-x="1208" 
d="M719 0l-12 137h-299l-64 -137h-438l606 1065h410l192 -1065h-395zM532 414h148l-27 264zM522 1366q0 112 80 189t195 77q103 0 170 -63.5t67 -161.5q0 -112 -80 -189t-194 -77q-103 0 -170.5 63.5t-67.5 161.5zM881 1395q0 41 -26 67.5t-67 26.5q-47 0 -79.5 -32
t-32.5 -79q0 -41 25.5 -67.5t66.5 -26.5q47 0 80 32t33 79z" />
    <glyph glyph-name="Atilde.c2sc" horiz-adv-x="1208" 
d="M719 0l-12 137h-299l-64 -137h-438l606 1065h410l192 -1065h-395zM532 414h148l-27 264zM735 1223q-61 30 -104 30q-70 0 -86 -69h-223q34 174 116 258t201 84q28 0 55.5 -5.5t48 -12t64.5 -23.5q76 -31 106 -31q70 0 86 70h224q-34 -173 -117 -257.5t-203 -84.5
q-28 0 -55.5 5.5t-48 12t-64.5 23.5z" />
    <glyph glyph-name="AE.c2sc" horiz-adv-x="1581" 
d="M1573 774h-418l-18 -94h344l-58 -291h-342l-18 -98h430l-94 -291h-801l27 137h-209l-72 -137h-438l639 1065h1044zM561 414h117l70 360z" />
    <glyph glyph-name="AE.c2sc.ss10" horiz-adv-x="1550" 
d="M1511 774h-387l-18 -94h375l-95 -291h-335l-19 -98h416l-57 -291h-824l27 137h-209l-72 -137h-438l639 1065h1092zM530 414h117l70 360z" />
    <glyph glyph-name="AE.ss10" horiz-adv-x="1818" 
d="M1825 1063h-449l-30 -154h430l-121 -370h-381l-33 -168h492l-72 -371h-913l38 197h-321l-117 -197h-473l920 1434h1151zM676 557h180l88 453z" />
    <glyph glyph-name="B.c2sc" horiz-adv-x="1105" 
d="M1038 322q0 -134 -119 -228t-292 -94h-625l207 1065h582q141 0 225 -70.5t84 -189.5q0 -84 -55 -151.5t-150 -106.5q143 -73 143 -225zM692 745q0 33 -25 52.5t-67 19.5h-41l-33 -168h49q51 0 84 27.5t33 68.5zM631 344q0 35 -25 56.5t-67 21.5h-56l-32 -172h67
q47 0 80 28t33 66z" />
    <glyph glyph-name="C.c2sc" horiz-adv-x="964" 
d="M49 485q-2 125 48.5 239t137.5 197t208.5 131t254.5 46q156 0 295 -56l-114 -352q-96 41 -183 41q-102 0 -168.5 -64.5t-66.5 -156.5q0 -78 56.5 -126t150.5 -48q61 0 166 31l6 -369q-118 -31 -234 -31q-241 0 -399 147t-158 371z" />
    <glyph glyph-name="Cacute.c2sc" horiz-adv-x="964" 
d="M49 485q-2 125 48.5 239t137.5 197t208.5 131t254.5 46q156 0 295 -56l-114 -352q-96 41 -183 41q-102 0 -168.5 -64.5t-66.5 -156.5q0 -78 56.5 -126t150.5 -48q61 0 166 31l6 -369q-118 -31 -234 -31q-241 0 -399 147t-158 371zM494 1167l229 389h481l-354 -389h-356z
" />
    <glyph glyph-name="Ccaron.c2sc" horiz-adv-x="964" 
d="M49 485q-2 125 48.5 239t137.5 197t208.5 131t254.5 46q156 0 295 -56l-114 -352q-96 41 -183 41q-102 0 -168.5 -64.5t-66.5 -156.5q0 -78 56.5 -126t150.5 -48q61 0 166 31l6 -369q-118 -31 -234 -31q-241 0 -399 147t-158 371zM907 1567h326l-334 -389h-369l-182 389
h301l99 -154z" />
    <glyph glyph-name="Ccedilla.c2sc" horiz-adv-x="964" 
d="M461 510q0 -78 56.5 -126t150.5 -48q61 0 166 31l6 -369q-112 -31 -230 -31l-258 -422l-293 174l279 306q-134 63 -211.5 185t-77.5 275q-2 125 48.5 239t137.5 197t208.5 131t254.5 46q156 0 295 -56l-114 -352q-96 41 -183 41q-102 0 -168.5 -64.5t-66.5 -156.5z" />
    <glyph glyph-name="Ccircumflex.c2sc" horiz-adv-x="964" 
d="M49 485q-2 125 48.5 239t137.5 197t208.5 131t254.5 46q156 0 295 -56l-114 -352q-96 41 -183 41q-102 0 -168.5 -64.5t-66.5 -156.5q0 -78 56.5 -126t150.5 -48q61 0 166 31l6 -369q-118 -31 -234 -31q-241 0 -399 147t-158 371zM1147 1167h-301l-98 154l-160 -154h-326
l334 389h369z" />
    <glyph glyph-name="Cdotaccent.c2sc" horiz-adv-x="964" 
d="M49 485q-2 125 48.5 239t137.5 197t208.5 131t254.5 46q156 0 295 -56l-114 -352q-96 41 -183 41q-102 0 -168.5 -64.5t-66.5 -156.5q0 -78 56.5 -126t150.5 -48q61 0 166 31l6 -369q-118 -31 -234 -31q-241 0 -399 147t-158 371zM510 1352q0 100 76 171.5t182 71.5
q96 0 158.5 -59t62.5 -152q0 -100 -76 -171.5t-182 -71.5q-96 0 -158.5 59t-62.5 152z" />
    <glyph glyph-name="Cdotaccent.c2sc.ss08" horiz-adv-x="964" 
d="M49 485q-2 125 48.5 239t137.5 197t208.5 131t254.5 46q156 0 295 -56l-114 -352q-96 41 -183 41q-102 0 -168.5 -64.5t-66.5 -156.5q0 -78 56.5 -126t150.5 -48q61 0 166 31l6 -369q-118 -31 -234 -31q-241 0 -399 147t-158 371zM578 1561h415l-73 -385h-416z" />
    <glyph glyph-name="Cdotaccent.ss08" horiz-adv-x="1241" 
d="M86 651q-4 160 60.5 311.5t175 263t267 178t326.5 62.5q221 0 400 -92l-129 -399q-147 80 -285 80q-163 0 -270 -108t-107 -263q0 -132 82.5 -217.5t222.5 -85.5q117 0 277 68v-424q-165 -58 -332 -58q-153 0 -282.5 53t-218 144.5t-138 217.5t-49.5 269zM813 1952h457
l-80 -424h-457z" />
    <glyph glyph-name="D.c2sc" horiz-adv-x="1222" 
d="M1198 600q0 -169 -85 -306t-239 -215.5t-346 -78.5h-526l207 1065h500q222 0 355.5 -126t133.5 -339zM788 567q0 74 -44 118t-119 44h-66l-76 -393h66q103 0 171 65.5t68 165.5z" />
    <glyph glyph-name="Eth.c2sc" horiz-adv-x="1222" 
d="M1198 600q0 -169 -85 -306t-239 -215.5t-346 -78.5h-526l82 426h-90l43 213h90l82 426h500q222 0 355.5 -126t133.5 -339zM788 567q0 74 -44 118t-119 44h-66l-16 -90h90l-41 -213h-92l-17 -90h66q103 0 171 65.5t68 165.5z" />
    <glyph glyph-name="Dcaron.c2sc" horiz-adv-x="1222" 
d="M1198 600q0 -169 -85 -306t-239 -215.5t-346 -78.5h-526l207 1065h500q222 0 355.5 -126t133.5 -339zM788 567q0 74 -44 118t-119 44h-66l-76 -393h66q103 0 171 65.5t68 165.5zM934 1567h326l-334 -389h-369l-182 389h301l98 -154z" />
    <glyph glyph-name="Dcroat.c2sc" horiz-adv-x="1222" 
d="M1198 600q0 -169 -85 -306t-239 -215.5t-346 -78.5h-526l82 426h-90l43 213h90l82 426h500q222 0 355.5 -126t133.5 -339zM788 567q0 74 -44 118t-119 44h-66l-16 -90h90l-41 -213h-92l-17 -90h66q103 0 171 65.5t68 165.5z" />
    <glyph glyph-name="E.c2sc" horiz-adv-x="985" 
d="M977 774h-418l-18 -94h344l-58 -291h-342l-18 -98h430l-94 -291h-801l207 1065h784z" />
    <glyph glyph-name="E.c2sc.ss10" horiz-adv-x="985" 
d="M946 774h-387l-18 -94h374l-94 -291h-336l-18 -98h416l-58 -291h-823l207 1065h831z" />
    <glyph glyph-name="E.ss10" horiz-adv-x="1093" 
d="M1081 1063h-448l-31 -154h430l-121 -370h-381l-32 -168h491l-71 -371h-914l279 1434h919z" />
    <glyph glyph-name="Eacute.c2sc" horiz-adv-x="985" 
d="M977 774h-418l-18 -94h344l-58 -291h-342l-18 -98h430l-94 -291h-801l207 1065h784zM412 1167l229 389h481l-354 -389h-356z" />
    <glyph glyph-name="Eacute.c2sc.ss10" horiz-adv-x="985" 
d="M946 774h-387l-18 -94h374l-94 -291h-336l-18 -98h416l-58 -291h-823l207 1065h831zM412 1167l229 389h481l-354 -389h-356z" />
    <glyph glyph-name="Eacute.ss10" horiz-adv-x="1093" 
d="M1081 1063h-448l-31 -154h430l-121 -370h-381l-32 -168h491l-71 -371h-914l279 1434h919zM563 1536l162 369h489l-296 -369h-355z" />
    <glyph glyph-name="Ebreve.c2sc" horiz-adv-x="985" 
d="M977 774h-418l-18 -94h344l-58 -291h-342l-18 -98h430l-94 -291h-801l207 1065h784zM311 1507q0 31 2 41h260q-4 -56 28.5 -91.5t84.5 -35.5q55 0 94 35.5t45 91.5h262q-12 -166 -133 -276.5t-290 -110.5q-150 0 -251.5 99.5t-101.5 246.5z" />
    <glyph glyph-name="Ebreve.c2sc.ss10" horiz-adv-x="985" 
d="M946 774h-387l-18 -94h374l-94 -291h-336l-18 -98h416l-58 -291h-823l207 1065h831zM311 1507q0 31 2 41h260q-4 -56 28.5 -91.5t84.5 -35.5q55 0 94 35.5t45 91.5h262q-12 -166 -133 -276.5t-290 -110.5q-150 0 -251.5 99.5t-101.5 246.5z" />
    <glyph glyph-name="Ebreve.ss10" horiz-adv-x="1093" 
d="M1081 1063h-448l-31 -154h430l-121 -370h-381l-32 -168h491l-71 -371h-914l279 1434h919zM428 1878q0 31 2 39h260q-4 -56 33.5 -91.5t95.5 -35.5q63 0 106.5 35.5t49.5 91.5h262q-12 -166 -137 -276.5t-303 -110.5q-154 0 -261.5 100.5t-107.5 247.5z" />
    <glyph glyph-name="Ecaron.c2sc" horiz-adv-x="985" 
d="M977 774h-418l-18 -94h344l-58 -291h-342l-18 -98h430l-94 -291h-801l207 1065h784zM825 1567h326l-334 -389h-368l-183 389h301l99 -154z" />
    <glyph glyph-name="Ecaron.c2sc.ss10" horiz-adv-x="985" 
d="M946 774h-387l-18 -94h374l-94 -291h-336l-18 -98h416l-58 -291h-823l207 1065h831zM825 1567h326l-334 -389h-368l-183 389h301l99 -154z" />
    <glyph glyph-name="Ecaron.ss10" horiz-adv-x="1093" 
d="M1081 1063h-448l-31 -154h430l-121 -370h-381l-32 -168h491l-71 -371h-914l279 1434h919zM950 1905h326l-309 -369h-410l-166 369h301l99 -154z" />
    <glyph glyph-name="Ecircumflex.c2sc" horiz-adv-x="985" 
d="M977 774h-418l-18 -94h344l-58 -291h-342l-18 -98h430l-94 -291h-801l207 1065h784zM1065 1167h-301l-98 154l-160 -154h-326l334 389h369z" />
    <glyph glyph-name="Ecircumflex.c2sc.ss10" horiz-adv-x="985" 
d="M946 774h-387l-18 -94h374l-94 -291h-336l-18 -98h416l-58 -291h-823l207 1065h831zM1065 1167h-301l-98 154l-160 -154h-326l334 389h369z" />
    <glyph glyph-name="Ecircumflex.ss10" horiz-adv-x="1093" 
d="M1081 1063h-448l-31 -154h430l-121 -370h-381l-32 -168h491l-71 -371h-914l279 1434h919zM1204 1536h-301l-98 154l-160 -154h-326l310 369h409z" />
    <glyph glyph-name="Edieresis.c2sc" horiz-adv-x="985" 
d="M977 774h-418l-18 -94h344l-58 -291h-342l-18 -98h430l-94 -291h-801l207 1065h784zM231 1337q0 80 62 138.5t147 58.5q77 0 129 -49.5t52 -122.5q0 -80 -62 -138.5t-147 -58.5q-77 0 -129 49.5t-52 122.5zM705 1337q0 80 61.5 138.5t146.5 58.5q77 0 129 -49.5
t52 -122.5q0 -80 -62 -138.5t-147 -58.5q-77 0 -128.5 49.5t-51.5 122.5z" />
    <glyph glyph-name="Edieresis.c2sc.ss08" horiz-adv-x="985" 
d="M977 774h-418l-18 -94h344l-58 -291h-342l-18 -98h430l-94 -291h-801l207 1065h784zM293 1507h328l-62 -315h-328zM768 1507h328l-62 -315h-327z" />
    <glyph glyph-name="Edieresis.c2sc.ss08.ss10" horiz-adv-x="985" 
d="M946 774h-387l-18 -94h374l-94 -291h-336l-18 -98h416l-58 -291h-823l207 1065h831zM293 1507h328l-62 -315h-328zM768 1507h328l-62 -315h-327z" />
    <glyph glyph-name="Edieresis.c2sc.ss10" horiz-adv-x="985" 
d="M946 774h-387l-18 -94h374l-94 -291h-336l-18 -98h416l-58 -291h-823l207 1065h831zM231 1337q0 80 62 138.5t147 58.5q77 0 129 -49.5t52 -122.5q0 -80 -62 -138.5t-147 -58.5q-77 0 -129 49.5t-52 122.5zM705 1337q0 80 61.5 138.5t146.5 58.5q77 0 129 -49.5
t52 -122.5q0 -80 -62 -138.5t-147 -58.5q-77 0 -128.5 49.5t-51.5 122.5z" />
    <glyph glyph-name="Edieresis.ss08" horiz-adv-x="1093" 
d="M1133 1063h-500l-31 -154h402l-72 -370h-402l-32 -168h518l-123 -371h-889l279 1434h868zM373 1888h362l-67 -348h-363zM926 1888h362l-67 -348h-363z" />
    <glyph glyph-name="Edieresis.ss08.ss10" horiz-adv-x="1093" 
d="M1081 1063h-448l-31 -154h430l-121 -370h-381l-32 -168h491l-71 -371h-914l279 1434h919zM373 1888h362l-67 -348h-363zM926 1888h362l-67 -348h-363z" />
    <glyph glyph-name="Edieresis.ss10" horiz-adv-x="1093" 
d="M1081 1063h-448l-31 -154h430l-121 -370h-381l-32 -168h491l-71 -371h-914l279 1434h919zM305 1700q0 91 68.5 155t163.5 64q86 0 142 -53.5t56 -136.5q0 -92 -68.5 -156t-162.5 -64q-86 0 -142.5 54t-56.5 137zM858 1700q0 91 68.5 155t163.5 64q86 0 142 -53.5
t56 -136.5q0 -92 -68.5 -156t-162.5 -64q-86 0 -142.5 54t-56.5 137z" />
    <glyph glyph-name="Edotaccent.c2sc" horiz-adv-x="985" 
d="M977 774h-418l-18 -94h344l-58 -291h-342l-18 -98h430l-94 -291h-801l207 1065h784zM428 1352q0 100 76 171.5t182 71.5q96 0 158.5 -59t62.5 -152q0 -100 -76 -171.5t-182 -71.5q-96 0 -158.5 59t-62.5 152z" />
    <glyph glyph-name="Edotaccent.c2sc.ss08" horiz-adv-x="985" 
d="M977 774h-418l-18 -94h344l-58 -291h-342l-18 -98h430l-94 -291h-801l207 1065h784zM496 1561h415l-73 -385h-416z" />
    <glyph glyph-name="Edotaccent.c2sc.ss08.ss10" horiz-adv-x="985" 
d="M946 774h-387l-18 -94h374l-94 -291h-336l-18 -98h416l-58 -291h-823l207 1065h831zM496 1561h415l-73 -385h-416z" />
    <glyph glyph-name="Edotaccent.c2sc.ss10" horiz-adv-x="985" 
d="M946 774h-387l-18 -94h374l-94 -291h-336l-18 -98h416l-58 -291h-823l207 1065h831zM428 1352q0 100 76 171.5t182 71.5q96 0 158.5 -59t62.5 -152q0 -100 -76 -171.5t-182 -71.5q-96 0 -158.5 59t-62.5 152z" />
    <glyph glyph-name="Edotaccent.ss08" horiz-adv-x="1093" 
d="M1133 1063h-500l-31 -154h402l-72 -370h-402l-32 -168h518l-123 -371h-889l279 1434h868zM612 1952h457l-80 -424h-457z" />
    <glyph glyph-name="Edotaccent.ss08.ss10" horiz-adv-x="1093" 
d="M1081 1063h-448l-31 -154h430l-121 -370h-381l-32 -168h491l-71 -371h-914l279 1434h919zM612 1952h457l-80 -424h-457z" />
    <glyph glyph-name="Edotaccent.ss10" horiz-adv-x="1093" 
d="M1081 1063h-448l-31 -154h430l-121 -370h-381l-32 -168h491l-71 -371h-914l279 1434h919zM551 1724q0 104 79 180t189 76q103 0 168.5 -62.5t65.5 -160.5q0 -104 -79.5 -180t-189.5 -76q-103 0 -168 62.5t-65 160.5z" />
    <glyph glyph-name="Egrave.c2sc" horiz-adv-x="985" 
d="M977 774h-418l-18 -94h344l-58 -291h-342l-18 -98h430l-94 -291h-801l207 1065h784zM825 1167h-331l-207 389h456z" />
    <glyph glyph-name="Egrave.c2sc.ss10" horiz-adv-x="985" 
d="M946 774h-387l-18 -94h374l-94 -291h-336l-18 -98h416l-58 -291h-823l207 1065h831zM825 1167h-331l-207 389h456z" />
    <glyph glyph-name="Egrave.ss10" horiz-adv-x="1093" 
d="M1081 1063h-448l-31 -154h430l-121 -370h-381l-32 -168h491l-71 -371h-914l279 1434h919zM961 1536h-355l-297 369h490z" />
    <glyph glyph-name="Emacron.c2sc" horiz-adv-x="985" 
d="M977 774h-418l-18 -94h344l-58 -291h-342l-18 -98h430l-94 -291h-801l207 1065h784zM295 1241l51 266h694l-51 -266h-694z" />
    <glyph glyph-name="Emacron.c2sc.ss10" horiz-adv-x="985" 
d="M946 774h-387l-18 -94h374l-94 -291h-336l-18 -98h416l-58 -291h-823l207 1065h831zM295 1241l51 266h694l-51 -266h-694z" />
    <glyph glyph-name="Emacron.ss10" horiz-adv-x="1093" 
d="M1081 1063h-448l-31 -154h430l-121 -370h-381l-32 -168h491l-71 -371h-914l279 1434h919zM403 1589l52 266h737l-51 -266h-738z" />
    <glyph glyph-name="Eogonek.c2sc" horiz-adv-x="985" 
d="M977 774h-418l-18 -94h344l-58 -291h-342l-18 -98h430l-94 -291q-141 -54 -141 -133q0 -27 17.5 -46.5t45.5 -19.5q17 0 41 6l-37 -192q-46 -14 -94 -14q-102 0 -165.5 59.5t-63.5 153.5q0 110 88 186h-492l207 1065h784z" />
    <glyph glyph-name="Eogonek.c2sc.ss10" horiz-adv-x="985" 
d="M946 774h-387l-18 -94h374l-94 -291h-336l-18 -98h416l-58 -291q-141 -54 -141 -133q0 -27 18 -46.5t46 -19.5q16 0 40 6l-36 -192q-49 -14 -95 -14q-102 0 -165.5 59.5t-63.5 153.5q0 110 88 186h-514l207 1065h831z" />
    <glyph glyph-name="Eogonek.ss10" horiz-adv-x="1093" 
d="M1081 1063h-448l-31 -154h430l-121 -370h-381l-32 -168h491l-71 -371q-154 -60 -154 -147q0 -30 19.5 -51t50.5 -21q24 0 45 8l-41 -213q-66 -16 -105 -16q-114 0 -183 65.5t-69 169.5q0 114 97 205h-574l279 1434h919z" />
    <glyph glyph-name="F.c2sc" horiz-adv-x="946" 
d="M952 723h-401l-27 -127h314l-68 -342h-311l-49 -254h-408l207 1065h760z" />
    <glyph glyph-name="F.c2sc.ss10" horiz-adv-x="946" 
d="M905 723h-354l-27 -127h340l-110 -342h-295l-49 -254h-408l207 1065h809z" />
    <glyph glyph-name="F.ss10" horiz-adv-x="1036" 
d="M1055 1051h-418l-33 -168h406l-125 -383h-355l-98 -500h-428l279 1434h897z" />
    <glyph glyph-name="G.c2sc" horiz-adv-x="1155" 
d="M672 672h440l-117 -598q-187 -107 -389 -107q-241 0 -399 147t-158 371q-2 125 48.5 239t137.5 197t209.5 131t257.5 46q181 0 351 -64l-107 -323q-124 53 -223 53q-122 0 -200.5 -73.5t-78.5 -178.5q0 -98 55 -154.5t148 -56.5q29 0 53 4l17 86h-137z" />
    <glyph glyph-name="G.c2sc.ss01" horiz-adv-x="1155" 
d="M711 565l387 37l-103 -528q-187 -107 -389 -107q-241 0 -399 147t-158 371q-2 125 48.5 239t137.5 197t209.5 131t257.5 46q181 0 351 -64l-107 -323q-119 49 -225 49q-119 0 -195.5 -72t-76.5 -176q0 -96 53.5 -151.5t144.5 -55.5h12z" />
    <glyph glyph-name="G.ss01" horiz-adv-x="1423" 
d="M961 752l434 41l-133 -691q-237 -135 -471 -135q-151 -2 -284 51t-225 145.5t-144.5 220.5t-51.5 271q-3 158 62 307.5t176 261t269 178.5t331 64q112 0 233 -26t219 -72l-125 -385q-73 42 -163 65t-170 23q-176 0 -288 -116t-112 -283q0 -143 78 -226.5t207 -83.5
q44 0 84 9z" />
    <glyph glyph-name="Gbreve.c2sc" horiz-adv-x="1155" 
d="M672 672h440l-117 -598q-187 -107 -389 -107q-241 0 -399 147t-158 371q-2 125 48.5 239t137.5 197t209.5 131t257.5 46q181 0 351 -64l-107 -323q-124 53 -223 53q-122 0 -200.5 -73.5t-78.5 -178.5q0 -98 55 -154.5t148 -56.5q29 0 53 4l17 86h-137zM408 1507
q0 31 2 41h260q-4 -56 28 -91.5t84 -35.5q55 0 94.5 35.5t45.5 91.5h262q-12 -166 -133.5 -276.5t-290.5 -110.5q-149 0 -250.5 99t-101.5 247z" />
    <glyph glyph-name="Gbreve.c2sc.ss01" horiz-adv-x="1155" 
d="M711 565l387 37l-103 -528q-187 -107 -389 -107q-241 0 -399 147t-158 371q-2 125 48.5 239t137.5 197t209.5 131t257.5 46q181 0 351 -64l-107 -323q-119 49 -225 49q-119 0 -195.5 -72t-76.5 -176q0 -96 53.5 -151.5t144.5 -55.5h12zM408 1507q0 31 2 41h260
q-4 -56 28 -91.5t84 -35.5q55 0 94.5 35.5t45.5 91.5h262q-12 -166 -133.5 -276.5t-290.5 -110.5q-149 0 -250.5 99t-101.5 247z" />
    <glyph glyph-name="Gbreve.ss01" horiz-adv-x="1423" 
d="M961 752l434 41l-133 -691q-237 -135 -471 -135q-151 -2 -284 51t-225 145.5t-144.5 220.5t-51.5 271q-3 158 62 307.5t176 261t269 178.5t331 64q112 0 233 -26t219 -72l-125 -385q-73 42 -163 65t-170 23q-176 0 -288 -116t-112 -283q0 -143 78 -226.5t207 -83.5
q44 0 84 9zM649 1878q0 31 2 39h260q-4 -56 33.5 -91.5t95.5 -35.5q63 0 106.5 35.5t49.5 91.5h262q-12 -166 -137 -276.5t-303 -110.5q-154 0 -261.5 100.5t-107.5 247.5z" />
    <glyph glyph-name="Gcircumflex.c2sc" horiz-adv-x="1155" 
d="M672 672h440l-117 -598q-187 -107 -389 -107q-241 0 -399 147t-158 371q-2 125 48.5 239t137.5 197t209.5 131t257.5 46q181 0 351 -64l-107 -323q-124 53 -223 53q-122 0 -200.5 -73.5t-78.5 -178.5q0 -98 55 -154.5t148 -56.5q29 0 53 4l17 86h-137zM1161 1167h-301
l-98 154l-160 -154h-326l334 389h369z" />
    <glyph glyph-name="Gcircumflex.c2sc.ss01" horiz-adv-x="1155" 
d="M711 565l387 37l-103 -528q-187 -107 -389 -107q-241 0 -399 147t-158 371q-2 125 48.5 239t137.5 197t209.5 131t257.5 46q181 0 351 -64l-107 -323q-119 49 -225 49q-119 0 -195.5 -72t-76.5 -176q0 -96 53.5 -151.5t144.5 -55.5h12zM1161 1167h-301l-98 154l-160 -154
h-326l334 389h369z" />
    <glyph glyph-name="Gcircumflex.ss01" horiz-adv-x="1423" 
d="M961 752l434 41l-133 -691q-237 -135 -471 -135q-151 -2 -284 51t-225 145.5t-144.5 220.5t-51.5 271q-3 158 62 307.5t176 261t269 178.5t331 64q112 0 233 -26t219 -72l-125 -385q-73 42 -163 65t-170 23q-176 0 -288 -116t-112 -283q0 -143 78 -226.5t207 -83.5
q44 0 84 9zM1425 1536h-301l-98 154l-160 -154h-325l309 369h410z" />
    <glyph glyph-name="uni0122.c2sc" horiz-adv-x="1155" 
d="M672 672h440l-117 -598q-187 -107 -389 -107q-241 0 -399 147t-158 371q-2 125 48.5 239t137.5 197t209.5 131t257.5 46q181 0 351 -64l-107 -323q-124 53 -223 53q-122 0 -200.5 -73.5t-78.5 -178.5q0 -98 55 -154.5t148 -56.5q29 0 53 4l17 86h-137zM156 -530l176 428
h297l-221 -404z" />
    <glyph glyph-name="uni0122.c2sc.ss01" horiz-adv-x="1155" 
d="M711 565l387 37l-103 -528q-187 -107 -389 -107q-241 0 -399 147t-158 371q-2 125 48.5 239t137.5 197t209.5 131t257.5 46q181 0 351 -64l-107 -323q-119 49 -225 49q-119 0 -195.5 -72t-76.5 -176q0 -96 53.5 -151.5t144.5 -55.5h12zM156 -530l176 428h297l-221 -404z
" />
    <glyph glyph-name="uni0122.ss01" horiz-adv-x="1423" 
d="M961 752l434 41l-133 -691q-237 -135 -471 -135q-151 -2 -284 51t-225 145.5t-144.5 220.5t-51.5 271q-3 158 62 307.5t176 261t269 178.5t331 64q112 0 233 -26t219 -72l-125 -385q-73 42 -163 65t-170 23q-176 0 -288 -116t-112 -283q0 -143 78 -226.5t207 -83.5
q44 0 84 9zM342 -530l176 428h297l-221 -404z" />
    <glyph glyph-name="Gdotaccent.c2sc" horiz-adv-x="1155" 
d="M672 672h440l-117 -598q-187 -107 -389 -107q-241 0 -399 147t-158 371q-2 125 48.5 239t137.5 197t209.5 131t257.5 46q181 0 351 -64l-107 -323q-124 53 -223 53q-122 0 -200.5 -73.5t-78.5 -178.5q0 -98 55 -154.5t148 -56.5q29 0 53 4l17 86h-137zM524 1352
q0 100 76 171.5t182 71.5q96 0 159 -59t63 -152q0 -100 -76.5 -171.5t-182.5 -71.5q-96 0 -158.5 59t-62.5 152z" />
    <glyph glyph-name="Gdotaccent.c2sc.ss01" horiz-adv-x="1155" 
d="M711 565l387 37l-103 -528q-187 -107 -389 -107q-241 0 -399 147t-158 371q-2 125 48.5 239t137.5 197t209.5 131t257.5 46q181 0 351 -64l-107 -323q-119 49 -225 49q-119 0 -195.5 -72t-76.5 -176q0 -96 53.5 -151.5t144.5 -55.5h12zM524 1352q0 100 76 171.5t182 71.5
q96 0 159 -59t63 -152q0 -100 -76.5 -171.5t-182.5 -71.5q-96 0 -158.5 59t-62.5 152z" />
    <glyph glyph-name="Gdotaccent.c2sc.ss01.ss08" horiz-adv-x="1155" 
d="M711 565l387 37l-103 -528q-187 -107 -389 -107q-241 0 -399 147t-158 371q-2 125 48.5 239t137.5 197t209.5 131t257.5 46q181 0 351 -64l-107 -323q-119 49 -225 49q-119 0 -195.5 -72t-76.5 -176q0 -96 53.5 -151.5t144.5 -55.5h12zM592 1561h416l-74 -385h-416z" />
    <glyph glyph-name="Gdotaccent.c2sc.ss08" horiz-adv-x="1155" 
d="M672 672h440l-117 -598q-187 -107 -389 -107q-241 0 -399 147t-158 371q-2 125 48.5 239t137.5 197t209.5 131t257.5 46q181 0 351 -64l-107 -323q-124 53 -223 53q-122 0 -200.5 -73.5t-78.5 -178.5q0 -98 55 -154.5t148 -56.5q29 0 53 4l17 86h-137zM592 1561h416
l-74 -385h-416z" />
    <glyph glyph-name="Gdotaccent.ss01" horiz-adv-x="1423" 
d="M961 752l434 41l-133 -691q-237 -135 -471 -135q-151 -2 -284 51t-225 145.5t-144.5 220.5t-51.5 271q-3 158 62 307.5t176 261t269 178.5t331 64q112 0 233 -26t219 -72l-125 -385q-73 42 -163 65t-170 23q-176 0 -288 -116t-112 -283q0 -143 78 -226.5t207 -83.5
q44 0 84 9zM772 1724q0 104 79 180t189 76q103 0 168.5 -62.5t65.5 -160.5q0 -104 -79 -180t-189 -76q-103 0 -168.5 62.5t-65.5 160.5z" />
    <glyph glyph-name="Gdotaccent.ss01.ss08" horiz-adv-x="1423" 
d="M961 752l434 41l-133 -691q-237 -135 -471 -135q-151 -2 -284 51t-225 145.5t-144.5 220.5t-51.5 271q-3 158 62 307.5t176 261t269 178.5t331 64q112 0 233 -26t219 -72l-125 -385q-73 42 -163 65t-170 23q-176 0 -288 -116t-112 -283q0 -143 78 -226.5t207 -83.5
q44 0 84 9zM834 1952h456l-80 -424h-456z" />
    <glyph glyph-name="Gdotaccent.ss08" horiz-adv-x="1423" 
d="M854 891h561l-155 -799q-232 -125 -469 -125q-151 -2 -284 51t-225 145.5t-144.5 220.5t-51.5 271q-3 158 62 307.5t176 261t269 178.5t331 64q112 0 233 -26t219 -72l-125 -393q-73 42 -163 65t-170 23q-176 0 -288 -111.5t-112 -271.5q0 -138 85 -221.5t220 -83.5
q46 0 121 16l31 150h-234zM834 1952h456l-80 -424h-456z" />
    <glyph glyph-name="H.c2sc" horiz-adv-x="1290" 
d="M887 1065h420l-207 -1065h-420l68 346h-259l-67 -346h-420l207 1065h420l-64 -330h258z" />
    <glyph glyph-name="Hbar.c2sc" horiz-adv-x="1290" 
d="M1329 975l-31 -158h-41l-157 -817h-420l68 346h-259l-67 -346h-420l158 817h-37l31 158h36l19 90h420l-19 -90h258l19 90h420l-19 -90h41zM823 735l15 82h-258l-15 -82h258z" />
    <glyph glyph-name="Hcircumflex.c2sc" horiz-adv-x="1290" 
d="M887 1065h420l-207 -1065h-420l68 346h-259l-67 -346h-420l207 1065h420l-64 -330h258zM1214 1167h-301l-98 154l-160 -154h-325l334 389h368z" />
    <glyph glyph-name="I.c2sc" horiz-adv-x="632" 
d="M12 0l207 1065h420l-207 -1065h-420z" />
    <glyph glyph-name="IJ.c2sc" horiz-adv-x="1499" 
d="M12 0l207 1065h420l-207 -1065h-420zM592 61l70 357q92 -56 184 -56q141 0 168 148l108 555h420l-127 -649q-40 -205 -178 -323t-340 -118q-172 0 -305 86z" />
    <glyph glyph-name="Iacute.c2sc" horiz-adv-x="632" 
d="M12 0l207 1065h420l-207 -1065h-420zM233 1167l230 389h481l-354 -389h-357z" />
    <glyph glyph-name="Ibreve.c2sc" horiz-adv-x="632" 
d="M12 0l207 1065h420l-207 -1065h-420zM158 1503q0 31 2 41h254q-1 -55 25 -88t69 -33q49 0 81.5 33.5t37.5 87.5h258q-12 -165 -124 -271t-274 -106q-142 0 -235.5 96.5t-93.5 239.5z" />
    <glyph glyph-name="Icircumflex.c2sc" horiz-adv-x="632" 
d="M12 0l207 1065h420l-207 -1065h-420zM887 1167h-301l-99 154l-159 -154h-326l334 389h369z" />
    <glyph glyph-name="Idieresis.c2sc" horiz-adv-x="632" 
d="M12 0l207 1065h420l-207 -1065h-420zM53 1337q0 80 62 138.5t147 58.5q77 0 128.5 -49.5t51.5 -122.5q0 -80 -62 -138.5t-147 -58.5q-77 0 -128.5 49.5t-51.5 122.5zM526 1337q0 80 62 138.5t147 58.5q77 0 128.5 -49.5t51.5 -122.5q0 -80 -61.5 -138.5t-146.5 -58.5
q-77 0 -129 49.5t-52 122.5z" />
    <glyph glyph-name="Idieresis.c2sc.ss08" horiz-adv-x="632" 
d="M12 0l207 1065h420l-207 -1065h-420zM141 1507h328l-61 -315h-328zM563 1507h328l-62 -315h-327z" />
    <glyph glyph-name="Idieresis.ss08" horiz-adv-x="645" 
d="M721 1434l-279 -1434h-428l279 1434h428zM160 1888h362l-67 -348h-363zM672 1888h362l-67 -348h-363z" />
    <glyph glyph-name="Idotaccent.c2sc" horiz-adv-x="593" 
d="M-4 0l182 942l424 41l-190 -983h-416zM211 1249q0 100 76 172t182 72q96 0 158.5 -59t62.5 -152q0 -100 -76 -172t-182 -72q-96 0 -158.5 59t-62.5 152z" />
    <glyph glyph-name="Idotaccent.c2sc.ss08" horiz-adv-x="632" 
d="M12 0l207 1065h420l-207 -1065h-420zM317 1561h416l-74 -385h-415z" />
    <glyph glyph-name="Idotaccent.ss08" horiz-adv-x="645" 
d="M721 1434l-279 -1434h-428l279 1434h428zM379 1952h457l-80 -424h-457z" />
    <glyph glyph-name="Igrave.c2sc" horiz-adv-x="632" 
d="M12 0l207 1065h420l-207 -1065h-420zM647 1167h-332l-206 389h456z" />
    <glyph glyph-name="Imacron.c2sc" horiz-adv-x="632" 
d="M12 0l207 1065h420l-207 -1065h-420zM117 1241l51 266h694l-51 -266h-694z" />
    <glyph glyph-name="Iogonek.c2sc" horiz-adv-x="632" 
d="M291 -133q0 -27 17.5 -46.5t45.5 -19.5q17 0 41 6l-37 -192q-46 -14 -94 -14q-102 0 -165.5 59.5t-63.5 153.5q0 110 88 186h-111l207 1065h420l-207 -1065q-141 -54 -141 -133z" />
    <glyph glyph-name="Itilde.c2sc" horiz-adv-x="632" 
d="M12 0l207 1065h420l-207 -1065h-420zM457 1231q-53 24 -88 24q-54 0 -72 -59l-221 -2q31 161 110.5 242.5t188.5 81.5q66 0 141 -37q75 -25 88 -25q54 0 72 60l221 2q-31 -161 -110.5 -242.5t-188.5 -81.5q-66 0 -141 37z" />
    <glyph glyph-name="J.c2sc" horiz-adv-x="866" 
d="M-41 61l70 357q92 -56 184 -56q141 0 168 148l108 555h420l-127 -649q-40 -205 -178 -323t-340 -118q-172 0 -305 86z" />
    <glyph glyph-name="Jcircumflex.c2sc" horiz-adv-x="866" 
d="M-41 61l70 357q92 -56 184 -56q141 0 168 148l108 555h420l-127 -649q-40 -205 -178 -323t-340 -118q-172 0 -305 86zM1114 1167h-301l-59 152l-117 -152h-326l303 389h349z" />
    <glyph glyph-name="K.c2sc" horiz-adv-x="1222" 
d="M1311 1065l-408 -541l221 -524h-469l-147 442l-86 -442h-420l207 1065h420l-82 -420l289 420h475z" />
    <glyph glyph-name="uni0136.c2sc" horiz-adv-x="1222" 
d="M1311 1065l-408 -541l221 -524h-469l-147 442l-86 -442h-420l207 1065h420l-82 -420l289 420h475zM186 -530l176 428h297l-221 -404z" />
    <glyph glyph-name="L.c2sc" horiz-adv-x="940" 
d="M494 369h411l-121 -369h-782l207 1065h420z" />
    <glyph glyph-name="Lacute.c2sc" horiz-adv-x="940" 
d="M494 369h411l-121 -369h-782l207 1065h420zM387 1167l229 389h482l-355 -389h-356z" />
    <glyph glyph-name="Lcaron.c2sc" horiz-adv-x="940" 
d="M494 369h411l-121 -369h-782l207 1065h420zM606 641l123 424h348l-170 -397z" />
    <glyph glyph-name="uni013B.c2sc" horiz-adv-x="940" 
d="M494 369h411l-121 -369h-782l207 1065h420zM35 -530l176 428h297l-221 -404z" />
    <glyph glyph-name="Ldot.c2sc" horiz-adv-x="940" 
d="M629 1065l-135 -696h411l-121 -369h-782l207 1065h420zM1022 688q0 -89 -65.5 -151t-159.5 -62q-84 0 -138.5 52t-54.5 132q0 89 65.5 151t159.5 62q84 0 138.5 -52t54.5 -132z" />
    <glyph glyph-name="Ldot.c2sc.ss08" horiz-adv-x="940" 
d="M629 1065l-135 -696h411l-121 -369h-782l207 1065h420zM664 848h360l-68 -348h-360z" />
    <glyph glyph-name="Ldot.ss08" horiz-adv-x="1009" 
d="M512 410h467l-133 -410h-842l279 1434h428zM705 1018h425l-79 -410h-426z" />
    <glyph glyph-name="Lslash.c2sc" horiz-adv-x="940" 
d="M494 369h411l-121 -369h-782l53 274l-108 -57l69 352l107 56l86 440h420l-39 -197l119 62l-70 -352l-117 -62z" />
    <glyph glyph-name="M.c2sc" horiz-adv-x="1540" 
d="M1096 1065h379l-91 -1065h-415l47 422l-338 -414l-174 420l-121 -428h-416l324 1065h379l127 -393z" />
    <glyph glyph-name="N.c2sc" horiz-adv-x="1288" 
d="M905 1065h400l-207 -1065h-389l-226 418l-82 -418h-399l207 1065h389l227 -416z" />
    <glyph glyph-name="Nacute.c2sc" horiz-adv-x="1288" 
d="M905 1065h400l-207 -1065h-389l-226 418l-82 -418h-399l207 1065h389l227 -416zM561 1167l230 389h481l-354 -389h-357z" />
    <glyph glyph-name="Ncaron.c2sc" horiz-adv-x="1288" 
d="M905 1065h400l-207 -1065h-389l-226 418l-82 -418h-399l207 1065h389l227 -416zM975 1567h325l-333 -389h-369l-182 389h301l98 -154z" />
    <glyph glyph-name="uni0145.c2sc" horiz-adv-x="1288" 
d="M905 1065h400l-207 -1065h-389l-226 418l-82 -418h-399l207 1065h389l227 -416zM209 -530l176 428h297l-221 -404z" />
    <glyph glyph-name="Eng.c2sc" horiz-adv-x="1288" 
d="M1305 1065l-207 -1065l-15 -72q-35 -171 -151.5 -278t-286.5 -107q-123 0 -252 72l68 342q62 -39 125 -39q88 0 114 96l-217 404l-82 -418h-399l207 1065h389l227 -416l80 416h400z" />
    <glyph glyph-name="Ntilde.c2sc" horiz-adv-x="1288" 
d="M905 1065h400l-207 -1065h-389l-226 418l-82 -418h-399l207 1065h389l227 -416zM776 1223q-61 30 -104 30q-70 0 -86 -69h-224q34 173 116.5 257.5t201.5 84.5q28 0 55.5 -5.5t48 -12t64.5 -23.5q76 -31 106 -31q70 0 86 70h224q-34 -173 -117 -257.5t-203 -84.5
q-28 0 -55.5 5.5t-48 12t-64.5 23.5z" />
    <glyph glyph-name="O.c2sc" horiz-adv-x="1261" 
d="M49 485q-2 123 48.5 237t137 197t205.5 132t248 47q235 0 390 -146.5t155 -371.5q2 -123 -48.5 -237t-137 -197t-205.5 -132t-248 -47q-235 0 -390 146.5t-155 371.5zM831 551q0 75 -49 124.5t-123 49.5q-84 0 -146 -63t-62 -148q0 -75 49 -124.5t123 -49.5
q83 0 145.5 63t62.5 148z" />
    <glyph glyph-name="Oacute.c2sc" horiz-adv-x="1261" 
d="M49 485q-2 123 48.5 237t137 197t205.5 132t248 47q235 0 390 -146.5t155 -371.5q2 -123 -48.5 -237t-137 -197t-205.5 -132t-248 -47q-235 0 -390 146.5t-155 371.5zM831 551q0 75 -49 124.5t-123 49.5q-84 0 -146 -63t-62 -148q0 -75 49 -124.5t123 -49.5
q83 0 145.5 63t62.5 148zM547 1167l229 389h481l-354 -389h-356z" />
    <glyph glyph-name="Obreve.c2sc" horiz-adv-x="1261" 
d="M49 485q-2 123 48.5 237t137 197t205.5 132t248 47q235 0 390 -146.5t155 -371.5q2 -123 -48.5 -237t-137 -197t-205.5 -132t-248 -47q-235 0 -390 146.5t-155 371.5zM831 551q0 75 -49 124.5t-123 49.5q-84 0 -146 -63t-62 -148q0 -75 49 -124.5t123 -49.5
q83 0 145.5 63t62.5 148zM446 1507q0 26 3 41h260q-4 -56 28 -91.5t84 -35.5q55 0 94.5 35.5t45.5 91.5h262q-12 -166 -133.5 -276.5t-290.5 -110.5q-150 0 -251.5 99.5t-101.5 246.5z" />
    <glyph glyph-name="Ocircumflex.c2sc" horiz-adv-x="1261" 
d="M49 485q-2 123 48.5 237t137 197t205.5 132t248 47q235 0 390 -146.5t155 -371.5q2 -123 -48.5 -237t-137 -197t-205.5 -132t-248 -47q-235 0 -390 146.5t-155 371.5zM831 551q0 75 -49 124.5t-123 49.5q-84 0 -146 -63t-62 -148q0 -75 49 -124.5t123 -49.5
q83 0 145.5 63t62.5 148zM1200 1167h-301l-98 154l-160 -154h-326l334 389h369z" />
    <glyph glyph-name="Odieresis.c2sc" horiz-adv-x="1261" 
d="M49 485q-2 123 48.5 237t137 197t205.5 132t248 47q235 0 390 -146.5t155 -371.5q2 -123 -48.5 -237t-137 -197t-205.5 -132t-248 -47q-235 0 -390 146.5t-155 371.5zM831 551q0 75 -49 124.5t-123 49.5q-84 0 -146 -63t-62 -148q0 -75 49 -124.5t123 -49.5
q83 0 145.5 63t62.5 148zM367 1337q0 80 61.5 138.5t146.5 58.5q77 0 129 -49.5t52 -122.5q0 -80 -62 -138.5t-147 -58.5q-77 0 -128.5 49.5t-51.5 122.5zM840 1337q0 80 62 138.5t147 58.5q77 0 128.5 -49.5t51.5 -122.5q0 -80 -62 -138.5t-147 -58.5q-77 0 -128.5 49.5
t-51.5 122.5z" />
    <glyph glyph-name="Odieresis.c2sc.ss08" horiz-adv-x="1261" 
d="M49 485q-2 123 48.5 237t137 197t205.5 132t248 47q235 0 390 -146.5t155 -371.5q2 -123 -48.5 -237t-137 -197t-205.5 -132t-248 -47q-235 0 -390 146.5t-155 371.5zM831 551q0 75 -49 124.5t-123 49.5q-84 0 -146 -63t-62 -148q0 -75 49 -124.5t123 -49.5
q83 0 145.5 63t62.5 148zM428 1507h328l-62 -315h-327zM903 1507h328l-62 -315h-327z" />
    <glyph glyph-name="Odieresis.ss08" horiz-adv-x="1603" 
d="M86 653q-3 163 62.5 314.5t176.5 261.5t265.5 175t320.5 62q147 2 278 -50t224 -143.5t146 -220t51 -272.5q3 -163 -62.5 -314.5t-177 -261.5t-266 -175t-320.5 -62q-196 -3 -357.5 86.5t-252.5 248t-88 351.5zM1176 750q0 134 -83.5 221.5t-213.5 87.5q-147 0 -253 -111
t-106 -264q0 -134 83.5 -221.5t213.5 -87.5q147 0 253 111t106 264zM618 1888h363l-68 -348h-362zM1171 1888h363l-68 -348h-362z" />
    <glyph glyph-name="Ograve.c2sc" horiz-adv-x="1261" 
d="M49 485q-2 123 48.5 237t137 197t205.5 132t248 47q235 0 390 -146.5t155 -371.5q2 -123 -48.5 -237t-137 -197t-205.5 -132t-248 -47q-235 0 -390 146.5t-155 371.5zM831 551q0 75 -49 124.5t-123 49.5q-84 0 -146 -63t-62 -148q0 -75 49 -124.5t123 -49.5
q83 0 145.5 63t62.5 148zM961 1167h-332l-207 389h457z" />
    <glyph glyph-name="Ohungarumlaut.c2sc" horiz-adv-x="1261" 
d="M49 485q-2 123 48.5 237t137 197t205.5 132t248 47q235 0 390 -146.5t155 -371.5q2 -123 -48.5 -237t-137 -197t-205.5 -132t-248 -47q-235 0 -390 146.5t-155 371.5zM831 551q0 75 -49 124.5t-123 49.5q-84 0 -146 -63t-62 -148q0 -75 49 -124.5t123 -49.5
q83 0 145.5 63t62.5 148zM426 1167l221 389h344l-329 -389h-236zM856 1167l221 389h344l-329 -389h-236z" />
    <glyph glyph-name="Omacron.c2sc" horiz-adv-x="1261" 
d="M49 485q-2 123 48.5 237t137 197t205.5 132t248 47q235 0 390 -146.5t155 -371.5q2 -123 -48.5 -237t-137 -197t-205.5 -132t-248 -47q-235 0 -390 146.5t-155 371.5zM831 551q0 75 -49 124.5t-123 49.5q-84 0 -146 -63t-62 -148q0 -75 49 -124.5t123 -49.5
q83 0 145.5 63t62.5 148zM430 1241l51 266h695l-52 -266h-694z" />
    <glyph glyph-name="Oslash.c2sc" horiz-adv-x="1261" 
d="M1233 580q2 -123 -48.5 -237t-137 -197t-205.5 -132t-248 -47q-198 0 -338 103l-102 -95l-103 113l96 88q-98 131 -98 309q-2 123 48.5 237t137 197t205.5 132t248 47q198 0 340 -105l102 97l101 -113l-96 -88q98 -131 98 -309zM457 465l268 248q-30 12 -66 12
q-84 0 -146 -63t-62 -148q0 -28 6 -49zM831 551q0 25 -6 49l-266 -248q27 -12 64 -12q83 0 145.5 63t62.5 148z" />
    <glyph glyph-name="Otilde.c2sc" horiz-adv-x="1261" 
d="M49 485q-2 123 48.5 237t137 197t205.5 132t248 47q235 0 390 -146.5t155 -371.5q2 -123 -48.5 -237t-137 -197t-205.5 -132t-248 -47q-235 0 -390 146.5t-155 371.5zM831 551q0 75 -49 124.5t-123 49.5q-84 0 -146 -63t-62 -148q0 -75 49 -124.5t123 -49.5
q83 0 145.5 63t62.5 148zM762 1223q-61 30 -105 30q-70 0 -86 -69h-223q34 173 116.5 257.5t201.5 84.5q28 0 55.5 -5.5t48 -12t64.5 -23.5q76 -31 106 -31q70 0 86 70h223q-34 -173 -116.5 -257.5t-202.5 -84.5q-28 0 -55.5 5.5t-48 12t-64.5 23.5z" />
    <glyph glyph-name="OE.c2sc" horiz-adv-x="1601" 
d="M1593 774h-417l-19 -94h344l-57 -291h-342l-19 -98h430l-94 -291h-884q-222 0 -356 126t-134 339q0 169 85 306t239 215.5t346 78.5h895zM618 336h66l76 393h-66q-103 0 -171 -65.5t-68 -165.5q0 -74 44 -118t119 -44z" />
    <glyph glyph-name="OE.c2sc.ss10" horiz-adv-x="1595" 
d="M1563 774h-387l-19 -94h375l-94 -291h-336l-19 -98h416l-57 -291h-907q-222 0 -356 126t-134 339q0 169 85 306t239 215.5t346 78.5h942zM618 336h66l76 393h-66q-103 0 -171 -65.5t-68 -165.5q0 -74 44 -118t119 -44z" />
    <glyph glyph-name="OE.ss10" horiz-adv-x="1841" 
d="M1847 1063h-448l-31 -154h430l-121 -370h-381l-32 -168h491l-72 -371h-942q-302 0 -481.5 170t-179.5 455q-4 223 110.5 410.5t315 295t438.5 103.5h1024zM784 397h64l123 639h-66q-166 0 -278.5 -107.5t-112.5 -269.5q0 -121 72.5 -191.5t197.5 -70.5z" />
    <glyph glyph-name="P.c2sc" horiz-adv-x="1110" 
d="M1114 700q0 -193 -149 -323.5t-369 -130.5h-137l-47 -246h-410l207 1065h493q189 0 300.5 -99.5t111.5 -265.5zM707 676q0 42 -29 67t-78 25h-39l-45 -225h53q57 0 97.5 38t40.5 95z" />
    <glyph glyph-name="Thorn.c2sc" horiz-adv-x="1110" 
d="M1092 586q0 -193 -149.5 -324t-369.5 -131h-137l-24 -131h-410l207 1065h409l-22 -115h84q189 0 300.5 -99t111.5 -265zM684 561q0 42 -28.5 67t-77.5 25h-39l-43 -225h51q57 0 97 38t40 95z" />
    <glyph glyph-name="Q.c2sc" horiz-adv-x="1261" 
d="M1241 70l-231 -201l-136 156q-125 -58 -266 -58q-160 0 -287.5 66t-199.5 184.5t-72 267.5q-2 123 48.5 237t137 197t205.5 132t248 47q235 0 390 -146.5t155 -371.5q0 -209 -123 -369zM618 319l-65 76l215 185l78 -82q6 24 6 55q0 81 -54 136.5t-136 55.5
q-92 0 -162 -69.5t-70 -163.5q0 -80 54.5 -136.5t133.5 -56.5z" />
    <glyph glyph-name="Q.c2sc.ss02" horiz-adv-x="1261" 
d="M1241 70l-231 -201l-138 158q-132 -60 -278 -60q-235 0 -390 146.5t-155 371.5q-2 123 48.5 237t137 197t205.5 132t248 47q235 0 390 -146.5t155 -371.5q0 -208 -125 -367zM623 340q83 0 145.5 63t62.5 148q0 75 -49 124.5t-123 49.5q-84 0 -146 -63t-62 -148
q0 -75 49 -124.5t123 -49.5z" />
    <glyph glyph-name="Q.ss02" horiz-adv-x="1630" 
d="M1618 117l-303 -252l-166 182q-171 -80 -365 -80q-196 -3 -357.5 86.5t-252.5 248t-88 351.5q-3 163 62.5 314.5t176.5 261.5t265.5 175t320.5 62q147 2 278 -50t224 -143.5t146 -220t51 -272.5q0 -276 -162 -489zM817 375q147 0 253 111t106 264q0 134 -83.5 221.5
t-213.5 87.5q-147 0 -253 -111t-106 -264q0 -134 83.5 -221.5t213.5 -87.5z" />
    <glyph glyph-name="R.c2sc" horiz-adv-x="1165" 
d="M883 434l178 -434h-467l-107 389l-75 -389h-410l207 1065h530q181 0 279 -84t98 -227q0 -106 -62 -191t-171 -129zM702 696q0 41 -26.5 63.5t-73.5 22.5h-39l-39 -200h47q57 0 94 32t37 82z" />
    <glyph glyph-name="Racute.c2sc" horiz-adv-x="1165" 
d="M883 434l178 -434h-467l-107 389l-75 -389h-410l207 1065h530q181 0 279 -84t98 -227q0 -106 -62 -191t-171 -129zM702 696q0 41 -26.5 63.5t-73.5 22.5h-39l-39 -200h47q57 0 94 32t37 82zM489 1167l230 389h481l-354 -389h-357z" />
    <glyph glyph-name="Rcaron.c2sc" horiz-adv-x="1165" 
d="M883 434l178 -434h-467l-107 389l-75 -389h-410l207 1065h530q181 0 279 -84t98 -227q0 -106 -62 -191t-171 -129zM702 696q0 41 -26.5 63.5t-73.5 22.5h-39l-39 -200h47q57 0 94 32t37 82zM903 1567h326l-334 -389h-369l-182 389h301l98 -154z" />
    <glyph glyph-name="uni0156.c2sc" horiz-adv-x="1165" 
d="M883 434l178 -434h-467l-107 389l-75 -389h-410l207 1065h530q181 0 279 -84t98 -227q0 -106 -62 -191t-171 -129zM702 696q0 41 -26.5 63.5t-73.5 22.5h-39l-39 -200h47q57 0 94 32t37 82zM137 -530l176 428h297l-221 -404z" />
    <glyph glyph-name="S.c2sc" horiz-adv-x="913" 
d="M-14 96l92 281q68 -50 142.5 -78.5t137.5 -28.5q32 0 50 12t18 33q0 20 -15 33.5t-65 38.5l-47 25q-188 99 -188 305q0 163 123.5 272t318.5 109q90 0 190 -23t177 -65l-97 -291q-61 35 -141.5 60.5t-130.5 25.5q-31 0 -47.5 -12.5t-16.5 -32.5q0 -19 14.5 -33.5
t45.5 -28.5l47 -22q123 -59 177 -138.5t54 -193.5q0 -166 -121 -271.5t-315 -105.5q-222 0 -403 129z" />
    <glyph glyph-name="Sacute.c2sc" horiz-adv-x="913" 
d="M-14 96l92 281q68 -50 142.5 -78.5t137.5 -28.5q32 0 50 12t18 33q0 20 -15 33.5t-65 38.5l-47 25q-188 99 -188 305q0 163 123.5 272t318.5 109q90 0 190 -23t177 -65l-97 -291q-61 35 -141.5 60.5t-130.5 25.5q-31 0 -47.5 -12.5t-16.5 -32.5q0 -19 14.5 -33.5
t45.5 -28.5l47 -22q123 -59 177 -138.5t54 -193.5q0 -166 -121 -271.5t-315 -105.5q-222 0 -403 129zM406 1167l229 389h481l-354 -389h-356z" />
    <glyph glyph-name="Scaron.c2sc" horiz-adv-x="913" 
d="M-14 96l92 281q68 -50 142.5 -78.5t137.5 -28.5q32 0 50 12t18 33q0 20 -15 33.5t-65 38.5l-47 25q-188 99 -188 305q0 163 123.5 272t318.5 109q90 0 190 -23t177 -65l-97 -291q-61 35 -141.5 60.5t-130.5 25.5q-31 0 -47.5 -12.5t-16.5 -32.5q0 -19 14.5 -33.5
t45.5 -28.5l47 -22q123 -59 177 -138.5t54 -193.5q0 -166 -121 -271.5t-315 -105.5q-222 0 -403 129zM819 1567h326l-334 -389h-369l-182 389h301l98 -154z" />
    <glyph glyph-name="Scedilla.c2sc" horiz-adv-x="913" 
d="M825 344q0 -133 -78.5 -229t-214.5 -131l-268 -439l-293 174l246 269q-135 36 -231 108l92 281q68 -50 142.5 -78.5t137.5 -28.5q32 0 50 12t18 33q0 20 -15 33.5t-65 38.5l-47 25q-188 99 -188 305q0 163 123.5 272t318.5 109q90 0 190 -23t177 -65l-97 -291
q-61 35 -141.5 60.5t-130.5 25.5q-31 0 -47.5 -12.5t-16.5 -32.5q0 -19 14.5 -33.5t45.5 -28.5l47 -22q123 -59 177 -138.5t54 -193.5z" />
    <glyph glyph-name="Scircumflex.c2sc" horiz-adv-x="913" 
d="M-14 96l92 281q68 -50 142.5 -78.5t137.5 -28.5q32 0 50 12t18 33q0 20 -15 33.5t-65 38.5l-47 25q-188 99 -188 305q0 163 123.5 272t318.5 109q90 0 190 -23t177 -65l-97 -291q-61 35 -141.5 60.5t-130.5 25.5q-31 0 -47.5 -12.5t-16.5 -32.5q0 -19 14.5 -33.5
t45.5 -28.5l47 -22q123 -59 177 -138.5t54 -193.5q0 -166 -121 -271.5t-315 -105.5q-222 0 -403 129zM1059 1167h-301l-99 154l-159 -154h-326l334 389h369z" />
    <glyph glyph-name="uni0218.c2sc" horiz-adv-x="913" 
d="M-14 96l92 281q68 -50 142.5 -78.5t137.5 -28.5q32 0 50 12t18 33q0 20 -15 33.5t-65 38.5l-47 25q-188 99 -188 305q0 163 123.5 272t318.5 109q90 0 190 -23t177 -65l-97 -291q-61 35 -141.5 60.5t-130.5 25.5q-31 0 -47.5 -12.5t-16.5 -32.5q0 -19 14.5 -33.5
t45.5 -28.5l47 -22q123 -59 177 -138.5t54 -193.5q0 -166 -121 -271.5t-315 -105.5q-222 0 -403 129zM53 -530l176 428h297l-221 -404z" />
    <glyph glyph-name="uni1E9E.alt" horiz-adv-x="1591" 
d="M1556 512q3 -146 -83 -273t-234.5 -201t-320.5 -71q-214 0 -383 111l133 358q143 -90 266 -90q86 0 140 42.5t54 111.5t-51.5 111t-150.5 42q-94 0 -189 -32l164 448h-262l-207 -1069h-428l279 1434h1245l-279 -525q139 -31 223 -138.5t84 -258.5z" />
    <glyph glyph-name="T.c2sc" horiz-adv-x="948" 
d="M1008 1065l-19 -369h-264l-135 -696h-420l135 696h-264l121 369h846z" />
    <glyph glyph-name="T.c2sc.ss10" horiz-adv-x="946" 
d="M1059 1065l-119 -369h-215l-135 -696h-420l135 696h-254l72 369h936z" />
    <glyph glyph-name="T.ss10" horiz-adv-x="1126" 
d="M1296 1434l-129 -398h-284l-201 -1036h-426l201 1036h-307l77 398h1069z" />
    <glyph glyph-name="Tbar.c2sc" horiz-adv-x="948" 
d="M989 696h-264l-25 -121h191l-55 -282h-189l-57 -293h-420l57 293h-186l55 282h185l24 121h-264l121 369h846z" />
    <glyph glyph-name="Tbar.ss10" horiz-adv-x="1126" 
d="M1167 1036h-284l-31 -157h164l-64 -324h-161l-109 -555h-426l109 555h-166l63 324h164l31 157h-307l77 398h1069z" />
    <glyph glyph-name="Tcaron.c2sc" horiz-adv-x="948" 
d="M1008 1065l-19 -369h-264l-135 -696h-420l135 696h-264l121 369h846zM805 1567h325l-333 -389h-369l-182 389h301l98 -154z" />
    <glyph glyph-name="Tcaron.c2sc.ss10" horiz-adv-x="946" 
d="M1059 1065l-119 -369h-215l-135 -696h-420l135 696h-254l72 369h936zM803 1567h325l-333 -389h-369l-182 389h301l98 -154z" />
    <glyph glyph-name="Tcaron.ss10" horiz-adv-x="1126" 
d="M1296 1434l-129 -398h-284l-201 -1036h-426l201 1036h-307l77 398h1069zM956 1905h326l-309 -369h-410l-166 369h301l99 -154z" />
    <glyph glyph-name="uni0162.c2sc" horiz-adv-x="948" 
d="M1008 1065l-19 -369h-264l-135 -696h-420l135 696h-264l121 369h846zM39 -530l176 428h297l-221 -404z" />
    <glyph glyph-name="uni0162.c2sc.ss10" horiz-adv-x="946" 
d="M1059 1065l-119 -369h-215l-135 -696h-420l135 696h-254l72 369h936zM37 -530l176 428h297l-221 -404z" />
    <glyph glyph-name="uni0162.ss10" horiz-adv-x="1126" 
d="M1296 1434l-129 -398h-284l-201 -1036h-426l201 1036h-307l77 398h1069zM127 -530l176 428h297l-221 -404z" />
    <glyph glyph-name="uni021A.c2sc" horiz-adv-x="948" 
d="M1008 1065l-19 -369h-264l-135 -696h-420l135 696h-264l121 369h846zM39 -530l176 428h297l-221 -404z" />
    <glyph glyph-name="uni021A.c2sc.ss10" horiz-adv-x="946" 
d="M1059 1065l-119 -369h-215l-135 -696h-420l135 696h-254l72 369h936zM37 -530l176 428h297l-221 -404z" />
    <glyph glyph-name="uni021A.ss10" horiz-adv-x="1126" 
d="M1296 1434l-129 -398h-284l-201 -1036h-426l201 1036h-307l77 398h1069zM127 -530l176 428h297l-221 -404z" />
    <glyph glyph-name="U.c2sc" horiz-adv-x="1187" 
d="M68 414q0 73 14 133l100 518h420l-113 -573q-4 -32 -4 -33q0 -41 23.5 -64.5t64.5 -23.5q50 0 83.5 34t45.5 99l109 561h420l-113 -578q-22 -108 -69.5 -198.5t-119 -159.5t-172 -108t-220.5 -39q-204 0 -336.5 114t-132.5 318z" />
    <glyph glyph-name="U.c2sc.ss03" horiz-adv-x="1214" 
d="M811 1065h420l-207 -1065h-410l17 88q-115 -106 -295 -106q-131 0 -212 86.5t-81 228.5q0 52 10 104l129 664h420l-113 -573q-4 -32 -4 -33q0 -41 23.5 -64.5t64.5 -23.5q50 0 83.5 34t45.5 99z" />
    <glyph glyph-name="U.ss03" horiz-adv-x="1411" 
d="M1069 1434h428l-278 -1434h-410l18 92q-137 -119 -313 -119q-187 0 -306.5 123t-119.5 338q0 79 16 164l162 836h428l-164 -848q-6 -30 -6 -56q0 -72 40 -113.5t112 -41.5q186 0 233 237z" />
    <glyph glyph-name="Uacute.c2sc" horiz-adv-x="1187" 
d="M68 414q0 73 14 133l100 518h420l-113 -573q-4 -32 -4 -33q0 -41 23.5 -64.5t64.5 -23.5q50 0 83.5 34t45.5 99l109 561h420l-113 -578q-22 -108 -69.5 -198.5t-119 -159.5t-172 -108t-220.5 -39q-204 0 -336.5 114t-132.5 318zM510 1167l229 389h482l-355 -389h-356z
" />
    <glyph glyph-name="Uacute.c2sc.ss03" horiz-adv-x="1214" 
d="M811 1065h420l-207 -1065h-410l17 88q-115 -106 -295 -106q-131 0 -212 86.5t-81 228.5q0 52 10 104l129 664h420l-113 -573q-4 -32 -4 -33q0 -41 23.5 -64.5t64.5 -23.5q50 0 83.5 34t45.5 99zM510 1167l229 389h482l-355 -389h-356z" />
    <glyph glyph-name="Uacute.ss03" horiz-adv-x="1411" 
d="M1069 1434h428l-278 -1434h-410l18 92q-137 -119 -313 -119q-187 0 -306.5 123t-119.5 338q0 79 16 164l162 836h428l-164 -848q-6 -30 -6 -56q0 -72 40 -113.5t112 -41.5q186 0 233 237zM707 1536l161 369h490l-297 -369h-354z" />
    <glyph glyph-name="Ubreve.c2sc" horiz-adv-x="1187" 
d="M68 414q0 73 14 133l100 518h420l-113 -573q-4 -32 -4 -33q0 -41 23.5 -64.5t64.5 -23.5q50 0 83.5 34t45.5 99l109 561h420l-113 -578q-22 -108 -69.5 -198.5t-119 -159.5t-172 -108t-220.5 -39q-204 0 -336.5 114t-132.5 318zM410 1507q0 31 2 41h260q-4 -56 28 -91.5
t84 -35.5q55 0 94.5 35.5t45.5 91.5h262q-12 -166 -133.5 -276.5t-290.5 -110.5q-149 0 -250.5 99t-101.5 247z" />
    <glyph glyph-name="Ubreve.c2sc.ss03" horiz-adv-x="1214" 
d="M811 1065h420l-207 -1065h-410l17 88q-115 -106 -295 -106q-131 0 -212 86.5t-81 228.5q0 52 10 104l129 664h420l-113 -573q-4 -32 -4 -33q0 -41 23.5 -64.5t64.5 -23.5q50 0 83.5 34t45.5 99zM410 1507q0 31 2 41h260q-4 -56 28 -91.5t84 -35.5q55 0 94.5 35.5
t45.5 91.5h262q-12 -166 -133.5 -276.5t-290.5 -110.5q-149 0 -250.5 99t-101.5 247z" />
    <glyph glyph-name="Ubreve.ss03" horiz-adv-x="1411" 
d="M1069 1434h428l-278 -1434h-410l18 92q-137 -119 -313 -119q-187 0 -306.5 123t-119.5 338q0 79 16 164l162 836h428l-164 -848q-6 -30 -6 -56q0 -72 40 -113.5t112 -41.5q186 0 233 237zM571 1878q0 31 2 39h261q-4 -56 33.5 -91.5t95.5 -35.5q63 0 106 35.5t49 91.5
h262q-12 -166 -137 -276.5t-303 -110.5q-154 0 -261.5 100.5t-107.5 247.5z" />
    <glyph glyph-name="Ucircumflex.c2sc" horiz-adv-x="1187" 
d="M68 414q0 73 14 133l100 518h420l-113 -573q-4 -32 -4 -33q0 -41 23.5 -64.5t64.5 -23.5q50 0 83.5 34t45.5 99l109 561h420l-113 -578q-22 -108 -69.5 -198.5t-119 -159.5t-172 -108t-220.5 -39q-204 0 -336.5 114t-132.5 318zM1163 1167h-301l-98 154l-160 -154h-325
l333 389h369z" />
    <glyph glyph-name="Ucircumflex.c2sc.ss03" horiz-adv-x="1214" 
d="M811 1065h420l-207 -1065h-410l17 88q-115 -106 -295 -106q-131 0 -212 86.5t-81 228.5q0 52 10 104l129 664h420l-113 -573q-4 -32 -4 -33q0 -41 23.5 -64.5t64.5 -23.5q50 0 83.5 34t45.5 99zM1163 1167h-301l-98 154l-160 -154h-325l333 389h369z" />
    <glyph glyph-name="Ucircumflex.ss03" horiz-adv-x="1411" 
d="M1069 1434h428l-278 -1434h-410l18 92q-137 -119 -313 -119q-187 0 -306.5 123t-119.5 338q0 79 16 164l162 836h428l-164 -848q-6 -30 -6 -56q0 -72 40 -113.5t112 -41.5q186 0 233 237zM1348 1536h-301l-99 154l-160 -154h-325l309 369h410z" />
    <glyph glyph-name="Udieresis.c2sc" horiz-adv-x="1187" 
d="M68 414q0 73 14 133l100 518h420l-113 -573q-4 -32 -4 -33q0 -41 23.5 -64.5t64.5 -23.5q50 0 83.5 34t45.5 99l109 561h420l-113 -578q-22 -108 -69.5 -198.5t-119 -159.5t-172 -108t-220.5 -39q-204 0 -336.5 114t-132.5 318zM330 1337q0 80 62 138.5t147 58.5
q77 0 128.5 -49.5t51.5 -122.5q0 -80 -62 -138.5t-147 -58.5q-77 0 -128.5 49.5t-51.5 122.5zM803 1337q0 80 62 138.5t147 58.5q77 0 128.5 -49.5t51.5 -122.5q0 -80 -62 -138.5t-147 -58.5q-77 0 -128.5 49.5t-51.5 122.5z" />
    <glyph glyph-name="Udieresis.c2sc.ss03" horiz-adv-x="1214" 
d="M811 1065h420l-207 -1065h-410l17 88q-115 -106 -295 -106q-131 0 -212 86.5t-81 228.5q0 52 10 104l129 664h420l-113 -573q-4 -32 -4 -33q0 -41 23.5 -64.5t64.5 -23.5q50 0 83.5 34t45.5 99zM330 1337q0 80 62 138.5t147 58.5q77 0 128.5 -49.5t51.5 -122.5
q0 -80 -62 -138.5t-147 -58.5q-77 0 -128.5 49.5t-51.5 122.5zM803 1337q0 80 62 138.5t147 58.5q77 0 128.5 -49.5t51.5 -122.5q0 -80 -62 -138.5t-147 -58.5q-77 0 -128.5 49.5t-51.5 122.5z" />
    <glyph glyph-name="Udieresis.c2sc.ss03.ss08" horiz-adv-x="1214" 
d="M811 1065h420l-207 -1065h-410l17 88q-115 -106 -295 -106q-131 0 -212 86.5t-81 228.5q0 52 10 104l129 664h420l-113 -573q-4 -32 -4 -33q0 -41 23.5 -64.5t64.5 -23.5q50 0 83.5 34t45.5 99zM391 1507h328l-62 -315h-327zM866 1507h328l-61 -315h-328z" />
    <glyph glyph-name="Udieresis.c2sc.ss08" horiz-adv-x="1187" 
d="M68 414q0 73 14 133l100 518h420l-113 -573q-4 -32 -4 -33q0 -41 23.5 -64.5t64.5 -23.5q50 0 83.5 34t45.5 99l109 561h420l-113 -578q-22 -108 -69.5 -198.5t-119 -159.5t-172 -108t-220.5 -39q-204 0 -336.5 114t-132.5 318zM391 1507h328l-62 -315h-327zM866 1507
h328l-61 -315h-328z" />
    <glyph glyph-name="Udieresis.ss03" horiz-adv-x="1411" 
d="M1069 1434h428l-278 -1434h-410l18 92q-137 -119 -313 -119q-187 0 -306.5 123t-119.5 338q0 79 16 164l162 836h428l-164 -848q-6 -30 -6 -56q0 -72 40 -113.5t112 -41.5q186 0 233 237zM449 1700q0 91 68 155t163 64q86 0 142.5 -53.5t56.5 -136.5q0 -91 -68.5 -155.5
t-163.5 -64.5q-86 0 -142 54t-56 137zM1001 1700q0 91 68.5 155t163.5 64q86 0 142.5 -53.5t56.5 -136.5q0 -91 -68.5 -155.5t-163.5 -64.5q-86 0 -142.5 54t-56.5 137z" />
    <glyph glyph-name="Udieresis.ss03.ss08" horiz-adv-x="1411" 
d="M1069 1434h428l-278 -1434h-410l18 92q-137 -119 -313 -119q-187 0 -306.5 123t-119.5 338q0 79 16 164l162 836h428l-164 -848q-6 -30 -6 -56q0 -72 40 -113.5t112 -41.5q186 0 233 237zM516 1888h363l-68 -348h-362zM1069 1888h363l-68 -348h-363z" />
    <glyph glyph-name="Udieresis.ss08" horiz-adv-x="1396" 
d="M96 479q0 56 17 156l155 799h428l-164 -848q-6 -30 -6 -56q0 -72 40 -113.5t112 -41.5q186 0 233 237l160 822h428l-168 -867q-25 -126 -81 -232.5t-140 -188t-202.5 -127.5t-258.5 -46q-157 0 -280.5 56.5t-198 173t-74.5 276.5zM518 1888h363l-68 -348h-362zM1071 1888
h363l-68 -348h-362z" />
    <glyph glyph-name="Ugrave.c2sc" horiz-adv-x="1187" 
d="M68 414q0 73 14 133l100 518h420l-113 -573q-4 -32 -4 -33q0 -41 23.5 -64.5t64.5 -23.5q50 0 83.5 34t45.5 99l109 561h420l-113 -578q-22 -108 -69.5 -198.5t-119 -159.5t-172 -108t-220.5 -39q-204 0 -336.5 114t-132.5 318zM924 1167h-332l-207 389h457z" />
    <glyph glyph-name="Ugrave.c2sc.ss03" horiz-adv-x="1214" 
d="M811 1065h420l-207 -1065h-410l17 88q-115 -106 -295 -106q-131 0 -212 86.5t-81 228.5q0 52 10 104l129 664h420l-113 -573q-4 -32 -4 -33q0 -41 23.5 -64.5t64.5 -23.5q50 0 83.5 34t45.5 99zM924 1167h-332l-207 389h457z" />
    <glyph glyph-name="Ugrave.ss03" horiz-adv-x="1411" 
d="M1069 1434h428l-278 -1434h-410l18 92q-137 -119 -313 -119q-187 0 -306.5 123t-119.5 338q0 79 16 164l162 836h428l-164 -848q-6 -30 -6 -56q0 -72 40 -113.5t112 -41.5q186 0 233 237zM1104 1536h-354l-297 369h489z" />
    <glyph glyph-name="Uhungarumlaut.c2sc" horiz-adv-x="1187" 
d="M68 414q0 73 14 133l100 518h420l-113 -573q-4 -32 -4 -33q0 -41 23.5 -64.5t64.5 -23.5q50 0 83.5 34t45.5 99l109 561h420l-113 -578q-22 -108 -69.5 -198.5t-119 -159.5t-172 -108t-220.5 -39q-204 0 -336.5 114t-132.5 318zM389 1167l221 389h344l-329 -389h-236z
M819 1167l221 389h344l-329 -389h-236z" />
    <glyph glyph-name="Uhungarumlaut.c2sc.ss03" horiz-adv-x="1214" 
d="M811 1065h420l-207 -1065h-410l17 88q-115 -106 -295 -106q-131 0 -212 86.5t-81 228.5q0 52 10 104l129 664h420l-113 -573q-4 -32 -4 -33q0 -41 23.5 -64.5t64.5 -23.5q50 0 83.5 34t45.5 99zM389 1167l221 389h344l-329 -389h-236zM819 1167l221 389h344l-329 -389
h-236z" />
    <glyph glyph-name="Uhungarumlaut.ss03" horiz-adv-x="1411" 
d="M1069 1434h428l-278 -1434h-410l18 92q-137 -119 -313 -119q-187 0 -306.5 123t-119.5 338q0 79 16 164l162 836h428l-164 -848q-6 -30 -6 -56q0 -72 40 -113.5t112 -41.5q186 0 233 237zM557 1536l207 369h360l-319 -369h-248zM999 1536l207 369h361l-320 -369h-248z
" />
    <glyph glyph-name="Umacron.c2sc" horiz-adv-x="1187" 
d="M68 414q0 73 14 133l100 518h420l-113 -573q-4 -32 -4 -33q0 -41 23.5 -64.5t64.5 -23.5q50 0 83.5 34t45.5 99l109 561h420l-113 -578q-22 -108 -69.5 -198.5t-119 -159.5t-172 -108t-220.5 -39q-204 0 -336.5 114t-132.5 318zM393 1241l51 266h695l-52 -266h-694z" />
    <glyph glyph-name="Umacron.c2sc.ss03" horiz-adv-x="1214" 
d="M811 1065h420l-207 -1065h-410l17 88q-115 -106 -295 -106q-131 0 -212 86.5t-81 228.5q0 52 10 104l129 664h420l-113 -573q-4 -32 -4 -33q0 -41 23.5 -64.5t64.5 -23.5q50 0 83.5 34t45.5 99zM393 1241l51 266h695l-52 -266h-694z" />
    <glyph glyph-name="Umacron.ss03" horiz-adv-x="1411" 
d="M1069 1434h428l-278 -1434h-410l18 92q-137 -119 -313 -119q-187 0 -306.5 123t-119.5 338q0 79 16 164l162 836h428l-164 -848q-6 -30 -6 -56q0 -72 40 -113.5t112 -41.5q186 0 233 237zM547 1589l51 266h737l-51 -266h-737z" />
    <glyph glyph-name="Uogonek.c2sc" horiz-adv-x="1187" 
d="M811 1065h420l-113 -578q-27 -139 -103.5 -255.5t-183.5 -172.5q-67 -37 -93.5 -63.5t-26.5 -61.5q0 -27 17.5 -46t45.5 -19q17 0 41 6l-37 -192q-53 -15 -94 -15q-102 0 -165.5 59.5t-63.5 153.5q0 52 22 101q-182 20 -294.5 132t-112.5 300q0 62 12 133l100 518h420
l-113 -573q-4 -32 -4 -33q0 -41 23.5 -64.5t64.5 -23.5q50 0 83.5 34t45.5 99z" />
    <glyph glyph-name="Uogonek.c2sc.ss03" horiz-adv-x="1214" 
d="M883 -133q0 -27 17.5 -46.5t45.5 -19.5q17 0 41 6l-37 -192q-49 -14 -94 -14q-102 0 -165.5 59.5t-63.5 153.5q0 110 88 186h-101l17 88q-115 -106 -295 -106q-131 0 -212 86.5t-81 228.5q0 52 10 104l129 664h420l-113 -573q-4 -32 -4 -33q0 -41 23.5 -64.5t64.5 -23.5
q50 0 83.5 34t45.5 99l109 561h420l-207 -1065q-141 -54 -141 -133z" />
    <glyph glyph-name="Uogonek.ss03" horiz-adv-x="1411" 
d="M1065 -147q0 -30 19.5 -51t50.5 -21q24 0 45 8l-41 -213q-66 -16 -105 -16q-114 0 -183 65.5t-69 169.5q0 114 97 205h-70l18 92q-137 -119 -313 -119q-187 0 -306.5 123t-119.5 338q0 79 16 164l162 836h428l-164 -848q-6 -30 -6 -56q0 -72 40 -113.5t112 -41.5
q186 0 233 237l160 822h428l-278 -1434q-154 -60 -154 -147z" />
    <glyph glyph-name="Uring.c2sc" horiz-adv-x="1187" 
d="M68 414q0 73 14 133l100 518h420l-113 -573q-4 -32 -4 -33q0 -41 23.5 -64.5t64.5 -23.5q50 0 83.5 34t45.5 99l109 561h420l-113 -578q-22 -108 -69.5 -198.5t-119 -159.5t-172 -108t-220.5 -39q-204 0 -336.5 114t-132.5 318zM512 1366q0 112 80 189t194 77
q103 0 170.5 -63.5t67.5 -161.5q0 -112 -80 -189t-194 -77q-103 0 -170.5 63.5t-67.5 161.5zM870 1395q0 41 -25.5 67.5t-66.5 26.5q-47 0 -79.5 -32t-32.5 -79q0 -41 25.5 -67.5t66.5 -26.5q47 0 79.5 32t32.5 79z" />
    <glyph glyph-name="Uring.c2sc.ss03" horiz-adv-x="1214" 
d="M811 1065h420l-207 -1065h-410l17 88q-115 -106 -295 -106q-131 0 -212 86.5t-81 228.5q0 52 10 104l129 664h420l-113 -573q-4 -32 -4 -33q0 -41 23.5 -64.5t64.5 -23.5q50 0 83.5 34t45.5 99zM512 1366q0 112 80 189t194 77q103 0 170.5 -63.5t67.5 -161.5
q0 -112 -80 -189t-194 -77q-103 0 -170.5 63.5t-67.5 161.5zM870 1395q0 41 -25.5 67.5t-66.5 26.5q-47 0 -79.5 -32t-32.5 -79q0 -41 25.5 -67.5t66.5 -26.5q47 0 79.5 32t32.5 79z" />
    <glyph glyph-name="Uring.ss03" horiz-adv-x="1411" 
d="M1069 1434h428l-278 -1434h-410l18 92q-137 -119 -313 -119q-187 0 -306.5 123t-119.5 338q0 79 16 164l162 836h428l-164 -848q-6 -30 -6 -56q0 -72 40 -113.5t112 -41.5q186 0 233 237zM686 1745q0 110 83 189t200 79q103 0 172 -64t69 -163q0 -111 -81 -189.5
t-199 -78.5q-105 0 -174.5 64t-69.5 163zM1055 1774q0 41 -26.5 67.5t-67.5 26.5q-51 0 -85 -32t-34 -79q0 -41 27.5 -67.5t68.5 -26.5q50 0 83.5 32t33.5 79z" />
    <glyph glyph-name="Utilde.c2sc" horiz-adv-x="1187" 
d="M68 414q0 73 14 133l100 518h420l-113 -573q-4 -32 -4 -33q0 -41 23.5 -64.5t64.5 -23.5q50 0 83.5 34t45.5 99l109 561h420l-113 -578q-22 -108 -69.5 -198.5t-119 -159.5t-172 -108t-220.5 -39q-204 0 -336.5 114t-132.5 318zM725 1223q-61 30 -104 30q-70 0 -86 -69
h-224q34 173 116.5 257.5t201.5 84.5q28 0 55.5 -5.5t48 -12t64.5 -23.5q76 -31 106 -31q70 0 86 70h223q-34 -173 -116.5 -257.5t-202.5 -84.5q-28 0 -55.5 5.5t-48 12t-64.5 23.5z" />
    <glyph glyph-name="Utilde.c2sc.ss03" horiz-adv-x="1214" 
d="M811 1065h420l-207 -1065h-410l17 88q-115 -106 -295 -106q-131 0 -212 86.5t-81 228.5q0 52 10 104l129 664h420l-113 -573q-4 -32 -4 -33q0 -41 23.5 -64.5t64.5 -23.5q50 0 83.5 34t45.5 99zM725 1223q-61 30 -104 30q-70 0 -86 -69h-224q34 173 116.5 257.5
t201.5 84.5q28 0 55.5 -5.5t48 -12t64.5 -23.5q76 -31 106 -31q70 0 86 70h223q-34 -173 -116.5 -257.5t-202.5 -84.5q-28 0 -55.5 5.5t-48 12t-64.5 23.5z" />
    <glyph glyph-name="Utilde.ss03" horiz-adv-x="1411" 
d="M1069 1434h428l-278 -1434h-410l18 92q-137 -119 -313 -119q-187 0 -306.5 123t-119.5 338q0 79 16 164l162 836h428l-164 -848q-6 -30 -6 -56q0 -72 40 -113.5t112 -41.5q186 0 233 237zM901 1597q-66 31 -110 31q-37 0 -61 -18.5t-32 -50.5h-223q28 164 116 246.5
t212 82.5q10 0 19.5 -0.5t19.5 -2t16.5 -2t18.5 -3.5t17 -4.5t19.5 -6t19.5 -6t23.5 -8t24.5 -8.5q64 -30 111 -30q76 0 92 69h223q-28 -165 -116 -247.5t-214 -82.5q-43 0 -77 8.5t-99 32.5z" />
    <glyph glyph-name="V.c2sc" horiz-adv-x="1208" 
d="M883 1065h438l-602 -1065h-418l-188 1065h395l88 -559z" />
    <glyph glyph-name="W.c2sc" horiz-adv-x="1740" 
d="M1360 1065h483l-510 -1065h-381l-102 393l-250 -393h-381l-96 1065h436l12 -490l387 535l195 -547z" />
    <glyph glyph-name="W.c2sc.ss04" horiz-adv-x="1740" 
d="M1360 1065h483l-510 -1065h-381l-102 393l-250 -393h-381l-96 1065h436l12 -490l387 535l195 -547z" />
    <glyph glyph-name="W.ss04" horiz-adv-x="1957" 
d="M1661 1434h461l-600 -1434h-398l-127 575l-348 -575h-395l-49 1434h430l14 -750l494 774l223 -780z" />
    <glyph glyph-name="Wacute.c2sc" horiz-adv-x="1740" 
d="M1360 1065h483l-510 -1065h-381l-102 393l-250 -393h-381l-96 1065h436l12 -490l387 535l195 -547zM758 1167l229 389h481l-354 -389h-356z" />
    <glyph glyph-name="Wacute.c2sc.ss04" horiz-adv-x="1740" 
d="M1360 1065h483l-510 -1065h-381l-102 393l-250 -393h-381l-96 1065h436l12 -490l387 535l195 -547zM758 1167l229 389h481l-354 -389h-356z" />
    <glyph glyph-name="Wacute.ss04" horiz-adv-x="1957" 
d="M1661 1434h461l-600 -1434h-398l-127 575l-348 -575h-395l-49 1434h430l14 -750l494 774l223 -780zM963 1536l161 369h490l-297 -369h-354z" />
    <glyph glyph-name="Wcircumflex.c2sc" horiz-adv-x="1740" 
d="M1360 1065h483l-510 -1065h-381l-102 393l-250 -393h-381l-96 1065h436l12 -490l387 535l195 -547zM1411 1167h-301l-98 154l-160 -154h-326l334 389h369z" />
    <glyph glyph-name="Wcircumflex.c2sc.ss04" horiz-adv-x="1740" 
d="M1360 1065h483l-510 -1065h-381l-102 393l-250 -393h-381l-96 1065h436l12 -490l387 535l195 -547zM1411 1167h-301l-98 154l-160 -154h-326l334 389h369z" />
    <glyph glyph-name="Wcircumflex.ss04" horiz-adv-x="1957" 
d="M1661 1434h461l-600 -1434h-398l-127 575l-348 -575h-395l-49 1434h430l14 -750l494 774l223 -780zM1604 1536h-301l-99 154l-160 -154h-325l309 369h410z" />
    <glyph glyph-name="Wdieresis.c2sc" horiz-adv-x="1740" 
d="M1360 1065h483l-510 -1065h-381l-102 393l-250 -393h-381l-96 1065h436l12 -490l387 535l195 -547zM578 1337q0 80 61.5 138.5t146.5 58.5q77 0 129 -49.5t52 -122.5q0 -80 -62 -138.5t-147 -58.5q-77 0 -128.5 49.5t-51.5 122.5zM1051 1337q0 80 62 138.5t147 58.5
q77 0 128.5 -49.5t51.5 -122.5q0 -80 -62 -138.5t-147 -58.5q-77 0 -128.5 49.5t-51.5 122.5z" />
    <glyph glyph-name="Wdieresis.c2sc.ss04" horiz-adv-x="1740" 
d="M1360 1065h483l-510 -1065h-381l-102 393l-250 -393h-381l-96 1065h436l12 -490l387 535l195 -547zM578 1337q0 80 61.5 138.5t146.5 58.5q77 0 129 -49.5t52 -122.5q0 -80 -62 -138.5t-147 -58.5q-77 0 -128.5 49.5t-51.5 122.5zM1051 1337q0 80 62 138.5t147 58.5
q77 0 128.5 -49.5t51.5 -122.5q0 -80 -62 -138.5t-147 -58.5q-77 0 -128.5 49.5t-51.5 122.5z" />
    <glyph glyph-name="Wdieresis.c2sc.ss04.ss08" horiz-adv-x="1740" 
d="M1360 1065h483l-510 -1065h-381l-102 393l-250 -393h-381l-96 1065h436l12 -490l387 535l195 -547zM639 1507h328l-62 -315h-327zM1114 1507h328l-62 -315h-327z" />
    <glyph glyph-name="Wdieresis.c2sc.ss08" horiz-adv-x="1740" 
d="M1360 1065h483l-510 -1065h-381l-102 393l-250 -393h-381l-96 1065h436l12 -490l387 535l195 -547zM639 1507h328l-62 -315h-327zM1114 1507h328l-62 -315h-327z" />
    <glyph glyph-name="Wdieresis.ss04" horiz-adv-x="1957" 
d="M1661 1434h461l-600 -1434h-398l-127 575l-348 -575h-395l-49 1434h430l14 -750l494 774l223 -780zM705 1700q0 91 68 155t163 64q86 0 142.5 -53.5t56.5 -136.5q0 -91 -68.5 -155.5t-163.5 -64.5q-86 0 -142 54t-56 137zM1257 1700q0 91 68.5 155t163.5 64
q86 0 142.5 -53.5t56.5 -136.5q0 -91 -68.5 -155.5t-163.5 -64.5q-86 0 -142.5 54t-56.5 137z" />
    <glyph glyph-name="Wdieresis.ss04.ss08" horiz-adv-x="1957" 
d="M1661 1434h461l-600 -1434h-398l-127 575l-348 -575h-395l-49 1434h430l14 -750l494 774l223 -780zM772 1888h363l-68 -348h-362zM1325 1888h363l-68 -348h-363z" />
    <glyph glyph-name="Wdieresis.ss08" horiz-adv-x="1957" 
d="M1661 1434h461l-600 -1434h-398l-127 575l-348 -575h-395l-49 1434h430l14 -750l494 774l223 -780zM772 1888h363l-68 -348h-362zM1325 1888h363l-68 -348h-363z" />
    <glyph glyph-name="Wgrave.c2sc" horiz-adv-x="1740" 
d="M1360 1065h483l-510 -1065h-381l-102 393l-250 -393h-381l-96 1065h436l12 -490l387 535l195 -547zM1171 1167h-331l-207 389h457z" />
    <glyph glyph-name="Wgrave.c2sc.ss04" horiz-adv-x="1740" 
d="M1360 1065h483l-510 -1065h-381l-102 393l-250 -393h-381l-96 1065h436l12 -490l387 535l195 -547zM1171 1167h-331l-207 389h457z" />
    <glyph glyph-name="Wgrave.ss04" horiz-adv-x="1957" 
d="M1661 1434h461l-600 -1434h-398l-127 575l-348 -575h-395l-49 1434h430l14 -750l494 774l223 -780zM1360 1536h-354l-297 369h489z" />
    <glyph glyph-name="X.c2sc" horiz-adv-x="1196" 
d="M-94 0l420 559l-199 506h442l76 -258l162 258h487l-401 -539l209 -526h-445l-84 274l-178 -274h-489z" />
    <glyph glyph-name="Y.c2sc" horiz-adv-x="1179" 
d="M1292 1065l-518 -717l-65 -348h-424l71 371l-243 694h407l96 -320l220 320h456z" />
    <glyph glyph-name="Y.c2sc.ss05" horiz-adv-x="1148" 
d="M825 1065h457l-799 -1065h-420l291 395l-252 670h408l96 -320z" />
    <glyph glyph-name="Y.ss05" horiz-adv-x="1314" 
d="M1008 1434h495l-960 -1434h-490l385 545l-237 889h442l96 -465z" />
    <glyph glyph-name="Yacute.c2sc" horiz-adv-x="1179" 
d="M1292 1065l-518 -717l-65 -348h-424l71 371l-243 694h407l96 -320l220 320h456zM485 1167l230 389h481l-354 -389h-357z" />
    <glyph glyph-name="Yacute.c2sc.ss05" horiz-adv-x="1148" 
d="M825 1065h457l-799 -1065h-420l291 395l-252 670h408l96 -320zM475 1167l230 389h481l-355 -389h-356z" />
    <glyph glyph-name="Yacute.ss05" horiz-adv-x="1314" 
d="M1008 1434h495l-960 -1434h-490l385 545l-237 889h442l96 -465zM649 1536l162 369h489l-296 -369h-355z" />
    <glyph glyph-name="Ycircumflex.c2sc" horiz-adv-x="1179" 
d="M1292 1065l-518 -717l-65 -348h-424l71 371l-243 694h407l96 -320l220 320h456zM1139 1167h-301l-99 154l-159 -154h-326l334 389h368z" />
    <glyph glyph-name="Ycircumflex.c2sc.ss05" horiz-adv-x="1148" 
d="M825 1065h457l-799 -1065h-420l291 395l-252 670h408l96 -320zM1128 1167h-301l-98 154l-160 -154h-325l334 389h368z" />
    </font>
</defs>
</svg>
