<?xml version="1.0" standalone="no"?>
<!DOCTYPE svg PUBLIC "-//W3C//DTD SVG 1.1//EN" "http://www.w3.org/Graphics/SVG/1.1/DTD/svg11.dtd" >
<svg xmlns="http://www.w3.org/2000/svg" xmlns:xlink="http://www.w3.org/1999/xlink" version="1.1">
<metadata>
Created by FontForge 20170731 at Tue Jul 18 23:50:26 2023
 By Aleksey,,,
Copyright (c) 2016 Monotype Imaging Inc. All rights reserved.
</metadata>
<defs>
<font id="NeueKabel-Regular" horiz-adv-x="0" >
  <font-face 
    font-family="Neue Kabel"
    font-weight="400"
    font-stretch="normal"
    units-per-em="2048"
    panose-1="2 12 5 2 2 2 3 2 3 3"
    ascent="1540"
    descent="-508"
    x-height="901"
    cap-height="1448"
    bbox="-1241 -545 2329 2032"
    underline-thickness="102"
    underline-position="-358"
    unicode-range="U+000D-FEFF"
  />
<missing-glyph horiz-adv-x="1392" 
d="M1208 1475v-1475h-1024v1475h1024zM995 1339h-598l299 -493zM328 1237v-999l303 499zM762 737l303 -499v999zM397 135h598l-299 494z" />
    <glyph glyph-name="ff" unicode="ff" horiz-adv-x="1167" 
d="M903 1137v-236h205v-131h-205v-770h-143v770h-410v-770h-143v770h-127l24 131h103v246q0 164 88.5 254t247.5 90h22v-135h-22q-93 0 -143 -55.5t-50 -163.5v-236h410v246q0 164 88.5 254t247.5 90h22v-135h-22q-93 0 -143 -55.5t-50 -163.5z" />
    <glyph glyph-name="fi" unicode="fi" horiz-adv-x="1085" 
d="M350 1137v-236h205v-131h-205v-770h-143v770h-127l24 131h103v246q0 164 88.5 254t247.5 90h22v-135h-22q-93 0 -143 -55.5t-50 -163.5zM778 0v887l144 28v-915h-144zM748 1249q0 43 29.5 73t72.5 30t72.5 -30t29.5 -73t-29.5 -72.5t-72.5 -29.5t-72.5 29.5t-29.5 72.5z
" />
    <glyph glyph-name="fl" unicode="fl" horiz-adv-x="1085" 
d="M350 1137v-236h205v-131h-205v-770h-143v770h-127l24 131h103v246q0 164 88.5 254t247.5 90h22v-135h-22q-93 0 -143 -55.5t-50 -163.5zM778 0v1460l144 29v-1489h-144z" />
    <glyph glyph-name="ffi" unicode="ffi" horiz-adv-x="1638" 
d="M903 1137v-236h205v-131h-205v-770h-143v770h-410v-770h-143v770h-127l24 131h103v246q0 164 88.5 254t247.5 90h22v-135h-22q-93 0 -143 -55.5t-50 -163.5v-236h410v246q0 164 88.5 254t247.5 90h22v-135h-22q-93 0 -143 -55.5t-50 -163.5zM1331 0v887l144 28v-915h-144
zM1300 1249q0 43 30 73t73 30t72.5 -30t29.5 -73t-29.5 -72.5t-72.5 -29.5t-73 29.5t-30 72.5z" />
    <glyph glyph-name="ffl" unicode="ffl" horiz-adv-x="1638" 
d="M903 1137v-236h205v-131h-205v-770h-143v770h-410v-770h-143v770h-127l24 131h103v246q0 164 88.5 254t247.5 90h22v-135h-22q-93 0 -143 -55.5t-50 -163.5v-236h410v246q0 164 88.5 254t247.5 90h22v-135h-22q-93 0 -143 -55.5t-50 -163.5zM1331 0v1460l144 29v-1489
h-144z" />
    <glyph glyph-name="T_T.liga" unicode="TT" horiz-adv-x="1984" 
d="M1939 1286h-413v-1286h-156v1286h-756v-1286h-155v1286h-414l29 148h1837z" />
    <glyph glyph-name="t_t.liga" unicode="tt" horiz-adv-x="1292" 
d="M1221 770h-263v-512q0 -67 35 -104t97 -37q73 0 131 28v-133q-58 -28 -146 -28q-119 0 -189.5 71t-70.5 193v522h-487v-512q0 -67 34.5 -104t96.5 -37q73 0 131 28v-133q-58 -28 -146 -28q-119 0 -189.5 71t-70.5 193v522h-133l25 131h108v199l144 86v-285h487v199
l143 86v-285h263v-131z" />
    <glyph glyph-name=".notdef" horiz-adv-x="1392" 
d="M1208 1475v-1475h-1024v1475h1024zM995 1339h-598l299 -493zM328 1237v-999l303 499zM762 737l303 -499v999zM397 135h598l-299 494z" />
    <glyph glyph-name=".null" 
 />
    <glyph glyph-name="nonmarkingreturn" horiz-adv-x="682" 
 />
    <glyph glyph-name="NULL" 
 />
    <glyph glyph-name="NULL" 
 />
    <glyph glyph-name="CR" unicode="&#xd;" horiz-adv-x="438" 
 />
    <glyph glyph-name="space" unicode=" " horiz-adv-x="438" 
 />
    <glyph glyph-name="exclam" unicode="!" horiz-adv-x="528" 
d="M197 436l-11 465v518l156 29v-547l-10 -465h-135zM139 106q0 52 35.5 87.5t89.5 35.5t89.5 -35.5t35.5 -87.5q0 -51 -35.5 -86.5t-89.5 -35.5t-89.5 35.5t-35.5 86.5z" />
    <glyph glyph-name="quotedbl" unicode="&#x22;" horiz-adv-x="724" 
d="M127 856v578h143v-549zM455 856v578h143v-549z" />
    <glyph glyph-name="numbersign" unicode="#" horiz-adv-x="1449" 
d="M1335 938h-241l-70 -399h217v-136h-240l-71 -403h-152l72 403h-369l-71 -403h-152l72 403h-215v136h237l70 399h-213v135h237l64 361h152l-64 -361h369l63 361h152l-64 -361h217v-135zM872 539l70 399h-369l-69 -399h368z" />
    <glyph glyph-name="dollar" unicode="$" horiz-adv-x="1075" 
d="M631 -14v-150h-148v141q-207 11 -385 160l35 170q158 -161 350 -182v545q-342 116 -342 411q0 145 96.5 249.5t245.5 123.5v129l148 29v-160q151 -22 276 -109l-30 -161q-128 94 -246 121v-508l10 -4q158 -50 240 -157t82 -251q0 -152 -90.5 -259t-241.5 -138zM483 844
v461q-84 -17 -134 -78t-50 -146q0 -158 184 -237zM803 381q0 77 -43.5 140t-128.5 100v-482q80 30 126 93.5t46 148.5z" />
    <glyph glyph-name="percent" unicode="%" horiz-adv-x="1740" 
d="M348 -16l-92 73l1126 1393l93 -74zM979 373q0 168 83.5 276.5t221.5 108.5q140 0 223.5 -107.5t83.5 -277.5t-83.5 -277.5t-223.5 -107.5q-138 0 -221.5 108.5t-83.5 276.5zM1462 373q0 120 -47.5 193t-130.5 73q-81 0 -128.5 -73t-47.5 -193t47.5 -193.5t128.5 -73.5
q83 0 130.5 73t47.5 194zM150 1059q0 168 83.5 276.5t221.5 108.5q140 0 223.5 -107.5t83.5 -277.5t-83.5 -277.5t-223.5 -107.5q-138 0 -221.5 108.5t-83.5 276.5zM633 1059q0 120 -47.5 193t-130.5 73q-81 0 -128.5 -73t-47.5 -193t47.5 -193t128.5 -73q83 0 130.5 73
t47.5 193z" />
    <glyph glyph-name="ampersand" unicode="&#x26;" horiz-adv-x="1300" 
d="M1229 88l-117 -106l-182 200q-194 -207 -416 -207q-168 0 -284.5 112.5t-116.5 274.5q0 69 20.5 127.5t62.5 107.5t91 88t119 81q-92 108 -133.5 188t-41.5 164q0 142 105.5 241t253.5 99q149 0 252.5 -98.5t103.5 -239.5q0 -53 -15.5 -99.5t-40 -83t-66.5 -73.5
t-83.5 -65.5t-101.5 -65.5l287 -313q88 138 147 297l141 -51q-74 -202 -184 -359zM391 1114q0 -58 33 -116t115 -152q128 75 187.5 135t59.5 141q0 79 -57.5 134t-140.5 55q-85 0 -141 -56t-56 -141zM831 293l-325 362q-120 -73 -176 -140.5t-56 -154.5q0 -99 70.5 -168
t175.5 -69q158 0 311 170z" />
    <glyph glyph-name="quotesingle" unicode="'" horiz-adv-x="397" 
d="M127 856v578h143v-549z" />
    <glyph glyph-name="parenleft" unicode="(" horiz-adv-x="724" 
d="M117 627q0 281 126.5 526t344.5 397l86 -116q-192 -143 -299 -354.5t-107 -452.5t107 -452.5t299 -354.5l-86 -117q-218 152 -344.5 397.5t-126.5 526.5z" />
    <glyph glyph-name="parenright" unicode=")" horiz-adv-x="724" 
d="M137 -297l-86 117q192 143 299 354.5t107 452.5t-107 452.5t-299 354.5l86 116q218 -152 344.5 -397t126.5 -526t-126.5 -526.5t-344.5 -397.5z" />
    <glyph glyph-name="asterisk" unicode="*" horiz-adv-x="813" 
d="M725 1196l-236 -66l152 -190l-100 -74l-135 203l-136 -205l-100 72l154 194l-236 66l39 117l227 -84l-10 244h123l-10 -246l231 86z" />
    <glyph glyph-name="plus" unicode="+" horiz-adv-x="1032" 
d="M946 743v-135h-360v-389h-140v389h-360v135h360v390h140v-390h360z" />
    <glyph glyph-name="comma" unicode="," horiz-adv-x="503" 
d="M41 -328l190 592h170l-208 -567z" />
    <glyph glyph-name="hyphen" unicode="-" horiz-adv-x="675" 
d="M113 408v127h450v-127h-450z" />
    <glyph glyph-name="period" unicode="." horiz-adv-x="528" 
d="M139 106q0 52 35.5 87.5t89.5 35.5t89.5 -35.5t35.5 -87.5q0 -51 -35.5 -86.5t-89.5 -35.5t-89.5 35.5t-35.5 86.5z" />
    <glyph glyph-name="slash" unicode="/" horiz-adv-x="813" 
d="M61 -317l596 1884h146l-596 -1884h-146z" />
    <glyph glyph-name="zero" unicode="0" horiz-adv-x="1282" 
d="M119 717q-2 202 59.5 369.5t183 269t279.5 98.5q118 2 218 -56.5t166.5 -159.5t102.5 -236t35 -285q1 -150 -35 -285t-102.5 -236t-166.5 -159.5t-218 -56.5q-158 -3 -279.5 98.5t-183 269t-59.5 369.5zM999 717q0 162 -38 293t-121 214t-199 83t-199 -83t-121 -214
t-38 -293t38 -293t121 -214t199 -83t199 83t121 214t38 293z" />
    <glyph glyph-name="one" unicode="1" horiz-adv-x="759" 
d="M82 1157l485 318v-1475h-155v1196l-299 -197z" />
    <glyph glyph-name="two" unicode="2" horiz-adv-x="1116" 
d="M420 147h553l-29 -147h-842l482 592q124 154 175.5 255.5t51.5 186.5q0 120 -79.5 199.5t-194.5 79.5q-114 0 -194.5 -81t-80.5 -196q0 -83 47 -172l-155 -30q-52 91 -52 202q0 177 126 300.5t309 123.5q184 0 309 -122t125 -304q0 -108 -56 -224.5t-204 -301.5z" />
    <glyph glyph-name="three" unicode="3" horiz-adv-x="1083" 
d="M950 449q0 -195 -140 -332t-341 -137q-242 0 -397 200l82 133q59 -88 139.5 -137t175.5 -49q134 0 228 94.5t94 229.5t-94.5 227t-241.5 92q-65 0 -174 -25l370 541h-536l28 148h803l-397 -551q165 -3 283 -130.5t118 -303.5z" />
    <glyph glyph-name="four" unicode="4" horiz-adv-x="1155" 
d="M1063 487v-139h-189v-348h-149v348h-705l854 1147v-1008h189zM307 487h418v564z" />
    <glyph glyph-name="five" unicode="5" horiz-adv-x="1099" 
d="M967 449q0 -195 -142 -332t-346 -137q-197 0 -356 126l53 150q139 -129 303 -129q138 0 233 94.5t95 229.5q0 133 -94 226t-232 93q-159 0 -315 -125l47 789h696l-28 -148h-525l-26 -409q76 36 174 36q93 2 179.5 -34.5t149 -99.5t99.5 -150t35 -180z" />
    <glyph glyph-name="six" unicode="6" horiz-adv-x="1187" 
d="M1075 451q0 -198 -140 -334.5t-341 -136.5q-203 0 -342 144.5t-139 358.5q-3 134 55.5 282t156 278t219.5 241.5t251 188.5l100 -115q-184 -122 -318.5 -252t-214.5 -281q115 86 261 86q189 0 320.5 -134t131.5 -326zM913 451q0 133 -91.5 225t-225.5 92t-228 -92
t-94 -225q0 -134 94.5 -229t227.5 -95t225 95t92 229z" />
    <glyph glyph-name="seven" unicode="7" horiz-adv-x="1028" 
d="M80 1434h897l-580 -1434h-168l521 1286h-699z" />
    <glyph glyph-name="eight" unicode="8" horiz-adv-x="1146" 
d="M1024 389q0 -111 -60.5 -205t-164.5 -149t-226 -55q-186 0 -318 120t-132 289q0 112 61 205.5t166 144.5q-95 50 -151 136.5t-56 189.5q0 162 125 275.5t305 113.5q118 0 217.5 -52t156.5 -141.5t57 -195.5q0 -103 -56 -189.5t-151 -136.5q105 -51 166 -144.5t61 -205.5z
M305 1055q0 -102 79 -176t189 -74t189.5 74t79.5 176q0 104 -79.5 178t-189.5 74t-189 -74t-79 -178zM862 397q0 111 -84.5 192t-204.5 81t-204 -81t-84 -192q0 -113 83.5 -191.5t204.5 -78.5t205 78.5t84 191.5z" />
    <glyph glyph-name="nine" unicode="9" horiz-adv-x="1187" 
d="M1075 950q3 -134 -55.5 -281.5t-156.5 -277.5t-219.5 -241.5t-250.5 -188.5l-100 115q385 254 532 532q-115 -86 -260 -86q-189 0 -320.5 134.5t-131.5 326.5q0 198 140 334.5t341 136.5q203 0 342 -144.5t139 -359.5zM913 983q0 134 -94 229t-227 95t-225.5 -95
t-92.5 -229q0 -133 92 -225t226 -92t227.5 92t93.5 225z" />
    <glyph glyph-name="colon" unicode=":" horiz-adv-x="528" 
d="M139 106q0 52 35.5 87.5t89.5 35.5t89.5 -35.5t35.5 -87.5q0 -51 -35.5 -86.5t-89.5 -35.5t-89.5 35.5t-35.5 86.5zM139 793q0 51 35.5 86.5t89.5 35.5t89.5 -35.5t35.5 -86.5t-35.5 -87t-89.5 -36t-89.5 36t-35.5 87z" />
    <glyph glyph-name="semicolon" unicode=";" horiz-adv-x="569" 
d="M180 793q0 51 35.5 86.5t89.5 35.5t89.5 -35.5t35.5 -86.5t-36 -87t-89 -36t-89 36t-36 87zM41 -328l190 592h170l-208 -567z" />
    <glyph glyph-name="less" unicode="&#x3c;" horiz-adv-x="978" 
d="M883 1108v-158l-609 -295l609 -295v-157l-807 407v90z" />
    <glyph glyph-name="equal" unicode="=" horiz-adv-x="1019" 
d="M86 778v135h848v-135h-848zM86 397v135h848v-135h-848z" />
    <glyph glyph-name="greater" unicode="&#x3e;" horiz-adv-x="978" 
d="M96 1108l807 -408v-90l-807 -407v157l609 295l-609 295v158z" />
    <glyph glyph-name="question" unicode="?" horiz-adv-x="874" 
d="M356 436l-6 123q-1 58 7.5 101.5t31 82.5t46 66.5t67.5 71.5q68 70 95.5 114.5t31.5 112.5q0 87 -58.5 143t-146.5 56q-95 0 -151 -65t-56 -165l-154 29q0 148 103 248t260 100q152 0 257 -96t105 -250q-2 -44 -10.5 -80.5t-18 -61t-33 -55t-40 -48t-53.5 -54.5
q-43 -44 -59.5 -62.5t-39 -51t-30.5 -63.5t-10 -75l-2 -121h-136zM301 106q0 52 35.5 87.5t89.5 35.5t89.5 -35.5t35.5 -87.5q0 -51 -35.5 -86.5t-89.5 -35.5t-89.5 35.5t-35.5 86.5z" />
    <glyph glyph-name="at" unicode="@" horiz-adv-x="1953" 
d="M1364 928l-76 -389q-6 -35 -6 -66q0 -81 38.5 -128.5t109.5 -47.5q101 0 178.5 88t77.5 240q2 130 -53.5 250t-150.5 207t-226.5 137.5t-274.5 48.5q-194 4 -359.5 -92t-261 -262.5t-92.5 -360.5q-3 -143 55 -274.5t157.5 -226.5t237.5 -150.5t288 -53.5q230 0 430 123
l24 -129q-91 -54 -211 -86t-250 -32q-173 -3 -333 62t-276 177t-184 267.5t-65 324.5q-3 171 63.5 328t180 270t271 179t329.5 63q167 3 321.5 -57.5t266 -163.5t177 -245.5t62.5 -297.5q0 -105 -33 -192t-87 -142t-121 -85t-137 -30q-88 0 -154 44.5t-88 129.5
q-50 -71 -130.5 -112t-166.5 -41q-130 0 -221.5 93t-91.5 241q0 164 113 283.5t268 119.5q80 0 144.5 -35.5t102.5 -103.5l21 100zM1169 600q0 92 -57.5 152.5t-146.5 60.5q-100 0 -172 -80t-72 -190q0 -92 58 -152.5t147 -60.5q100 0 171.5 80t71.5 190z" />
    <glyph glyph-name="A" unicode="A" horiz-adv-x="1380" 
d="M1174 0l-211 496h-545l-211 -496h-166l649 1485l649 -1485h-165zM479 639h422l-211 491z" />
    <glyph glyph-name="B" unicode="B" horiz-adv-x="1146" 
d="M1026 391q0 -173 -124.5 -282t-319.5 -109h-400v1434h379q189 0 310.5 -104.5t121.5 -268.5q0 -110 -60 -195.5t-165 -128.5q119 -42 188.5 -133.5t69.5 -212.5zM561 1286h-223v-487h223q120 0 196.5 70t76.5 182q0 104 -76.5 169.5t-196.5 65.5zM866 399q0 112 -79 182
t-205 70h-244v-504h244q126 0 205 70t79 182z" />
    <glyph glyph-name="C" unicode="C" horiz-adv-x="1396" 
d="M121 717q-3 150 56.5 288.5t162 238.5t243.5 158.5t294 55.5q194 0 370 -92l-30 -158q-153 103 -345 103q-156 3 -292.5 -77t-217 -218.5t-77.5 -298.5q-3 -160 77 -298.5t216.5 -218.5t293.5 -77q187 0 363 115l31 -158q-184 -105 -394 -105q-202 -4 -377 96t-276.5 273
t-97.5 373z" />
    <glyph glyph-name="D" unicode="D" horiz-adv-x="1361" 
d="M182 0v1434h310q154 2 293.5 -53.5t240 -151.5t159 -230t56.5 -282q2 -148 -56.5 -282t-159 -230t-240 -151.5t-293.5 -53.5h-310zM338 147h154q160 -3 296 73t214 208.5t75 288.5q3 156 -75 288t-214 208t-296 73h-154v-1139z" />
    <glyph glyph-name="E" unicode="E" horiz-adv-x="1099" 
d="M338 147h649l-29 -147h-776v1434h748l28 -148h-620v-473h514v-147h-514v-519z" />
    <glyph glyph-name="F" unicode="F" horiz-adv-x="1036" 
d="M338 1286v-520h475v-148h-475v-618h-156v1434h715l29 -148h-588z" />
    <glyph glyph-name="G" unicode="G" horiz-adv-x="1497" 
d="M801 776h545v-686q-97 -54 -223 -84.5t-255 -30.5q-150 -3 -289.5 55.5t-240.5 159t-160.5 239t-56.5 288.5q-3 150 57.5 288.5t163.5 238.5t246 158.5t297 55.5q209 0 403 -102l-31 -160q-165 115 -372 115q-121 2 -233 -45t-193 -127t-128.5 -191t-45.5 -231
q-3 -160 76 -298.5t214 -218.5t291 -77q180 0 324 63v443h-418z" />
    <glyph glyph-name="H" unicode="H" horiz-adv-x="1536" 
d="M1198 1419l156 29v-1448h-156v655h-860v-655h-156v1419l156 29v-645h860v616z" />
    <glyph glyph-name="I" unicode="I" horiz-adv-x="540" 
d="M193 0v1419l155 29v-1448h-155z" />
    <glyph glyph-name="J" unicode="J" horiz-adv-x="894" 
d="M49 78l49 141q63 -51 117.5 -73.5t120.5 -22.5q121 0 181.5 75t60.5 238v983l155 29v-1028q0 -212 -103 -328.5t-286 -116.5q-167 0 -295 103z" />
    <glyph glyph-name="K" unicode="K" horiz-adv-x="1171" 
d="M1094 0h-199l-557 719v-719h-156v1419l156 29v-692l541 678h198l-575 -695z" />
    <glyph glyph-name="L" unicode="L" horiz-adv-x="1064" 
d="M338 147h627l-29 -147h-754v1419l156 29v-1301z" />
    <glyph glyph-name="M" unicode="M" horiz-adv-x="1826" 
d="M1694 0h-156l-90 993l-535 -1018l-534 1018l-90 -993h-156l139 1511l641 -1228l641 1228z" />
    <glyph glyph-name="N" unicode="N" horiz-adv-x="1581" 
d="M1399 1450v-1511l-1061 1161v-1100h-156v1495l1061 -1161v1085z" />
    <glyph glyph-name="O" unicode="O" horiz-adv-x="1748" 
d="M121 717q-3 150 57 288.5t161.5 238.5t242 158.5t292.5 55.5q152 3 292.5 -55.5t242.5 -158.5t162 -238.5t57 -288.5q3 -150 -57 -288.5t-162 -239t-242.5 -159t-292.5 -55.5q-202 -4 -377.5 96t-277.5 273t-98 373zM1464 717q2 120 -45 231t-126.5 191t-190 127
t-228.5 45q-118 2 -228 -45t-190 -127t-126.5 -191t-44.5 -231q-2 -120 44.5 -231t126.5 -191t190 -127t228 -45q118 -2 228.5 45t190 127t126.5 191t45 231z" />
    <glyph glyph-name="P" unicode="P" horiz-adv-x="1116" 
d="M1030 948q0 -209 -153 -346t-388 -137h-151v-465h-156v1434h307q234 0 387.5 -138t153.5 -348zM866 948q0 148 -106.5 243t-270.5 95h-151v-674h151q164 0 270.5 95t106.5 241z" />
    <glyph glyph-name="Q" unicode="Q" horiz-adv-x="1748" 
d="M1425 205l203 -180l-94 -107l-217 195q-196 -138 -443 -138q-202 -4 -377.5 96t-277.5 273t-98 373q-3 150 57 288.5t161.5 238.5t242 158.5t292.5 55.5q152 3 292.5 -55.5t242.5 -158.5t162 -238.5t57 -288.5q0 -296 -203 -512zM1200 219l-280 252l90 102l297 -264
q157 171 157 408q2 120 -45 231t-126.5 191t-190 127t-228.5 45q-118 2 -228 -45t-190 -127t-126.5 -191t-44.5 -231q-2 -120 44.5 -231t126.5 -191t190 -127t228 -45q177 0 326 96z" />
    <glyph glyph-name="R" unicode="R" horiz-adv-x="1122" 
d="M1026 0h-201l-487 600v-600h-156v1434h283q224 0 364 -126t140 -321q0 -169 -111 -287t-291 -143zM338 1286v-610h127q156 0 248 85.5t92 223.5q0 132 -92.5 216.5t-247.5 84.5h-127z" />
    <glyph glyph-name="S" unicode="S" horiz-adv-x="1075" 
d="M98 137l35 170q82 -84 185 -134t206 -50q124 0 201.5 72.5t77.5 185.5q0 88 -54.5 155t-162.5 101l-94 31q-351 113 -351 413q0 160 115.5 268.5t288.5 108.5q193 0 362 -115l-30 -161q-176 129 -332 129q-108 0 -177 -65.5t-69 -164.5q0 -91 58.5 -154.5t189.5 -105.5
l94 -30q158 -50 240 -157t82 -251q0 -178 -123 -293t-316 -115q-234 0 -426 162z" />
    <glyph glyph-name="T" unicode="T" horiz-adv-x="1073" 
d="M1028 1286h-414v-1286h-155v1286h-414l29 148h925z" />
    <glyph glyph-name="U" unicode="U" horiz-adv-x="1376" 
d="M162 543v876l155 29v-889q0 -198 101.5 -317t269.5 -119t269.5 119t101.5 317v860l155 29v-905q0 -253 -145.5 -410.5t-380.5 -157.5t-380.5 157.5t-145.5 410.5z" />
    <glyph glyph-name="V" unicode="V" horiz-adv-x="1380" 
d="M1174 1434h165l-649 -1485l-649 1485h166l483 -1131z" />
    <glyph glyph-name="W" unicode="W" horiz-adv-x="2031" 
d="M1980 1434l-505 -1485l-459 1130l-459 -1130l-506 1485h162l358 -1067l445 1091l444 -1091l359 1067h161z" />
    <glyph glyph-name="X" unicode="X" horiz-adv-x="1343" 
d="M1264 0h-185l-407 606l-408 -606h-184l506 735l-484 699h185l385 -572l385 572h184l-483 -699z" />
    <glyph glyph-name="Y" unicode="Y" horiz-adv-x="1191" 
d="M1126 1434l-452 -867v-567h-156v567l-452 867h172l358 -703l358 703h172z" />
    <glyph glyph-name="Z" unicode="Z" horiz-adv-x="1333" 
d="M1223 1434l-834 -1287h825l-28 -147h-1075l833 1286h-790l28 148h1041z" />
    <glyph glyph-name="bracketleft" unicode="[" horiz-adv-x="727" 
d="M182 -317v1884h459v-133h-311v-1618h311v-133h-459z" />
    <glyph glyph-name="backslash" unicode="\" horiz-adv-x="813" 
d="M752 -317h-146l-596 1884h146z" />
    <glyph glyph-name="bracketright" unicode="]" horiz-adv-x="727" 
d="M545 -317h-459v133h311v1618h-311v133h459v-1884z" />
    <glyph glyph-name="asciicircum" unicode="^" horiz-adv-x="946" 
d="M870 852h-170l-227 436l-227 -436h-170l311 582h172z" />
    <glyph glyph-name="underscore" unicode="_" horiz-adv-x="757" 
d="M0 -297v123h758v-123h-758z" />
    <glyph glyph-name="grave" unicode="`" horiz-adv-x="819" 
d="M588 1065l-422 238l78 129l411 -250z" />
    <glyph glyph-name="a" unicode="a" horiz-adv-x="917" 
d="M784 0h-133l-6 61q-94 -81 -225 -81q-141 0 -239.5 96t-98.5 233t98.5 233.5t239.5 96.5q122 0 215 -78v55q0 92 -45.5 134.5t-149.5 42.5q-101 0 -219 -41l27 133q95 33 198 33q161 0 246.5 -74.5t85.5 -214.5v-455zM647 309q0 86 -63 146.5t-152 60.5t-151 -60.5
t-62 -146.5t62 -146.5t151 -60.5t152 60.5t63 146.5z" />
    <glyph glyph-name="b" unicode="b" horiz-adv-x="1159" 
d="M1077 453q0 -201 -140.5 -337t-344.5 -136t-338.5 134t-134.5 345v1001l143 29v-731q126 164 344 164q126 2 236 -60.5t174 -172t61 -236.5zM930 451q0 142 -95 239.5t-235 97.5q-142 0 -239 -98.5t-97 -243.5q0 -141 94.5 -237t235.5 -96q143 0 239.5 97t96.5 241z" />
    <glyph glyph-name="c" unicode="c" horiz-adv-x="882" 
d="M82 451q0 126 64.5 234.5t174.5 172.5t238 64q122 0 238 -58l-27 -137q-104 61 -211 61q-141 0 -235.5 -97.5t-94.5 -239.5t95 -240t235 -98q111 0 221 67l25 -141q-124 -59 -246 -59q-128 0 -238 64t-174.5 172.5t-64.5 234.5z" />
    <glyph glyph-name="d" unicode="d" horiz-adv-x="1179" 
d="M879 1460l143 29v-1489h-143v133q-61 -73 -147 -113t-185 -40q-122 -3 -230.5 61t-173 174.5t-61.5 235.5q-3 125 61.5 235.5t173 174.5t230.5 61q99 0 185 -40.5t147 -113.5v692zM889 451q0 139 -96.5 238t-233.5 99q-138 0 -234 -98.5t-96 -238.5t96 -239t234 -99
q136 0 233 99t97 239z" />
    <glyph glyph-name="e" unicode="e" horiz-adv-x="1062" 
d="M903 279l55 -132q-173 -167 -397 -167q-205 0 -342 136t-137 333q0 198 138.5 335.5t336.5 137.5q166 0 282.5 -102.5t141.5 -270.5l-731 -238q37 -93 120 -146.5t193 -53.5q194 0 340 168zM223 449v-9l590 191q-29 74 -98.5 117t-159.5 43q-138 0 -235 -100.5
t-97 -241.5z" />
    <glyph glyph-name="f" unicode="f" horiz-adv-x="614" 
d="M350 1137v-236h205v-131h-205v-770h-143v770h-127l24 131h103v246q0 164 88.5 254t247.5 90h22v-135h-22q-93 0 -143 -55.5t-50 -163.5z" />
    <glyph glyph-name="g" unicode="g" horiz-adv-x="1058" 
d="M971 942l-27 -141l-160 14q142 -107 142 -291q0 -108 -56 -198t-153 -140q83 -50 130.5 -132t47.5 -179q0 -154 -111 -260.5t-278 -106.5q-150 0 -256 88t-131 230l133 55q12 -110 81 -175.5t173 -65.5q109 0 179.5 68.5t70.5 172.5q0 103 -72.5 172.5t-179.5 69.5
q-137 0 -225 -119l-76 107q44 47 92 73q-97 51 -153 141.5t-56 200.5q0 163 120.5 277.5t307.5 120.5zM786 520q0 116 -81 194.5t-199 78.5q-119 0 -200 -79t-81 -194t81 -191.5t200 -76.5t199.5 76.5t80.5 191.5z" />
    <glyph glyph-name="h" unicode="h" horiz-adv-x="1077" 
d="M936 543v-543h-143v530q0 121 -63.5 188.5t-170.5 67.5q-114 0 -186 -75.5t-72 -200.5v-510h-143v1460l143 29v-698q103 131 281 131q156 0 255 -102t99 -277z" />
    <glyph glyph-name="i" unicode="i" horiz-adv-x="471" 
d="M164 0v887l143 28v-915h-143zM133 1249q0 43 30 73t73 30t72.5 -30t29.5 -73t-29.5 -72.5t-72.5 -29.5t-73 29.5t-30 72.5z" />
    <glyph glyph-name="j" unicode="j" horiz-adv-x="471" 
d="M-29 -483v135q93 5 143 64t50 167v1004l143 28v-1042q0 -164 -89 -258.5t-247 -97.5zM133 1249q0 43 30 73t73 30t72.5 -30t29.5 -73t-29.5 -72.5t-72.5 -29.5t-73 29.5t-30 72.5z" />
    <glyph glyph-name="k" unicode="k" horiz-adv-x="937" 
d="M877 0h-193l-383 455v-455h-143v1460l143 29v-1006l365 418h190l-393 -430z" />
    <glyph glyph-name="l" unicode="l" horiz-adv-x="471" 
d="M164 0v1460l143 29v-1489h-143z" />
    <glyph glyph-name="m" unicode="m" horiz-adv-x="1589" 
d="M1448 559v-559h-143v547q0 115 -54.5 178t-148.5 63q-100 0 -164 -71.5t-64 -190.5v-526h-143v547q0 115 -54.5 178t-148.5 63q-100 0 -163.5 -71t-63.5 -191v-526h-143v889l135 26v-122q93 129 256 129q91 0 162 -43t112 -123q47 80 124 123t173 43q146 0 237 -96.5
t91 -266.5z" />
    <glyph glyph-name="n" unicode="n" horiz-adv-x="1077" 
d="M936 543v-543h-143v530q0 123 -63 190.5t-171 67.5q-114 0 -186 -76t-72 -202v-510h-143v889l135 26v-122q107 129 287 129q157 0 256.5 -102t99.5 -277z" />
    <glyph glyph-name="o" unicode="o" horiz-adv-x="1122" 
d="M82 451q-1 94 36.5 182t102 152t154 101.5t186.5 35.5q97 2 186.5 -35.5t154 -101.5t102 -152t36.5 -182q1 -94 -36.5 -182t-102 -152t-154 -101.5t-186.5 -35.5q-97 -2 -186.5 35.5t-154 101.5t-102 152t-36.5 182zM893 451q0 142 -96.5 239.5t-235.5 97.5t-235.5 -97.5
t-96.5 -239.5t97 -240t235 -98t235 98t97 240z" />
    <glyph glyph-name="p" unicode="p" horiz-adv-x="1179" 
d="M1098 451q3 -125 -61.5 -235.5t-173 -174.5t-230.5 -61q-99 0 -185 40t-147 113v-604h-143v1360l135 26v-157q60 78 148 121t192 43q122 3 230.5 -61t173 -174.5t61.5 -235.5zM950 451q0 140 -95.5 238.5t-233.5 98.5q-137 0 -233.5 -99t-96.5 -238q0 -140 97 -239
t233 -99q137 0 233 99t96 239z" />
    <glyph glyph-name="q" unicode="q" horiz-adv-x="1179" 
d="M879 887l143 28v-1386h-143v604q-61 -73 -147 -113t-185 -40q-122 -3 -230.5 61t-173 174.5t-61.5 235.5q-3 125 61.5 235.5t173 174.5t230.5 61q99 0 185 -40.5t147 -113.5v119zM889 451q0 139 -96.5 238t-233.5 99q-138 0 -234 -98.5t-96 -238.5t96 -239t234 -99
q136 0 233 99t97 239z" />
    <glyph glyph-name="r" unicode="r" horiz-adv-x="653" 
d="M608 915v-145q-307 0 -307 -301v-469h-143v889l135 26v-149q98 149 315 149z" />
    <glyph glyph-name="s" unicode="s" horiz-adv-x="768" 
d="M90 74l25 131q138 -99 262 -99q70 0 111.5 38t41.5 104q0 51 -35.5 85t-129.5 64l-37 13q-104 35 -159.5 103.5t-55.5 160.5q0 105 77 176.5t195 71.5q116 0 246 -70l-27 -131q-121 74 -219 74q-63 0 -100 -32.5t-37 -86.5q0 -46 33 -78.5t116 -60.5l37 -13
q115 -37 175.5 -107.5t60.5 -168.5q0 -119 -81.5 -193.5t-211.5 -74.5q-148 0 -287 94z" />
    <glyph glyph-name="t" unicode="t" horiz-adv-x="661" 
d="M590 770h-262v-512q0 -67 34.5 -104t96.5 -37q73 0 131 28v-133q-58 -28 -146 -28q-119 0 -189.5 71t-70.5 193v522h-133l25 131h108v199l144 86v-285h262v-131z" />
    <glyph glyph-name="u" unicode="u" horiz-adv-x="1069" 
d="M768 889l143 26v-917h-135v111q-107 -129 -282 -129q-157 0 -255 101.5t-98 276.5v531l144 26v-544q0 -121 61.5 -188.5t167.5 -67.5q112 0 183 75.5t71 200.5v498z" />
    <glyph glyph-name="v" unicode="v" horiz-adv-x="962" 
d="M772 901h160l-451 -942l-450 942h159l291 -633z" />
    <glyph glyph-name="w" unicode="w" horiz-adv-x="1548" 
d="M1507 901l-415 -942l-318 674l-317 -674l-416 942h158l262 -625l313 666l313 -666l263 625h157z" />
    <glyph glyph-name="x" unicode="x" horiz-adv-x="974" 
d="M920 0h-175l-258 373l-258 -373h-174l346 473l-313 428h172l227 -328l228 328h172l-314 -428z" />
    <glyph glyph-name="y" unicode="y" horiz-adv-x="978" 
d="M788 901h160l-678 -1372h-159l303 596l-383 776h159l299 -627z" />
    <glyph glyph-name="z" unicode="z" horiz-adv-x="972" 
d="M893 901l-555 -774h549l-25 -127h-782l555 774h-514l24 127h748z" />
    <glyph glyph-name="braceleft" unicode="{" horiz-adv-x="720" 
d="M420 1260q0 -27 8 -74l45 -250q6 -38 6 -70q0 -95 -54.5 -157.5t-150.5 -83.5q95 -21 150 -84t55 -158q0 -33 -6 -70l-45 -250q-6 -41 -6 -71q0 -176 186 -176h27v-133h-29q-162 0 -248 77.5t-86 214.5q0 47 9 88l47 250q4 20 4 49q0 90 -63.5 144t-192.5 55v127
q129 1 192.5 55t63.5 144q0 29 -4 49l-47 250q-9 40 -9 88q0 137 86 215t248 78h29v-133h-27q-188 0 -188 -174z" />
    <glyph glyph-name="bar" unicode="|" horiz-adv-x="503" 
d="M182 -317v1884h140v-1884h-140z" />
    <glyph glyph-name="braceright" unicode="}" horiz-adv-x="720" 
d="M389 362q0 -29 4 -49l47 -250q9 -41 9 -88q0 -137 -86 -214.5t-248 -77.5h-29v133h27q186 0 186 176q0 30 -6 71l-45 250q-6 37 -6 70q0 95 54.5 158t149.5 84q-95 21 -149.5 83.5t-54.5 157.5q0 32 6 70l45 250q8 47 8 74q0 174 -188 174h-27v133h29q162 0 248 -78
t86 -215q0 -48 -9 -88l-47 -250q-4 -20 -4 -49q0 -90 63.5 -144t192.5 -55v-127q-129 -1 -192.5 -55t-63.5 -144z" />
    <glyph glyph-name="asciitilde" unicode="~" horiz-adv-x="925" 
d="M432 604q-41 28 -66.5 39.5t-54.5 11.5q-48 0 -78.5 -31.5t-31.5 -86.5h-115q0 106 64.5 172.5t162.5 66.5q49 0 86 -15.5t95 -53.5q43 -29 67 -40.5t53 -11.5q48 0 79 32t32 87h115q0 -106 -65 -172.5t-163 -66.5q-49 0 -85.5 15.5t-94.5 53.5z" />
    <glyph glyph-name="uni00A0" unicode="&#xa0;" horiz-adv-x="438" 
 />
    <glyph glyph-name="exclamdown" unicode="&#xa1;" horiz-adv-x="528" 
d="M389 897q0 -51 -35.5 -87t-89.5 -36t-89.5 36t-35.5 87t35.5 87t89.5 36t89.5 -36t35.5 -87zM197 567h135l10 -465v-546l-156 28v518z" />
    <glyph glyph-name="cent" unicode="&#xa2;" horiz-adv-x="882" 
d="M588 -20v-144h-131v154q-161 34 -268 164.5t-107 296.5q0 167 106.5 296.5t268.5 163.5v142l131 24v-155q108 -6 209 -58l-27 -137q-90 53 -182 59v-671q97 6 192 65l25 -141q-99 -50 -217 -59zM457 129v645q-103 -32 -165.5 -120t-62.5 -203q0 -114 63 -202.5
t165 -119.5z" />
    <glyph glyph-name="sterling" unicode="&#xa3;" horiz-adv-x="1232" 
d="M506 655v-508h565l-29 -147h-895v147h203v508h-203v148h203v174q0 235 134 374.5t356 139.5q126 0 243 -51l-28 -146q-101 49 -209 49q-155 0 -247.5 -98.5t-92.5 -267.5v-174h452l-28 -148h-424z" />
    <glyph glyph-name="currency" unicode="&#xa4;" horiz-adv-x="1562" 
d="M1145 453l162 -154l-107 -106l-153 159q-124 -86 -267 -86q-145 0 -266 86l-152 -159l-106 106l160 152q-86 121 -86 266t86 266l-160 152l106 106l152 -160q121 86 266 86q143 0 267 -86l153 160l107 -106l-162 -154q86 -116 86 -264t-86 -264zM1087 717
q0 127 -89.5 217t-217.5 90t-217.5 -90t-89.5 -217t89.5 -217t217.5 -90t217.5 90t89.5 217z" />
    <glyph glyph-name="yen" unicode="&#xa5;" horiz-adv-x="1335" 
d="M1188 1434l-375 -631h338v-131h-406v-187h406v-131h-406v-354h-155v354h-406v131h406v187h-406v131h338l-375 631h181l340 -592l340 592h180z" />
    <glyph glyph-name="brokenbar" unicode="&#xa6;" horiz-adv-x="503" 
d="M182 737v830h140v-830h-140zM182 -317v849h140v-849h-140z" />
    <glyph glyph-name="section" unicode="&#xa7;" horiz-adv-x="1028" 
d="M844 229q0 -141 -98 -231t-254 -90q-86 0 -176.5 30t-165.5 82l28 156q171 -121 307 -121q94 0 148.5 45.5t54.5 124.5q0 63 -43.5 103t-163.5 82l-104 36q-122 42 -188 121.5t-66 180.5q0 87 39.5 156t113.5 110q-92 86 -92 215q0 130 91.5 213.5t234.5 83.5
q150 0 287 -84l-33 -154q-137 90 -258 90q-79 0 -123.5 -39t-44.5 -106q0 -58 37.5 -95.5t144.5 -72.5l107 -37q278 -97 278 -317q0 -89 -39 -160t-108 -113q86 -86 86 -209zM459 590l106 -39q22 -7 80 -35q105 65 105 174q0 66 -44.5 111t-162.5 86l-105 35q-7 2 -57 22
q-105 -68 -105 -172q0 -57 42 -102t141 -80z" />
    <glyph glyph-name="dieresis" unicode="&#xa8;" horiz-adv-x="819" 
d="M125 1231q0 41 28.5 69.5t69.5 28.5t70 -28.5t29 -69.5t-29 -69.5t-70 -28.5t-69.5 28.5t-28.5 69.5zM498 1231q0 41 28.5 69.5t69.5 28.5t69.5 -28.5t28.5 -69.5t-28.5 -69.5t-69.5 -28.5t-69.5 28.5t-28.5 69.5z" />
    <glyph glyph-name="copyright" unicode="&#xa9;" horiz-adv-x="1716" 
d="M121 717q-3 147 55.5 284.5t158.5 237.5t237.5 159t285.5 56q147 3 285 -56t237.5 -158.5t158.5 -237.5t56 -285q3 -148 -56 -285.5t-159 -237.5t-237.5 -158.5t-284.5 -55.5q-148 -3 -285.5 55.5t-237.5 158.5t-158.5 237.5t-55.5 285.5zM1473 717q2 123 -47 237.5
t-132.5 197.5t-198 132t-237.5 47q-164 3 -307.5 -80.5t-227 -226.5t-79.5 -307q-3 -123 46 -238t132.5 -198.5t198 -132.5t237.5 -46q123 -3 237.5 46t198 132.5t132.5 198.5t47 238zM461 717q0 174 121 292.5t301 118.5q117 0 209 -51l-23 -129q-83 56 -182 56
q-120 0 -205.5 -83.5t-85.5 -203.5t85.5 -203.5t205.5 -83.5q101 0 190 59l23 -127q-92 -57 -217 -57q-175 0 -298.5 119.5t-123.5 292.5z" />
    <glyph glyph-name="ordfeminine" unicode="&#xaa;" horiz-adv-x="763" 
d="M651 664h-121l-6 59q-81 -78 -198 -78q-119 0 -202 81t-83 196t83.5 195.5t203.5 80.5q104 0 188 -72v45q0 83 -40.5 120.5t-133.5 37.5q-88 0 -184 -35l22 115q92 29 176 29q142 0 216.5 -65.5t74.5 -190.5v-373zM524 924q0 73 -51.5 122.5t-126.5 49.5t-126.5 -49.5
t-51.5 -122.5q0 -72 51.5 -122t126.5 -50t126.5 50.5t51.5 121.5z" />
    <glyph glyph-name="guillemotleft" unicode="&#xab;" horiz-adv-x="968" 
d="M508 799l-238 -342l238 -342l-113 -78l-289 420l289 420zM836 799l-238 -342l238 -342l-113 -78l-289 420l289 420z" />
    <glyph glyph-name="logicalnot" unicode="&#xac;" horiz-adv-x="1019" 
d="M799 418v340h-713v135h848v-475h-135z" />
    <glyph glyph-name="uni00AD" unicode="&#xad;" horiz-adv-x="675" 
d="M113 408v127h450v-127h-450z" />
    <glyph glyph-name="registered" unicode="&#xae;" horiz-adv-x="1716" 
d="M1595 717q3 -148 -56 -285.5t-159 -237.5t-237.5 -158.5t-284.5 -55.5q-148 -3 -285.5 55.5t-237.5 158.5t-158.5 237.5t-55.5 285.5q-3 147 55.5 284.5t158.5 237.5t237.5 159t285.5 56q147 3 285 -56t237.5 -158.5t158.5 -237.5t56 -285zM1473 717q2 123 -47 237.5
t-132.5 197.5t-198 132t-237.5 47q-164 3 -307.5 -80.5t-227 -226.5t-79.5 -307q-3 -123 46 -238t132.5 -198.5t198 -132.5t237.5 -46q123 -3 237.5 46t198 132.5t132.5 198.5t47 238zM922 629l256 -305h-166l-264 323v-323h-132v798h258q135 0 217.5 -68t82.5 -182
q0 -103 -69.5 -170t-182.5 -73zM748 1010v-277h124q75 0 120.5 39t45.5 102t-45.5 99.5t-120.5 36.5h-124z" />
    <glyph glyph-name="overscore" unicode="&#xaf;" horiz-adv-x="819" 
d="M123 1190v131h573v-131h-573z" />
    <glyph glyph-name="degree" unicode="&#xb0;" horiz-adv-x="827" 
d="M96 1147q0 129 92 218t226 89q133 0 225 -89t92 -218t-92 -218t-225 -89q-134 0 -226 89t-92 218zM598 1147q0 77 -54 130.5t-130 53.5q-77 0 -131 -54t-54 -130t54 -130t131 -54q76 0 130 53.5t54 130.5z" />
    <glyph glyph-name="plusminus" unicode="&#xb1;" horiz-adv-x="1032" 
d="M586 743h360v-135h-360v-389h-140v389h-360v135h360v390h140v-390zM86 0v135h860v-135h-860z" />
    <glyph glyph-name="twosuperior" unicode="&#xb2;" horiz-adv-x="641" 
d="M387 1092l-82 -84h262l-20 -117h-502l256 272q90 97 119 140t29 94q0 57 -40 95t-100 38t-98.5 -36t-38.5 -93q0 -37 21 -78l-125 -14q-21 65 -21 100q0 100 76.5 170t185.5 70q111 0 187.5 -71.5t76.5 -176.5q0 -78 -39 -138t-147 -171z" />
    <glyph glyph-name="threesuperior" unicode="&#xb3;" horiz-adv-x="612" 
d="M557 1128q0 -108 -83 -178.5t-204 -70.5q-138 0 -231 90l47 100q33 -36 81 -57t99 -21q70 0 116 41t46 101q0 61 -47.5 100t-122.5 39q-50 0 -100 -15l180 267h-275l17 112h465l-197 -278q92 -9 150.5 -74t58.5 -156z" />
    <glyph glyph-name="acute" unicode="&#xb4;" horiz-adv-x="819" 
d="M252 1065l-68 117l412 250l78 -129z" />
    <glyph glyph-name="mu" unicode="&#xb5;" horiz-adv-x="1085" 
d="M784 889l144 26v-917h-135v96q-91 -114 -254 -114q-150 0 -238 102v-553h-143v1360l143 26v-540q0 -119 66.5 -189.5t175.5 -70.5t175 70.5t66 189.5v514z" />
    <glyph glyph-name="paragraph" unicode="&#xb6;" horiz-adv-x="1327" 
d="M580 -195v742q-214 0 -354 125.5t-140 316.5q0 192 140 318.5t354 126.5h565v-1629h-156v1481h-254v-1481h-155z" />
    <glyph glyph-name="middot" unicode="&#xb7;" horiz-adv-x="528" 
d="M139 553q0 51 35.5 87t89.5 36t89.5 -36t35.5 -87t-35.5 -87t-89.5 -36t-89.5 36t-35.5 87z" />
    <glyph glyph-name="cedilla" unicode="&#xb8;" horiz-adv-x="819" 
d="M262 -369l-139 95l237 305h129z" />
    <glyph glyph-name="onesuperior" unicode="&#xb9;" horiz-adv-x="401" 
d="M25 1513l290 142v-764h-129v575l-143 -69z" />
    <glyph glyph-name="ordmasculine" unicode="&#xba;" horiz-adv-x="944" 
d="M66 1044q0 167 118 282.5t287 115.5q171 0 289.5 -115.5t118.5 -282.5q0 -166 -119 -282.5t-289 -116.5q-169 0 -287 116.5t-118 282.5zM743 1044q0 117 -78.5 197t-193.5 80t-193.5 -80.5t-78.5 -196.5q0 -117 78.5 -197.5t193.5 -80.5t193.5 80.5t78.5 197.5z" />
    <glyph glyph-name="guillemotright" unicode="&#xbb;" horiz-adv-x="968" 
d="M246 877l289 -420l-289 -420l-113 78l238 342l-238 342zM573 877l289 -420l-289 -420l-112 78l237 342l-237 342z" />
    <glyph glyph-name="onequarter" unicode="&#xbc;" horiz-adv-x="1585" 
d="M106 1309l291 141v-764h-129v576l-143 -70zM254 -16l-92 73l1126 1393l92 -74zM1450 268v-104h-88v-164h-121v164h-383l504 633v-529h88zM1083 268h158v201z" />
    <glyph glyph-name="onehalf" unicode="&#xbd;" horiz-adv-x="1568" 
d="M106 1309l291 141v-764h-129v576l-143 -70zM1233 201l-82 -84h262l-20 -117h-502l256 272q89 96 118 139.5t29 94.5q0 57 -39.5 95t-99.5 38t-98.5 -36t-38.5 -93q0 -39 20 -78l-125 -14q-20 62 -20 100q0 100 76.5 170t185.5 70q111 0 187.5 -71.5t76.5 -176.5
q0 -78 -39 -138t-147 -171zM213 -16l-92 73l1126 1393l92 -74z" />
    <glyph glyph-name="threequarters" unicode="&#xbe;" horiz-adv-x="1654" 
d="M639 924q0 -108 -83 -179t-204 -71q-138 0 -231 90l47 100q33 -36 81 -57t99 -21q70 0 116 41t46 101q0 61 -47.5 100t-122.5 39q-54 0 -100 -14l180 266h-275l17 113h465l-197 -279q92 -9 150.5 -73.5t58.5 -155.5zM371 -16l-92 73l1126 1393l92 -74zM1520 268v-104h-88
v-164h-121v164h-383l504 633v-529h88zM1153 268h158v201z" />
    <glyph glyph-name="questiondown" unicode="&#xbf;" horiz-adv-x="874" 
d="M573 897q0 -52 -35.5 -87.5t-88.5 -35.5t-89 36t-36 87t36 87t89 36t88.5 -35.5t35.5 -87.5zM518 567l6 -123q1 -58 -7.5 -101.5t-30.5 -82t-45.5 -66t-67.5 -71.5q-67 -69 -95 -114.5t-32 -112.5q0 -87 58.5 -143t146.5 -56q95 0 150.5 64t55.5 165l154 -28
q0 -148 -102.5 -248.5t-259.5 -100.5q-152 0 -257.5 96.5t-105.5 250.5q2 44 10.5 80.5t18.5 61t33.5 55t40 48t53.5 54.5q44 45 59.5 62.5t38.5 50t31 63.5t10 75l2 121h135z" />
    <glyph glyph-name="Agrave" unicode="&#xc0;" horiz-adv-x="1380" 
d="M1174 0l-211 496h-545l-211 -496h-166l649 1485l649 -1485h-165zM479 639h422l-211 491zM862 1585l-485 215l65 137l476 -229z" />
    <glyph glyph-name="Aacute" unicode="&#xc1;" horiz-adv-x="1380" 
d="M1174 0l-211 496h-545l-211 -496h-166l649 1485l649 -1485h-165zM479 639h422l-211 491zM518 1585l-55 123l475 229l66 -137z" />
    <glyph glyph-name="Acircumflex" unicode="&#xc2;" horiz-adv-x="1380" 
d="M1174 0l-211 496h-545l-211 -496h-166l649 1485l649 -1485h-165zM479 639h422l-211 491zM997 1665l-84 -88l-223 197l-223 -197l-84 88l307 285z" />
    <glyph glyph-name="Atilde" unicode="&#xc3;" horiz-adv-x="1380" 
d="M1174 0l-211 496h-545l-211 -496h-166l649 1485l649 -1485h-165zM479 639h422l-211 491zM657 1731q-21 13 -55.5 27t-54.5 14q-38 0 -64 -26.5t-26 -64.5h-115q0 95 58 154t151 59q45 0 81 -13t91 -44q21 -12 55.5 -26.5t55.5 -14.5q38 0 64 26t26 64h114q0 -95 -58 -154
t-151 -59q-31 0 -61.5 8t-51 18.5t-59.5 31.5z" />
    <glyph glyph-name="Adieresis" unicode="&#xc4;" horiz-adv-x="1380" 
d="M1174 0l-211 496h-545l-211 -496h-166l649 1485l649 -1485h-165zM479 639h422l-211 491zM332 1741q0 47 32.5 79.5t79.5 32.5t80 -32.5t33 -79.5t-33 -80t-80 -33t-79.5 33t-32.5 80zM823 1741q0 47 33 79.5t80 32.5t80 -32.5t33 -79.5t-33 -80t-80 -33t-80 33t-33 80z
" />
    <glyph glyph-name="Aring" unicode="&#xc5;" horiz-adv-x="1380" 
d="M1174 0l-211 496h-545l-211 -496h-166l649 1485l649 -1485h-165zM479 639h422l-211 491zM449 1765q0 94 70 161t171 67t171.5 -67t70.5 -161t-70.5 -160.5t-171.5 -66.5t-171 66.5t-70 160.5zM817 1765q0 54 -36.5 89.5t-90.5 35.5t-90.5 -35.5t-36.5 -89.5t36.5 -89.5
t90.5 -35.5t90.5 35.5t36.5 89.5z" />
    <glyph glyph-name="AE" unicode="&#xc6;" horiz-adv-x="1824" 
d="M1063 147h649l-29 -147h-776v516h-440l-256 -516h-170l717 1434h897l28 -148h-620v-473h514v-147h-514v-519zM537 659h370v627h-59z" />
    <glyph glyph-name="Ccedilla" unicode="&#xc7;" horiz-adv-x="1396" 
d="M889 -25l-201 -352l-149 101l204 262q-268 43 -445 249.5t-177 481.5q-3 150 56.5 288.5t162 238.5t243.5 158.5t294 55.5q194 0 370 -92l-30 -158q-153 103 -345 103q-156 3 -292.5 -77t-217 -218.5t-77.5 -298.5q-3 -160 77 -298.5t216.5 -218.5t293.5 -77
q187 0 363 115l31 -158q-179 -102 -377 -105z" />
    <glyph glyph-name="Egrave" unicode="&#xc8;" horiz-adv-x="1099" 
d="M338 147h649l-29 -147h-776v1434h748l28 -148h-620v-473h514v-147h-514v-519zM745 1585l-485 215l66 137l475 -229z" />
    <glyph glyph-name="Eacute" unicode="&#xc9;" horiz-adv-x="1099" 
d="M338 147h649l-29 -147h-776v1434h748l28 -148h-620v-473h514v-147h-514v-519zM401 1585l-55 123l475 229l66 -137z" />
    <glyph glyph-name="Ecircumflex" unicode="&#xca;" horiz-adv-x="1099" 
d="M338 147h649l-29 -147h-776v1434h748l28 -148h-620v-473h514v-147h-514v-519zM881 1665l-84 -88l-224 197l-223 -197l-84 88l307 285z" />
    <glyph glyph-name="Edieresis" unicode="&#xcb;" horiz-adv-x="1099" 
d="M338 147h649l-29 -147h-776v1434h748l28 -148h-620v-473h514v-147h-514v-519zM215 1741q0 47 33 79.5t80 32.5t79.5 -32.5t32.5 -79.5t-32.5 -80t-79.5 -33t-80 33t-33 80zM707 1741q0 47 32.5 79.5t79.5 32.5t80 -32.5t33 -79.5t-33 -80t-80 -33t-79.5 33t-32.5 80z" />
    <glyph glyph-name="Igrave" unicode="&#xcc;" horiz-adv-x="540" 
d="M193 0v1419l155 29v-1448h-155zM442 1585l-485 215l66 137l475 -229z" />
    <glyph glyph-name="Iacute" unicode="&#xcd;" horiz-adv-x="540" 
d="M193 0v1419l155 29v-1448h-155zM98 1585l-55 123l475 229l66 -137z" />
    <glyph glyph-name="Icircumflex" unicode="&#xce;" horiz-adv-x="540" 
d="M193 0v1419l155 29v-1448h-155zM578 1665l-84 -88l-224 197l-223 -197l-84 88l307 285z" />
    <glyph glyph-name="Idieresis" unicode="&#xcf;" horiz-adv-x="540" 
d="M193 0v1419l155 29v-1448h-155zM-47 1741q0 47 33 79.5t80 32.5t79.5 -32.5t32.5 -79.5t-32.5 -80t-79.5 -33t-80 33t-33 80zM362 1741q0 47 33 79.5t80 32.5t80 -32.5t33 -79.5t-33 -80t-80 -33t-80 33t-33 80z" />
    <glyph glyph-name="Eth" unicode="&#xd0;" horiz-adv-x="1361" 
d="M1241 717q2 -148 -56.5 -282t-159 -230t-240 -151.5t-293.5 -53.5h-310v647h-155v148h155v639h310q154 2 293.5 -53.5t240 -151.5t159 -230t56.5 -282zM1077 717q3 156 -75 288t-214 208t-296 73h-154v-491h410v-148h-410v-500h154q160 -3 296 73t214 208.5t75 288.5z
" />
    <glyph glyph-name="Ntilde" unicode="&#xd1;" horiz-adv-x="1581" 
d="M1399 1450v-1511l-1061 1161v-1100h-156v1495l1061 -1161v1085zM758 1731q-21 12 -55.5 26.5t-55.5 14.5q-38 0 -64 -26.5t-26 -64.5h-115q0 95 58 154t151 59q45 0 81 -13t91 -44q21 -12 55.5 -26.5t55.5 -14.5q38 0 64 26t26 64h115q0 -95 -58 -154t-151 -59
q-31 0 -61.5 8t-51 18.5t-59.5 31.5z" />
    <glyph glyph-name="Ograve" unicode="&#xd2;" horiz-adv-x="1748" 
d="M121 717q-3 150 57 288.5t161.5 238.5t242 158.5t292.5 55.5q152 3 292.5 -55.5t242.5 -158.5t162 -238.5t57 -288.5q3 -150 -57 -288.5t-162 -239t-242.5 -159t-292.5 -55.5q-202 -4 -377.5 96t-277.5 273t-98 373zM1464 717q2 120 -45 231t-126.5 191t-190 127
t-228.5 45q-118 2 -228 -45t-190 -127t-126.5 -191t-44.5 -231q-2 -120 44.5 -231t126.5 -191t190 -127t228 -45q118 -2 228.5 45t190 127t126.5 191t45 231zM1047 1585l-486 215l66 137l475 -229z" />
    <glyph glyph-name="Oacute" unicode="&#xd3;" horiz-adv-x="1748" 
d="M121 717q-3 150 57 288.5t161.5 238.5t242 158.5t292.5 55.5q152 3 292.5 -55.5t242.5 -158.5t162 -238.5t57 -288.5q3 -150 -57 -288.5t-162 -239t-242.5 -159t-292.5 -55.5q-202 -4 -377.5 96t-277.5 273t-98 373zM1464 717q2 120 -45 231t-126.5 191t-190 127
t-228.5 45q-118 2 -228 -45t-190 -127t-126.5 -191t-44.5 -231q-2 -120 44.5 -231t126.5 -191t190 -127t228 -45q118 -2 228.5 45t190 127t126.5 191t45 231zM702 1585l-55 123l475 229l66 -137z" />
    <glyph glyph-name="Ocircumflex" unicode="&#xd4;" horiz-adv-x="1748" 
d="M121 717q-3 150 57 288.5t161.5 238.5t242 158.5t292.5 55.5q152 3 292.5 -55.5t242.5 -158.5t162 -238.5t57 -288.5q3 -150 -57 -288.5t-162 -239t-242.5 -159t-292.5 -55.5q-202 -4 -377.5 96t-277.5 273t-98 373zM1464 717q2 120 -45 231t-126.5 191t-190 127
t-228.5 45q-118 2 -228 -45t-190 -127t-126.5 -191t-44.5 -231q-2 -120 44.5 -231t126.5 -191t190 -127t228 -45q118 -2 228.5 45t190 127t126.5 191t45 231zM1182 1665l-84 -88l-224 197l-223 -197l-84 88l307 285z" />
    <glyph glyph-name="Otilde" unicode="&#xd5;" horiz-adv-x="1748" 
d="M121 717q-3 150 57 288.5t161.5 238.5t242 158.5t292.5 55.5q152 3 292.5 -55.5t242.5 -158.5t162 -238.5t57 -288.5q3 -150 -57 -288.5t-162 -239t-242.5 -159t-292.5 -55.5q-202 -4 -377.5 96t-277.5 273t-98 373zM1464 717q2 120 -45 231t-126.5 191t-190 127
t-228.5 45q-118 2 -228 -45t-190 -127t-126.5 -191t-44.5 -231q-2 -120 44.5 -231t126.5 -191t190 -127t228 -45q118 -2 228.5 45t190 127t126.5 191t45 231zM842 1731q-21 12 -55.5 26.5t-55.5 14.5q-38 0 -64 -26.5t-26 -64.5h-115q0 95 58 154t151 59q45 0 81 -13t91 -44
q21 -12 55.5 -26.5t55.5 -14.5q38 0 64 26t26 64h115q0 -95 -58 -154t-151 -59q-31 0 -61.5 8t-51 18.5t-59.5 31.5z" />
    <glyph glyph-name="Odieresis" unicode="&#xd6;" horiz-adv-x="1748" 
d="M121 717q-3 150 57 288.5t161.5 238.5t242 158.5t292.5 55.5q152 3 292.5 -55.5t242.5 -158.5t162 -238.5t57 -288.5q3 -150 -57 -288.5t-162 -239t-242.5 -159t-292.5 -55.5q-202 -4 -377.5 96t-277.5 273t-98 373zM1464 717q2 120 -45 231t-126.5 191t-190 127
t-228.5 45q-118 2 -228 -45t-190 -127t-126.5 -191t-44.5 -231q-2 -120 44.5 -231t126.5 -191t190 -127t228 -45q118 -2 228.5 45t190 127t126.5 191t45 231zM516 1741q0 47 33 79.5t80 32.5t79.5 -32.5t32.5 -79.5t-32.5 -80t-79.5 -33t-80 33t-33 80zM1008 1741
q0 47 32.5 79.5t79.5 32.5t80 -32.5t33 -79.5t-33 -80t-80 -33t-79.5 33t-32.5 80z" />
    <glyph glyph-name="multiply" unicode="&#xd7;" horiz-adv-x="1032" 
d="M905 967l-291 -291l291 -291l-98 -98l-291 291l-291 -291l-98 98l291 291l-291 291l98 98l291 -291l291 291z" />
    <glyph glyph-name="Oslash" unicode="&#xd8;" horiz-adv-x="1748" 
d="M1628 717q3 -150 -57 -288.5t-162 -239t-242.5 -159t-292.5 -55.5q-240 0 -432 131l-123 -141l-106 92l121 140q-213 213 -213 520q-3 150 57 288.5t161.5 238.5t242 158.5t292.5 55.5q241 0 433 -131l123 141l106 -92l-121 -139q213 -213 213 -520zM436 315l770 895
q-149 101 -332 101q-118 2 -228 -45t-190 -127t-126.5 -191t-44.5 -231q0 -231 151 -402zM1464 717q0 230 -151 401l-770 -895q147 -100 331 -100q118 -2 228.5 45t190 127t126.5 191t45 231z" />
    <glyph glyph-name="Ugrave" unicode="&#xd9;" horiz-adv-x="1376" 
d="M162 543v876l155 29v-889q0 -198 101.5 -317t269.5 -119t269.5 119t101.5 317v860l155 29v-905q0 -253 -145.5 -410.5t-380.5 -157.5t-380.5 157.5t-145.5 410.5zM860 1585l-485 215l65 137l475 -229z" />
    <glyph glyph-name="Uacute" unicode="&#xda;" horiz-adv-x="1376" 
d="M162 543v876l155 29v-889q0 -198 101.5 -317t269.5 -119t269.5 119t101.5 317v860l155 29v-905q0 -253 -145.5 -410.5t-380.5 -157.5t-380.5 157.5t-145.5 410.5zM516 1585l-55 123l475 229l65 -137z" />
    <glyph glyph-name="Ucircumflex" unicode="&#xdb;" horiz-adv-x="1376" 
d="M162 543v876l155 29v-889q0 -198 101.5 -317t269.5 -119t269.5 119t101.5 317v860l155 29v-905q0 -253 -145.5 -410.5t-380.5 -157.5t-380.5 157.5t-145.5 410.5zM995 1665l-84 -88l-223 197l-223 -197l-84 88l307 285z" />
    <glyph glyph-name="Udieresis" unicode="&#xdc;" horiz-adv-x="1376" 
d="M162 543v876l155 29v-889q0 -198 101.5 -317t269.5 -119t269.5 119t101.5 317v860l155 29v-905q0 -253 -145.5 -410.5t-380.5 -157.5t-380.5 157.5t-145.5 410.5zM330 1741q0 47 32.5 79.5t79.5 32.5t80 -32.5t33 -79.5t-33 -80t-80 -33t-79.5 33t-32.5 80zM821 1741
q0 47 33 79.5t80 32.5t80 -32.5t33 -79.5t-33 -80t-80 -33t-80 33t-33 80z" />
    <glyph glyph-name="Yacute" unicode="&#xdd;" horiz-adv-x="1191" 
d="M1126 1434l-452 -867v-567h-156v567l-452 867h172l358 -703l358 703h172zM424 1585l-55 123l475 229l65 -137z" />
    <glyph glyph-name="Thorn" unicode="&#xde;" horiz-adv-x="1116" 
d="M1030 737q0 -209 -153 -346t-388 -137h-151v-254h-156v1434h156v-211h151q234 0 387.5 -138t153.5 -348zM866 737q0 148 -106.5 243t-270.5 95h-151v-674h151q164 0 270.5 95t106.5 241z" />
    <glyph glyph-name="germandbls" unicode="&#xdf;" horiz-adv-x="1079" 
d="M997 403q0 -180 -134.5 -300.5t-334.5 -120.5v139q137 0 229.5 83.5t92.5 207.5q0 120 -93 206t-229 89v133q126 0 204.5 76t78.5 186q0 108 -73.5 179t-180.5 71q-112 0 -184 -78.5t-72 -200.5v-1073h-143v1077q0 173 114.5 289.5t288.5 116.5q168 0 282.5 -109
t114.5 -272q0 -118 -62 -204.5t-171 -121.5q125 -42 198.5 -141t73.5 -232z" />
    <glyph glyph-name="agrave" unicode="&#xe0;" horiz-adv-x="917" 
d="M784 0h-133l-6 61q-94 -81 -225 -81q-141 0 -239.5 96t-98.5 233t98.5 233.5t239.5 96.5q122 0 215 -78v55q0 92 -45.5 134.5t-149.5 42.5q-101 0 -219 -41l27 133q95 33 198 33q161 0 246.5 -74.5t85.5 -214.5v-455zM647 309q0 86 -63 146.5t-152 60.5t-151 -60.5
t-62 -146.5t62 -146.5t151 -60.5t152 60.5t63 146.5zM643 1065l-422 238l78 129l412 -250z" />
    <glyph glyph-name="aacute" unicode="&#xe1;" horiz-adv-x="917" 
d="M784 0h-133l-6 61q-94 -81 -225 -81q-141 0 -239.5 96t-98.5 233t98.5 233.5t239.5 96.5q122 0 215 -78v55q0 92 -45.5 134.5t-149.5 42.5q-101 0 -219 -41l27 133q95 33 198 33q161 0 246.5 -74.5t85.5 -214.5v-455zM647 309q0 86 -63 146.5t-152 60.5t-151 -60.5
t-62 -146.5t62 -146.5t151 -60.5t152 60.5t63 146.5zM307 1065l-67 117l411 250l78 -129z" />
    <glyph glyph-name="acircumflex" unicode="&#xe2;" horiz-adv-x="917" 
d="M784 0h-133l-6 61q-94 -81 -225 -81q-141 0 -239.5 96t-98.5 233t98.5 233.5t239.5 96.5q122 0 215 -78v55q0 92 -45.5 134.5t-149.5 42.5q-101 0 -219 -41l27 133q95 33 198 33q161 0 246.5 -74.5t85.5 -214.5v-455zM647 309q0 86 -63 146.5t-152 60.5t-151 -60.5
t-62 -146.5t62 -146.5t151 -60.5t152 60.5t63 146.5zM772 1149l-84 -88l-223 196l-223 -196l-84 88l307 285z" />
    <glyph glyph-name="atilde" unicode="&#xe3;" horiz-adv-x="917" 
d="M784 0h-133l-6 61q-94 -81 -225 -81q-141 0 -239.5 96t-98.5 233t98.5 233.5t239.5 96.5q122 0 215 -78v55q0 92 -45.5 134.5t-149.5 42.5q-101 0 -219 -41l27 133q95 33 198 33q161 0 246.5 -74.5t85.5 -214.5v-455zM647 309q0 86 -63 146.5t-152 60.5t-151 -60.5
t-62 -146.5t62 -146.5t151 -60.5t152 60.5t63 146.5zM436 1198q-4 2 -13.5 7.5t-13 7.5t-11 6t-11 5.5t-9.5 4t-9.5 3.5t-8.5 3t-9 2.5t-9 1t-10 0.5q-37 0 -60.5 -26t-23.5 -64h-115q0 95 56 154t145 59q44 0 78.5 -13.5t81.5 -43.5q4 -2 13.5 -7.5t13 -7.5t11 -6t11 -5.5
t9.5 -4t9.5 -3.5t8.5 -3t9 -2.5t9 -1t10 -0.5q37 0 60.5 26t23.5 64h115q0 -95 -56 -154t-145 -59q-44 0 -78.5 13.5t-81.5 43.5z" />
    <glyph glyph-name="adieresis" unicode="&#xe4;" horiz-adv-x="917" 
d="M784 0h-133l-6 61q-94 -81 -225 -81q-141 0 -239.5 96t-98.5 233t98.5 233.5t239.5 96.5q122 0 215 -78v55q0 92 -45.5 134.5t-149.5 42.5q-101 0 -219 -41l27 133q95 33 198 33q161 0 246.5 -74.5t85.5 -214.5v-455zM647 309q0 86 -63 146.5t-152 60.5t-151 -60.5
t-62 -146.5t62 -146.5t151 -60.5t152 60.5t63 146.5zM180 1231q0 41 29 69.5t70 28.5t69.5 -28.5t28.5 -69.5t-28.5 -69.5t-69.5 -28.5t-70 28.5t-29 69.5zM553 1231q0 41 28.5 69.5t69.5 28.5t70 -28.5t29 -69.5t-29 -69.5t-70 -28.5t-69.5 28.5t-28.5 69.5z" />
    <glyph glyph-name="aring" unicode="&#xe5;" horiz-adv-x="917" 
d="M784 0h-133l-6 61q-94 -81 -225 -81q-141 0 -239.5 96t-98.5 233t98.5 233.5t239.5 96.5q122 0 215 -78v55q0 92 -45.5 134.5t-149.5 42.5q-101 0 -219 -41l27 133q95 33 198 33q161 0 246.5 -74.5t85.5 -214.5v-455zM647 309q0 86 -63 146.5t-152 60.5t-151 -60.5
t-62 -146.5t62 -146.5t151 -60.5t152 60.5t63 146.5zM229 1274q0 94 69 159.5t167 65.5t166.5 -65.5t68.5 -159.5t-68.5 -159.5t-166.5 -65.5t-167 65.5t-69 159.5zM588 1274q0 53 -35.5 88t-87.5 35q-54 0 -88.5 -34.5t-34.5 -88.5q0 -52 35 -87.5t88 -35.5q51 0 87 36
t36 87z" />
    <glyph glyph-name="ae" unicode="&#xe6;" horiz-adv-x="1613" 
d="M1454 279l55 -132q-173 -167 -397 -167q-120 0 -218.5 51t-162.5 143q-38 -88 -122.5 -141t-188.5 -53q-141 0 -239.5 96t-98.5 233t98.5 233.5t239.5 96.5q122 0 215 -78v55q0 92 -45.5 134.5t-149.5 42.5q-101 0 -219 -41l27 133q95 33 198 33q239 0 299 -177
q62 85 157.5 133t205.5 48q166 0 282.5 -102.5t141.5 -270.5l-731 -238q37 -93 120 -146.5t193 -53.5q194 0 340 168zM774 449v-9l590 191q-29 74 -98.5 117t-159.5 43q-138 0 -235 -100.5t-97 -241.5zM647 309q0 86 -63 146.5t-152 60.5t-151 -60.5t-62 -146.5t62 -146.5
t151 -60.5t152 60.5t63 146.5z" />
    <glyph glyph-name="ccedilla" unicode="&#xe7;" horiz-adv-x="882" 
d="M567 -20l-198 -349l-140 95l209 268q-155 40 -255.5 167.5t-100.5 289.5q0 126 64.5 234.5t174.5 172.5t238 64q122 0 238 -58l-27 -137q-104 61 -211 61q-141 0 -235.5 -97.5t-94.5 -239.5t95 -240t235 -98q111 0 221 67l25 -141q-115 -56 -238 -59z" />
    <glyph glyph-name="egrave" unicode="&#xe8;" horiz-adv-x="1062" 
d="M903 279l55 -132q-173 -167 -397 -167q-205 0 -342 136t-137 333q0 198 138.5 335.5t336.5 137.5q166 0 282.5 -102.5t141.5 -270.5l-731 -238q37 -93 120 -146.5t193 -53.5q194 0 340 168zM223 449v-9l590 191q-29 74 -98.5 117t-159.5 43q-138 0 -235 -100.5
t-97 -241.5zM725 1065l-422 238l78 129l412 -250z" />
    <glyph glyph-name="eacute" unicode="&#xe9;" horiz-adv-x="1062" 
d="M903 279l55 -132q-173 -167 -397 -167q-205 0 -342 136t-137 333q0 198 138.5 335.5t336.5 137.5q166 0 282.5 -102.5t141.5 -270.5l-731 -238q37 -93 120 -146.5t193 -53.5q194 0 340 168zM223 449v-9l590 191q-29 74 -98.5 117t-159.5 43q-138 0 -235 -100.5
t-97 -241.5zM389 1065l-67 117l411 250l78 -129z" />
    <glyph glyph-name="ecircumflex" unicode="&#xea;" horiz-adv-x="1062" 
d="M903 279l55 -132q-173 -167 -397 -167q-205 0 -342 136t-137 333q0 198 138.5 335.5t336.5 137.5q166 0 282.5 -102.5t141.5 -270.5l-731 -238q37 -93 120 -146.5t193 -53.5q194 0 340 168zM223 449v-9l590 191q-29 74 -98.5 117t-159.5 43q-138 0 -235 -100.5
t-97 -241.5zM854 1149l-84 -88l-223 196l-223 -196l-84 88l307 285z" />
    <glyph glyph-name="edieresis" unicode="&#xeb;" horiz-adv-x="1062" 
d="M903 279l55 -132q-173 -167 -397 -167q-205 0 -342 136t-137 333q0 198 138.5 335.5t336.5 137.5q166 0 282.5 -102.5t141.5 -270.5l-731 -238q37 -93 120 -146.5t193 -53.5q194 0 340 168zM223 449v-9l590 191q-29 74 -98.5 117t-159.5 43q-138 0 -235 -100.5
t-97 -241.5zM262 1231q0 41 28.5 69.5t69.5 28.5t70 -28.5t29 -69.5t-29 -69.5t-70 -28.5t-69.5 28.5t-28.5 69.5zM635 1231q0 41 28.5 69.5t69.5 28.5t69.5 -28.5t28.5 -69.5t-28.5 -69.5t-69.5 -28.5t-69.5 28.5t-28.5 69.5z" />
    <glyph glyph-name="igrave" unicode="&#xec;" horiz-adv-x="471" 
d="M164 0v887l143 28v-915h-143zM414 1065l-422 238l78 129l411 -250z" />
    <glyph glyph-name="iacute" unicode="&#xed;" horiz-adv-x="471" 
d="M164 0v887l143 28v-915h-143zM78 1065l-68 117l412 250l78 -129z" />
    <glyph glyph-name="icircumflex" unicode="&#xee;" horiz-adv-x="471" 
d="M164 0v887l143 28v-915h-143zM502 1149l-90 -86l-176 192l-177 -192l-90 86l267 285z" />
    <glyph glyph-name="idieresis" unicode="&#xef;" horiz-adv-x="471" 
d="M164 0v887l143 28v-915h-143zM-20 1231q0 41 28.5 69.5t69.5 28.5t69.5 -28.5t28.5 -69.5t-28.5 -69.5t-69.5 -28.5t-69.5 28.5t-28.5 69.5zM295 1231q0 41 28.5 69.5t69.5 28.5t70 -28.5t29 -69.5t-29 -69.5t-70 -28.5t-69.5 28.5t-28.5 69.5z" />
    <glyph glyph-name="eth" unicode="&#xf0;" horiz-adv-x="1161" 
d="M1049 487q0 -219 -137 -363t-343 -144q-130 -3 -244 61.5t-180 175t-63 236.5q0 126 62 234t171 171.5t238 63.5q184 0 309 -125q-58 197 -203 362l-294 -139l-58 117l254 120q-93 81 -221 162l162 31q91 -56 182 -135l274 131l56 -119l-232 -110q267 -299 267 -730z
M893 449q0 142 -97 242t-235 100t-235 -99t-97 -241t98.5 -241t235.5 -99q136 0 233 99t97 239z" />
    <glyph glyph-name="ntilde" unicode="&#xf1;" horiz-adv-x="1077" 
d="M936 543v-543h-143v530q0 123 -63 190.5t-171 67.5q-114 0 -186 -76t-72 -202v-510h-143v889l135 26v-122q107 129 287 129q157 0 256.5 -102t99.5 -277zM518 1198q-4 2 -13.5 7.5t-13 7.5t-11 6t-11 5.5t-9.5 4t-9.5 3.5t-8.5 3t-9 2.5t-9 1t-10 0.5q-37 0 -60.5 -26
t-23.5 -64h-115q0 95 56 154t145 59q44 0 78 -13.5t81 -43.5q33 -18 43.5 -23.5t28 -11.5t33.5 -6q37 0 60.5 26t23.5 64h115q0 -95 -56 -154t-145 -59q-44 0 -78.5 13.5t-81.5 43.5z" />
    <glyph glyph-name="ograve" unicode="&#xf2;" horiz-adv-x="1122" 
d="M82 451q-1 94 36.5 182t102 152t154 101.5t186.5 35.5q97 2 186.5 -35.5t154 -101.5t102 -152t36.5 -182q1 -94 -36.5 -182t-102 -152t-154 -101.5t-186.5 -35.5q-97 -2 -186.5 35.5t-154 101.5t-102 152t-36.5 182zM893 451q0 142 -96.5 239.5t-235.5 97.5t-235.5 -97.5
t-96.5 -239.5t97 -240t235 -98t235 98t97 240zM739 1065l-422 238l78 129l412 -250z" />
    <glyph glyph-name="oacute" unicode="&#xf3;" horiz-adv-x="1122" 
d="M82 451q-1 94 36.5 182t102 152t154 101.5t186.5 35.5q97 2 186.5 -35.5t154 -101.5t102 -152t36.5 -182q1 -94 -36.5 -182t-102 -152t-154 -101.5t-186.5 -35.5q-97 -2 -186.5 35.5t-154 101.5t-102 152t-36.5 182zM893 451q0 142 -96.5 239.5t-235.5 97.5t-235.5 -97.5
t-96.5 -239.5t97 -240t235 -98t235 98t97 240zM403 1065l-67 117l412 250l77 -129z" />
    <glyph glyph-name="ocircumflex" unicode="&#xf4;" horiz-adv-x="1122" 
d="M82 451q-1 94 36.5 182t102 152t154 101.5t186.5 35.5q97 2 186.5 -35.5t154 -101.5t102 -152t36.5 -182q1 -94 -36.5 -182t-102 -152t-154 -101.5t-186.5 -35.5q-97 -2 -186.5 35.5t-154 101.5t-102 152t-36.5 182zM893 451q0 142 -96.5 239.5t-235.5 97.5t-235.5 -97.5
t-96.5 -239.5t97 -240t235 -98t235 98t97 240zM868 1149l-84 -88l-223 196l-223 -196l-84 88l307 285z" />
    <glyph glyph-name="otilde" unicode="&#xf5;" horiz-adv-x="1122" 
d="M82 451q-1 94 36.5 182t102 152t154 101.5t186.5 35.5q97 2 186.5 -35.5t154 -101.5t102 -152t36.5 -182q1 -94 -36.5 -182t-102 -152t-154 -101.5t-186.5 -35.5q-97 -2 -186.5 35.5t-154 101.5t-102 152t-36.5 182zM893 451q0 142 -96.5 239.5t-235.5 97.5t-235.5 -97.5
t-96.5 -239.5t97 -240t235 -98t235 98t97 240zM532 1198q-4 2 -13.5 7.5t-13 7.5t-11 6t-11 5.5t-9.5 4t-9.5 3.5t-8.5 3t-9 2.5t-9 1t-10 0.5q-37 0 -60.5 -26t-23.5 -64h-115q0 95 56 154t145 59q44 0 78.5 -13.5t81.5 -43.5q4 -2 13.5 -7.5t13 -7.5t11 -6t11 -5.5t9.5 -4
t9.5 -3.5t8.5 -3t9 -2.5t9 -1t10 -0.5q37 0 60.5 26t23.5 64h115q0 -95 -56 -154t-145 -59q-44 0 -78.5 13.5t-81.5 43.5z" />
    <glyph glyph-name="odieresis" unicode="&#xf6;" horiz-adv-x="1122" 
d="M82 451q-1 94 36.5 182t102 152t154 101.5t186.5 35.5q97 2 186.5 -35.5t154 -101.5t102 -152t36.5 -182q1 -94 -36.5 -182t-102 -152t-154 -101.5t-186.5 -35.5q-97 -2 -186.5 35.5t-154 101.5t-102 152t-36.5 182zM893 451q0 142 -96.5 239.5t-235.5 97.5t-235.5 -97.5
t-96.5 -239.5t97 -240t235 -98t235 98t97 240zM276 1231q0 41 29 69.5t70 28.5t69.5 -28.5t28.5 -69.5t-28.5 -69.5t-69.5 -28.5t-70 28.5t-29 69.5zM649 1231q0 41 29 69.5t70 28.5t69.5 -28.5t28.5 -69.5t-28.5 -69.5t-69.5 -28.5t-70 28.5t-29 69.5z" />
    <glyph glyph-name="divide" unicode="&#xf7;" horiz-adv-x="1032" 
d="M403 1028q0 47 33 80t80 33t80 -33t33 -80t-33 -80t-80 -33t-80 33t-33 80zM86 608v135h860v-135h-860zM403 326q0 47 33 79.5t80 32.5t80 -32.5t33 -79.5t-33 -80t-80 -33t-80 33t-33 80z" />
    <glyph glyph-name="oslash" unicode="&#xf8;" horiz-adv-x="1122" 
d="M1040 451q1 -94 -36.5 -182t-102 -152t-154 -101.5t-186.5 -35.5q-143 0 -262 73l-84 -96l-98 86l84 94q-119 132 -119 314q-1 94 36.5 182t102 152t154 101.5t186.5 35.5q143 0 260 -74l84 96l99 -86l-82 -94q118 -134 118 -313zM295 246l436 497q-74 45 -170 45
q-139 0 -235.5 -97.5t-96.5 -239.5q0 -113 66 -205zM893 451q0 112 -66 206l-436 -499q74 -45 170 -45q138 0 235 98t97 240z" />
    <glyph glyph-name="ugrave" unicode="&#xf9;" horiz-adv-x="1069" 
d="M768 889l143 26v-917h-135v111q-107 -129 -282 -129q-157 0 -255 101.5t-98 276.5v531l144 26v-544q0 -121 61.5 -188.5t167.5 -67.5q112 0 183 75.5t71 200.5v498zM705 1065l-422 238l77 129l412 -250z" />
    <glyph glyph-name="uacute" unicode="&#xfa;" horiz-adv-x="1069" 
d="M768 889l143 26v-917h-135v111q-107 -129 -282 -129q-157 0 -255 101.5t-98 276.5v531l144 26v-544q0 -121 61.5 -188.5t167.5 -67.5q112 0 183 75.5t71 200.5v498zM369 1065l-68 117l412 250l78 -129z" />
    <glyph glyph-name="ucircumflex" unicode="&#xfb;" horiz-adv-x="1069" 
d="M768 889l143 26v-917h-135v111q-107 -129 -282 -129q-157 0 -255 101.5t-98 276.5v531l144 26v-544q0 -121 61.5 -188.5t167.5 -67.5q112 0 183 75.5t71 200.5v498zM834 1149l-84 -88l-224 196l-223 -196l-84 88l307 285z" />
    <glyph glyph-name="udieresis" unicode="&#xfc;" horiz-adv-x="1069" 
d="M768 889l143 26v-917h-135v111q-107 -129 -282 -129q-157 0 -255 101.5t-98 276.5v531l144 26v-544q0 -121 61.5 -188.5t167.5 -67.5q112 0 183 75.5t71 200.5v498zM242 1231q0 41 28.5 69.5t69.5 28.5t69.5 -28.5t28.5 -69.5t-28.5 -69.5t-69.5 -28.5t-69.5 28.5
t-28.5 69.5zM614 1231q0 41 29 69.5t70 28.5t69.5 -28.5t28.5 -69.5t-28.5 -69.5t-69.5 -28.5t-70 28.5t-29 69.5z" />
    <glyph glyph-name="yacute" unicode="&#xfd;" horiz-adv-x="978" 
d="M788 901h160l-678 -1372h-159l303 596l-383 776h159l299 -627zM332 1065l-68 117l412 250l78 -129z" />
    <glyph glyph-name="thorn" unicode="&#xfe;" horiz-adv-x="1179" 
d="M1098 451q3 -125 -61 -235.5t-172 -174.5t-230 -61q-99 0 -185.5 40.5t-148.5 114.5v-606h-143v1931l143 29v-723q62 74 148.5 115t185.5 41q122 3 230 -61t172 -174.5t61 -235.5zM950 451q0 140 -95.5 238.5t-233.5 98.5q-137 0 -233.5 -99t-96.5 -238q0 -140 97 -239
t233 -99q137 0 233 99t96 239z" />
    <glyph glyph-name="ydieresis" unicode="&#xff;" horiz-adv-x="978" 
d="M788 901h160l-678 -1372h-159l303 596l-383 776h159l299 -627zM205 1231q0 41 28.5 69.5t69.5 28.5t69.5 -28.5t28.5 -69.5t-28.5 -69.5t-69.5 -28.5t-69.5 28.5t-28.5 69.5zM578 1231q0 41 28.5 69.5t69.5 28.5t69.5 -28.5t28.5 -69.5t-28.5 -69.5t-69.5 -28.5
t-69.5 28.5t-28.5 69.5z" />
    <glyph glyph-name="Amacron" unicode="&#x100;" horiz-adv-x="1380" 
d="M1174 0l-211 496h-545l-211 -496h-166l649 1485l649 -1485h-165zM479 639h422l-211 491zM383 1702v131h614v-131h-614z" />
    <glyph glyph-name="amacron" unicode="&#x101;" horiz-adv-x="917" 
d="M784 0h-133l-6 61q-94 -81 -225 -81q-141 0 -239.5 96t-98.5 233t98.5 233.5t239.5 96.5q122 0 215 -78v55q0 92 -45.5 134.5t-149.5 42.5q-101 0 -219 -41l27 133q95 33 198 33q161 0 246.5 -74.5t85.5 -214.5v-455zM647 309q0 86 -63 146.5t-152 60.5t-151 -60.5
t-62 -146.5t62 -146.5t151 -60.5t152 60.5t63 146.5zM178 1190v131h574v-131h-574z" />
    <glyph glyph-name="Abreve" unicode="&#x102;" horiz-adv-x="1380" 
d="M1174 0l-211 496h-545l-211 -496h-166l649 1485l649 -1485h-165zM479 639h422l-211 491zM367 1882h127q0 -77 56 -128.5t140 -51.5q85 0 141 51.5t56 128.5h127q0 -129 -93 -217t-231 -88t-230.5 88t-92.5 217z" />
    <glyph glyph-name="abreve" unicode="&#x103;" horiz-adv-x="917" 
d="M784 0h-133l-6 61q-94 -81 -225 -81q-141 0 -239.5 96t-98.5 233t98.5 233.5t239.5 96.5q122 0 215 -78v55q0 92 -45.5 134.5t-149.5 42.5q-101 0 -219 -41l27 133q95 33 198 33q161 0 246.5 -74.5t85.5 -214.5v-455zM647 309q0 86 -63 146.5t-152 60.5t-151 -60.5
t-62 -146.5t62 -146.5t151 -60.5t152 60.5t63 146.5zM158 1391h127q0 -77 52 -129t128 -52t128 52t52 129h127q0 -129 -88.5 -217.5t-218.5 -88.5t-218.5 88.5t-88.5 217.5z" />
    <glyph glyph-name="Aogonek" unicode="&#x104;" horiz-adv-x="1380" 
d="M1288 -240q24 0 51 9v-127q-57 -11 -79 -11q-81 0 -136 54t-55 131q0 104 102 190l-208 490h-545l-211 -496h-166l649 1485l649 -1485q-131 -88 -131 -164q0 -33 22.5 -54.5t57.5 -21.5zM479 639h422l-211 491z" />
    <glyph glyph-name="aogonek" unicode="&#x105;" horiz-adv-x="917" 
d="M737 -221q20 0 47 6v-117q-45 -10 -73 -10q-76 0 -126 49.5t-50 122.5q0 107 114 193l-4 38q-94 -81 -225 -81q-141 0 -239.5 96t-98.5 233t98.5 233.5t239.5 96.5q122 0 215 -78v55q0 92 -45.5 134.5t-149.5 42.5q-101 0 -219 -41l27 133q95 33 198 33
q161 0 246.5 -74.5t85.5 -214.5v-455l6 -174q-120 -77 -120 -152q0 -31 20.5 -50t52.5 -19zM647 309q0 86 -63 146.5t-152 60.5t-151 -60.5t-62 -146.5t62 -146.5t151 -60.5t152 60.5t63 146.5z" />
    <glyph glyph-name="Cacute" unicode="&#x106;" horiz-adv-x="1396" 
d="M121 717q-3 150 56.5 288.5t162 238.5t243.5 158.5t294 55.5q194 0 370 -92l-30 -158q-153 103 -345 103q-156 3 -292.5 -77t-217 -218.5t-77.5 -298.5q-3 -160 77 -298.5t216.5 -218.5t293.5 -77q187 0 363 115l31 -158q-184 -105 -394 -105q-202 -4 -377 96t-276.5 273
t-97.5 373zM662 1585l-56 123l475 229l66 -137z" />
    <glyph glyph-name="cacute" unicode="&#x107;" horiz-adv-x="882" 
d="M82 451q0 126 64.5 234.5t174.5 172.5t238 64q122 0 238 -58l-27 -137q-104 61 -211 61q-141 0 -235.5 -97.5t-94.5 -239.5t95 -240t235 -98q111 0 221 67l25 -141q-124 -59 -246 -59q-128 0 -238 64t-174.5 172.5t-64.5 234.5zM358 1065l-67 117l411 250l78 -129z" />
    <glyph glyph-name="Ccircumflex" unicode="&#x108;" horiz-adv-x="1396" 
d="M121 717q-3 150 56.5 288.5t162 238.5t243.5 158.5t294 55.5q194 0 370 -92l-30 -158q-153 103 -345 103q-156 3 -292.5 -77t-217 -218.5t-77.5 -298.5q-3 -160 77 -298.5t216.5 -218.5t293.5 -77q187 0 363 115l31 -158q-184 -105 -394 -105q-202 -4 -377 96t-276.5 273
t-97.5 373zM1141 1665l-84 -88l-223 197l-224 -197l-84 88l308 285z" />
    <glyph glyph-name="ccircumflex" unicode="&#x109;" horiz-adv-x="882" 
d="M82 451q0 126 64.5 234.5t174.5 172.5t238 64q122 0 238 -58l-27 -137q-104 61 -211 61q-141 0 -235.5 -97.5t-94.5 -239.5t95 -240t235 -98q111 0 221 67l25 -141q-124 -59 -246 -59q-128 0 -238 64t-174.5 172.5t-64.5 234.5zM823 1149l-84 -88l-223 196l-223 -196
l-84 88l307 285z" />
    <glyph glyph-name="Cdotaccent" unicode="&#x10a;" horiz-adv-x="1396" 
d="M121 717q-3 150 56.5 288.5t162 238.5t243.5 158.5t294 55.5q194 0 370 -92l-30 -158q-153 103 -345 103q-156 3 -292.5 -77t-217 -218.5t-77.5 -298.5q-3 -160 77 -298.5t216.5 -218.5t293.5 -77q187 0 363 115l31 -158q-184 -105 -394 -105q-202 -4 -377 96t-276.5 273
t-97.5 373zM721 1769q0 47 33 80t80 33t79.5 -33t32.5 -80t-32.5 -79.5t-79.5 -32.5t-80 32.5t-33 79.5z" />
    <glyph glyph-name="cdotaccent" unicode="&#x10b;" horiz-adv-x="882" 
d="M82 451q0 126 64.5 234.5t174.5 172.5t238 64q122 0 238 -58l-27 -137q-104 61 -211 61q-141 0 -235.5 -97.5t-94.5 -239.5t95 -240t235 -98q111 0 221 67l25 -141q-124 -59 -246 -59q-128 0 -238 64t-174.5 172.5t-64.5 234.5zM414 1249q0 43 29.5 73t72.5 30t72.5 -30
t29.5 -73t-29.5 -72.5t-72.5 -29.5t-72.5 29.5t-29.5 72.5z" />
    <glyph glyph-name="Ccaron" unicode="&#x10c;" horiz-adv-x="1396" 
d="M121 717q-3 150 56.5 288.5t162 238.5t243.5 158.5t294 55.5q194 0 370 -92l-30 -158q-153 103 -345 103q-156 3 -292.5 -77t-217 -218.5t-77.5 -298.5q-3 -160 77 -298.5t216.5 -218.5t293.5 -77q187 0 363 115l31 -158q-184 -105 -394 -105q-202 -4 -377 96t-276.5 273
t-97.5 373zM1057 1939l84 -88l-307 -284l-308 284l84 88l224 -196z" />
    <glyph glyph-name="ccaron" unicode="&#x10d;" horiz-adv-x="882" 
d="M82 451q0 126 64.5 234.5t174.5 172.5t238 64q122 0 238 -58l-27 -137q-104 61 -211 61q-141 0 -235.5 -97.5t-94.5 -239.5t95 -240t235 -98q111 0 221 67l25 -141q-124 -59 -246 -59q-128 0 -238 64t-174.5 172.5t-64.5 234.5zM741 1436l84 -88l-307 -285l-307 285
l84 88l223 -197z" />
    <glyph glyph-name="Dcaron" unicode="&#x10e;" horiz-adv-x="1361" 
d="M182 0v1434h310q154 2 293.5 -53.5t240 -151.5t159 -230t56.5 -282q2 -148 -56.5 -282t-159 -230t-240 -151.5t-293.5 -53.5h-310zM338 147h154q160 -3 296 73t214 208.5t75 288.5q3 156 -75 288t-214 208t-296 73h-154v-1139zM895 1939l84 -88l-307 -284l-307 284l84 88
l223 -196z" />
    <glyph glyph-name="dcaron" unicode="&#x10f;" horiz-adv-x="1179" 
d="M879 1460l143 29v-1489h-143v133q-61 -73 -147 -113t-185 -40q-122 -3 -230.5 61t-173 174.5t-61.5 235.5q-3 125 61.5 235.5t173 174.5t230.5 61q99 0 185 -40.5t147 -113.5v692zM889 451q0 139 -96.5 238t-233.5 99q-138 0 -234 -98.5t-96 -238.5t96 -239t234 -99
q136 0 233 99t97 239zM1104 1057l67 418h158l-80 -388z" />
    <glyph glyph-name="Dcroat" unicode="&#x110;" horiz-adv-x="1361" 
d="M1241 717q2 -148 -56.5 -282t-159 -230t-240 -151.5t-293.5 -53.5h-310v647h-155v148h155v639h310q154 2 293.5 -53.5t240 -151.5t159 -230t56.5 -282zM1077 717q3 156 -75 288t-214 208t-296 73h-154v-491h410v-148h-410v-500h154q160 -3 296 73t214 208.5t75 288.5z
" />
    <glyph glyph-name="dslash" unicode="&#x111;" horiz-adv-x="1179" 
d="M1157 1247v-135h-135v-1112h-143v133q-61 -73 -147 -113t-185 -40q-122 -3 -230.5 61t-173 174.5t-61.5 235.5q-3 125 61.5 235.5t173 174.5t230.5 61q99 0 185 -40.5t147 -113.5v344h-443v135h443v213l143 29v-242h135zM889 451q0 139 -96.5 238t-233.5 99
q-138 0 -234 -98.5t-96 -238.5t96 -239t234 -99q136 0 233 99t97 239z" />
    <glyph glyph-name="Emacron" unicode="&#x112;" horiz-adv-x="1099" 
d="M338 147h649l-29 -147h-776v1434h748l28 -148h-620v-473h514v-147h-514v-519zM266 1702v131h615v-131h-615z" />
    <glyph glyph-name="emacron" unicode="&#x113;" horiz-adv-x="1062" 
d="M903 279l55 -132q-173 -167 -397 -167q-205 0 -342 136t-137 333q0 198 138.5 335.5t336.5 137.5q166 0 282.5 -102.5t141.5 -270.5l-731 -238q37 -93 120 -146.5t193 -53.5q194 0 340 168zM223 449v-9l590 191q-29 74 -98.5 117t-159.5 43q-138 0 -235 -100.5
t-97 -241.5zM260 1190v131h574v-131h-574z" />
    <glyph glyph-name="Ebreve" unicode="&#x114;" horiz-adv-x="1099" 
d="M338 147h649l-29 -147h-776v1434h748l28 -148h-620v-473h514v-147h-514v-519zM250 1882h127q0 -77 56 -128.5t140 -51.5q85 0 141 51.5t56 128.5h127q0 -129 -93 -217t-231 -88t-230.5 88t-92.5 217z" />
    <glyph glyph-name="ebreve" unicode="&#x115;" horiz-adv-x="1062" 
d="M903 279l55 -132q-173 -167 -397 -167q-205 0 -342 136t-137 333q0 198 138.5 335.5t336.5 137.5q166 0 282.5 -102.5t141.5 -270.5l-731 -238q37 -93 120 -146.5t193 -53.5q194 0 340 168zM223 449v-9l590 191q-29 74 -98.5 117t-159.5 43q-138 0 -235 -100.5
t-97 -241.5zM240 1391h127q0 -77 52 -129t128 -52t128 52t52 129h127q0 -129 -88.5 -217.5t-218.5 -88.5t-218.5 88.5t-88.5 217.5z" />
    <glyph glyph-name="Edotaccent" unicode="&#x116;" horiz-adv-x="1099" 
d="M338 147h649l-29 -147h-776v1434h748l28 -148h-620v-473h514v-147h-514v-519zM471 1782q0 43 29.5 72.5t72.5 29.5t73 -29.5t30 -72.5t-30 -73t-73 -30t-72.5 30t-29.5 73z" />
    <glyph glyph-name="edotaccent" unicode="&#x117;" horiz-adv-x="1062" 
d="M903 279l55 -132q-173 -167 -397 -167q-205 0 -342 136t-137 333q0 198 138.5 335.5t336.5 137.5q166 0 282.5 -102.5t141.5 -270.5l-731 -238q37 -93 120 -146.5t193 -53.5q194 0 340 168zM223 449v-9l590 191q-29 74 -98.5 117t-159.5 43q-138 0 -235 -100.5
t-97 -241.5zM444 1249q0 43 30 73t73 30t72.5 -30t29.5 -73t-29.5 -72.5t-72.5 -29.5t-73 29.5t-30 72.5z" />
    <glyph glyph-name="Eogonek" unicode="&#x118;" horiz-adv-x="1099" 
d="M827 -164q0 -33 22.5 -54.5t57.5 -21.5q24 0 51 9v-127q-57 -11 -79 -11q-81 0 -136 54t-55 131q0 102 94 184h-600v1434h748l28 -148h-620v-473h514v-147h-514v-519h649l-29 -147q-131 -88 -131 -164z" />
    <glyph glyph-name="eogonek" unicode="&#x119;" horiz-adv-x="1062" 
d="M903 279l55 -132q-71 -71 -172 -120q-133 -69 -133 -156q0 -31 21 -50.5t53 -19.5q20 0 47 6v-116q-45 -10 -74 -10q-76 0 -126 49.5t-50 122.5q0 68 47 127h-10q-205 0 -342 136t-137 333q0 198 138.5 335.5t336.5 137.5q166 0 282.5 -102.5t141.5 -270.5l-731 -238
q37 -93 120 -146.5t193 -53.5q194 0 340 168zM223 449v-9l588 191q-30 74 -97.5 117t-158.5 43q-138 0 -235 -100.5t-97 -241.5z" />
    <glyph glyph-name="Ecaron" unicode="&#x11a;" horiz-adv-x="1099" 
d="M338 147h649l-29 -147h-776v1434h748l28 -148h-620v-473h514v-147h-514v-519zM797 1939l84 -88l-308 -284l-307 284l84 88l223 -196z" />
    <glyph glyph-name="ecaron" unicode="&#x11b;" horiz-adv-x="1062" 
d="M903 279l55 -132q-173 -167 -397 -167q-205 0 -342 136t-137 333q0 198 138.5 335.5t336.5 137.5q166 0 282.5 -102.5t141.5 -270.5l-731 -238q37 -93 120 -146.5t193 -53.5q194 0 340 168zM223 449v-9l590 191q-29 74 -98.5 117t-159.5 43q-138 0 -235 -100.5
t-97 -241.5zM772 1436l84 -88l-307 -285l-307 285l84 88l223 -197z" />
    <glyph glyph-name="Gcircumflex" unicode="&#x11c;" horiz-adv-x="1497" 
d="M801 776h545v-686q-97 -54 -223 -84.5t-255 -30.5q-150 -3 -289.5 55.5t-240.5 159t-160.5 239t-56.5 288.5q-3 150 57.5 288.5t163.5 238.5t246 158.5t297 55.5q209 0 403 -102l-31 -160q-165 115 -372 115q-121 2 -233 -45t-193 -127t-128.5 -191t-45.5 -231
q-3 -160 76 -298.5t214 -218.5t291 -77q180 0 324 63v443h-418zM1133 1665l-84 -88l-224 197l-223 -197l-84 88l307 285z" />
    <glyph glyph-name="gcircumflex" unicode="&#x11d;" horiz-adv-x="1058" 
d="M971 942l-27 -141l-160 14q142 -107 142 -291q0 -108 -56 -198t-153 -140q83 -50 130.5 -132t47.5 -179q0 -154 -111 -260.5t-278 -106.5q-150 0 -256 88t-131 230l133 55q12 -110 81 -175.5t173 -65.5q109 0 179.5 68.5t70.5 172.5q0 103 -72.5 172.5t-179.5 69.5
q-137 0 -225 -119l-76 107q44 47 92 73q-97 51 -153 141.5t-56 200.5q0 163 120.5 277.5t307.5 120.5zM786 520q0 116 -81 194.5t-199 78.5q-119 0 -200 -79t-81 -194t81 -191.5t200 -76.5t199.5 76.5t80.5 191.5zM819 1149l-84 -88l-223 196l-223 -196l-84 88l307 285z" />
    <glyph glyph-name="Gbreve" unicode="&#x11e;" horiz-adv-x="1497" 
d="M801 776h545v-686q-97 -54 -223 -84.5t-255 -30.5q-150 -3 -289.5 55.5t-240.5 159t-160.5 239t-56.5 288.5q-3 150 57.5 288.5t163.5 238.5t246 158.5t297 55.5q209 0 403 -102l-31 -160q-165 115 -372 115q-121 2 -233 -45t-193 -127t-128.5 -191t-45.5 -231
q-3 -160 76 -298.5t214 -218.5t291 -77q180 0 324 63v443h-418zM502 1882h127q0 -77 56 -128.5t140 -51.5q85 0 141 51.5t56 128.5h127q0 -129 -93 -217t-231 -88t-230.5 88t-92.5 217z" />
    <glyph glyph-name="gbreve" unicode="&#x11f;" horiz-adv-x="1058" 
d="M971 942l-27 -141l-160 14q142 -107 142 -291q0 -108 -56 -198t-153 -140q83 -50 130.5 -132t47.5 -179q0 -154 -111 -260.5t-278 -106.5q-150 0 -256 88t-131 230l133 55q12 -110 81 -175.5t173 -65.5q109 0 179.5 68.5t70.5 172.5q0 103 -72.5 172.5t-179.5 69.5
q-137 0 -225 -119l-76 107q44 47 92 73q-97 51 -153 141.5t-56 200.5q0 163 120.5 277.5t307.5 120.5zM786 520q0 116 -81 194.5t-199 78.5q-119 0 -200 -79t-81 -194t81 -191.5t200 -76.5t199.5 76.5t80.5 191.5zM205 1391h127q0 -77 52 -129t128 -52t128 52t52 129h127
q0 -129 -88.5 -217.5t-218.5 -88.5t-218.5 88.5t-88.5 217.5z" />
    <glyph glyph-name="Gdotaccent" unicode="&#x120;" horiz-adv-x="1497" 
d="M801 776h545v-686q-97 -54 -223 -84.5t-255 -30.5q-150 -3 -289.5 55.5t-240.5 159t-160.5 239t-56.5 288.5q-3 150 57.5 288.5t163.5 238.5t246 158.5t297 55.5q209 0 403 -102l-31 -160q-165 115 -372 115q-121 2 -233 -45t-193 -127t-128.5 -191t-45.5 -231
q-3 -160 76 -298.5t214 -218.5t291 -77q180 0 324 63v443h-418zM723 1782q0 43 29.5 72.5t72.5 29.5t73 -29.5t30 -72.5t-30 -73t-73 -30t-72.5 30t-29.5 73z" />
    <glyph glyph-name="gdotaccent" unicode="&#x121;" horiz-adv-x="1058" 
d="M971 942l-27 -141l-160 14q142 -107 142 -291q0 -108 -56 -198t-153 -140q83 -50 130.5 -132t47.5 -179q0 -154 -111 -260.5t-278 -106.5q-150 0 -256 88t-131 230l133 55q12 -110 81 -175.5t173 -65.5q109 0 179.5 68.5t70.5 172.5q0 103 -72.5 172.5t-179.5 69.5
q-137 0 -225 -119l-76 107q44 47 92 73q-97 51 -153 141.5t-56 200.5q0 163 120.5 277.5t307.5 120.5zM786 520q0 116 -81 194.5t-199 78.5q-119 0 -200 -79t-81 -194t81 -191.5t200 -76.5t199.5 76.5t80.5 191.5zM410 1249q0 43 29.5 73t72.5 30t72.5 -30t29.5 -73
t-29.5 -72.5t-72.5 -29.5t-72.5 29.5t-29.5 72.5z" />
    <glyph glyph-name="Gcommaaccent" unicode="&#x122;" horiz-adv-x="1497" 
d="M801 776h545v-686q-97 -54 -223 -84.5t-255 -30.5q-150 -3 -289.5 55.5t-240.5 159t-160.5 239t-56.5 288.5q-3 150 57.5 288.5t163.5 238.5t246 158.5t297 55.5q209 0 403 -102l-31 -160q-165 115 -372 115q-121 2 -233 -45t-193 -127t-128.5 -191t-45.5 -231
q-3 -160 76 -298.5t214 -218.5t291 -77q180 0 324 63v443h-418zM659 -545l129 422h146l-146 -401z" />
    <glyph glyph-name="gcommaaccent" unicode="&#x123;" horiz-adv-x="1058" 
d="M971 942l-27 -141l-160 14q142 -107 142 -291q0 -108 -56 -198t-153 -140q83 -50 130.5 -132t47.5 -179q0 -154 -111 -260.5t-278 -106.5q-150 0 -256 88t-131 230l133 55q12 -110 81 -175.5t173 -65.5q109 0 179.5 68.5t70.5 172.5q0 103 -72.5 172.5t-179.5 69.5
q-137 0 -225 -119l-76 107q44 47 92 73q-97 51 -153 141.5t-56 200.5q0 163 120.5 277.5t307.5 120.5zM786 520q0 116 -81 194.5t-199 78.5q-119 0 -200 -79t-81 -194t81 -191.5t200 -76.5t199.5 76.5t80.5 191.5zM678 1446l-129 -422h-146l146 401z" />
    <glyph glyph-name="Hcircumflex" unicode="&#x124;" horiz-adv-x="1536" 
d="M1198 1419l156 29v-1448h-156v655h-860v-655h-156v1419l156 29v-645h860v616zM1075 1665l-84 -88l-223 197l-223 -197l-84 88l307 285z" />
    <glyph glyph-name="hcircumflex" unicode="&#x125;" horiz-adv-x="1077" 
d="M936 543v-543h-143v530q0 121 -63.5 188.5t-170.5 67.5q-114 0 -186 -75.5t-72 -200.5v-510h-143v1460l143 29v-698q103 131 281 131q156 0 255 -102t99 -277zM557 1665l-84 -88l-223 197l-223 -197l-84 88l307 285z" />
    <glyph glyph-name="Hbar" unicode="&#x126;" horiz-adv-x="1536" 
d="M1497 1180v-148h-143v-1032h-156v655h-860v-655h-156v1032h-143v148h143v239l156 29v-268h860v239l156 29v-268h143zM1198 803v229h-860v-229h860z" />
    <glyph glyph-name="hbar" unicode="&#x127;" horiz-adv-x="1077" 
d="M936 543v-543h-143v530q0 121 -63.5 188.5t-170.5 67.5q-114 0 -186 -75.5t-72 -200.5v-510h-143v1112h-135v135h135v213l143 29v-242h442v-135h-442v-321q103 131 281 131q156 0 255 -102t99 -277z" />
    <glyph glyph-name="Itilde" unicode="&#x128;" horiz-adv-x="540" 
d="M193 0v1419l155 29v-1448h-155zM238 1731q-21 12 -55.5 26.5t-55.5 14.5q-38 0 -64 -26.5t-26 -64.5h-115q0 95 58 154t151 59q45 0 81 -13t91 -44q21 -12 55.5 -26.5t55.5 -14.5q38 0 64 26t26 64h114q0 -95 -58 -154t-150 -59q-31 0 -61.5 8t-51 18.5t-59.5 31.5z" />
    <glyph glyph-name="itilde" unicode="&#x129;" horiz-adv-x="471" 
d="M164 0v887l143 28v-915h-143zM211 1196q-53 35 -90 35q-34 0 -54 -21t-20 -53h-115q0 88 52 142.5t137 54.5q65 0 139 -47q53 -35 90 -35q34 0 54 21t20 53h115q0 -88 -52 -142.5t-137 -54.5q-65 0 -139 47z" />
    <glyph glyph-name="Imacron" unicode="&#x12a;" horiz-adv-x="540" 
d="M193 0v1419l155 29v-1448h-155zM-37 1702v131h615v-131h-615z" />
    <glyph glyph-name="imacron" unicode="&#x12b;" horiz-adv-x="471" 
d="M164 0v887l143 28v-915h-143zM10 1190v131h451v-131h-451z" />
    <glyph glyph-name="Ibreve" unicode="&#x12c;" horiz-adv-x="540" 
d="M193 0v1419l155 29v-1448h-155zM-53 1882h127q0 -77 56 -128.5t140 -51.5q85 0 141 51.5t56 128.5h127q0 -129 -93 -217t-231 -88t-230.5 88t-92.5 217z" />
    <glyph glyph-name="ibreve" unicode="&#x12d;" horiz-adv-x="471" 
d="M164 0v887l143 28v-915h-143zM-51 1391h127q0 -75 44 -122.5t116 -47.5t115.5 47.5t43.5 122.5h127q0 -128 -81 -211.5t-205 -83.5t-205.5 83.5t-81.5 211.5z" />
    <glyph glyph-name="Iogonek" unicode="&#x12e;" horiz-adv-x="540" 
d="M217 -164q0 -33 22.5 -54.5t57.5 -21.5q24 0 51 9v-127q-57 -11 -80 -11q-81 0 -135.5 54t-54.5 131q0 111 115 200v1403l155 29v-1448q-131 -88 -131 -164z" />
    <glyph glyph-name="iogonek" unicode="&#x12f;" horiz-adv-x="471" 
d="M338 1249q0 -43 -29.5 -72.5t-72.5 -29.5t-73 29.5t-30 72.5t30 73t73 30t72.5 -30t29.5 -73zM164 16v871l143 28v-915q-121 -78 -121 -152q0 -31 21 -50t53 -19q20 0 47 6v-117q-45 -10 -74 -10q-76 0 -126 49.5t-50 122.5q0 104 107 186z" />
    <glyph glyph-name="Idot" unicode="&#x130;" horiz-adv-x="540" 
d="M193 0v1419l155 29v-1448h-155zM168 1782q0 43 29.5 72.5t72.5 29.5t73 -29.5t30 -72.5t-30 -73t-73 -30t-72.5 30t-29.5 73z" />
    <glyph glyph-name="dotlessi" unicode="&#x131;" horiz-adv-x="471" 
d="M164 0v887l143 28v-915h-143z" />
    <glyph glyph-name="IJ" unicode="&#x132;" horiz-adv-x="1435" 
d="M193 0v1419l155 29v-1448h-155zM590 78l49 141q63 -51 117.5 -73.5t120.5 -22.5q121 0 181 75t60 238v983l156 29v-1028q0 -212 -103 -328.5t-286 -116.5q-167 0 -295 103z" />
    <glyph glyph-name="ij" unicode="&#x133;" horiz-adv-x="942" 
d="M164 0v887l143 28v-915h-143zM133 1249q0 43 30 73t73 30t72.5 -30t29.5 -73t-29.5 -72.5t-72.5 -29.5t-73 29.5t-30 72.5zM442 -483v135q93 5 143 64t50 167v1004l143 28v-1042q0 -164 -89 -258.5t-247 -97.5zM604 1249q0 43 30 73t73 30t72.5 -30t29.5 -73t-29.5 -72.5
t-72.5 -29.5t-73 29.5t-30 72.5z" />
    <glyph glyph-name="Jcircumflex" unicode="&#x134;" horiz-adv-x="894" 
d="M49 78l49 141q63 -51 117.5 -73.5t120.5 -22.5q121 0 181.5 75t60.5 238v983l155 29v-1028q0 -212 -103 -328.5t-286 -116.5q-167 0 -295 103zM963 1665l-84 -88l-224 197l-223 -197l-84 88l307 285z" />
    <glyph glyph-name="jcircumflex" unicode="&#x135;" horiz-adv-x="471" 
d="M-29 -483v135q93 5 143 64t50 167v1004l143 28v-1042q0 -164 -89 -258.5t-247 -97.5zM502 1149l-90 -86l-176 192l-177 -192l-90 86l267 285z" />
    <glyph glyph-name="Kcommaaccent" unicode="&#x136;" horiz-adv-x="1171" 
d="M1094 0h-199l-557 719v-719h-156v1419l156 29v-692l541 678h198l-575 -695zM420 -545l129 422h145l-145 -401z" />
    <glyph glyph-name="kcommaaccent" unicode="&#x137;" horiz-adv-x="937" 
d="M877 0h-193l-383 455v-455h-143v1460l143 29v-1006l365 418h190l-393 -430zM299 -545l129 422h145l-145 -401z" />
    <glyph glyph-name="kgreenlandic" unicode="&#x138;" horiz-adv-x="937" 
d="M877 0h-193l-383 455v-455h-143v887l143 28v-432l365 418h190l-393 -430z" />
    <glyph glyph-name="Lacute" unicode="&#x139;" horiz-adv-x="1064" 
d="M338 147h627l-29 -147h-754v1419l156 29v-1301zM375 1597l-68 117l412 250l78 -129z" />
    <glyph glyph-name="lacute" unicode="&#x13a;" horiz-adv-x="471" 
d="M164 0v1460l143 29v-1489h-143zM63 1626l-55 123l475 229l66 -137z" />
    <glyph glyph-name="Lcommaaccent" unicode="&#x13b;" horiz-adv-x="1064" 
d="M338 147h627l-29 -147h-754v1419l156 29v-1301zM367 -545l129 422h145l-145 -401z" />
    <glyph glyph-name="lcommaaccent" unicode="&#x13c;" horiz-adv-x="471" 
d="M164 0v1460l143 29v-1489h-143zM70 -545l129 422h145l-145 -401z" />
    <glyph glyph-name="Lcaron" unicode="&#x13d;" horiz-adv-x="1064" 
d="M338 147h627l-29 -147h-754v1419l156 29v-1301zM481 1016l68 418h158l-80 -387z" />
    <glyph glyph-name="lcaron" unicode="&#x13e;" horiz-adv-x="471" 
d="M164 0v1460l143 29v-1489h-143zM387 1057l68 418h157l-80 -388z" />
    <glyph glyph-name="Ldot" unicode="&#x13f;" horiz-adv-x="1064" 
d="M338 147h627l-29 -147h-754v1419l156 29v-1301zM651 803q0 51 35.5 87t89.5 36t89.5 -36t35.5 -87t-35.5 -87t-89.5 -36t-89.5 36t-35.5 87z" />
    <glyph glyph-name="ldot" unicode="&#x140;" horiz-adv-x="628" 
d="M164 0v1460l143 29v-1489h-143zM451 813q0 47 32.5 79t79.5 32t80 -32t33 -79t-33 -79t-80 -32t-79.5 32t-32.5 79z" />
    <glyph glyph-name="Lslash" unicode="&#x141;" horiz-adv-x="1085" 
d="M358 147h627l-29 -147h-753v582l-131 -52v152l131 51v686l155 29v-653l398 155v-151l-398 -156v-496z" />
    <glyph glyph-name="lslash" unicode="&#x142;" horiz-adv-x="471" 
d="M444 942v-158l-137 -88v-696h-143v604l-137 -88v158l137 88v698l143 29v-635z" />
    <glyph glyph-name="Nacute" unicode="&#x143;" horiz-adv-x="1581" 
d="M1399 1450v-1511l-1061 1161v-1100h-156v1495l1061 -1161v1085zM618 1585l-55 123l475 229l66 -137z" />
    <glyph glyph-name="nacute" unicode="&#x144;" horiz-adv-x="1077" 
d="M936 543v-543h-143v530q0 123 -63 190.5t-171 67.5q-114 0 -186 -76t-72 -202v-510h-143v889l135 26v-122q107 129 287 129q157 0 256.5 -102t99.5 -277zM389 1065l-67 117l411 250l78 -129z" />
    <glyph glyph-name="Ncommaaccent" unicode="&#x145;" horiz-adv-x="1581" 
d="M1399 1450v-1511l-1061 1161v-1100h-156v1495l1061 -1161v1085zM625 -545l129 422h145l-145 -401z" />
    <glyph glyph-name="ncommaaccent" unicode="&#x146;" horiz-adv-x="1077" 
d="M936 543v-543h-143v530q0 123 -63 190.5t-171 67.5q-114 0 -186 -76t-72 -202v-510h-143v889l135 26v-122q107 129 287 129q157 0 256.5 -102t99.5 -277zM381 -545l129 422h145l-145 -401z" />
    <glyph glyph-name="Ncaron" unicode="&#x147;" horiz-adv-x="1581" 
d="M1399 1450v-1511l-1061 1161v-1100h-156v1495l1061 -1161v1085zM1014 1939l84 -88l-307 -284l-308 284l84 88l224 -196z" />
    <glyph glyph-name="ncaron" unicode="&#x148;" horiz-adv-x="1077" 
d="M936 543v-543h-143v530q0 123 -63 190.5t-171 67.5q-114 0 -186 -76t-72 -202v-510h-143v889l135 26v-122q107 129 287 129q157 0 256.5 -102t99.5 -277zM772 1436l84 -88l-307 -285l-307 285l84 88l223 -197z" />
    <glyph glyph-name="napostrophe" unicode="&#x149;" horiz-adv-x="1097" 
d="M956 543v-543h-143v530q0 123 -63 190.5t-170 67.5q-114 0 -186 -76t-72 -202v-510h-144v889l135 26v-122q107 129 287 129q157 0 256.5 -102t99.5 -277zM-51 864l182 570h164l-201 -545z" />
    <glyph glyph-name="Eng" unicode="&#x14a;" horiz-adv-x="1581" 
d="M1243 1419l156 31v-1511q-3 -205 -105.5 -318t-283.5 -113q-167 0 -295 103l49 141q63 -51 117 -73.5t120 -22.5q121 0 181.5 75t60.5 238v140l-905 991v-1100h-156v1495l1061 -1161v1085z" />
    <glyph glyph-name="eng" unicode="&#x14b;" horiz-adv-x="1077" 
d="M936 543v-670q0 -164 -89 -258.5t-247 -97.5v135q93 5 143 64t50 167v647q0 123 -63 190.5t-171 67.5q-114 0 -186 -76t-72 -202v-510h-143v889l135 26v-122q107 129 287 129q157 0 256.5 -102t99.5 -277z" />
    <glyph glyph-name="Omacron" unicode="&#x14c;" horiz-adv-x="1748" 
d="M121 717q-3 150 57 288.5t161.5 238.5t242 158.5t292.5 55.5q152 3 292.5 -55.5t242.5 -158.5t162 -238.5t57 -288.5q3 -150 -57 -288.5t-162 -239t-242.5 -159t-292.5 -55.5q-202 -4 -377.5 96t-277.5 273t-98 373zM1464 717q2 120 -45 231t-126.5 191t-190 127
t-228.5 45q-118 2 -228 -45t-190 -127t-126.5 -191t-44.5 -231q-2 -120 44.5 -231t126.5 -191t190 -127t228 -45q118 -2 228.5 45t190 127t126.5 191t45 231zM567 1702v131h615v-131h-615z" />
    <glyph glyph-name="omacron" unicode="&#x14d;" horiz-adv-x="1122" 
d="M82 451q-1 94 36.5 182t102 152t154 101.5t186.5 35.5q97 2 186.5 -35.5t154 -101.5t102 -152t36.5 -182q1 -94 -36.5 -182t-102 -152t-154 -101.5t-186.5 -35.5q-97 -2 -186.5 35.5t-154 101.5t-102 152t-36.5 182zM893 451q0 142 -96.5 239.5t-235.5 97.5t-235.5 -97.5
t-96.5 -239.5t97 -240t235 -98t235 98t97 240zM274 1190v131h574v-131h-574z" />
    <glyph glyph-name="Obreve" unicode="&#x14e;" horiz-adv-x="1748" 
d="M121 717q-3 150 57 288.5t161.5 238.5t242 158.5t292.5 55.5q152 3 292.5 -55.5t242.5 -158.5t162 -238.5t57 -288.5q3 -150 -57 -288.5t-162 -239t-242.5 -159t-292.5 -55.5q-202 -4 -377.5 96t-277.5 273t-98 373zM1464 717q2 120 -45 231t-126.5 191t-190 127
t-228.5 45q-118 2 -228 -45t-190 -127t-126.5 -191t-44.5 -231q-2 -120 44.5 -231t126.5 -191t190 -127t228 -45q118 -2 228.5 45t190 127t126.5 191t45 231zM551 1882h127q0 -77 56 -128.5t140 -51.5q85 0 141 51.5t56 128.5h127q0 -129 -93 -217t-231 -88t-230.5 88
t-92.5 217z" />
    <glyph glyph-name="obreve" unicode="&#x14f;" horiz-adv-x="1122" 
d="M82 451q-1 94 36.5 182t102 152t154 101.5t186.5 35.5q97 2 186.5 -35.5t154 -101.5t102 -152t36.5 -182q1 -94 -36.5 -182t-102 -152t-154 -101.5t-186.5 -35.5q-97 -2 -186.5 35.5t-154 101.5t-102 152t-36.5 182zM893 451q0 142 -96.5 239.5t-235.5 97.5t-235.5 -97.5
t-96.5 -239.5t97 -240t235 -98t235 98t97 240zM254 1391h127q0 -77 52 -129t128 -52t128 52t52 129h127q0 -129 -88.5 -217.5t-218.5 -88.5t-218.5 88.5t-88.5 217.5z" />
    <glyph glyph-name="Ohungarumlaut" unicode="&#x150;" horiz-adv-x="1748" 
d="M121 717q-3 150 57 288.5t161.5 238.5t242 158.5t292.5 55.5q152 3 292.5 -55.5t242.5 -158.5t162 -238.5t57 -288.5q3 -150 -57 -288.5t-162 -239t-242.5 -159t-292.5 -55.5q-202 -4 -377.5 96t-277.5 273t-98 373zM1464 717q2 120 -45 231t-126.5 191t-190 127
t-228.5 45q-118 2 -228 -45t-190 -127t-126.5 -191t-44.5 -231q-2 -120 44.5 -231t126.5 -191t190 -127t228 -45q118 -2 228.5 45t190 127t126.5 191t45 231zM625 1589l153 316h195l-207 -316h-141zM965 1589l153 316h195l-207 -316h-141z" />
    <glyph glyph-name="ohungarumlaut" unicode="&#x151;" horiz-adv-x="1122" 
d="M82 451q-1 94 36.5 182t102 152t154 101.5t186.5 35.5q97 2 186.5 -35.5t154 -101.5t102 -152t36.5 -182q1 -94 -36.5 -182t-102 -152t-154 -101.5t-186.5 -35.5q-97 -2 -186.5 35.5t-154 101.5t-102 152t-36.5 182zM893 451q0 142 -96.5 239.5t-235.5 97.5t-235.5 -97.5
t-96.5 -239.5t97 -240t235 -98t235 98t97 240zM324 1085l153 328h182l-206 -328h-129zM651 1085l154 328h182l-207 -328h-129z" />
    <glyph glyph-name="OE" unicode="&#x152;" horiz-adv-x="1941" 
d="M1180 147h649l-29 -147h-930q-155 -2 -294.5 53.5t-240 151.5t-158.5 230t-56 282q-2 148 56 282t158.5 230t240 151.5t294.5 53.5h902l28 -148h-620v-473h514v-147h-514v-519zM870 147h154v1139h-154q-160 3 -296 -73t-214 -208t-75 -288q-3 -156 75 -288.5t214 -208.5
t296 -73z" />
    <glyph glyph-name="oe" unicode="&#x153;" horiz-adv-x="1867" 
d="M1708 279l55 -132q-173 -167 -393 -167q-134 0 -240 61.5t-167 171.5q-62 -109 -169 -171t-237 -62q-95 -2 -184 35.5t-153 101.5t-101.5 152t-36.5 182q-1 94 36.5 182t101.5 152t153 101.5t184 35.5q130 0 238 -63.5t168 -172.5q62 110 168 173t235 63
q163 0 279 -102.5t141 -270.5l-731 -238q37 -93 120 -146.5t193 -53.5q194 0 340 168zM1028 449v-9l590 191q-29 74 -98.5 117t-159.5 43q-138 0 -235 -100.5t-97 -241.5zM893 451q0 142 -96.5 239.5t-235.5 97.5t-235.5 -97.5t-96.5 -239.5t97 -240t235 -98t235 98t97 240z
" />
    <glyph glyph-name="Racute" unicode="&#x154;" horiz-adv-x="1122" 
d="M1026 0h-201l-487 600v-600h-156v1434h283q224 0 364 -126t140 -321q0 -169 -111 -287t-291 -143zM338 1286v-610h127q156 0 248 85.5t92 223.5q0 132 -92.5 216.5t-247.5 84.5h-127zM389 1585l-55 123l475 229l65 -137z" />
    <glyph glyph-name="racute" unicode="&#x155;" horiz-adv-x="653" 
d="M608 915v-145q-307 0 -307 -301v-469h-143v889l135 26v-149q98 149 315 149zM168 1065l-68 117l412 250l78 -129z" />
    <glyph glyph-name="Rcommaaccent" unicode="&#x156;" horiz-adv-x="1122" 
d="M1026 0h-201l-487 600v-600h-156v1434h283q224 0 364 -126t140 -321q0 -169 -111 -287t-291 -143zM338 1286v-610h127q156 0 248 85.5t92 223.5q0 132 -92.5 216.5t-247.5 84.5h-127zM395 -545l129 422h146l-146 -401z" />
    <glyph glyph-name="rcommaaccent" unicode="&#x157;" horiz-adv-x="653" 
d="M608 915v-145q-307 0 -307 -301v-469h-143v889l135 26v-149q98 149 315 149zM160 -545l129 422h145l-145 -401z" />
    <glyph glyph-name="Rcaron" unicode="&#x158;" horiz-adv-x="1122" 
d="M1026 0h-201l-487 600v-600h-156v1434h283q224 0 364 -126t140 -321q0 -169 -111 -287t-291 -143zM338 1286v-610h127q156 0 248 85.5t92 223.5q0 132 -92.5 216.5t-247.5 84.5h-127zM784 1939l84 -88l-307 -284l-307 284l84 88l223 -196z" />
    <glyph glyph-name="rcaron" unicode="&#x159;" horiz-adv-x="653" 
d="M608 915v-145q-307 0 -307 -301v-469h-143v889l135 26v-149q98 149 315 149zM551 1436l84 -88l-307 -285l-308 285l84 88l224 -197z" />
    <glyph glyph-name="Sacute" unicode="&#x15a;" horiz-adv-x="1075" 
d="M98 137l35 170q82 -84 185 -134t206 -50q124 0 201.5 72.5t77.5 185.5q0 88 -54.5 155t-162.5 101l-94 31q-351 113 -351 413q0 160 115.5 268.5t288.5 108.5q193 0 362 -115l-30 -161q-176 129 -332 129q-108 0 -177 -65.5t-69 -164.5q0 -91 58.5 -154.5t189.5 -105.5
l94 -30q158 -50 240 -157t82 -251q0 -178 -123 -293t-316 -115q-234 0 -426 162zM375 1597l-68 117l412 250l78 -129z" />
    <glyph glyph-name="sacute" unicode="&#x15b;" horiz-adv-x="768" 
d="M90 74l25 131q138 -99 262 -99q70 0 111.5 38t41.5 104q0 51 -35.5 85t-129.5 64l-37 13q-104 35 -159.5 103.5t-55.5 160.5q0 105 77 176.5t195 71.5q116 0 246 -70l-27 -131q-121 74 -219 74q-63 0 -100 -32.5t-37 -86.5q0 -46 33 -78.5t116 -60.5l37 -13
q115 -37 175.5 -107.5t60.5 -168.5q0 -119 -81.5 -193.5t-211.5 -74.5q-148 0 -287 94zM227 1065l-67 117l411 250l78 -129z" />
    <glyph glyph-name="Scircumflex" unicode="&#x15c;" horiz-adv-x="1075" 
d="M98 137l35 170q82 -84 185 -134t206 -50q124 0 201.5 72.5t77.5 185.5q0 88 -54.5 155t-162.5 101l-94 31q-351 113 -351 413q0 160 115.5 268.5t288.5 108.5q193 0 362 -115l-30 -161q-176 129 -332 129q-108 0 -177 -65.5t-69 -164.5q0 -91 58.5 -154.5t189.5 -105.5
l94 -30q158 -50 240 -157t82 -251q0 -178 -123 -293t-316 -115q-234 0 -426 162zM840 1665l-84 -88l-224 197l-223 -197l-84 88l307 285z" />
    <glyph glyph-name="scircumflex" unicode="&#x15d;" horiz-adv-x="768" 
d="M90 74l25 131q138 -99 262 -99q70 0 111.5 38t41.5 104q0 51 -35.5 85t-129.5 64l-37 13q-104 35 -159.5 103.5t-55.5 160.5q0 105 77 176.5t195 71.5q116 0 246 -70l-27 -131q-121 74 -219 74q-63 0 -100 -32.5t-37 -86.5q0 -46 33 -78.5t116 -60.5l37 -13
q115 -37 175.5 -107.5t60.5 -168.5q0 -119 -81.5 -193.5t-211.5 -74.5q-148 0 -287 94zM692 1149l-84 -88l-223 196l-223 -196l-84 88l307 285z" />
    <glyph glyph-name="Scedilla" unicode="&#x15e;" horiz-adv-x="1075" 
d="M582 -23l-197 -346l-139 95l198 256q-189 22 -346 155l35 170q82 -84 185 -134t206 -50q124 0 201.5 72.5t77.5 185.5q0 88 -54.5 155t-162.5 101l-94 31q-351 113 -351 413q0 160 115.5 268.5t288.5 108.5q193 0 362 -115l-30 -161q-176 129 -332 129q-108 0 -177 -65.5
t-69 -164.5q0 -91 58.5 -154.5t189.5 -105.5l94 -30q158 -50 240 -157t82 -251q0 -161 -106 -274t-275 -132z" />
    <glyph glyph-name="scedilla" unicode="&#x15f;" horiz-adv-x="768" 
d="M438 -16l-200 -353l-140 95l203 260q-111 20 -211 88l25 131q138 -99 262 -99q70 0 111.5 38t41.5 104q0 51 -35.5 85t-129.5 64l-37 13q-104 35 -159.5 103.5t-55.5 160.5q0 105 77 176.5t195 71.5q116 0 246 -70l-27 -131q-121 74 -219 74q-63 0 -100 -32.5t-37 -86.5
q0 -46 33 -78.5t116 -60.5l37 -13q115 -37 175.5 -107.5t60.5 -168.5q0 -103 -63.5 -174t-168.5 -90z" />
    <glyph glyph-name="Scaron" unicode="&#x160;" horiz-adv-x="1075" 
d="M98 137l35 170q82 -84 185 -134t206 -50q124 0 201.5 72.5t77.5 185.5q0 88 -54.5 155t-162.5 101l-94 31q-351 113 -351 413q0 160 115.5 268.5t288.5 108.5q193 0 362 -115l-30 -161q-176 129 -332 129q-108 0 -177 -65.5t-69 -164.5q0 -91 58.5 -154.5t189.5 -105.5
l94 -30q158 -50 240 -157t82 -251q0 -178 -123 -293t-316 -115q-234 0 -426 162zM756 1939l84 -88l-308 -284l-307 284l84 88l223 -196z" />
    <glyph glyph-name="scaron" unicode="&#x161;" horiz-adv-x="768" 
d="M90 74l25 131q138 -99 262 -99q70 0 111.5 38t41.5 104q0 51 -35.5 85t-129.5 64l-37 13q-104 35 -159.5 103.5t-55.5 160.5q0 105 77 176.5t195 71.5q116 0 246 -70l-27 -131q-121 74 -219 74q-63 0 -100 -32.5t-37 -86.5q0 -46 33 -78.5t116 -60.5l37 -13
q115 -37 175.5 -107.5t60.5 -168.5q0 -119 -81.5 -193.5t-211.5 -74.5q-148 0 -287 94zM610 1436l84 -88l-307 -285l-307 285l84 88l223 -197z" />
    <glyph glyph-name="uni0162" unicode="&#x162;" horiz-adv-x="1073" 
d="M1028 1286h-414v-1286h-155v1286h-414l29 148h925zM371 -545l129 422h145l-145 -401z" />
    <glyph glyph-name="uni0163" unicode="&#x163;" horiz-adv-x="661" 
d="M590 770h-262v-512q0 -67 34.5 -104t96.5 -37q73 0 131 28v-133q-58 -28 -146 -28q-119 0 -189.5 71t-70.5 193v522h-133l25 131h108v199l144 86v-285h262v-131zM203 -545l129 422h145l-145 -401z" />
    <glyph glyph-name="Tcaron" unicode="&#x164;" horiz-adv-x="1073" 
d="M1028 1286h-414v-1286h-155v1286h-414l29 148h925zM760 1939l84 -88l-307 -284l-308 284l84 88l224 -196z" />
    <glyph glyph-name="tcaron" unicode="&#x165;" horiz-adv-x="661" 
d="M590 770h-262v-512q0 -67 34.5 -104t96.5 -37q73 0 131 28v-133q-58 -28 -146 -28q-119 0 -189.5 71t-70.5 193v522h-133l25 131h108v199l144 86v-285h262v-131zM410 1057l67 418h158l-80 -388z" />
    <glyph glyph-name="Tbar" unicode="&#x166;" horiz-adv-x="1073" 
d="M614 1286v-475h320v-147h-320v-664h-155v664h-320v147h320v475h-414l29 148h925l29 -148h-414z" />
    <glyph glyph-name="tbar" unicode="&#x167;" horiz-adv-x="712" 
d="M621 770h-263v-186h263v-131h-263v-195q0 -67 34.5 -104t96.5 -37q74 0 132 28v-133q-58 -28 -146 -28q-119 0 -189.5 71t-70.5 193v205h-133l24 131h109v186h-133l24 131h109v199l143 86v-285h263v-131z" />
    <glyph glyph-name="Utilde" unicode="&#x168;" horiz-adv-x="1376" 
d="M162 543v876l155 29v-889q0 -198 101.5 -317t269.5 -119t269.5 119t101.5 317v860l155 29v-905q0 -253 -145.5 -410.5t-380.5 -157.5t-380.5 157.5t-145.5 410.5zM655 1731q-21 13 -55.5 27t-54.5 14q-38 0 -64 -26.5t-26 -64.5h-115q0 95 58 154t151 59q45 0 81 -13
t91 -44q21 -13 55.5 -27t54.5 -14q38 0 64.5 26t26.5 64h114q0 -95 -58 -154t-151 -59q-31 0 -61.5 8t-51 18.5t-59.5 31.5z" />
    <glyph glyph-name="utilde" unicode="&#x169;" horiz-adv-x="1069" 
d="M768 889l143 26v-917h-135v111q-107 -129 -282 -129q-157 0 -255 101.5t-98 276.5v531l144 26v-544q0 -121 61.5 -188.5t167.5 -67.5q112 0 183 75.5t71 200.5v498zM498 1198q-33 18 -43.5 23.5t-28 11.5t-33.5 6q-37 0 -60.5 -26t-23.5 -64h-114q0 95 55.5 154t144.5 59
q44 0 78.5 -13.5t81.5 -43.5q4 -2 13.5 -7.5t13 -7.5t11 -6t11 -5.5t9.5 -4t9.5 -3.5t8.5 -3t9 -2.5t9 -1t10 -0.5q37 0 60.5 26t23.5 64h115q0 -95 -56 -154t-145 -59q-44 0 -78 13.5t-81 43.5z" />
    <glyph glyph-name="Umacron" unicode="&#x16a;" horiz-adv-x="1376" 
d="M162 543v876l155 29v-889q0 -198 101.5 -317t269.5 -119t269.5 119t101.5 317v860l155 29v-905q0 -253 -145.5 -410.5t-380.5 -157.5t-380.5 157.5t-145.5 410.5zM381 1702v131h614v-131h-614z" />
    <glyph glyph-name="umacron" unicode="&#x16b;" horiz-adv-x="1069" 
d="M768 889l143 26v-917h-135v111q-107 -129 -282 -129q-157 0 -255 101.5t-98 276.5v531l144 26v-544q0 -121 61.5 -188.5t167.5 -67.5q112 0 183 75.5t71 200.5v498zM240 1190v131h573v-131h-573z" />
    <glyph glyph-name="Ubreve" unicode="&#x16c;" horiz-adv-x="1376" 
d="M162 543v876l155 29v-889q0 -198 101.5 -317t269.5 -119t269.5 119t101.5 317v860l155 29v-905q0 -253 -145.5 -410.5t-380.5 -157.5t-380.5 157.5t-145.5 410.5zM365 1882h127q0 -77 56 -128.5t140 -51.5q85 0 141 51.5t56 128.5h127q0 -129 -93 -217t-231 -88
t-230.5 88t-92.5 217z" />
    <glyph glyph-name="ubreve" unicode="&#x16d;" horiz-adv-x="1069" 
d="M768 889l143 26v-917h-135v111q-107 -129 -282 -129q-157 0 -255 101.5t-98 276.5v531l144 26v-544q0 -121 61.5 -188.5t167.5 -67.5q112 0 183 75.5t71 200.5v498zM219 1391h127q0 -77 52 -129t128 -52t128.5 52t52.5 129h127q0 -129 -89 -217.5t-219 -88.5t-218.5 88.5
t-88.5 217.5z" />
    <glyph glyph-name="Uring" unicode="&#x16e;" horiz-adv-x="1376" 
d="M162 543v876l155 29v-889q0 -198 101.5 -317t269.5 -119t269.5 119t101.5 317v860l155 29v-905q0 -253 -145.5 -410.5t-380.5 -157.5t-380.5 157.5t-145.5 410.5zM453 1806q0 94 68.5 160t166.5 66t167 -66t69 -160t-69 -159.5t-167 -65.5t-166.5 65.5t-68.5 159.5z
M811 1806q0 53 -35.5 88t-87.5 35q-54 0 -88.5 -34.5t-34.5 -88.5q0 -52 35 -87.5t88 -35.5q51 0 87 36t36 87z" />
    <glyph glyph-name="uring" unicode="&#x16f;" horiz-adv-x="1069" 
d="M768 889l143 26v-917h-135v111q-107 -129 -282 -129q-157 0 -255 101.5t-98 276.5v531l144 26v-544q0 -121 61.5 -188.5t167.5 -67.5q112 0 183 75.5t71 200.5v498zM291 1274q0 94 68.5 159.5t166.5 65.5t167 -65.5t69 -159.5t-69 -159.5t-167 -65.5t-166.5 65.5
t-68.5 159.5zM649 1274q0 53 -35.5 88t-87.5 35q-54 0 -88.5 -34.5t-34.5 -88.5q0 -52 35 -87.5t88 -35.5q51 0 87 36t36 87z" />
    <glyph glyph-name="Uhungarumlaut" unicode="&#x170;" horiz-adv-x="1376" 
d="M162 543v876l155 29v-889q0 -198 101.5 -317t269.5 -119t269.5 119t101.5 317v860l155 29v-905q0 -253 -145.5 -410.5t-380.5 -157.5t-380.5 157.5t-145.5 410.5zM438 1589l154 316h194l-206 -316h-142zM778 1589l154 316h194l-206 -316h-142z" />
    <glyph glyph-name="uhungarumlaut" unicode="&#x171;" horiz-adv-x="1069" 
d="M768 889l143 26v-917h-135v111q-107 -129 -282 -129q-157 0 -255 101.5t-98 276.5v531l144 26v-544q0 -121 61.5 -188.5t167.5 -67.5q112 0 183 75.5t71 200.5v498zM289 1085l153 328h183l-207 -328h-129zM616 1085l154 328h182l-207 -328h-129z" />
    <glyph glyph-name="Uogonek" unicode="&#x172;" horiz-adv-x="1376" 
d="M1059 1419l155 29v-905q0 -177 -70 -307.5t-204 -204.5q-63 -35 -97 -79t-34 -83q0 -33 22.5 -54.5t57.5 -21.5q27 0 51 8v-127q-52 -10 -80 -10q-81 0 -135.5 53.5t-54.5 130.5q0 69 43 127h-25q-235 0 -380.5 157.5t-145.5 410.5v876l155 29v-889q0 -198 101.5 -317
t269.5 -119t269.5 119t101.5 317v860z" />
    <glyph glyph-name="uogonek" unicode="&#x173;" horiz-adv-x="1069" 
d="M791 -154q0 -31 20.5 -50t52.5 -19q20 0 47 6v-117q-45 -10 -73 -10q-76 0 -126 49.5t-50 122.5q0 106 114 192v89q-107 -129 -282 -129q-157 0 -255 101.5t-98 276.5v531l144 26v-544q0 -121 61.5 -188.5t167.5 -67.5q112 0 183 75.5t71 200.5v498l143 26v-917
q-120 -77 -120 -152z" />
    <glyph glyph-name="Wcircumflex" unicode="&#x174;" horiz-adv-x="2031" 
d="M1980 1434l-505 -1485l-459 1130l-459 -1130l-506 1485h162l358 -1067l445 1091l444 -1091l359 1067h161zM1323 1665l-84 -88l-223 197l-223 -197l-84 88l307 285z" />
    <glyph glyph-name="wcircumflex" unicode="&#x175;" horiz-adv-x="1548" 
d="M1507 901l-415 -942l-318 674l-317 -674l-416 942h158l262 -625l313 666l313 -666l263 625h157zM1081 1149l-84 -88l-223 196l-223 -196l-84 88l307 285z" />
    <glyph glyph-name="Ycircumflex" unicode="&#x176;" horiz-adv-x="1191" 
d="M1126 1434l-452 -867v-567h-156v567l-452 867h172l358 -703l358 703h172zM903 1665l-84 -88l-223 197l-223 -197l-84 88l307 285z" />
    <glyph glyph-name="ycircumflex" unicode="&#x177;" horiz-adv-x="978" 
d="M788 901h160l-678 -1372h-159l303 596l-383 776h159l299 -627zM797 1149l-84 -88l-224 196l-223 -196l-84 88l307 285z" />
    <glyph glyph-name="Ydieresis" unicode="&#x178;" horiz-adv-x="1191" 
d="M1126 1434l-452 -867v-567h-156v567l-452 867h172l358 -703l358 703h172zM238 1741q0 47 32.5 79.5t79.5 32.5t80 -32.5t33 -79.5t-33 -80t-80 -33t-79.5 33t-32.5 80zM729 1741q0 47 33 79.5t80 32.5t79.5 -32.5t32.5 -79.5t-32.5 -80t-79.5 -33t-80 33t-33 80z" />
    <glyph glyph-name="Zacute" unicode="&#x179;" horiz-adv-x="1333" 
d="M1223 1434l-834 -1287h825l-28 -147h-1075l833 1286h-790l28 148h1041zM508 1597l-68 117l412 250l78 -129z" />
    <glyph glyph-name="zacute" unicode="&#x17a;" horiz-adv-x="972" 
d="M893 901l-555 -774h549l-25 -127h-782l555 774h-514l24 127h748zM330 1065l-68 117l412 250l78 -129z" />
    <glyph glyph-name="Zdotaccent" unicode="&#x17b;" horiz-adv-x="1333" 
d="M1223 1434l-834 -1287h825l-28 -147h-1075l833 1286h-790l28 148h1041zM563 1782q0 43 30 72.5t73 29.5t72.5 -29.5t29.5 -72.5t-29.5 -73t-72.5 -30t-73 30t-30 73z" />
    <glyph glyph-name="zdotaccent" unicode="&#x17c;" horiz-adv-x="972" 
d="M893 901l-555 -774h549l-25 -127h-782l555 774h-514l24 127h748zM385 1249q0 43 29.5 73t72.5 30t73 -30t30 -73t-30 -72.5t-73 -29.5t-72.5 29.5t-29.5 72.5z" />
    <glyph glyph-name="Zcaron" unicode="&#x17d;" horiz-adv-x="1333" 
d="M1223 1434l-834 -1287h825l-28 -147h-1075l833 1286h-790l28 148h1041zM889 1939l84 -88l-307 -284l-308 284l84 88l224 -196z" />
    <glyph glyph-name="zcaron" unicode="&#x17e;" horiz-adv-x="972" 
d="M893 901l-555 -774h549l-25 -127h-782l555 774h-514l24 127h748zM713 1436l84 -88l-308 -285l-307 285l84 88l223 -197z" />
    <glyph glyph-name="florin" unicode="&#x192;" horiz-adv-x="759" 
d="M444 1133l-45 -232h191v-131h-215l-150 -770h-143l149 770h-104v131h129l47 242q34 180 133.5 264t261.5 84v-133q-113 0 -171 -51t-83 -174z" />
    <glyph glyph-name="Scommaaccent" unicode="&#x218;" horiz-adv-x="1075" 
d="M98 137l35 170q82 -84 185 -134t206 -50q124 0 201.5 72.5t77.5 185.5q0 88 -54.5 155t-162.5 101l-94 31q-351 113 -351 413q0 160 115.5 268.5t288.5 108.5q193 0 362 -115l-30 -161q-176 129 -332 129q-108 0 -177 -65.5t-69 -164.5q0 -91 58.5 -154.5t189.5 -105.5
l94 -30q158 -50 240 -157t82 -251q0 -178 -123 -293t-316 -115q-234 0 -426 162zM367 -545l129 422h145l-145 -401z" />
    <glyph glyph-name="scommaaccent" unicode="&#x219;" horiz-adv-x="768" 
d="M90 74l25 131q138 -99 262 -99q70 0 111.5 38t41.5 104q0 51 -35.5 85t-129.5 64l-37 13q-104 35 -159.5 103.5t-55.5 160.5q0 105 77 176.5t195 71.5q116 0 246 -70l-27 -131q-121 74 -219 74q-63 0 -100 -32.5t-37 -86.5q0 -46 33 -78.5t116 -60.5l37 -13
q115 -37 175.5 -107.5t60.5 -168.5q0 -119 -81.5 -193.5t-211.5 -74.5q-148 0 -287 94zM219 -545l129 422h146l-146 -401z" />
    <glyph glyph-name="uni021A" unicode="&#x21a;" horiz-adv-x="1073" 
d="M1028 1286h-414v-1286h-155v1286h-414l29 148h925zM371 -545l129 422h145l-145 -401z" />
    <glyph glyph-name="uni021B" unicode="&#x21b;" horiz-adv-x="661" 
d="M590 770h-262v-512q0 -67 34.5 -104t96.5 -37q73 0 131 28v-133q-58 -28 -146 -28q-119 0 -189.5 71t-70.5 193v522h-133l25 131h108v199l144 86v-285h262v-131zM203 -545l129 422h145l-145 -401z" />
    <glyph glyph-name="dotlessj" unicode="&#x237;" horiz-adv-x="471" 
d="M-29 -483v135q93 5 143 64t50 167v1004l143 28v-1042q0 -164 -89 -258.5t-247 -97.5z" />
    <glyph glyph-name="circumflex" unicode="&#x2c6;" horiz-adv-x="819" 
d="M717 1149l-84 -88l-223 196l-224 -196l-84 88l308 285z" />
    <glyph glyph-name="caron" unicode="&#x2c7;" horiz-adv-x="819" 
d="M635 1436l84 -88l-307 -285l-308 285l84 88l224 -197z" />
    <glyph glyph-name="uni02C9" unicode="&#x2c9;" horiz-adv-x="1228" 
d="M225 1190v131h574v-131h-574z" />
    <glyph glyph-name="breve" unicode="&#x2d8;" horiz-adv-x="819" 
d="M102 1391h127q0 -77 52.5 -129t128.5 -52t128 52t52 129h127q0 -129 -88.5 -217.5t-218.5 -88.5t-219 88.5t-89 217.5z" />
    <glyph glyph-name="dotaccent" unicode="&#x2d9;" horiz-adv-x="819" 
d="M307 1249q0 43 30 73t73 30t72.5 -30t29.5 -73t-29.5 -72.5t-72.5 -29.5t-73 29.5t-30 72.5z" />
    <glyph glyph-name="ring" unicode="&#x2da;" horiz-adv-x="819" 
d="M174 1274q0 94 69 159.5t167 65.5t166.5 -65.5t68.5 -159.5t-68.5 -159.5t-166.5 -65.5t-167 65.5t-69 159.5zM532 1274q0 53 -35 88t-87 35q-54 0 -88.5 -34.5t-34.5 -88.5q0 -52 35 -87.5t88 -35.5q51 0 86.5 36t35.5 87z" />
    <glyph glyph-name="ogonek" unicode="&#x2db;" horiz-adv-x="819" 
d="M160 -170q0 143 205 248l45 -78q-121 -78 -121 -152q0 -31 20.5 -50t52.5 -19q21 0 48 6v-117q-45 -10 -74 -10q-76 0 -126 49.5t-50 122.5z" />
    <glyph glyph-name="tilde" unicode="&#x2dc;" horiz-adv-x="819" 
d="M381 1198q-33 18 -43.5 23.5t-28 11.5t-33.5 6q-37 0 -60 -26t-23 -64h-115q0 95 56 154t145 59q44 0 78 -13.5t81 -43.5q33 -18 43.5 -23.5t28 -11.5t33.5 -6q37 0 60.5 26t23.5 64h114q0 -95 -55.5 -154t-144.5 -59q-44 0 -78.5 13.5t-81.5 43.5z" />
    <glyph glyph-name="hungarumlaut" unicode="&#x2dd;" horiz-adv-x="819" 
d="M172 1085l154 328h182l-207 -328h-129zM500 1085l153 328h183l-207 -328h-129z" />
    <glyph glyph-name="gravecomb" unicode="&#x300;" 
d="M-334 1065l-422 238l78 129l412 -250z" />
    <glyph glyph-name="acutecomb" unicode="&#x301;" 
d="M-670 1065l-67 117l411 250l78 -129z" />
    <glyph glyph-name="circumflexcomb" unicode="&#x302;" 
d="M-205 1149l-84 -88l-223 196l-223 -196l-84 88l307 285z" />
    <glyph glyph-name="tildecomb" unicode="&#x303;" 
d="M-541 1198q-4 2 -13.5 7.5t-13 7.5t-11 6t-11 5.5t-9.5 4t-9.5 3.5t-8.5 3t-9 2.5t-9 1t-10 0.5q-37 0 -60.5 -26t-23.5 -64h-115q0 95 56 154t145 59q44 0 78.5 -13.5t81.5 -43.5q4 -2 13.5 -7.5t13 -7.5t11 -6t11 -5.5t9.5 -4t9.5 -3.5t8.5 -3t9 -2.5t9 -1t10 -0.5
q37 0 60.5 26t23.5 64h115q0 -95 -56 -154t-145 -59q-44 0 -78.5 13.5t-81.5 43.5z" />
    <glyph glyph-name="macroncomb" unicode="&#x304;" 
d="M-799 1190v131h574v-131h-574z" />
    <glyph glyph-name="brevecomb" unicode="&#x306;" 
d="M-819 1391h127q0 -77 52 -129t128 -52t128 52t52 129h127q0 -129 -88.5 -217.5t-218.5 -88.5t-218.5 88.5t-88.5 217.5z" />
    <glyph glyph-name="dotaccentcomb" unicode="&#x307;" 
d="M-614 1249q0 43 29.5 73t72.5 30t72.5 -30t29.5 -73t-29.5 -72.5t-72.5 -29.5t-72.5 29.5t-29.5 72.5z" />
    <glyph glyph-name="dieresiscomb" unicode="&#x308;" 
d="M-797 1231q0 41 29 69.5t70 28.5t69.5 -28.5t28.5 -69.5t-28.5 -69.5t-69.5 -28.5t-70 28.5t-29 69.5zM-424 1231q0 41 28.5 69.5t69.5 28.5t70 -28.5t29 -69.5t-29 -69.5t-70 -28.5t-69.5 28.5t-28.5 69.5z" />
    <glyph glyph-name="ringcomb" unicode="&#x30a;" 
d="M-748 1274q0 94 69 159.5t167 65.5t167 -65.5t69 -159.5t-69 -159.5t-167 -65.5t-167 65.5t-69 159.5zM-389 1274q0 53 -35.5 88t-87.5 35q-54 0 -88.5 -34.5t-34.5 -88.5q0 -52 35 -87.5t88 -35.5q51 0 87 36t36 87z" />
    <glyph glyph-name="hungarumlautcomb" unicode="&#x30b;" 
d="M-750 1085l154 328h182l-207 -328h-129zM-422 1085l154 328h182l-207 -328h-129z" />
    <glyph glyph-name="caroncomb" unicode="&#x30c;" 
d="M-287 1436l84 -88l-307 -285l-307 285l84 88l223 -197z" />
    <glyph glyph-name="commaturnedabovecomb" unicode="&#x312;" 
d="M-346 1446l-129 -422h-146l146 401z" />
    <glyph glyph-name="commaaccent" unicode="&#x326;" 
d="M-678 -545l129 422h146l-146 -401z" />
    <glyph glyph-name="cedillacomb" unicode="&#x327;" 
d="M-659 -369l-140 95l238 305h129z" />
    <glyph glyph-name="ogonekcomb" unicode="&#x328;" 
d="M-762 -170q0 143 205 248l45 -78q-121 -78 -121 -152q0 -31 21 -50t53 -19q20 0 47 6v-117q-45 -10 -74 -10q-76 0 -126 49.5t-50 122.5z" />
    <glyph glyph-name="uni0335" unicode="&#x335;" 
d="M-872 662v135h720v-135h-720z" />
    <glyph glyph-name="uni0336" unicode="&#x336;" 
d="M-1241 655v148h1458v-148h-1458z" />
    <glyph glyph-name="uni0337" unicode="&#x337;" 
d="M-721 524v158l418 268v-157z" />
    <glyph glyph-name="uni0338" unicode="&#x338;" 
d="M-856 -43l-98 86l788 901l98 -86z" />
    <glyph glyph-name="uni0394" unicode="&#x394;" horiz-adv-x="1380" 
d="M690 1485l649 -1485h-1298zM268 143h844l-422 987z" />
    <glyph glyph-name="uni03A9" unicode="&#x3a9;" horiz-adv-x="1609" 
d="M1069 158v-15h385v-143h-532v248q184 40 301.5 187.5t117.5 340.5q3 146 -69.5 272t-197.5 199t-269 70q-144 3 -269 -70t-198 -199t-70 -272q0 -193 118 -340.5t302 -187.5v-248h-532v143h385v15q-191 61 -310.5 238t-119.5 386q-3 134 52 260t149 217.5t224 146
t269 52.5q139 2 269 -52.5t224 -146t149 -217.5t52 -260q0 -209 -119.5 -386t-310.5 -238z" />
    <glyph glyph-name="uni03BC" unicode="&#x3bc;" horiz-adv-x="1085" 
d="M784 889l144 26v-917h-135v96q-91 -114 -254 -114q-150 0 -238 102v-553h-143v1360l143 26v-540q0 -119 66.5 -189.5t175.5 -70.5t175 70.5t66 189.5v514z" />
    <glyph glyph-name="pi" unicode="&#x3c0;" horiz-adv-x="1218" 
d="M1147 770h-262v-512q0 -67 34.5 -104t96.5 -37q73 0 131 28v-133q-58 -28 -146 -28q-119 0 -189.5 71t-70.5 193v522h-331v-770h-144v770h-215l27 131h1069v-131z" />
    <glyph glyph-name="Wgrave" unicode="&#x1e80;" horiz-adv-x="2031" 
d="M1980 1434l-505 -1485l-459 1130l-459 -1130l-506 1485h162l358 -1067l445 1091l444 -1091l359 1067h161zM1188 1585l-486 215l66 137l475 -229z" />
    <glyph glyph-name="wgrave" unicode="&#x1e81;" horiz-adv-x="1548" 
d="M1507 901l-415 -942l-318 674l-317 -674l-416 942h158l262 -625l313 666l313 -666l263 625h157zM952 1065l-422 238l78 129l412 -250z" />
    <glyph glyph-name="Wacute" unicode="&#x1e82;" horiz-adv-x="2031" 
d="M1980 1434l-505 -1485l-459 1130l-459 -1130l-506 1485h162l358 -1067l445 1091l444 -1091l359 1067h161zM844 1585l-56 123l476 229l65 -137z" />
    <glyph glyph-name="wacute" unicode="&#x1e83;" horiz-adv-x="1548" 
d="M1507 901l-415 -942l-318 674l-317 -674l-416 942h158l262 -625l313 666l313 -666l263 625h157zM616 1065l-67 117l412 250l77 -129z" />
    <glyph glyph-name="Wdieresis" unicode="&#x1e84;" horiz-adv-x="2031" 
d="M1980 1434l-505 -1485l-459 1130l-459 -1130l-506 1485h162l358 -1067l445 1091l444 -1091l359 1067h161zM657 1741q0 47 33 79.5t80 32.5t80 -32.5t33 -79.5t-33 -80t-80 -33t-80 33t-33 80zM1149 1741q0 47 33 79.5t80 32.5t79.5 -32.5t32.5 -79.5t-32.5 -80t-79.5 -33
t-80 33t-33 80z" />
    <glyph glyph-name="wdieresis" unicode="&#x1e85;" horiz-adv-x="1548" 
d="M1507 901l-415 -942l-318 674l-317 -674l-416 942h158l262 -625l313 666l313 -666l263 625h157zM489 1231q0 41 29 69.5t70 28.5t69.5 -28.5t28.5 -69.5t-28.5 -69.5t-69.5 -28.5t-70 28.5t-29 69.5zM862 1231q0 41 29 69.5t70 28.5t69.5 -28.5t28.5 -69.5t-28.5 -69.5
t-69.5 -28.5t-70 28.5t-29 69.5z" />
    <glyph glyph-name="Germandbls" unicode="&#x1e9e;" horiz-adv-x="2109" 
d="M98 137l35 170q82 -84 185 -134t206 -50q124 0 201.5 72.5t77.5 185.5q0 88 -54.5 155t-162.5 101l-94 31q-351 113 -351 413q0 160 115.5 268.5t288.5 108.5q193 0 362 -115l-30 -161q-176 129 -332 129q-108 0 -177 -65.5t-69 -164.5q0 -91 58.5 -154.5t189.5 -105.5
l94 -30q158 -50 240 -157t82 -251q0 -178 -123 -293t-316 -115q-234 0 -426 162zM1133 137l34 170q82 -84 185.5 -134t206.5 -50q124 0 201 72.5t77 185.5q0 88 -54.5 155t-162.5 101l-94 31q-350 113 -350 413q0 160 115 268.5t288 108.5q91 0 186.5 -30t176.5 -85
l-31 -161q-175 129 -332 129q-108 0 -177 -65.5t-69 -164.5q0 -91 58.5 -154.5t189.5 -105.5l94 -30q158 -50 240 -157t82 -251q0 -178 -122.5 -293t-315.5 -115q-234 0 -426 162z" />
    <glyph glyph-name="Ygrave" unicode="&#x1ef2;" horiz-adv-x="1191" 
d="M1126 1434l-452 -867v-567h-156v567l-452 867h172l358 -703l358 703h172zM768 1585l-485 215l65 137l475 -229z" />
    <glyph glyph-name="ygrave" unicode="&#x1ef3;" horiz-adv-x="978" 
d="M788 901h160l-678 -1372h-159l303 596l-383 776h159l299 -627zM668 1065l-422 238l78 129l411 -250z" />
    <glyph glyph-name="uni2011" unicode="&#x2011;" horiz-adv-x="675" 
d="M113 408v127h450v-127h-450z" />
    <glyph glyph-name="endash" unicode="&#x2013;" horiz-adv-x="1024" 
d="M82 410v122h860v-122h-860z" />
    <glyph glyph-name="emdash" unicode="&#x2014;" horiz-adv-x="1843" 
d="M82 410v122h1679v-122h-1679z" />
    <glyph glyph-name="quoteleft" unicode="&#x2018;" horiz-adv-x="489" 
d="M418 1444l-182 -570h-164l200 545z" />
    <glyph glyph-name="quoteright" unicode="&#x2019;" horiz-adv-x="489" 
d="M72 864l182 570h164l-201 -545z" />
    <glyph glyph-name="quotesinglbase" unicode="&#x201a;" horiz-adv-x="489" 
d="M41 -315l182 569h164l-201 -545z" />
    <glyph glyph-name="quotedblleft" unicode="&#x201c;" horiz-adv-x="817" 
d="M418 1444l-182 -570h-164l200 545zM745 1444l-182 -570h-164l201 545z" />
    <glyph glyph-name="quotedblright" unicode="&#x201d;" horiz-adv-x="817" 
d="M72 864l182 570h164l-201 -545zM399 864l183 570h163l-200 -545z" />
    <glyph glyph-name="quotedblbase" unicode="&#x201e;" horiz-adv-x="817" 
d="M41 -315l182 569h164l-201 -545zM369 -315l182 569h164l-201 -545z" />
    <glyph glyph-name="dagger" unicode="&#x2020;" horiz-adv-x="843" 
d="M737 1151v-131h-243v-733h-144v733h-244v131h244v283h144v-283h243z" />
    <glyph glyph-name="daggerdbl" unicode="&#x2021;" horiz-adv-x="843" 
d="M737 1020h-243v-299h243v-131h-243v-303h-144v303h-244v131h244v299h-244v131h244v283h144v-283h243v-131z" />
    <glyph glyph-name="bullet" unicode="&#x2022;" horiz-adv-x="770" 
d="M139 471q0 100 71 173t175 73q98 0 172 -74t74 -172t-74 -172t-172 -74q-104 0 -175 73t-71 173z" />
    <glyph glyph-name="ellipsis" unicode="&#x2026;" horiz-adv-x="1511" 
d="M139 106q0 52 35.5 87.5t89.5 35.5t89.5 -35.5t35.5 -87.5q0 -51 -35.5 -86.5t-89.5 -35.5t-89.5 35.5t-35.5 86.5zM631 106q0 52 35.5 87.5t89.5 35.5t89.5 -35.5t35.5 -87.5q0 -51 -35.5 -86.5t-89.5 -35.5t-89.5 35.5t-35.5 86.5zM1122 106q0 52 36 87.5t89 35.5
t89 -35.5t36 -87.5q0 -51 -35.5 -86.5t-89.5 -35.5t-89.5 35.5t-35.5 86.5z" />
    <glyph glyph-name="perthousand" unicode="&#x2030;" horiz-adv-x="2476" 
d="M348 -16l-92 73l1126 1393l93 -74zM979 373q0 168 83.5 276.5t221.5 108.5q140 0 223.5 -107.5t83.5 -277.5t-83.5 -277.5t-223.5 -107.5q-138 0 -221.5 108.5t-83.5 276.5zM1462 373q0 120 -47.5 193t-130.5 73q-81 0 -128.5 -73t-47.5 -193t47.5 -193.5t128.5 -73.5
q83 0 130.5 73t47.5 194zM150 1059q0 168 83.5 276.5t221.5 108.5q140 0 223.5 -107.5t83.5 -277.5t-83.5 -277.5t-223.5 -107.5q-138 0 -221.5 108.5t-83.5 276.5zM633 1059q0 120 -47.5 193t-130.5 73q-81 0 -128.5 -73t-47.5 -193t47.5 -193t128.5 -73q83 0 130.5 73
t47.5 193zM1714 373q0 168 83.5 276.5t221.5 108.5q140 0 224 -107.5t84 -277.5t-84 -277.5t-224 -107.5q-138 0 -221.5 108.5t-83.5 276.5zM2198 373q0 120 -47.5 193t-131.5 73q-81 0 -128.5 -73t-47.5 -193t47.5 -193.5t128.5 -73.5q83 0 131 73.5t48 193.5z" />
    <glyph glyph-name="guilsinglleft" unicode="&#x2039;" horiz-adv-x="641" 
d="M508 799l-238 -342l238 -342l-113 -78l-289 420l289 420z" />
    <glyph glyph-name="guilsinglright" unicode="&#x203a;" horiz-adv-x="641" 
d="M246 877l289 -420l-289 -420l-113 78l238 342l-238 342z" />
    <glyph glyph-name="fraction" unicode="&#x2044;" horiz-adv-x="399" 
d="M-317 -16l-93 73l1127 1393l92 -74z" />
    <glyph glyph-name="zero.superior" unicode="&#x2070;" horiz-adv-x="722" 
d="M55 1264q0 168 83.5 276.5t221.5 108.5q140 0 224 -107.5t84 -277.5t-84 -277.5t-224 -107.5q-138 0 -221.5 108.5t-83.5 276.5zM539 1264q0 120 -47.5 193t-131.5 73q-81 0 -128.5 -73t-47.5 -193t47.5 -193.5t128.5 -73.5q83 0 131 73.5t48 193.5z" />
    <glyph glyph-name="four.superior" unicode="&#x2074;" horiz-adv-x="643" 
d="M590 1159v-104h-88v-164h-121v164h-383l504 633v-529h88zM223 1159h158v201z" />
    <glyph glyph-name="five.superior" unicode="&#x2075;" horiz-adv-x="618" 
d="M563 1122q0 -104 -76.5 -173.5t-201.5 -69.5q-141 0 -236 82l23 110q39 -36 94 -59t108 -23q73 0 117.5 39t44.5 100q0 59 -45.5 98.5t-122.5 39.5q-95 0 -184 -47l22 417h426l-16 -112h-299l-16 -181q49 21 106 21q110 0 183 -69.5t73 -172.5z" />
    <glyph glyph-name="six.superior" unicode="&#x2076;" horiz-adv-x="653" 
d="M602 1135q0 -106 -80 -181t-194 -75q-119 0 -198 79t-79 197q0 146 109 284.5t284 215.5l66 -101q-201 -86 -295 -225q62 45 145 45q102 0 172 -69.5t70 -169.5zM477 1137q0 62 -42.5 102.5t-108.5 40.5t-109 -40.5t-43 -102.5t43 -103t109 -41t108.5 41t42.5 103z" />
    <glyph glyph-name="seven.superior" unicode="&#x2077;" horiz-adv-x="593" 
d="M49 1636h531l-306 -745h-137l262 622h-368z" />
    <glyph glyph-name="eight.superior" unicode="&#x2078;" horiz-adv-x="618" 
d="M571 1094q0 -93 -74.5 -154t-187.5 -61t-187.5 61t-74.5 154q0 118 127 180q-54 25 -84.5 70t-30.5 100q0 88 72 146.5t178 58.5t178 -58.5t72 -146.5q0 -55 -30.5 -100t-84.5 -70q127 -62 127 -180zM180 1432q0 -47 37.5 -79t93.5 -32q55 0 92 32t37 79q0 49 -36.5 81.5
t-92.5 32.5t-93.5 -32.5t-37.5 -81.5zM449 1104q0 51 -40 86t-100 35t-99.5 -35t-39.5 -86t39.5 -86t99.5 -35t100 35t40 86z" />
    <glyph glyph-name="nine.superior" unicode="&#x2079;" horiz-adv-x="653" 
d="M602 1372q0 -146 -109 -284.5t-284 -215.5l-66 101q201 86 295 225q-62 -45 -145 -45q-102 0 -172 70t-70 170q0 106 80.5 181t194.5 75q118 0 197 -79t79 -198zM328 1247q66 0 108.5 41t42.5 103t-42.5 102.5t-108.5 40.5t-109 -40.5t-43 -102.5t43 -103t109 -41z" />
    <glyph glyph-name="uni207A" unicode="&#x207a;" horiz-adv-x="624" 
d="M573 1300v-106h-204v-211h-113v211h-205v106h205v211h113v-211h204z" />
    <glyph glyph-name="uni207B" unicode="&#x207b;" horiz-adv-x="626" 
d="M51 1194v106h524v-106h-524z" />
    <glyph glyph-name="uni207C" unicode="&#x207c;" horiz-adv-x="600" 
d="M61 1288v92h478v-92h-478zM61 1083v95h478v-95h-478z" />
    <glyph glyph-name="uni207D" unicode="&#x207d;" horiz-adv-x="493" 
d="M106 1264q0 140 70 261t195 201l57 -88q-103 -66 -159 -163.5t-56 -210.5t56 -211t159 -164l-57 -88q-125 80 -195 201.5t-70 261.5z" />
    <glyph glyph-name="uni207E" unicode="&#x207e;" horiz-adv-x="493" 
d="M123 801l-57 88q103 66 159 164t56 211t-56 210.5t-159 163.5l57 88q125 -80 194.5 -201t69.5 -261t-69.5 -261.5t-194.5 -201.5z" />
    <glyph glyph-name="zero.inferior" unicode="&#x2080;" horiz-adv-x="722" 
d="M55 168q0 168 83.5 276.5t221.5 108.5q140 0 224 -107.5t84 -277.5t-84 -277.5t-224 -107.5q-138 0 -221.5 108.5t-83.5 276.5zM539 168q0 120 -47.5 193t-131.5 73q-81 0 -128.5 -73t-47.5 -193t47.5 -193t128.5 -73q84 0 131.5 73t47.5 193z" />
    <glyph glyph-name="one.inferior" unicode="&#x2081;" horiz-adv-x="401" 
d="M25 418l290 141v-764h-129v576l-143 -70z" />
    <glyph glyph-name="two.inferior" unicode="&#x2082;" horiz-adv-x="641" 
d="M387 -4l-82 -84h262l-20 -117h-502l256 273q64 70 87.5 97.5t42 63.5t18.5 72q0 57 -40 95t-100 38t-98.5 -36t-38.5 -93q0 -37 21 -78l-125 -14q-21 65 -21 100q0 100 76.5 170t185.5 70q111 0 187.5 -71.5t76.5 -176.5q0 -78 -39 -138t-147 -171z" />
    <glyph glyph-name="three.inferior" unicode="&#x2083;" horiz-adv-x="612" 
d="M557 33q0 -108 -83 -179t-204 -71q-138 0 -231 90l47 100q32 -35 80.5 -56t99.5 -21q70 0 116 40.5t46 100.5q0 61 -47.5 100t-122.5 39q-54 0 -100 -14l180 266h-275l17 113h465l-197 -279q92 -9 150.5 -73.5t58.5 -155.5z" />
    <glyph glyph-name="four.inferior" unicode="&#x2084;" horiz-adv-x="643" 
d="M590 63v-104h-88v-164h-121v164h-383l504 633v-529h88zM223 63h158v201z" />
    <glyph glyph-name="five.inferior" unicode="&#x2085;" horiz-adv-x="618" 
d="M563 27q0 -104 -76.5 -174t-201.5 -70q-141 0 -236 82l23 110q39 -36 94 -58.5t108 -22.5q73 0 117.5 39t44.5 100q0 59 -45.5 98t-122.5 39q-95 0 -184 -47l22 418h426l-16 -113h-299l-16 -180q47 20 106 20q110 0 183 -69t73 -172z" />
    <glyph glyph-name="six.inferior" unicode="&#x2086;" horiz-adv-x="653" 
d="M602 39q0 -106 -80 -181t-194 -75q-119 0 -198 79t-79 197q0 146 109 284.5t284 215.5l66 -100q-91 -39 -169.5 -97.5t-125.5 -128.5q64 46 145 46q102 0 172 -70t70 -170zM477 41q0 62 -42.5 102.5t-108.5 40.5t-109 -40.5t-43 -102.5t43 -102.5t109 -40.5t108.5 40.5
t42.5 102.5z" />
    <glyph glyph-name="seven.inferior" unicode="&#x2087;" horiz-adv-x="593" 
d="M49 541h531l-306 -746h-137l262 623h-368z" />
    <glyph glyph-name="eight.inferior" unicode="&#x2088;" horiz-adv-x="618" 
d="M571 -2q0 -93 -74.5 -154t-187.5 -61t-187.5 61t-74.5 154q0 118 127 180q-54 25 -84.5 70t-30.5 100q0 88 72 146.5t178 58.5t178 -58.5t72 -146.5q0 -55 -30.5 -100t-84.5 -70q127 -62 127 -180zM180 336q0 -47 37.5 -79t93.5 -32q55 0 92 32t37 79q0 49 -36.5 82
t-92.5 33t-93.5 -33t-37.5 -82zM449 8q0 51 -40 86t-100 35t-99.5 -35t-39.5 -86t39.5 -86t99.5 -35t100 35t40 86z" />
    <glyph glyph-name="nine.inferior" unicode="&#x2089;" horiz-adv-x="653" 
d="M602 276q0 -146 -109 -284t-284 -215l-66 100q201 86 295 225q-62 -45 -145 -45q-102 0 -172 70t-70 170q0 106 80.5 181t194.5 75q118 0 197 -79t79 -198zM328 152q66 0 108.5 40.5t42.5 102.5t-42.5 102.5t-108.5 40.5t-109 -40.5t-43 -102.5t43 -102.5t109 -40.5z" />
    <glyph glyph-name="uni208A" unicode="&#x208a;" horiz-adv-x="624" 
d="M573 205v-107h-204v-211h-113v211h-205v107h205v211h113v-211h204z" />
    <glyph glyph-name="uni208B" unicode="&#x208b;" horiz-adv-x="626" 
d="M51 98v107h524v-107h-524z" />
    <glyph glyph-name="uni208C" unicode="&#x208c;" horiz-adv-x="600" 
d="M61 193v92h478v-92h-478zM61 -12v94h478v-94h-478z" />
    <glyph glyph-name="uni208D" unicode="&#x208d;" horiz-adv-x="493" 
d="M106 168q0 140 70 261.5t195 201.5l57 -88q-103 -66 -159 -164t-56 -211t56 -211t159 -164l-57 -88q-125 80 -195 201.5t-70 261.5z" />
    <glyph glyph-name="uni208E" unicode="&#x208e;" horiz-adv-x="493" 
d="M123 -295l-57 88q103 66 159 164t56 211t-56 211t-159 164l57 88q125 -80 194.5 -201.5t69.5 -261.5t-69.5 -261.5t-194.5 -201.5z" />
    <glyph glyph-name="Euro" unicode="&#x20ac;" horiz-adv-x="1476" 
d="M1300 238l31 -158q-185 -105 -393 -105q-252 0 -451.5 146.5t-267.5 376.5h-166l25 131h112q-4 78 -4 88q0 40 7 98h-140l25 131h143q71 227 269.5 369.5t451.5 142.5q195 0 371 -92l-31 -158q-153 103 -344 103q-180 0 -329 -101t-214 -264h836l-25 -131h-848
q-8 -39 -8 -98q0 -45 6 -88h813l-24 -131h-754q62 -167 212.5 -271t334.5 -104q186 0 362 115z" />
    <glyph glyph-name="uni20B9" unicode="&#x20b9;" horiz-adv-x="1017" 
d="M786 1065h191l-29 -147h-153q-15 -144 -126 -244t-274 -119l459 -555h-201l-549 676h189q139 0 226 65t108 177h-555l28 147h525q-25 104 -111 162.5t-221 58.5h-221l28 148h877l-29 -148h-307q110 -85 145 -221z" />
    <glyph glyph-name="uni20BA" unicode="&#x20ba;" horiz-adv-x="1320" 
d="M1057 717h164q2 -148 -56.5 -282t-159 -230t-240.5 -151.5t-294 -53.5h-94v592l-254 -109v154l254 108v154l-254 -108v153l254 109v381h155v-314l429 185v-154l-429 -184v-154l429 184v-153l-429 -185v-509q226 22 375.5 182.5t149.5 384.5z" />
    <glyph glyph-name="uni2113" unicode="&#x2113;" horiz-adv-x="772" 
d="M469 123q71 0 131 29v-134q-58 -28 -145 -28q-119 0 -189.5 71t-70.5 193v192q-63 -34 -121 -61l-49 115q92 42 170 98v604q0 112 65.5 182t169.5 70q103 0 169.5 -71t66.5 -207q0 -154 -91 -328q-88 -169 -237 -297v-287q0 -67 34.5 -104t96.5 -37zM338 1202v-469
q88 100 136 215.5t48 225.5q0 75 -24.5 112t-67.5 37q-41 0 -66.5 -33.5t-25.5 -87.5z" />
    <glyph glyph-name="uni2117" unicode="&#x2117;" horiz-adv-x="1716" 
d="M1595 717q3 -148 -56 -285.5t-159 -237.5t-237.5 -158.5t-284.5 -55.5q-148 -3 -285.5 55.5t-237.5 158.5t-158.5 237.5t-55.5 285.5q-3 147 55.5 284.5t158.5 237.5t237.5 159t285.5 56q147 3 285 -56t237.5 -158.5t158.5 -237.5t56 -285zM1473 717q2 123 -47 237.5
t-132.5 197.5t-198 132t-237.5 47q-164 3 -307.5 -80.5t-227 -226.5t-79.5 -307q-3 -123 46 -238t132.5 -198.5t198 -132.5t237.5 -46q123 -3 237.5 46t198 132.5t132.5 198.5t47 238zM1204 829q0 -122 -87.5 -200t-229.5 -78h-111v-244h-131v801h242q141 0 229 -78.5
t88 -200.5zM1069 829q0 73 -49 117.5t-135 44.5h-109v-325h109q85 0 134.5 45t49.5 118z" />
    <glyph glyph-name="trademark" unicode="&#x2122;" horiz-adv-x="1730" 
d="M1618 666l-141 -2l-74 411l-234 -407l-229 407l-74 -411h-141l149 790l297 -514l297 514zM629 1434l26 -136h-235v-634h-148v634h-235l26 136h566z" />
    <glyph glyph-name="Omega" unicode="&#x2126;" horiz-adv-x="1609" 
d="M1069 158v-15h385v-143h-532v248q184 40 301.5 187.5t117.5 340.5q3 146 -69.5 272t-197.5 199t-269 70q-144 3 -269 -70t-198 -199t-70 -272q0 -193 118 -340.5t302 -187.5v-248h-532v143h385v15q-191 61 -310.5 238t-119.5 386q-3 134 52 260t149 217.5t224 146
t269 52.5q139 2 269 -52.5t224 -146t149 -217.5t52 -260q0 -209 -119.5 -386t-310.5 -238z" />
    <glyph glyph-name="estimated" unicode="&#x212e;" horiz-adv-x="1669" 
d="M121 608q-2 126 49.5 246t143 212t228 147t292.5 53q152 1 274.5 -36t203.5 -99.5t135.5 -149t78 -180.5t22.5 -197h-1157q-8 0 -8 -8v-330q0 -38 12 -53q74 -89 186 -136.5t250 -47.5q136 0 247 49.5t218 150.5h127q-111 -133 -242 -190t-345 -57q-161 -2 -297.5 48
t-228 136.5t-141.5 201t-48 240.5zM391 643h885q10 0 10 10v336q0 24 -20 47q-82 93 -200 140t-239 47q-204 0 -428 -183q-16 -16 -16 -51v-336q0 -10 8 -10z" />
    <glyph glyph-name="uni2153" unicode="&#x2153;" horiz-adv-x="1615" 
d="M106 1309l291 141v-764h-129v576l-143 -70zM213 -16l-92 73l1126 1393l92 -74zM1479 238q0 -108 -83 -179t-204 -71q-138 0 -231 90l47 100q33 -36 81 -57t99 -21q70 0 116 41t46 101q0 61 -47.5 100t-122.5 39q-55 0 -101 -14l181 266h-275l16 112h465l-196 -278
q92 -9 150.5 -73.5t58.5 -155.5z" />
    <glyph glyph-name="uni2154" unicode="&#x2154;" horiz-adv-x="1781" 
d="M469 887l-82 -84h262l-20 -117h-502l256 272q89 96 118 139.5t29 94.5q0 57 -39.5 95t-99.5 38t-98.5 -36t-38.5 -93q0 -39 20 -78l-124 -14q-21 65 -21 100q0 100 76.5 170t185.5 70q111 0 187.5 -71.5t76.5 -176.5q0 -78 -39 -138t-147 -171zM406 -16l-93 73l1127 1393
l92 -74zM1645 238q0 -108 -83 -179t-204 -71q-139 0 -232 90l48 100q33 -36 81 -57t99 -21q70 0 116 41t46 101q0 61 -47.5 100t-122.5 39q-55 0 -101 -14l180 266h-274l16 112h465l-196 -278q92 -9 150.5 -73.5t58.5 -155.5z" />
    <glyph glyph-name="oneeighth" unicode="&#x215b;" horiz-adv-x="1603" 
d="M106 1309l291 141v-764h-129v576l-143 -70zM207 -16l-92 73l1126 1393l92 -74zM1475 203q0 -93 -75 -154t-188 -61t-187.5 61t-74.5 154q0 118 127 180q-54 25 -84 69.5t-30 100.5q0 88 71.5 146.5t177.5 58.5t178 -58.5t72 -146.5q0 -56 -30 -100.5t-84 -69.5
q127 -62 127 -180zM1083 541q0 -47 37.5 -79t93.5 -32q55 0 92 32t37 79q0 49 -36.5 81.5t-92.5 32.5t-93.5 -32.5t-37.5 -81.5zM1352 213q0 51 -40 86t-100 35t-99.5 -35t-39.5 -86t39.5 -86t99.5 -35t100 35t40 86z" />
    <glyph glyph-name="threeeighths" unicode="&#x215c;" horiz-adv-x="1742" 
d="M639 924q0 -108 -83 -179t-204 -71q-138 0 -231 90l47 100q33 -36 81 -57t99 -21q70 0 116 41t46 101q0 61 -47.5 100t-122.5 39q-54 0 -100 -14l180 266h-275l17 113h465l-197 -279q92 -9 150.5 -73.5t58.5 -155.5zM346 -16l-92 73l1126 1393l93 -74zM1614 203
q0 -93 -74.5 -154t-187.5 -61t-187.5 61t-74.5 154q0 118 127 180q-54 25 -84.5 70t-30.5 100q0 88 72 146.5t178 58.5t178 -58.5t72 -146.5q0 -55 -30.5 -100t-84.5 -70q127 -62 127 -180zM1223 541q0 -47 37.5 -79t93.5 -32q55 0 92 32t37 79q0 49 -36.5 81.5t-92.5 32.5
t-93.5 -32.5t-37.5 -81.5zM1491 213q0 51 -39.5 86t-99.5 35t-100 -35t-40 -86t40 -86t100 -35t99.5 35t39.5 86z" />
    <glyph glyph-name="fiveeighths" unicode="&#x215d;" horiz-adv-x="1759" 
d="M645 918q0 -104 -76.5 -174t-201.5 -70q-141 0 -236 82l23 110q39 -36 94 -59t108 -23q73 0 117.5 39.5t44.5 100.5q0 59 -45.5 98t-122.5 39q-95 0 -184 -47l22 418h426l-16 -113h-299l-16 -180q47 20 106 20q110 0 183 -69t73 -172zM362 -16l-92 73l1127 1393l92 -74z
M1630 203q0 -93 -74.5 -154t-187.5 -61t-187.5 61t-74.5 154q0 118 127 180q-54 25 -84.5 70t-30.5 100q0 88 72 146.5t178 58.5t178 -58.5t72 -146.5q0 -55 -30.5 -100t-84.5 -70q127 -62 127 -180zM1239 541q0 -47 37.5 -79t93.5 -32q55 0 92 32t37 79q0 49 -36.5 81.5
t-92.5 32.5t-93.5 -32.5t-37.5 -81.5zM1507 213q0 51 -39.5 86t-99.5 35t-99.5 -35t-39.5 -86t39.5 -86t99.5 -35t99.5 35t39.5 86z" />
    <glyph glyph-name="seveneighths" unicode="&#x215e;" horiz-adv-x="1654" 
d="M131 1432h531l-306 -746h-137l262 623h-368zM264 -16l-92 73l1126 1393l93 -74zM1526 203q0 -93 -74.5 -154t-187.5 -61t-188 61t-75 154q0 118 127 180q-54 25 -84 69.5t-30 100.5q0 88 72 146.5t178 58.5t177.5 -58.5t71.5 -146.5q0 -56 -30 -100.5t-84 -69.5
q127 -62 127 -180zM1135 541q0 -47 37.5 -79t93.5 -32q55 0 92 32t37 79q0 49 -36.5 81.5t-92.5 32.5t-93.5 -32.5t-37.5 -81.5zM1403 213q0 51 -39.5 86t-99.5 35t-100 -35t-40 -86t40 -86t100 -35t99.5 35t39.5 86z" />
    <glyph glyph-name="arrowleft" unicode="&#x2190;" horiz-adv-x="1228" 
d="M573 246l-471 473l471 469l82 -82l-331 -330h782v-114h-782l331 -334z" />
    <glyph glyph-name="arrowup" unicode="&#x2191;" horiz-adv-x="1228" 
d="M143 758l473 471l469 -471l-81 -82l-330 332v-783h-115v783l-334 -332z" />
    <glyph glyph-name="arrowright" unicode="&#x2192;" horiz-adv-x="1228" 
d="M655 246l-82 82l332 334h-782v114h782l-332 330l82 82l471 -469z" />
    <glyph glyph-name="arrowdown" unicode="&#x2193;" horiz-adv-x="1228" 
d="M143 676l82 82l334 -332v782h115v-782l330 332l81 -82l-469 -471z" />
    <glyph glyph-name="uni2196" unicode="&#x2196;" horiz-adv-x="1228" 
d="M254 412v667l666 -2v-114h-469l555 -553l-82 -80l-553 553l-2 -471h-115z" />
    <glyph glyph-name="uni2197" unicode="&#x2197;" horiz-adv-x="1228" 
d="M975 412h-115l-2 471l-553 -553l-82 80l555 553h-469v114l666 2v-667z" />
    <glyph glyph-name="uni2198" unicode="&#x2198;" horiz-adv-x="1228" 
d="M975 983v-668l-666 2v115h469l-555 553l82 80l553 -553l2 471h115z" />
    <glyph glyph-name="uni2199" unicode="&#x2199;" horiz-adv-x="1228" 
d="M254 983h115l2 -471l553 553l82 -80l-555 -553h469v-115l-666 -2v668z" />
    <glyph glyph-name="partialdiff" unicode="&#x2202;" horiz-adv-x="1282" 
d="M1130 700q0 -182 -40.5 -322t-112.5 -225.5t-166 -129t-205 -43.5q-206 0 -344.5 136.5t-138.5 332.5t136.5 329t336.5 133q215 0 375 -157q-9 258 -108 407.5t-279 149.5q-172 0 -377 -152l-29 154q195 145 404 145q258 0 403 -203.5t145 -554.5zM967 584
q-154 184 -361 184q-140 0 -230.5 -91t-90.5 -226q0 -137 91 -230.5t232 -93.5q152 0 245.5 114.5t113.5 342.5z" />
    <glyph glyph-name="increment" unicode="&#x2206;" horiz-adv-x="1380" 
d="M690 1485l649 -1485h-1298zM268 143h844l-422 987z" />
    <glyph glyph-name="product" unicode="&#x220f;" horiz-adv-x="1525" 
d="M178 -512v1946h1170v-1946h-156v1798h-858v-1798h-156z" />
    <glyph glyph-name="summation" unicode="&#x2211;" horiz-adv-x="1216" 
d="M1110 1434v-148h-815l602 -805l-602 -805h815v-147h-1004v133l601 819l-601 819v134h1004z" />
    <glyph glyph-name="minus" unicode="&#x2212;" horiz-adv-x="1032" 
d="M86 608v135h860v-135h-860z" />
    <glyph glyph-name="uni2215" unicode="&#x2215;" horiz-adv-x="1155" 
d="M45 0l907 1434h158l-907 -1434h-158z" />
    <glyph glyph-name="uni2219" unicode="&#x2219;" horiz-adv-x="540" 
d="M147 676q0 53 35.5 88t87.5 35q54 0 88.5 -34.5t34.5 -88.5q0 -52 -35 -87.5t-88 -35.5q-51 0 -87 36t-36 87z" />
    <glyph glyph-name="radical" unicode="&#x221a;" horiz-adv-x="1202" 
d="M999 1434h162l-452 -1434h-136l-325 655l-144 -71l-69 133l284 141l306 -631z" />
    <glyph glyph-name="infinity" unicode="&#x221e;" horiz-adv-x="1691" 
d="M1606 655q0 -138 -99 -230.5t-247 -92.5q-117 0 -210.5 57t-203.5 172q-110 -115 -203.5 -172t-210.5 -57q-148 0 -247 92.5t-99 230.5t99.5 231t248.5 93q62 0 116.5 -16t106 -50t93 -70t96.5 -93q110 115 203.5 172t210.5 57q148 0 247 -93t99 -231zM758 655
q-97 104 -169.5 150.5t-154.5 46.5q-90 0 -150.5 -56.5t-60.5 -140.5t60.5 -140t150.5 -56q82 0 154.5 46.5t169.5 149.5zM1468 655q0 84 -60.5 140.5t-150.5 56.5q-79 0 -151 -47t-172 -150q107 -107 173.5 -151.5t152.5 -44.5q89 0 148.5 55.5t59.5 140.5z" />
    <glyph glyph-name="integral" unicode="&#x222b;" horiz-adv-x="632" 
d="M41 -483v135q93 5 142.5 64t49.5 167v1264q0 164 88.5 254t247.5 90h23v-135h-23q-93 0 -142.5 -55.5t-49.5 -163.5v-1264q0 -164 -89 -258.5t-247 -97.5z" />
    <glyph glyph-name="approxequal" unicode="&#x2248;" horiz-adv-x="1019" 
d="M334 965q53 0 99.5 -16t115.5 -52q44 -21 61.5 -29t38.5 -14t41 -6q52 0 88.5 31.5t40.5 85.5h115q-6 -105 -73 -171.5t-175 -66.5q-53 0 -99.5 16t-115.5 52q-44 21 -61.5 29t-38.5 14t-41 6q-52 0 -88.5 -31.5t-40.5 -85.5h-115q6 105 73 171.5t175 66.5zM334 584
q53 0 99.5 -16t115.5 -52q44 -21 61.5 -29t38.5 -14t41 -6q52 0 88.5 31.5t40.5 85.5h115q-6 -105 -73 -171.5t-175 -66.5q-53 0 -99.5 16t-115.5 52q-44 21 -61.5 29t-38.5 14t-41 6q-52 0 -88.5 -31.5t-40.5 -85.5h-115q6 105 73 171.5t175 66.5z" />
    <glyph glyph-name="notequal" unicode="&#x2260;" horiz-adv-x="1019" 
d="M934 778h-285l-119 -246h404v-135h-469l-105 -215l-131 58l76 157h-219v135h285l118 246h-403v135h469l104 215l132 -57l-76 -158h219v-135z" />
    <glyph glyph-name="lessequal" unicode="&#x2264;" horiz-adv-x="978" 
d="M883 1108v-158l-609 -295l609 -295v-157l-807 407v90zM76 0v135h807v-135h-807z" />
    <glyph glyph-name="greaterequal" unicode="&#x2265;" horiz-adv-x="978" 
d="M96 1108l807 -408v-90l-807 -407v157l609 295l-609 295v158zM96 0v135h807v-135h-807z" />
    <glyph glyph-name="uni2460" unicode="&#x2460;" horiz-adv-x="1716" 
d="M1595 717q3 -148 -56 -285.5t-159 -237.5t-237.5 -158.5t-284.5 -55.5q-148 -3 -285.5 55.5t-237.5 158.5t-158.5 237.5t-55.5 285.5q-3 147 55.5 284.5t158.5 237.5t237.5 159t285.5 56q147 3 285 -56t237.5 -158.5t158.5 -237.5t56 -285zM1473 717q2 123 -47 237.5
t-132.5 197.5t-198 132t-237.5 47q-164 3 -307.5 -80.5t-227 -226.5t-79.5 -307q-3 -123 46 -238t132.5 -198.5t198 -132.5t237.5 -46q123 -3 237.5 46t198 132.5t132.5 198.5t47 238zM674 848l-19 117l291 141v-764h-129v576z" />
    <glyph glyph-name="uni2461" unicode="&#x2461;" horiz-adv-x="1716" 
d="M1595 717q3 -148 -56 -285.5t-159 -237.5t-237.5 -158.5t-284.5 -55.5q-148 -3 -285.5 55.5t-237.5 158.5t-158.5 237.5t-55.5 285.5q-3 147 55.5 284.5t158.5 237.5t237.5 159t285.5 56q147 3 285 -56t237.5 -158.5t158.5 -237.5t56 -285zM1473 717q2 123 -47 237.5
t-132.5 197.5t-198 132t-237.5 47q-164 3 -307.5 -80.5t-227 -226.5t-79.5 -307q-3 -123 46 -238t132.5 -198.5t198 -132.5t237.5 -46q123 -3 237.5 46t198 132.5t132.5 198.5t47 238zM936 563l-82 -84h262l-20 -117h-502l256 273q89 97 118 139.5t29 93.5q0 57 -39.5 95
t-99.5 38t-98.5 -36t-38.5 -93q0 -38 20 -77l-125 -15q-20 62 -20 101q0 100 76.5 169.5t185.5 69.5q111 0 187.5 -71.5t76.5 -176.5q0 -78 -39 -138t-147 -171z" />
    <glyph glyph-name="uni2462" unicode="&#x2462;" horiz-adv-x="1716" 
d="M1595 717q3 -148 -56 -285.5t-159 -237.5t-237.5 -158.5t-284.5 -55.5q-148 -3 -285.5 55.5t-237.5 158.5t-158.5 237.5t-55.5 285.5q-3 147 55.5 284.5t158.5 237.5t237.5 159t285.5 56q147 3 285 -56t237.5 -158.5t158.5 -237.5t56 -285zM1473 717q2 123 -47 237.5
t-132.5 197.5t-198 132t-237.5 47q-164 3 -307.5 -80.5t-227 -226.5t-79.5 -307q-3 -123 46 -238t132.5 -198.5t198 -132.5t237.5 -46q123 -3 237.5 46t198 132.5t132.5 198.5t47 238zM1124 573q0 -108 -82.5 -178.5t-203.5 -70.5q-139 0 -232 90l47 100q32 -35 81 -56.5
t100 -21.5q70 0 115.5 40.5t45.5 101.5t-47.5 100t-122.5 39q-51 0 -100 -15l180 267h-274l16 112h465l-197 -278q92 -9 150.5 -74t58.5 -156z" />
    <glyph glyph-name="uni2463" unicode="&#x2463;" horiz-adv-x="1716" 
d="M1595 717q3 -148 -56 -285.5t-159 -237.5t-237.5 -158.5t-284.5 -55.5q-148 -3 -285.5 55.5t-237.5 158.5t-158.5 237.5t-55.5 285.5q-3 147 55.5 284.5t158.5 237.5t237.5 159t285.5 56q147 3 285 -56t237.5 -158.5t158.5 -237.5t56 -285zM1473 717q2 123 -47 237.5
t-132.5 197.5t-198 132t-237.5 47q-164 3 -307.5 -80.5t-227 -226.5t-79.5 -307q-3 -123 46 -238t132.5 -198.5t198 -132.5t237.5 -46q123 -3 237.5 46t198 132.5t132.5 198.5t47 238zM1010 1153v-528h88v-105h-88v-164h-121v164h-383zM731 625h158v200z" />
    <glyph glyph-name="uni2464" unicode="&#x2464;" horiz-adv-x="1716" 
d="M1595 717q3 -148 -56 -285.5t-159 -237.5t-237.5 -158.5t-284.5 -55.5q-148 -3 -285.5 55.5t-237.5 158.5t-158.5 237.5t-55.5 285.5q-3 147 55.5 284.5t158.5 237.5t237.5 159t285.5 56q147 3 285 -56t237.5 -158.5t158.5 -237.5t56 -285zM1473 717q2 123 -47 237.5
t-132.5 197.5t-198 132t-237.5 47q-164 3 -307.5 -80.5t-227 -226.5t-79.5 -307q-3 -123 46 -238t132.5 -198.5t198 -132.5t237.5 -46q123 -3 237.5 46t198 132.5t132.5 198.5t47 238zM1118 571q0 -104 -76.5 -173.5t-201.5 -69.5q-141 0 -236 82l23 110q39 -36 94 -59
t108 -23q73 0 117.5 39.5t44.5 100.5q0 59 -45.5 98t-122.5 39q-95 0 -184 -47l23 417h425l-16 -112h-299l-16 -180q47 20 106 20q110 0 183 -69.5t73 -172.5z" />
    <glyph glyph-name="uni2465" unicode="&#x2465;" horiz-adv-x="1716" 
d="M1595 717q3 -148 -56 -285.5t-159 -237.5t-237.5 -158.5t-284.5 -55.5q-148 -3 -285.5 55.5t-237.5 158.5t-158.5 237.5t-55.5 285.5q-3 147 55.5 284.5t158.5 237.5t237.5 159t285.5 56q147 3 285 -56t237.5 -158.5t158.5 -237.5t56 -285zM1473 717q2 123 -47 237.5
t-132.5 197.5t-198 132t-237.5 47q-164 3 -307.5 -80.5t-227 -226.5t-79.5 -307q-3 -123 46 -238t132.5 -198.5t198 -132.5t237.5 -46q123 -3 237.5 46t198 132.5t132.5 198.5t47 238zM1118 596q0 -106 -80 -181t-194 -75q-119 0 -198 79t-79 197q0 146 109.5 284.5
t284.5 215.5l65 -100q-201 -86 -295 -225q62 45 146 45q102 0 171.5 -70t69.5 -170zM993 598q0 62 -42.5 102.5t-108.5 40.5t-109 -40.5t-43 -102.5t43 -102.5t109 -40.5t108.5 40.5t42.5 102.5z" />
    <glyph glyph-name="uni2466" unicode="&#x2466;" horiz-adv-x="1716" 
d="M1595 717q3 -148 -56 -285.5t-159 -237.5t-237.5 -158.5t-284.5 -55.5q-148 -3 -285.5 55.5t-237.5 158.5t-158.5 237.5t-55.5 285.5q-3 147 55.5 284.5t158.5 237.5t237.5 159t285.5 56q147 3 285 -56t237.5 -158.5t158.5 -237.5t56 -285zM1473 717q2 123 -47 237.5
t-132.5 197.5t-198 132t-237.5 47q-164 3 -307.5 -80.5t-227 -226.5t-79.5 -307q-3 -123 46 -238t132.5 -198.5t198 -132.5t237.5 -46q123 -3 237.5 46t198 132.5t132.5 198.5t47 238zM596 940l18 123h531l-305 -746h-138l263 623h-369z" />
    <glyph glyph-name="uni2467" unicode="&#x2467;" horiz-adv-x="1716" 
d="M1595 717q3 -148 -56 -285.5t-159 -237.5t-237.5 -158.5t-284.5 -55.5q-148 -3 -285.5 55.5t-237.5 158.5t-158.5 237.5t-55.5 285.5q-3 147 55.5 284.5t158.5 237.5t237.5 159t285.5 56q147 3 285 -56t237.5 -158.5t158.5 -237.5t56 -285zM1473 717q2 123 -47 237.5
t-132.5 197.5t-198 132t-237.5 47q-164 3 -307.5 -80.5t-227 -226.5t-79.5 -307q-3 -123 46 -238t132.5 -198.5t198 -132.5t237.5 -46q123 -3 237.5 46t198 132.5t132.5 198.5t47 238zM1120 553q0 -93 -74.5 -154t-187.5 -61t-187.5 61t-74.5 154q0 118 127 180
q-54 25 -84.5 70t-30.5 100q0 88 72 146.5t178 58.5t178 -58.5t72 -146.5q0 -55 -30.5 -100t-84.5 -70q127 -62 127 -180zM729 891q0 -47 37.5 -79t93.5 -32q55 0 92 32t37 79q0 49 -36.5 82t-92.5 33t-93.5 -33t-37.5 -82zM997 563q0 51 -39.5 86t-99.5 35t-99.5 -35
t-39.5 -86t39.5 -86t99.5 -35t99.5 35t39.5 86z" />
    <glyph glyph-name="uni2468" unicode="&#x2468;" horiz-adv-x="1716" 
d="M1595 717q3 -148 -56 -285.5t-159 -237.5t-237.5 -158.5t-284.5 -55.5q-148 -3 -285.5 55.5t-237.5 158.5t-158.5 237.5t-55.5 285.5q-3 147 55.5 284.5t158.5 237.5t237.5 159t285.5 56q147 3 285 -56t237.5 -158.5t158.5 -237.5t56 -285zM1473 717q2 123 -47 237.5
t-132.5 197.5t-198 132t-237.5 47q-164 3 -307.5 -80.5t-227 -226.5t-79.5 -307q-3 -123 46 -238t132.5 -198.5t198 -132.5t237.5 -46q123 -3 237.5 46t198 132.5t132.5 198.5t47 238zM1137 823q0 -146 -109.5 -284t-284.5 -215l-65 100q201 86 295 225q-62 -45 -146 -45
q-102 0 -171.5 70t-69.5 170q0 106 80 181t194 75q118 0 197.5 -79t79.5 -198zM862 698q66 0 109 41t43 103t-43 102.5t-109 40.5t-108.5 -40.5t-42.5 -102.5t42.5 -103t108.5 -41z" />
    <glyph glyph-name="uni24EA" unicode="&#x24ea;" horiz-adv-x="1716" 
d="M121 717q-3 147 55.5 284.5t158.5 237.5t237.5 159t285.5 56q147 3 285 -56t237.5 -158.5t158.5 -237.5t56 -285q3 -148 -56 -285.5t-159 -237.5t-237.5 -158.5t-284.5 -55.5q-148 -3 -285.5 55.5t-237.5 158.5t-158.5 237.5t-55.5 285.5zM1473 717q2 123 -47 237.5
t-132.5 197.5t-198 132t-237.5 47q-164 3 -307.5 -80.5t-227 -226.5t-79.5 -307q-3 -123 46 -238t132.5 -198.5t198 -132.5t237.5 -46q123 -3 237.5 46t198 132.5t132.5 198.5t47 238zM551 723q0 168 83.5 276.5t221.5 108.5q140 0 223.5 -107.5t83.5 -277.5t-83.5 -277.5
t-223.5 -107.5q-138 0 -221.5 108.5t-83.5 276.5zM1034 723q0 120 -47.5 193t-130.5 73q-81 0 -128.5 -73t-47.5 -193t47.5 -193t128.5 -73q83 0 130.5 73t47.5 193z" />
    <glyph glyph-name="lozenge" unicode="&#x25ca;" horiz-adv-x="1142" 
d="M637 1475l379 -758l-379 -758h-131l-379 758l379 758h131zM571 150l273 567l-273 567l-272 -567z" />
    <glyph glyph-name="uniF8FF" unicode="&#xf8ff;" horiz-adv-x="1392" 
d="M1208 1475v-1475h-1024v1475h1024zM995 1339h-598l299 -493zM328 1237v-999l303 499zM762 737l303 -499v999zM397 135h598l-299 494z" />
    <glyph glyph-name="uniFEFF" unicode="&#xfeff;" 
 />
    <glyph glyph-name="A.c2sc" horiz-adv-x="1036" 
d="M844 0l-125 283h-402l-124 -283h-162l487 1040l488 -1040h-162zM377 416h282l-141 317z" />
    <glyph glyph-name="Aacute.c2sc" horiz-adv-x="1036" 
d="M844 0l-125 283h-402l-124 -283h-162l487 1040l488 -1040h-162zM377 416h282l-141 317zM360 1167l-67 117l412 250l77 -129z" />
    <glyph glyph-name="Abreve.c2sc" horiz-adv-x="1036" 
d="M844 0l-125 283h-402l-124 -283h-162l487 1040l488 -1040h-162zM377 416h282l-141 317zM211 1493h127q0 -77 52 -128.5t128 -51.5t128 51.5t52 128.5h127q0 -129 -88.5 -217t-218.5 -88t-218.5 88t-88.5 217z" />
    <glyph glyph-name="Acircumflex.c2sc" horiz-adv-x="1036" 
d="M844 0l-125 283h-402l-124 -283h-162l487 1040l488 -1040h-162zM377 416h282l-141 317zM825 1251l-84 -88l-223 197l-223 -197l-84 88l307 285z" />
    <glyph glyph-name="Adieresis.c2sc" horiz-adv-x="1036" 
d="M844 0l-125 283h-402l-124 -283h-162l487 1040l488 -1040h-162zM377 416h282l-141 317zM233 1333q0 41 29 70t70 29t69.5 -29t28.5 -70t-28.5 -69.5t-69.5 -28.5t-70 28.5t-29 69.5zM606 1333q0 41 29 70t70 29t69.5 -29t28.5 -70t-28.5 -69.5t-69.5 -28.5t-70 28.5
t-29 69.5z" />
    <glyph glyph-name="Adieresis.c2sc.ss08" horiz-adv-x="1036" 
d="M844 0l-125 283h-402l-124 -283h-162l487 1040l488 -1040h-162zM377 416h282l-141 317zM332 1217l-117 116l117 117l117 -117zM705 1217l-117 116l117 117l116 -117z" />
    <glyph glyph-name="Adieresis.ss08" horiz-adv-x="1380" 
d="M1174 0l-211 496h-545l-211 -496h-166l649 1485l649 -1485h-165zM479 639h422l-211 491zM444 1608l-133 133l133 133l134 -133zM936 1608l-133 133l133 133l133 -133z" />
    <glyph glyph-name="Agrave.c2sc" horiz-adv-x="1036" 
d="M844 0l-125 283h-402l-124 -283h-162l487 1040l488 -1040h-162zM377 416h282l-141 317zM696 1167l-422 238l78 129l412 -250z" />
    <glyph glyph-name="Amacron.c2sc" horiz-adv-x="1036" 
d="M844 0l-125 283h-402l-124 -283h-162l487 1040l488 -1040h-162zM377 416h282l-141 317zM231 1292v131h574v-131h-574z" />
    <glyph glyph-name="Aogonek.c2sc" horiz-adv-x="1036" 
d="M958 -221q21 0 48 6v-117q-45 -10 -74 -10q-76 0 -126 49.5t-50 122.5q0 94 88 170l-125 283h-402l-124 -283h-162l487 1040l488 -1040q-121 -78 -121 -152q0 -31 20.5 -50t52.5 -19zM377 416h282l-141 317z" />
    <glyph glyph-name="Aring.c2sc" horiz-adv-x="1036" 
d="M844 0l-125 283h-402l-124 -283h-162l487 1040l488 -1040h-162zM377 416h282l-141 317zM283 1376q0 94 68.5 160t166.5 66t167 -66t69 -160t-69 -159.5t-167 -65.5t-166.5 65.5t-68.5 159.5zM641 1376q0 53 -35.5 88t-87.5 35q-54 0 -88.5 -34.5t-34.5 -88.5
q0 -52 35 -87.5t88 -35.5q51 0 87 36t36 87z" />
    <glyph glyph-name="Atilde.c2sc" horiz-adv-x="1036" 
d="M844 0l-125 283h-402l-124 -283h-162l487 1040l488 -1040h-162zM377 416h282l-141 317zM489 1300q-4 2 -13.5 7.5t-13 7.5t-11 6t-11 5.5t-9.5 4t-9.5 3.5t-8.5 3t-9 2.5t-9 1t-10 0.5q-37 0 -60.5 -26t-23.5 -64h-115q0 95 56 154t145 59q44 0 78.5 -13.5t81.5 -43.5
q4 -2 13.5 -7.5t13 -7.5t11 -6t11 -5.5t9.5 -4t9.5 -3.5t8.5 -3t9 -2.5t9 -1t10 -0.5q37 0 60.5 26t23.5 64h115q0 -95 -56 -154t-145 -59q-44 0 -78.5 13.5t-81.5 43.5z" />
    <glyph glyph-name="AE.c2sc" horiz-adv-x="1390" 
d="M811 137h504l-27 -137h-626v283h-345l-124 -283h-162l469 1004h768l26 -138h-483v-286h389v-138h-389v-305zM377 416h285v452h-84z" />
    <glyph glyph-name="AE.c2sc.ss10" horiz-adv-x="1390" 
d="M811 137h504v-137h-653v283h-345l-124 -283h-162l469 1004h809l-27 -138h-471v-286h416l-27 -138h-389v-305zM377 416h285v452h-84z" />
    <glyph glyph-name="AE.ss10" horiz-adv-x="1824" 
d="M1063 147h639v-147h-795v516h-440l-256 -516h-170l717 1434h930l-29 -148h-596v-473h532l-28 -147h-504v-519zM537 659h370v627h-59z" />
    <glyph glyph-name="B.c2sc" horiz-adv-x="958" 
d="M848 272q0 -119 -93.5 -195.5t-240.5 -76.5h-350v1004h336q143 0 235 -75.5t92 -193.5q0 -75 -41 -134.5t-114 -90.5q82 -31 129 -94t47 -144zM500 868h-189v-295h189q78 0 127 41t49 107t-49 106.5t-127 40.5zM696 287q0 68 -50 109.5t-132 41.5h-203v-303h203
q82 0 132 42t50 110z" />
    <glyph glyph-name="C.c2sc" horiz-adv-x="987" 
d="M84 502q-3 142 70.5 263.5t201 191.5t277.5 67q146 0 260 -63l-29 -144q-106 66 -231 66q-166 0 -280.5 -110t-114.5 -271t114 -271t279 -110q127 0 248 74l28 -146q-126 -69 -276 -69t-276 69t-198.5 189t-72.5 264z" />
    <glyph glyph-name="Cacute.c2sc" horiz-adv-x="987" 
d="M84 502q-3 142 70.5 263.5t201 191.5t277.5 67q146 0 260 -63l-29 -144q-106 66 -231 66q-166 0 -280.5 -110t-114.5 -271t114 -271t279 -110q127 0 248 74l28 -146q-126 -69 -276 -69t-276 69t-198.5 189t-72.5 264zM416 1167l-68 117l412 250l78 -129z" />
    <glyph glyph-name="Ccaron.c2sc" horiz-adv-x="987" 
d="M84 502q-3 142 70.5 263.5t201 191.5t277.5 67q146 0 260 -63l-29 -144q-106 66 -231 66q-166 0 -280.5 -110t-114.5 -271t114 -271t279 -110q127 0 248 74l28 -146q-126 -69 -276 -69t-276 69t-198.5 189t-72.5 264zM799 1538l84 -88l-308 -285l-307 285l84 88l223 -197
z" />
    <glyph glyph-name="Ccedilla.c2sc" horiz-adv-x="987" 
d="M631 -20h-6l-199 -349l-139 95l209 268q-181 40 -296.5 181.5t-115.5 326.5q-3 142 70.5 263.5t201 191.5t277.5 67q146 0 260 -63l-29 -144q-106 66 -231 66q-166 0 -280.5 -110t-114.5 -271t114 -271t279 -110q127 0 248 74l28 -146q-126 -69 -276 -69z" />
    <glyph glyph-name="Ccircumflex.c2sc" horiz-adv-x="987" 
d="M84 502q-3 142 70.5 263.5t201 191.5t277.5 67q146 0 260 -63l-29 -144q-106 66 -231 66q-166 0 -280.5 -110t-114.5 -271t114 -271t279 -110q127 0 248 74l28 -146q-126 -69 -276 -69t-276 69t-198.5 189t-72.5 264zM881 1251l-84 -88l-224 197l-223 -197l-84 88
l307 285z" />
    <glyph glyph-name="Cdotaccent.c2sc" horiz-adv-x="987" 
d="M84 502q-3 142 70.5 263.5t201 191.5t277.5 67q146 0 260 -63l-29 -144q-106 66 -231 66q-166 0 -280.5 -110t-114.5 -271t114 -271t279 -110q127 0 248 74l28 -146q-126 -69 -276 -69t-276 69t-198.5 189t-72.5 264zM471 1352q0 43 29.5 72.5t72.5 29.5t73 -29.5
t30 -72.5t-30 -73t-73 -30t-72.5 30t-29.5 73z" />
    <glyph glyph-name="Cdotaccent.c2sc.ss08" horiz-adv-x="987" 
d="M84 502q-3 142 70.5 263.5t201 191.5t277.5 67q146 0 260 -63l-29 -144q-106 66 -231 66q-166 0 -280.5 -110t-114.5 -271t114 -271t279 -110q127 0 248 74l28 -146q-126 -69 -276 -69t-276 69t-198.5 189t-72.5 264zM573 1227l-124 125l124 125l125 -125z" />
    <glyph glyph-name="Cdotaccent.ss08" horiz-adv-x="1396" 
d="M121 717q-3 150 56.5 288.5t162 238.5t243.5 158.5t294 55.5q194 0 370 -92l-30 -158q-153 103 -345 103q-156 3 -292.5 -77t-217 -218.5t-77.5 -298.5q-3 -160 77 -298.5t216.5 -218.5t293.5 -77q187 0 363 115l31 -158q-184 -105 -394 -105q-202 -4 -377 96t-276.5 273
t-97.5 373zM834 1632l-138 137l138 138l137 -138z" />
    <glyph glyph-name="D.c2sc" horiz-adv-x="1083" 
d="M164 0v1004h315q222 0 371 -144t149 -358t-149.5 -358t-370.5 -144h-315zM313 139h166q156 0 261.5 104t105.5 259t-105.5 258.5t-261.5 103.5h-166v-725z" />
    <glyph glyph-name="Eth.c2sc" horiz-adv-x="1083" 
d="M999 502q0 -214 -149.5 -358t-370.5 -144h-315v436h-96v131h96v437h315q222 0 371 -144t149 -358zM846 502q0 155 -105.5 258.5t-261.5 103.5h-166v-297h258v-131h-258v-297h166q156 0 261.5 104t105.5 259z" />
    <glyph glyph-name="Dcaron.c2sc" horiz-adv-x="1083" 
d="M164 0v1004h315q222 0 371 -144t149 -358t-149.5 -358t-370.5 -144h-315zM313 139h166q156 0 261.5 104t105.5 259t-105.5 258.5t-261.5 103.5h-166v-725zM756 1538l84 -88l-308 -285l-307 285l84 88l223 -197z" />
    <glyph glyph-name="Dcroat.c2sc" horiz-adv-x="1083" 
d="M999 502q0 -214 -149.5 -358t-370.5 -144h-315v436h-96v131h96v437h315q222 0 371 -144t149 -358zM846 502q0 155 -105.5 258.5t-261.5 103.5h-166v-297h258v-131h-258v-297h166q156 0 261.5 104t105.5 259z" />
    <glyph glyph-name="E.c2sc" horiz-adv-x="892" 
d="M313 137h504l-26 -137h-627v1004h606l27 -138h-484v-286h389v-138h-389v-305z" />
    <glyph glyph-name="E.c2sc.ss10" horiz-adv-x="892" 
d="M313 137h504v-137h-653v1004h647l-27 -138h-471v-286h416l-27 -138h-389v-305z" />
    <glyph glyph-name="E.ss10" horiz-adv-x="1099" 
d="M338 147h639v-147h-795v1434h781l-29 -148h-596v-473h532l-28 -147h-504v-519z" />
    <glyph glyph-name="Eacute.c2sc" horiz-adv-x="892" 
d="M313 137h504l-26 -137h-627v1004h606l27 -138h-484v-286h389v-138h-389v-305zM309 1167l-67 117l411 250l78 -129z" />
    <glyph glyph-name="Eacute.c2sc.ss10" horiz-adv-x="892" 
d="M313 137h504v-137h-653v1004h647l-27 -138h-471v-286h416l-27 -138h-389v-305zM309 1167l-67 117l411 250l78 -129z" />
    <glyph glyph-name="Eacute.ss10" horiz-adv-x="1099" 
d="M338 147h639v-147h-795v1434h781l-29 -148h-596v-473h532l-28 -147h-504v-519zM391 1585l-55 123l475 229l66 -137z" />
    <glyph glyph-name="Ebreve.c2sc" horiz-adv-x="892" 
d="M313 137h504l-26 -137h-627v1004h606l27 -138h-484v-286h389v-138h-389v-305zM160 1493h127q0 -77 51.5 -128.5t128.5 -51.5t128.5 51.5t51.5 128.5h127q0 -129 -88.5 -217t-218.5 -88t-218.5 88t-88.5 217z" />
    <glyph glyph-name="Ebreve.c2sc.ss10" horiz-adv-x="892" 
d="M313 137h504v-137h-653v1004h647l-27 -138h-471v-286h416l-27 -138h-389v-305zM160 1493h127q0 -77 51.5 -128.5t128.5 -51.5t128.5 51.5t51.5 128.5h127q0 -129 -88.5 -217t-218.5 -88t-218.5 88t-88.5 217z" />
    <glyph glyph-name="Ebreve.ss10" horiz-adv-x="1099" 
d="M338 147h639v-147h-795v1434h781l-29 -148h-596v-473h532l-28 -147h-504v-519zM240 1882h127q0 -77 56 -128.5t140 -51.5q85 0 141 51.5t56 128.5h127q0 -129 -93 -217t-231 -88t-230.5 88t-92.5 217z" />
    <glyph glyph-name="Ecaron.c2sc" horiz-adv-x="892" 
d="M313 137h504l-26 -137h-627v1004h606l27 -138h-484v-286h389v-138h-389v-305zM692 1538l84 -88l-307 -285l-307 285l84 88l223 -197z" />
    <glyph glyph-name="Ecaron.c2sc.ss10" horiz-adv-x="892" 
d="M313 137h504v-137h-653v1004h647l-27 -138h-471v-286h416l-27 -138h-389v-305zM692 1538l84 -88l-307 -285l-307 285l84 88l223 -197z" />
    <glyph glyph-name="Ecaron.ss10" horiz-adv-x="1099" 
d="M338 147h639v-147h-795v1434h781l-29 -148h-596v-473h532l-28 -147h-504v-519zM786 1939l84 -88l-307 -284l-307 284l84 88l223 -196z" />
    <glyph glyph-name="Ecircumflex.c2sc" horiz-adv-x="892" 
d="M313 137h504l-26 -137h-627v1004h606l27 -138h-484v-286h389v-138h-389v-305zM774 1251l-84 -88l-223 197l-223 -197l-84 88l307 285z" />
    <glyph glyph-name="Ecircumflex.c2sc.ss10" horiz-adv-x="892" 
d="M313 137h504v-137h-653v1004h647l-27 -138h-471v-286h416l-27 -138h-389v-305zM774 1251l-84 -88l-223 197l-223 -197l-84 88l307 285z" />
    <glyph glyph-name="Ecircumflex.ss10" horiz-adv-x="1099" 
d="M338 147h639v-147h-795v1434h781l-29 -148h-596v-473h532l-28 -147h-504v-519zM870 1665l-84 -88l-223 197l-223 -197l-84 88l307 285z" />
    <glyph glyph-name="Edieresis.c2sc" horiz-adv-x="892" 
d="M313 137h504l-26 -137h-627v1004h606l27 -138h-484v-286h389v-138h-389v-305zM182 1333q0 41 29 70t70 29t69.5 -29t28.5 -70t-28.5 -69.5t-69.5 -28.5t-70 28.5t-29 69.5zM555 1333q0 41 28.5 70t69.5 29t70 -29t29 -70t-29 -69.5t-70 -28.5t-69.5 28.5t-28.5 69.5z" />
    <glyph glyph-name="Edieresis.c2sc.ss08" horiz-adv-x="892" 
d="M313 137h504l-26 -137h-627v1004h606l27 -138h-484v-286h389v-138h-389v-305zM281 1217l-117 116l117 117l116 -117zM653 1217l-116 116l116 117l117 -117z" />
    <glyph glyph-name="Edieresis.c2sc.ss08.ss10" horiz-adv-x="892" 
d="M313 137h504v-137h-653v1004h647l-27 -138h-471v-286h416l-27 -138h-389v-305zM281 1217l-117 116l117 117l116 -117zM653 1217l-116 116l116 117l117 -117z" />
    <glyph glyph-name="Edieresis.c2sc.ss10" horiz-adv-x="892" 
d="M313 137h504v-137h-653v1004h647l-27 -138h-471v-286h416l-27 -138h-389v-305zM182 1333q0 41 29 70t70 29t69.5 -29t28.5 -70t-28.5 -69.5t-69.5 -28.5t-70 28.5t-29 69.5zM555 1333q0 41 28.5 70t69.5 29t70 -29t29 -70t-29 -69.5t-70 -28.5t-69.5 28.5t-28.5 69.5z
" />
    <glyph glyph-name="Edieresis.ss08" horiz-adv-x="1099" 
d="M338 147h649l-29 -147h-776v1434h748l28 -148h-620v-473h514v-147h-514v-519zM328 1608l-133 133l133 133l133 -133zM819 1608l-133 133l133 133l133 -133z" />
    <glyph glyph-name="Edieresis.ss08.ss10" horiz-adv-x="1099" 
d="M338 147h639v-147h-795v1434h781l-29 -148h-596v-473h532l-28 -147h-504v-519zM317 1608l-133 133l133 133l134 -133zM809 1608l-133 133l133 133l133 -133z" />
    <glyph glyph-name="Edieresis.ss10" horiz-adv-x="1099" 
d="M338 147h639v-147h-795v1434h781l-29 -148h-596v-473h532l-28 -147h-504v-519zM205 1741q0 47 32.5 79.5t79.5 32.5t80 -32.5t33 -79.5t-33 -80t-80 -33t-79.5 33t-32.5 80zM696 1741q0 47 33 79.5t80 32.5t80 -32.5t33 -79.5t-33 -80t-80 -33t-80 33t-33 80z" />
    <glyph glyph-name="Edotaccent.c2sc" horiz-adv-x="892" 
d="M313 137h504l-26 -137h-627v1004h606l27 -138h-484v-286h389v-138h-389v-305zM365 1352q0 43 29.5 72.5t72.5 29.5t72.5 -29.5t29.5 -72.5t-29.5 -73t-72.5 -30t-72.5 30t-29.5 73z" />
    <glyph glyph-name="Edotaccent.c2sc.ss08" horiz-adv-x="892" 
d="M313 137h504l-26 -137h-627v1004h606l27 -138h-484v-286h389v-138h-389v-305zM467 1227l-125 125l125 125l125 -125z" />
    <glyph glyph-name="Edotaccent.c2sc.ss08.ss10" horiz-adv-x="892" 
d="M313 137h504v-137h-653v1004h647l-27 -138h-471v-286h416l-27 -138h-389v-305zM467 1227l-125 125l125 125l125 -125z" />
    <glyph glyph-name="Edotaccent.c2sc.ss10" horiz-adv-x="892" 
d="M313 137h504v-137h-653v1004h647l-27 -138h-471v-286h416l-27 -138h-389v-305zM365 1352q0 43 29.5 72.5t72.5 29.5t72.5 -29.5t29.5 -72.5t-29.5 -73t-72.5 -30t-72.5 30t-29.5 73z" />
    <glyph glyph-name="Edotaccent.ss08" horiz-adv-x="1099" 
d="M338 147h649l-29 -147h-776v1434h748l28 -148h-620v-473h514v-147h-514v-519zM573 1632l-137 137l137 138l138 -138z" />
    <glyph glyph-name="Edotaccent.ss08.ss10" horiz-adv-x="1099" 
d="M338 147h639v-147h-795v1434h781l-29 -148h-596v-473h532l-28 -147h-504v-519zM563 1632l-137 137l137 138l137 -138z" />
    <glyph glyph-name="Edotaccent.ss10" horiz-adv-x="1099" 
d="M338 147h639v-147h-795v1434h781l-29 -148h-596v-473h532l-28 -147h-504v-519zM451 1769q0 47 32.5 80t79.5 33t80 -33t33 -80t-33 -79.5t-80 -32.5t-79.5 32.5t-32.5 79.5z" />
    <glyph glyph-name="Egrave.c2sc" horiz-adv-x="892" 
d="M313 137h504l-26 -137h-627v1004h606l27 -138h-484v-286h389v-138h-389v-305zM645 1167l-422 238l78 129l412 -250z" />
    <glyph glyph-name="Egrave.c2sc.ss10" horiz-adv-x="892" 
d="M313 137h504v-137h-653v1004h647l-27 -138h-471v-286h416l-27 -138h-389v-305zM645 1167l-422 238l78 129l412 -250z" />
    <glyph glyph-name="Egrave.ss10" horiz-adv-x="1099" 
d="M338 147h639v-147h-795v1434h781l-29 -148h-596v-473h532l-28 -147h-504v-519zM735 1585l-485 215l65 137l476 -229z" />
    <glyph glyph-name="Emacron.c2sc" horiz-adv-x="892" 
d="M313 137h504l-26 -137h-627v1004h606l27 -138h-484v-286h389v-138h-389v-305zM180 1292v131h574v-131h-574z" />
    <glyph glyph-name="Emacron.c2sc.ss10" horiz-adv-x="892" 
d="M313 137h504v-137h-653v1004h647l-27 -138h-471v-286h416l-27 -138h-389v-305zM180 1292v131h574v-131h-574z" />
    <glyph glyph-name="Emacron.ss10" horiz-adv-x="1099" 
d="M338 147h639v-147h-795v1434h781l-29 -148h-596v-473h532l-28 -147h-504v-519zM256 1702v131h614v-131h-614z" />
    <glyph glyph-name="Eogonek.c2sc" horiz-adv-x="892" 
d="M670 -152q0 -31 20.5 -50t52.5 -19q21 0 48 6v-117q-45 -10 -74 -10q-76 0 -126 49.5t-50 122.5q0 93 86 170h-463v1004h606l27 -138h-484v-286h389v-138h-389v-305h504l-26 -137q-121 -78 -121 -152z" />
    <glyph glyph-name="Eogonek.c2sc.ss10" horiz-adv-x="892" 
d="M696 -152q0 -31 21 -50t53 -19q20 0 47 6v-117q-45 -10 -74 -10q-76 0 -126 49.5t-50 122.5q0 93 86 170h-489v1004h647l-27 -138h-471v-286h416l-27 -138h-389v-305h504v-137q-121 -78 -121 -152z" />
    <glyph glyph-name="Eogonek.ss10" horiz-adv-x="1099" 
d="M846 -164q0 -33 22.5 -54.5t57.5 -21.5q24 0 51 9v-127q-57 -11 -80 -11q-81 0 -135.5 54t-54.5 131q0 102 94 184h-619v1434h781l-29 -148h-596v-473h532l-28 -147h-504v-519h639v-147q-131 -88 -131 -164z" />
    <glyph glyph-name="F.c2sc" horiz-adv-x="847" 
d="M313 866v-313h359v-137h-359v-416h-149v1004h581l27 -138h-459z" />
    <glyph glyph-name="F.c2sc.ss10" horiz-adv-x="866" 
d="M754 866h-441v-313h379l-26 -137h-353v-416h-149v1004h616z" />
    <glyph glyph-name="F.ss10" horiz-adv-x="1026" 
d="M897 1286h-559v-520h489l-28 -148h-461v-618h-156v1434h744z" />
    <glyph glyph-name="G.c2sc" horiz-adv-x="1132" 
d="M598 561h408v-481q-183 -100 -371 -100q-235 0 -393 149t-158 371q0 146 74 266.5t200.5 189t278.5 68.5q151 0 285 -70l-27 -145q-131 74 -258 74q-166 0 -282.5 -110t-116.5 -271q0 -164 116.5 -272.5t290.5 -108.5q108 0 211 47v256h-285z" />
    <glyph glyph-name="G.c2sc.ss01" horiz-adv-x="1132" 
d="M856 504l150 28v-452q-183 -100 -371 -100q-235 0 -393 149t-158 371q0 146 74 266.5t200.5 189t278.5 68.5q151 0 285 -70l-27 -145q-131 74 -258 74q-166 0 -282.5 -110t-116.5 -271q0 -164 116.5 -272.5t290.5 -108.5q108 0 211 47v336z" />
    <glyph glyph-name="G.ss01" horiz-adv-x="1497" 
d="M1190 702l156 31v-643q-97 -54 -223 -84.5t-255 -30.5q-150 -3 -289.5 55.5t-240.5 159t-160.5 239t-56.5 288.5q-3 150 57.5 288.5t163.5 238.5t246 158.5t297 55.5q209 0 403 -102l-31 -160q-165 115 -372 115q-121 2 -233 -45t-193 -127t-128.5 -191t-45.5 -231
q-3 -160 76 -298.5t214 -218.5t291 -77q180 0 324 63v516z" />
    <glyph glyph-name="Gbreve.c2sc" horiz-adv-x="1132" 
d="M598 561h408v-481q-183 -100 -371 -100q-235 0 -393 149t-158 371q0 146 74 266.5t200.5 189t278.5 68.5q151 0 285 -70l-27 -145q-131 74 -258 74q-166 0 -282.5 -110t-116.5 -271q0 -164 116.5 -272.5t290.5 -108.5q108 0 211 47v256h-285zM279 1493h127
q0 -77 52 -128.5t128 -51.5t128 51.5t52 128.5h127q0 -129 -88.5 -217t-218.5 -88t-218.5 88t-88.5 217z" />
    <glyph glyph-name="Gbreve.c2sc.ss01" horiz-adv-x="1132" 
d="M856 504l150 28v-452q-183 -100 -371 -100q-235 0 -393 149t-158 371q0 146 74 266.5t200.5 189t278.5 68.5q151 0 285 -70l-27 -145q-131 74 -258 74q-166 0 -282.5 -110t-116.5 -271q0 -164 116.5 -272.5t290.5 -108.5q108 0 211 47v336zM279 1493h127q0 -77 52 -128.5
t128 -51.5t128 51.5t52 128.5h127q0 -129 -88.5 -217t-218.5 -88t-218.5 88t-88.5 217z" />
    <glyph glyph-name="Gbreve.ss01" horiz-adv-x="1497" 
d="M1190 702l156 31v-643q-97 -54 -223 -84.5t-255 -30.5q-150 -3 -289.5 55.5t-240.5 159t-160.5 239t-56.5 288.5q-3 150 57.5 288.5t163.5 238.5t246 158.5t297 55.5q209 0 403 -102l-31 -160q-165 115 -372 115q-121 2 -233 -45t-193 -127t-128.5 -191t-45.5 -231
q-3 -160 76 -298.5t214 -218.5t291 -77q180 0 324 63v516zM502 1882h127q0 -77 56 -128.5t140 -51.5q85 0 141 51.5t56 128.5h127q0 -129 -93 -217t-231 -88t-230.5 88t-92.5 217z" />
    <glyph glyph-name="Gcircumflex.c2sc" horiz-adv-x="1132" 
d="M598 561h408v-481q-183 -100 -371 -100q-235 0 -393 149t-158 371q0 146 74 266.5t200.5 189t278.5 68.5q151 0 285 -70l-27 -145q-131 74 -258 74q-166 0 -282.5 -110t-116.5 -271q0 -164 116.5 -272.5t290.5 -108.5q108 0 211 47v256h-285zM893 1251l-84 -88l-223 197
l-224 -197l-83 88l307 285z" />
    <glyph glyph-name="Gcircumflex.c2sc.ss01" horiz-adv-x="1132" 
d="M856 504l150 28v-452q-183 -100 -371 -100q-235 0 -393 149t-158 371q0 146 74 266.5t200.5 189t278.5 68.5q151 0 285 -70l-27 -145q-131 74 -258 74q-166 0 -282.5 -110t-116.5 -271q0 -164 116.5 -272.5t290.5 -108.5q108 0 211 47v336zM893 1251l-84 -88l-223 197
l-224 -197l-83 88l307 285z" />
    <glyph glyph-name="Gcircumflex.ss01" horiz-adv-x="1497" 
d="M1190 702l156 31v-643q-97 -54 -223 -84.5t-255 -30.5q-150 -3 -289.5 55.5t-240.5 159t-160.5 239t-56.5 288.5q-3 150 57.5 288.5t163.5 238.5t246 158.5t297 55.5q209 0 403 -102l-31 -160q-165 115 -372 115q-121 2 -233 -45t-193 -127t-128.5 -191t-45.5 -231
q-3 -160 76 -298.5t214 -218.5t291 -77q180 0 324 63v516zM1133 1665l-84 -88l-224 197l-223 -197l-84 88l307 285z" />
    <glyph glyph-name="uni0122.c2sc" horiz-adv-x="1132" 
d="M598 561h408v-481q-183 -100 -371 -100q-235 0 -393 149t-158 371q0 146 74 266.5t200.5 189t278.5 68.5q151 0 285 -70l-27 -145q-131 74 -258 74q-166 0 -282.5 -110t-116.5 -271q0 -164 116.5 -272.5t290.5 -108.5q108 0 211 47v256h-285zM420 -545l129 422h145
l-145 -401z" />
    <glyph glyph-name="uni0122.c2sc.ss01" horiz-adv-x="1132" 
d="M856 504l150 28v-452q-183 -100 -371 -100q-235 0 -393 149t-158 371q0 146 74 266.5t200.5 189t278.5 68.5q151 0 285 -70l-27 -145q-131 74 -258 74q-166 0 -282.5 -110t-116.5 -271q0 -164 116.5 -272.5t290.5 -108.5q108 0 211 47v336zM420 -545l129 422h145
l-145 -401z" />
    <glyph glyph-name="uni0122.ss01" horiz-adv-x="1497" 
d="M1190 702l156 31v-643q-97 -54 -223 -84.5t-255 -30.5q-150 -3 -289.5 55.5t-240.5 159t-160.5 239t-56.5 288.5q-3 150 57.5 288.5t163.5 238.5t246 158.5t297 55.5q209 0 403 -102l-31 -160q-165 115 -372 115q-121 2 -233 -45t-193 -127t-128.5 -191t-45.5 -231
q-3 -160 76 -298.5t214 -218.5t291 -77q180 0 324 63v516zM659 -545l129 422h146l-146 -401z" />
    <glyph glyph-name="Gdotaccent.c2sc" horiz-adv-x="1132" 
d="M598 561h408v-481q-183 -100 -371 -100q-235 0 -393 149t-158 371q0 146 74 266.5t200.5 189t278.5 68.5q151 0 285 -70l-27 -145q-131 74 -258 74q-166 0 -282.5 -110t-116.5 -271q0 -164 116.5 -272.5t290.5 -108.5q108 0 211 47v256h-285zM483 1352q0 43 30 72.5
t73 29.5t72.5 -29.5t29.5 -72.5t-29.5 -73t-72.5 -30t-73 30t-30 73z" />
    <glyph glyph-name="Gdotaccent.c2sc.ss01" horiz-adv-x="1132" 
d="M856 504l150 28v-452q-183 -100 -371 -100q-235 0 -393 149t-158 371q0 146 74 266.5t200.5 189t278.5 68.5q151 0 285 -70l-27 -145q-131 74 -258 74q-166 0 -282.5 -110t-116.5 -271q0 -164 116.5 -272.5t290.5 -108.5q108 0 211 47v336zM483 1352q0 43 30 72.5
t73 29.5t72.5 -29.5t29.5 -72.5t-29.5 -73t-72.5 -30t-73 30t-30 73z" />
    <glyph glyph-name="Gdotaccent.c2sc.ss01.ss08" horiz-adv-x="1132" 
d="M856 504l150 28v-452q-183 -100 -371 -100q-235 0 -393 149t-158 371q0 146 74 266.5t200.5 189t278.5 68.5q151 0 285 -70l-27 -145q-131 74 -258 74q-166 0 -282.5 -110t-116.5 -271q0 -164 116.5 -272.5t290.5 -108.5q108 0 211 47v336zM586 1227l-125 125l125 125
l125 -125z" />
    <glyph glyph-name="Gdotaccent.c2sc.ss08" horiz-adv-x="1132" 
d="M598 561h408v-481q-183 -100 -371 -100q-235 0 -393 149t-158 371q0 146 74 266.5t200.5 189t278.5 68.5q151 0 285 -70l-27 -145q-131 74 -258 74q-166 0 -282.5 -110t-116.5 -271q0 -164 116.5 -272.5t290.5 -108.5q108 0 211 47v256h-285zM586 1227l-125 125l125 125
l125 -125z" />
    <glyph glyph-name="Gdotaccent.ss01" horiz-adv-x="1497" 
d="M1190 702l156 31v-643q-97 -54 -223 -84.5t-255 -30.5q-150 -3 -289.5 55.5t-240.5 159t-160.5 239t-56.5 288.5q-3 150 57.5 288.5t163.5 238.5t246 158.5t297 55.5q209 0 403 -102l-31 -160q-165 115 -372 115q-121 2 -233 -45t-193 -127t-128.5 -191t-45.5 -231
q-3 -160 76 -298.5t214 -218.5t291 -77q180 0 324 63v516zM713 1769q0 47 32.5 80t79.5 33t80 -33t33 -80t-33 -79.5t-80 -32.5t-79.5 32.5t-32.5 79.5z" />
    <glyph glyph-name="Gdotaccent.ss01.ss08" horiz-adv-x="1497" 
d="M1190 702l156 31v-643q-97 -54 -223 -84.5t-255 -30.5q-150 -3 -289.5 55.5t-240.5 159t-160.5 239t-56.5 288.5q-3 150 57.5 288.5t163.5 238.5t246 158.5t297 55.5q209 0 403 -102l-31 -160q-165 115 -372 115q-121 2 -233 -45t-193 -127t-128.5 -191t-45.5 -231
q-3 -160 76 -298.5t214 -218.5t291 -77q180 0 324 63v516zM825 1632l-137 137l137 138l138 -138z" />
    <glyph glyph-name="Gdotaccent.ss08" horiz-adv-x="1497" 
d="M801 776h545v-686q-97 -54 -223 -84.5t-255 -30.5q-150 -3 -289.5 55.5t-240.5 159t-160.5 239t-56.5 288.5q-3 150 57.5 288.5t163.5 238.5t246 158.5t297 55.5q209 0 403 -102l-31 -160q-165 115 -372 115q-121 2 -233 -45t-193 -127t-128.5 -191t-45.5 -231
q-3 -160 76 -298.5t214 -218.5t291 -77q180 0 324 63v443h-418zM825 1632l-137 137l137 138l138 -138z" />
    <glyph glyph-name="H.c2sc" horiz-adv-x="1224" 
d="M911 989l150 29v-1018h-150v442h-598v-442h-149v989l149 29v-436h598v407z" />
    <glyph glyph-name="Hbar.c2sc" horiz-adv-x="1224" 
d="M1137 838v-119h-76v-719h-150v442h-598v-442h-149v719h-76v119h76v151l149 29v-180h598v151l150 29v-180h76zM911 582v137h-598v-137h598z" />
    <glyph glyph-name="Hcircumflex.c2sc" horiz-adv-x="1224" 
d="M911 989l150 29v-1018h-150v442h-598v-442h-149v989l149 29v-436h598v407zM920 1251l-84 -88l-224 197l-223 -197l-84 88l307 285z" />
    <glyph glyph-name="I.c2sc" horiz-adv-x="497" 
d="M174 0v989l150 29v-1018h-150z" />
    <glyph glyph-name="IJ.c2sc" horiz-adv-x="1214" 
d="M174 0v989l150 29v-1018h-150zM543 55l45 131q80 -65 170 -65q79 0 121.5 50.5t42.5 147.5v670l149 29v-717q0 -141 -80 -231t-221 -90q-127 0 -227 75z" />
    <glyph glyph-name="Iacute.c2sc" horiz-adv-x="497" 
d="M174 0v989l150 29v-1018h-150zM90 1167l-67 117l411 250l78 -129z" />
    <glyph glyph-name="Ibreve.c2sc" horiz-adv-x="497" 
d="M174 0v989l150 29v-1018h-150zM-39 1493h127q0 -75 44 -122.5t116 -47.5t116 47.5t44 122.5h127q0 -128 -81.5 -211.5t-205.5 -83.5t-205.5 83.5t-81.5 211.5z" />
    <glyph glyph-name="Icircumflex.c2sc" horiz-adv-x="497" 
d="M174 0v989l150 29v-1018h-150zM514 1251l-90 -86l-176 193l-176 -193l-90 86l266 285z" />
    <glyph glyph-name="Idieresis.c2sc" horiz-adv-x="497" 
d="M174 0v989l150 29v-1018h-150zM-8 1333q0 41 28.5 70t69.5 29t69.5 -29t28.5 -70t-28.5 -69.5t-69.5 -28.5t-69.5 28.5t-28.5 69.5zM307 1333q0 41 29 70t70 29t69.5 -29t28.5 -70t-28.5 -69.5t-69.5 -28.5t-70 28.5t-29 69.5z" />
    <glyph glyph-name="Idieresis.c2sc.ss08" horiz-adv-x="497" 
d="M174 0v989l150 29v-1018h-150zM90 1217l-117 116l117 117l117 -117zM406 1217l-117 116l117 117l116 -117z" />
    <glyph glyph-name="Idieresis.ss08" horiz-adv-x="540" 
d="M193 0v1419l155 29v-1448h-155zM66 1608l-134 133l134 133l133 -133zM475 1608l-133 133l133 133l133 -133z" />
    <glyph glyph-name="Idotaccent.c2sc" horiz-adv-x="497" 
d="M174 0v989l150 29v-1018h-150zM145 1352q0 43 30 72.5t73 29.5t72.5 -29.5t29.5 -72.5t-29.5 -73t-72.5 -30t-73 30t-30 73z" />
    <glyph glyph-name="Idotaccent.c2sc.ss08" horiz-adv-x="497" 
d="M174 0v989l150 29v-1018h-150zM248 1227l-125 125l125 125l125 -125z" />
    <glyph glyph-name="Idotaccent.ss08" horiz-adv-x="540" 
d="M193 0v1419l155 29v-1448h-155zM270 1632l-137 137l137 138l138 -138z" />
    <glyph glyph-name="Igrave.c2sc" horiz-adv-x="497" 
d="M174 0v989l150 29v-1018h-150zM426 1167l-422 238l78 129l412 -250z" />
    <glyph glyph-name="Imacron.c2sc" horiz-adv-x="497" 
d="M174 0v989l150 29v-1018h-150zM23 1292v131h450v-131h-450z" />
    <glyph glyph-name="Iogonek.c2sc" horiz-adv-x="497" 
d="M203 -152q0 -31 20.5 -50t52.5 -19q21 0 48 6v-117q-45 -10 -74 -10q-76 0 -126 49.5t-50 122.5q0 101 100 182v977l150 29v-1018q-121 -78 -121 -152z" />
    <glyph glyph-name="Itilde.c2sc" horiz-adv-x="497" 
d="M174 0v989l150 29v-1018h-150zM223 1298q-53 35 -90 35q-34 0 -54 -20.5t-20 -52.5h-114q0 88 51.5 142t136.5 54q65 0 139 -47q53 -35 90 -35q34 0 54 21t20 53h115q0 -88 -52 -142.5t-137 -54.5q-65 0 -139 47z" />
    <glyph glyph-name="J.c2sc" horiz-adv-x="716" 
d="M45 55l45 131q80 -65 170 -65q79 0 121.5 50.5t42.5 147.5v670l149 29v-717q0 -141 -80 -231t-221 -90q-127 0 -227 75z" />
    <glyph glyph-name="Jcircumflex.c2sc" horiz-adv-x="716" 
d="M45 55l45 131q80 -65 170 -65q79 0 121.5 50.5t42.5 147.5v670l149 29v-717q0 -141 -80 -231t-221 -90q-127 0 -227 75zM766 1251l-90 -86l-176 193l-176 -193l-91 86l267 285z" />
    <glyph glyph-name="K.c2sc" horiz-adv-x="952" 
d="M901 0h-192l-396 492v-492h-149v989l149 29v-477l389 463h195l-418 -488z" />
    <glyph glyph-name="uni0136.c2sc" horiz-adv-x="952" 
d="M901 0h-192l-396 492v-492h-149v989l149 29v-477l389 463h195l-418 -488zM311 -545l129 422h146l-146 -401z" />
    <glyph glyph-name="L.c2sc" horiz-adv-x="858" 
d="M164 0v989l149 29v-879h490l-27 -139h-612z" />
    <glyph glyph-name="Lacute.c2sc" horiz-adv-x="858" 
d="M164 0v989l149 29v-879h490l-27 -139h-612zM272 1167l-67 117l411 250l78 -129z" />
    <glyph glyph-name="Lcaron.c2sc" horiz-adv-x="858" 
d="M164 0v989l149 29v-879h490l-27 -139h-612zM416 586l67 418h158l-80 -388z" />
    <glyph glyph-name="uni013B.c2sc" horiz-adv-x="858" 
d="M164 0v989l149 29v-879h490l-27 -139h-612zM264 -545l129 422h146l-146 -401z" />
    <glyph glyph-name="Ldot.c2sc" horiz-adv-x="858" 
d="M164 0v989l149 29v-879h490l-27 -139h-612zM539 545q0 47 32.5 78.5t79.5 31.5q48 0 80.5 -31.5t32.5 -78.5t-33 -79t-80 -32t-79.5 32t-32.5 79z" />
    <glyph glyph-name="Ldot.c2sc.ss08" horiz-adv-x="858" 
d="M164 0v989l149 29v-879h490l-27 -139h-612zM647 408l-137 137l137 135l137 -135z" />
    <glyph glyph-name="Ldot.ss08" horiz-adv-x="1064" 
d="M338 147h627l-29 -147h-754v1419l156 29v-1301zM760 651l-152 152l152 151l151 -151z" />
    <glyph glyph-name="Lslash.c2sc" horiz-adv-x="858" 
d="M313 139h490l-27 -139h-612v395l-133 -86v158l133 86v436l149 29v-369l136 86v-157l-136 -86v-353z" />
    <glyph glyph-name="M.c2sc" horiz-adv-x="1355" 
d="M1264 0h-150l-72 629l-364 -613l-365 613l-71 -629h-150l137 1055l449 -785l448 785z" />
    <glyph glyph-name="N.c2sc" horiz-adv-x="1239" 
d="M1075 1018v-1069l-762 749v-698h-149v1055l762 -750v684z" />
    <glyph glyph-name="Nacute.c2sc" horiz-adv-x="1239" 
d="M1075 1018v-1069l-762 749v-698h-149v1055l762 -750v684zM461 1167l-68 117l412 250l78 -129z" />
    <glyph glyph-name="Ncaron.c2sc" horiz-adv-x="1239" 
d="M1075 1018v-1069l-762 749v-698h-149v1055l762 -750v684zM844 1538l84 -88l-307 -285l-308 285l84 88l224 -197z" />
    <glyph glyph-name="uni0145.c2sc" horiz-adv-x="1239" 
d="M1075 1018v-1069l-762 749v-698h-149v1055l762 -750v684zM453 -545l129 422h145l-145 -401z" />
    <glyph glyph-name="Eng.c2sc" horiz-adv-x="1239" 
d="M926 989l149 29v-1184q0 -141 -80 -231t-221 -90q-127 0 -227 75l45 131q80 -65 170 -65q79 0 121.5 51t42.5 148v243l-613 602v-698h-149v1055l762 -750v684z" />
    <glyph glyph-name="Ntilde.c2sc" horiz-adv-x="1239" 
d="M1075 1018v-1069l-762 749v-698h-149v1055l762 -750v684zM590 1300q-33 18 -43.5 23.5t-28 11.5t-33.5 6q-37 0 -60.5 -26t-23.5 -64h-114q0 95 55.5 154t144.5 59q44 0 78.5 -13.5t81.5 -43.5q33 -18 43.5 -23.5t28 -11.5t33.5 -6q37 0 60.5 26t23.5 64h114
q0 -95 -55.5 -154t-144.5 -59q-44 0 -78.5 13.5t-81.5 43.5z" />
    <glyph glyph-name="O.c2sc" horiz-adv-x="1236" 
d="M84 502q-2 105 40 202.5t114.5 168t172 112t207.5 39.5q144 3 268.5 -67.5t197 -192.5t69.5 -262q3 -140 -69.5 -262t-197 -192.5t-268.5 -67.5q-108 -2 -207.5 39.5t-172 112t-114.5 168t-40 202.5zM999 502q0 157 -112 269t-269 112t-268.5 -112t-111.5 -269
t111.5 -269t268.5 -112t269 112t112 269z" />
    <glyph glyph-name="Oacute.c2sc" horiz-adv-x="1236" 
d="M84 502q-2 105 40 202.5t114.5 168t172 112t207.5 39.5q144 3 268.5 -67.5t197 -192.5t69.5 -262q3 -140 -69.5 -262t-197 -192.5t-268.5 -67.5q-108 -2 -207.5 39.5t-172 112t-114.5 168t-40 202.5zM999 502q0 157 -112 269t-269 112t-268.5 -112t-111.5 -269
t111.5 -269t268.5 -112t269 112t112 269zM461 1167l-68 117l412 250l78 -129z" />
    <glyph glyph-name="Obreve.c2sc" horiz-adv-x="1236" 
d="M84 502q-2 105 40 202.5t114.5 168t172 112t207.5 39.5q144 3 268.5 -67.5t197 -192.5t69.5 -262q3 -140 -69.5 -262t-197 -192.5t-268.5 -67.5q-108 -2 -207.5 39.5t-172 112t-114.5 168t-40 202.5zM999 502q0 157 -112 269t-269 112t-268.5 -112t-111.5 -269
t111.5 -269t268.5 -112t269 112t112 269zM311 1493h127q0 -77 52 -128.5t128 -51.5q77 0 129 52t52 128h127q0 -129 -89 -217t-219 -88t-218.5 88t-88.5 217z" />
    <glyph glyph-name="Ocircumflex.c2sc" horiz-adv-x="1236" 
d="M84 502q-2 105 40 202.5t114.5 168t172 112t207.5 39.5q144 3 268.5 -67.5t197 -192.5t69.5 -262q3 -140 -69.5 -262t-197 -192.5t-268.5 -67.5q-108 -2 -207.5 39.5t-172 112t-114.5 168t-40 202.5zM999 502q0 157 -112 269t-269 112t-268.5 -112t-111.5 -269
t111.5 -269t268.5 -112t269 112t112 269zM926 1251l-84 -88l-224 197l-223 -197l-84 88l307 285z" />
    <glyph glyph-name="Odieresis.c2sc" horiz-adv-x="1236" 
d="M84 502q-2 105 40 202.5t114.5 168t172 112t207.5 39.5q144 3 268.5 -67.5t197 -192.5t69.5 -262q3 -140 -69.5 -262t-197 -192.5t-268.5 -67.5q-108 -2 -207.5 39.5t-172 112t-114.5 168t-40 202.5zM999 502q0 157 -112 269t-269 112t-268.5 -112t-111.5 -269
t111.5 -269t268.5 -112t269 112t112 269zM334 1333q0 41 28.5 70t69.5 29t69.5 -29t28.5 -70t-28.5 -69.5t-69.5 -28.5t-69.5 28.5t-28.5 69.5zM707 1333q0 41 28.5 70t69.5 29t69.5 -29t28.5 -70t-28.5 -69.5t-69.5 -28.5t-69.5 28.5t-28.5 69.5z" />
    <glyph glyph-name="Odieresis.c2sc.ss08" horiz-adv-x="1236" 
d="M84 502q-2 105 40 202.5t114.5 168t172 112t207.5 39.5q144 3 268.5 -67.5t197 -192.5t69.5 -262q3 -140 -69.5 -262t-197 -192.5t-268.5 -67.5q-108 -2 -207.5 39.5t-172 112t-114.5 168t-40 202.5zM999 502q0 157 -112 269t-269 112t-268.5 -112t-111.5 -269
t111.5 -269t268.5 -112t269 112t112 269zM432 1217l-117 116l117 117l117 -117zM805 1217l-117 116l117 117l117 -117z" />
    <glyph glyph-name="Odieresis.ss08" horiz-adv-x="1748" 
d="M121 717q-3 150 57 288.5t161.5 238.5t242 158.5t292.5 55.5q152 3 292.5 -55.5t242.5 -158.5t162 -238.5t57 -288.5q3 -150 -57 -288.5t-162 -239t-242.5 -159t-292.5 -55.5q-202 -4 -377.5 96t-277.5 273t-98 373zM1464 717q2 120 -45 231t-126.5 191t-190 127
t-228.5 45q-118 2 -228 -45t-190 -127t-126.5 -191t-44.5 -231q-2 -120 44.5 -231t126.5 -191t190 -127t228 -45q118 -2 228.5 45t190 127t126.5 191t45 231zM629 1608l-133 133l133 133l133 -133zM1120 1608l-133 133l133 133l133 -133z" />
    <glyph glyph-name="Ograve.c2sc" horiz-adv-x="1236" 
d="M84 502q-2 105 40 202.5t114.5 168t172 112t207.5 39.5q144 3 268.5 -67.5t197 -192.5t69.5 -262q3 -140 -69.5 -262t-197 -192.5t-268.5 -67.5q-108 -2 -207.5 39.5t-172 112t-114.5 168t-40 202.5zM999 502q0 157 -112 269t-269 112t-268.5 -112t-111.5 -269
t111.5 -269t268.5 -112t269 112t112 269zM797 1167l-422 238l78 129l411 -250z" />
    <glyph glyph-name="Ohungarumlaut.c2sc" horiz-adv-x="1236" 
d="M84 502q-2 105 40 202.5t114.5 168t172 112t207.5 39.5q144 3 268.5 -67.5t197 -192.5t69.5 -262q3 -140 -69.5 -262t-197 -192.5t-268.5 -67.5q-108 -2 -207.5 39.5t-172 112t-114.5 168t-40 202.5zM999 502q0 157 -112 269t-269 112t-268.5 -112t-111.5 -269
t111.5 -269t268.5 -112t269 112t112 269zM381 1188l154 328h182l-207 -328h-129zM709 1188l153 328h182l-206 -328h-129z" />
    <glyph glyph-name="Omacron.c2sc" horiz-adv-x="1236" 
d="M84 502q-2 105 40 202.5t114.5 168t172 112t207.5 39.5q144 3 268.5 -67.5t197 -192.5t69.5 -262q3 -140 -69.5 -262t-197 -192.5t-268.5 -67.5q-108 -2 -207.5 39.5t-172 112t-114.5 168t-40 202.5zM999 502q0 157 -112 269t-269 112t-268.5 -112t-111.5 -269
t111.5 -269t268.5 -112t269 112t112 269zM332 1292v131h573v-131h-573z" />
    <glyph glyph-name="Oslash.c2sc" horiz-adv-x="1236" 
d="M1153 502q3 -140 -69.5 -262t-197 -192.5t-268.5 -67.5q-165 0 -296 86l-95 -109l-98 86l92 107q-66 69 -101.5 160.5t-35.5 191.5q-2 105 40 202.5t114.5 168t172 112t207.5 39.5q161 0 295 -84l95 107l98 -86l-92 -105q139 -142 139 -354zM322 262l495 567
q-94 54 -199 54q-157 0 -268.5 -112t-111.5 -269q0 -139 84 -240zM999 502q0 140 -84 241l-495 -567q88 -55 198 -55q157 0 269 112t112 269z" />
    <glyph glyph-name="Otilde.c2sc" horiz-adv-x="1236" 
d="M84 502q-2 105 40 202.5t114.5 168t172 112t207.5 39.5q144 3 268.5 -67.5t197 -192.5t69.5 -262q3 -140 -69.5 -262t-197 -192.5t-268.5 -67.5q-108 -2 -207.5 39.5t-172 112t-114.5 168t-40 202.5zM999 502q0 157 -112 269t-269 112t-268.5 -112t-111.5 -269
t111.5 -269t268.5 -112t269 112t112 269zM590 1300q-33 18 -43.5 23.5t-28 11.5t-33.5 6q-37 0 -60.5 -26t-23.5 -64h-114q0 95 55.5 154t144.5 59q44 0 78.5 -13.5t81.5 -43.5q33 -18 43.5 -23.5t28 -11.5t33.5 -6q37 0 60.5 26t23.5 64h114q0 -95 -55.5 -154t-144.5 -59
q-44 0 -78.5 13.5t-81.5 43.5z" />
    <glyph glyph-name="OE.c2sc" horiz-adv-x="1499" 
d="M920 137h503l-26 -137h-793q-222 0 -371 144t-149 358t149.5 358t370.5 144h772l27 -138h-483v-286h389v-138h-389v-305zM604 139h166v725h-166q-156 0 -261 -103.5t-105 -258.5t105 -259t261 -104z" />
    <glyph glyph-name="OE.c2sc.ss10" horiz-adv-x="1499" 
d="M920 137h503v-137h-819q-222 0 -371 144t-149 358t149.5 358t370.5 144h813l-26 -138h-471v-286h415l-26 -138h-389v-305zM604 139h166v725h-166q-156 0 -261 -103.5t-105 -258.5t105 -259t261 -104z" />
    <glyph glyph-name="OE.ss10" horiz-adv-x="1941" 
d="M1180 147h639v-147h-949q-155 -2 -294.5 53.5t-240 151.5t-158.5 230t-56 282q-2 148 56 282t158.5 230t240 151.5t294.5 53.5h934l-28 -148h-596v-473h532l-29 -147h-503v-519zM870 147h154v1139h-154q-160 3 -296 -73t-214 -208t-75 -288q-3 -156 75 -288.5t214 -208.5
t296 -73z" />
    <glyph glyph-name="P.c2sc" horiz-adv-x="925" 
d="M850 649q0 -158 -108 -257t-279 -99h-150v-293h-149v1004h299q170 0 278.5 -100t108.5 -255zM698 649q0 95 -65.5 156t-169.5 61h-150v-436h150q104 0 169.5 61t65.5 158z" />
    <glyph glyph-name="Thorn.c2sc" horiz-adv-x="925" 
d="M850 514q0 -158 -108 -257t-279 -99h-150v-158h-149v1004h149v-136h150q170 0 278.5 -99.5t108.5 -254.5zM698 514q0 95 -65.5 156t-169.5 61h-150v-436h150q104 0 169.5 61t65.5 158z" />
    <glyph glyph-name="Q.c2sc" horiz-adv-x="1236" 
d="M1165 35l-90 -103l-153 138q-139 -90 -304 -90q-108 -2 -207.5 39.5t-172 112t-114.5 168t-40 202.5q-2 105 40 202.5t114.5 168t172 112t207.5 39.5q144 3 268.5 -67.5t197 -192.5t69.5 -262q0 -193 -129 -344zM809 170l-168 149l86 99l184 -162q88 102 88 246
q0 157 -112 269t-269 112t-268.5 -112t-111.5 -269t111.5 -269t268.5 -112q103 0 191 49z" />
    <glyph glyph-name="Q.c2sc.ss02" horiz-adv-x="1236" 
d="M1165 35l-90 -103l-153 138q-139 -90 -304 -90q-108 -2 -207.5 39.5t-172 112t-114.5 168t-40 202.5q-2 105 40 202.5t114.5 168t172 112t207.5 39.5q144 3 268.5 -67.5t197 -192.5t69.5 -262q0 -193 -129 -344zM618 121q157 0 269 112t112 269t-112 269t-269 112
t-268.5 -112t-111.5 -269t111.5 -269t268.5 -112z" />
    <glyph glyph-name="Q.ss02" horiz-adv-x="1748" 
d="M1628 717q0 -296 -203 -512l203 -180l-94 -107l-217 195q-196 -138 -443 -138q-202 -4 -377.5 96t-277.5 273t-98 373q-3 150 57 288.5t161.5 238.5t242 158.5t292.5 55.5q152 3 292.5 -55.5t242.5 -158.5t162 -238.5t57 -288.5zM874 123q118 -2 228.5 45t190 127
t126.5 191t45 231q2 120 -45 231t-126.5 191t-190 127t-228.5 45q-118 2 -228 -45t-190 -127t-126.5 -191t-44.5 -231q-2 -120 44.5 -231t126.5 -191t190 -127t228 -45z" />
    <glyph glyph-name="R.c2sc" horiz-adv-x="933" 
d="M848 0h-195l-340 422v-422h-149v1004h299q158 0 258 -87t100 -225q0 -123 -80 -208.5t-211 -104.5zM313 868v-372h150q93 0 150 51.5t57 134.5t-57 134.5t-150 51.5h-150z" />
    <glyph glyph-name="Racute.c2sc" horiz-adv-x="933" 
d="M848 0h-195l-340 422v-422h-149v1004h299q158 0 258 -87t100 -225q0 -123 -80 -208.5t-211 -104.5zM313 868v-372h150q93 0 150 51.5t57 134.5t-57 134.5t-150 51.5h-150zM297 1167l-68 117l412 250l78 -129z" />
    <glyph glyph-name="Rcaron.c2sc" horiz-adv-x="933" 
d="M848 0h-195l-340 422v-422h-149v1004h299q158 0 258 -87t100 -225q0 -123 -80 -208.5t-211 -104.5zM313 868v-372h150q93 0 150 51.5t57 134.5t-57 134.5t-150 51.5h-150zM680 1538l84 -88l-307 -285l-307 285l83 88l224 -197z" />
    <glyph glyph-name="uni0156.c2sc" horiz-adv-x="933" 
d="M848 0h-195l-340 422v-422h-149v1004h299q158 0 258 -87t100 -225q0 -123 -80 -208.5t-211 -104.5zM313 868v-372h150q93 0 150 51.5t57 134.5t-57 134.5t-150 51.5h-150zM289 -545l129 422h145l-145 -401z" />
    <glyph glyph-name="S.c2sc" horiz-adv-x="851" 
d="M92 84l27 145q157 -112 287 -112q88 0 138 42t50 115q0 61 -40.5 98.5t-152.5 73.5l-41 15q-114 38 -174.5 113t-60.5 174q0 120 85 198t218 78q134 0 268 -78l-30 -143q-124 84 -242 84q-73 0 -114.5 -36.5t-41.5 -98.5q0 -53 37.5 -90t132.5 -68l41 -14
q127 -41 193.5 -118t66.5 -183q0 -132 -90.5 -215.5t-236.5 -83.5q-82 0 -166.5 27.5t-153.5 76.5z" />
    <glyph glyph-name="Sacute.c2sc" horiz-adv-x="851" 
d="M92 84l27 145q157 -112 287 -112q88 0 138 42t50 115q0 61 -40.5 98.5t-152.5 73.5l-41 15q-114 38 -174.5 113t-60.5 174q0 120 85 198t218 78q134 0 268 -78l-30 -143q-124 84 -242 84q-73 0 -114.5 -36.5t-41.5 -98.5q0 -53 37.5 -90t132.5 -68l41 -14
q127 -41 193.5 -118t66.5 -183q0 -132 -90.5 -215.5t-236.5 -83.5q-82 0 -166.5 27.5t-153.5 76.5zM254 1167l-68 117l412 250l78 -129z" />
    <glyph glyph-name="Scaron.c2sc" horiz-adv-x="851" 
d="M92 84l27 145q157 -112 287 -112q88 0 138 42t50 115q0 61 -40.5 98.5t-152.5 73.5l-41 15q-114 38 -174.5 113t-60.5 174q0 120 85 198t218 78q134 0 268 -78l-30 -143q-124 84 -242 84q-73 0 -114.5 -36.5t-41.5 -98.5q0 -53 37.5 -90t132.5 -68l41 -14
q127 -41 193.5 -118t66.5 -183q0 -132 -90.5 -215.5t-236.5 -83.5q-82 0 -166.5 27.5t-153.5 76.5zM637 1538l84 -88l-307 -285l-308 285l84 88l224 -197z" />
    <glyph glyph-name="Scedilla.c2sc" horiz-adv-x="851" 
d="M465 -16l-201 -353l-139 95l203 260q-130 25 -236 98l27 145q157 -112 287 -112q88 0 138 42t50 115q0 61 -40.5 98.5t-152.5 73.5l-41 15q-114 38 -174.5 113t-60.5 174q0 120 85 198t218 78q134 0 268 -78l-30 -143q-124 84 -242 84q-73 0 -114.5 -36.5t-41.5 -98.5
q0 -53 37.5 -90t132.5 -68l41 -14q127 -41 193.5 -118t66.5 -183q0 -120 -75 -201.5t-199 -93.5z" />
    <glyph glyph-name="Scircumflex.c2sc" horiz-adv-x="851" 
d="M92 84l27 145q157 -112 287 -112q88 0 138 42t50 115q0 61 -40.5 98.5t-152.5 73.5l-41 15q-114 38 -174.5 113t-60.5 174q0 120 85 198t218 78q134 0 268 -78l-30 -143q-124 84 -242 84q-73 0 -114.5 -36.5t-41.5 -98.5q0 -53 37.5 -90t132.5 -68l41 -14
q127 -41 193.5 -118t66.5 -183q0 -132 -90.5 -215.5t-236.5 -83.5q-82 0 -166.5 27.5t-153.5 76.5zM719 1251l-84 -88l-223 197l-224 -197l-84 88l308 285z" />
    <glyph glyph-name="uni0218.c2sc" horiz-adv-x="851" 
d="M92 84l27 145q157 -112 287 -112q88 0 138 42t50 115q0 61 -40.5 98.5t-152.5 73.5l-41 15q-114 38 -174.5 113t-60.5 174q0 120 85 198t218 78q134 0 268 -78l-30 -143q-124 84 -242 84q-73 0 -114.5 -36.5t-41.5 -98.5q0 -53 37.5 -90t132.5 -68l41 -14
q127 -41 193.5 -118t66.5 -183q0 -132 -90.5 -215.5t-236.5 -83.5q-82 0 -166.5 27.5t-153.5 76.5zM246 -545l129 422h145l-145 -401z" />
    <glyph glyph-name="uni1E9E.alt" horiz-adv-x="1454" 
d="M1341 453q0 -203 -142 -340.5t-355 -137.5q-230 0 -395 183l86 137q68 -83 141.5 -127.5t169.5 -44.5q142 0 237 93t95 233q0 134 -90 225.5t-254 91.5q-76 0 -150 -12l309 532h-655v-1286h-156v1434h1080l-330 -545q175 -3 292 -128t117 -308z" />
    <glyph glyph-name="T.c2sc" horiz-adv-x="845" 
d="M821 864h-323v-864h-150v864h-323l26 140h744z" />
    <glyph glyph-name="T.c2sc.ss10" horiz-adv-x="841" 
d="M819 1004l-26 -140h-297v-864h-150v864h-311v140h784z" />
    <glyph glyph-name="T.ss10" horiz-adv-x="1075" 
d="M1030 1434l-29 -148h-387v-1286h-155v1286h-402v148h973z" />
    <glyph glyph-name="Tbar.c2sc" horiz-adv-x="845" 
d="M498 864v-299h231v-127h-231v-438h-150v438h-231v127h231v299h-323l26 140h744l26 -140h-323z" />
    <glyph glyph-name="Tbar.ss10" horiz-adv-x="1075" 
d="M1001 1286h-387v-475h283v-147h-283v-664h-155v664h-283v147h283v475h-402v148h973z" />
    <glyph glyph-name="Tcaron.c2sc" horiz-adv-x="845" 
d="M821 864h-323v-864h-150v864h-323l26 140h744zM649 1538l84 -88l-307 -285l-307 285l84 88l223 -197z" />
    <glyph glyph-name="Tcaron.c2sc.ss10" horiz-adv-x="841" 
d="M819 1004l-26 -140h-297v-864h-150v864h-311v140h784zM647 1538l84 -88l-307 -285l-307 285l84 88l223 -197z" />
    <glyph glyph-name="Tcaron.ss10" horiz-adv-x="1075" 
d="M1030 1434l-29 -148h-387v-1286h-155v1286h-402v148h973zM760 1939l84 -88l-307 -284l-308 284l84 88l224 -196z" />
    <glyph glyph-name="uni0162.c2sc" horiz-adv-x="845" 
d="M821 864h-323v-864h-150v864h-323l26 140h744zM258 -545l129 422h145l-145 -401z" />
    <glyph glyph-name="uni0162.c2sc.ss10" horiz-adv-x="841" 
d="M819 1004l-26 -140h-297v-864h-150v864h-311v140h784zM256 -545l129 422h145l-145 -401z" />
    <glyph glyph-name="uni0162.ss10" horiz-adv-x="1075" 
d="M1030 1434l-29 -148h-387v-1286h-155v1286h-402v148h973zM371 -545l129 422h145l-145 -401z" />
    <glyph glyph-name="uni021A.c2sc" horiz-adv-x="845" 
d="M821 864h-323v-864h-150v864h-323l26 140h744zM258 -545l129 422h145l-145 -401z" />
    <glyph glyph-name="uni021A.c2sc.ss10" horiz-adv-x="841" 
d="M819 1004l-26 -140h-297v-864h-150v864h-311v140h784zM256 -545l129 422h145l-145 -401z" />
    <glyph glyph-name="uni021A.ss10" horiz-adv-x="1075" 
d="M1030 1434l-29 -148h-387v-1286h-155v1286h-402v148h973zM371 -545l129 422h145l-145 -401z" />
    <glyph glyph-name="U.c2sc" horiz-adv-x="1093" 
d="M143 397v592l150 29v-608q0 -129 68.5 -206t185.5 -77t185.5 77t68.5 206v579l149 29v-623q0 -185 -111 -298t-292 -113q-180 0 -292 113.5t-112 299.5z" />
    <glyph glyph-name="U.c2sc.ss03" horiz-adv-x="1114" 
d="M801 989l149 29v-1018h-141v115q-109 -133 -297 -133q-164 0 -266.5 106t-102.5 287v614l150 29v-629q0 -127 65 -196.5t177 -69.5q118 0 192 79t74 208v579z" />
    <glyph glyph-name="U.ss03" horiz-adv-x="1396" 
d="M1059 1419l155 29v-1448h-147v188q-68 -103 -173.5 -158t-238.5 -55q-220 0 -356.5 144.5t-136.5 384.5v915l155 29v-928q0 -185 98 -291t263 -106q172 0 276.5 119t104.5 317v860z" />
    <glyph glyph-name="Uacute.c2sc" horiz-adv-x="1093" 
d="M143 397v592l150 29v-608q0 -129 68.5 -206t185.5 -77t185.5 77t68.5 206v579l149 29v-623q0 -185 -111 -298t-292 -113q-180 0 -292 113.5t-112 299.5zM389 1167l-67 117l411 250l78 -129z" />
    <glyph glyph-name="Uacute.c2sc.ss03" horiz-adv-x="1114" 
d="M801 989l149 29v-1018h-141v115q-109 -133 -297 -133q-164 0 -266.5 106t-102.5 287v614l150 29v-629q0 -127 65 -196.5t177 -69.5q118 0 192 79t74 208v579zM389 1167l-67 117l411 250l78 -129z" />
    <glyph glyph-name="Uacute.ss03" horiz-adv-x="1396" 
d="M1059 1419l155 29v-1448h-147v188q-68 -103 -173.5 -158t-238.5 -55q-220 0 -356.5 144.5t-136.5 384.5v915l155 29v-928q0 -185 98 -291t263 -106q172 0 276.5 119t104.5 317v860zM516 1585l-55 123l475 229l65 -137z" />
    <glyph glyph-name="Ubreve.c2sc" horiz-adv-x="1093" 
d="M143 397v592l150 29v-608q0 -129 68.5 -206t185.5 -77t185.5 77t68.5 206v579l149 29v-623q0 -185 -111 -298t-292 -113q-180 0 -292 113.5t-112 299.5zM240 1493h127q0 -77 51.5 -128.5t128.5 -51.5t128.5 51.5t51.5 128.5h127q0 -129 -88.5 -217t-218.5 -88t-218.5 88
t-88.5 217z" />
    <glyph glyph-name="Ubreve.c2sc.ss03" horiz-adv-x="1114" 
d="M801 989l149 29v-1018h-141v115q-109 -133 -297 -133q-164 0 -266.5 106t-102.5 287v614l150 29v-629q0 -127 65 -196.5t177 -69.5q118 0 192 79t74 208v579zM240 1493h127q0 -77 51.5 -128.5t128.5 -51.5t128.5 51.5t51.5 128.5h127q0 -129 -88.5 -217t-218.5 -88
t-218.5 88t-88.5 217z" />
    <glyph glyph-name="Ubreve.ss03" horiz-adv-x="1396" 
d="M1059 1419l155 29v-1448h-147v188q-68 -103 -173.5 -158t-238.5 -55q-220 0 -356.5 144.5t-136.5 384.5v915l155 29v-928q0 -185 98 -291t263 -106q172 0 276.5 119t104.5 317v860zM365 1882h127q0 -77 56 -128.5t140 -51.5q85 0 141 51.5t56 128.5h127q0 -129 -93 -217
t-231 -88t-230.5 88t-92.5 217z" />
    <glyph glyph-name="Ucircumflex.c2sc" horiz-adv-x="1093" 
d="M143 397v592l150 29v-608q0 -129 68.5 -206t185.5 -77t185.5 77t68.5 206v579l149 29v-623q0 -185 -111 -298t-292 -113q-180 0 -292 113.5t-112 299.5zM854 1251l-84 -88l-223 197l-223 -197l-84 88l307 285z" />
    <glyph glyph-name="Ucircumflex.c2sc.ss03" horiz-adv-x="1114" 
d="M801 989l149 29v-1018h-141v115q-109 -133 -297 -133q-164 0 -266.5 106t-102.5 287v614l150 29v-629q0 -127 65 -196.5t177 -69.5q118 0 192 79t74 208v579zM854 1251l-84 -88l-223 197l-223 -197l-84 88l307 285z" />
    <glyph glyph-name="Ucircumflex.ss03" horiz-adv-x="1396" 
d="M1059 1419l155 29v-1448h-147v188q-68 -103 -173.5 -158t-238.5 -55q-220 0 -356.5 144.5t-136.5 384.5v915l155 29v-928q0 -185 98 -291t263 -106q172 0 276.5 119t104.5 317v860zM995 1665l-84 -88l-223 197l-223 -197l-84 88l307 285z" />
    <glyph glyph-name="Udieresis.c2sc" horiz-adv-x="1093" 
d="M143 397v592l150 29v-608q0 -129 68.5 -206t185.5 -77t185.5 77t68.5 206v579l149 29v-623q0 -185 -111 -298t-292 -113q-180 0 -292 113.5t-112 299.5zM262 1333q0 41 28.5 70t69.5 29t70 -29t29 -70t-29 -69.5t-70 -28.5t-69.5 28.5t-28.5 69.5zM635 1333q0 41 28.5 70
t69.5 29t69.5 -29t28.5 -70t-28.5 -69.5t-69.5 -28.5t-69.5 28.5t-28.5 69.5z" />
    <glyph glyph-name="Udieresis.c2sc.ss03" horiz-adv-x="1114" 
d="M801 989l149 29v-1018h-141v115q-109 -133 -297 -133q-164 0 -266.5 106t-102.5 287v614l150 29v-629q0 -127 65 -196.5t177 -69.5q118 0 192 79t74 208v579zM262 1333q0 41 28.5 70t69.5 29t70 -29t29 -70t-29 -69.5t-70 -28.5t-69.5 28.5t-28.5 69.5zM635 1333
q0 41 28.5 70t69.5 29t69.5 -29t28.5 -70t-28.5 -69.5t-69.5 -28.5t-69.5 28.5t-28.5 69.5z" />
    <glyph glyph-name="Udieresis.c2sc.ss03.ss08" horiz-adv-x="1114" 
d="M801 989l149 29v-1018h-141v115q-109 -133 -297 -133q-164 0 -266.5 106t-102.5 287v614l150 29v-629q0 -127 65 -196.5t177 -69.5q118 0 192 79t74 208v579zM360 1217l-116 116l116 117l117 -117zM733 1217l-117 116l117 117l117 -117z" />
    <glyph glyph-name="Udieresis.c2sc.ss08" horiz-adv-x="1093" 
d="M143 397v592l150 29v-608q0 -129 68.5 -206t185.5 -77t185.5 77t68.5 206v579l149 29v-623q0 -185 -111 -298t-292 -113q-180 0 -292 113.5t-112 299.5zM360 1217l-116 116l116 117l117 -117zM733 1217l-117 116l117 117l117 -117z" />
    <glyph glyph-name="Udieresis.ss03" horiz-adv-x="1396" 
d="M1059 1419l155 29v-1448h-147v188q-68 -103 -173.5 -158t-238.5 -55q-220 0 -356.5 144.5t-136.5 384.5v915l155 29v-928q0 -185 98 -291t263 -106q172 0 276.5 119t104.5 317v860zM330 1741q0 47 32.5 79.5t79.5 32.5t80 -32.5t33 -79.5t-33 -80t-80 -33t-79.5 33
t-32.5 80zM821 1741q0 47 33 79.5t80 32.5t80 -32.5t33 -79.5t-33 -80t-80 -33t-80 33t-33 80z" />
    <glyph glyph-name="Udieresis.ss03.ss08" horiz-adv-x="1396" 
d="M1059 1419l155 29v-1448h-147v188q-68 -103 -173.5 -158t-238.5 -55q-220 0 -356.5 144.5t-136.5 384.5v915l155 29v-928q0 -185 98 -291t263 -106q172 0 276.5 119t104.5 317v860zM442 1608l-133 133l133 133l133 -133zM934 1608l-133 133l133 133l133 -133z" />
    <glyph glyph-name="Udieresis.ss08" horiz-adv-x="1376" 
d="M162 543v876l155 29v-889q0 -198 101.5 -317t269.5 -119t269.5 119t101.5 317v860l155 29v-905q0 -253 -145.5 -410.5t-380.5 -157.5t-380.5 157.5t-145.5 410.5zM442 1608l-133 133l133 133l133 -133zM934 1608l-133 133l133 133l133 -133z" />
    <glyph glyph-name="Ugrave.c2sc" horiz-adv-x="1093" 
d="M143 397v592l150 29v-608q0 -129 68.5 -206t185.5 -77t185.5 77t68.5 206v579l149 29v-623q0 -185 -111 -298t-292 -113q-180 0 -292 113.5t-112 299.5zM725 1167l-422 238l78 129l412 -250z" />
    <glyph glyph-name="Ugrave.c2sc.ss03" horiz-adv-x="1114" 
d="M801 989l149 29v-1018h-141v115q-109 -133 -297 -133q-164 0 -266.5 106t-102.5 287v614l150 29v-629q0 -127 65 -196.5t177 -69.5q118 0 192 79t74 208v579zM725 1167l-422 238l78 129l412 -250z" />
    <glyph glyph-name="Ugrave.ss03" horiz-adv-x="1396" 
d="M1059 1419l155 29v-1448h-147v188q-68 -103 -173.5 -158t-238.5 -55q-220 0 -356.5 144.5t-136.5 384.5v915l155 29v-928q0 -185 98 -291t263 -106q172 0 276.5 119t104.5 317v860zM860 1585l-485 215l65 137l475 -229z" />
    <glyph glyph-name="Uhungarumlaut.c2sc" horiz-adv-x="1093" 
d="M143 397v592l150 29v-608q0 -129 68.5 -206t185.5 -77t185.5 77t68.5 206v579l149 29v-623q0 -185 -111 -298t-292 -113q-180 0 -292 113.5t-112 299.5zM309 1188l154 328h182l-207 -328h-129zM637 1188l154 328h182l-207 -328h-129z" />
    <glyph glyph-name="Uhungarumlaut.c2sc.ss03" horiz-adv-x="1114" 
d="M801 989l149 29v-1018h-141v115q-109 -133 -297 -133q-164 0 -266.5 106t-102.5 287v614l150 29v-629q0 -127 65 -196.5t177 -69.5q118 0 192 79t74 208v579zM309 1188l154 328h182l-207 -328h-129zM637 1188l154 328h182l-207 -328h-129z" />
    <glyph glyph-name="Uhungarumlaut.ss03" horiz-adv-x="1396" 
d="M1059 1419l155 29v-1448h-147v188q-68 -103 -173.5 -158t-238.5 -55q-220 0 -356.5 144.5t-136.5 384.5v915l155 29v-928q0 -185 98 -291t263 -106q172 0 276.5 119t104.5 317v860zM438 1589l154 316h194l-206 -316h-142zM778 1589l154 316h194l-206 -316h-142z" />
    <glyph glyph-name="Umacron.c2sc" horiz-adv-x="1093" 
d="M143 397v592l150 29v-608q0 -129 68.5 -206t185.5 -77t185.5 77t68.5 206v579l149 29v-623q0 -185 -111 -298t-292 -113q-180 0 -292 113.5t-112 299.5zM260 1292v131h574v-131h-574z" />
    <glyph glyph-name="Umacron.c2sc.ss03" horiz-adv-x="1114" 
d="M801 989l149 29v-1018h-141v115q-109 -133 -297 -133q-164 0 -266.5 106t-102.5 287v614l150 29v-629q0 -127 65 -196.5t177 -69.5q118 0 192 79t74 208v579zM260 1292v131h574v-131h-574z" />
    <glyph glyph-name="Umacron.ss03" horiz-adv-x="1396" 
d="M1059 1419l155 29v-1448h-147v188q-68 -103 -173.5 -158t-238.5 -55q-220 0 -356.5 144.5t-136.5 384.5v915l155 29v-928q0 -185 98 -291t263 -106q172 0 276.5 119t104.5 317v860zM381 1702v131h614v-131h-614z" />
    <glyph glyph-name="Uogonek.c2sc" horiz-adv-x="1093" 
d="M801 989l149 29v-623q0 -235 -178 -352q-121 -83 -121 -152q0 -31 21 -50t53 -19q20 0 47 6v-117q-45 -10 -74 -10q-76 0 -126 49.5t-50 122.5q0 58 35 111h-10q-180 0 -292 113.5t-112 299.5v592l150 29v-608q0 -129 68.5 -206t185.5 -77t185.5 77t68.5 206v579z" />
    <glyph glyph-name="Uogonek.c2sc.ss03" horiz-adv-x="1114" 
d="M829 -152q0 -31 21 -50t53 -19q20 0 47 6v-117q-45 -10 -73 -10q-76 0 -126.5 49.5t-50.5 122.5q0 105 109 188v97q-109 -133 -297 -133q-164 0 -266.5 106t-102.5 287v614l150 29v-629q0 -127 65 -196.5t177 -69.5q118 0 192 79t74 208v579l149 29v-1018
q-121 -78 -121 -152z" />
    <glyph glyph-name="Uogonek.ss03" horiz-adv-x="1396" 
d="M1083 -164q0 -33 22.5 -54.5t57.5 -21.5q24 0 51 9v-127q-57 -11 -79 -11q-81 0 -136 54t-55 131q0 118 123 207v165q-68 -103 -173.5 -158t-238.5 -55q-220 0 -356.5 144.5t-136.5 384.5v915l155 29v-928q0 -185 98 -291t263 -106q172 0 276.5 119t104.5 317v860l155 29
v-1448q-131 -88 -131 -164z" />
    <glyph glyph-name="Uring.c2sc" horiz-adv-x="1093" 
d="M143 397v592l150 29v-608q0 -129 68.5 -206t185.5 -77t185.5 77t68.5 206v579l149 29v-623q0 -185 -111 -298t-292 -113q-180 0 -292 113.5t-112 299.5zM311 1376q0 94 69 160t167 66t166.5 -66t68.5 -160t-68.5 -159.5t-166.5 -65.5t-167 65.5t-69 159.5zM670 1376
q0 53 -35.5 88t-87.5 35q-54 0 -88.5 -34.5t-34.5 -88.5q0 -52 35 -87.5t88 -35.5q51 0 87 36t36 87z" />
    <glyph glyph-name="Uring.c2sc.ss03" horiz-adv-x="1114" 
d="M801 989l149 29v-1018h-141v115q-109 -133 -297 -133q-164 0 -266.5 106t-102.5 287v614l150 29v-629q0 -127 65 -196.5t177 -69.5q118 0 192 79t74 208v579zM311 1376q0 94 69 160t167 66t166.5 -66t68.5 -160t-68.5 -159.5t-166.5 -65.5t-167 65.5t-69 159.5zM670 1376
q0 53 -35.5 88t-87.5 35q-54 0 -88.5 -34.5t-34.5 -88.5q0 -52 35 -87.5t88 -35.5q51 0 87 36t36 87z" />
    <glyph glyph-name="Uring.ss03" horiz-adv-x="1396" 
d="M1059 1419l155 29v-1448h-147v188q-68 -103 -173.5 -158t-238.5 -55q-220 0 -356.5 144.5t-136.5 384.5v915l155 29v-928q0 -185 98 -291t263 -106q172 0 276.5 119t104.5 317v860zM446 1765q0 94 70.5 161t171.5 67t171.5 -67t70.5 -161t-70.5 -160.5t-171.5 -66.5
t-171.5 66.5t-70.5 160.5zM815 1765q0 54 -36.5 89.5t-90.5 35.5t-90.5 -35.5t-36.5 -89.5t36.5 -89.5t90.5 -35.5t90.5 35.5t36.5 89.5z" />
    <glyph glyph-name="Utilde.c2sc" horiz-adv-x="1093" 
d="M143 397v592l150 29v-608q0 -129 68.5 -206t185.5 -77t185.5 77t68.5 206v579l149 29v-623q0 -185 -111 -298t-292 -113q-180 0 -292 113.5t-112 299.5zM518 1300q-4 2 -13.5 7.5t-13 7.5t-11 6t-11 5.5t-9.5 4t-9.5 3.5t-8.5 3t-9 2.5t-9 1t-10 0.5q-37 0 -60.5 -26
t-23.5 -64h-115q0 95 56 154t145 59q44 0 78 -13.5t81 -43.5q33 -18 43.5 -23.5t28 -11.5t33.5 -6q37 0 60.5 26t23.5 64h115q0 -95 -56 -154t-145 -59q-44 0 -78.5 13.5t-81.5 43.5z" />
    <glyph glyph-name="Utilde.c2sc.ss03" horiz-adv-x="1114" 
d="M801 989l149 29v-1018h-141v115q-109 -133 -297 -133q-164 0 -266.5 106t-102.5 287v614l150 29v-629q0 -127 65 -196.5t177 -69.5q118 0 192 79t74 208v579zM518 1300q-4 2 -13.5 7.5t-13 7.5t-11 6t-11 5.5t-9.5 4t-9.5 3.5t-8.5 3t-9 2.5t-9 1t-10 0.5
q-37 0 -60.5 -26t-23.5 -64h-115q0 95 56 154t145 59q44 0 78 -13.5t81 -43.5q33 -18 43.5 -23.5t28 -11.5t33.5 -6q37 0 60.5 26t23.5 64h115q0 -95 -56 -154t-145 -59q-44 0 -78.5 13.5t-81.5 43.5z" />
    <glyph glyph-name="Utilde.ss03" horiz-adv-x="1396" 
d="M1059 1419l155 29v-1448h-147v188q-68 -103 -173.5 -158t-238.5 -55q-220 0 -356.5 144.5t-136.5 384.5v915l155 29v-928q0 -185 98 -291t263 -106q172 0 276.5 119t104.5 317v860zM655 1731q-21 13 -55.5 27t-54.5 14q-38 0 -64 -26.5t-26 -64.5h-115q0 95 58 154
t151 59q45 0 81 -13t91 -44q21 -13 55.5 -27t54.5 -14q38 0 64.5 26t26.5 64h114q0 -95 -58 -154t-151 -59q-31 0 -61.5 8t-51 18.5t-59.5 31.5z" />
    <glyph glyph-name="V.c2sc" horiz-adv-x="1044" 
d="M844 1004h170l-492 -1045l-491 1045h170l321 -723z" />
    <glyph glyph-name="W.c2sc" horiz-adv-x="1597" 
d="M1556 1004l-430 -1045l-327 758l-328 -758l-430 1045h164l270 -707l324 747l323 -747l271 707h163z" />
    <glyph glyph-name="W.c2sc.ss04" horiz-adv-x="1460" 
d="M1430 1004l-492 -1045l-207 442l-209 -442l-491 1045h170l321 -723l129 288l-205 435h170l115 -256l113 256h170l-205 -435l129 -288l322 723h170z" />
    <glyph glyph-name="W.ss04" horiz-adv-x="2019" 
d="M1978 1434l-665 -1485l-303 649l-301 -649l-668 1485h166l508 -1147l219 475l-313 672h157l232 -506l231 506h158l-314 -672l220 -475l507 1147h166z" />
    <glyph glyph-name="Wacute.c2sc" horiz-adv-x="1597" 
d="M1556 1004l-430 -1045l-327 758l-328 -758l-430 1045h164l270 -707l324 747l323 -747l271 707h163zM641 1167l-68 117l412 250l78 -129z" />
    <glyph glyph-name="Wacute.c2sc.ss04" horiz-adv-x="1460" 
d="M1430 1004l-492 -1045l-207 442l-209 -442l-491 1045h170l321 -723l129 288l-205 435h170l115 -256l113 256h170l-205 -435l129 -288l322 723h170zM571 1167l-67 117l411 250l78 -129z" />
    <glyph glyph-name="Wacute.ss04" horiz-adv-x="2019" 
d="M1978 1434l-665 -1485l-303 649l-301 -649l-668 1485h166l508 -1147l219 475l-313 672h157l232 -506l231 506h158l-314 -672l220 -475l507 1147h166zM838 1585l-56 123l475 229l66 -137z" />
    <glyph glyph-name="Wcircumflex.c2sc" horiz-adv-x="1597" 
d="M1556 1004l-430 -1045l-327 758l-328 -758l-430 1045h164l270 -707l324 747l323 -747l271 707h163zM1106 1251l-84 -88l-223 197l-224 -197l-83 88l307 285z" />
    <glyph glyph-name="Wcircumflex.c2sc.ss04" horiz-adv-x="1460" 
d="M1430 1004l-492 -1045l-207 442l-209 -442l-491 1045h170l321 -723l129 288l-205 435h170l115 -256l113 256h170l-205 -435l129 -288l322 723h170zM1036 1251l-84 -88l-223 197l-223 -197l-84 88l307 285z" />
    <glyph glyph-name="Wcircumflex.ss04" horiz-adv-x="2019" 
d="M1978 1434l-665 -1485l-303 649l-301 -649l-668 1485h166l508 -1147l219 475l-313 672h157l232 -506l231 506h158l-314 -672l220 -475l507 1147h166zM1317 1665l-84 -88l-223 197l-224 -197l-84 88l308 285z" />
    <glyph glyph-name="Wdieresis.c2sc" horiz-adv-x="1597" 
d="M1556 1004l-430 -1045l-327 758l-328 -758l-430 1045h164l270 -707l324 747l323 -747l271 707h163zM514 1333q0 41 28.5 70t69.5 29t70 -29t29 -70t-29 -69.5t-70 -28.5t-69.5 28.5t-28.5 69.5zM887 1333q0 41 28.5 70t69.5 29t69.5 -29t28.5 -70t-28.5 -69.5
t-69.5 -28.5t-69.5 28.5t-28.5 69.5z" />
    <glyph glyph-name="Wdieresis.c2sc.ss04" horiz-adv-x="1460" 
d="M1430 1004l-492 -1045l-207 442l-209 -442l-491 1045h170l321 -723l129 288l-205 435h170l115 -256l113 256h170l-205 -435l129 -288l322 723h170zM444 1333q0 41 29 70t70 29t69.5 -29t28.5 -70t-28.5 -69.5t-69.5 -28.5t-70 28.5t-29 69.5zM817 1333q0 41 28.5 70
t69.5 29t70 -29t29 -70t-29 -69.5t-70 -28.5t-69.5 28.5t-28.5 69.5z" />
    <glyph glyph-name="Wdieresis.c2sc.ss04.ss08" horiz-adv-x="1460" 
d="M1430 1004l-492 -1045l-207 442l-209 -442l-491 1045h170l321 -723l129 288l-205 435h170l115 -256l113 256h170l-205 -435l129 -288l322 723h170zM543 1217l-117 116l117 117l116 -117zM915 1217l-116 116l116 117l117 -117z" />
    <glyph glyph-name="Wdieresis.c2sc.ss08" horiz-adv-x="1597" 
d="M1556 1004l-430 -1045l-327 758l-328 -758l-430 1045h164l270 -707l324 747l323 -747l271 707h163zM612 1217l-116 116l116 117l117 -117zM985 1217l-117 116l117 117l117 -117z" />
    <glyph glyph-name="Wdieresis.ss04" horiz-adv-x="2019" 
d="M1978 1434l-665 -1485l-303 649l-301 -649l-668 1485h166l508 -1147l219 475l-313 672h157l232 -506l231 506h158l-314 -672l220 -475l507 1147h166zM651 1741q0 47 33 79.5t80 32.5t80 -32.5t33 -79.5t-33 -80t-80 -33t-80 33t-33 80zM1143 1741q0 47 32.5 79.5
t79.5 32.5t80 -32.5t33 -79.5t-33 -80t-80 -33t-79.5 33t-32.5 80z" />
    <glyph glyph-name="Wdieresis.ss04.ss08" horiz-adv-x="2019" 
d="M1978 1434l-665 -1485l-303 649l-301 -649l-668 1485h166l508 -1147l219 475l-313 672h157l232 -506l231 506h158l-314 -672l220 -475l507 1147h166zM764 1608l-133 133l133 133l133 -133zM1255 1608l-133 133l133 133l134 -133z" />
    <glyph glyph-name="Wdieresis.ss08" horiz-adv-x="2031" 
d="M1980 1434l-505 -1485l-459 1130l-459 -1130l-506 1485h162l358 -1067l445 1091l444 -1091l359 1067h161zM770 1608l-133 133l133 133l133 -133zM1262 1608l-134 133l134 133l133 -133z" />
    <glyph glyph-name="Wgrave.c2sc" horiz-adv-x="1597" 
d="M1556 1004l-430 -1045l-327 758l-328 -758l-430 1045h164l270 -707l324 747l323 -747l271 707h163zM977 1167l-422 238l78 129l411 -250z" />
    <glyph glyph-name="Wgrave.c2sc.ss04" horiz-adv-x="1460" 
d="M1430 1004l-492 -1045l-207 442l-209 -442l-491 1045h170l321 -723l129 288l-205 435h170l115 -256l113 256h170l-205 -435l129 -288l322 723h170zM907 1167l-422 238l78 129l412 -250z" />
    <glyph glyph-name="Wgrave.ss04" horiz-adv-x="2019" 
d="M1978 1434l-665 -1485l-303 649l-301 -649l-668 1485h166l508 -1147l219 475l-313 672h157l232 -506l231 506h158l-314 -672l220 -475l507 1147h166zM1182 1585l-486 215l66 137l475 -229z" />
    <glyph glyph-name="X.c2sc" horiz-adv-x="1077" 
d="M1026 0h-188l-299 403l-299 -403h-189l400 518l-375 486h186l277 -375l276 375h186l-374 -486z" />
    <glyph glyph-name="Y.c2sc" horiz-adv-x="968" 
d="M938 1004l-379 -621v-383h-149v383l-379 621h174l280 -476l279 476h174z" />
    <glyph glyph-name="Y.c2sc.ss05" horiz-adv-x="964" 
d="M772 1004h172l-618 -1004h-172l254 395l-371 609h172l280 -476z" />
    <glyph glyph-name="Y.ss05" horiz-adv-x="1191" 
d="M965 1434h172l-748 -1434h-172l309 573l-450 861h172l358 -701z" />
    <glyph glyph-name="Yacute.c2sc" horiz-adv-x="968" 
d="M938 1004l-379 -621v-383h-149v383l-379 621h174l280 -476l279 476h174zM326 1167l-68 117l412 250l78 -129z" />
    <glyph glyph-name="Yacute.c2sc.ss05" horiz-adv-x="964" 
d="M772 1004h172l-618 -1004h-172l254 395l-371 609h172l280 -476zM326 1167l-68 117l412 250l78 -129z" />
    <glyph glyph-name="Yacute.ss05" horiz-adv-x="1191" 
d="M965 1434h172l-748 -1434h-172l309 573l-450 861h172l358 -701zM434 1585l-55 123l475 229l66 -137z" />
    <glyph glyph-name="Ycircumflex.c2sc" horiz-adv-x="968" 
d="M938 1004l-379 -621v-383h-149v383l-379 621h174l280 -476l279 476h174zM791 1251l-84 -88l-224 197l-223 -197l-84 88l307 285z" />
    <glyph glyph-name="Ycircumflex.c2sc.ss05" horiz-adv-x="964" 
d="M772 1004h172l-618 -1004h-172l254 395l-371 609h172l280 -476zM791 1251l-84 -88l-224 197l-223 -197l-84 88l307 285z" />
    <glyph glyph-name="Ycircumflex.ss05" horiz-adv-x="1191" 
d="M965 1434h172l-748 -1434h-172l309 573l-450 861h172l358 -701zM913 1665l-84 -88l-223 197l-223 -197l-84 88l307 285z" />
    <glyph glyph-name="Ydieresis.c2sc" horiz-adv-x="968" 
d="M938 1004l-379 -621v-383h-149v383l-379 621h174l280 -476l279 476h174zM199 1333q0 41 28.5 70t69.5 29t69.5 -29t28.5 -70t-28.5 -69.5t-69.5 -28.5t-69.5 28.5t-28.5 69.5zM571 1333q0 41 29 70t70 29t69.5 -29t28.5 -70t-28.5 -69.5t-69.5 -28.5t-70 28.5t-29 69.5z
" />
    <glyph glyph-name="Ydieresis.c2sc.ss05" horiz-adv-x="964" 
d="M772 1004h172l-618 -1004h-172l254 395l-371 609h172l280 -476zM199 1333q0 41 28.5 70t69.5 29t69.5 -29t28.5 -70t-28.5 -69.5t-69.5 -28.5t-69.5 28.5t-28.5 69.5zM571 1333q0 41 29 70t70 29t69.5 -29t28.5 -70t-28.5 -69.5t-69.5 -28.5t-70 28.5t-29 69.5z" />
    <glyph glyph-name="Ydieresis.c2sc.ss05.ss08" horiz-adv-x="964" 
d="M772 1004h172l-618 -1004h-172l254 395l-371 609h172l280 -476zM297 1217l-117 116l117 117l117 -117zM670 1217l-117 116l117 117l116 -117z" />
    <glyph glyph-name="Ydieresis.c2sc.ss08" horiz-adv-x="968" 
d="M938 1004l-379 -621v-383h-149v383l-379 621h174l280 -476l279 476h174zM297 1217l-117 116l117 117l117 -117zM670 1217l-117 116l117 117l116 -117z" />
    <glyph glyph-name="Ydieresis.ss05" horiz-adv-x="1191" 
d="M965 1434h172l-748 -1434h-172l309 573l-450 861h172l358 -701zM248 1741q0 47 32.5 79.5t79.5 32.5t80 -32.5t33 -79.5t-33 -80t-80 -33t-79.5 33t-32.5 80zM739 1741q0 47 33 79.5t80 32.5t80 -32.5t33 -79.5t-33 -80t-80 -33t-80 33t-33 80z" />
    <glyph glyph-name="Ydieresis.ss05.ss08" horiz-adv-x="1191" 
d="M965 1434h172l-748 -1434h-172l309 573l-450 861h172l358 -701zM360 1608l-133 133l133 133l134 -133zM852 1608l-133 133l133 133l133 -133z" />
    <glyph glyph-name="Ydieresis.ss08" horiz-adv-x="1191" 
d="M1126 1434l-452 -867v-567h-156v567l-452 867h172l358 -703l358 703h172zM350 1608l-133 133l133 133l133 -133zM842 1608l-133 133l133 133l133 -133z" />
    <glyph glyph-name="Ygrave.c2sc" horiz-adv-x="968" 
d="M938 1004l-379 -621v-383h-149v383l-379 621h174l280 -476l279 476h174zM662 1167l-422 238l77 129l412 -250z" />
    <glyph glyph-name="Ygrave.c2sc.ss05" horiz-adv-x="964" 
d="M772 1004h172l-618 -1004h-172l254 395l-371 609h172l280 -476zM662 1167l-422 238l77 129l412 -250z" />
    <glyph glyph-name="Ygrave.ss05" horiz-adv-x="1191" 
d="M965 1434h172l-748 -1434h-172l309 573l-450 861h172l358 -701zM778 1585l-485 215l65 137l476 -229z" />
    <glyph glyph-name="Z.c2sc" horiz-adv-x="1017" 
d="M940 1004l-590 -865h574l-27 -139h-819l590 864h-564l27 140h809z" />
    <glyph glyph-name="Zacute.c2sc" horiz-adv-x="1017" 
d="M940 1004l-590 -865h574l-27 -139h-819l590 864h-564l27 140h809zM350 1167l-67 117l411 250l78 -129z" />
    <glyph glyph-name="Zcaron.c2sc" horiz-adv-x="1017" 
d="M940 1004l-590 -865h574l-27 -139h-819l590 864h-564l27 140h809zM733 1538l84 -88l-307 -285l-307 285l84 88l223 -197z" />
    <glyph glyph-name="Zdotaccent.c2sc" horiz-adv-x="1017" 
d="M940 1004l-590 -865h574l-27 -139h-819l590 864h-564l27 140h809zM406 1352q0 43 29.5 72.5t72.5 29.5t72.5 -29.5t29.5 -72.5t-29.5 -73t-72.5 -30t-72.5 30t-29.5 73z" />
    <glyph glyph-name="Zdotaccent.c2sc.ss08" horiz-adv-x="1017" 
d="M940 1004l-590 -865h574l-27 -139h-819l590 864h-564l27 140h809zM508 1227l-125 125l125 125l125 -125z" />
    <glyph glyph-name="Zdotaccent.ss08" horiz-adv-x="1333" 
d="M1223 1434l-834 -1287h825l-28 -147h-1075l833 1286h-790l28 148h1041zM666 1632l-138 137l138 138l137 -138z" />
    <glyph glyph-name="a.ss11" horiz-adv-x="1179" 
d="M879 889l143 29v-918h-143v135q-62 -74 -149.5 -114.5t-186.5 -40.5q-91 -2 -177 35.5t-148.5 101.5t-99.5 152t-36 182q-1 94 36 182t99.5 152t148.5 101.5t177 35.5q99 0 186.5 -41t149.5 -115v123zM885 451q0 142 -96 241t-232 99q-138 0 -233 -98.5t-95 -241.5
t95 -241.5t233 -98.5q136 0 232 99t96 241z" />
    <glyph glyph-name="aacute.ss11" horiz-adv-x="1179" 
d="M879 889l143 29v-918h-143v135q-62 -74 -149.5 -114.5t-186.5 -40.5q-91 -2 -177 35.5t-148.5 101.5t-99.5 152t-36 182q-1 94 36 182t99.5 152t148.5 101.5t177 35.5q99 0 186.5 -41t149.5 -115v123zM885 451q0 142 -96 241t-232 99q-138 0 -233 -98.5t-95 -241.5
t95 -241.5t233 -98.5q136 0 232 99t96 241zM418 1065l-68 117l412 250l78 -129z" />
    <glyph glyph-name="abreve.ss11" horiz-adv-x="1179" 
d="M879 889l143 29v-918h-143v135q-62 -74 -149.5 -114.5t-186.5 -40.5q-91 -2 -177 35.5t-148.5 101.5t-99.5 152t-36 182q-1 94 36 182t99.5 152t148.5 101.5t177 35.5q99 0 186.5 -41t149.5 -115v123zM885 451q0 142 -96 241t-232 99q-138 0 -233 -98.5t-95 -241.5
t95 -241.5t233 -98.5q136 0 232 99t96 241zM268 1391h127q0 -77 52 -129t128 -52q77 0 129 52t52 129h127q0 -129 -89 -217.5t-219 -88.5t-218.5 88.5t-88.5 217.5z" />
    <glyph glyph-name="acircumflex.ss11" horiz-adv-x="1179" 
d="M879 889l143 29v-918h-143v135q-62 -74 -149.5 -114.5t-186.5 -40.5q-91 -2 -177 35.5t-148.5 101.5t-99.5 152t-36 182q-1 94 36 182t99.5 152t148.5 101.5t177 35.5q99 0 186.5 -41t149.5 -115v123zM885 451q0 142 -96 241t-232 99q-138 0 -233 -98.5t-95 -241.5
t95 -241.5t233 -98.5q136 0 232 99t96 241zM883 1149l-84 -88l-224 196l-223 -196l-84 88l307 285z" />
    <glyph glyph-name="adieresis.ss08" horiz-adv-x="917" 
d="M784 0h-133l-6 61q-94 -81 -225 -81q-141 0 -239.5 96t-98.5 233t98.5 233.5t239.5 96.5q122 0 215 -78v55q0 92 -45.5 134.5t-149.5 42.5q-101 0 -219 -41l27 133q95 33 198 33q161 0 246.5 -74.5t85.5 -214.5v-455zM647 309q0 86 -63 146.5t-152 60.5t-151 -60.5
t-62 -146.5t62 -146.5t151 -60.5t152 60.5t63 146.5zM279 1114l-117 117l117 117l116 -117zM651 1114l-116 117l116 117l117 -117z" />
    </font>
</defs>
</svg>
