<svg id="ef55cfc9-53c5-49ae-967d-686b333ac1da" data-name="IAC" xmlns="http://www.w3.org/2000/svg" viewBox="0 0 400 400"><title>grill</title><path d="M352.91,187.31a84.5,84.5,0,0,0-13.38-39.79q-.89-1.37-1.84-2.72c-1.64-2.32-3.37-4.54-5.15-6.59-1-1.15-1.94-2.2-2.91-3.2a85.25,85.25,0,0,0-16.54-13.51c-2.28-1.43-4.73-2.81-7.32-4.09-1-.49-2-1-3-1.4a84.9,84.9,0,0,0-17.54-5.66,86,86,0,0,0-17.39-1.78,84.58,84.58,0,0,0-46.16,13.6c-1.09.7-2,1.29-2.8,1.87-2.27,1.6-4.49,3.33-6.61,5.14-1.14,1-2.18,1.94-3.2,2.9a85.71,85.71,0,0,0-13.52,16.55c-1.49,2.38-2.86,4.84-4.07,7.29-.52,1-1,2.07-1.42,3A85.47,85.47,0,0,0,188,223.66,84.06,84.06,0,0,0,196.22,240c.58.91,1.21,1.88,1.88,2.81,1.65,2.34,3.38,4.56,5.14,6.59.93,1.08,1.91,2.16,2.9,3.21a85.29,85.29,0,0,0,16.54,13.51c2.27,1.43,4.73,2.81,7.32,4.09,1,.49,2,.95,3,1.4a84.93,84.93,0,0,0,17.54,5.66,86.05,86.05,0,0,0,17.39,1.78,84.58,84.58,0,0,0,46.15-13.6c1.07-.69,2-1.28,2.8-1.87,2.27-1.6,4.49-3.33,6.61-5.14,1.13-1,2.18-1.93,3.2-2.9A85.11,85.11,0,0,0,340.16,239c1.49-2.39,2.87-4.85,4.09-7.3l.12-.24c.46-.93.92-1.85,1.34-2.8a85.4,85.4,0,0,0,7.2-41.37Zm-27.23,53.63q-1.21,1.48-2.48,2.89l-.2-2.69Zm11.49-75,.14,1.81-19.77,1.5L316,149.48l11.3-.86A74.15,74.15,0,0,1,337.17,166Zm5.14,22.15a75.18,75.18,0,0,1,.09,10l-22.54,1.71L318.35,180l22.57-1.72A74.77,74.77,0,0,1,342.31,188.1Zm-20.13,42.26-1.51-19.78,19.78-1.5.12,1.63a74.61,74.61,0,0,1-7.19,18.8Zm-28.23,32.87-1.51-19.77L312.22,242l.85,11.21a74.22,74.22,0,0,1-17.48,9.94Zm-41.33,3.14-1.8.14a74,74,0,0,1-18.62-7.11l-.86-11.29,19.77-1.51Zm-10.8-142,1.51,19.77-19.78,1.51-.87-11.38a74.24,74.24,0,0,1,17.1-9.74Zm2.32,30.55,1.51,19.77-19.77,1.51-1.51-19.77ZM248,205.28l-19.77,1.5L226.69,187l19.78-1.51Zm28.23-32.88-19.77,1.51-1.51-19.78,19.78-1.5Zm-2.32-30.55-19.77,1.5-1.73-22.64a76.74,76.74,0,0,1,9.82-1.4c1.87-.14,3.77-.22,5.65-.22,1.43,0,2.88,0,4.31.13Zm-23.59,94-19.77,1.51L229,217.55l19.78-1.5Zm28.24-32.88-19.78,1.51-1.5-19.77L277,183.18Zm4.62-81.7,2-.15a74.75,74.75,0,0,1,18.45,7.09l.86,11.33L284.65,141Zm23.61,48.83L287,171.57l-1.5-19.77,19.77-1.51Zm-25.91,63.43L261.06,235l-1.5-19.77,19.77-1.51Zm-19,12.28,19.77-1.5,1.72,22.53a75.11,75.11,0,0,1-9.89,1.43c-1.88.14-3.79.22-5.7.22-1.38,0-2.78,0-4.18-.12Zm47.19-45.16-19.78,1.51-1.5-19.78,19.77-1.5Zm2.32,30.55-19.77,1.51-1.51-19.77,19.77-1.51ZM318,138.49l-2.82.22-.21-2.82Q316.54,137.14,318,138.49Zm-98.29,99.66-11.32.87a74.46,74.46,0,0,1-9.81-17.18l-.15-2,19.78-1.5Zm-9.86-91.44q1.29-1.59,2.67-3.11l.22,2.89Zm3.72,10.56L215.09,177l-19.78,1.5-.15-2a74.55,74.55,0,0,1,7.05-18.38Zm3.83,50.33-22.63,1.72a74.74,74.74,0,0,1-1.52-19.78l22.64-1.72Zm.32,41.54,2.82-.22.21,2.82Q219.22,250.48,217.73,249.14Z"/><path d="M267.87,89a104.48,104.48,0,0,0-81.32,38.78q-.92,1.13-1.81,2.3l-.08.11L177.39,141l-.44.45v.17c-27.53,37.23-72.69,63.82-130.64,76.9a19,19,0,0,0-14.86,18.58V279a19.07,19.07,0,0,0,19,19l215.15.55v0c.75,0,1.51,0,2.28,0a104.82,104.82,0,1,0,0-209.64Zm0,198.83a93.94,93.94,0,0,1-81.5-140.76h0l7.17-10.69a94,94,0,1,1,74.33,151.46Zm-217.4-.55A8.24,8.24,0,0,1,42.26,279V237.13a8.21,8.21,0,0,1,6.43-8c48.59-11,87.89-30.58,116.94-58.36a104.9,104.9,0,0,0,55.73,117Z"/></svg>
