<svg id="dd7fc523-e3f1-4649-8075-a6e6b7c56d38" data-name="IAC" xmlns="http://www.w3.org/2000/svg" viewBox="0 0 400 400"><title>harness</title><path d="M371.81,261.85l-19.26-37.46A12.79,12.79,0,0,0,337.25,218l-56.63,18a12.83,12.83,0,0,0-7.52,18.1l6.34,12.33c-13.88,5.64-40.92,16.19-69.89,25.15-71.05,22-94.44,16.44-102.06,11.19-3.87-2.67-5.53-5.89-5.23-10.16,1.15-16.38,31.39-50,112.87-90.71,12.48-6.24,22.49-12.37,29.76-18.23,12.95-10.44,18.16-20.83,15.5-30.89-2.72-10.25-13.63-18.74-32.44-25.25a166.64,166.64,0,0,0-17.33-4.89l2.78-10.36a12.74,12.74,0,0,0-7-14.93L152.18,72.66A12.78,12.78,0,0,0,134.53,81l-10.94,40.8a12.74,12.74,0,0,0,7,14.93l54.16,24.75a12.78,12.78,0,0,0,17.65-8.31l4.81-17.93c17.26,3.78,38.12,11.72,40.57,21,1.53,5.79-5.18,12.67-11.09,17.43-6.54,5.27-15.77,10.9-27.42,16.72-28.39,14.2-52.31,28.36-71.15,42-4.48-3-11.49-7.48-19.82-12.34l.25-.55c2.82-6.42,5.19-12,7.19-16.92l.21.09h0a11.21,11.21,0,0,0,14.65-6.06l9.94-24a11.23,11.23,0,0,0-6.06-14.66l-10.93-4.53a11.23,11.23,0,0,0-14.65,6.06l-9.95,24a11.23,11.23,0,0,0,4.81,14c-1.9,4.66-4.16,10-6.86,16.16l-1.13-.6c-28.71-15.23-48.73-20.28-61.19-15.45-6.64,2.57-11,7.89-12.71,15.37-4.36,19.48,5.68,37.38,24.42,43.52a40.57,40.57,0,0,0,12.64,2c14.87,0,31.22-8,43.29-27,5.24,3.06,10.29,6.19,14.94,9.22C103.54,259.48,90.31,277,89.28,291.75c-.62,8.93,3.12,16.46,10.82,21.77,6.81,4.69,16.72,7,29.87,7,20.11,0,47.79-5.5,83.51-16.55,30.1-9.31,58.15-20.32,71.92-25.93l7,13.53A12.8,12.8,0,0,0,307.66,298l56.63-18a12.83,12.83,0,0,0,7.52-18.1ZM189.94,149.52,136.2,125,147,84.59l53.75,24.56ZM60.37,244c-10.26-3.36-19.12-13.43-15.78-28.33.92-4.13,3-5.42,4.72-6.09a16.47,16.47,0,0,1,5.93-.95c11.07,0,28.53,7.22,45.63,16.33C88.94,243.31,72.67,248.08,60.37,244Zm243.48,41.5-19.11-37.16,56.31-17.93,19.11,37.16Zm56.5-18h0l2,6.19Z"/></svg>
