<svg id="2a106a02-f1d8-4cc7-990d-6318d794f862" data-name="IAC" xmlns="http://www.w3.org/2000/svg" viewBox="0 0 400 400"><title>lamp</title><path d="M270.6,130c-18.2-18.2-43.4-28-70-28-51.8,1.4-95.2,43.4-96.6,96.6,0,30.8,12.6,58.8,37.8,78.4,11.2,9.8,18.2,22.4,18.2,36.4v29.4c0,16.8,11.2,25.2,21,25.2h42c11.2,0,21-9.8,21-21V314.8c0-14,7-29.4,19.6-39.2C287.4,257.4,300,229.4,300,200,300,173.4,288.8,148.2,270.6,130ZM223,354H181c-7,0-7-8.4-7-11.2V326h56v21A6.61,6.61,0,0,1,223,354Zm32.2-89.6c-14.61,12-24.18,30.21-25.12,47.6H174c-.42-17.66-8.76-33.92-23.76-46.2-21-15.4-32.2-40.6-32.2-67.2,1.4-44.8,39.2-82.6,84-82.6,22.4,0,43.4,8.4,58.8,23.8C277.6,156.6,286,177.6,286,200A81.64,81.64,0,0,1,255.2,264.4Z"/><path d="M202,74a6.61,6.61,0,0,0,7-7V39a7,7,0,0,0-14,0V67A6.61,6.61,0,0,0,202,74Z"/><path d="M309.8,82.4,290.2,102a6.77,6.77,0,0,0,0,9.8c1.4,1.4,4.2,1.4,5.6,1.4a14.1,14.1,0,0,0,4.2-1.4l19.6-19.6a6.93,6.93,0,1,0-9.8-9.8Z"/><path d="M363,193H335a7,7,0,0,0,0,14h28a7,7,0,0,0,0-14Z"/><path d="M300,289.6a6.93,6.93,0,0,0-9.8,9.8L309.8,319c1.4,1.4,4.2,1.4,5.6,1.4,2.8,0,4.2,0,4.2-1.4a6.77,6.77,0,0,0,0-9.8Z"/><path d="M102.6,289.6,83,309.2a6.77,6.77,0,0,0,0,9.8c1.4,1.4,4.2,1.4,5.6,1.4a5.14,5.14,0,0,0,4.2-1.4l19.6-19.6a6.93,6.93,0,0,0-9.8-9.8Z"/><path d="M69,193H41a7,7,0,0,0,0,14H69a7,7,0,0,0,0-14Z"/><path d="M102.6,111.8c1.4,1.4,4.2,1.4,5.6,1.4s2.8-1.4,4.2-2.8a6.77,6.77,0,0,0,0-9.8L92.8,81A6.93,6.93,0,1,0,83,90.8Z"/><path d="M202,137a7,7,0,0,0,0,14c26.6,0,49,22.4,49,49a7,7,0,0,0,14,0A62.74,62.74,0,0,0,202,137Z"/></svg>
