<svg id="50e2dc91-cdff-4dd1-b1d0-60abe7eba6fa" data-name="IAC" xmlns="http://www.w3.org/2000/svg" viewBox="0 0 400 400"><title>settings</title><path d="M339.25,159.77H330l-.67-2.09a132.15,132.15,0,0,0-8.5-20.47l-1-1.95,6.57-6.57a27.75,27.75,0,0,0,0-39.24L311.56,74.63a27.75,27.75,0,0,0-39.25,0l-6.58,6.58-1.95-1a132.31,132.31,0,0,0-20.47-8.5L241.23,71V61.75A27.78,27.78,0,0,0,213.48,34h-21a27.78,27.78,0,0,0-27.75,27.75V71l-2.09.67a132.35,132.35,0,0,0-20.47,8.5l-1.95,1-6.57-6.57a27.74,27.74,0,0,0-39.24,0L79.63,89.44a27.75,27.75,0,0,0,0,39.24l6.58,6.58-1,1.95a132.37,132.37,0,0,0-8.5,20.47L76,159.77H66.75A27.78,27.78,0,0,0,39,187.52v21a27.78,27.78,0,0,0,27.75,27.75H76l.67,2.09a132.25,132.25,0,0,0,8.5,20.47l1,1.95-6.57,6.58a27.74,27.74,0,0,0,0,39.24l14.82,14.82a27.75,27.75,0,0,0,39.24,0l6.58-6.58,1.95,1a132.13,132.13,0,0,0,20.47,8.5l2.09.67v9.28A27.78,27.78,0,0,0,192.52,362h21a27.78,27.78,0,0,0,27.75-27.75V325l2.09-.67a132.35,132.35,0,0,0,20.47-8.5l1.95-1,6.57,6.57a27.75,27.75,0,0,0,39.25,0l14.82-14.82a27.74,27.74,0,0,0,0-39.24l-6.58-6.58,1-1.95a132.07,132.07,0,0,0,8.5-20.47l.67-2.09h9.28A27.78,27.78,0,0,0,367,208.48v-21A27.78,27.78,0,0,0,339.25,159.77ZM305.5,258.42a6.78,6.78,0,0,0,1,8.25l10.24,10.24a14.17,14.17,0,0,1,0,20L302,311.78a14.17,14.17,0,0,1-20,0l-10.23-10.24a6.78,6.78,0,0,0-8.25-1,118.36,118.36,0,0,1-30.67,12.73,6.79,6.79,0,0,0-5.09,6.57v14.45a14.19,14.19,0,0,1-14.18,14.18h-21a14.19,14.19,0,0,1-14.18-14.18V319.8a6.78,6.78,0,0,0-5.09-6.57,118.35,118.35,0,0,1-30.68-12.73,6.54,6.54,0,0,0-3.37-1,7.15,7.15,0,0,0-4.89,2l-10.24,10.24a14.17,14.17,0,0,1-20,0L89.22,297a14.17,14.17,0,0,1,0-20l10.23-10.24a6.78,6.78,0,0,0,1-8.25,118.33,118.33,0,0,1-12.73-30.67,6.78,6.78,0,0,0-6.57-5.09H66.75a14.19,14.19,0,0,1-14.18-14.18v-21a14.2,14.2,0,0,1,14.18-14.18H81.2a6.78,6.78,0,0,0,6.57-5.09,118.3,118.3,0,0,1,12.73-30.67,6.78,6.78,0,0,0-1-8.25L89.22,119.09a14.18,14.18,0,0,1,0-20L104,84.22a14.17,14.17,0,0,1,20,0l10.23,10.23a6.79,6.79,0,0,0,8.25,1,118.33,118.33,0,0,1,30.68-12.73,6.78,6.78,0,0,0,5.09-6.57V61.75a14.19,14.19,0,0,1,14.18-14.18h21a14.19,14.19,0,0,1,14.18,14.18V76.2a6.78,6.78,0,0,0,5.09,6.57A118.34,118.34,0,0,1,263.42,95.5a6.78,6.78,0,0,0,8.25-1l10.24-10.24a14.17,14.17,0,0,1,20,0L316.78,99a14.17,14.17,0,0,1,0,20l-10.23,10.23a6.78,6.78,0,0,0-1,8.25,118.4,118.4,0,0,1,12.73,30.68,6.78,6.78,0,0,0,6.57,5.09h14.45a14.19,14.19,0,0,1,14.18,14.18v21a14.19,14.19,0,0,1-14.18,14.18H324.81a6.78,6.78,0,0,0-6.57,5.09A118.33,118.33,0,0,1,305.5,258.42Z"/><path d="M203,128.33A69.67,69.67,0,1,0,272.67,198,69.75,69.75,0,0,0,203,128.33Zm0,125.77A56.1,56.1,0,1,1,259.1,198,56.16,56.16,0,0,1,203,254.1Z"/></svg>
