<svg id="1281800f-ed60-4ef3-a34f-c5cfb1e8df7a" data-name="IAC" xmlns="http://www.w3.org/2000/svg" viewBox="0 0 400 400"><title>swb</title><path d="M268.68,205.51H229.83a7.47,7.47,0,0,0,0,14.95h38.85a7.47,7.47,0,1,0,0-14.95Z"/><path d="M317.66,171.27l-94-94A72.49,72.49,0,0,0,172.55,56H99.9A24.9,24.9,0,0,0,75.07,80.83v257.4A5.77,5.77,0,0,0,80.83,344H221.15a34.35,34.35,0,0,0,30.17-17.91,139.1,139.1,0,0,1,55.7-55.7,34.35,34.35,0,0,0,17.91-30.17V188.83A24.83,24.83,0,0,0,317.66,171.27ZM86.6,80.83a13.31,13.31,0,0,1,13.3-13.3h72.62a61,61,0,0,1,42.95,17.86l94,94a13.32,13.32,0,0,1,3.89,9.41v51.39a22.82,22.82,0,0,1-11.9,20,150.49,150.49,0,0,0-60.3,60.3,22.82,22.82,0,0,1-20,11.9H86.6Z"/><path d="M270.32,178.35a5,5,0,0,0,4.66-3.11h0a5,5,0,0,0-1.09-5.49l-73-73a45.44,45.44,0,0,0-32-13.31H116.79a13.14,13.14,0,0,0-13.12,13.12v76.77a5,5,0,0,0,5,5H270.32Zm-12.17-10.08H218.79V128.91ZM113.75,96.54a3,3,0,0,1,3-3h52a35.35,35.35,0,0,1,24.91,10.36l15,15v49.44h-95Z"/></svg>
