<?xml version="1.0" encoding="utf-8"?>
<!-- Generator: Adobe Illustrator 22.0.1, SVG Export Plug-In . SVG Version: 6.00 Build 0)  -->
<svg version="1.1" id="Layer_1" xmlns="http://www.w3.org/2000/svg" xmlns:xlink="http://www.w3.org/1999/xlink" x="0px" y="0px"
	 viewBox="0 0 40 40" style="enable-background:new 0 0 40 40;" xml:space="preserve">
<path d="M28.7,7.3L28.7,7.3l-13.1,9.4c-1.8,1.3-2,3.7-0.9,5.3c0,0,0,0,0,0.1l0.1,0c0.4,0.5,0.8,0.9,1.4,1.1l0,0l1.9,0.9L11.3,29V4.7
	c0-2.9-3.3-4.6-5.7-2.9v31.3v0c0,2.9,3.3,4.6,5.7,2.9l13.1-9.4l0,0c1.8-1.3,2-3.7,0.9-5.3c0,0,0,0,0-0.1l-0.1,0
	c-0.4-0.5-0.8-0.9-1.4-1.1l-1.9-0.9l6.8-4.9v24.2h0c2.6,1.2,5.7-0.7,5.7-3.6V10.2v0C34.4,7.3,31,5.6,28.7,7.3z"/>
</svg>
