<?xml version="1.0" encoding="utf-8"?>
<!-- Generator: Adobe Illustrator 27.0.0, SVG Export Plug-In . SVG Version: 6.00 Build 0)  -->
<svg version="1.1" id="Layer_1" xmlns="http://www.w3.org/2000/svg" xmlns:xlink="http://www.w3.org/1999/xlink" x="0px" y="0px"
	 viewBox="0 0 1623.8 555.3" enable-background="new 0 0 1623.8 555.3" xml:space="preserve">
<path stroke="#FFFFFF" fill="#FFFFFF" d="M586.2,378.1c-6.2,3.7-12.4,7.4-18.6,11.2c-6.3,3.8-12.6,7.5-18.7,11.6c-3,2-6.2,4.1-8.8,6.4l-0.5,0.4l-0.2,0.2
	c-0.1,0.1-0.1,0.2-0.2,0.3c-0.1,0.1,0,0.2,0.1,0.3c0.1,0,0.2,0,0.3,0.1l0.1,0l0.2,0c0.1,0,0.4,0,0.6,0c0.4,0,0.8-0.1,1.3-0.2
	c0.8-0.2,1.7-0.4,2.5-0.7c3.3-1.3,6.4-3.3,9-5.8c1.3-1.2,2.5-2.6,3.3-4.1c0.4-0.7,0.8-1.5,0.9-2.2c0.1-0.7,0-1.2-0.3-1.6
	c-0.3-0.4-0.9-0.7-1.7-0.8c-0.8-0.2-1.6-0.2-2.5-0.2c-1.8,0.1-3.6,0.3-5.4,0.7c-3.6,0.8-7.2,1.9-10.8,3.2c-3.6,1.3-7.1,2.7-10.6,4.2
	c-3.5,1.5-7,3.1-10.6,4.6c-3.6,1.5-7.3,2.8-11.2,3.8c-1.9,0.5-3.9,0.9-5.9,1c-2,0.1-4.2,0.1-6.4-0.8c-1.1-0.4-2.1-1.2-2.8-2.3
	c-0.7-1-1-2.3-1.1-3.4c-0.2-2.3,0.4-4.4,1.1-6.3c1.5-3.9,3.7-7.2,6.1-10.4c4.9-6.3,10.9-11.8,17.8-16c3.5-2.1,7.2-3.8,11.2-4.8
	c2-0.5,4.1-0.7,6.3-0.5c0.5,0,1,0,1.9,0.3c0.8,0.2,1.6,0.8,1.9,1.6c0.3,0.8,0.2,1.7-0.2,2.5c-0.3,0.6-0.6,1.1-1,1.5
	c-1.4,1.7-2.9,3-4.4,4.4c-1.5,1.3-3.1,2.5-4.7,3.7c-3.2,2.4-6.5,4.7-9.8,6.9c-6.6,4.5-13.3,8.7-20.1,12.9
	c-27.2,16.8-55,32.9-82.7,49c-27.8,16.2-55.6,32.2-82.9,48.8c-6.8,4.1-13.6,8.3-20.3,12.6c-6.7,4.3-13.3,8.6-19.7,13.3
	c-3.1,2.3-6.3,4.7-9,7.4c-0.6,0.7-1.2,1.4-1.7,2.1c-0.5,0.7-0.9,1.5-0.8,2c0,0.2,0,0.4,0.2,0.5c0.1,0.2,0.4,0.3,0.7,0.5
	c0.7,0.3,1.5,0.5,2.4,0.6c3.7,0.4,7.6-0.1,11.4-0.6c3.8-0.6,7.7-1.3,11.5-2.2c15.2-3.5,30.1-8.1,44.7-13.2
	c14.6-5.1,28.9-10.8,42.7-17c6.9-3.1,13.7-6.4,20.3-10c6.6-3.5,13.1-7.3,19.1-11.5c6-4.3,11.8-8.9,15.6-14.9
	c3.8-6,5.8-13.1,5.5-20.1c-0.3-10.9-5.7-21.6-14.3-28.3c-4.3-3.4-9.4-5.7-14.7-6.8l-2-0.4c-0.7-0.1-1.4-0.1-2-0.2
	c-1.4-0.2-2.7-0.1-4.1-0.1c-1.4,0.1-2.7,0.2-4.1,0.3c-1.4,0.2-2.8,0.4-4.2,0.6c-5.6,0.8-11.2,1.9-16.8,3.1l-4.2,0.9l-2.1,0.5
	l-2.1,0.6c-2.8,0.7-5.4,1.5-8.4,2.2c-5.9,1.1-12,0.8-17.8-0.8c-2.9-0.8-5.7-1.9-8.3-3.2c-1.4-0.6-2.6-1.4-3.9-2.2
	c-1.2-0.8-2.5-1.6-3.7-2.6c-1.2-0.9-2.3-1.9-3.4-2.9c-1.1-1.1-2.2-2.1-3.1-3.2c-2-2.3-3.8-4.7-5.1-7.4c-1.4-2.7-2.4-5.6-2.9-8.7
	c-0.5-3.1-0.2-6.3,0.8-9.3c1-3,2.9-5.7,5.1-7.8c1.1-1.2,2.3-2,3.5-3l1.9-1.2l0.5-0.3l0.2-0.2c0.1,0,0.3-0.1,0.4-0.2
	c0.6-0.3,1.3-0.3,2-0.2c1.4,0.3,2.4,1.4,2.6,2.7c0.1,0.7,0,1.4-0.3,2c-0.1,0.1-0.2,0.3-0.2,0.4c-0.1,0.1-0.1,0.2-0.2,0.3l-0.3,0.4
	c-0.8,1.2-1.7,2.4-2.5,3.6l-4.9,7.2c-3.2,4.8-6.5,9.7-10.1,14.4c-3.6,4.7-7.4,9.2-11.8,13.3c-4.4,4-9.5,7.5-15.2,9.7l-1.1,0.4
	c-0.6,0.2-1.2,0.5-1.9,0.3c-0.7-0.1-1.3-0.5-1.7-1c-0.2-0.3-0.4-0.6-0.5-0.9c-0.1-0.2-0.1-0.3-0.2-0.5c-0.1-0.2-0.1-0.3-0.1-0.4
	c-0.2-1-0.1-1.9,0.1-2.7c0.1-0.8,0.3-1.6,0.6-2.3c0.5-1.5,1-2.9,1.7-4.3l0.5-1l0.2-0.4l0.1-0.1l0.1-0.1l0-0.1c0,0,0,0,0,0l-0.2,0.1
	l-3.1,1.8c-1.3,0.8-2.7,1.5-4,2.3c-5.4,3-11,5.8-17,7.8c-3,1-6.1,1.9-9.5,1.9c-1.7,0-3.6-0.3-5.3-1.5c-0.4-0.3-0.8-0.6-1.1-1l-0.8-1
	l-0.4-0.5c-0.1-0.2-0.2-0.4-0.4-0.6l-0.7-1.1c-0.8-1.6-1.2-3.5-1-5.4c0.2-1.8,0.9-3.5,1.8-5c1.9-2.9,4.3-5.1,7-6.9
	c1.3-0.9,2.7-1.7,4.2-2.4c0.1-0.1,0.1-0.1,0.3-0.2c0.2-0.1,0.4-0.1,0.5-0.2c0.3-0.1,0.6-0.1,0.8-0.1c0.5,0,1,0,1.4,0
	c0.9,0.1,1.8,0.3,2.6,0.6c0.9,0.3,1.7,0.7,2.5,1.4c0.8,0.7,1.6,1.8,1.6,3.1c0,1.3-0.5,2.3-1,3.1c-0.6,0.8-1.2,1.4-1.8,2
	c-1.3,1.1-2.7,2-4.1,2.8c-1.4,0.8-2.8,1.5-4.2,2.2c-2.9,1.3-5.8,2.3-8.7,3.4c-11.6,4.2-23.2,8.3-34.8,12.5
	c-23.2,8.4-46.2,17.1-68.6,27.1c-11.2,5-22.3,10.3-32.9,16.3c-5.3,3-10.5,6.2-15.4,9.8c-2.5,1.8-4.8,3.6-7,5.7c-2.2,2-4.3,4.1-6,6.5
	c-1.7,2.3-3,4.9-3.2,7.6l-0.1,1l0.1,1l0,0.5c0,0.2,0.1,0.3,0.1,0.5l0.2,0.9c0.1,0.3,0.3,0.6,0.4,0.9c0.1,0.3,0.2,0.6,0.4,0.9
	l0.6,0.8c0.2,0.3,0.4,0.6,0.6,0.8c1.7,2.1,4.1,3.9,6.6,5.4c2.5,1.4,5.2,2.5,8.1,3.2c5.7,1.4,11.7,1.1,17.2-0.7
	c2.8-0.9,5.4-2.1,7.9-3.7l1.9-1.2c0.6-0.4,1.2-0.8,1.9-1.2l1.9-1.3l1.8-1.3c9.6-7.2,17.9-16.1,25-25.8c7.1-9.8,13-20.3,18-31.2
	c5.1-10.9,9.3-22.2,12.9-33.6c1.8-5.7,3.5-11.5,5-17.3l0.3-1.1l0.1-0.3c0-0.1,0-0.1,0-0.1c0,0,0-0.1,0-0.1c0-0.1-0.1-0.3-0.3-0.3
	c-0.1,0-0.1,0-0.2,0c0,0-0.1,0-0.1,0l-0.5,0.2l-2,1c-2.7,1.4-5.4,2.7-8.2,3.9c-2.8,1.2-5.6,2.3-8.6,3.2c-1.5,0.4-3,0.8-4.5,1.1
	c-1.5,0.3-3.1,0.5-4.8,0.5c-1.6,0-3.4-0.2-5.1-1.2c-1.8-0.9-3-2.9-3.3-4.7c-0.3-1.8-0.1-3.5,0.3-5.1c0.4-1.6,0.9-3.1,1.5-4.5
	c2.6-5.7,6.2-10.6,10-15.3c3.9-4.6,8.2-8.9,12.8-12.7c0,0-0.1,0.1-0.2,0.2c-0.1,0.1-0.3,0.3-0.5,0.5c-0.4,0.4-1.1,1-1.7,1.6
	c-1.3,1.3-2.9,2.8-4,3.9c-1,1.1-1.5,1.6-0.7,0.9c0.8-0.7,2.9-2.9,7.4-6.7c4.5-3.8,9.1-6.9,13.7-9.5c4.5-2.5,9.1-4.4,13.6-5.5
	l0.8-0.2c0.4,0,0.7-0.1,1.1-0.1c0.7,0,1.5,0.2,2.1,0.5c1.3,0.7,2.2,1.9,2.4,3.2c0.3,1.3-0.1,2.8-0.8,3.8c-0.6,0.8-1.1,1.7-1.7,2.4
	c-2.3,3.2-4.5,6-6.7,8.5c-4.3,5-8.3,8.8-11.8,11.8c-3.5,3-6.5,5.2-8.9,6.8c-4.9,3.2-7.6,4.5-8.9,5.1c-1.3,0.6-1.4,0.5-1.4,0.5
	c0,0,0.2-0.1,0.7-0.4c0.5-0.2,1.1-0.6,1.9-1c1.7-0.9,4-2.2,6.5-3.9c2.6-1.7,5.5-3.9,8.3-6.2c2.8-2.4,5.6-5,8.2-7.6
	c5.1-5.3,9.1-10.5,11-13.2c1-1.3,1.4-2,1.2-1.8c-0.2,0.3-1,1.5-2.8,3.8c1.3-1.8,2.6-3.5,3.9-5.5c0.7-1.1,0.7-2.5,0.2-3.6
	c-0.5-1.2-1.6-2.1-2.9-2.3c-0.6-0.1-1.3,0-1.9,0.1c-0.6,0.1-1.2,0.3-1.7,0.4c-1.2,0.3-2.3,0.7-3.4,1.1c-2.3,0.8-4.5,1.8-6.7,3
	c-8.7,4.5-16.6,10.9-23.5,18c-3.4,3.5-6.6,7.3-9.4,11.2c-2.7,3.9-5.1,8-6.4,12.5c-0.3,1.1-0.5,2.2-0.5,3.4c0,1.1,0.1,2.3,0.6,3.4
	c0.5,1.1,1.4,1.9,2.4,2.4c1,0.5,2.1,0.8,3.1,0.8c2.1,0.2,4.2-0.1,6.1-0.5c1.9-0.4,3.8-0.9,5.5-1.5c6.9-2.4,12.5-5.2,16.6-7.3
	c0.5-0.3,1-0.6,1.4-0.6c0.4-0.1,0.9,0,1.2,0.2c0.7,0.4,1,1.3,0.8,1.9c-0.4,1.4-0.6,2.5-0.8,3c-0.3,1.1,0,0.2,0.8-3.1
	c0.1-0.4,0-0.8-0.2-1.2c-0.2-0.4-0.6-0.7-1.1-0.9c-0.5-0.2-1.1-0.1-1.6,0.2c-0.6,0.3-1.2,0.6-1.9,1c-2.7,1.3-5.9,2.9-10,4.6
	c-2.7,1.1-6.5,2.6-11.2,3.5c-2.4,0.4-5.1,0.8-7.8,0c-1.3-0.4-2.7-1.3-3.3-2.7c-0.7-1.4-0.7-3-0.5-4.5c0.5-3.1,1.8-6.1,3.4-9
	c1.6-2.9,3.6-5.8,5.7-8.5c4.3-5.5,9.4-10.8,15-15.5c5.6-4.7,11.7-8.8,18.1-11.7c3.2-1.5,6.5-2.6,9.7-3.3c0.8-0.1,1.7,0,2.4,0.5
	c0.7,0.5,1.2,1.1,1.5,1.9c0.3,0.8,0.3,1.6,0,2.4c-0.3,0.8-0.8,1.4-1.2,2c-7,10.2-14.4,17.4-18.8,21.2c-4.4,3.8-5.7,4.5-5.2,4.1
	c0.5-0.5,2.8-2.3,4.9-4.3c2.2-2,4.2-4,4.7-4.6c0.2-0.3,0.1-0.2-0.6,0.5c-0.7,0.7-2,1.9-4.2,3.8c-2.2,1.9-4.7,4-7.6,6
	c-2.9,2-6.1,4.1-9.6,5.9c-7.1,3.7-15,7.5-23.2,10.4c-4.1,1.4-8.3,2.5-12.5,2.6c-2.1,0-4.1-0.2-6-0.8c-1.9-0.7-3.5-1.8-4.8-3.2
	c-2.6-2.9-4-6.5-5-9.8c-1-3.4-1.7-6.6-2.2-9.4c-0.5-2.9-0.7-4.7-0.8-5.6c-0.1-1-0.1-1.2-0.1-0.8c0.2,0.7,0.6,3.6,1.1,6.4
	c0.5,2.8,1.2,5.6,1.4,6.3c0.2,0.7-0.2-0.7-1.3-6.4c-0.4-2.1-0.7-4.3-1-6.5l-0.2-1.7l-0.1-0.8l-0.1-0.4l0-0.2l-0.1-0.3
	c-0.1-0.8-0.6-1.5-1.2-2c-0.6-0.5-1.4-0.8-2.2-0.9c-0.8-0.1-1.6,0.1-2.3,0.6c-0.3,0.2-0.6,0.5-0.9,0.8l-0.3,0.5l-0.2,0.4
	c-0.5,1-1.1,2-1.6,3.1c-1.1,2.1-2.1,4.1-3.2,6.2c-4.4,8.3-8.9,17-13.7,25.7c-1.2,2.2-2.5,4.4-3.7,6.5c-0.6,1.1-1.3,2.2-2,3.2
	c-0.3,0.5-0.7,1.1-1,1.6l-0.5,0.8l-0.4,0.6c-0.2,0.3-0.3,0.4-0.5,0.6c-0.1,0.1-0.2,0.2-0.2,0.2c-0.1,0.1-0.2,0.1-0.3,0
	c-0.1-0.2-0.1-0.4-0.1-0.6c0-0.1,0-0.2,0-0.3l0.1-0.5c0.4-2.5,0.9-5,1.5-7.6c2.4-10.2,5.3-20.6,8.1-31.1c0.3-1.3,0.7-2.6,1-4
	c0.3-1.4,0.6-2.8,0.7-4.2c0.2-1.4,0.1-2.9,0-4.3c0-0.7-0.2-1.4-0.3-2.1l-0.2-1.1l-0.3-1c-0.7-2.8-2-5.5-3.5-7.9
	c-1.6-2.5-3.7-4.6-6-6.4c-2.3-1.8-5-3.1-7.8-4.1l-2.1-0.6c-0.7-0.1-1.5-0.2-2.2-0.4c-0.4-0.1-0.7-0.1-1.1-0.2l-1.1-0.1
	c-0.7,0-1.5-0.1-2.2-0.1c-5.7,0.1-11.5,0.7-17.2,1.8c-5.7,1.2-11.3,3-16.6,5.7c-1.3,0.7-2.6,1.4-3.9,2.2c-1.3,0.7-2.5,1.6-3.7,2.5
	c-2.4,1.8-4.6,3.7-6.7,5.9c-4,4.4-7.3,9.5-9.1,15.3c-0.9,2.9-1.4,5.9-1.4,9c0,1.5,0.2,3.1,0.7,4.6c0.5,1.5,1.2,3.1,2.6,4.2
	c0,0,0.1,0.1,0.2,0.2c0.1,0.1,0.3,0.3,0.5,0.4c0.4,0.4,1,0.8,1.5,1.3c0.6,0.5,1.1,0.9,1.5,1.3c0.2,0.2,0.4,0.3,0.5,0.4
	c0.1,0.1,0.2,0.2,0.2,0.2c0,0-0.1,0-0.2-0.2c-0.2-0.1-0.4-0.3-0.8-0.6c-0.7-0.6-1.9-1.5-3.6-2.8c-1.1-0.9-2-2.2-2.6-3.7
	c-0.6-1.6-0.9-3.4-1-5.4c-0.1-4.1,0.9-9.1,3.6-14.5c4.8-9.4,13.1-16.7,22.5-21.1c9.4-4.4,19.8-6.4,30.1-6.8c1.3,0,2.5-0.2,3.9-0.1
	l2,0.1c0.7,0.1,1.3,0.2,2,0.3c1.3,0.2,2.6,0.6,3.9,1c0.6,0.2,1.2,0.5,1.9,0.7c0.6,0.3,1.3,0.5,1.8,0.9l1.8,1
	c0.6,0.3,1.1,0.8,1.7,1.2c1.1,0.7,2.1,1.7,3.1,2.6c1.8,2,3.6,4.1,4.7,6.5l0.5,0.9c0.2,0.3,0.3,0.6,0.4,0.9l0.8,1.9
	c0.2,0.6,0.4,1.3,0.6,1.9l0.3,1c0.1,0.3,0.1,0.7,0.2,1l0.3,2c0.1,0.7,0.1,1.3,0.1,2c0.1,1.3-0.1,2.7-0.2,4c-0.1,0.7-0.2,1.3-0.4,2
	c-0.1,0.6-0.2,1.3-0.4,1.9l-1,3.7l-2,7.4l-3.9,14.7c-1.2,4.9-2.5,9.9-3.4,14.8c-0.1,0.6-0.2,1.4-0.2,1.4c0,0.1,0,0.2,0,0.3
	c0,0.1,0,0.2,0.1,0.2c0.1,0,0.1-0.1,0.2-0.2l0.1-0.1l0.3-0.4l0.5-0.7l0.5-0.8c0.7-1,1.3-2.1,2-3.2c2.6-4.3,5-8.8,7.5-13.2
	c4.8-8.9,9.5-18,14.2-27l0.9-1.7l0.4-0.8c0.1-0.2,0.4-0.7,0.7-1.1c0.6-0.8,1.6-1.3,2.6-1.4c1-0.1,2,0.1,2.8,0.7
	c0.8,0.6,1.4,1.5,1.6,2.5l0.1,0.4l0,0.2l0.1,0.5l0.1,0.9l0.5,3.8c0.4,2.5,0.8,5,1.3,7.4c0.5,2.5,1.1,4.9,1.9,7.2
	c0.8,2.3,1.8,4.6,3.1,6.5c1.3,1.9,3,3.5,5.1,4.4c2.1,0.9,4.4,1.2,6.8,1.1c2.4-0.1,4.8-0.5,7.2-1.1c4.8-1.2,9.5-3.1,14.1-5.1
	c4.6-2,9.2-4.3,13.7-6.6c8.9-4.7,16.8-11.1,23.7-18.4c3.5-3.6,6.7-7.5,9.7-11.6c0.7-1,1.5-2,2.2-3.1l0.5-0.8
	c0.1-0.2,0.2-0.3,0.3-0.5c0.1-0.3,0.2-0.7,0.1-1.1c-0.1-0.7-0.7-1.4-1.4-1.6c-0.3-0.1-0.7-0.1-1.1-0.1l-1.8,0.4
	c-4.8,1.3-9.3,3.5-13.6,6c-4.3,2.6-8.4,5.6-12.2,8.8c-3.8,3.3-7.4,6.8-10.7,10.6c-3.3,3.8-6.3,7.8-8.8,12.2
	c-1.2,2.2-2.3,4.4-2.9,6.7c-0.6,2.2-0.8,4.7,0.2,6.1c1,1.4,3.4,1.8,5.7,1.7c2.4-0.1,4.8-0.7,7.2-1.4c4.8-1.4,9.4-3.5,14-5.7
	c1.1-0.5,2.3-1.1,3.4-1.7l0.8-0.4l0.4-0.2c0.2-0.1,0.2-0.1,0.5-0.3c1-0.5,2.3-0.4,3.2,0.2c1,0.5,1.7,1.5,1.8,2.7c0,0.3,0,0.6,0,0.8
	c0,0.3-0.1,0.6-0.1,0.7l-0.2,0.9l-1,3.7c-5.4,19.8-12.4,39.3-21.9,57.6c-4.8,9.1-10.3,18-16.6,26.1c-6.4,8.2-13.6,15.7-21.9,22
	c-1.1,0.8-2.1,1.6-3.2,2.3l-3.2,2.2l-3.3,2c-1.2,0.6-2.3,1.3-3.6,1.8c-4.9,2.2-10.3,3.3-15.6,3.1c-5.4-0.2-10.7-1.5-15.4-4.2
	c-0.6-0.3-1.2-0.7-1.7-1c-0.6-0.3-1.1-0.7-1.7-1.1c-0.5-0.4-1.1-0.8-1.6-1.2l-1.5-1.4c-1.9-1.9-3.7-4.4-4.3-7.3
	c-0.7-2.9-0.2-5.9,0.9-8.5c1.1-2.6,2.7-4.8,4.4-6.9c3.5-4.1,7.5-7.4,11.7-10.5c8.4-6.1,17.5-11.2,26.6-15.9
	c18.4-9.4,37.4-17.3,56.5-24.9c19.2-7.5,38.5-14.5,57.9-21.3c4.8-1.7,9.7-3.4,14.5-5.2c2.4-0.9,4.8-1.8,7-2.9
	c2.2-1.1,4.5-2.3,6.3-3.8c0.9-0.7,1.7-1.6,1.9-2.3c0.1-0.3,0.1-0.5,0-0.7c-0.1-0.2-0.3-0.5-0.7-0.7c-0.7-0.5-1.8-0.9-2.9-1
	c-0.5-0.1-1.1-0.1-1.4,0c0,0-0.1,0-0.1,0c0,0.1,0,0-0.2-0.3c0.3,0.7,0,0.3,0,0.4l-0.2,0.1L263,399c-2.2,1.2-4.2,2.6-5.9,4.2
	c-1.7,1.6-3.2,3.5-3.9,5.6c-0.7,2-0.3,4.1,0.9,5.9c0.1,0.2,0.3,0.5,0.5,0.7l0.5,0.6c0.2,0.2,0.3,0.4,0.5,0.5
	c0.2,0.1,0.4,0.3,0.6,0.4c0.8,0.4,1.9,0.7,3,0.7c2.3,0.1,4.7-0.5,7.1-1.2c2.4-0.7,4.7-1.6,7-2.6c4.6-2,9.1-4.4,13.6-6.9
	c2.5-1.4,3.5-2,8.8-5.1c0.5-0.3,1.1-0.6,1.5-0.8c0.4-0.1,0.7-0.2,0.9-0.1c0.1,0,0.2,0,0.3,0.1c0.1,0,0.2,0,0.3,0.1
	c0.2,0,0.3,0.1,0.3,0.2c0,0,0,0.1,0.1,0.1l0.1,0l0.1,0.1c0,0,0.1,0.1,0.1,0.1c0,0,0.1,0.1,0.1,0.2l0,0.3c0,0.1,0,0.3,0,0.4
	c0.1,0.2-0.2,0.8-0.4,1.2c-0.7,1-1.3,1.9-1.8,2.7c-0.3,0.4-0.5,0.9-0.7,1.3l-0.3,0.6l-0.3,0.6c-0.4,0.8-0.8,1.7-1.2,2.5
	c-0.7,1.7-1.3,3.5-1.5,5.1c0,0.4,0,0.8,0,1c0,0.2,0,0.1,0,0.1c0,0,0,0,0,0c0,0,0,0,0.1,0l1-0.4l1.3-0.5l0.7-0.3l0.6-0.3l2.5-1.3
	c6.5-3.7,12.1-9.1,16.9-15c4.9-5.9,9.2-12.3,13.6-18.8c2.2-3.2,4.3-6.5,6.6-9.7l0.8-1.2l0.4-0.6c0.1-0.1,0-0.1,0.1-0.1
	c0,0,0,0,0-0.1c0-0.1-0.1-0.1-0.1-0.1c0,0,0,0,0,0c0,0,0,0,0,0c0,0,0,0-0.2,0.1l-1.2,0.7l-1.2,0.7c-0.4,0.3-0.7,0.6-1.1,0.8
	c-2.9,2.2-5.2,5.1-6.3,8.4c-1.1,3.4-1,7,0,10.5c1,3.5,2.8,6.8,5.1,9.7c2.3,3,5,5.6,8,7.8c6,4.5,13.2,7.5,20.6,8.3
	c3.7,0.4,7.4,0.2,11.1-0.6c1.8-0.4,3.7-0.9,5.6-1.5c1.9-0.5,3.8-1.1,5.7-1.5c7.6-1.7,15.3-3.3,23.1-4.3c3.8-0.6,8-0.9,12-0.5
	c4,0.4,8,1.4,11.8,3c7.5,3.3,13.8,9,17.9,15.9c4.2,7,6.3,15.2,5.8,23.3c-0.5,8.1-3.7,16.1-9,22.3c-2.6,3.1-5.6,5.8-8.7,8.2
	c-3.1,2.4-6.4,4.7-9.7,6.8c-6.6,4.2-13.5,8-20.5,11.5c-7,3.5-14.1,6.8-21.2,9.9c-14.3,6.2-28.9,11.8-43.8,16.7
	c-7.4,2.5-14.9,4.8-22.4,6.9c-7.5,2.1-15.1,4-22.9,5.4c-3.9,0.7-7.8,1.3-11.8,1.4c-2,0-4.1,0-6.3-0.5c-0.6-0.2-1.1-0.3-1.7-0.7
	c-0.6-0.3-1.2-0.8-1.7-1.5c-0.5-0.7-0.7-1.7-0.6-2.5c0.1-0.8,0.3-1.4,0.6-2c0.5-1.1,1.2-2,1.9-2.8c0.7-0.8,1.4-1.6,2.1-2.3
	c1.5-1.4,3-2.7,4.6-3.9c3.1-2.4,6.3-4.7,9.5-6.9c12.9-8.8,26.2-16.9,39.5-25c26.7-16.1,53.6-31.6,80.5-47.3
	c26.9-15.7,53.8-31.2,80.2-47.6c6.6-4.1,13.1-8.3,19.5-12.6c3.2-2.2,6.4-4.4,9.5-6.6c1.5-1.1,3.1-2.3,4.5-3.5c1.4-1.2,2.9-2.5,4-3.8
	c0.3-0.3,0.6-0.7,0.8-1c0.1-0.2,0.2-0.3,0.2-0.4c0-0.1,0,0,0,0c0,0,0,0,0,0l0,0l0,0l-0.2,0c-0.1,0-0.4,0-0.6-0.1l-0.7,0l-1.3,0
	c-0.9,0.1-1.8,0.2-2.7,0.3c-3.5,0.7-7,2.2-10.3,4c-6.5,3.8-12.3,8.9-17,14.7c-2.4,2.9-4.5,6.1-6,9.4c-0.7,1.7-1.3,3.4-1.4,5
	c-0.1,1.6,0.2,3,1.2,3.8c1,0.8,2.7,1.1,4.4,1.1c1.8,0,3.6-0.3,5.4-0.6c3.6-0.8,7.3-2,10.8-3.4c3.6-1.4,7-3,10.6-4.6
	c3.6-1.5,7.2-3,10.9-4.4c3.7-1.3,7.4-2.6,11.3-3.5c1.9-0.4,3.9-0.8,6-0.9c1-0.1,2.1-0.1,3.2,0.1c1.1,0.2,2.3,0.4,3.5,1.3
	c0.6,0.4,1.1,1.1,1.4,1.8c0.3,0.7,0.4,1.5,0.4,2.2c-0.1,1.4-0.6,2.5-1.1,3.5c-1,2-2.4,3.5-3.9,5c-3,2.9-6.4,5.2-10.3,6.7
	c-1,0.4-2,0.7-3.1,0.9c-0.5,0.1-1.1,0.2-1.6,0.2c-0.5,0.1-1.3,0.1-2.3,0c-0.9-0.1-1.7-0.4-2.2-1c-0.3-0.3-0.4-0.7-0.5-1
	c-0.1-0.4-0.1-0.8,0-1.1c0.2-0.8,0.8-1.6,1.4-2.3l0.4-0.4l0.3-0.3c0.2-0.2,0.4-0.4,0.6-0.5c3.1-2.7,6.4-4.8,9.6-7
	c6.5-4.2,13.2-8.2,19.9-12.2l10-6l5-3c0.8-0.5,1.7-1,2.6-1.5c0.9-0.4,1.8-0.9,2.8-1.3c7.6-3.1,16.4-3.1,24,0l10.7,4.7l2.6,1.2
	c0.9,0.4,1.8,0.8,2.7,1.1l5.4,2c14.4,5.5,29.2,9.9,44.2,13c15.1,3.2,30.3,5.5,45.6,6.9c15.3,1.4,30.7,2,46.1,2.1
	c15.4,0,30.8-0.6,46.2-1.5c15.4-1,30.7-2.4,46-4c15.3-1.7,30.6-3.6,45.8-5.6c15.3-2.1,30.5-4.2,45.7-6.4
	c30.5-4.4,60.9-8.8,91.5-12.2c5.8-0.6,11-1.2,15.6-1.6c4.6-0.4,8.6-0.8,12-1.1c6.9-0.5,11.5-0.8,14.2-1c5.5-0.3,3.3-0.2-4,0.4
	c-1.8,0.1-4,0.3-6.4,0.5c-1.2,0.1-2.5,0.2-3.8,0.3c-1.3,0.1-2.7,0.3-4.2,0.4c-2.9,0.3-6.1,0.6-9.5,0.9c-3.4,0.4-6.9,0.7-10.6,1.1
	c-14.9,1.6-32.2,3.9-49.5,6.3c11.5-1.6,17.3-2.3,23.1-3c5.8-0.7,11.6-1.4,23.2-2.7c0,0-0.2,0-0.5,0.1c-0.4,0.1-0.9,0.1-1.6,0.2
	c-1.5,0.2-3.6,0.5-6.5,0.8c-5.8,0.7-14.5,1.8-26,3.4c-11.6,1.6-26,3.7-43.3,6.2c-17.3,2.5-37.5,5.5-60.6,8.6
	c23.1-3.1,46.1-6.5,69.3-9.8c23.1-3.2,0,0.2,0,0.3c-11.6,1.7-23.1,3.3-31.7,4.6c-4.3,0.6-7.9,1.1-10.5,1.5c-1.3,0.2-2.3,0.3-2.9,0.4
	c-0.7,0.1-1,0.2-1,0.2c0,0.1,0,0.2,0,0.3c23.1-3.2,69.2-10.1,92.3-12.9c-11.6,1.4-23.1,3-31.8,4.2c-4.3,0.6-7.9,1.1-10.5,1.5
	c-1.3,0.2-2.3,0.3-2.9,0.4c-0.7,0.1-1,0.2-1,0.2c0,0.1,0,0.2,0,0.3c-23.1,3.3-51.9,7.6-80.8,11.3c-28.9,3.7-57.9,6.6-81.2,8l0,0.2
	c23.3-1.3,52.4-4.3,81.3-8c28.9-3.7,57.7-8,80.8-11.3c-11.5,1.7-17.3,2.6-20.2,3c-2.9,0.5-2.9,0.5-2.9,0.6
	c-34.6,5-69.3,9.9-104.1,13.2c-17.4,1.6-34.9,2.9-52.4,3.6c-17.5,0.7-35,0.7-52.5-0.1c23.3,1.1,46.7,0.7,70-0.7
	c-11.6,0.7-27.7,1.5-46.3,1.5c-18.6-0.1-39.8-1.1-61.5-4.1c-21.7-2.9-43.9-7.9-64.4-14.9l-1.9-0.6c-0.6-0.2-1.3-0.5-1.9-0.7
	c-1.3-0.5-2.5-1-3.7-1.4c-2.5-0.9-5-1.9-7.4-2.8c-4.8-2.1-9.5-4.2-14.1-6.2c-4.4-2-9.1-2.9-13.6-2.6
	C594.2,374.8,589.9,376.1,586.2,378.1z"/>
<path stroke="#FFFFFF" fill="#FFFFFF" d="M687.7,300.3c-4.3,21.4-8.6,47.8-11.6,69.8c-3.7,26.3-7.8,54.8-13.8,80.8c-0.1,0,0.2-2.2-0.4-0.1c-2.3,8.6-2.6,8.5-2.8,8.4
	c-0.1,0,1.6-6.5,0.9-4.3c1.6-6.4,3.8-17.3,2.3-10.8c-0.3,1.1-0.9,3.8-1.5,6.5c-0.7,2.7-1.3,5.4-1.7,6.4c-0.7,2.1,0.1-2.2-0.6-0.1
	c-0.6,2.1-1.6,6.4-2.3,8.5c-0.7,2.1,0.2-2.2-0.4-0.1c-1.9,6.3-4.5,14.8-7.8,22.9c-0.1-0.1-1.1,1.9,0.5-2.2
	c3.6-8.9,6.3-18.2,8.7-27.6c2.4-9.4,4.4-18.9,6.2-28.5c3.6-19.2,6.4-38.6,9.3-58c2.9-19.4,5.7-38.9,9.3-58.2
	c1.8-9.6,3.8-19.2,6.2-28.7c2.4-9.5,5.2-18.9,8.7-28c1.7-4.2,2-4.6,1.5-3.3c-0.2,0.7-0.6,1.8-1.1,3.1c-0.2,0.7-0.5,1.4-0.8,2.2
	c-0.2,0.8-0.5,1.6-0.8,2.4c0.7-2.1,0.9-2.1,1.6-4.1c0.1,0-0.2,1.1-0.9,3.2c-0.7,2.2-1.7,5.4-2.9,9.5c0.7-2.1,1.3-4.2,2.1-6.3
	c0.8-2.1,0.2,0.1,0.3,0.1c-0.4,1-0.7,2.1-1,2.9c-0.2,0.8-0.4,1.3-0.4,1.3c0.1,0,0.2,0.1,0.3,0.1c0.6-2.1,2.1-6.3,2.9-8.4
	c-0.4,1-0.7,2.1-1,2.9c-0.3,0.8-0.4,1.3-0.4,1.3c0.1,0,0.2,0.1,0.3,0.1c-0.7,2.1-1.5,4.7-2.4,7.3c-0.8,2.6-1.6,5.3-2.2,7.4l0.2,0.1
	c0.6-2.1,1.4-4.8,2.2-7.4c0.8-2.6,1.6-5.3,2.4-7.3c-0.7,2.1-0.6,2.1-0.5,2.2c-2,6.3-4,12.6-5.4,19.1l1.7-6.4
	c-0.4,2.2-1.4,5.9-2.4,9.9C689.4,292.7,688.4,297,687.7,300.3z"/>
<path stroke="#FFFFFF" fill="#FFFFFF" d="M560,253.2c35.5-9.7,75.4-18.7,116-24.3c20.3-2.8,40.7-4.9,60.7-6.1c20-1.2,39.6-1.5,58.1-1c22.3,0.6,45,2.3,67.8,5.2
	c5.7,0.6,11.6,1.7,17.1,3.5c5.6,1.8,11.1,4.3,15.8,8.2c2.3,1.9,4.5,4.3,5.9,7.2c0.4,0.7,0.6,1.5,0.9,2.2c0.2,0.8,0.4,1.6,0.5,2.4
	c0.3,1.6,0.1,3.3-0.2,4.9c-0.7,3.2-2.2,6-4,8.4c-0.9,1.2-1.9,2.4-3,3.4c-1.1,1.1-2.2,2-3.2,3c-8.7,8-18.6,14.5-29.1,19.6
	c-10.5,5.1-21.6,8.9-32.8,11.8c-11.2,2.8-22.6,4.7-33.9,6c-11.3,1.3-22.6,1.9-33.7,2.2c0-0.1,7.4-0.5,0-0.4
	c-14.9,0.3-22.3-0.1-26-0.2c-3.7-0.2-3.7-0.3-3.7-0.5c0,0,0.1,0,0.2,0c0.2,0,0.4,0,0.7,0c0.6,0,1.4,0,2.4,0c2,0,4.5,0,6.8,0.1
	c4.6,0.1,8.3,0,4.6,0c2.8,0,5.8,0,8.9-0.1c3.1-0.1,6.3-0.2,9.4-0.2c3.1-0.1,6.2-0.3,9.1-0.4c2.9-0.2,5.5-0.4,7.8-0.5
	c4.6-0.3,7.9-0.7,8.5-0.8c0.7-0.1-1.2,0.1-6.7,0.5c-1.9,0.1-5.1,0.3-9,0.5c-2,0.1-4.1,0.2-6.3,0.3c-1.1,0-2.3,0.1-3.4,0.1
	c-1.1,0-2.3,0.1-3.5,0.1c-9.3,0.3-18.5,0.2-22.2,0c-7.4-0.3,7.4-0.4,0-0.6c-7.4,0-22.2-0.4-29.7-0.7c-7.4-0.4,7.4-0.2,0-0.4
	c-11.1-0.4-24.1-1.1-38-1.4c-7-0.2-14.2-0.2-21.5,0.1c-7.3,0.3-14.8,0.8-22.2,2.3c0-0.1-1.8,0.2-1.9,0.2c0,0,0.1-0.1,0.4-0.1
	c0.3-0.1,0.7-0.2,1.4-0.3c0.7-0.1,1.6-0.3,2.8-0.5c1.2-0.2,2.7-0.5,4.6-0.7c8.2-1,16.3-1.3,24.5-1.3c8.2,0,16.3,0.2,24.4,0.5
	c16.3,0.6,32.6,1.3,48.9,1.5c16.3,0.3,32.6,0.1,48.9-1.1c2-0.1,4.1-0.3,6.1-0.5c2-0.2,4.1-0.4,6.1-0.6c4-0.5,8.1-0.9,12.1-1.6l6-1
	l6-1.2c1-0.2,2-0.4,3-0.6l3-0.7l5.9-1.4c15.7-4.2,31-10.1,44.5-19.2c3.5-2.1,6.6-4.7,9.8-7.2c1.6-1.3,3-2.7,4.5-4l2.3-2
	c0.7-0.7,1.4-1.4,2-2.1c1.3-1.5,2.4-3,3.3-4.7c0.9-1.7,1.5-3.4,1.7-5.2c0.2-1.8-0.1-3.6-0.7-5.3c-0.7-1.7-1.7-3.3-3-4.7
	c-1.3-1.4-2.8-2.7-4.4-3.8c-1.6-1.1-3.3-2.1-5.1-3c-3.6-1.8-7.4-3.1-11.2-4.2c-3.9-1.1-7.8-1.8-11.9-2.2l-12.2-1.5
	c-16.3-1.8-32.7-3-49.1-3.7c-32.8-1.3-65.7,0-98.3,3.4c-32.6,3.5-65,9-96.9,16.2c-31.9,7.2-63.5,15.8-94.7,25.4
	c-31.2,9.6-62,20-92.6,30.7c-28,9.8-7.1,2.1,13.8-5.4c-7,2.5-7,2.3-14,4.8c0,0,0.2-0.1,0.6-0.3c0.4-0.2,1.1-0.4,1.9-0.8
	c1.7-0.7,4.3-1.6,7.8-2.9c7-2.6,17.4-6.3,31.5-11.1c-7,2.4-14,4.8-21.1,7.2c-7,2.3-0.1-0.2-0.1-0.3c3.5-1.2,7-2.4,9.6-3.3
	c1.3-0.5,2.4-0.8,3.2-1.1c0.4-0.1,0.7-0.2,0.9-0.3c0.2-0.1,0.3-0.1,0.3-0.1c0-0.1-0.1-0.2-0.1-0.3c-7,2.4-21.1,7.2-28,9.7
	c3.5-1.2,7-2.4,9.6-3.4c1.3-0.5,2.4-0.8,3.2-1.1c0.4-0.1,0.7-0.2,0.9-0.3c0.2-0.1,0.3-0.1,0.3-0.1c0-0.1-0.1-0.2-0.1-0.3
	c14-4.9,35.1-11.9,49.3-16.5l-0.1-0.2c-14.2,4.4-35.2,11.6-49.3,16.5c3.5-1.2,5.2-1.9,6.1-2.2s0.8-0.4,0.8-0.5
	c21-7.3,42.2-14.1,63.4-20.8c-7.1,2.2-14.2,4.4-21.2,6.7c7-2.4,19.4-6.4,32.7-10.4C535,260.1,549.3,256.1,560,253.2z"/>
<path stroke="#FFFFFF" fill="#FFFFFF" d="M725.3,280.2c-4.3,27.4-8,56.2-13.3,85.5c-0.7,3.6-1.3,7.3-2,11c-0.1,0.6,0,1.2,0.4,1.6c0.3,0.5,0.9,0.8,1.5,0.9
	c0.6,0.1,1.2,0,1.6-0.4c0.1-0.1,0.2-0.2,0.3-0.3c0.1-0.1,0.3-0.3,0.5-0.5l1-1c5.2-5.5,10.4-10.9,15.8-16.3l4.1-4l4.2-3.9
	c1.4-1.3,2.8-2.6,4.2-3.9c1.4-1.3,2.9-2.6,4.3-3.8l4.4-3.7c1.5-1.2,3.1-2.4,4.6-3.5c1.5-1.2,3.2-2.2,4.8-3.4c1.6-1.1,3.3-2.1,5-3.1
	c3.4-1.9,7-3.5,10.9-4.7c3.9-1.1,7.9-1.5,11.9-1.3c4,0.2,7.9,1,11.6,1.9c3.8,0.9,7.5,1.8,11.3,2.6c15,3.3,30.5,2.9,45.6,0.4
	c1.9-0.3,3.8-0.7,5.6-1l2.8-0.5l2.5-0.9c3.6-1.4,7.3-2.6,10.9-3.8c7.3-2.3,14.8-4.3,22.3-5.8c7.5-1.5,15.2-2.5,22.8-2.8
	c7.6-0.2,15.3,0.3,22.8,2.3l-0.6,2.6c-15.3-2.8-31.2-1.3-45.2,4.3c-6.9,2.8-13.5,6.6-18.8,11.6c-1.3,1.3-2.5,2.6-3.5,4
	c-1,1.4-1.9,3-2.1,4.5c-0.3,1.5,0.2,2.6,1.4,3.2c1.2,0.6,3,0.8,4.7,0.7c2.5-0.1,5-0.7,7.5-1.4c2.5-0.7,5-1.6,7.4-2.5
	c4.9-1.9,9.7-4.2,14.4-6.7c1.2-0.6,2.4-1.2,3.5-1.9l1.8-1l0.9-0.5c0.4-0.2,0.8-0.4,1.2-0.5c1.6-0.6,3.4-0.5,5,0.2
	c1.6,0.6,2.9,1.9,3.6,3.4c0.2,0.4,0.3,0.8,0.5,1.1l0.3,0.9c0.2,0.6,0.4,1.2,0.7,1.8l0.9,1.7c0.3,0.6,0.7,1.1,1,1.6
	c1.4,2.1,3.1,3.9,5.2,5.3c4.2,2.8,9.5,3.3,14.6,2.6c2.6-0.4,5.1-1.1,7.6-2c2.5-0.9,4.9-2,7.2-3.3c2.3-1.3,4.5-2.7,6.7-4.4
	c2.1-1.6,4.2-3.3,6.1-5.2c3.8-3.7,7.2-7.9,9.7-12.6l0.9-1.8l0.2-0.3l0.2-0.4c0.2-0.2,0.3-0.4,0.6-0.6c0.4-0.4,0.9-0.7,1.5-0.8
	c1.1-0.3,2.2-0.2,3.2,0.3c0.5,0.3,0.9,0.6,1.3,1.1c0.2,0.2,0.3,0.5,0.5,0.7c0.1,0.2,0.2,0.6,0.3,0.7c0.9,2.5,2,4.8,3.6,6.7
	c1.5,1.9,3.6,3,5.9,3c2.3,0,4.8-0.9,7.1-2c4.6-2.4,8.9-5.9,13-9.5c4.2-3.6,8.2-7.3,12.4-10.9c2.1-1.8,4.3-3.6,6.5-5.3l0.8-0.6
	l0.2-0.2l0.3-0.2c0.2-0.1,0.4-0.2,0.6-0.4c0.9-0.4,1.9-0.6,2.9-0.5c1,0.1,1.9,0.4,2.7,1c0.4,0.3,0.8,0.6,1.1,1l0.7,0.8
	c3.4,4,7.8,7.2,12.5,9.7c4.7,2.5,9.9,4.5,15.1,6c5.2,1.5,10.6,2.6,16,3.5c10.8,1.7,21.8,2.5,32.8,2.8c11,0.3,22,0,33-0.5
	c22-1.1,43.9-3.4,65.6-6.1c43.4-5.6,86.1-13.1,127.9-20.8c0,0.1-13.9,2.9,0.1,0.4c27.9-5.1,41.8-7.7,48.8-8.9c3.5-0.6,5.2-0.9,6.1-1
	c0.9-0.1,0.9,0,0.9,0c0,0-0.2,0-0.5,0.1c-0.3,0.1-0.7,0.2-1.3,0.3c-1.1,0.2-2.7,0.5-4.5,0.9c-3.7,0.7-8.5,1.6-12.8,2.5
	c-8.7,1.7-15.7,3-8.7,1.7c-20.9,4-48.7,9.2-66.2,12.3c-17.4,3.1-24.4,4.3-3.4,0.8c7-1.1,24.4-4.2,41.8-7.5
	c17.4-3.2,34.8-6.6,41.8-7.8c14-2.5-13.8,3.1,0.1,0.6c13.9-2.7,41.7-8,55.7-10.7c13.9-2.5-13.8,3.1,0.1,0.4
	c20.9-3.9,45.2-8.5,71.4-12.9c13.1-2.2,26.6-4.3,40.4-6c13.8-1.7,27.9-3.1,42-3c0,0,0.2,0,0.6,0.1c0.3,0,0.8,0,1.2,0.1
	c0.4,0,0.9,0,1.2,0.1c0.3,0,0.6,0,0.6,0.1c0,0-0.1,0-0.2,0c-0.1,0-0.3,0-0.6,0c-0.6,0-1.4,0-2.8,0c-2.6,0-7,0-14.1,0.4
	c-8.8,0.5-17.5,1.4-26.3,2.5c-8.8,1.1-17.5,2.3-26.2,3.6c-17.5,2.7-34.9,5.8-52.4,9c-34.9,6.4-69.7,13.3-104.7,20
	c-35,6.7-70,13.2-105.3,18.8c-17.6,2.8-35.3,5.4-53.1,7.6c-17.7,2.2-35.6,4.1-53.4,5.2c-17.9,1.1-35.8,1.7-53.8,0.6
	c-9-0.5-18-1.5-26.8-3.1c-8.9-1.7-17.7-4.1-25.9-8.2c-2.1-1-4.1-2.1-6-3.4c-1.9-1.2-3.8-2.7-5.5-4.2l-1.3-1.2l-1.2-1.3
	c-0.4-0.4-0.8-0.9-1.2-1.3l-0.6-0.7c-0.2-0.2-0.2-0.3-0.4-0.4c-0.5-0.4-1.2-0.6-1.8-0.5c-0.3,0-0.6,0.2-0.9,0.3l-0.1,0.1l-0.2,0.1
	l-0.3,0.2l-0.7,0.5c-7,5.3-13.4,11.6-20.3,17.4c-1.7,1.5-3.5,2.9-5.3,4.2c-1.8,1.4-3.8,2.6-5.8,3.8c-2.1,1.1-4.3,2.1-6.7,2.6
	c-2.4,0.5-5.3,0.3-7.6-1c-2.4-1.3-4-3.3-5.2-5.4c-0.3-0.5-0.6-1-0.9-1.6c-0.2-0.5-0.5-1.1-0.8-1.6l-0.6-1.6
	c-0.1-0.2-0.2-0.6-0.3-0.7c0-0.1-0.1-0.2-0.2-0.2c-0.2-0.3-0.8-0.4-1.1-0.2c-0.1,0-0.1,0.1-0.2,0.2c0,0-0.1,0.1-0.1,0.1l0,0.1
	l-0.1,0.2l-0.8,1.5c-0.5,1-1.2,2-1.8,3c-0.6,1-1.3,1.9-2,2.9c-5.5,7.4-12.5,13.6-20.6,18c-4,2.2-8.4,4-12.9,5
	c-2.3,0.5-4.6,0.8-7,0.8c-1.2,0-2.4-0.1-3.6-0.2c-1.2-0.2-2.4-0.4-3.5-0.8c-1.2-0.3-2.3-0.9-3.4-1.4l-1.6-0.9
	c-0.5-0.3-1-0.7-1.5-1.1l-0.7-0.6c-0.2-0.2-0.4-0.4-0.7-0.6c-0.4-0.4-0.9-0.8-1.3-1.3c-0.7-0.9-1.6-1.9-2.2-2.9
	c-1.4-2-2.3-4.2-3.1-6.4l-0.3-0.7c-0.1-0.2-0.2-0.4-0.3-0.5c-0.2-0.3-0.5-0.6-0.8-0.9c-0.6-0.5-1.3-0.9-2.1-1
	c-0.8-0.1-1.6,0-2.3,0.4l-2.9,1.6c-2,1.1-4,2.1-6,3.1c-4,2-8.2,3.9-12.4,5.6c-2.1,0.8-4.3,1.6-6.5,2.2c-2.2,0.7-4.5,1.2-6.8,1.5
	c-2.3,0.3-4.8,0.5-7.4-0.3c-1.3-0.4-2.7-1.2-3.6-2.6c-0.9-1.4-0.9-3.1-0.7-4.4c0.5-2.7,1.9-4.8,3.4-6.7c1.5-1.9,3.1-3.5,4.9-5.1
	c3.5-3,7.4-5.5,11.5-7.7c8.1-4.2,17-6.9,26.1-8.1c9.1-1.2,18.3-0.9,27.3,0.7l-0.7,3.3c-6.3-1.7-13-2.3-19.6-2.2
	c-6.6,0.1-13.3,0.8-19.9,1.9c-13.2,2.3-26.1,6-38.6,10.8l-1.2,0.4l-0.4,0.2c-0.1,0-0.2,0-0.3,0.1l-0.2,0l-0.6,0.1l-2.5,0.5
	c-1.7,0.3-3.3,0.7-5,0.9c-3.4,0.5-6.7,1.1-10.1,1.3c-6.8,0.7-13.6,1-20.5,0.5c-6.8-0.4-13.6-1.6-20.3-3.1
	c-6.6-1.5-13.1-3.4-19.5-3.6c-3.2-0.1-6.4,0.3-9.5,1.1c-0.8,0.2-1.5,0.5-2.3,0.7l-1.1,0.4c-0.4,0.1-0.7,0.3-1.1,0.5l-2.2,1
	c-0.7,0.3-1.5,0.7-2.2,1.1c-5.8,3.1-11.2,7-16.4,11.2c-10.3,8.5-19.9,17.9-29.2,27.6l-6.9,7.3l-0.9,0.9c-0.2,0.2-0.7,0.8-1.2,1.1
	c-1,0.7-2.4,1-3.6,0.9c-1.2-0.1-2.4-0.7-3.2-1.6c-0.9-0.9-1.4-2.1-1.5-3.4c0-0.3,0-0.6,0-0.9l0.1-0.4l0.1-0.3l0.2-1.2l0.5-2.5l0.9-5
	c0.6-3.3,1.2-6.6,1.7-9.9c2.3-13.2,4.3-26.5,6.2-39.8c3.9-26.6,7.8-53.2,13.4-79.6c5.7-26.3,13.5-52.2,24.6-76.8
	c11.1-24.5,25.3-47.6,42.1-68.6c2.1-2.6,4.2-5.2,6.3-7.8l6.6-7.6c2.2-2.6,4.5-5,6.8-7.4c2.3-2.4,4.5-4.9,6.9-7.3l7.1-7.1
	c1.2-1.2,2.4-2.4,3.6-3.5l3.7-3.4l7.3-6.8c2.5-2.2,5-4.4,7.5-6.6c2.7-2.3,5-4.4,7.2-6.2c2.2-1.8,4.1-3.3,5.7-4.6
	c3.3-2.6,5.5-4.4,6.7-5.5c2.6-2,1.6-1.2-1.8,1.7c-6.8,5.7-23.3,19.2-38.4,34.2c2.5-2.6,4.5-4.3,6.1-5.8c1.6-1.5,2.9-2.7,4.2-3.9
	c1.3-1.2,2.6-2.4,4.3-3.9c1.7-1.5,3.7-3.2,6.4-5.6c0,0-0.1,0.1-0.2,0.2c-0.2,0.2-0.4,0.4-0.7,0.7c-0.7,0.6-1.6,1.5-2.9,2.7
	c-2.7,2.3-6.5,6.1-11.6,10.9c-10.2,9.9-25.3,24.9-42.8,47.3c8.7-11.2,18-21.9,27.8-32.2c5-5,5.1-5,3.8-3.7c-0.6,0.6-1.5,1.6-2.3,2.4
	c-0.4,0.4-0.7,0.8-0.9,1.1c-0.2,0.3-0.4,0.4-0.4,0.5c-4.8,5.2-9.7,10.3-13.1,14.4c-1.7,2-3.2,3.7-4.2,4.9c-0.5,0.6-0.9,1.1-1.2,1.4
	c-0.3,0.3-0.4,0.5-0.4,0.5c0.1,0,0.2,0.1,0.2,0.2c2.3-2.7,5.2-6,8.4-9.7c0.4-0.5,0.8-0.9,1.2-1.4c0.4-0.5,0.9-0.9,1.3-1.4
	c0.9-0.9,1.7-1.9,2.6-2.8c1.8-1.9,3.6-3.8,5.4-5.8c3.7-3.8,7.5-7.5,10.9-11c3.5-3.4,6.8-6.4,9.4-8.8c-2.6,2.4-5.2,4.8-7.6,7.1
	c-2.4,2.3-4.6,4.5-6.4,6.4c-1.9,1.9-3.4,3.4-4.5,4.5c-1.1,1.1-1.7,1.8-1.7,1.8c0,0,0.1,0.1,0.2,0.2c-9.8,10.2-21.5,23.5-32,37.8
	c-10.5,14.2-19.8,29.3-26.3,41.9l0.2,0.1c6.6-12.5,15.8-27.6,26.3-41.8c10.5-14.2,22.1-27.6,31.9-37.7c-4.8,5.2-7.2,7.8-8.4,9.1
	c-1.2,1.3-1.1,1.4-1.1,1.4c-14.1,15.8-27,32.7-38.1,50.7c-0.7,1.1-1.4,2.2-2.1,3.4l-2,3.4l-3.9,6.9l-3.7,7l-1.8,3.5
	c-0.6,1.2-1.1,2.4-1.7,3.6l-3.4,7.2l-3.1,7.3l-1.5,3.7l-1.4,3.7l-2.8,7.4c4.9-13.2,10.6-26.2,17.1-38.7c-0.8,1.6-1.7,3.3-2.6,5.1
	c-1,1.8-1.8,3.9-2.8,6c-1,2.1-2.1,4.4-3.1,6.8c-1,2.4-2.1,4.9-3.2,7.5c-4.3,10.4-8.6,22.4-12.4,35.1
	C733.7,231.4,728.6,259.3,725.3,280.2z"/>
</svg>
