<?xml version="1.0" standalone="no"?>
<!DOCTYPE svg PUBLIC "-//W3C//DTD SVG 1.1//EN" "http://www.w3.org/Graphics/SVG/1.1/DTD/svg11.dtd" >
<svg xmlns="http://www.w3.org/2000/svg" xmlns:xlink="http://www.w3.org/1999/xlink" version="1.1">
<metadata>
Created by FontForge 20170731 at Mon Apr 25 16:44:29 2022
 By Aleksey,,,
Copyright (c) 2016 Monotype Imaging Inc. All rights reserved.
</metadata>
<defs>
<font id="NeueKabel-Book" horiz-adv-x="0" >
  <font-face 
    font-family="Neue Kabel Book"
    font-weight="450"
    font-stretch="normal"
    units-per-em="2048"
    panose-1="2 12 6 2 2 2 3 2 3 3"
    ascent="1542"
    descent="-506"
    x-height="907"
    cap-height="1448"
    bbox="-1239 -543 2329 2030"
    underline-thickness="102"
    underline-position="-358"
    unicode-range="U+000D-FEFF"
  />
<missing-glyph horiz-adv-x="1392" 
d="M1217 1473v-1473h-1041v1473h1041zM985 1327h-577l288 -473zM330 1221v-969l295 485zM768 737l295 -485v969zM408 145h577l-289 473z" />
    <glyph glyph-name="ff" unicode="ff" horiz-adv-x="1208" 
d="M952 1118v-211h201v-151h-201v-756h-174v756h-401v-756h-174v756h-131l28 151h103v221q0 172 94.5 266.5t265.5 94.5h25v-160h-23q-92 0 -140 -53.5t-48 -157.5v-211h401v221q0 171 95 266t266 95h24v-160h-22q-93 0 -141 -53.5t-48 -157.5z" />
    <glyph glyph-name="fi" unicode="fi" horiz-adv-x="1116" 
d="M377 1118v-211h201v-151h-201v-756h-174v756h-131l28 151h103v221q0 172 94.5 266.5t265.5 94.5h25v-160h-23q-92 0 -140 -53.5t-48 -157.5zM788 0v893l173 31v-924h-173zM758 1251q0 48 33.5 81.5t82.5 33.5t83 -33.5t34 -81.5q0 -49 -33.5 -82.5t-83.5 -33.5t-83 33.5
t-33 82.5z" />
    <glyph glyph-name="fl" unicode="fl" horiz-adv-x="1118" 
d="M377 1118v-211h201v-151h-201v-756h-174v756h-131l28 151h103v221q0 172 94.5 266.5t265.5 94.5h25v-160h-23q-92 0 -140 -53.5t-48 -157.5zM791 0v1458l172 29v-1487h-172z" />
    <glyph glyph-name="ffi" unicode="ffi" horiz-adv-x="1691" 
d="M952 1118v-211h201v-151h-201v-756h-174v756h-401v-756h-174v756h-131l28 151h103v221q0 172 94.5 266.5t265.5 94.5h25v-160h-23q-92 0 -140 -53.5t-48 -157.5v-211h401v221q0 171 95 266t266 95h24v-160h-22q-93 0 -141 -53.5t-48 -157.5zM1364 0v893l172 31v-924h-172
zM1333 1251q0 48 34 81.5t83 33.5t83 -33.5t34 -81.5q0 -49 -33.5 -82.5t-83.5 -33.5t-83.5 33.5t-33.5 82.5z" />
    <glyph glyph-name="ffl" unicode="ffl" horiz-adv-x="1693" 
d="M952 1118v-211h201v-151h-201v-756h-174v756h-401v-756h-174v756h-131l28 151h103v221q0 172 94.5 266.5t265.5 94.5h25v-160h-23q-92 0 -140 -53.5t-48 -157.5v-211h401v221q0 171 95 266t266 95h24v-160h-22q-93 0 -141 -53.5t-48 -157.5zM1366 0v1458l172 29v-1487
h-172z" />
    <glyph glyph-name="T_T.liga" unicode="TT" horiz-adv-x="1994" 
d="M1954 1260h-406v-1260h-184v1260h-733v-1260h-185v1260h-405l33 174h1849z" />
    <glyph glyph-name="t_t.liga" unicode="tt" horiz-adv-x="1325" 
d="M1257 756h-258v-477q0 -67 33.5 -103.5t95.5 -36.5q66 0 129 29v-154q-73 -30 -155 -30q-128 0 -201.5 75t-73.5 205v492h-473v-477q0 -67 33.5 -103.5t95.5 -36.5q66 0 129 29v-154q-73 -30 -155 -30q-128 0 -201.5 75t-73.5 205v492h-137l29 151h108v195l172 96v-291
h473v195l172 96v-291h258v-151z" />
    <glyph glyph-name=".notdef" horiz-adv-x="1392" 
d="M1217 1473v-1473h-1041v1473h1041zM985 1327h-577l288 -473zM330 1221v-969l295 485zM768 737l295 -485v969zM408 145h577l-289 473z" />
    <glyph glyph-name=".null" 
 />
    <glyph glyph-name="nonmarkingreturn" horiz-adv-x="682" 
 />
    <glyph glyph-name="NULL" 
 />
    <glyph glyph-name="NULL" 
 />
    <glyph glyph-name="CR" unicode="&#xd;" horiz-adv-x="430" 
 />
    <glyph glyph-name="space" unicode=" " horiz-adv-x="430" 
 />
    <glyph glyph-name="exclam" unicode="!" horiz-adv-x="542" 
d="M193 442l-15 465v512l184 29v-541l-12 -465h-157zM133 117q0 56 40 95.5t97 39.5q58 0 99 -39.5t41 -95.5t-41 -95.5t-99 -39.5q-57 0 -97 39.5t-40 95.5z" />
    <glyph glyph-name="quotedbl" unicode="&#x22;" horiz-adv-x="761" 
d="M123 844v590h166v-562zM473 844v590h166v-562z" />
    <glyph glyph-name="numbersign" unicode="#" horiz-adv-x="1456" 
d="M1343 928h-235l-68 -379h209v-156h-235l-70 -393h-172l70 393h-348l-70 -393h-174l69 393h-204v156h231l68 379h-205v155h231l62 351h174l-62 -351h349l61 351h172l-61 -351h208v-155zM868 549l68 379h-348l-68 -379h348z" />
    <glyph glyph-name="dollar" unicode="$" horiz-adv-x="1083" 
d="M641 -14v-150h-164v141q-202 15 -383 156l37 193q74 -73 164.5 -120t181.5 -59v512q-342 118 -342 414q0 146 95 251.5t247 127.5v131l164 29v-160q145 -21 281 -106l-33 -185q-132 93 -248 119v-477l8 -2q161 -53 243.5 -160t82.5 -252q0 -151 -91 -261.5t-243 -141.5z
M477 862v420q-73 -20 -115.5 -76t-42.5 -131q0 -143 158 -213zM788 383q0 145 -147 217v-434q69 26 108 84t39 133z" />
    <glyph glyph-name="percent" unicode="%" horiz-adv-x="1738" 
d="M352 -18l-98 79l1124 1391l99 -80zM979 373q0 170 83.5 277.5t223.5 107.5t223.5 -107.5t83.5 -277.5t-83.5 -277.5t-223.5 -107.5t-223.5 107.5t-83.5 277.5zM1454 373q0 117 -45 187.5t-123 70.5t-123 -70.5t-45 -187.5t45 -187.5t123 -70.5t123 70.5t45 187.5z
M145 1059q0 170 84 277.5t224 107.5t223.5 -107.5t83.5 -277.5t-83.5 -277.5t-223.5 -107.5t-224 107.5t-84 277.5zM621 1059q0 117 -45 187.5t-123 70.5t-123 -70.5t-45 -187.5t45 -187.5t123 -70.5t123 70.5t45 187.5z" />
    <glyph glyph-name="ampersand" unicode="&#x26;" horiz-adv-x="1308" 
d="M1243 100l-129 -120l-180 194q-196 -199 -418 -199q-173 0 -292.5 113t-119.5 279q0 127 71 219t216 180q-88 102 -128 182t-40 164q0 145 108 245.5t263 100.5q152 0 259.5 -100t107.5 -242q-2 -68 -23 -122t-65 -100.5t-92 -81.5t-126 -81l273 -291q81 128 139 283
l162 -59q-70 -199 -182 -353zM406 1108q0 -54 31.5 -110t107.5 -144q121 69 178 127t57 135q0 74 -55.5 126t-132.5 52q-79 0 -132.5 -52.5t-53.5 -133.5zM819 299l-315 344q-109 -67 -161 -130t-52 -144q0 -94 67.5 -160t165.5 -66q149 0 295 156z" />
    <glyph glyph-name="quotesingle" unicode="'" horiz-adv-x="411" 
d="M123 844v590h166v-562z" />
    <glyph glyph-name="parenleft" unicode="(" horiz-adv-x="733" 
d="M111 627q0 283 127.5 529.5t351.5 399.5l96 -133q-192 -141 -297.5 -349.5t-105.5 -446.5t105.5 -447t297.5 -350l-96 -133q-224 153 -351.5 400t-127.5 530z" />
    <glyph glyph-name="parenright" unicode=")" horiz-adv-x="733" 
d="M143 -303l-96 133q192 141 298 350t106 447t-106 446.5t-298 349.5l96 133q224 -153 352 -399.5t128 -529.5t-128 -530t-352 -400z" />
    <glyph glyph-name="asterisk" unicode="*" horiz-adv-x="825" 
d="M741 1190l-237 -64l153 -186l-112 -82l-133 203l-133 -207l-113 82l153 190l-233 64l43 133l225 -86l-12 242h139l-12 -244l227 88z" />
    <glyph glyph-name="plus" unicode="+" horiz-adv-x="1054" 
d="M969 756v-160h-361v-387h-164v387h-358v160h358v387h164v-387h361z" />
    <glyph glyph-name="comma" unicode="," horiz-adv-x="522" 
d="M37 -328l188 607h197l-213 -580z" />
    <glyph glyph-name="hyphen" unicode="-" horiz-adv-x="684" 
d="M106 399v150h472v-150h-472z" />
    <glyph glyph-name="period" unicode="." horiz-adv-x="542" 
d="M133 117q0 56 40 95.5t97 39.5q58 0 99 -39.5t41 -95.5t-41 -95.5t-99 -39.5q-57 0 -97 39.5t-40 95.5z" />
    <glyph glyph-name="slash" unicode="/" horiz-adv-x="833" 
d="M57 -317l596 1884h170l-596 -1884h-170z" />
    <glyph glyph-name="zero" unicode="0" horiz-adv-x="1288" 
d="M113 717q0 207 62.5 373t184.5 265t285 99q161 0 283 -99t185 -265.5t63 -372.5t-63 -372.5t-185 -265.5t-283 -99q-163 0 -285 99t-184.5 265t-62.5 373zM985 717q0 116 -21.5 217t-62.5 179.5t-107 123.5t-149 45q-112 0 -190.5 -78.5t-114 -203t-35.5 -283.5
t35.5 -283.5t114 -203t190.5 -78.5q83 0 149 45t107 123.5t62.5 179.5t21.5 217z" />
    <glyph glyph-name="one" unicode="1" horiz-adv-x="765" 
d="M76 1163l508 312v-1475h-185v1163l-288 -180z" />
    <glyph glyph-name="two" unicode="2" horiz-adv-x="1130" 
d="M721 492l-260 -320h528l-31 -172h-862l484 590q122 151 173.5 250.5t51.5 181.5q0 114 -75.5 190t-184.5 76t-185.5 -77t-76.5 -187q0 -79 47 -168l-183 -31q-49 91 -49 201q0 183 129.5 308.5t317.5 125.5t317 -124.5t129 -311.5q0 -111 -59 -228.5t-211 -303.5z" />
    <glyph glyph-name="three" unicode="3" horiz-adv-x="1091" 
d="M967 451q0 -198 -143.5 -336t-350.5 -138q-233 0 -405 197l90 154q128 -178 313 -178q129 0 219 88t90 217t-90 215t-235 86q-64 0 -176 -23l350 531h-518l30 170h817l-383 -547q163 -9 277.5 -135.5t114.5 -300.5z" />
    <glyph glyph-name="four" unicode="4" horiz-adv-x="1167" 
d="M1075 494v-160h-180v-334h-174v334h-709l883 1171v-1011h180zM342 494h379v505z" />
    <glyph glyph-name="five" unicode="5" horiz-adv-x="1107" 
d="M983 451q0 -197 -143 -335.5t-353 -138.5q-203 0 -370 127l53 172q143 -126 313 -126q134 0 223 87.5t89 215.5q0 126 -89.5 213.5t-224.5 87.5q-155 0 -319 -117l45 797h719l-31 -170h-522l-25 -381q71 32 168 32q194 0 330.5 -135t136.5 -329z" />
    <glyph glyph-name="six" unicode="6" horiz-adv-x="1189" 
d="M1085 455q0 -130 -65.5 -240t-178 -174t-245.5 -64q-209 0 -350.5 148.5t-141.5 366.5q-4 176 96 370t256.5 351.5t338.5 261.5l112 -140q-182 -113 -313.5 -233t-212.5 -264q109 80 252 80q189 0 320.5 -134.5t131.5 -328.5zM897 457q0 125 -87.5 212t-213.5 87
q-127 0 -215 -87t-88 -212q0 -128 88 -217.5t215 -89.5q126 0 213.5 89.5t87.5 217.5z" />
    <glyph glyph-name="seven" unicode="7" horiz-adv-x="1040" 
d="M78 1434h915l-571 -1434h-199l506 1260h-682z" />
    <glyph glyph-name="eight" unicode="8" horiz-adv-x="1148" 
d="M1034 391q0 -172 -133.5 -293t-325.5 -121q-193 0 -326.5 121t-133.5 293q0 110 59 201t164 145q-94 50 -148.5 136.5t-54.5 189.5q0 162 128 277.5t310 115.5q184 0 312.5 -115.5t128.5 -277.5q0 -103 -54.5 -189.5t-148.5 -136.5q104 -51 163.5 -142.5t59.5 -203.5z
M322 1049q0 -97 74 -166.5t179 -69.5q104 0 178 69t74 167q0 100 -74 169.5t-178 69.5q-106 0 -179.5 -69.5t-73.5 -169.5zM848 401q0 105 -81 181.5t-192 76.5q-114 0 -194 -76t-80 -182t80 -180t194 -74q113 0 193 74t80 180z" />
    <glyph glyph-name="nine" unicode="9" horiz-adv-x="1189" 
d="M1085 942q3 -133 -54 -279t-154.5 -275.5t-222.5 -241t-259 -187.5l-112 139q181 113 313 233.5t213 264.5q-109 -80 -252 -80q-189 0 -321 135t-132 328q0 97 39 185.5t104.5 152.5t156 101.5t190.5 37.5q209 0 350 -148t141 -366zM594 678q127 0 215 87t88 212
q0 128 -88 217.5t-215 89.5q-126 0 -213.5 -89.5t-87.5 -217.5q0 -125 87.5 -212t213.5 -87z" />
    <glyph glyph-name="colon" unicode=":" horiz-adv-x="542" 
d="M133 117q0 56 40 95.5t97 39.5q58 0 99 -39.5t41 -95.5t-41 -95.5t-99 -39.5q-57 0 -97 39.5t-40 95.5zM133 788q0 56 40 96t97 40q58 0 99 -40t41 -96t-41 -95.5t-99 -39.5q-57 0 -97 39.5t-40 95.5z" />
    <glyph glyph-name="semicolon" unicode=";" horiz-adv-x="583" 
d="M174 788q0 56 40 96t97 40q58 0 99 -40t41 -96t-41 -95.5t-99 -39.5q-57 0 -97 39.5t-40 95.5zM37 -328l188 607h197l-213 -580z" />
    <glyph glyph-name="less" unicode="&#x3c;" horiz-adv-x="985" 
d="M891 1112v-176l-594 -281l594 -280v-176l-817 405v103z" />
    <glyph glyph-name="equal" unicode="=" horiz-adv-x="1032" 
d="M86 774v152h862v-152h-862zM86 385v152h862v-152h-862z" />
    <glyph glyph-name="greater" unicode="&#x3e;" horiz-adv-x="985" 
d="M94 1112l817 -405v-103l-817 -405v176l594 280l-594 281v176z" />
    <glyph glyph-name="question" unicode="?" horiz-adv-x="890" 
d="M354 442l-6 119q-1 58 8 101.5t32 82.5t46.5 66.5t67.5 71.5q46 46 67.5 71.5t38.5 63.5t17 82q0 84 -54 136t-139 52q-90 0 -143.5 -62t-50.5 -161l-175 27q-3 156 101.5 259t269.5 103q158 0 265.5 -97t107.5 -255q-4 -101 -38.5 -160.5t-117.5 -140.5
q-50 -49 -73.5 -76.5t-42 -70.5t-21.5 -97l-2 -115h-158zM297 117q0 56 40 95.5t97 39.5q58 0 98.5 -39.5t40.5 -95.5t-40.5 -95.5t-98.5 -39.5q-57 0 -97 39.5t-40 95.5z" />
    <glyph glyph-name="at" unicode="@" horiz-adv-x="1933" 
d="M1358 930l-76 -383q-6 -34 -6 -68q0 -77 37.5 -123.5t103.5 -46.5q98 0 173 85.5t75 232.5q2 128 -53 246t-148.5 203.5t-223 135.5t-269.5 48q-144 2 -275.5 -53.5t-225.5 -150.5t-149 -226.5t-53 -274.5q-2 -141 55.5 -270.5t155 -223t233 -148t283.5 -52.5
q229 0 430 127l27 -142q-88 -55 -209 -86.5t-254 -31.5q-174 -3 -334 62t-275.5 176.5t-183 266.5t-63.5 324q-3 171 63 327t179 269t270.5 179t329.5 63q224 4 415.5 -98t302.5 -279t107 -383q0 -105 -32.5 -192.5t-86.5 -143t-121 -85.5t-139 -30q-88 0 -152.5 44
t-88.5 128q-49 -71 -129 -112t-166 -41q-131 0 -223.5 94t-92.5 242q0 164 113 284.5t268 120.5q79 0 143.5 -35.5t100.5 -101.5l20 96zM1153 600q0 89 -56 148t-141 59q-96 0 -166.5 -77.5t-70.5 -182.5q0 -89 56.5 -148t142.5 -59q96 0 165.5 77t69.5 183z" />
    <glyph glyph-name="A" unicode="A" horiz-adv-x="1390" 
d="M1159 0l-196 459h-535l-197 -459h-198l663 1485l662 -1485h-199zM498 623h395l-197 460z" />
    <glyph glyph-name="B" unicode="B" horiz-adv-x="1155" 
d="M1042 393q0 -175 -124.5 -284t-325.5 -109h-418v1434h399q192 0 314.5 -104.5t122.5 -268.5q0 -109 -60.5 -195t-165.5 -129q120 -42 189 -133t69 -211zM565 1268h-209v-461h209q114 0 186 65.5t72 171.5q0 100 -72 162t-186 62zM854 403q0 105 -75 172.5t-193 67.5h-230
v-477h230q119 0 193.5 65.5t74.5 171.5z" />
    <glyph glyph-name="C" unicode="C" horiz-adv-x="1380" 
d="M113 717q-2 150 57.5 288.5t161.5 238.5t243 158.5t295 55.5q200 0 369 -88l-33 -186q-156 100 -338 100q-150 3 -281.5 -74t-208.5 -209.5t-73 -283.5q-3 -152 73 -284t207 -209t283 -74q186 0 357 112l32 -186q-180 -101 -391 -101q-153 -3 -294 55.5t-242 159
t-160.5 239t-56.5 288.5z" />
    <glyph glyph-name="D" unicode="D" horiz-adv-x="1363" 
d="M174 0v1434h330q154 2 293.5 -53.5t240 -151.5t159 -230t56.5 -282q2 -148 -56.5 -282t-159 -230t-240 -151.5t-293.5 -53.5h-330zM358 174h144q115 -2 220 40t179.5 115t118 174.5t41.5 213.5q2 112 -41.5 213.5t-118 174.5t-179.5 115t-220 40h-144v-1086z" />
    <glyph glyph-name="E" unicode="E" horiz-adv-x="1099" 
d="M356 172h637l-32 -172h-787v1434h760l31 -172h-609v-439h504v-172h-504v-479z" />
    <glyph glyph-name="F" unicode="F" horiz-adv-x="1036" 
d="M358 1262v-484h465v-172h-465v-606h-184v1434h727l33 -172h-576z" />
    <glyph glyph-name="G" unicode="G" horiz-adv-x="1486" 
d="M797 788h544v-696q-98 -56 -224 -86.5t-255 -30.5q-202 -4 -376.5 96t-275.5 273t-97 373q-3 150 57.5 288.5t164.5 238.5t246.5 158.5t297.5 55.5q219 0 403 -100l-33 -184q-167 110 -370 110q-154 3 -288 -74t-212.5 -209t-75.5 -284q-2 -114 42.5 -219.5t120 -182.5
t180 -122t216.5 -43q175 0 301 57v411h-397z" />
    <glyph glyph-name="H" unicode="H" horiz-adv-x="1529" 
d="M1171 1419l185 29v-1448h-185v641h-813v-641h-184v1419l184 29v-631h813v602z" />
    <glyph glyph-name="I" unicode="I" horiz-adv-x="550" 
d="M184 0v1419l185 29v-1448h-185z" />
    <glyph glyph-name="J" unicode="J" horiz-adv-x="907" 
d="M47 78l51 164q61 -48 116 -70t120 -22q118 0 176.5 73t58.5 230v966l185 29v-1016q0 -216 -108 -336.5t-296 -120.5q-172 0 -303 103z" />
    <glyph glyph-name="K" unicode="K" horiz-adv-x="1191" 
d="M1122 0h-229l-535 711v-711h-184v1419l184 29v-684l519 670h227l-557 -695z" />
    <glyph glyph-name="L" unicode="L" horiz-adv-x="1058" 
d="M358 176h609l-31 -176h-762v1419l184 29v-1272z" />
    <glyph glyph-name="M" unicode="M" horiz-adv-x="1814" 
d="M1692 0h-185l-86 922l-514 -947l-512 951l-86 -926h-184l143 1511l639 -1183l639 1183z" />
    <glyph glyph-name="N" unicode="N" horiz-adv-x="1568" 
d="M1397 1450v-1511l-1039 1101v-1040h-184v1495l1038 -1102v1026z" />
    <glyph glyph-name="O" unicode="O" horiz-adv-x="1734" 
d="M113 717q-3 150 56.5 288.5t161.5 238.5t243 158.5t294 55.5q152 3 292.5 -55.5t242.5 -158.5t162 -238.5t57 -288.5q3 -150 -57 -288.5t-162 -239t-242.5 -159t-292.5 -55.5q-153 -3 -294 55.5t-243 159t-161.5 239t-56.5 288.5zM1430 717q3 152 -73.5 284t-207.5 209
t-281 74q-152 3 -283 -74t-207 -209t-73 -284q-3 -152 73 -284t207 -209t283 -74q150 -3 281 74t207.5 209t73.5 284z" />
    <glyph glyph-name="P" unicode="P" horiz-adv-x="1128" 
d="M1049 944q0 -210 -155.5 -349.5t-387.5 -139.5h-148v-455h-184v1434h332q232 0 387.5 -140t155.5 -350zM856 944q0 138 -101 229t-255 91h-142v-639h142q154 0 255 90.5t101 228.5z" />
    <glyph glyph-name="Q" unicode="Q" horiz-adv-x="1738" 
d="M1626 35l-113 -125l-213 196q-195 -131 -432 -131q-153 -3 -294 55.5t-243 159t-161.5 239t-56.5 288.5q-3 150 56.5 288.5t161.5 238.5t243 158.5t294 55.5q152 3 292.5 -55.5t242.5 -158.5t162 -238.5t57 -288.5q0 -291 -195 -502zM1163 231l-264 242l109 119l280 -254
q142 164 142 379q3 152 -73.5 284t-207.5 209t-281 74q-152 3 -283 -74t-207 -209t-73 -284q-3 -152 73 -284t207 -209t283 -74q160 0 295 81z" />
    <glyph glyph-name="R" unicode="R" horiz-adv-x="1138" 
d="M1051 0h-232l-463 602v-602h-182v1434h309q228 0 368 -125.5t140 -321.5q0 -164 -104.5 -280.5t-278.5 -147.5zM356 1266v-578h119q151 0 238.5 80.5t87.5 212.5q0 128 -88 206.5t-238 78.5h-119z" />
    <glyph glyph-name="S" unicode="S" horiz-adv-x="1083" 
d="M94 133l37 193q89 -84 191.5 -132.5t203.5 -48.5q116 0 189 67t73 171q0 84 -52.5 147.5t-155.5 94.5l-93 30q-352 113 -352 418q0 165 118.5 275t297.5 110q197 0 371 -112l-33 -185q-182 129 -338 129q-104 0 -168 -60.5t-64 -154.5q0 -84 55 -143t181 -101l94 -30
q161 -53 243.5 -160t82.5 -252q0 -177 -124.5 -295.5t-322.5 -118.5q-232 0 -434 158z" />
    <glyph glyph-name="T" unicode="T" horiz-adv-x="1079" 
d="M1036 1260h-405v-1260h-185v1260h-405l33 174h932z" />
    <glyph glyph-name="U" unicode="U" horiz-adv-x="1378" 
d="M154 545v874l184 29v-887q0 -189 95.5 -300t256.5 -111q160 0 255 111t95 300v858l185 29v-903q0 -256 -147.5 -413t-387.5 -157q-241 0 -388.5 156.5t-147.5 413.5z" />
    <glyph glyph-name="V" unicode="V" horiz-adv-x="1388" 
d="M1157 1434h199l-662 -1485l-661 1485h198l463 -1076z" />
    <glyph glyph-name="W" unicode="W" horiz-adv-x="2025" 
d="M1982 1434l-509 -1487l-459 1083l-461 -1083l-510 1487h193l337 -1010l439 1034l438 -1036l340 1012h192z" />
    <glyph glyph-name="X" unicode="X" horiz-adv-x="1349" 
d="M1278 0h-217l-385 590l-387 -590h-217l495 735l-471 699h215l365 -555l362 555h217l-473 -699z" />
    <glyph glyph-name="Y" unicode="Y" horiz-adv-x="1206" 
d="M1147 1434l-451 -873v-561h-184v557l-453 877h205l340 -678l338 678h205z" />
    <glyph glyph-name="Z" unicode="Z" horiz-adv-x="1323" 
d="M1221 1434l-797 -1260h784l-30 -174h-1076l797 1260h-756l31 174h1047z" />
    <glyph glyph-name="bracketleft" unicode="[" horiz-adv-x="733" 
d="M174 -317v1884h477v-154h-311v-1577h311v-153h-477z" />
    <glyph glyph-name="backslash" unicode="\" horiz-adv-x="833" 
d="M776 -317h-170l-596 1884h170z" />
    <glyph glyph-name="bracketright" unicode="]" horiz-adv-x="733" 
d="M559 -317h-477v153h311v1577h-311v154h477v-1884z" />
    <glyph glyph-name="asciicircum" unicode="^" horiz-adv-x="958" 
d="M887 848h-189l-219 428l-219 -428h-188l309 586h194z" />
    <glyph glyph-name="underscore" unicode="_" horiz-adv-x="774" 
d="M0 -309v143h774v-143h-774z" />
    <glyph glyph-name="grave" unicode="`" horiz-adv-x="819" 
d="M590 1059l-434 239l88 146l420 -256z" />
    <glyph glyph-name="a" unicode="a" horiz-adv-x="933" 
d="M809 0h-158l-6 59q-95 -82 -227 -82q-142 0 -241 97t-99 235q0 137 99 233.5t243 96.5q122 0 213 -76v49q0 89 -45.5 130.5t-149.5 41.5q-100 0 -221 -41l29 150q100 33 207 33q169 0 258.5 -78t89.5 -221v-455zM645 309q0 83 -59 139t-144 56t-142.5 -56t-57.5 -139
q0 -80 58 -136t142 -56q85 0 144 56t59 136z" />
    <glyph glyph-name="b" unicode="b" horiz-adv-x="1163" 
d="M1085 457q0 -204 -142 -342t-349 -138q-208 0 -344.5 136.5t-136.5 349.5v995l172 29v-707q125 150 329 150q94 1 182 -35.5t152 -100t101.5 -152t35.5 -185.5zM913 455q0 135 -90 227t-223 92q-134 0 -225.5 -92.5t-91.5 -230.5q0 -134 90 -226t223 -92q134 0 225.5 93
t91.5 229z" />
    <glyph glyph-name="c" unicode="c" horiz-adv-x="882" 
d="M78 455q-2 94 37 182.5t104.5 153.5t156 103t185.5 36q124 0 240 -58l-29 -157q-109 59 -207 59q-134 0 -224.5 -92.5t-90.5 -226.5q0 -135 90.5 -228.5t224.5 -93.5q100 0 217 66l27 -162q-126 -60 -248 -60q-130 0 -241.5 65t-176.5 175t-65 238z" />
    <glyph glyph-name="d" unicode="d" horiz-adv-x="1183" 
d="M862 1458l172 29v-1487h-168v131q-126 -151 -325 -151q-122 -3 -230 60.5t-172 175t-61 239.5q0 129 63 239t169.5 173t230.5 63q192 0 321 -148v676zM874 455q0 132 -92 225.5t-221 93.5q-130 0 -220.5 -93.5t-90.5 -225.5q0 -134 90.5 -228t220.5 -94q129 0 221 94.5
t92 227.5z" />
    <glyph glyph-name="e" unicode="e" horiz-adv-x="1069" 
d="M905 291l62 -148q-180 -166 -404 -166q-208 0 -346.5 137.5t-138.5 338.5q0 131 63.5 240.5t173.5 173t242 63.5q171 0 291.5 -106t142.5 -281l-721 -234q37 -85 115 -133.5t180 -48.5q190 0 340 164zM240 451l561 182q-29 69 -94 109t-150 40q-133 0 -225 -96.5
t-92 -234.5z" />
    <glyph glyph-name="f" unicode="f" horiz-adv-x="632" 
d="M377 1118v-211h201v-151h-201v-756h-174v756h-131l28 151h103v221q0 172 94.5 266.5t265.5 94.5h25v-160h-23q-92 0 -140 -53.5t-48 -157.5z" />
    <glyph glyph-name="g" unicode="g" horiz-adv-x="1067" 
d="M985 950l-29 -151l-151 12q133 -114 133 -285q0 -104 -53.5 -192.5t-147.5 -143.5q81 -50 126.5 -130t45.5 -175q0 -157 -114 -265.5t-285 -108.5q-151 0 -258 86t-135 227l147 67q14 -106 80 -168.5t166 -62.5q104 0 171 66.5t67 164.5t-69 164t-171 66
q-131 0 -219 -113l-72 123q34 34 70 57q-95 52 -150 141.5t-55 198.5q0 166 121.5 282t314.5 122zM774 524q0 109 -77 183.5t-187 74.5q-112 0 -189 -74.5t-77 -183.5t76 -181.5t190 -72.5q111 0 187.5 73t76.5 181z" />
    <glyph glyph-name="h" unicode="h" horiz-adv-x="1089" 
d="M954 549v-549h-172v532q0 114 -59.5 177t-159.5 63q-107 0 -174 -71t-67 -187v-514h-172v1458l172 29v-686q104 129 280 129q156 0 254 -103t98 -278z" />
    <glyph glyph-name="i" unicode="i" horiz-adv-x="483" 
d="M156 0v893l172 31v-924h-172zM125 1251q0 48 34 81.5t83 33.5t82.5 -33.5t33.5 -81.5q0 -49 -33 -82.5t-83 -33.5t-83.5 33.5t-33.5 82.5z" />
    <glyph glyph-name="j" unicode="j" horiz-adv-x="483" 
d="M-29 -479v157q91 4 138 61t47 161v993l172 31v-1033q0 -170 -95 -268.5t-262 -101.5zM125 1251q0 48 34 81.5t83 33.5t82.5 -33.5t33.5 -81.5q0 -49 -33 -82.5t-83 -33.5t-83.5 33.5t-33.5 82.5z" />
    <glyph glyph-name="k" unicode="k" horiz-adv-x="964" 
d="M907 0h-221l-364 451v-451h-172v1458l172 29v-995l348 415h219l-381 -434z" />
    <glyph glyph-name="l" unicode="l" horiz-adv-x="483" 
d="M156 0v1458l172 29v-1487h-172z" />
    <glyph glyph-name="m" unicode="m" horiz-adv-x="1605" 
d="M1470 565v-565h-172v547q0 107 -51.5 167t-138.5 60q-94 0 -152.5 -67t-58.5 -179v-528h-172v547q0 107 -51.5 167t-138.5 60q-93 0 -153 -67.5t-60 -178.5v-528h-172v895l163 27v-119q44 61 111 94t147 33q186 0 271 -160q48 76 125.5 118t173.5 42q148 0 238.5 -98.5
t90.5 -266.5z" />
    <glyph glyph-name="n" unicode="n" horiz-adv-x="1089" 
d="M954 549v-549h-172v532q0 114 -59 178t-160 64q-107 0 -174 -71.5t-67 -188.5v-514h-172v895l163 27v-121q107 129 287 129q159 0 256.5 -102.5t97.5 -278.5z" />
    <glyph glyph-name="o" unicode="o" horiz-adv-x="1126" 
d="M78 453q0 198 141.5 337.5t343.5 139.5q134 0 246 -64t177 -173.5t65 -239.5q0 -198 -142 -337t-346 -139q-132 0 -243.5 63.5t-176.5 173t-65 239.5zM879 455q0 135 -92 227t-224 92q-133 0 -223 -92t-90 -227q0 -137 90 -229.5t223 -92.5q132 0 224 93t92 229z" />
    <glyph glyph-name="p" unicode="p" horiz-adv-x="1183" 
d="M1106 455q3 -128 -61 -239.5t-172 -175t-230 -60.5q-193 0 -321 147v-594h-172v1362l159 27v-154q61 77 147 119.5t187 42.5q124 0 230.5 -63t169.5 -173t63 -239zM934 455q0 132 -90.5 225.5t-220.5 93.5q-129 0 -221.5 -93.5t-92.5 -225.5q0 -133 92.5 -227.5
t221.5 -94.5q130 0 220.5 94t90.5 228z" />
    <glyph glyph-name="q" unicode="q" horiz-adv-x="1183" 
d="M864 893l170 29v-1389h-172v592q-126 -145 -321 -145q-122 -3 -230 60.5t-172 175t-61 239.5q0 129 63 239t169.5 173t230.5 63q198 0 323 -150v113zM874 455q0 132 -92 225.5t-221 93.5q-130 0 -220.5 -93.5t-90.5 -225.5q0 -134 90.5 -228t220.5 -94q129 0 221 94.5
t92 227.5z" />
    <glyph glyph-name="r" unicode="r" horiz-adv-x="665" 
d="M625 924v-168q-303 0 -303 -295v-461h-172v895l163 27v-150q96 152 312 152z" />
    <glyph glyph-name="s" unicode="s" horiz-adv-x="774" 
d="M86 70l27 147q143 -94 260 -94q66 0 104.5 34.5t38.5 94.5q0 49 -34.5 81t-119.5 58l-38 12q-104 37 -159.5 107t-55.5 164q0 109 79.5 182.5t202.5 73.5q121 0 254 -70l-29 -147q-55 35 -114.5 54t-106.5 19q-61 0 -95 -30t-34 -80q0 -42 31 -71t109 -58l36 -12
q117 -38 178.5 -109.5t61.5 -171.5q0 -122 -84.5 -199.5t-220.5 -77.5q-147 0 -291 93z" />
    <glyph glyph-name="t" unicode="t" horiz-adv-x="679" 
d="M612 756h-258v-477q0 -67 33.5 -103.5t95.5 -36.5q66 0 129 29v-154q-73 -30 -155 -30q-128 0 -201.5 75t-73.5 205v492h-137l29 151h108v195l172 96v-291h258v-151z" />
    <glyph glyph-name="u" unicode="u" horiz-adv-x="1081" 
d="M758 895l172 29v-926h-164v106q-105 -124 -281 -124q-158 0 -254 101.5t-96 276.5v537l172 29v-547q0 -114 57.5 -177t157.5 -63q104 0 170 70t66 186v502z" />
    <glyph glyph-name="v" unicode="v" horiz-adv-x="976" 
d="M764 907h188l-463 -952l-464 952h188l276 -598z" />
    <glyph glyph-name="w" unicode="w" horiz-adv-x="1542" 
d="M1507 907l-422 -952l-313 651l-315 -651l-422 952h186l244 -590l307 633l305 -633l244 590h186z" />
    <glyph glyph-name="x" unicode="x" horiz-adv-x="991" 
d="M942 0h-203l-243 356l-244 -356h-203l344 475l-313 432h201l215 -315l217 315h198l-311 -432z" />
    <glyph glyph-name="y" unicode="y" horiz-adv-x="993" 
d="M776 907h189l-660 -1374h-188l291 576l-381 798h188l281 -618z" />
    <glyph glyph-name="z" unicode="z" horiz-adv-x="974" 
d="M901 907l-528 -757h518l-27 -150h-790l530 758h-489l26 149h760z" />
    <glyph glyph-name="braceleft" unicode="{" horiz-adv-x="722" 
d="M432 1249q0 -24 8 -71l43 -240q6 -34 6 -66q0 -97 -54 -160t-150 -87q96 -24 150 -87t54 -161q0 -31 -6 -66l-43 -239q-8 -44 -8 -70q0 -166 178 -166h31v-153h-37q-163 0 -251.5 78.5t-88.5 215.5q0 54 8 93l45 243q1 11 3 26.5t2 20.5q0 86 -62.5 138t-187.5 53v147
q125 1 187.5 53t62.5 138q0 5 -2 20.5t-3 26.5l-45 244q-8 39 -8 92q0 137 88.5 216t251.5 79h37v-154h-31q-178 0 -178 -164z" />
    <glyph glyph-name="bar" unicode="|" horiz-adv-x="509" 
d="M174 -317v1884h162v-1884h-162z" />
    <glyph glyph-name="braceright" unicode="}" horiz-adv-x="722" 
d="M401 360q0 -5 2 -20.5t3 -26.5l45 -243q8 -39 8 -93q0 -137 -88.5 -215.5t-251.5 -78.5h-37v153h31q178 0 178 166q0 26 -8 70l-43 239q-7 40 -7 66q0 97 54.5 160.5t150.5 87.5q-96 24 -150.5 87t-54.5 160q0 26 7 66l43 240q8 47 8 71q0 164 -178 164h-31v154h37
q163 0 251.5 -79t88.5 -216q0 -53 -8 -92l-45 -244q-1 -11 -3 -26.5t-2 -20.5q0 -86 62.5 -138t187.5 -53v-147q-125 -1 -187.5 -53t-62.5 -138z" />
    <glyph glyph-name="asciitilde" unicode="~" horiz-adv-x="937" 
d="M438 596q-42 29 -66 40t-53 11q-48 0 -77.5 -31.5t-30.5 -85.5h-129q0 114 66.5 183t168.5 69q50 0 87.5 -15t95.5 -52q43 -29 66 -40t52 -11q48 0 78 31.5t31 84.5h129q0 -114 -66.5 -183t-168.5 -69q-50 0 -87 15.5t-96 52.5z" />
    <glyph glyph-name="uni00A0" unicode="&#xa0;" horiz-adv-x="430" 
 />
    <glyph glyph-name="exclamdown" unicode="&#xa1;" horiz-adv-x="542" 
d="M410 895q0 -56 -41 -95.5t-99 -39.5q-57 0 -97 39.5t-40 95.5t40 95.5t97 39.5q58 0 99 -39.5t41 -95.5zM193 569h157l12 -465v-540l-184 28v512z" />
    <glyph glyph-name="cent" unicode="&#xa2;" horiz-adv-x="882" 
d="M598 -20v-144h-156v156q-158 40 -261 170t-103 293q0 164 103.5 293.5t260.5 166.5v144l156 26v-157q100 -6 203 -56l-29 -157q-82 48 -174 57v-637q94 9 184 64l27 -162q-108 -51 -211 -57zM442 158v594q-88 -35 -140 -116t-52 -181t52 -181t140 -116z" />
    <glyph glyph-name="sterling" unicode="&#xa3;" horiz-adv-x="1239" 
d="M530 645v-473h553l-30 -172h-908v172h203v473h-203v170h203v156q0 240 135.5 380t362.5 140q137 0 248 -51l-31 -168q-103 47 -207 47q-150 0 -238 -93.5t-88 -254.5v-156h445l-31 -170h-414z" />
    <glyph glyph-name="currency" unicode="&#xa4;" horiz-adv-x="1548" 
d="M1147 453l162 -154l-115 -117l-156 162q-113 -84 -264 -84t-264 84l-154 -162l-116 117l159 152q-84 122 -84 266t84 266l-159 152l116 116l154 -161q113 84 264 84t264 -84l156 161l115 -116l-162 -154q84 -113 84 -264t-84 -264zM1073 717q0 124 -87.5 212.5
t-211.5 88.5t-212.5 -89t-88.5 -212t88.5 -212t212.5 -89t211.5 88.5t87.5 212.5z" />
    <glyph glyph-name="yen" unicode="&#xa5;" horiz-adv-x="1343" 
d="M1202 1434l-364 -625h323v-150h-397v-174h397v-147h-397v-338h-184v338h-398v147h398v174h-398v150h324l-365 625h207l324 -578l323 578h207z" />
    <glyph glyph-name="brokenbar" unicode="&#xa6;" horiz-adv-x="509" 
d="M174 737v830h162v-830h-162zM174 -317v849h162v-849h-162z" />
    <glyph glyph-name="section" unicode="&#xa7;" horiz-adv-x="1030" 
d="M852 233q0 -141 -102 -233t-261 -92q-88 0 -178.5 28.5t-165.5 79.5l31 172q176 -116 305 -116q88 0 138.5 42t50.5 115q0 58 -40.5 96.5t-150.5 73.5l-106 39q-123 43 -189.5 122t-66.5 183q0 177 151 267q-90 84 -90 213q0 132 94.5 217.5t241.5 85.5q145 0 293 -82
l-35 -170q-139 88 -258 88q-74 0 -116 -36.5t-42 -98.5q0 -53 36.5 -88.5t131.5 -65.5l107 -39q282 -96 282 -319q0 -89 -38 -160.5t-107 -114.5q84 -81 84 -207zM457 598l112 -41q13 -4 72 -31q100 57 100 166q0 62 -41.5 104t-148.5 78l-115 39l-51 19q-98 -68 -98 -162
q0 -54 38 -95.5t132 -76.5z" />
    <glyph glyph-name="dieresis" unicode="&#xa8;" horiz-adv-x="819" 
d="M109 1233q0 44 32 75t76 31q45 0 77 -31t32 -75t-32.5 -76.5t-76.5 -32.5t-76 32.5t-32 76.5zM494 1233q0 44 32 75t76 31q45 0 77 -31t32 -75t-32.5 -76.5t-76.5 -32.5q-46 0 -77 32t-31 77z" />
    <glyph glyph-name="copyright" unicode="&#xa9;" horiz-adv-x="1701" 
d="M113 717q-3 148 55.5 286t158.5 238t237.5 159t285.5 56q148 3 286 -56t238 -159t159 -238t56 -286q3 -148 -56 -286t-159 -238.5t-238 -159.5t-286 -56q-148 -3 -285.5 56t-237.5 159.5t-158.5 238.5t-55.5 286zM1458 717q3 162 -79 304t-223.5 225t-305.5 79
q-121 2 -234.5 -47t-196 -131.5t-131 -195.5t-46.5 -234q-2 -121 46.5 -234.5t131 -196t196 -131t234.5 -46.5q164 -4 305.5 79t223.5 225t79 304zM453 717q0 172 121 290.5t300 118.5q119 0 211 -51l-26 -139q-82 55 -178 55q-117 0 -198 -80t-81 -194t81 -194.5t198 -80.5
q95 0 186 60l27 -137q-101 -58 -220 -58q-178 0 -299.5 119t-121.5 291z" />
    <glyph glyph-name="ordfeminine" unicode="&#xaa;" horiz-adv-x="772" 
d="M666 664h-138l-6 57q-79 -76 -198 -76q-118 0 -201.5 80.5t-83.5 194.5q0 115 83.5 194.5t205.5 79.5q104 0 186 -70v43q0 79 -40.5 115.5t-133.5 36.5q-89 0 -184 -33l24 123q95 29 180 29q148 0 225 -65.5t77 -194.5v-371zM522 924q0 67 -49.5 114t-120.5 47
q-69 0 -118.5 -47t-49.5 -114q0 -69 49.5 -116.5t118.5 -47.5q70 0 120 49t50 115z" />
    <glyph glyph-name="guillemotleft" unicode="&#xab;" horiz-adv-x="997" 
d="M518 803l-233 -342l233 -342l-129 -86l-287 428l287 428zM866 803l-233 -342l233 -342l-129 -86l-286 428l286 428z" />
    <glyph glyph-name="logicalnot" unicode="&#xac;" horiz-adv-x="1032" 
d="M791 408v344h-705v153h862v-497h-157z" />
    <glyph glyph-name="uni00AD" unicode="&#xad;" horiz-adv-x="684" 
d="M106 399v150h472v-150h-472z" />
    <glyph glyph-name="registered" unicode="&#xae;" horiz-adv-x="1701" 
d="M1589 717q3 -148 -56 -286t-159 -238.5t-238 -159.5t-286 -56q-148 -3 -285.5 56t-237.5 159.5t-158.5 238.5t-55.5 286q-3 148 55.5 286t158.5 238t237.5 159t285.5 56q148 3 286 -56t238 -159t159 -238t56 -286zM1458 717q3 162 -79 304t-223.5 225t-305.5 79
q-121 2 -234.5 -47t-196 -131.5t-131 -195.5t-46.5 -234q-2 -121 46.5 -234.5t131 -196t196 -131t234.5 -46.5q164 -4 305.5 79t223.5 225t79 304zM930 631l246 -305h-181l-250 319v-319h-145v794h268q135 0 217 -68t82 -180q0 -100 -64.5 -166t-172.5 -75zM745 999v-264
h117q72 0 115 36.5t43 98.5q0 61 -42.5 95t-115.5 34h-117z" />
    <glyph glyph-name="overscore" unicode="&#xaf;" horiz-adv-x="819" 
d="M117 1184v145h585v-145h-585z" />
    <glyph glyph-name="degree" unicode="&#xb0;" horiz-adv-x="829" 
d="M94 1145q0 129 93 219t227 90t227.5 -90t93.5 -219q0 -130 -93.5 -220.5t-227.5 -90.5t-227 90.5t-93 220.5zM596 1145q0 76 -53 128t-129 52q-77 0 -129 -52t-52 -128q0 -75 52.5 -128.5t128.5 -53.5q75 0 128.5 53.5t53.5 128.5z" />
    <glyph glyph-name="plusminus" unicode="&#xb1;" horiz-adv-x="1054" 
d="M444 242v381h-358v157h358v381h164v-381h359v-157h-359v-381h-164zM86 158h883v-158h-883v158z" />
    <glyph glyph-name="twosuperior" unicode="&#xb2;" horiz-adv-x="645" 
d="M399 1096l-75 -78h247l-20 -127h-506l254 276q84 91 111.5 133t31.5 95q0 57 -37 92t-94 35t-93 -34.5t-36 -88.5q0 -37 21 -78l-135 -14q-21 65 -21 100q0 103 76 172.5t188 69.5q113 0 190 -71.5t77 -176.5q0 -74 -39 -135.5t-140 -169.5z" />
    <glyph glyph-name="threesuperior" unicode="&#xb3;" horiz-adv-x="614" 
d="M561 1130q0 -111 -83 -181t-206 -70q-136 0 -235 90l51 108q78 -78 180 -78q65 0 109.5 39.5t44.5 96.5q0 58 -46 94.5t-120 36.5q-43 0 -100 -13l172 260h-267l19 123h469l-193 -278q89 -9 147 -74t58 -154z" />
    <glyph glyph-name="acute" unicode="&#xb4;" horiz-adv-x="819" 
d="M250 1059l-74 129l420 256l88 -146z" />
    <glyph glyph-name="mu" unicode="&#xb5;" horiz-adv-x="1097" 
d="M774 895l172 29v-926h-164v90q-89 -106 -237 -106q-136 0 -223 96v-545h-172v1362l172 29v-547q0 -112 62 -178t165 -66t164 66t61 178v518z" />
    <glyph glyph-name="paragraph" unicode="&#xb6;" horiz-adv-x="1335" 
d="M573 -193v740q-213 0 -353 125.5t-140 316.5q0 192 139.5 318.5t353.5 126.5h588v-1627h-174v1463h-239v-1463h-175z" />
    <glyph glyph-name="middot" unicode="&#xb7;" horiz-adv-x="542" 
d="M133 557q0 56 40 95.5t97 39.5q58 0 99 -39.5t41 -95.5t-41 -95.5t-99 -39.5q-57 0 -97 39.5t-40 95.5z" />
    <glyph glyph-name="cedilla" unicode="&#xb8;" horiz-adv-x="819" 
d="M274 -377l-159 103l237 307h148z" />
    <glyph glyph-name="onesuperior" unicode="&#xb9;" horiz-adv-x="407" 
d="M23 1511l301 146v-766h-140v561l-141 -68z" />
    <glyph glyph-name="ordmasculine" unicode="&#xba;" horiz-adv-x="942" 
d="M61 1044q0 167 118.5 282.5t289.5 115.5q173 0 292.5 -115.5t119.5 -282.5q0 -166 -119.5 -282.5t-292.5 -116.5q-170 0 -289 116.5t-119 282.5zM729 1044q0 111 -74 187t-186 76q-108 0 -183 -77t-75 -186q0 -112 74.5 -188t183.5 -76q112 0 186 75.5t74 188.5z" />
    <glyph glyph-name="guillemotright" unicode="&#xbb;" horiz-adv-x="997" 
d="M260 889l287 -428l-287 -428l-129 86l234 342l-234 342zM608 889l287 -428l-287 -428l-129 86l234 342l-234 342z" />
    <glyph glyph-name="onequarter" unicode="&#xbc;" horiz-adv-x="1595" 
d="M104 1307l302 145v-766h-140v561l-141 -67zM258 -18l-98 79l1124 1391l98 -80zM1458 270v-114h-88v-156h-129v156h-387l516 643v-529h88zM1100 270h141v176z" />
    <glyph glyph-name="onehalf" unicode="&#xbd;" horiz-adv-x="1581" 
d="M104 1307l302 145v-766h-140v561l-141 -67zM1253 205l-75 -78h247l-20 -127h-506l254 276q84 91 111.5 133t31.5 95q0 57 -37 92t-94 35t-93 -34.5t-36 -88.5q0 -38 21 -78l-135 -14q-21 65 -21 100q0 103 76 172.5t188 69.5q113 0 190 -71.5t77 -176.5q0 -74 -39 -135.5
t-140 -169.5zM223 -18l-98 79l1124 1391l99 -80z" />
    <glyph glyph-name="threequarters" unicode="&#xbe;" horiz-adv-x="1665" 
d="M643 926q0 -111 -83 -181.5t-206 -70.5q-136 0 -235 90l51 108q77 -77 180 -77q65 0 109.5 39t44.5 96q0 58 -46 94.5t-120 36.5q-47 0 -100 -12l172 260h-267l19 123h469l-193 -279q89 -9 147 -73.5t58 -153.5zM375 -18l-99 79l1125 1391l98 -80zM1528 270v-114h-88
v-156h-129v156h-387l516 643v-529h88zM1169 270h142v176z" />
    <glyph glyph-name="questiondown" unicode="&#xbf;" horiz-adv-x="890" 
d="M594 895q0 -56 -40 -95.5t-97 -39.5q-58 0 -99 39.5t-41 95.5t41 95.5t99 39.5q57 0 97 -39.5t40 -95.5zM537 569l6 -118q1 -58 -8 -101.5t-32 -82.5t-46.5 -66.5t-67.5 -71.5q-46 -46 -67.5 -71.5t-38.5 -63.5t-17 -82q0 -84 54 -136t139 -52q90 0 143.5 62t50.5 161
l174 -27q3 -156 -101 -259t-269 -103q-158 0 -265.5 97t-107.5 255q4 101 38.5 160.5t117.5 140.5q50 49 73.5 76.5t42 70.5t21.5 97l2 114h158z" />
    <glyph glyph-name="Agrave" unicode="&#xc0;" horiz-adv-x="1390" 
d="M1159 0l-196 459h-535l-197 -459h-198l663 1485l662 -1485h-199zM498 623h395l-197 460zM870 1575l-495 217l74 154l483 -236z" />
    <glyph glyph-name="Aacute" unicode="&#xc1;" horiz-adv-x="1390" 
d="M1159 0l-196 459h-535l-197 -459h-198l663 1485l662 -1485h-199zM498 623h395l-197 460zM522 1575l-61 135l483 236l74 -154z" />
    <glyph glyph-name="Acircumflex" unicode="&#xc2;" horiz-adv-x="1390" 
d="M1159 0l-196 459h-535l-197 -459h-198l663 1485l662 -1485h-199zM498 623h395l-197 460zM1016 1667l-90 -100l-230 196l-229 -196l-90 100l319 291z" />
    <glyph glyph-name="Atilde" unicode="&#xc3;" horiz-adv-x="1390" 
d="M1159 0l-196 459h-535l-197 -459h-198l663 1485l662 -1485h-199zM498 623h395l-197 460zM664 1716q-43 23 -64.5 31t-46.5 8q-38 0 -63 -24.5t-25 -61.5h-125q0 102 60 163.5t155 61.5q46 0 83.5 -13t90.5 -42q74 -41 111 -41q38 0 63 25.5t25 62.5h125
q0 -102 -60 -163.5t-155 -61.5q-46 0 -83.5 13t-90.5 42z" />
    <glyph glyph-name="Adieresis" unicode="&#xc4;" horiz-adv-x="1390" 
d="M1159 0l-196 459h-535l-197 -459h-198l663 1485l662 -1485h-199zM498 623h395l-197 460zM324 1739q0 51 35.5 86t86.5 35q54 0 89.5 -35t35.5 -86t-35.5 -87t-89.5 -36q-53 0 -87.5 35.5t-34.5 87.5zM821 1739q0 51 35.5 86t89.5 35q51 0 87 -35t36 -86t-36 -87t-87 -36
q-54 0 -89.5 36t-35.5 87z" />
    <glyph glyph-name="Aring" unicode="&#xc5;" horiz-adv-x="1390" 
d="M1159 0l-196 459h-535l-197 -459h-198l663 1485l662 -1485h-199zM498 623h395l-197 460zM453 1765q0 96 70.5 163t172.5 67t173 -67t71 -163t-71 -162.5t-173 -66.5t-172.5 66.5t-70.5 162.5zM821 1765q0 51 -37 87t-88 36t-88 -36t-37 -87t37 -87t88 -36t88 36t37 87z
" />
    <glyph glyph-name="AE" unicode="&#xc6;" horiz-adv-x="1826" 
d="M1083 172h637l-32 -172h-787v481h-432l-233 -481h-203l708 1434h920l31 -172h-609v-439h504v-172h-504v-479zM551 649h350v613h-51z" />
    <glyph glyph-name="Ccedilla" unicode="&#xc7;" horiz-adv-x="1380" 
d="M891 -25l-199 -360l-170 109l205 264q-265 46 -439.5 251.5t-174.5 477.5q-2 150 57.5 288.5t161.5 238.5t243 158.5t295 55.5q200 0 369 -88l-33 -186q-156 100 -338 100q-150 3 -281.5 -74t-208.5 -209.5t-73 -283.5q-3 -152 73 -284t207 -209t283 -74q186 0 357 112
l32 -186q-173 -95 -366 -101z" />
    <glyph glyph-name="Egrave" unicode="&#xc8;" horiz-adv-x="1099" 
d="M356 172h637l-32 -172h-787v1434h760l31 -172h-609v-439h504v-172h-504v-479zM745 1575l-495 217l74 154l483 -236z" />
    <glyph glyph-name="Eacute" unicode="&#xc9;" horiz-adv-x="1099" 
d="M356 172h637l-32 -172h-787v1434h760l31 -172h-609v-439h504v-172h-504v-479zM397 1575l-61 135l483 236l74 -154z" />
    <glyph glyph-name="Ecircumflex" unicode="&#xca;" horiz-adv-x="1099" 
d="M356 172h637l-32 -172h-787v1434h760l31 -172h-609v-439h504v-172h-504v-479zM891 1667l-90 -100l-230 196l-229 -196l-90 100l319 291z" />
    <glyph glyph-name="Edieresis" unicode="&#xcb;" horiz-adv-x="1099" 
d="M356 172h637l-32 -172h-787v1434h760l31 -172h-609v-439h504v-172h-504v-479zM199 1739q0 51 36 86t87 35q54 0 89 -35t35 -86q0 -52 -35.5 -87.5t-88.5 -35.5t-88 35.5t-35 87.5zM696 1739q0 51 35.5 86t89.5 35q51 0 87 -35t36 -86t-36 -87t-87 -36q-53 0 -89 36
t-36 87z" />
    <glyph glyph-name="Igrave" unicode="&#xcc;" horiz-adv-x="550" 
d="M184 0v1419l185 29v-1448h-185zM451 1575l-496 217l74 154l483 -236z" />
    <glyph glyph-name="Iacute" unicode="&#xcd;" horiz-adv-x="550" 
d="M184 0v1419l185 29v-1448h-185zM102 1575l-61 135l483 236l74 -154z" />
    <glyph glyph-name="Icircumflex" unicode="&#xce;" horiz-adv-x="550" 
d="M184 0v1419l185 29v-1448h-185zM596 1667l-90 -100l-230 196l-229 -196l-90 100l319 291z" />
    <glyph glyph-name="Idieresis" unicode="&#xcf;" horiz-adv-x="550" 
d="M184 0v1419l185 29v-1448h-185zM-57 1739q0 51 36 86t87 35q54 0 89 -35t35 -86q0 -52 -35.5 -87.5t-88.5 -35.5t-88 35.5t-35 87.5zM362 1739q0 51 35.5 86t89.5 35q51 0 87 -35t36 -86t-36 -87t-87 -36q-53 0 -89 36t-36 87z" />
    <glyph glyph-name="Eth" unicode="&#xd0;" horiz-adv-x="1363" 
d="M1253 717q2 -148 -56.5 -282t-159 -230t-240 -151.5t-293.5 -53.5h-330v639h-149v166h149v629h330q154 2 293.5 -53.5t240 -151.5t159 -230t56.5 -282zM1061 717q2 112 -41.5 213.5t-118 174.5t-179.5 115t-220 40h-144v-455h390v-166h-390v-465h144q115 -2 220 40
t179.5 115t118 174.5t41.5 213.5z" />
    <glyph glyph-name="Ntilde" unicode="&#xd1;" horiz-adv-x="1568" 
d="M1397 1450v-1511l-1039 1101v-1040h-184v1495l1038 -1102v1026zM752 1716q-43 23 -64.5 31t-46.5 8q-38 0 -63 -24.5t-25 -61.5h-125q0 102 60 163.5t155 61.5q46 0 83.5 -13t90.5 -42q74 -41 111 -41q38 0 63 25.5t25 62.5h125q0 -102 -60 -163.5t-155 -61.5
q-46 0 -83.5 13t-90.5 42z" />
    <glyph glyph-name="Ograve" unicode="&#xd2;" horiz-adv-x="1734" 
d="M113 717q-3 150 56.5 288.5t161.5 238.5t243 158.5t294 55.5q152 3 292.5 -55.5t242.5 -158.5t162 -238.5t57 -288.5q3 -150 -57 -288.5t-162 -239t-242.5 -159t-292.5 -55.5q-153 -3 -294 55.5t-243 159t-161.5 239t-56.5 288.5zM1430 717q3 152 -73.5 284t-207.5 209
t-281 74q-152 3 -283 -74t-207 -209t-73 -284q-3 -152 73 -284t207 -209t283 -74q150 -3 281 74t207.5 209t73.5 284zM1042 1575l-495 217l74 154l483 -236z" />
    <glyph glyph-name="Oacute" unicode="&#xd3;" horiz-adv-x="1734" 
d="M113 717q-3 150 56.5 288.5t161.5 238.5t243 158.5t294 55.5q152 3 292.5 -55.5t242.5 -158.5t162 -238.5t57 -288.5q3 -150 -57 -288.5t-162 -239t-242.5 -159t-292.5 -55.5q-153 -3 -294 55.5t-243 159t-161.5 239t-56.5 288.5zM1430 717q3 152 -73.5 284t-207.5 209
t-281 74q-152 3 -283 -74t-207 -209t-73 -284q-3 -152 73 -284t207 -209t283 -74q150 -3 281 74t207.5 209t73.5 284zM694 1575l-61 135l483 236l74 -154z" />
    <glyph glyph-name="Ocircumflex" unicode="&#xd4;" horiz-adv-x="1734" 
d="M113 717q-3 150 56.5 288.5t161.5 238.5t243 158.5t294 55.5q152 3 292.5 -55.5t242.5 -158.5t162 -238.5t57 -288.5q3 -150 -57 -288.5t-162 -239t-242.5 -159t-292.5 -55.5q-153 -3 -294 55.5t-243 159t-161.5 239t-56.5 288.5zM1430 717q3 152 -73.5 284t-207.5 209
t-281 74q-152 3 -283 -74t-207 -209t-73 -284q-3 -152 73 -284t207 -209t283 -74q150 -3 281 74t207.5 209t73.5 284zM1188 1667l-90 -100l-230 196l-229 -196l-90 100l319 291z" />
    <glyph glyph-name="Otilde" unicode="&#xd5;" horiz-adv-x="1734" 
d="M113 717q-3 150 56.5 288.5t161.5 238.5t243 158.5t294 55.5q152 3 292.5 -55.5t242.5 -158.5t162 -238.5t57 -288.5q3 -150 -57 -288.5t-162 -239t-242.5 -159t-292.5 -55.5q-153 -3 -294 55.5t-243 159t-161.5 239t-56.5 288.5zM1430 717q3 152 -73.5 284t-207.5 209
t-281 74q-152 3 -283 -74t-207 -209t-73 -284q-3 -152 73 -284t207 -209t283 -74q150 -3 281 74t207.5 209t73.5 284zM836 1716q-43 23 -64.5 31t-46.5 8q-38 0 -63 -24.5t-25 -61.5h-125q0 102 60 163.5t155 61.5q46 0 83.5 -13t90.5 -42q74 -41 111 -41q38 0 63 25.5
t25 62.5h125q0 -102 -60 -163.5t-155 -61.5q-46 0 -83.5 13t-90.5 42z" />
    <glyph glyph-name="Odieresis" unicode="&#xd6;" horiz-adv-x="1734" 
d="M113 717q-3 150 56.5 288.5t161.5 238.5t243 158.5t294 55.5q152 3 292.5 -55.5t242.5 -158.5t162 -238.5t57 -288.5q3 -150 -57 -288.5t-162 -239t-242.5 -159t-292.5 -55.5q-153 -3 -294 55.5t-243 159t-161.5 239t-56.5 288.5zM1430 717q3 152 -73.5 284t-207.5 209
t-281 74q-152 3 -283 -74t-207 -209t-73 -284q-3 -152 73 -284t207 -209t283 -74q150 -3 281 74t207.5 209t73.5 284zM496 1739q0 51 35.5 86t86.5 35q54 0 89.5 -35t35.5 -86t-35.5 -87t-89.5 -36q-53 0 -87.5 35.5t-34.5 87.5zM993 1739q0 51 35.5 86t89.5 35q51 0 87 -35
t36 -86t-36 -87t-87 -36q-54 0 -89.5 36t-35.5 87z" />
    <glyph glyph-name="multiply" unicode="&#xd7;" horiz-adv-x="1050" 
d="M930 969l-293 -293l293 -293l-113 -113l-291 293l-293 -293l-112 113l293 293l-293 293l112 112l293 -293l291 293z" />
    <glyph glyph-name="Oslash" unicode="&#xd8;" horiz-adv-x="1734" 
d="M1622 717q3 -150 -57 -288.5t-162 -239t-242.5 -159t-292.5 -55.5q-240 0 -430 127l-123 -141l-114 100l121 140q-101 104 -155 236t-54 280q-3 150 56.5 288.5t161.5 238.5t243 158.5t294 55.5q233 0 430 -129l123 144l115 -101l-121 -139q99 -104 153 -236t54 -280z
M442 342l736 850q-140 92 -310 92q-152 3 -283 -74t-207 -209t-73 -284q0 -219 137 -375zM1430 717q0 218 -138 375l-735 -850q139 -92 311 -92q150 -3 281 74t207.5 209t73.5 284z" />
    <glyph glyph-name="Ugrave" unicode="&#xd9;" horiz-adv-x="1378" 
d="M154 545v874l184 29v-887q0 -189 95.5 -300t256.5 -111q160 0 255 111t95 300v858l185 29v-903q0 -256 -147.5 -413t-387.5 -157q-241 0 -388.5 156.5t-147.5 413.5zM864 1575l-495 217l73 154l484 -236z" />
    <glyph glyph-name="Uacute" unicode="&#xda;" horiz-adv-x="1378" 
d="M154 545v874l184 29v-887q0 -189 95.5 -300t256.5 -111q160 0 255 111t95 300v858l185 29v-903q0 -256 -147.5 -413t-387.5 -157q-241 0 -388.5 156.5t-147.5 413.5zM516 1575l-61 135l483 236l74 -154z" />
    <glyph glyph-name="Ucircumflex" unicode="&#xdb;" horiz-adv-x="1378" 
d="M154 545v874l184 29v-887q0 -189 95.5 -300t256.5 -111q160 0 255 111t95 300v858l185 29v-903q0 -256 -147.5 -413t-387.5 -157q-241 0 -388.5 156.5t-147.5 413.5zM1010 1667l-90 -100l-230 196l-229 -196l-90 100l319 291z" />
    <glyph glyph-name="Udieresis" unicode="&#xdc;" horiz-adv-x="1378" 
d="M154 545v874l184 29v-887q0 -189 95.5 -300t256.5 -111q160 0 255 111t95 300v858l185 29v-903q0 -256 -147.5 -413t-387.5 -157q-241 0 -388.5 156.5t-147.5 413.5zM317 1739q0 51 36 86t87 35q54 0 89.5 -35t35.5 -86t-35.5 -87t-89.5 -36q-53 0 -88 35.5t-35 87.5z
M815 1739q0 51 35.5 86t89.5 35q51 0 87 -35t36 -86t-36 -87t-87 -36q-54 0 -89.5 36t-35.5 87z" />
    <glyph glyph-name="Yacute" unicode="&#xdd;" horiz-adv-x="1206" 
d="M1147 1434l-451 -873v-561h-184v557l-453 877h205l340 -678l338 678h205zM430 1575l-61 135l483 236l74 -154z" />
    <glyph glyph-name="Thorn" unicode="&#xde;" horiz-adv-x="1128" 
d="M1049 737q0 -139 -70.5 -250.5t-194.5 -174t-278 -62.5h-148v-250h-184v1434h184v-207h148q232 0 387.5 -140t155.5 -350zM856 737q0 138 -101 229t-255 91h-142v-639h142q154 0 255 90.5t101 228.5z" />
    <glyph glyph-name="germandbls" unicode="&#xdf;" horiz-adv-x="1091" 
d="M1014 406q0 -181 -136 -302.5t-341 -121.5v161q128 0 215.5 79t87.5 196q0 115 -87.5 194t-215.5 82v150q119 0 193.5 73t74.5 177q0 101 -71 168t-171 67q-105 0 -173 -75.5t-68 -188.5v-1065h-172v1069q0 178 117.5 297t299.5 119q173 0 291.5 -110t118.5 -277
q0 -114 -59 -199t-164 -127q120 -43 190 -140.5t70 -225.5z" />
    <glyph glyph-name="agrave" unicode="&#xe0;" horiz-adv-x="933" 
d="M809 0h-158l-6 59q-95 -82 -227 -82q-142 0 -241 97t-99 235q0 137 99 233.5t243 96.5q122 0 213 -76v49q0 89 -45.5 130.5t-149.5 41.5q-100 0 -221 -41l29 150q100 33 207 33q169 0 258.5 -78t89.5 -221v-455zM645 309q0 83 -59 139t-144 56t-142.5 -56t-57.5 -139
q0 -80 58 -136t142 -56q85 0 144 56t59 136zM653 1059l-434 239l88 146l420 -256z" />
    <glyph glyph-name="aacute" unicode="&#xe1;" horiz-adv-x="933" 
d="M809 0h-158l-6 59q-95 -82 -227 -82q-142 0 -241 97t-99 235q0 137 99 233.5t243 96.5q122 0 213 -76v49q0 89 -45.5 130.5t-149.5 41.5q-100 0 -221 -41l29 150q100 33 207 33q169 0 258.5 -78t89.5 -221v-455zM645 309q0 83 -59 139t-144 56t-142.5 -56t-57.5 -139
q0 -80 58 -136t142 -56q85 0 144 56t59 136zM313 1059l-73 129l419 256l89 -146z" />
    <glyph glyph-name="acircumflex" unicode="&#xe2;" horiz-adv-x="933" 
d="M809 0h-158l-6 59q-95 -82 -227 -82q-142 0 -241 97t-99 235q0 137 99 233.5t243 96.5q122 0 213 -76v49q0 89 -45.5 130.5t-149.5 41.5q-100 0 -221 -41l29 150q100 33 207 33q169 0 258.5 -78t89.5 -221v-455zM645 309q0 83 -59 139t-144 56t-142.5 -56t-57.5 -139
q0 -80 58 -136t142 -56q85 0 144 56t59 136zM793 1157l-91 -102l-229 196l-229 -196l-90 102l319 289z" />
    <glyph glyph-name="atilde" unicode="&#xe3;" horiz-adv-x="933" 
d="M809 0h-158l-6 59q-95 -82 -227 -82q-142 0 -241 97t-99 235q0 137 99 233.5t243 96.5q122 0 213 -76v49q0 89 -45.5 130.5t-149.5 41.5q-100 0 -221 -41l29 150q100 33 207 33q169 0 258.5 -78t89.5 -221v-455zM645 309q0 83 -59 139t-144 56t-142.5 -56t-57.5 -139
q0 -80 58 -136t142 -56q85 0 144 56t59 136zM446 1188q-62 41 -104 41q-37 0 -59.5 -24t-24.5 -62h-125q0 102 58 163.5t151 61.5q41 0 72.5 -11.5t85.5 -41.5q62 -41 104 -41q37 0 59.5 24.5t24.5 63.5h125q0 -102 -58 -164.5t-151 -62.5q-41 0 -72.5 11.5t-85.5 41.5z" />
    <glyph glyph-name="adieresis" unicode="&#xe4;" horiz-adv-x="933" 
d="M809 0h-158l-6 59q-95 -82 -227 -82q-142 0 -241 97t-99 235q0 137 99 233.5t243 96.5q122 0 213 -76v49q0 89 -45.5 130.5t-149.5 41.5q-100 0 -221 -41l29 150q100 33 207 33q169 0 258.5 -78t89.5 -221v-455zM645 309q0 83 -59 139t-144 56t-142.5 -56t-57.5 -139
q0 -80 58 -136t142 -56q85 0 144 56t59 136zM172 1233q0 44 32 75t77 31q44 0 76 -31t32 -75t-32 -76.5t-76 -32.5t-76.5 32.5t-32.5 76.5zM557 1233q0 44 32 75t77 31q44 0 76 -31t32 -75t-32 -76.5t-76 -32.5q-47 0 -78 32t-31 77z" />
    <glyph glyph-name="aring" unicode="&#xe5;" horiz-adv-x="933" 
d="M809 0h-158l-6 59q-95 -82 -227 -82q-142 0 -241 97t-99 235q0 137 99 233.5t243 96.5q122 0 213 -76v49q0 89 -45.5 130.5t-149.5 41.5q-100 0 -221 -41l29 150q100 33 207 33q169 0 258.5 -78t89.5 -221v-455zM645 309q0 83 -59 139t-144 56t-142.5 -56t-57.5 -139
q0 -80 58 -136t142 -56q85 0 144 56t59 136zM236 1276q0 94 69.5 160.5t167.5 66.5t168 -66.5t70 -160.5q0 -95 -70 -162t-168 -67t-167.5 67t-69.5 162zM594 1276q0 51 -35 85t-86 34t-86 -34t-35 -85t35 -86t86 -35t86 35t35 86z" />
    <glyph glyph-name="ae" unicode="&#xe6;" horiz-adv-x="1622" 
d="M1460 291l62 -148q-177 -166 -402 -166q-120 0 -219.5 51.5t-163.5 143.5q-42 -88 -127.5 -141.5t-189.5 -53.5q-144 0 -243 96.5t-99 235.5q0 137 99 233.5t243 96.5q122 0 213 -76v49q0 89 -45.5 130.5t-149.5 41.5q-100 0 -221 -41l29 150q100 33 207 33
q116 0 193 -43t110 -123q63 80 157 125t199 45q170 0 289.5 -105.5t144.5 -281.5l-723 -234q37 -85 115 -133.5t182 -48.5q190 0 340 164zM795 451l561 182q-31 69 -96.5 109t-147.5 40q-133 0 -225 -96.5t-92 -234.5zM645 309q0 83 -59 139t-144 56t-142.5 -56t-57.5 -139
q0 -82 57.5 -138t142.5 -56q86 0 144.5 56t58.5 138z" />
    <glyph glyph-name="ccedilla" unicode="&#xe7;" horiz-adv-x="882" 
d="M578 -23l-195 -354l-160 103l209 268q-154 43 -254 171.5t-100 289.5q-2 94 37 182.5t104.5 153.5t156 103t185.5 36q124 0 240 -58l-29 -157q-109 59 -207 59q-134 0 -224.5 -92.5t-90.5 -226.5q0 -135 90.5 -228.5t224.5 -93.5q100 0 217 66l27 -162q-114 -57 -231 -60
z" />
    <glyph glyph-name="egrave" unicode="&#xe8;" horiz-adv-x="1069" 
d="M905 291l62 -148q-180 -166 -404 -166q-208 0 -346.5 137.5t-138.5 338.5q0 131 63.5 240.5t173.5 173t242 63.5q171 0 291.5 -106t142.5 -281l-721 -234q37 -85 115 -133.5t180 -48.5q190 0 340 164zM240 451l561 182q-29 69 -94 109t-150 40q-133 0 -225 -96.5
t-92 -234.5zM729 1059l-434 239l88 146l420 -256z" />
    <glyph glyph-name="eacute" unicode="&#xe9;" horiz-adv-x="1069" 
d="M905 291l62 -148q-180 -166 -404 -166q-208 0 -346.5 137.5t-138.5 338.5q0 131 63.5 240.5t173.5 173t242 63.5q171 0 291.5 -106t142.5 -281l-721 -234q37 -85 115 -133.5t180 -48.5q190 0 340 164zM240 451l561 182q-29 69 -94 109t-150 40q-133 0 -225 -96.5
t-92 -234.5zM389 1059l-74 129l420 256l88 -146z" />
    <glyph glyph-name="ecircumflex" unicode="&#xea;" horiz-adv-x="1069" 
d="M905 291l62 -148q-180 -166 -404 -166q-208 0 -346.5 137.5t-138.5 338.5q0 131 63.5 240.5t173.5 173t242 63.5q171 0 291.5 -106t142.5 -281l-721 -234q37 -85 115 -133.5t180 -48.5q190 0 340 164zM240 451l561 182q-29 69 -94 109t-150 40q-133 0 -225 -96.5
t-92 -234.5zM868 1157l-90 -102l-229 196l-230 -196l-90 102l320 289z" />
    <glyph glyph-name="edieresis" unicode="&#xeb;" horiz-adv-x="1069" 
d="M905 291l62 -148q-180 -166 -404 -166q-208 0 -346.5 137.5t-138.5 338.5q0 131 63.5 240.5t173.5 173t242 63.5q171 0 291.5 -106t142.5 -281l-721 -234q37 -85 115 -133.5t180 -48.5q190 0 340 164zM240 451l561 182q-29 69 -94 109t-150 40q-133 0 -225 -96.5
t-92 -234.5zM248 1233q0 44 32 75t76 31q45 0 77 -31t32 -75t-32.5 -76.5t-76.5 -32.5t-76 32.5t-32 76.5zM633 1233q0 44 32 75t76 31q45 0 77 -31t32 -75t-32.5 -76.5t-76.5 -32.5q-46 0 -77 32t-31 77z" />
    <glyph glyph-name="igrave" unicode="&#xec;" horiz-adv-x="483" 
d="M156 0v893l172 31v-924h-172zM422 1059l-434 239l88 146l420 -256z" />
    <glyph glyph-name="iacute" unicode="&#xed;" horiz-adv-x="483" 
d="M156 0v893l172 31v-924h-172zM82 1059l-74 129l420 256l88 -146z" />
    <glyph glyph-name="icircumflex" unicode="&#xee;" horiz-adv-x="483" 
d="M156 0v893l172 31v-924h-172zM520 1155l-100 -96l-178 190l-179 -190l-100 96l279 291z" />
    <glyph glyph-name="idieresis" unicode="&#xef;" horiz-adv-x="483" 
d="M156 0v893l172 31v-924h-172zM-29 1233q0 44 31.5 75t75.5 31t75 -31t31 -75t-31 -75.5t-75 -31.5t-75.5 31.5t-31.5 75.5zM299 1233q0 44 31.5 75t75.5 31t75 -31t31 -75t-31 -75.5t-75 -31.5t-75.5 31.5t-31.5 75.5z" />
    <glyph glyph-name="eth" unicode="&#xf0;" horiz-adv-x="1167" 
d="M1059 498q0 -229 -138.5 -375t-349.5 -146q-135 0 -249 64.5t-179 175t-65 240.5q0 196 137 334.5t334 138.5q177 0 297 -117q-52 181 -193 340l-288 -133l-60 125l242 112q-108 94 -217 162l188 31q91 -55 172 -127l268 125l60 -127l-223 -102q264 -301 264 -721z
M879 453q0 135 -92.5 229t-223.5 94q-129 0 -221 -94t-92 -227q0 -136 92 -229t223 -93q129 0 221.5 94t92.5 226z" />
    <glyph glyph-name="ntilde" unicode="&#xf1;" horiz-adv-x="1089" 
d="M954 549v-549h-172v532q0 114 -59 178t-160 64q-107 0 -174 -71.5t-67 -188.5v-514h-172v895l163 27v-121q107 129 287 129q159 0 256.5 -102.5t97.5 -278.5zM526 1188q-62 41 -104 41q-37 0 -59.5 -24t-24.5 -62h-125q0 102 58 163.5t151 61.5q41 0 72.5 -11.5
t85.5 -41.5q62 -41 104 -41q37 0 59.5 24.5t24.5 63.5h125q0 -102 -58 -164.5t-151 -62.5q-41 0 -72.5 11.5t-85.5 41.5z" />
    <glyph glyph-name="ograve" unicode="&#xf2;" horiz-adv-x="1126" 
d="M78 453q0 198 141.5 337.5t343.5 139.5q134 0 246 -64t177 -173.5t65 -239.5q0 -198 -142 -337t-346 -139q-132 0 -243.5 63.5t-176.5 173t-65 239.5zM879 455q0 135 -92 227t-224 92q-133 0 -223 -92t-90 -227q0 -137 90 -229.5t223 -92.5q132 0 224 93t92 229z
M743 1059l-434 239l88 146l420 -256z" />
    <glyph glyph-name="oacute" unicode="&#xf3;" horiz-adv-x="1126" 
d="M78 453q0 198 141.5 337.5t343.5 139.5q134 0 246 -64t177 -173.5t65 -239.5q0 -198 -142 -337t-346 -139q-132 0 -243.5 63.5t-176.5 173t-65 239.5zM879 455q0 135 -92 227t-224 92q-133 0 -223 -92t-90 -227q0 -137 90 -229.5t223 -92.5q132 0 224 93t92 229z
M403 1059l-73 129l420 256l88 -146z" />
    <glyph glyph-name="ocircumflex" unicode="&#xf4;" horiz-adv-x="1126" 
d="M78 453q0 198 141.5 337.5t343.5 139.5q134 0 246 -64t177 -173.5t65 -239.5q0 -198 -142 -337t-346 -139q-132 0 -243.5 63.5t-176.5 173t-65 239.5zM879 455q0 135 -92 227t-224 92q-133 0 -223 -92t-90 -227q0 -137 90 -229.5t223 -92.5q132 0 224 93t92 229z
M883 1157l-90 -102l-230 196l-229 -196l-90 102l319 289z" />
    <glyph glyph-name="otilde" unicode="&#xf5;" horiz-adv-x="1126" 
d="M78 453q0 198 141.5 337.5t343.5 139.5q134 0 246 -64t177 -173.5t65 -239.5q0 -198 -142 -337t-346 -139q-132 0 -243.5 63.5t-176.5 173t-65 239.5zM879 455q0 135 -92 227t-224 92q-133 0 -223 -92t-90 -227q0 -137 90 -229.5t223 -92.5q132 0 224 93t92 229z
M537 1188q-62 41 -105 41q-37 0 -59.5 -24t-24.5 -62h-125q0 102 58 163.5t151 61.5q41 0 72.5 -11.5t85.5 -41.5q62 -41 104 -41q37 0 59.5 24.5t24.5 63.5h125q0 -102 -58 -164.5t-151 -62.5q-41 0 -72 11.5t-85 41.5z" />
    <glyph glyph-name="odieresis" unicode="&#xf6;" horiz-adv-x="1126" 
d="M78 453q0 198 141.5 337.5t343.5 139.5q134 0 246 -64t177 -173.5t65 -239.5q0 -198 -142 -337t-346 -139q-132 0 -243.5 63.5t-176.5 173t-65 239.5zM879 455q0 135 -92 227t-224 92q-133 0 -223 -92t-90 -227q0 -137 90 -229.5t223 -92.5q132 0 224 93t92 229z
M262 1233q0 44 32 75t77 31q44 0 76 -31t32 -75t-32 -76.5t-76 -32.5t-76.5 32.5t-32.5 76.5zM647 1233q0 44 32 75t77 31q44 0 76 -31t32 -75t-32 -76.5t-76 -32.5q-47 0 -78 32t-31 77z" />
    <glyph glyph-name="divide" unicode="&#xf7;" horiz-adv-x="1054" 
d="M406 1036q0 51 34.5 87t85.5 36q54 0 88.5 -34.5t34.5 -88.5q0 -52 -35 -87.5t-88 -35.5q-51 0 -85.5 36t-34.5 87zM86 596v160h883v-160h-883zM406 317q0 51 34.5 87t85.5 36t87 -36t36 -87q0 -52 -35 -87t-88 -35q-51 0 -85.5 35.5t-34.5 86.5z" />
    <glyph glyph-name="oslash" unicode="&#xf8;" horiz-adv-x="1126" 
d="M1051 453q0 -198 -142 -337t-346 -139q-148 0 -264 76l-84 -96l-100 88l82 94q-119 135 -119 314q0 198 141.5 337.5t343.5 139.5q139 0 262 -72l84 96l101 -88l-82 -94q123 -142 123 -319zM307 266l412 469q-71 39 -156 39q-133 0 -223 -92t-90 -227q0 -114 57 -189z
M879 455q0 109 -62 192l-411 -473q71 -41 157 -41q132 0 224 93t92 229z" />
    <glyph glyph-name="ugrave" unicode="&#xf9;" horiz-adv-x="1081" 
d="M758 895l172 29v-926h-164v106q-105 -124 -281 -124q-158 0 -254 101.5t-96 276.5v537l172 29v-547q0 -114 57.5 -177t157.5 -63q104 0 170 70t66 186v502zM713 1059l-434 239l88 146l419 -256z" />
    <glyph glyph-name="uacute" unicode="&#xfa;" horiz-adv-x="1081" 
d="M758 895l172 29v-926h-164v106q-105 -124 -281 -124q-158 0 -254 101.5t-96 276.5v537l172 29v-547q0 -114 57.5 -177t157.5 -63q104 0 170 70t66 186v502zM373 1059l-74 129l420 256l88 -146z" />
    <glyph glyph-name="ucircumflex" unicode="&#xfb;" horiz-adv-x="1081" 
d="M758 895l172 29v-926h-164v106q-105 -124 -281 -124q-158 0 -254 101.5t-96 276.5v537l172 29v-547q0 -114 57.5 -177t157.5 -63q104 0 170 70t66 186v502zM852 1157l-90 -102l-230 196l-229 -196l-90 102l319 289z" />
    <glyph glyph-name="udieresis" unicode="&#xfc;" horiz-adv-x="1081" 
d="M758 895l172 29v-926h-164v106q-105 -124 -281 -124q-158 0 -254 101.5t-96 276.5v537l172 29v-547q0 -114 57.5 -177t157.5 -63q104 0 170 70t66 186v502zM231 1233q0 44 32 75t77 31t77 -31t32 -75t-32.5 -76.5t-76.5 -32.5t-76.5 32.5t-32.5 76.5zM616 1233
q0 44 32 75t77 31t77 -31t32 -75t-32.5 -76.5t-76.5 -32.5q-47 0 -78 32t-31 77z" />
    <glyph glyph-name="yacute" unicode="&#xfd;" horiz-adv-x="993" 
d="M776 907h189l-660 -1374h-188l291 576l-381 798h188l281 -618zM336 1059l-74 129l420 256l88 -146z" />
    <glyph glyph-name="thorn" unicode="&#xfe;" horiz-adv-x="1183" 
d="M1106 455q0 -198 -135.5 -336.5t-325.5 -138.5q-195 0 -323 147v-594h-172v1925l172 29v-707q125 150 323 150q124 0 230 -63t168.5 -172.5t62.5 -239.5zM934 455q0 132 -90.5 225.5t-220.5 93.5q-129 0 -221.5 -93.5t-92.5 -225.5q0 -133 92.5 -227.5t221.5 -94.5
q130 0 220.5 94t90.5 228z" />
    <glyph glyph-name="ydieresis" unicode="&#xff;" horiz-adv-x="993" 
d="M776 907h189l-660 -1374h-188l291 576l-381 798h188l281 -618zM195 1233q0 44 32 75t76 31q45 0 77 -31t32 -75t-32.5 -76.5t-76.5 -32.5t-76 32.5t-32 76.5zM580 1233q0 44 32 75t76 31q45 0 77 -31t32 -75t-32.5 -76.5t-76.5 -32.5q-46 0 -77 32t-31 77z" />
    <glyph glyph-name="Amacron" unicode="&#x100;" horiz-adv-x="1390" 
d="M1159 0l-196 459h-535l-197 -459h-198l663 1485l662 -1485h-199zM498 623h395l-197 460zM383 1690v145h627v-145h-627z" />
    <glyph glyph-name="amacron" unicode="&#x101;" horiz-adv-x="933" 
d="M809 0h-158l-6 59q-95 -82 -227 -82q-142 0 -241 97t-99 235q0 137 99 233.5t243 96.5q122 0 213 -76v49q0 89 -45.5 130.5t-149.5 41.5q-100 0 -221 -41l29 150q100 33 207 33q169 0 258.5 -78t89.5 -221v-455zM645 309q0 83 -59 139t-144 56t-142.5 -56t-57.5 -139
q0 -80 58 -136t142 -56q85 0 144 56t59 136zM180 1184v145h586v-145h-586z" />
    <glyph glyph-name="Abreve" unicode="&#x102;" horiz-adv-x="1390" 
d="M1159 0l-196 459h-535l-197 -459h-198l663 1485l662 -1485h-199zM498 623h395l-197 460zM365 1884h141q0 -74 54.5 -125t135.5 -51t136 51t55 125h141q0 -133 -96.5 -224t-235.5 -91t-235 91t-96 224z" />
    <glyph glyph-name="abreve" unicode="&#x103;" horiz-adv-x="933" 
d="M809 0h-158l-6 59q-95 -82 -227 -82q-142 0 -241 97t-99 235q0 137 99 233.5t243 96.5q122 0 213 -76v49q0 89 -45.5 130.5t-149.5 41.5q-100 0 -221 -41l29 150q100 33 207 33q169 0 258.5 -78t89.5 -221v-455zM645 309q0 83 -59 139t-144 56t-142.5 -56t-57.5 -139
q0 -80 58 -136t142 -56q85 0 144 56t59 136zM158 1397h141q0 -75 49.5 -124.5t124.5 -49.5t124.5 49.5t49.5 124.5h141q0 -133 -90.5 -223.5t-224.5 -90.5t-224.5 90.5t-90.5 223.5z" />
    <glyph glyph-name="Aogonek" unicode="&#x104;" horiz-adv-x="1390" 
d="M1307 -238q16 0 51 7v-136q-52 -10 -86 -10q-85 0 -142 56.5t-57 136.5q0 101 92 184h-6l-196 459h-535l-197 -459h-198l663 1485l662 -1485q-131 -81 -131 -162q0 -33 22 -54.5t58 -21.5zM498 623h395l-197 460z" />
    <glyph glyph-name="aogonek" unicode="&#x105;" horiz-adv-x="933" 
d="M686 -150q0 -31 21 -50t53 -19q20 0 47 6v-125q-45 -10 -78 -10q-79 0 -131.5 51.5t-52.5 126.5q0 104 104 186l-4 43q-95 -82 -227 -82q-142 0 -241 97t-99 235q0 137 99 233.5t243 96.5q122 0 213 -76v49q0 89 -45.5 130.5t-149.5 41.5q-100 0 -221 -41l29 150
q100 33 207 33q169 0 258.5 -78t89.5 -221v-455l8 -172h-2q-121 -77 -121 -150zM645 309q0 83 -59 139t-144 56t-142.5 -56t-57.5 -139q0 -80 58 -136t142 -56q85 0 144 56t59 136z" />
    <glyph glyph-name="Cacute" unicode="&#x106;" horiz-adv-x="1380" 
d="M113 717q-2 150 57.5 288.5t161.5 238.5t243 158.5t295 55.5q200 0 369 -88l-33 -186q-156 100 -338 100q-150 3 -281.5 -74t-208.5 -209.5t-73 -283.5q-3 -152 73 -284t207 -209t283 -74q186 0 357 112l32 -186q-180 -101 -391 -101q-153 -3 -294 55.5t-242 159
t-160.5 239t-56.5 288.5zM651 1575l-61 135l483 236l74 -154z" />
    <glyph glyph-name="cacute" unicode="&#x107;" horiz-adv-x="882" 
d="M78 455q-2 94 37 182.5t104.5 153.5t156 103t185.5 36q124 0 240 -58l-29 -157q-109 59 -207 59q-134 0 -224.5 -92.5t-90.5 -226.5q0 -135 90.5 -228.5t224.5 -93.5q100 0 217 66l27 -162q-126 -60 -248 -60q-130 0 -241.5 65t-176.5 175t-65 238zM358 1059l-73 129
l420 256l88 -146z" />
    <glyph glyph-name="Ccircumflex" unicode="&#x108;" horiz-adv-x="1380" 
d="M113 717q-2 150 57.5 288.5t161.5 238.5t243 158.5t295 55.5q200 0 369 -88l-33 -186q-156 100 -338 100q-150 3 -281.5 -74t-208.5 -209.5t-73 -283.5q-3 -152 73 -284t207 -209t283 -74q186 0 357 112l32 -186q-180 -101 -391 -101q-153 -3 -294 55.5t-242 159
t-160.5 239t-56.5 288.5zM1145 1667l-90 -100l-230 196l-229 -196l-90 100l319 291z" />
    <glyph glyph-name="ccircumflex" unicode="&#x109;" horiz-adv-x="882" 
d="M78 455q-2 94 37 182.5t104.5 153.5t156 103t185.5 36q124 0 240 -58l-29 -157q-109 59 -207 59q-134 0 -224.5 -92.5t-90.5 -226.5q0 -135 90.5 -228.5t224.5 -93.5q100 0 217 66l27 -162q-126 -60 -248 -60q-130 0 -241.5 65t-176.5 175t-65 238zM838 1157l-90 -102
l-230 196l-229 -196l-90 102l319 289z" />
    <glyph glyph-name="Cdotaccent" unicode="&#x10a;" horiz-adv-x="1380" 
d="M113 717q-2 150 57.5 288.5t161.5 238.5t243 158.5t295 55.5q200 0 369 -88l-33 -186q-156 100 -338 100q-150 3 -281.5 -74t-208.5 -209.5t-73 -283.5q-3 -152 73 -284t207 -209t283 -74q186 0 357 112l32 -186q-180 -101 -391 -101q-153 -3 -294 55.5t-242 159
t-160.5 239t-56.5 288.5zM698 1767q0 54 36.5 89.5t90.5 35.5t90.5 -35.5t36.5 -89.5t-36.5 -90.5t-90.5 -36.5t-90.5 36.5t-36.5 90.5z" />
    <glyph glyph-name="cdotaccent" unicode="&#x10b;" horiz-adv-x="882" 
d="M78 455q-2 94 37 182.5t104.5 153.5t156 103t185.5 36q124 0 240 -58l-29 -157q-109 59 -207 59q-134 0 -224.5 -92.5t-90.5 -226.5q0 -135 90.5 -228.5t224.5 -93.5q100 0 217 66l27 -162q-126 -60 -248 -60q-130 0 -241.5 65t-176.5 175t-65 238zM401 1251
q0 48 34 81.5t83 33.5t83 -33.5t34 -81.5q0 -49 -33.5 -82.5t-83.5 -33.5t-83.5 33.5t-33.5 82.5z" />
    <glyph glyph-name="Ccaron" unicode="&#x10c;" horiz-adv-x="1380" 
d="M113 717q-2 150 57.5 288.5t161.5 238.5t243 158.5t295 55.5q200 0 369 -88l-33 -186q-156 100 -338 100q-150 3 -281.5 -74t-208.5 -209.5t-73 -283.5q-3 -152 73 -284t207 -209t283 -74q186 0 357 112l32 -186q-180 -101 -391 -101q-153 -3 -294 55.5t-242 159
t-160.5 239t-56.5 288.5zM1055 1942l90 -101l-320 -291l-319 291l90 101l229 -197z" />
    <glyph glyph-name="ccaron" unicode="&#x10d;" horiz-adv-x="882" 
d="M78 455q-2 94 37 182.5t104.5 153.5t156 103t185.5 36q124 0 240 -58l-29 -157q-109 59 -207 59q-134 0 -224.5 -92.5t-90.5 -226.5q0 -135 90.5 -228.5t224.5 -93.5q100 0 217 66l27 -162q-126 -60 -248 -60q-130 0 -241.5 65t-176.5 175t-65 238zM750 1444l90 -103
l-320 -288l-319 288l90 103l229 -197z" />
    <glyph glyph-name="Dcaron" unicode="&#x10e;" horiz-adv-x="1363" 
d="M174 0v1434h330q154 2 293.5 -53.5t240 -151.5t159 -230t56.5 -282q2 -148 -56.5 -282t-159 -230t-240 -151.5t-293.5 -53.5h-330zM358 174h144q115 -2 220 40t179.5 115t118 174.5t41.5 213.5q2 112 -41.5 213.5t-118 174.5t-179.5 115t-220 40h-144v-1086zM903 1942
l90 -101l-319 -291l-320 291l90 101l230 -197z" />
    <glyph glyph-name="dcaron" unicode="&#x10f;" horiz-adv-x="1183" 
d="M862 1458l172 29v-1487h-168v131q-126 -151 -325 -151q-122 -3 -230 60.5t-172 175t-61 239.5q0 129 63 239t169.5 173t230.5 63q192 0 321 -148v676zM874 455q0 132 -92 225.5t-221 93.5q-130 0 -220.5 -93.5t-90.5 -225.5q0 -134 90.5 -228t220.5 -94q129 0 221 94.5
t92 227.5zM1114 1055l66 418h176l-80 -390z" />
    <glyph glyph-name="Dcroat" unicode="&#x110;" horiz-adv-x="1363" 
d="M1253 717q2 -148 -56.5 -282t-159 -230t-240 -151.5t-293.5 -53.5h-330v639h-149v166h149v629h330q154 2 293.5 -53.5t240 -151.5t159 -230t56.5 -282zM1061 717q2 112 -41.5 213.5t-118 174.5t-179.5 115t-220 40h-144v-455h390v-166h-390v-465h144q115 -2 220 40
t179.5 115t118 174.5t41.5 213.5z" />
    <glyph glyph-name="dslash" unicode="&#x111;" horiz-adv-x="1183" 
d="M1163 1255v-151h-129v-1104h-168v131q-126 -151 -325 -151q-122 -3 -230 60.5t-172 175t-61 239.5q0 129 63 239t169.5 173t230.5 63q192 0 321 -148v322h-428v151h428v203l172 29v-232h129zM874 455q0 132 -92 225.5t-221 93.5q-130 0 -220.5 -93.5t-90.5 -225.5
q0 -134 90.5 -228t220.5 -94q129 0 221 94.5t92 227.5z" />
    <glyph glyph-name="Emacron" unicode="&#x112;" horiz-adv-x="1099" 
d="M356 172h637l-32 -172h-787v1434h760l31 -172h-609v-439h504v-172h-504v-479zM258 1690v145h627v-145h-627z" />
    <glyph glyph-name="emacron" unicode="&#x113;" horiz-adv-x="1069" 
d="M905 291l62 -148q-180 -166 -404 -166q-208 0 -346.5 137.5t-138.5 338.5q0 131 63.5 240.5t173.5 173t242 63.5q171 0 291.5 -106t142.5 -281l-721 -234q37 -85 115 -133.5t180 -48.5q190 0 340 164zM240 451l561 182q-29 69 -94 109t-150 40q-133 0 -225 -96.5
t-92 -234.5zM256 1184v145h586v-145h-586z" />
    <glyph glyph-name="Ebreve" unicode="&#x114;" horiz-adv-x="1099" 
d="M356 172h637l-32 -172h-787v1434h760l31 -172h-609v-439h504v-172h-504v-479zM240 1884h141q0 -74 54.5 -125t135.5 -51t136 51t55 125h141q0 -133 -96.5 -224t-235.5 -91t-235 91t-96 224z" />
    <glyph glyph-name="ebreve" unicode="&#x115;" horiz-adv-x="1069" 
d="M905 291l62 -148q-180 -166 -404 -166q-208 0 -346.5 137.5t-138.5 338.5q0 131 63.5 240.5t173.5 173t242 63.5q171 0 291.5 -106t142.5 -281l-721 -234q37 -85 115 -133.5t180 -48.5q190 0 340 164zM240 451l561 182q-29 69 -94 109t-150 40q-133 0 -225 -96.5
t-92 -234.5zM233 1397h142q0 -75 49.5 -124.5t124.5 -49.5t124.5 49.5t49.5 124.5h141q0 -133 -90.5 -223.5t-224.5 -90.5t-225 90.5t-91 223.5z" />
    <glyph glyph-name="Edotaccent" unicode="&#x116;" horiz-adv-x="1099" 
d="M356 172h637l-32 -172h-787v1434h760l31 -172h-609v-439h504v-172h-504v-479zM455 1778q0 48 33.5 81t82.5 33t83 -33.5t34 -80.5q0 -50 -34 -83.5t-83 -33.5t-82.5 33.5t-33.5 83.5z" />
    <glyph glyph-name="edotaccent" unicode="&#x117;" horiz-adv-x="1069" 
d="M905 291l62 -148q-180 -166 -404 -166q-208 0 -346.5 137.5t-138.5 338.5q0 131 63.5 240.5t173.5 173t242 63.5q171 0 291.5 -106t142.5 -281l-721 -234q37 -85 115 -133.5t180 -48.5q190 0 340 164zM240 451l561 182q-29 69 -94 109t-150 40q-133 0 -225 -96.5
t-92 -234.5zM432 1251q0 48 34 81.5t83 33.5t83 -33.5t34 -81.5q0 -49 -33.5 -82.5t-83.5 -33.5t-83.5 33.5t-33.5 82.5z" />
    <glyph glyph-name="Eogonek" unicode="&#x118;" horiz-adv-x="1099" 
d="M829 -162q0 -33 22 -54.5t58 -21.5q17 0 52 7v-136q-52 -10 -87 -10q-85 0 -141.5 56t-56.5 137q0 101 92 184h-594v1434h760l31 -172h-609v-439h504v-172h-504v-479h637l-32 -172q-132 -82 -132 -162z" />
    <glyph glyph-name="eogonek" unicode="&#x119;" horiz-adv-x="1069" 
d="M905 291l62 -148q-64 -64 -166 -114q-131 -70 -131 -154q0 -31 20.5 -50.5t52.5 -19.5q17 0 48 7v-125q-57 -11 -78 -11q-79 0 -132 52t-53 127q0 64 43 122h-8q-208 0 -346.5 137.5t-138.5 338.5q0 131 63.5 240.5t173.5 173t242 63.5q171 0 291.5 -106t142.5 -281
l-721 -234q37 -85 115 -133.5t180 -48.5q190 0 340 164zM240 451l561 182q-29 72 -93 110.5t-151 38.5q-133 0 -225 -96.5t-92 -234.5z" />
    <glyph glyph-name="Ecaron" unicode="&#x11a;" horiz-adv-x="1099" 
d="M356 172h637l-32 -172h-787v1434h760l31 -172h-609v-439h504v-172h-504v-479zM801 1942l90 -101l-320 -291l-319 291l90 101l229 -197z" />
    <glyph glyph-name="ecaron" unicode="&#x11b;" horiz-adv-x="1069" 
d="M905 291l62 -148q-180 -166 -404 -166q-208 0 -346.5 137.5t-138.5 338.5q0 131 63.5 240.5t173.5 173t242 63.5q171 0 291.5 -106t142.5 -281l-721 -234q37 -85 115 -133.5t180 -48.5q190 0 340 164zM240 451l561 182q-29 69 -94 109t-150 40q-133 0 -225 -96.5
t-92 -234.5zM780 1444l90 -103l-319 -288l-320 288l91 103l229 -197z" />
    <glyph glyph-name="Gcircumflex" unicode="&#x11c;" horiz-adv-x="1486" 
d="M797 788h544v-696q-98 -56 -224 -86.5t-255 -30.5q-202 -4 -376.5 96t-275.5 273t-97 373q-3 150 57.5 288.5t164.5 238.5t246.5 158.5t297.5 55.5q219 0 403 -100l-33 -184q-167 110 -370 110q-154 3 -288 -74t-212.5 -209t-75.5 -284q-2 -114 42.5 -219.5t120 -182.5
t180 -122t216.5 -43q175 0 301 57v411h-397zM1139 1667l-90 -100l-230 196l-229 -196l-90 100l319 291z" />
    <glyph glyph-name="gcircumflex" unicode="&#x11d;" horiz-adv-x="1067" 
d="M985 950l-29 -151l-151 12q133 -114 133 -285q0 -104 -53.5 -192.5t-147.5 -143.5q81 -50 126.5 -130t45.5 -175q0 -157 -114 -265.5t-285 -108.5q-151 0 -258 86t-135 227l147 67q14 -106 80 -168.5t166 -62.5q104 0 171 66.5t67 164.5t-69 164t-171 66
q-131 0 -219 -113l-72 123q34 34 70 57q-95 52 -150 141.5t-55 198.5q0 166 121.5 282t314.5 122zM774 524q0 109 -77 183.5t-187 74.5q-112 0 -189 -74.5t-77 -183.5t76 -181.5t190 -72.5q111 0 187.5 73t76.5 181zM834 1157l-91 -102l-229 196l-229 -196l-90 102l319 289z
" />
    <glyph glyph-name="Gbreve" unicode="&#x11e;" horiz-adv-x="1486" 
d="M797 788h544v-696q-98 -56 -224 -86.5t-255 -30.5q-202 -4 -376.5 96t-275.5 273t-97 373q-3 150 57.5 288.5t164.5 238.5t246.5 158.5t297.5 55.5q219 0 403 -100l-33 -184q-167 110 -370 110q-154 3 -288 -74t-212.5 -209t-75.5 -284q-2 -114 42.5 -219.5t120 -182.5
t180 -122t216.5 -43q175 0 301 57v411h-397zM487 1884h142q0 -74 54.5 -125t135.5 -51t136 51t55 125h141q0 -133 -96.5 -224t-235.5 -91t-235.5 91t-96.5 224z" />
    <glyph glyph-name="gbreve" unicode="&#x11f;" horiz-adv-x="1067" 
d="M985 950l-29 -151l-151 12q133 -114 133 -285q0 -104 -53.5 -192.5t-147.5 -143.5q81 -50 126.5 -130t45.5 -175q0 -157 -114 -265.5t-285 -108.5q-151 0 -258 86t-135 227l147 67q14 -106 80 -168.5t166 -62.5q104 0 171 66.5t67 164.5t-69 164t-171 66
q-131 0 -219 -113l-72 123q34 34 70 57q-95 52 -150 141.5t-55 198.5q0 166 121.5 282t314.5 122zM774 524q0 109 -77 183.5t-187 74.5q-112 0 -189 -74.5t-77 -183.5t76 -181.5t190 -72.5q111 0 187.5 73t76.5 181zM199 1397h141q0 -75 49.5 -124.5t124.5 -49.5t124.5 49.5
t49.5 124.5h141q0 -133 -90.5 -223.5t-224.5 -90.5t-224.5 90.5t-90.5 223.5z" />
    <glyph glyph-name="Gdotaccent" unicode="&#x120;" horiz-adv-x="1486" 
d="M797 788h544v-696q-98 -56 -224 -86.5t-255 -30.5q-202 -4 -376.5 96t-275.5 273t-97 373q-3 150 57.5 288.5t164.5 238.5t246.5 158.5t297.5 55.5q219 0 403 -100l-33 -184q-167 110 -370 110q-154 3 -288 -74t-212.5 -209t-75.5 -284q-2 -114 42.5 -219.5t120 -182.5
t180 -122t216.5 -43q175 0 301 57v411h-397zM702 1778q0 47 34 80.5t83 33.5t83 -33.5t34 -80.5q0 -50 -34 -83.5t-83 -33.5t-83 33.5t-34 83.5z" />
    <glyph glyph-name="gdotaccent" unicode="&#x121;" horiz-adv-x="1067" 
d="M985 950l-29 -151l-151 12q133 -114 133 -285q0 -104 -53.5 -192.5t-147.5 -143.5q81 -50 126.5 -130t45.5 -175q0 -157 -114 -265.5t-285 -108.5q-151 0 -258 86t-135 227l147 67q14 -106 80 -168.5t166 -62.5q104 0 171 66.5t67 164.5t-69 164t-171 66
q-131 0 -219 -113l-72 123q34 34 70 57q-95 52 -150 141.5t-55 198.5q0 166 121.5 282t314.5 122zM774 524q0 109 -77 183.5t-187 74.5q-112 0 -189 -74.5t-77 -183.5t76 -181.5t190 -72.5q111 0 187.5 73t76.5 181zM397 1251q0 48 34 81.5t83 33.5t83 -33.5t34 -81.5
q0 -49 -33.5 -82.5t-83.5 -33.5t-83.5 33.5t-33.5 82.5z" />
    <glyph glyph-name="Gcommaaccent" unicode="&#x122;" horiz-adv-x="1486" 
d="M797 788h544v-696q-98 -56 -224 -86.5t-255 -30.5q-202 -4 -376.5 96t-275.5 273t-97 373q-3 150 57.5 288.5t164.5 238.5t246.5 158.5t297.5 55.5q219 0 403 -100l-33 -184q-167 110 -370 110q-154 3 -288 -74t-212.5 -209t-75.5 -284q-2 -114 42.5 -219.5t120 -182.5
t180 -122t216.5 -43q175 0 301 57v411h-397zM645 -543l125 422h162l-146 -401z" />
    <glyph glyph-name="gcommaaccent" unicode="&#x123;" horiz-adv-x="1067" 
d="M985 950l-29 -151l-151 12q133 -114 133 -285q0 -104 -53.5 -192.5t-147.5 -143.5q81 -50 126.5 -130t45.5 -175q0 -157 -114 -265.5t-285 -108.5q-151 0 -258 86t-135 227l147 67q14 -106 80 -168.5t166 -62.5q104 0 171 66.5t67 164.5t-69 164t-171 66
q-131 0 -219 -113l-72 123q34 34 70 57q-95 52 -150 141.5t-55 198.5q0 166 121.5 282t314.5 122zM774 524q0 109 -77 183.5t-187 74.5q-112 0 -189 -74.5t-77 -183.5t76 -181.5t190 -72.5q111 0 187.5 73t76.5 181zM688 1450l-125 -422h-162l146 402z" />
    <glyph glyph-name="Hcircumflex" unicode="&#x124;" horiz-adv-x="1529" 
d="M1171 1419l185 29v-1448h-185v641h-813v-641h-184v1419l184 29v-631h813v602zM1083 1667l-90 -100l-229 196l-229 -196l-91 100l320 291z" />
    <glyph glyph-name="hcircumflex" unicode="&#x125;" horiz-adv-x="1089" 
d="M954 549v-549h-172v532q0 114 -59.5 177t-159.5 63q-107 0 -174 -71t-67 -187v-514h-172v1458l172 29v-686q104 129 280 129q156 0 254 -103t98 -278zM578 1667l-91 -100l-229 196l-229 -196l-90 100l319 291z" />
    <glyph glyph-name="Hbar" unicode="&#x126;" horiz-adv-x="1529" 
d="M1491 1194v-160h-135v-1034h-185v641h-813v-641h-184v1034h-137v160h137v225l184 29v-254h813v225l185 29v-254h135zM1171 817v217h-813v-217h813z" />
    <glyph glyph-name="hbar" unicode="&#x127;" horiz-adv-x="1089" 
d="M954 549v-549h-172v532q0 114 -59.5 177t-159.5 63q-107 0 -174 -71t-67 -187v-514h-172v1104h-130v151h130v203l172 29v-232h428v-151h-428v-303q104 129 280 129q156 0 254 -103t98 -278z" />
    <glyph glyph-name="Itilde" unicode="&#x128;" horiz-adv-x="550" 
d="M184 0v1419l185 29v-1448h-185zM244 1716q-42 23 -64 31t-47 8q-38 0 -63 -24.5t-25 -61.5h-125q0 102 60 163.5t155 61.5q46 0 83.5 -13t90.5 -42q74 -41 111 -41q38 0 63 25.5t25 62.5h125q0 -102 -60 -163.5t-155 -61.5q-46 0 -83.5 13t-90.5 42z" />
    <glyph glyph-name="itilde" unicode="&#x129;" horiz-adv-x="483" 
d="M156 0v893l172 31v-924h-172zM219 1190q-58 33 -90 33t-52 -21t-20 -51h-125q0 93 55 151t140 58q63 0 137 -47q58 -33 90 -33t52 21t20 51h125q0 -93 -55 -151t-140 -58q-63 0 -137 47z" />
    <glyph glyph-name="Imacron" unicode="&#x12a;" horiz-adv-x="550" 
d="M184 0v1419l185 29v-1448h-185zM-37 1690v145h627v-145h-627z" />
    <glyph glyph-name="imacron" unicode="&#x12b;" horiz-adv-x="483" 
d="M156 0v893l172 31v-924h-172zM10 1184v145h463v-145h-463z" />
    <glyph glyph-name="Ibreve" unicode="&#x12c;" horiz-adv-x="550" 
d="M184 0v1419l185 29v-1448h-185zM-55 1884h141q0 -74 54.5 -125t135.5 -51t136 51t55 125h141q0 -133 -96.5 -224t-235.5 -91t-235 91t-96 224z" />
    <glyph glyph-name="ibreve" unicode="&#x12d;" horiz-adv-x="483" 
d="M156 0v893l172 31v-924h-172zM-53 1397h141q0 -73 43 -119.5t111 -46.5t110.5 46.5t42.5 119.5h142q0 -133 -83.5 -219t-211.5 -86t-211.5 86t-83.5 219z" />
    <glyph glyph-name="Iogonek" unicode="&#x12e;" horiz-adv-x="550" 
d="M238 -162q0 -33 21.5 -54.5t57.5 -21.5q17 0 52 7v-136q-52 -10 -86 -10q-85 0 -142 56.5t-57 136.5q0 104 100 190v1413l185 29v-1448q-131 -81 -131 -162z" />
    <glyph glyph-name="iogonek" unicode="&#x12f;" horiz-adv-x="483" 
d="M125 1251q0 48 34 81.5t83 33.5t82.5 -33.5t33.5 -81.5q0 -49 -33 -82.5t-83 -33.5t-83.5 33.5t-33.5 82.5zM156 4v889l172 31v-924q-121 -77 -121 -150q0 -31 21 -50t53 -19q20 0 47 6v-125q-45 -10 -78 -10q-79 0 -131.5 51.5t-52.5 126.5q0 93 90 174z" />
    <glyph glyph-name="Idot" unicode="&#x130;" horiz-adv-x="550" 
d="M184 0v1419l185 29v-1448h-185zM160 1778q0 48 33.5 81t82.5 33t83 -33.5t34 -80.5q0 -50 -33.5 -83.5t-83.5 -33.5q-49 0 -82.5 33.5t-33.5 83.5z" />
    <glyph glyph-name="dotlessi" unicode="&#x131;" horiz-adv-x="483" 
d="M156 0v893l172 31v-924h-172z" />
    <glyph glyph-name="IJ" unicode="&#x132;" horiz-adv-x="1458" 
d="M184 0v1419l185 29v-1448h-185zM598 78l51 164q61 -48 116 -70t120 -22q118 0 176.5 73t58.5 230v966l185 29v-1016q0 -216 -108 -336.5t-296 -120.5q-172 0 -303 103z" />
    <glyph glyph-name="ij" unicode="&#x133;" horiz-adv-x="966" 
d="M156 0v893l172 31v-924h-172zM125 1251q0 48 34 81.5t83 33.5t82.5 -33.5t33.5 -81.5q0 -49 -33 -82.5t-83 -33.5t-83.5 33.5t-33.5 82.5zM455 -479v157q91 4 137.5 61t46.5 161v993l172 31v-1033q0 -170 -94.5 -268.5t-261.5 -101.5zM608 1251q0 48 34 81.5t83 33.5
t83 -33.5t34 -81.5q0 -49 -33.5 -82.5t-83.5 -33.5t-83.5 33.5t-33.5 82.5z" />
    <glyph glyph-name="Jcircumflex" unicode="&#x134;" horiz-adv-x="907" 
d="M47 78l51 164q61 -48 116 -70t120 -22q118 0 176.5 73t58.5 230v966l185 29v-1016q0 -216 -108 -336.5t-296 -120.5q-172 0 -303 103zM981 1667l-90 -100l-229 196l-230 -196l-90 100l320 291z" />
    <glyph glyph-name="jcircumflex" unicode="&#x135;" horiz-adv-x="483" 
d="M-29 -479v157q91 4 138 61t47 161v993l172 31v-1033q0 -170 -95 -268.5t-262 -101.5zM520 1155l-100 -96l-178 190l-179 -190l-100 96l279 291z" />
    <glyph glyph-name="Kcommaaccent" unicode="&#x136;" horiz-adv-x="1191" 
d="M1122 0h-229l-535 711v-711h-184v1419l184 29v-684l519 670h227l-557 -695zM422 -543l125 422h162l-146 -401z" />
    <glyph glyph-name="kcommaaccent" unicode="&#x137;" horiz-adv-x="964" 
d="M907 0h-221l-364 451v-451h-172v1458l172 29v-995l348 415h219l-381 -434zM305 -543l125 422h162l-146 -401z" />
    <glyph glyph-name="kgreenlandic" unicode="&#x138;" horiz-adv-x="964" 
d="M907 0h-221l-364 451v-451h-172v893l172 31v-432l348 415h219l-381 -434z" />
    <glyph glyph-name="Lacute" unicode="&#x139;" horiz-adv-x="1058" 
d="M358 176h609l-31 -176h-762v1419l184 29v-1272zM371 1585l-74 129l420 256l88 -145z" />
    <glyph glyph-name="lacute" unicode="&#x13a;" horiz-adv-x="483" 
d="M156 0v1458l172 29v-1487h-172zM68 1614l-62 135l483 236l74 -154z" />
    <glyph glyph-name="Lcommaaccent" unicode="&#x13b;" horiz-adv-x="1058" 
d="M358 176h609l-31 -176h-762v1419l184 29v-1272zM356 -543l125 422h162l-145 -401z" />
    <glyph glyph-name="lcommaaccent" unicode="&#x13c;" horiz-adv-x="483" 
d="M156 0v1458l172 29v-1487h-172zM68 -543l125 422h161l-145 -401z" />
    <glyph glyph-name="Lcaron" unicode="&#x13d;" horiz-adv-x="1058" 
d="M358 176h609l-31 -176h-762v1419l184 29v-1272zM498 1016l65 418h176l-80 -390z" />
    <glyph glyph-name="lcaron" unicode="&#x13e;" horiz-adv-x="483" 
d="M156 0v1458l172 29v-1487h-172zM406 1055l65 418h176l-80 -390z" />
    <glyph glyph-name="Ldot" unicode="&#x13f;" horiz-adv-x="1058" 
d="M358 176h609l-31 -176h-762v1419l184 29v-1272zM629 803q0 56 40 95.5t97 39.5q58 0 98.5 -39.5t40.5 -95.5t-40.5 -95.5t-98.5 -39.5q-57 0 -97 39.5t-40 95.5z" />
    <glyph glyph-name="ldot" unicode="&#x140;" horiz-adv-x="671" 
d="M156 0v1458l172 29v-1487h-172zM455 805q0 50 37.5 86.5t87.5 36.5q54 0 90.5 -36t36.5 -87t-36.5 -87t-90.5 -36q-51 0 -88 36t-37 87z" />
    <glyph glyph-name="Lslash" unicode="&#x141;" horiz-adv-x="1079" 
d="M379 176h608l-31 -176h-761v565l-129 -51v174l129 51v680l184 29v-637l387 154v-172l-387 -154v-463z" />
    <glyph glyph-name="lslash" unicode="&#x142;" horiz-adv-x="495" 
d="M467 956v-178l-133 -84v-694h-172v586l-133 -84v178l133 84v694l172 29v-615z" />
    <glyph glyph-name="Nacute" unicode="&#x143;" horiz-adv-x="1568" 
d="M1397 1450v-1511l-1039 1101v-1040h-184v1495l1038 -1102v1026zM610 1575l-61 135l483 236l74 -154z" />
    <glyph glyph-name="nacute" unicode="&#x144;" horiz-adv-x="1089" 
d="M954 549v-549h-172v532q0 114 -59 178t-160 64q-107 0 -174 -71.5t-67 -188.5v-514h-172v895l163 27v-121q107 129 287 129q159 0 256.5 -102.5t97.5 -278.5zM393 1059l-74 129l420 256l88 -146z" />
    <glyph glyph-name="Ncommaaccent" unicode="&#x145;" horiz-adv-x="1568" 
d="M1397 1450v-1511l-1039 1101v-1040h-184v1495l1038 -1102v1026zM610 -543l125 422h162l-145 -401z" />
    <glyph glyph-name="ncommaaccent" unicode="&#x146;" horiz-adv-x="1089" 
d="M954 549v-549h-172v532q0 114 -59 178t-160 64q-107 0 -174 -71.5t-67 -188.5v-514h-172v895l163 27v-121q107 129 287 129q159 0 256.5 -102.5t97.5 -278.5zM379 -543l125 422h162l-146 -401z" />
    <glyph glyph-name="Ncaron" unicode="&#x147;" horiz-adv-x="1568" 
d="M1397 1450v-1511l-1039 1101v-1040h-184v1495l1038 -1102v1026zM1014 1942l90 -101l-320 -291l-319 291l90 101l229 -197z" />
    <glyph glyph-name="ncaron" unicode="&#x148;" horiz-adv-x="1089" 
d="M954 549v-549h-172v532q0 114 -59 178t-160 64q-107 0 -174 -71.5t-67 -188.5v-514h-172v895l163 27v-121q107 129 287 129q159 0 256.5 -102.5t97.5 -278.5zM784 1444l90 -103l-319 -288l-319 288l90 103l229 -197z" />
    <glyph glyph-name="napostrophe" unicode="&#x149;" horiz-adv-x="1136" 
d="M1001 549v-549h-172v532q0 114 -59 178t-160 64q-107 0 -174 -71.5t-67 -188.5v-514h-172v895l163 27v-121q107 129 287 129q159 0 256.5 -102.5t97.5 -278.5zM-53 850l180 584h188l-204 -557z" />
    <glyph glyph-name="Eng" unicode="&#x14a;" horiz-adv-x="1568" 
d="M1212 1419l185 31v-1511q-3 -205 -109.5 -319t-288.5 -114q-160 0 -297 101l52 166q62 -48 113 -69t116 -21q115 0 172 70.5t57 221.5v160l-854 905v-1040h-184v1495l1038 -1102v1026z" />
    <glyph glyph-name="eng" unicode="&#x14b;" horiz-adv-x="1089" 
d="M954 549v-658q0 -170 -94.5 -268.5t-261.5 -101.5v157q91 4 137.5 61t46.5 161v632q0 114 -59 178t-160 64q-107 0 -174 -71.5t-67 -188.5v-514h-172v895l163 27v-121q107 129 287 129q159 0 256.5 -102.5t97.5 -278.5z" />
    <glyph glyph-name="Omacron" unicode="&#x14c;" horiz-adv-x="1734" 
d="M113 717q-3 150 56.5 288.5t161.5 238.5t243 158.5t294 55.5q152 3 292.5 -55.5t242.5 -158.5t162 -238.5t57 -288.5q3 -150 -57 -288.5t-162 -239t-242.5 -159t-292.5 -55.5q-153 -3 -294 55.5t-243 159t-161.5 239t-56.5 288.5zM1430 717q3 152 -73.5 284t-207.5 209
t-281 74q-152 3 -283 -74t-207 -209t-73 -284q-3 -152 73 -284t207 -209t283 -74q150 -3 281 74t207.5 209t73.5 284zM555 1690v145h627v-145h-627z" />
    <glyph glyph-name="omacron" unicode="&#x14d;" horiz-adv-x="1126" 
d="M78 453q0 198 141.5 337.5t343.5 139.5q134 0 246 -64t177 -173.5t65 -239.5q0 -198 -142 -337t-346 -139q-132 0 -243.5 63.5t-176.5 173t-65 239.5zM879 455q0 135 -92 227t-224 92q-133 0 -223 -92t-90 -227q0 -137 90 -229.5t223 -92.5q132 0 224 93t92 229z
M270 1184v145h586v-145h-586z" />
    <glyph glyph-name="Obreve" unicode="&#x14e;" horiz-adv-x="1734" 
d="M113 717q-3 150 56.5 288.5t161.5 238.5t243 158.5t294 55.5q152 3 292.5 -55.5t242.5 -158.5t162 -238.5t57 -288.5q3 -150 -57 -288.5t-162 -239t-242.5 -159t-292.5 -55.5q-153 -3 -294 55.5t-243 159t-161.5 239t-56.5 288.5zM1430 717q3 152 -73.5 284t-207.5 209
t-281 74q-152 3 -283 -74t-207 -209t-73 -284q-3 -152 73 -284t207 -209t283 -74q150 -3 281 74t207.5 209t73.5 284zM537 1884h141q0 -74 54.5 -125t135.5 -51t136 51t55 125h141q0 -133 -96.5 -224t-235.5 -91t-235 91t-96 224z" />
    <glyph glyph-name="obreve" unicode="&#x14f;" horiz-adv-x="1126" 
d="M78 453q0 198 141.5 337.5t343.5 139.5q134 0 246 -64t177 -173.5t65 -239.5q0 -198 -142 -337t-346 -139q-132 0 -243.5 63.5t-176.5 173t-65 239.5zM879 455q0 135 -92 227t-224 92q-133 0 -223 -92t-90 -227q0 -137 90 -229.5t223 -92.5q132 0 224 93t92 229z
M248 1397h141q0 -75 49.5 -124.5t124.5 -49.5t124.5 49.5t49.5 124.5h142q0 -133 -91 -223.5t-225 -90.5t-224.5 90.5t-90.5 223.5z" />
    <glyph glyph-name="Ohungarumlaut" unicode="&#x150;" horiz-adv-x="1734" 
d="M113 717q-3 150 56.5 288.5t161.5 238.5t243 158.5t294 55.5q152 3 292.5 -55.5t242.5 -158.5t162 -238.5t57 -288.5q3 -150 -57 -288.5t-162 -239t-242.5 -159t-292.5 -55.5q-153 -3 -294 55.5t-243 159t-161.5 239t-56.5 288.5zM1430 717q3 152 -73.5 284t-207.5 209
t-281 74q-152 3 -283 -74t-207 -209t-73 -284q-3 -152 73 -284t207 -209t283 -74q150 -3 281 74t207.5 209t73.5 284zM608 1583l152 322h213l-213 -322h-152zM958 1583l152 322h213l-211 -322h-154z" />
    <glyph glyph-name="ohungarumlaut" unicode="&#x151;" horiz-adv-x="1126" 
d="M78 453q0 198 141.5 337.5t343.5 139.5q134 0 246 -64t177 -173.5t65 -239.5q0 -198 -142 -337t-346 -139q-132 0 -243.5 63.5t-176.5 173t-65 239.5zM879 455q0 135 -92 227t-224 92q-133 0 -223 -92t-90 -227q0 -137 90 -229.5t223 -92.5q132 0 224 93t92 229z
M315 1083l154 334h199l-213 -334h-140zM653 1083l154 334h199l-211 -334h-142z" />
    <glyph glyph-name="OE" unicode="&#x152;" horiz-adv-x="1933" 
d="M1190 172h637l-33 -172h-934q-154 -2 -293.5 53.5t-239.5 151.5t-158 230t-56 282q-2 148 56 282t158 230t239.5 151.5t293.5 53.5h907l31 -172h-608v-439h504v-172h-504v-479zM862 174h146v1086h-146q-156 0 -284 -71t-200.5 -195.5t-72.5 -276.5t72.5 -276.5
t200.5 -195.5t284 -71z" />
    <glyph glyph-name="oe" unicode="&#x153;" horiz-adv-x="1865" 
d="M1704 291l59 -148q-177 -166 -397 -166q-129 0 -235 59.5t-170 164.5q-62 -104 -168 -164t-234 -60q-131 0 -241.5 63.5t-175 173t-64.5 239.5t64.5 240t175 173.5t241.5 63.5q128 0 234 -59.5t168 -163.5q64 104 168.5 163.5t230.5 59.5q168 0 287.5 -106.5
t140.5 -282.5l-721 -232q37 -85 115 -133.5t182 -48.5q190 0 340 164zM1036 451l561 184q-29 68 -94 107.5t-149 39.5q-133 0 -225.5 -96.5t-92.5 -234.5zM879 455q0 135 -92 227t-224 92q-133 0 -223 -92t-90 -227q0 -137 90 -229.5t223 -92.5q132 0 224 93t92 229z" />
    <glyph glyph-name="Racute" unicode="&#x154;" horiz-adv-x="1138" 
d="M1051 0h-232l-463 602v-602h-182v1434h309q228 0 368 -125.5t140 -321.5q0 -164 -104.5 -280.5t-278.5 -147.5zM356 1266v-578h119q151 0 238.5 80.5t87.5 212.5q0 128 -88 206.5t-238 78.5h-119zM393 1575l-61 135l483 236l74 -154z" />
    <glyph glyph-name="racute" unicode="&#x155;" horiz-adv-x="665" 
d="M625 924v-168q-303 0 -303 -295v-461h-172v895l163 27v-150q96 152 312 152zM172 1059l-74 129l420 256l88 -146z" />
    <glyph glyph-name="Rcommaaccent" unicode="&#x156;" horiz-adv-x="1138" 
d="M1051 0h-232l-463 602v-602h-182v1434h309q228 0 368 -125.5t140 -321.5q0 -164 -104.5 -280.5t-278.5 -147.5zM356 1266v-578h119q151 0 238.5 80.5t87.5 212.5q0 128 -88 206.5t-238 78.5h-119zM393 -543l125 422h162l-145 -401z" />
    <glyph glyph-name="rcommaaccent" unicode="&#x157;" horiz-adv-x="665" 
d="M625 924v-168q-303 0 -303 -295v-461h-172v895l163 27v-150q96 152 312 152zM158 -543l125 422h161l-145 -401z" />
    <glyph glyph-name="Rcaron" unicode="&#x158;" horiz-adv-x="1138" 
d="M1051 0h-232l-463 602v-602h-182v1434h309q228 0 368 -125.5t140 -321.5q0 -164 -104.5 -280.5t-278.5 -147.5zM356 1266v-578h119q151 0 238.5 80.5t87.5 212.5q0 128 -88 206.5t-238 78.5h-119zM797 1942l90 -101l-320 -291l-319 291l90 101l229 -197z" />
    <glyph glyph-name="rcaron" unicode="&#x159;" horiz-adv-x="665" 
d="M625 924v-168q-303 0 -303 -295v-461h-172v895l163 27v-150q96 152 312 152zM563 1444l90 -103l-319 -288l-320 288l90 103l230 -197z" />
    <glyph glyph-name="Sacute" unicode="&#x15a;" horiz-adv-x="1083" 
d="M94 133l37 193q89 -84 191.5 -132.5t203.5 -48.5q116 0 189 67t73 171q0 84 -52.5 147.5t-155.5 94.5l-93 30q-352 113 -352 418q0 165 118.5 275t297.5 110q197 0 371 -112l-33 -185q-182 129 -338 129q-104 0 -168 -60.5t-64 -154.5q0 -84 55 -143t181 -101l94 -30
q161 -53 243.5 -160t82.5 -252q0 -177 -124.5 -295.5t-322.5 -118.5q-232 0 -434 158zM377 1585l-74 129l420 256l88 -145z" />
    <glyph glyph-name="sacute" unicode="&#x15b;" horiz-adv-x="774" 
d="M86 70l27 147q143 -94 260 -94q66 0 104.5 34.5t38.5 94.5q0 49 -34.5 81t-119.5 58l-38 12q-104 37 -159.5 107t-55.5 164q0 109 79.5 182.5t202.5 73.5q121 0 254 -70l-29 -147q-55 35 -114.5 54t-106.5 19q-61 0 -95 -30t-34 -80q0 -42 31 -71t109 -58l36 -12
q117 -38 178.5 -109.5t61.5 -171.5q0 -122 -84.5 -199.5t-220.5 -77.5q-147 0 -291 93zM229 1059l-73 129l419 256l89 -146z" />
    <glyph glyph-name="Scircumflex" unicode="&#x15c;" horiz-adv-x="1083" 
d="M94 133l37 193q89 -84 191.5 -132.5t203.5 -48.5q116 0 189 67t73 171q0 84 -52.5 147.5t-155.5 94.5l-93 30q-352 113 -352 418q0 165 118.5 275t297.5 110q197 0 371 -112l-33 -185q-182 129 -338 129q-104 0 -168 -60.5t-64 -154.5q0 -84 55 -143t181 -101l94 -30
q161 -53 243.5 -160t82.5 -252q0 -177 -124.5 -295.5t-322.5 -118.5q-232 0 -434 158zM856 1667l-90 -100l-229 196l-230 -196l-90 100l320 291z" />
    <glyph glyph-name="scircumflex" unicode="&#x15d;" horiz-adv-x="774" 
d="M86 70l27 147q143 -94 260 -94q66 0 104.5 34.5t38.5 94.5q0 49 -34.5 81t-119.5 58l-38 12q-104 37 -159.5 107t-55.5 164q0 109 79.5 182.5t202.5 73.5q121 0 254 -70l-29 -147q-55 35 -114.5 54t-106.5 19q-61 0 -95 -30t-34 -80q0 -42 31 -71t109 -58l36 -12
q117 -38 178.5 -109.5t61.5 -171.5q0 -122 -84.5 -199.5t-220.5 -77.5q-147 0 -291 93zM709 1157l-91 -102l-229 196l-229 -196l-90 102l319 289z" />
    <glyph glyph-name="Scedilla" unicode="&#x15e;" horiz-adv-x="1083" 
d="M598 -20l-197 -357l-159 103l198 256q-190 26 -346 151l37 193q89 -84 191.5 -132.5t203.5 -48.5q116 0 189 67t73 171q0 84 -52.5 147.5t-155.5 94.5l-93 30q-352 113 -352 418q0 165 118.5 275t297.5 110q197 0 371 -112l-33 -185q-182 129 -338 129q-104 0 -168 -60.5
t-64 -154.5q0 -84 55 -143t181 -101l94 -30q161 -53 243.5 -160t82.5 -252q0 -162 -104 -276t-273 -133z" />
    <glyph glyph-name="scedilla" unicode="&#x15f;" horiz-adv-x="774" 
d="M453 -16l-199 -361l-160 103l201 260q-107 17 -209 84l27 147q143 -94 260 -94q66 0 104.5 34.5t38.5 94.5q0 49 -34.5 81t-119.5 58l-38 12q-104 37 -159.5 107t-55.5 164q0 109 79.5 182.5t202.5 73.5q121 0 254 -70l-29 -147q-55 35 -114.5 54t-106.5 19
q-61 0 -95 -30t-34 -80q0 -42 31 -71t109 -58l36 -12q117 -38 178.5 -109.5t61.5 -171.5q0 -102 -62 -174.5t-167 -95.5z" />
    <glyph glyph-name="Scaron" unicode="&#x160;" horiz-adv-x="1083" 
d="M94 133l37 193q89 -84 191.5 -132.5t203.5 -48.5q116 0 189 67t73 171q0 84 -52.5 147.5t-155.5 94.5l-93 30q-352 113 -352 418q0 165 118.5 275t297.5 110q197 0 371 -112l-33 -185q-182 129 -338 129q-104 0 -168 -60.5t-64 -154.5q0 -84 55 -143t181 -101l94 -30
q161 -53 243.5 -160t82.5 -252q0 -177 -124.5 -295.5t-322.5 -118.5q-232 0 -434 158zM766 1942l90 -101l-319 -291l-320 291l90 101l230 -197z" />
    <glyph glyph-name="scaron" unicode="&#x161;" horiz-adv-x="774" 
d="M86 70l27 147q143 -94 260 -94q66 0 104.5 34.5t38.5 94.5q0 49 -34.5 81t-119.5 58l-38 12q-104 37 -159.5 107t-55.5 164q0 109 79.5 182.5t202.5 73.5q121 0 254 -70l-29 -147q-55 35 -114.5 54t-106.5 19q-61 0 -95 -30t-34 -80q0 -42 31 -71t109 -58l36 -12
q117 -38 178.5 -109.5t61.5 -171.5q0 -122 -84.5 -199.5t-220.5 -77.5q-147 0 -291 93zM621 1444l90 -103l-320 -288l-319 288l90 103l229 -197z" />
    <glyph glyph-name="uni0162" unicode="&#x162;" horiz-adv-x="1079" 
d="M1036 1260h-405v-1260h-185v1260h-405l33 174h932zM365 -543l124 422h162l-145 -401z" />
    <glyph glyph-name="uni0163" unicode="&#x163;" horiz-adv-x="679" 
d="M612 756h-258v-477q0 -67 33.5 -103.5t95.5 -36.5q66 0 129 29v-154q-73 -30 -155 -30q-128 0 -201.5 75t-73.5 205v492h-137l29 151h108v195l172 96v-291h258v-151zM203 -543l125 422h161l-145 -401z" />
    <glyph glyph-name="Tcaron" unicode="&#x164;" horiz-adv-x="1079" 
d="M1036 1260h-405v-1260h-185v1260h-405l33 174h932zM768 1942l90 -101l-319 -291l-320 291l90 101l230 -197z" />
    <glyph glyph-name="tcaron" unicode="&#x165;" horiz-adv-x="679" 
d="M612 756h-258v-477q0 -67 33.5 -103.5t95.5 -36.5q66 0 129 29v-154q-73 -30 -155 -30q-128 0 -201.5 75t-73.5 205v492h-137l29 151h108v195l172 96v-291h258v-151zM434 1055l66 418h176l-80 -390z" />
    <glyph glyph-name="Tbar" unicode="&#x166;" horiz-adv-x="1079" 
d="M631 1260v-445h309v-168h-309v-647h-185v647h-307v168h307v445h-405l33 174h932l30 -174h-405z" />
    <glyph glyph-name="tbar" unicode="&#x167;" horiz-adv-x="729" 
d="M641 762h-258v-170h258v-146h-258v-167q0 -67 33.5 -103.5t95.5 -36.5q69 0 129 29v-154q-73 -30 -154 -30q-129 0 -202.5 74.5t-73.5 205.5v182h-135l26 146h109v170h-135l26 145h109v195l172 96v-291h258v-145z" />
    <glyph glyph-name="Utilde" unicode="&#x168;" horiz-adv-x="1378" 
d="M154 545v874l184 29v-887q0 -189 95.5 -300t256.5 -111q160 0 255 111t95 300v858l185 29v-903q0 -256 -147.5 -413t-387.5 -157q-241 0 -388.5 156.5t-147.5 413.5zM657 1716q-43 23 -64.5 31t-45.5 8q-38 0 -63 -24.5t-25 -61.5h-125q0 102 60 163.5t155 61.5
q46 0 83.5 -13t90.5 -42q74 -41 111 -41q38 0 63 25.5t25 62.5h125q0 -102 -60.5 -163.5t-155.5 -61.5q-46 0 -83.5 13t-90.5 42z" />
    <glyph glyph-name="utilde" unicode="&#x169;" horiz-adv-x="1081" 
d="M758 895l172 29v-926h-164v106q-105 -124 -281 -124q-158 0 -254 101.5t-96 276.5v537l172 29v-547q0 -114 57.5 -177t157.5 -63q104 0 170 70t66 186v502zM506 1188q-62 41 -105 41q-37 0 -59.5 -24t-24.5 -62h-124q0 102 57.5 163.5t150.5 61.5q41 0 72.5 -11.5
t85.5 -41.5q62 -41 105 -41q37 0 59.5 24.5t24.5 63.5h124q0 -102 -57.5 -164.5t-150.5 -62.5q-41 0 -72.5 11.5t-85.5 41.5z" />
    <glyph glyph-name="Umacron" unicode="&#x16a;" horiz-adv-x="1378" 
d="M154 545v874l184 29v-887q0 -189 95.5 -300t256.5 -111q160 0 255 111t95 300v858l185 29v-903q0 -256 -147.5 -413t-387.5 -157q-241 0 -388.5 156.5t-147.5 413.5zM377 1690v145h627v-145h-627z" />
    <glyph glyph-name="umacron" unicode="&#x16b;" horiz-adv-x="1081" 
d="M758 895l172 29v-926h-164v106q-105 -124 -281 -124q-158 0 -254 101.5t-96 276.5v537l172 29v-547q0 -114 57.5 -177t157.5 -63q104 0 170 70t66 186v502zM240 1184v145h585v-145h-585z" />
    <glyph glyph-name="Ubreve" unicode="&#x16c;" horiz-adv-x="1378" 
d="M154 545v874l184 29v-887q0 -189 95.5 -300t256.5 -111q160 0 255 111t95 300v858l185 29v-903q0 -256 -147.5 -413t-387.5 -157q-241 0 -388.5 156.5t-147.5 413.5zM358 1884h142q0 -74 54.5 -125t135.5 -51t136 51t55 125h141q0 -133 -96.5 -224t-235.5 -91t-235.5 91
t-96.5 224z" />
    <glyph glyph-name="ubreve" unicode="&#x16d;" horiz-adv-x="1081" 
d="M758 895l172 29v-926h-164v106q-105 -124 -281 -124q-158 0 -254 101.5t-96 276.5v537l172 29v-547q0 -114 57.5 -177t157.5 -63q104 0 170 70t66 186v502zM217 1397h141q0 -75 49.5 -124.5t124.5 -49.5t125 49.5t50 124.5h141q0 -133 -91 -223.5t-225 -90.5t-224.5 90.5
t-90.5 223.5z" />
    <glyph glyph-name="Uring" unicode="&#x16e;" horiz-adv-x="1378" 
d="M154 545v874l184 29v-887q0 -189 95.5 -300t256.5 -111q160 0 255 111t95 300v858l185 29v-903q0 -256 -147.5 -413t-387.5 -157q-241 0 -388.5 156.5t-147.5 413.5zM453 1802q0 94 69.5 161t167.5 67t168 -67t70 -161q0 -95 -70 -162t-168 -67t-167.5 67t-69.5 162z
M811 1802q0 51 -35 85t-86 34t-86 -34t-35 -85t35 -86t86 -35t86 35t35 86z" />
    <glyph glyph-name="uring" unicode="&#x16f;" horiz-adv-x="1081" 
d="M758 895l172 29v-926h-164v106q-105 -124 -281 -124q-158 0 -254 101.5t-96 276.5v537l172 29v-547q0 -114 57.5 -177t157.5 -63q104 0 170 70t66 186v502zM295 1276q0 94 69.5 160.5t167.5 66.5t168 -66.5t70 -160.5q0 -95 -70 -162t-168 -67t-167.5 67t-69.5 162z
M653 1276q0 51 -35 85t-86 34t-85.5 -34t-34.5 -85t34.5 -86t85.5 -35t86 35t35 86z" />
    <glyph glyph-name="Uhungarumlaut" unicode="&#x170;" horiz-adv-x="1378" 
d="M154 545v874l184 29v-887q0 -189 95.5 -300t256.5 -111q160 0 255 111t95 300v858l185 29v-903q0 -256 -147.5 -413t-387.5 -157q-241 0 -388.5 156.5t-147.5 413.5zM430 1583l152 322h213l-213 -322h-152zM780 1583l152 322h213l-211 -322h-154z" />
    <glyph glyph-name="uhungarumlaut" unicode="&#x171;" horiz-adv-x="1081" 
d="M758 895l172 29v-926h-164v106q-105 -124 -281 -124q-158 0 -254 101.5t-96 276.5v537l172 29v-547q0 -114 57.5 -177t157.5 -63q104 0 170 70t66 186v502zM285 1083l153 334h199l-213 -334h-139zM623 1083l153 334h199l-211 -334h-141z" />
    <glyph glyph-name="Uogonek" unicode="&#x172;" horiz-adv-x="1378" 
d="M1040 1419l185 29v-903q0 -178 -71.5 -309t-207.5 -205q-63 -35 -96 -77t-33 -81q0 -31 22.5 -53.5t57.5 -22.5q27 0 51 8v-137q-52 -10 -84 -10q-84 0 -141 55t-57 135q0 68 41 127h-19q-239 0 -386.5 158t-147.5 412v874l184 29v-887q0 -189 95.5 -300t256.5 -111
q160 0 255 111t95 300v858z" />
    <glyph glyph-name="uogonek" unicode="&#x173;" horiz-adv-x="1081" 
d="M809 -152q0 -31 21 -50t53 -19q20 0 47 6v-125q-45 -10 -78 -10q-79 0 -131.5 51.5t-52.5 126.5q0 101 98 180v96q-105 -124 -281 -124q-158 0 -254 101.5t-96 276.5v537l172 29v-547q0 -114 57.5 -177t157.5 -63q104 0 170 70t66 186v502l172 29v-926
q-121 -77 -121 -150z" />
    <glyph glyph-name="Wcircumflex" unicode="&#x174;" horiz-adv-x="2025" 
d="M1982 1434l-509 -1487l-459 1083l-461 -1083l-510 1487h193l337 -1010l439 1034l438 -1036l340 1012h192zM1331 1667l-90 -100l-229 196l-230 -196l-90 100l320 291z" />
    <glyph glyph-name="wcircumflex" unicode="&#x175;" horiz-adv-x="1542" 
d="M1507 907l-422 -952l-313 651l-315 -651l-422 952h186l244 -590l307 633l305 -633l244 590h186zM1092 1157l-91 -102l-229 196l-229 -196l-90 102l319 289z" />
    <glyph glyph-name="Ycircumflex" unicode="&#x176;" horiz-adv-x="1206" 
d="M1147 1434l-451 -873v-561h-184v557l-453 877h205l340 -678l338 678h205zM924 1667l-90 -100l-230 196l-229 -196l-90 100l319 291z" />
    <glyph glyph-name="ycircumflex" unicode="&#x177;" horiz-adv-x="993" 
d="M776 907h189l-660 -1374h-188l291 576l-381 798h188l281 -618zM815 1157l-90 -102l-229 196l-230 -196l-90 102l320 289z" />
    <glyph glyph-name="Ydieresis" unicode="&#x178;" horiz-adv-x="1206" 
d="M1147 1434l-451 -873v-561h-184v557l-453 877h205l340 -678l338 678h205zM231 1739q0 51 36 86t87 35q54 0 89.5 -35t35.5 -86t-35.5 -87t-89.5 -36q-53 0 -88 35.5t-35 87.5zM729 1739q0 51 35.5 86t89.5 35q51 0 87 -35t36 -86t-36 -87t-87 -36q-54 0 -89.5 36
t-35.5 87z" />
    <glyph glyph-name="Zacute" unicode="&#x179;" horiz-adv-x="1323" 
d="M1221 1434l-797 -1260h784l-30 -174h-1076l797 1260h-756l31 174h1047zM504 1585l-74 129l420 256l88 -145z" />
    <glyph glyph-name="zacute" unicode="&#x17a;" horiz-adv-x="974" 
d="M901 907l-528 -757h518l-27 -150h-790l530 758h-489l26 149h760zM328 1059l-74 129l420 256l88 -146z" />
    <glyph glyph-name="Zdotaccent" unicode="&#x17b;" horiz-adv-x="1323" 
d="M1221 1434l-797 -1260h784l-30 -174h-1076l797 1260h-756l31 174h1047zM547 1778q0 47 34 80.5t83 33.5t82.5 -33t33.5 -81q0 -50 -33.5 -83.5t-82.5 -33.5q-50 0 -83.5 33.5t-33.5 83.5z" />
    <glyph glyph-name="zdotaccent" unicode="&#x17c;" horiz-adv-x="974" 
d="M901 907l-528 -757h518l-27 -150h-790l530 758h-489l26 149h760zM371 1251q0 48 33.5 81.5t82.5 33.5t83 -33.5t34 -81.5q0 -49 -33.5 -82.5t-83.5 -33.5q-49 0 -82.5 33.5t-33.5 82.5z" />
    <glyph glyph-name="Zcaron" unicode="&#x17d;" horiz-adv-x="1323" 
d="M1221 1434l-797 -1260h784l-30 -174h-1076l797 1260h-756l31 174h1047zM893 1942l90 -101l-319 -291l-320 291l90 101l230 -197z" />
    <glyph glyph-name="zcaron" unicode="&#x17e;" horiz-adv-x="974" 
d="M901 907l-528 -757h518l-27 -150h-790l530 758h-489l26 149h760zM719 1444l90 -103l-320 -288l-319 288l90 103l229 -197z" />
    <glyph glyph-name="florin" unicode="&#x192;" horiz-adv-x="778" 
d="M467 1114l-39 -207h184v-151h-215l-145 -756h-172l145 756h-104v151h133l43 219q36 187 141.5 275t280.5 88v-158q-113 0 -170 -49.5t-82 -167.5z" />
    <glyph glyph-name="Scommaaccent" unicode="&#x218;" horiz-adv-x="1083" 
d="M94 133l37 193q89 -84 191.5 -132.5t203.5 -48.5q116 0 189 67t73 171q0 84 -52.5 147.5t-155.5 94.5l-93 30q-352 113 -352 418q0 165 118.5 275t297.5 110q197 0 371 -112l-33 -185q-182 129 -338 129q-104 0 -168 -60.5t-64 -154.5q0 -84 55 -143t181 -101l94 -30
q161 -53 243.5 -160t82.5 -252q0 -177 -124.5 -295.5t-322.5 -118.5q-232 0 -434 158zM362 -543l125 422h162l-145 -401z" />
    <glyph glyph-name="scommaaccent" unicode="&#x219;" horiz-adv-x="774" 
d="M86 70l27 147q143 -94 260 -94q66 0 104.5 34.5t38.5 94.5q0 49 -34.5 81t-119.5 58l-38 12q-104 37 -159.5 107t-55.5 164q0 109 79.5 182.5t202.5 73.5q121 0 254 -70l-29 -147q-55 35 -114.5 54t-106.5 19q-61 0 -95 -30t-34 -80q0 -42 31 -71t109 -58l36 -12
q117 -38 178.5 -109.5t61.5 -171.5q0 -122 -84.5 -199.5t-220.5 -77.5q-147 0 -291 93zM215 -543l125 422h162l-146 -401z" />
    <glyph glyph-name="uni021A" unicode="&#x21a;" horiz-adv-x="1079" 
d="M1036 1260h-405v-1260h-185v1260h-405l33 174h932zM365 -543l124 422h162l-145 -401z" />
    <glyph glyph-name="uni021B" unicode="&#x21b;" horiz-adv-x="679" 
d="M612 756h-258v-477q0 -67 33.5 -103.5t95.5 -36.5q66 0 129 29v-154q-73 -30 -155 -30q-128 0 -201.5 75t-73.5 205v492h-137l29 151h108v195l172 96v-291h258v-151zM203 -543l125 422h161l-145 -401z" />
    <glyph glyph-name="dotlessj" unicode="&#x237;" horiz-adv-x="483" 
d="M-29 -479v157q91 4 138 61t47 161v993l172 31v-1033q0 -170 -95 -268.5t-262 -101.5z" />
    <glyph glyph-name="circumflex" unicode="&#x2c6;" horiz-adv-x="819" 
d="M729 1157l-90 -102l-229 196l-230 -196l-90 102l320 289z" />
    <glyph glyph-name="caron" unicode="&#x2c7;" horiz-adv-x="819" 
d="M641 1444l90 -103l-319 -288l-320 288l90 103l230 -197z" />
    <glyph glyph-name="uni02C9" unicode="&#x2c9;" horiz-adv-x="1228" 
d="M219 1184v145h586v-145h-586z" />
    <glyph glyph-name="breve" unicode="&#x2d8;" horiz-adv-x="819" 
d="M94 1397h142q0 -75 49.5 -124.5t124.5 -49.5t124.5 49.5t49.5 124.5h141q0 -133 -90.5 -223.5t-224.5 -90.5t-225 90.5t-91 223.5z" />
    <glyph glyph-name="dotaccent" unicode="&#x2d9;" horiz-adv-x="819" 
d="M293 1251q0 48 34 81.5t83 33.5t82.5 -33.5t33.5 -81.5q0 -49 -33 -82.5t-83 -33.5t-83.5 33.5t-33.5 82.5z" />
    <glyph glyph-name="ring" unicode="&#x2da;" horiz-adv-x="819" 
d="M172 1276q0 94 70 160.5t168 66.5t167.5 -66.5t69.5 -160.5q0 -95 -69.5 -162t-167.5 -67t-168 67t-70 162zM530 1276q0 51 -34.5 85t-85.5 34t-86 -34t-35 -85t35 -86t86 -35t85.5 35t34.5 86z" />
    <glyph glyph-name="ogonek" unicode="&#x2db;" horiz-adv-x="819" 
d="M147 -170q0 149 215 254l48 -84q-121 -77 -121 -150q0 -31 20.5 -50t52.5 -19q21 0 48 6v-125q-45 -10 -78 -10q-79 0 -132 51.5t-53 126.5z" />
    <glyph glyph-name="tilde" unicode="&#x2dc;" horiz-adv-x="819" 
d="M383 1188q-62 41 -104 41q-37 0 -59.5 -24t-24.5 -62h-125q0 102 58 163.5t151 61.5q41 0 72 -11.5t85 -41.5q62 -41 105 -41q37 0 59.5 24.5t24.5 63.5h125q0 -102 -58 -164.5t-151 -62.5q-41 0 -72.5 11.5t-85.5 41.5z" />
    <glyph glyph-name="hungarumlaut" unicode="&#x2dd;" horiz-adv-x="819" 
d="M162 1083l153 334h199l-213 -334h-139zM500 1083l153 334h199l-211 -334h-141z" />
    <glyph glyph-name="gravecomb" unicode="&#x300;" 
d="M-332 1059l-434 239l88 146l420 -256z" />
    <glyph glyph-name="acutecomb" unicode="&#x301;" 
d="M-672 1059l-73 129l419 256l88 -146z" />
    <glyph glyph-name="circumflexcomb" unicode="&#x302;" 
d="M-193 1157l-90 -102l-229 196l-229 -196l-90 102l319 289z" />
    <glyph glyph-name="tildecomb" unicode="&#x303;" 
d="M-539 1188q-62 41 -104 41q-37 0 -59.5 -24t-24.5 -62h-125q0 102 58 163.5t151 61.5q41 0 72.5 -11.5t85.5 -41.5q62 -41 104 -41q37 0 59.5 24.5t24.5 63.5h125q0 -102 -58 -164.5t-151 -62.5q-41 0 -72.5 11.5t-85.5 41.5z" />
    <glyph glyph-name="macroncomb" unicode="&#x304;" 
d="M-805 1184v145h586v-145h-586z" />
    <glyph glyph-name="brevecomb" unicode="&#x306;" 
d="M-827 1397h141q0 -75 49.5 -124.5t124.5 -49.5t124.5 49.5t49.5 124.5h141q0 -133 -90.5 -223.5t-224.5 -90.5t-224.5 90.5t-90.5 223.5z" />
    <glyph glyph-name="dotaccentcomb" unicode="&#x307;" 
d="M-629 1251q0 48 34 81.5t83 33.5t83 -33.5t34 -81.5q0 -49 -33.5 -82.5t-83.5 -33.5t-83.5 33.5t-33.5 82.5z" />
    <glyph glyph-name="dieresiscomb" unicode="&#x308;" 
d="M-813 1233q0 44 32 75t76 31q45 0 77 -31t32 -75t-32.5 -76.5t-76.5 -32.5t-76 32.5t-32 76.5zM-428 1233q0 44 32 75t77 31q44 0 76 -31t32 -75t-32 -76.5t-76 -32.5q-47 0 -78 32t-31 77z" />
    <glyph glyph-name="ringcomb" unicode="&#x30a;" 
d="M-750 1276q0 94 70 160.5t168 66.5t168 -66.5t70 -160.5q0 -95 -70 -162t-168 -67t-168 67t-70 162zM-391 1276q0 51 -35 85t-86 34t-86 -34t-35 -85t35 -86t86 -35t86 35t35 86z" />
    <glyph glyph-name="hungarumlautcomb" unicode="&#x30b;" 
d="M-760 1083l154 334h198l-213 -334h-139zM-422 1083l154 334h198l-211 -334h-141z" />
    <glyph glyph-name="caroncomb" unicode="&#x30c;" 
d="M-281 1444l91 -103l-320 -288l-319 288l90 103l229 -197z" />
    <glyph glyph-name="commaturnedabovecomb" unicode="&#x312;" 
d="M-338 1450l-125 -422h-162l146 402z" />
    <glyph glyph-name="commaaccent" unicode="&#x326;" 
d="M-686 -543l125 422h162l-146 -401z" />
    <glyph glyph-name="cedillacomb" unicode="&#x327;" 
d="M-647 -377l-160 103l238 307h147z" />
    <glyph glyph-name="ogonekcomb" unicode="&#x328;" 
d="M-774 -170q0 149 215 254l47 -84q-121 -77 -121 -150q0 -31 21 -50t53 -19q20 0 47 6v-125q-45 -10 -78 -10q-79 0 -131.5 51.5t-52.5 126.5z" />
    <glyph glyph-name="uni0335" unicode="&#x335;" 
d="M-877 653v152h730v-152h-730z" />
    <glyph glyph-name="uni0336" unicode="&#x336;" 
d="M-1239 651v160h1454v-160h-1454z" />
    <glyph glyph-name="uni0337" unicode="&#x337;" 
d="M-731 510v178l438 277v-179z" />
    <glyph glyph-name="uni0338" unicode="&#x338;" 
d="M-858 -45l-100 88l794 909l101 -88z" />
    <glyph glyph-name="uni0394" unicode="&#x394;" horiz-adv-x="1390" 
d="M696 1485l662 -1485h-1325zM303 166h784l-391 917z" />
    <glyph glyph-name="uni03A9" unicode="&#x3a9;" horiz-adv-x="1601" 
d="M1081 174v-10h371v-164h-539v272q174 37 287 178.5t113 325.5q2 105 -38.5 201t-109.5 165.5t-165 110t-199 39.5q-103 1 -199 -39.5t-165 -110t-109.5 -165.5t-38.5 -201q0 -185 111.5 -326t287.5 -178v-272h-538v164h368v10q-184 64 -299 236t-115 376
q-2 107 32.5 209.5t99.5 186t151.5 147t193.5 97.5t220 32q140 3 270.5 -51t224.5 -145.5t149 -217t52 -258.5q0 -205 -115.5 -375.5t-300.5 -236.5z" />
    <glyph glyph-name="uni03BC" unicode="&#x3bc;" horiz-adv-x="1097" 
d="M774 895l172 29v-926h-164v90q-89 -106 -237 -106q-136 0 -223 96v-545h-172v1362l172 29v-547q0 -112 62 -178t165 -66t164 66t61 178v518z" />
    <glyph glyph-name="pi" unicode="&#x3c0;" horiz-adv-x="1243" 
d="M1174 756h-259v-477q0 -67 35 -103.5t97 -36.5q67 0 127 29v-154q-66 -30 -154 -30q-129 0 -203 75t-74 205v492h-311v-756h-172v756h-215l29 151h1100v-151z" />
    <glyph glyph-name="Wgrave" unicode="&#x1e80;" horiz-adv-x="2025" 
d="M1982 1434l-509 -1487l-459 1083l-461 -1083l-510 1487h193l337 -1010l439 1034l438 -1036l340 1012h192zM1186 1575l-496 217l74 154l483 -236z" />
    <glyph glyph-name="wgrave" unicode="&#x1e81;" horiz-adv-x="1542" 
d="M1507 907l-422 -952l-313 651l-315 -651l-422 952h186l244 -590l307 633l305 -633l244 590h186zM952 1059l-434 239l88 146l420 -256z" />
    <glyph glyph-name="Wacute" unicode="&#x1e82;" horiz-adv-x="2025" 
d="M1982 1434l-509 -1487l-459 1083l-461 -1083l-510 1487h193l337 -1010l439 1034l438 -1036l340 1012h192zM838 1575l-62 135l484 236l73 -154z" />
    <glyph glyph-name="wacute" unicode="&#x1e83;" horiz-adv-x="1542" 
d="M1507 907l-422 -952l-313 651l-315 -651l-422 952h186l244 -590l307 633l305 -633l244 590h186zM612 1059l-73 129l419 256l89 -146z" />
    <glyph glyph-name="Wdieresis" unicode="&#x1e84;" horiz-adv-x="2025" 
d="M1982 1434l-509 -1487l-459 1083l-461 -1083l-510 1487h193l337 -1010l439 1034l438 -1036l340 1012h192zM639 1739q0 51 36 86t87 35q54 0 89.5 -35t35.5 -86t-35.5 -87t-89.5 -36q-53 0 -88 35.5t-35 87.5zM1137 1739q0 51 35.5 86t89.5 35q51 0 86.5 -35t35.5 -86
t-35.5 -87t-86.5 -36q-54 0 -89.5 36t-35.5 87z" />
    <glyph glyph-name="wdieresis" unicode="&#x1e85;" horiz-adv-x="1542" 
d="M1507 907l-422 -952l-313 651l-315 -651l-422 952h186l244 -590l307 633l305 -633l244 590h186zM471 1233q0 44 32 75t77 31q44 0 76 -31t32 -75t-32 -76.5t-76 -32.5t-76.5 32.5t-32.5 76.5zM856 1233q0 44 32 75t77 31q44 0 76 -31t32 -75t-32 -76.5t-76 -32.5
q-47 0 -78 32t-31 77z" />
    <glyph glyph-name="Germandbls" unicode="&#x1e9e;" horiz-adv-x="2125" 
d="M94 133l37 193q89 -84 191.5 -132.5t203.5 -48.5q116 0 189 67t73 171q0 84 -52.5 147.5t-155.5 94.5l-93 30q-352 113 -352 418q0 165 118.5 275t297.5 110q197 0 371 -112l-33 -185q-182 129 -338 129q-104 0 -168 -60.5t-64 -154.5q0 -84 55 -143t181 -101l94 -30
q161 -53 243.5 -160t82.5 -252q0 -177 -124.5 -295.5t-322.5 -118.5q-232 0 -434 158zM1137 133l37 193q89 -84 191.5 -132.5t203.5 -48.5q116 0 189 67t73 171q0 84 -53 147t-156 95l-92 30q-352 113 -352 418q0 165 118 275t297 110q197 0 371 -112l-33 -185
q-181 129 -338 129q-103 0 -167 -60t-64 -155q0 -84 54.5 -143t180.5 -101l95 -30q161 -53 243 -160t82 -252q0 -178 -124 -296t-322 -118q-232 0 -434 158z" />
    <glyph glyph-name="Ygrave" unicode="&#x1ef2;" horiz-adv-x="1206" 
d="M1147 1434l-451 -873v-561h-184v557l-453 877h205l340 -678l338 678h205zM778 1575l-495 217l73 154l484 -236z" />
    <glyph glyph-name="ygrave" unicode="&#x1ef3;" horiz-adv-x="993" 
d="M776 907h189l-660 -1374h-188l291 576l-381 798h188l281 -618zM676 1059l-434 239l88 146l420 -256z" />
    <glyph glyph-name="uni2011" unicode="&#x2011;" horiz-adv-x="684" 
d="M106 399v150h472v-150h-472z" />
    <glyph glyph-name="endash" unicode="&#x2013;" horiz-adv-x="1024" 
d="M78 401v146h868v-146h-868z" />
    <glyph glyph-name="emdash" unicode="&#x2014;" horiz-adv-x="1843" 
d="M78 401v146h1687v-146h-1687z" />
    <glyph glyph-name="quoteleft" unicode="&#x2018;" horiz-adv-x="505" 
d="M436 1446l-180 -584h-188l204 557z" />
    <glyph glyph-name="quoteright" unicode="&#x2019;" horiz-adv-x="505" 
d="M70 850l180 584h188l-205 -557z" />
    <glyph glyph-name="quotesinglbase" unicode="&#x201a;" horiz-adv-x="505" 
d="M37 -315l180 583h189l-205 -557z" />
    <glyph glyph-name="quotedblleft" unicode="&#x201c;" horiz-adv-x="856" 
d="M436 1446l-180 -584h-188l204 557zM788 1446l-180 -584h-188l205 557z" />
    <glyph glyph-name="quotedblright" unicode="&#x201d;" horiz-adv-x="856" 
d="M70 850l180 584h188l-205 -557zM422 850l180 584h189l-205 -557z" />
    <glyph glyph-name="quotedblbase" unicode="&#x201e;" horiz-adv-x="856" 
d="M37 -315l180 583h189l-205 -557zM389 -315l180 583h189l-205 -557z" />
    <glyph glyph-name="dagger" unicode="&#x2020;" horiz-adv-x="847" 
d="M743 1159v-147h-239v-725h-160v725h-240v147h240v275h160v-275h239z" />
    <glyph glyph-name="daggerdbl" unicode="&#x2021;" horiz-adv-x="847" 
d="M743 1012h-239v-285h239v-147h-239v-293h-160v293h-240v147h240v285h-240v147h240v275h160v-275h239v-147z" />
    <glyph glyph-name="bullet" unicode="&#x2022;" horiz-adv-x="784" 
d="M133 473q0 106 75 182t183 76q105 0 182.5 -76.5t77.5 -181.5q0 -102 -78 -180t-182 -78q-108 0 -183 76t-75 182z" />
    <glyph glyph-name="ellipsis" unicode="&#x2026;" horiz-adv-x="1546" 
d="M133 117q0 56 40 95.5t97 39.5q58 0 99 -39.5t41 -95.5t-41 -95.5t-99 -39.5q-57 0 -97 39.5t-40 95.5zM635 117q0 56 40 95.5t97 39.5q58 0 98.5 -39.5t40.5 -95.5t-40.5 -95.5t-98.5 -39.5q-57 0 -97 39.5t-40 95.5zM1139 117q0 56 40 95.5t97 39.5q58 0 98.5 -39.5
t40.5 -95.5t-40.5 -95.5t-98.5 -39.5q-57 0 -97 39.5t-40 95.5z" />
    <glyph glyph-name="perthousand" unicode="&#x2030;" horiz-adv-x="2473" 
d="M352 -18l-98 79l1124 1391l99 -80zM979 373q0 170 83.5 277.5t223.5 107.5t223.5 -107.5t83.5 -277.5t-83.5 -277.5t-223.5 -107.5t-223.5 107.5t-83.5 277.5zM1454 373q0 117 -45 187.5t-123 70.5t-123 -70.5t-45 -187.5t45 -187.5t123 -70.5t123 70.5t45 187.5z
M145 1059q0 170 84 277.5t224 107.5t223.5 -107.5t83.5 -277.5t-83.5 -277.5t-223.5 -107.5t-224 107.5t-84 277.5zM621 1059q0 117 -45 187.5t-123 70.5t-123 -70.5t-45 -187.5t45 -187.5t123 -70.5t123 70.5t45 187.5zM1712 373q0 170 83.5 277.5t223.5 107.5t224 -107.5
t84 -277.5t-84 -277.5t-224 -107.5t-223.5 107.5t-83.5 277.5zM2187 373q0 117 -45 187.5t-123 70.5t-123 -70.5t-45 -187.5t45 -187.5t123 -70.5t123 70.5t45 187.5z" />
    <glyph glyph-name="guilsinglleft" unicode="&#x2039;" horiz-adv-x="649" 
d="M518 803l-233 -342l233 -342l-129 -86l-287 428l287 428z" />
    <glyph glyph-name="guilsinglright" unicode="&#x203a;" horiz-adv-x="649" 
d="M260 889l287 -428l-287 -428l-129 86l234 342l-234 342z" />
    <glyph glyph-name="fraction" unicode="&#x2044;" horiz-adv-x="395" 
d="M-315 -18l-99 79l1125 1391l98 -80z" />
    <glyph glyph-name="zero.superior" unicode="&#x2070;" horiz-adv-x="720" 
d="M53 1264q0 170 83.5 277.5t223.5 107.5t224 -107.5t84 -277.5t-84 -277.5t-224 -107.5t-223.5 107.5t-83.5 277.5zM528 1264q0 117 -45 187.5t-123 70.5t-122.5 -70.5t-44.5 -187.5t44.5 -187.5t122.5 -70.5t123 70.5t45 187.5z" />
    <glyph glyph-name="four.superior" unicode="&#x2074;" horiz-adv-x="653" 
d="M598 1161v-114h-88v-156h-129v156h-387l516 643v-529h88zM240 1161h141v176z" />
    <glyph glyph-name="five.superior" unicode="&#x2075;" horiz-adv-x="616" 
d="M565 1124q0 -105 -78.5 -175t-203.5 -70q-135 0 -236 75l25 121q40 -33 95.5 -55.5t104.5 -22.5q70 0 113 38t43 95q0 56 -43 93t-119 37q-94 0 -182 -46l20 422h431l-19 -120h-293l-14 -164q53 16 98 16q110 0 184 -70.5t74 -173.5z" />
    <glyph glyph-name="six.superior" unicode="&#x2076;" horiz-adv-x="653" 
d="M606 1137q0 -108 -81 -183t-197 -75q-120 0 -200.5 80t-80.5 200q0 144 109 282t286 214l70 -107q-194 -83 -289 -215q64 43 139 43q101 0 172.5 -69.5t71.5 -169.5zM469 1139q0 57 -41 96t-102 39t-102.5 -39t-41.5 -96t41.5 -96t102.5 -39t102 39t41 96z" />
    <glyph glyph-name="seven.superior" unicode="&#x2077;" horiz-adv-x="595" 
d="M49 1636h535l-303 -745h-148l254 612h-358z" />
    <glyph glyph-name="eight.superior" unicode="&#x2078;" horiz-adv-x="622" 
d="M578 1096q0 -92 -76.5 -154.5t-190.5 -62.5t-190 62.5t-76 154.5q0 57 33 103.5t90 72.5q-111 64 -111 170q0 89 72.5 148t181.5 59q108 0 180 -59t72 -148q0 -108 -108 -170q57 -26 90 -72.5t33 -103.5zM188 1430q0 -45 36 -76t89 -31t87 31t34 76q0 47 -35 77.5
t-86 30.5q-53 0 -89 -31.5t-36 -76.5zM442 1106q0 51 -37 83t-94 32t-94 -32t-37 -83q0 -50 37 -82.5t94 -32.5t94 32.5t37 82.5z" />
    <glyph glyph-name="nine.superior" unicode="&#x2079;" horiz-adv-x="653" 
d="M606 1368q0 -144 -109 -282t-286 -214l-70 107q194 83 289 215q-64 -43 -139 -43q-101 0 -172.5 70t-71.5 170q0 108 81.5 183t197.5 75q120 0 200 -80.5t80 -200.5zM328 1253q61 0 102 39.5t41 96.5t-41 96t-102 39t-102.5 -39t-41.5 -96t41.5 -96.5t102.5 -39.5z" />
    <glyph glyph-name="uni207A" unicode="&#x207a;" horiz-adv-x="624" 
d="M573 1305v-115h-200v-207h-121v207h-201v115h201v204h121v-204h200z" />
    <glyph glyph-name="uni207B" unicode="&#x207b;" horiz-adv-x="626" 
d="M51 1190v115h524v-115h-524z" />
    <glyph glyph-name="uni207C" unicode="&#x207c;" horiz-adv-x="604" 
d="M61 1260v100h484v-100h-484zM61 1104v102h484v-102h-484z" />
    <glyph glyph-name="uni207D" unicode="&#x207d;" horiz-adv-x="491" 
d="M102 1264q0 140 70 261.5t195 203.5l61 -95q-102 -66 -156.5 -161.5t-54.5 -208.5t54.5 -209t156.5 -162l-61 -94q-125 82 -195 203.5t-70 261.5z" />
    <glyph glyph-name="uni207E" unicode="&#x207e;" horiz-adv-x="491" 
d="M125 799l-62 94q102 66 156.5 162t54.5 209t-54.5 208.5t-156.5 161.5l62 95q125 -82 194.5 -203.5t69.5 -261.5t-69.5 -261.5t-194.5 -203.5z" />
    <glyph glyph-name="zero.inferior" unicode="&#x2080;" horiz-adv-x="720" 
d="M53 168q0 170 83.5 277.5t223.5 107.5t224 -107.5t84 -277.5t-84 -277.5t-224 -107.5t-223.5 107.5t-83.5 277.5zM528 168q0 117 -45 187.5t-123 70.5t-122.5 -70.5t-44.5 -187.5t44.5 -187.5t122.5 -70.5t123 70.5t45 187.5z" />
    <glyph glyph-name="one.inferior" unicode="&#x2081;" horiz-adv-x="407" 
d="M23 416l301 145v-766h-140v561l-141 -67z" />
    <glyph glyph-name="two.inferior" unicode="&#x2082;" horiz-adv-x="645" 
d="M399 0l-75 -78h247l-20 -127h-506l254 277q85 92 112 133t31 94q0 57 -37 92t-94 35t-93 -34.5t-36 -88.5q0 -37 21 -78l-135 -14q-21 65 -21 100q0 103 76 172.5t188 69.5q113 0 190 -71.5t77 -176.5q0 -74 -39 -135.5t-140 -169.5z" />
    <glyph glyph-name="three.inferior" unicode="&#x2083;" horiz-adv-x="614" 
d="M561 35q0 -111 -83 -181.5t-206 -70.5q-136 0 -235 90l51 109q78 -78 180 -78q65 0 109.5 39t44.5 96q0 58 -46 94.5t-120 36.5q-48 0 -100 -12l172 260h-267l19 123h469l-193 -279q89 -9 147 -73.5t58 -153.5z" />
    <glyph glyph-name="four.inferior" unicode="&#x2084;" horiz-adv-x="653" 
d="M598 66v-115h-88v-156h-129v156h-387l516 643v-528h88zM240 66h141v176z" />
    <glyph glyph-name="five.inferior" unicode="&#x2085;" horiz-adv-x="616" 
d="M565 29q0 -105 -78.5 -175.5t-203.5 -70.5q-134 0 -236 76l25 121q40 -33 95.5 -55.5t104.5 -22.5q70 0 113 38t43 95q0 56 -43 92.5t-119 36.5q-96 0 -182 -45l20 422h431l-19 -121h-293l-14 -164q53 16 98 16q110 0 184 -70t74 -173z" />
    <glyph glyph-name="six.inferior" unicode="&#x2086;" horiz-adv-x="653" 
d="M606 41q0 -108 -81 -183t-197 -75q-120 0 -200.5 80t-80.5 200q0 144 109 282t286 214l70 -106q-194 -83 -289 -215q64 43 139 43q101 0 172.5 -70t71.5 -170zM469 43q0 57 -41 96t-102 39t-102.5 -39t-41.5 -96t41.5 -96t102.5 -39t102 39t41 96z" />
    <glyph glyph-name="seven.inferior" unicode="&#x2087;" horiz-adv-x="595" 
d="M49 541h535l-303 -746h-148l254 613h-358z" />
    <glyph glyph-name="eight.inferior" unicode="&#x2088;" horiz-adv-x="622" 
d="M578 0q0 -92 -76.5 -154.5t-190.5 -62.5t-190 62.5t-76 154.5q0 57 33 103.5t90 72.5q-111 64 -111 170q0 89 72.5 148t181.5 59q108 0 180 -59t72 -148q0 -108 -108 -170q57 -26 90 -72.5t33 -103.5zM188 334q0 -45 36 -76t89 -31t87 31t34 76q0 47 -35 77.5t-86 30.5
q-53 0 -89 -31.5t-36 -76.5zM442 10q0 51 -37 83t-94 32t-94 -32t-37 -83q0 -50 37 -82t94 -32t94 32t37 82z" />
    <glyph glyph-name="nine.inferior" unicode="&#x2089;" horiz-adv-x="653" 
d="M606 272q0 -144 -109 -281.5t-286 -213.5l-70 106q194 83 289 215q-64 -43 -139 -43q-101 0 -172.5 70t-71.5 170q0 108 81.5 183t197.5 75q120 0 200 -80.5t80 -200.5zM328 158q61 0 102 39t41 96t-41 96t-102 39t-102.5 -39t-41.5 -96t41.5 -96t102.5 -39z" />
    <glyph glyph-name="uni208A" unicode="&#x208a;" horiz-adv-x="624" 
d="M573 209v-115h-200v-207h-121v207h-201v115h201v205h121v-205h200z" />
    <glyph glyph-name="uni208B" unicode="&#x208b;" horiz-adv-x="626" 
d="M51 94v115h524v-115h-524z" />
    <glyph glyph-name="uni208C" unicode="&#x208c;" horiz-adv-x="604" 
d="M61 164v100h484v-100h-484zM61 8v103h484v-103h-484z" />
    <glyph glyph-name="uni208D" unicode="&#x208d;" horiz-adv-x="491" 
d="M102 168q0 140 70 261.5t195 203.5l61 -94q-102 -66 -156.5 -162t-54.5 -209t54.5 -209t156.5 -162l-61 -94q-125 82 -195 203.5t-70 261.5z" />
    <glyph glyph-name="uni208E" unicode="&#x208e;" horiz-adv-x="491" 
d="M125 -297l-62 94q102 66 156.5 162t54.5 209t-54.5 209t-156.5 162l62 94q125 -82 194.5 -203.5t69.5 -261.5t-69.5 -261.5t-194.5 -203.5z" />
    <glyph glyph-name="Euro" unicode="&#x20ac;" horiz-adv-x="1460" 
d="M1288 252l33 -180q-180 -97 -381 -97q-253 0 -450.5 144t-268.5 373h-168l27 143h110q-4 70 -4 82q0 38 7 92h-138l25 143h143q74 224 272 365t449 141q183 0 359 -84l-33 -180q-153 94 -328 94q-169 0 -311 -93t-207 -243h799l-27 -143h-815q-6 -47 -6 -92q0 -41 6 -82
h782l-26 -143h-717q62 -156 205 -251.5t317 -95.5q178 0 346 107z" />
    <glyph glyph-name="uni20B9" unicode="&#x20b9;" horiz-adv-x="1028" 
d="M795 1063h192l-29 -162h-155q-15 -140 -119.5 -236.5t-263.5 -121.5l440 -543h-231l-529 674h183q134 0 218.5 60.5t108.5 166.5h-542l30 162h510q-27 98 -110 152.5t-211 54.5h-219l30 164h889l-29 -164h-299q101 -76 136 -207z" />
    <glyph glyph-name="uni20BA" unicode="&#x20ba;" horiz-adv-x="1318" 
d="M1034 717h193q3 -148 -55 -282t-158 -230t-240 -151.5t-295 -53.5h-123v582l-239 -103v170l239 103v145l-239 -102v168l239 102v369h183v-289l411 176v-168l-411 -176v-146l411 177v-170l-411 -176v-486q217 22 356 174t139 367z" />
    <glyph glyph-name="uni2113" unicode="&#x2113;" horiz-adv-x="798" 
d="M498 143q62 0 129 27v-152q-61 -28 -154 -28q-129 0 -203.5 75.5t-74.5 206.5v164q-64 -37 -123 -57l-49 127q87 38 172 92v592q0 119 69.5 193.5t181.5 74.5q110 0 181 -75t71 -216q0 -160 -90.5 -323.5t-245.5 -292.5v-264q0 -67 37 -105.5t99 -38.5zM362 1194v-449
q86 96 132.5 205.5t46.5 214.5q0 72 -24 108t-66 36q-39 0 -64 -32t-25 -83z" />
    <glyph glyph-name="uni2117" unicode="&#x2117;" horiz-adv-x="1701" 
d="M1589 717q3 -148 -56 -286t-159 -238.5t-238 -159.5t-286 -56q-148 -3 -285.5 56t-237.5 159.5t-158.5 238.5t-55.5 286q-3 148 55.5 286t158.5 238t237.5 159t285.5 56q148 3 286 -56t238 -159t159 -238t56 -286zM1458 717q3 162 -79 304t-223.5 225t-305.5 79
q-121 2 -234.5 -47t-196 -131.5t-131 -195.5t-46.5 -234q-2 -121 46.5 -234.5t131 -196t196 -131t234.5 -46.5q164 -4 305.5 79t223.5 225t79 304zM1200 825q0 -124 -88 -201t-231 -77h-107v-238h-145v797h252q141 0 230 -79.5t89 -201.5zM1051 825q0 69 -47 111.5
t-130 42.5h-100v-309h100q81 0 129 43.5t48 111.5z" />
    <glyph glyph-name="trademark" unicode="&#x2122;" horiz-adv-x="1734" 
d="M1628 666l-153 -2l-70 391l-229 -387l-224 389l-69 -393h-156l152 792l299 -502l299 502zM637 1434l29 -150h-232v-620h-166v620h-233l26 150h576z" />
    <glyph glyph-name="Omega" unicode="&#x2126;" horiz-adv-x="1601" 
d="M1081 174v-10h371v-164h-539v272q174 37 287 178.5t113 325.5q2 105 -38.5 201t-109.5 165.5t-165 110t-199 39.5q-103 1 -199 -39.5t-165 -110t-109.5 -165.5t-38.5 -201q0 -185 111.5 -326t287.5 -178v-272h-538v164h368v10q-184 64 -299 236t-115 376
q-2 107 32.5 209.5t99.5 186t151.5 147t193.5 97.5t220 32q140 3 270.5 -51t224.5 -145.5t149 -217t52 -258.5q0 -205 -115.5 -375.5t-300.5 -236.5z" />
    <glyph glyph-name="estimated" unicode="&#x212e;" horiz-adv-x="1650" 
d="M113 608q-2 126 49 246t142.5 212t228 147t292.5 53q152 1 274.5 -36t203.5 -99.5t136 -149t78.5 -180.5t22.5 -197h-1157q-8 0 -8 -8v-330q0 -38 12 -53q74 -89 186 -136.5t250 -47.5q136 0 247 49.5t218 150.5h127q-111 -133 -242.5 -190t-345.5 -57q-161 -2 -297.5 48
t-227.5 136.5t-141 201t-48 240.5zM383 643h885q10 0 10 10v336q0 23 -21 47q-82 93 -199.5 140t-238.5 47q-204 0 -428 -183q-16 -16 -16 -51v-336q0 -10 8 -10z" />
    <glyph glyph-name="uni2153" unicode="&#x2153;" horiz-adv-x="1622" 
d="M104 1307l302 145v-766h-140v561l-141 -67zM223 -18l-98 79l1124 1391l99 -80zM1487 240q0 -111 -83 -181.5t-206 -70.5q-136 0 -235 90l51 108q77 -77 180 -77q65 0 109.5 39t44.5 96q0 58 -46 94.5t-120 36.5q-44 0 -101 -13l172 261h-266l19 122h469l-193 -278
q89 -9 147 -73.5t58 -153.5z" />
    <glyph glyph-name="uni2154" unicode="&#x2154;" horiz-adv-x="1787" 
d="M481 891l-75 -78h247l-20 -127h-506l254 277q85 92 112 133t31 94q0 57 -37 92t-94 35t-93 -34.5t-36 -88.5q0 -38 21 -78l-135 -14q-21 65 -21 100q0 103 76 172.5t188 69.5q113 0 189.5 -71t76.5 -177q0 -74 -38.5 -136t-139.5 -169zM410 -18l-99 79l1125 1391l98 -80z
M1653 240q0 -111 -83 -181.5t-206 -70.5q-137 0 -236 90l52 108q77 -77 180 -77q65 0 109 39t44 96q0 58 -45.5 94.5t-119.5 36.5q-44 0 -101 -13l172 261h-266l18 122h469l-192 -278q89 -9 147 -73.5t58 -153.5z" />
    <glyph glyph-name="oneeighth" unicode="&#x215b;" horiz-adv-x="1611" 
d="M104 1307l302 145v-766h-140v561l-141 -67zM215 -18l-98 79l1124 1391l98 -80zM1485 205q0 -92 -76 -154.5t-190 -62.5t-190.5 62.5t-76.5 154.5q0 57 33 103.5t90 72.5q-110 63 -110 170q0 89 72.5 148t181.5 59q107 0 179 -59t72 -148q0 -108 -108 -170
q57 -26 90 -72.5t33 -103.5zM1096 539q0 -45 36 -76t89 -31t86.5 31t33.5 76q0 47 -34.5 77.5t-85.5 30.5q-53 0 -89 -31.5t-36 -76.5zM1350 215q0 51 -37 83t-94 32t-94.5 -32t-37.5 -83q0 -50 37.5 -82.5t94.5 -32.5t94 32.5t37 82.5z" />
    <glyph glyph-name="threeeighths" unicode="&#x215c;" horiz-adv-x="1746" 
d="M643 926q0 -111 -83 -181.5t-206 -70.5q-136 0 -235 90l51 108q77 -77 180 -77q65 0 109.5 39t44.5 96q0 58 -46 94.5t-120 36.5q-47 0 -100 -12l172 260h-267l19 123h469l-193 -279q89 -9 147 -73.5t58 -153.5zM350 -18l-98 79l1124 1391l99 -80zM1620 205
q0 -92 -76 -154.5t-190 -62.5t-190.5 62.5t-76.5 154.5q0 57 33 103.5t90 72.5q-110 63 -110 170q0 89 72.5 148t181.5 59q108 0 180 -59t72 -148q0 -107 -109 -170q57 -26 90 -72.5t33 -103.5zM1231 539q0 -45 36 -76t89 -31t87 31t34 76q0 47 -35 77.5t-86 30.5
q-53 0 -89 -31.5t-36 -76.5zM1485 215q0 51 -37 83t-94 32t-94 -32t-37 -83q0 -50 37 -82.5t94 -32.5t94 32.5t37 82.5z" />
    <glyph glyph-name="fiveeighths" unicode="&#x215d;" horiz-adv-x="1761" 
d="M647 920q0 -105 -78.5 -175.5t-203.5 -70.5q-134 0 -236 76l25 120q39 -33 94.5 -55t105.5 -22q70 0 113 38t43 95q0 56 -43 92.5t-119 36.5q-96 0 -182 -45l20 422h430l-18 -121h-293l-14 -164q53 16 98 16q110 0 184 -70t74 -173zM367 -18l-99 79l1125 1391l98 -80z
M1634 205q0 -92 -76 -154.5t-190 -62.5t-190 62.5t-76 154.5q0 57 33 103.5t90 72.5q-111 64 -111 170q0 89 72.5 148t181.5 59q108 0 180 -59t72 -148q0 -107 -109 -170q57 -26 90 -72.5t33 -103.5zM1245 539q0 -45 36 -76t89 -31t87 31t34 76q0 47 -35 77.5t-86 30.5
q-53 0 -89 -31.5t-36 -76.5zM1499 215q0 51 -37 83t-94 32t-94 -32t-37 -83q0 -50 37 -82.5t94 -32.5t94 32.5t37 82.5z" />
    <glyph glyph-name="seveneighths" unicode="&#x215e;" horiz-adv-x="1658" 
d="M131 1432h535l-304 -746h-147l254 612h-358zM268 -18l-98 79l1124 1391l99 -80zM1532 205q0 -92 -76 -154.5t-190 -62.5t-190.5 62.5t-76.5 154.5q0 57 33 103.5t90 72.5q-110 63 -110 170q0 89 72.5 148t181.5 59q108 0 180 -59t72 -148q0 -107 -109 -170
q57 -26 90 -72.5t33 -103.5zM1143 539q0 -45 36 -76t89 -31t87 31t34 76q0 47 -35 77.5t-86 30.5q-53 0 -89 -31.5t-36 -76.5zM1397 215q0 51 -37 83t-94 32t-94 -32t-37 -83q0 -50 37 -82.5t94 -32.5t94 32.5t37 82.5z" />
    <glyph glyph-name="arrowleft" unicode="&#x2190;" horiz-adv-x="1228" 
d="M575 233l-483 486l483 481l95 -94l-322 -322h762v-133h-762l322 -323z" />
    <glyph glyph-name="arrowup" unicode="&#x2191;" horiz-adv-x="1228" 
d="M131 756l485 483l482 -483l-94 -94l-322 321v-762h-133v762l-324 -321z" />
    <glyph glyph-name="arrowright" unicode="&#x2192;" horiz-adv-x="1228" 
d="M653 233l-94 95l322 323h-762v133h762l-322 322l94 94l484 -481z" />
    <glyph glyph-name="arrowdown" unicode="&#x2193;" horiz-adv-x="1228" 
d="M131 678l94 94l324 -321v761h133v-761l322 321l94 -94l-482 -483z" />
    <glyph glyph-name="uni2196" unicode="&#x2196;" horiz-adv-x="1228" 
d="M246 401l2 686l682 -2v-133h-455l539 -538l-94 -95l-539 539l-2 -457h-133z" />
    <glyph glyph-name="uni2197" unicode="&#x2197;" horiz-adv-x="1228" 
d="M983 401h-133l-2 457l-539 -539l-94 95l539 538h-455v133l682 2z" />
    <glyph glyph-name="uni2198" unicode="&#x2198;" horiz-adv-x="1228" 
d="M983 993l-2 -686l-682 2v133h455l-539 539l94 94l539 -538l2 456h133z" />
    <glyph glyph-name="uni2199" unicode="&#x2199;" horiz-adv-x="1228" 
d="M246 993h133l2 -456l539 538l94 -94l-539 -539h455v-133l-682 -2z" />
    <glyph glyph-name="partialdiff" unicode="&#x2202;" horiz-adv-x="1282" 
d="M1141 700q0 -180 -41.5 -320.5t-115 -227t-169.5 -131t-209 -44.5q-102 -2 -195 36t-158 103.5t-102.5 153.5t-35.5 183q0 197 138 331t337 134t362 -146q-12 245 -108 380.5t-264 135.5q-170 0 -377 -151l-31 178q195 145 408 145q264 0 412.5 -204.5t148.5 -555.5z
M950 584q-69 81 -157.5 126.5t-184.5 45.5q-133 0 -219 -86.5t-86 -214.5t87 -216.5t220 -88.5q143 0 231.5 108.5t108.5 325.5z" />
    <glyph glyph-name="increment" unicode="&#x2206;" horiz-adv-x="1390" 
d="M696 1485l662 -1485h-1325zM303 166h784l-391 917z" />
    <glyph glyph-name="product" unicode="&#x220f;" horiz-adv-x="1519" 
d="M170 -508v1942h1180v-1942h-183v1772h-815v-1772h-182z" />
    <glyph glyph-name="summation" unicode="&#x2211;" horiz-adv-x="1220" 
d="M1116 1434v-170h-792l581 -779l-581 -782h792v-170h-1014v154l582 798l-582 795v154h1014z" />
    <glyph glyph-name="minus" unicode="&#x2212;" horiz-adv-x="1054" 
d="M86 596v160h883v-160h-883z" />
    <glyph glyph-name="uni2215" unicode="&#x2215;" horiz-adv-x="1171" 
d="M43 0l897 1434h188l-899 -1434h-186z" />
    <glyph glyph-name="uni2219" unicode="&#x2219;" horiz-adv-x="557" 
d="M143 676q0 57 39.5 96t96.5 39t96 -39t39 -96t-39 -96t-96 -39t-96.5 39t-39.5 96z" />
    <glyph glyph-name="radical" unicode="&#x221a;" horiz-adv-x="1204" 
d="M993 1434h178l-450 -1434h-150l-319 649l-143 -71l-74 143l297 145l297 -622z" />
    <glyph glyph-name="infinity" unicode="&#x221e;" horiz-adv-x="1701" 
d="M1618 655q0 -139 -101.5 -235t-250.5 -96q-117 0 -211.5 57t-204.5 170q-114 -116 -208.5 -171.5t-205.5 -55.5q-149 0 -250.5 96t-101.5 235t101.5 235.5t252.5 96.5q116 0 210 -56.5t204 -170.5q112 115 207 171t207 56q149 0 250.5 -96.5t101.5 -235.5zM754 655
q-94 99 -165 144t-149 45q-88 0 -146 -54.5t-58 -134.5t57.5 -134t146.5 -54q78 0 149.5 45t164.5 143zM1466 655q0 80 -58.5 134.5t-145.5 54.5q-78 0 -149 -45.5t-163 -143.5q91 -97 163.5 -142.5t150.5 -45.5q86 0 144 54t58 134z" />
    <glyph glyph-name="integral" unicode="&#x222b;" horiz-adv-x="645" 
d="M37 -479v157q91 5 138.5 61.5t47.5 160.5v1228q0 172 94.5 266.5t264.5 94.5h24v-160h-22q-93 0 -141 -53.5t-48 -157.5v-1227q0 -170 -95.5 -268.5t-262.5 -101.5z" />
    <glyph glyph-name="approxequal" unicode="&#x2248;" horiz-adv-x="1034" 
d="M342 975q52 0 99 -15.5t114 -50.5q90 -47 139 -47q51 0 86 30t39 83h129q-6 -111 -74 -180.5t-182 -69.5q-53 0 -96 14.5t-119 51.5q-54 27 -82 37t-57 10q-51 0 -86.5 -30.5t-36.5 -82.5h-129q6 111 74 180.5t182 69.5zM342 586q52 0 99 -15.5t114 -50.5q54 -27 82 -37
t57 -10q51 0 86 30t39 83h129q-6 -111 -74 -180.5t-182 -69.5q-53 0 -97 14.5t-118 50.5q-56 28 -83 38t-56 10q-51 0 -86.5 -30.5t-36.5 -82.5h-129q6 111 74 180.5t182 69.5z" />
    <glyph glyph-name="notequal" unicode="&#x2260;" horiz-adv-x="1032" 
d="M948 774h-289l-114 -237h403v-152h-477l-106 -221l-142 63l76 158h-213v152h287l116 237h-403v152h477l107 221l139 -64l-76 -157h215v-152z" />
    <glyph glyph-name="lessequal" unicode="&#x2264;" horiz-adv-x="985" 
d="M891 1130v-176l-594 -280l594 -281v-176l-817 406v102zM74 0v152h817v-152h-817z" />
    <glyph glyph-name="greaterequal" unicode="&#x2265;" horiz-adv-x="985" 
d="M94 1130l817 -405v-102l-817 -406v176l594 281l-594 280v176zM94 0v152h817v-152h-817z" />
    <glyph glyph-name="uni2460" unicode="&#x2460;" horiz-adv-x="1701" 
d="M1589 717q3 -148 -56 -286t-159 -238.5t-238 -159.5t-286 -56q-148 -3 -285.5 56t-237.5 159.5t-158.5 238.5t-55.5 286q-3 148 55.5 286t158.5 238t237.5 159t285.5 56q148 3 286 -56t238 -159t159 -238t56 -286zM1458 717q3 162 -79 304t-223.5 225t-305.5 79
q-121 2 -234.5 -47t-196 -131.5t-131 -195.5t-46.5 -234q-2 -121 46.5 -234.5t131 -196t196 -131t234.5 -46.5q164 -4 305.5 79t223.5 225t79 304zM664 836l-21 127l301 145v-766h-139v561z" />
    <glyph glyph-name="uni2461" unicode="&#x2461;" horiz-adv-x="1701" 
d="M1589 717q3 -148 -56 -286t-159 -238.5t-238 -159.5t-286 -56q-148 -3 -285.5 56t-237.5 159.5t-158.5 238.5t-55.5 286q-3 148 55.5 286t158.5 238t237.5 159t285.5 56q148 3 286 -56t238 -159t159 -238t56 -286zM1458 717q3 162 -79 304t-223.5 225t-305.5 79
q-121 2 -234.5 -47t-196 -131.5t-131 -195.5t-46.5 -234q-2 -121 46.5 -234.5t131 -196t196 -131t234.5 -46.5q164 -4 305.5 79t223.5 225t79 304zM938 567l-76 -78h248l-20 -127h-506l254 277q85 92 112 133t31 94q0 57 -37 92t-94 35t-93 -34.5t-36 -88.5q0 -38 20 -77
l-135 -15q-20 62 -20 101q0 103 75.5 172t188.5 69t189.5 -71t76.5 -177q0 -74 -38.5 -136t-139.5 -169z" />
    <glyph glyph-name="uni2462" unicode="&#x2462;" horiz-adv-x="1701" 
d="M1589 717q3 -148 -56 -286t-159 -238.5t-238 -159.5t-286 -56q-148 -3 -285.5 56t-237.5 159.5t-158.5 238.5t-55.5 286q-3 148 55.5 286t158.5 238t237.5 159t285.5 56q148 3 286 -56t238 -159t159 -238t56 -286zM1458 717q3 162 -79 304t-223.5 225t-305.5 79
q-121 2 -234.5 -47t-196 -131.5t-131 -195.5t-46.5 -234q-2 -121 46.5 -234.5t131 -196t196 -131t234.5 -46.5q164 -4 305.5 79t223.5 225t79 304zM1120 575q0 -111 -83 -181t-206 -70q-136 0 -235 90l51 108q78 -78 180 -78q65 0 109.5 39.5t44.5 96.5q0 58 -46 94.5
t-120 36.5q-43 0 -100 -13l172 260h-266l18 123h469l-193 -278q89 -9 147 -74t58 -154z" />
    <glyph glyph-name="uni2463" unicode="&#x2463;" horiz-adv-x="1701" 
d="M1589 717q3 -148 -56 -286t-159 -238.5t-238 -159.5t-286 -56q-148 -3 -285.5 56t-237.5 159.5t-158.5 238.5t-55.5 286q-3 148 55.5 286t158.5 238t237.5 159t285.5 56q148 3 286 -56t238 -159t159 -238t56 -286zM1458 717q3 162 -79 304t-223.5 225t-305.5 79
q-121 2 -234.5 -47t-196 -131.5t-131 -195.5t-46.5 -234q-2 -121 46.5 -234.5t131 -196t196 -131t234.5 -46.5q164 -4 305.5 79t223.5 225t79 304zM1006 1155v-528h88v-115h-88v-156h-129v156h-388zM735 627h142v176z" />
    <glyph glyph-name="uni2464" unicode="&#x2464;" horiz-adv-x="1701" 
d="M1589 717q3 -148 -56 -286t-159 -238.5t-238 -159.5t-286 -56q-148 -3 -285.5 56t-237.5 159.5t-158.5 238.5t-55.5 286q-3 148 55.5 286t158.5 238t237.5 159t285.5 56q148 3 286 -56t238 -159t159 -238t56 -286zM1458 717q3 162 -79 304t-223.5 225t-305.5 79
q-121 2 -234.5 -47t-196 -131.5t-131 -195.5t-46.5 -234q-2 -121 46.5 -234.5t131 -196t196 -131t234.5 -46.5q164 -4 305.5 79t223.5 225t79 304zM1114 573q0 -105 -79 -175t-204 -70q-134 0 -235 75l25 121q40 -33 95.5 -55.5t104.5 -22.5q70 0 113 38.5t43 95.5
q0 56 -43 92.5t-119 36.5q-96 0 -182 -45l20 421h430l-18 -120h-293l-14 -164q53 16 98 16q110 0 184 -70.5t74 -173.5z" />
    <glyph glyph-name="uni2465" unicode="&#x2465;" horiz-adv-x="1701" 
d="M1589 717q3 -148 -56 -286t-159 -238.5t-238 -159.5t-286 -56q-148 -3 -285.5 56t-237.5 159.5t-158.5 238.5t-55.5 286q-3 148 55.5 286t158.5 238t237.5 159t285.5 56q148 3 286 -56t238 -159t159 -238t56 -286zM1458 717q3 162 -79 304t-223.5 225t-305.5 79
q-121 2 -234.5 -47t-196 -131.5t-131 -195.5t-46.5 -234q-2 -121 46.5 -234.5t131 -196t196 -131t234.5 -46.5q164 -4 305.5 79t223.5 225t79 304zM1116 598q0 -108 -81 -183t-197 -75q-120 0 -200.5 80.5t-80.5 200.5q0 144 109 281.5t286 213.5l70 -106
q-194 -83 -289 -215q64 43 139 43q101 0 172.5 -70t71.5 -170zM979 600q0 57 -41 96t-102 39t-102.5 -39t-41.5 -96t41.5 -96t102.5 -39t102 39t41 96z" />
    <glyph glyph-name="uni2466" unicode="&#x2466;" horiz-adv-x="1701" 
d="M1589 717q3 -148 -56 -286t-159 -238.5t-238 -159.5t-286 -56q-148 -3 -285.5 56t-237.5 159.5t-158.5 238.5t-55.5 286q-3 148 55.5 286t158.5 238t237.5 159t285.5 56q148 3 286 -56t238 -159t159 -238t56 -286zM1458 717q3 162 -79 304t-223.5 225t-305.5 79
q-121 2 -234.5 -47t-196 -131.5t-131 -195.5t-46.5 -234q-2 -121 46.5 -234.5t131 -196t196 -131t234.5 -46.5q164 -4 305.5 79t223.5 225t79 304zM586 930l20 133h535l-303 -746h-148l254 613h-358z" />
    <glyph glyph-name="uni2467" unicode="&#x2467;" horiz-adv-x="1701" 
d="M1589 717q3 -148 -56 -286t-159 -238.5t-238 -159.5t-286 -56q-148 -3 -285.5 56t-237.5 159.5t-158.5 238.5t-55.5 286q-3 148 55.5 286t158.5 238t237.5 159t285.5 56q148 3 286 -56t238 -159t159 -238t56 -286zM1458 717q3 162 -79 304t-223.5 225t-305.5 79
q-121 2 -234.5 -47t-196 -131.5t-131 -195.5t-46.5 -234q-2 -121 46.5 -234.5t131 -196t196 -131t234.5 -46.5q164 -4 305.5 79t223.5 225t79 304zM1116 555q0 -92 -76 -154.5t-190 -62.5t-190 62.5t-76 154.5q0 57 33 103.5t90 72.5q-111 64 -111 170q0 89 72.5 148
t181.5 59q108 0 180 -59t72 -148q0 -107 -109 -170q57 -26 90 -72.5t33 -103.5zM727 889q0 -45 36 -76t89 -31t87 31t34 76q0 47 -35 77.5t-86 30.5q-53 0 -89 -31.5t-36 -76.5zM981 565q0 51 -37 83t-94 32t-94 -32t-37 -83q0 -50 37 -82t94 -32t94 32t37 82z" />
    <glyph glyph-name="uni2468" unicode="&#x2468;" horiz-adv-x="1701" 
d="M1589 717q3 -148 -56 -286t-159 -238.5t-238 -159.5t-286 -56q-148 -3 -285.5 56t-237.5 159.5t-158.5 238.5t-55.5 286q-3 148 55.5 286t158.5 238t237.5 159t285.5 56q148 3 286 -56t238 -159t159 -238t56 -286zM1458 717q3 162 -79 304t-223.5 225t-305.5 79
q-121 2 -234.5 -47t-196 -131.5t-131 -195.5t-46.5 -234q-2 -121 46.5 -234.5t131 -196t196 -131t234.5 -46.5q164 -4 305.5 79t223.5 225t79 304zM1135 819q0 -143 -109.5 -281t-286.5 -214l-69 106q193 82 288 215q-64 -43 -139 -43q-101 0 -172.5 70t-71.5 170
q0 108 81.5 183t197.5 75q120 0 200.5 -80.5t80.5 -200.5zM856 705q61 0 102 39t41 96t-41 96t-102 39t-102 -39t-41 -96t41 -96t102 -39z" />
    <glyph glyph-name="uni24EA" unicode="&#x24ea;" horiz-adv-x="1701" 
d="M113 717q-3 148 55.5 286t158.5 238t237.5 159t285.5 56q148 3 286 -56t238 -159t159 -238t56 -286q3 -148 -56 -286t-159 -238.5t-238 -159.5t-286 -56q-148 -3 -285.5 56t-237.5 159.5t-158.5 238.5t-55.5 286zM1458 717q3 162 -79 304t-223.5 225t-305.5 79
q-121 2 -234.5 -47t-196 -131.5t-131 -195.5t-46.5 -234q-2 -121 46.5 -234.5t131 -196t196 -131t234.5 -46.5q164 -4 305.5 79t223.5 225t79 304zM543 723q0 170 83.5 277.5t223.5 107.5t223.5 -107.5t83.5 -277.5t-83.5 -277.5t-223.5 -107.5t-223.5 107.5t-83.5 277.5z
M1018 723q0 117 -45 187.5t-123 70.5t-123 -70.5t-45 -187.5t45 -187.5t123 -70.5t123 70.5t45 187.5z" />
    <glyph glyph-name="lozenge" unicode="&#x25ca;" horiz-adv-x="1148" 
d="M649 1479l381 -762l-381 -762h-149l-379 762l379 762h149zM575 166l261 551l-261 551l-262 -551z" />
    <glyph glyph-name="uniF8FF" unicode="&#xf8ff;" horiz-adv-x="1392" 
d="M1217 1473v-1473h-1041v1473h1041zM985 1327h-577l288 -473zM330 1221v-969l295 485zM768 737l295 -485v969zM408 145h577l-289 473z" />
    <glyph glyph-name="uniFEFF" unicode="&#xfeff;" 
 />
    <glyph glyph-name="A.c2sc" horiz-adv-x="1048" 
d="M838 0l-115 258h-397l-115 -258h-186l499 1049l500 -1049h-186zM393 410h262l-131 295z" />
    <glyph glyph-name="Aacute.c2sc" horiz-adv-x="1048" 
d="M838 0l-115 258h-397l-115 -258h-186l499 1049l500 -1049h-186zM393 410h262l-131 295zM365 1161l-74 129l420 256l88 -145z" />
    <glyph glyph-name="Abreve.c2sc" horiz-adv-x="1048" 
d="M838 0l-115 258h-397l-115 -258h-186l499 1049l500 -1049h-186zM393 410h262l-131 295zM209 1499h141q0 -75 49.5 -124.5t124.5 -49.5t124.5 49.5t49.5 124.5h142q0 -133 -91 -223t-225 -90t-224.5 90t-90.5 223z" />
    <glyph glyph-name="Acircumflex.c2sc" horiz-adv-x="1048" 
d="M838 0l-115 258h-397l-115 -258h-186l499 1049l500 -1049h-186zM393 410h262l-131 295zM844 1260l-90 -103l-230 197l-229 -197l-90 103l319 288z" />
    <glyph glyph-name="Adieresis.c2sc" horiz-adv-x="1048" 
d="M838 0l-115 258h-397l-115 -258h-186l499 1049l500 -1049h-186zM393 410h262l-131 295zM223 1335q0 44 32.5 75.5t76.5 31.5t76 -31.5t32 -75.5t-32 -76t-76 -32t-76.5 32t-32.5 76zM608 1335q0 44 32.5 75.5t76.5 31.5t76 -31.5t32 -75.5t-32 -76t-76 -32
q-47 0 -78 31.5t-31 76.5z" />
    <glyph glyph-name="Adieresis.c2sc.ss08" horiz-adv-x="1048" 
d="M838 0l-115 258h-397l-115 -258h-186l499 1049l500 -1049h-186zM393 410h262l-131 295zM332 1206l-129 129l129 127l131 -127zM717 1206l-131 129l131 127l129 -127z" />
    <glyph glyph-name="Adieresis.ss08" horiz-adv-x="1390" 
d="M1159 0l-196 459h-535l-197 -459h-198l663 1485l662 -1485h-199zM498 623h395l-197 460zM446 1593l-145 146l145 143l148 -143zM946 1593l-147 146l147 143l146 -143z" />
    <glyph glyph-name="Agrave.c2sc" horiz-adv-x="1048" 
d="M838 0l-115 258h-397l-115 -258h-186l499 1049l500 -1049h-186zM393 410h262l-131 295zM705 1161l-435 240l88 145l420 -256z" />
    <glyph glyph-name="Amacron.c2sc" horiz-adv-x="1048" 
d="M838 0l-115 258h-397l-115 -258h-186l499 1049l500 -1049h-186zM393 410h262l-131 295zM231 1286v146h586v-146h-586z" />
    <glyph glyph-name="Aogonek.c2sc" horiz-adv-x="1048" 
d="M977 -219q20 0 47 6v-125q-45 -10 -78 -10q-79 0 -131.5 51.5t-52.5 126.5q0 93 86 170h-10l-115 258h-397l-115 -258h-186l499 1049l500 -1049q-121 -77 -121 -150q0 -31 21 -50t53 -19zM393 410h262l-131 295z" />
    <glyph glyph-name="Aring.c2sc" horiz-adv-x="1048" 
d="M838 0l-115 258h-397l-115 -258h-186l499 1049l500 -1049h-186zM393 410h262l-131 295zM287 1378q0 94 69.5 161t167.5 67t168 -67t70 -161q0 -95 -70 -162t-168 -67t-167.5 67t-69.5 162zM645 1378q0 51 -35 85t-86 34t-86 -34t-35 -85t35 -86t86 -35t86 35t35 86z" />
    <glyph glyph-name="Atilde.c2sc" horiz-adv-x="1048" 
d="M838 0l-115 258h-397l-115 -258h-186l499 1049l500 -1049h-186zM393 410h262l-131 295zM498 1290q-62 41 -105 41q-37 0 -59.5 -24t-24.5 -62h-125q0 102 58 163.5t151 61.5q41 0 72.5 -11.5t85.5 -41.5q62 -41 104 -41q37 0 59.5 24.5t24.5 63.5h125q0 -102 -58 -164.5
t-151 -62.5q-41 0 -72 11.5t-85 41.5z" />
    <glyph glyph-name="AE.c2sc" horiz-adv-x="1411" 
d="M838 156h499l-26 -156h-645v266h-334l-115 -266h-190l467 1010h796l29 -156h-481v-262h389v-156h-389v-280zM397 416h269v442h-76z" />
    <glyph glyph-name="AE.c2sc.ss10" horiz-adv-x="1406" 
d="M834 156h499v-156h-671v266h-334l-115 -266h-188l464 1010h838l-29 -156h-464v-262h415l-28 -156h-387v-280zM393 416h269v442h-76z" />
    <glyph glyph-name="AE.ss10" horiz-adv-x="1826" 
d="M1083 172h625v-172h-807v481h-432l-233 -481h-203l708 1434h955l-31 -172h-582v-439h523l-31 -172h-492v-479zM551 649h350v613h-51z" />
    <glyph glyph-name="B.c2sc" horiz-adv-x="974" 
d="M872 274q0 -121 -95 -197.5t-245 -76.5h-374v1010h362q143 0 236.5 -75.5t93.5 -193.5q0 -77 -41 -135.5t-115 -91.5q85 -31 131.5 -93.5t46.5 -146.5zM506 862h-174v-280h174q73 0 120.5 39.5t47.5 101.5q0 61 -47 100t-121 39zM692 291q0 65 -48 105t-124 40h-188v-289
h188q75 0 123.5 40.5t48.5 103.5z" />
    <glyph glyph-name="C.c2sc" horiz-adv-x="985" 
d="M80 506q-3 144 71 266.5t203 192.5t281 67q149 0 260 -63l-31 -166q-107 63 -227 63q-161 0 -269 -103t-108 -257q0 -155 108 -259t267 -104q118 0 244 72l30 -168q-131 -70 -278 -70q-152 0 -278.5 70t-199.5 191.5t-73 267.5z" />
    <glyph glyph-name="Cacute.c2sc" horiz-adv-x="985" 
d="M80 506q-3 144 71 266.5t203 192.5t281 67q149 0 260 -63l-31 -166q-107 63 -227 63q-161 0 -269 -103t-108 -257q0 -155 108 -259t267 -104q118 0 244 72l30 -168q-131 -70 -278 -70q-152 0 -278.5 70t-199.5 191.5t-73 267.5zM414 1161l-74 129l420 256l88 -145z" />
    <glyph glyph-name="Ccaron.c2sc" horiz-adv-x="985" 
d="M80 506q-3 144 71 266.5t203 192.5t281 67q149 0 260 -63l-31 -166q-107 63 -227 63q-161 0 -269 -103t-108 -257q0 -155 108 -259t267 -104q118 0 244 72l30 -168q-131 -70 -278 -70q-152 0 -278.5 70t-199.5 191.5t-73 267.5zM805 1546l90 -102l-320 -289l-319 289
l90 102l229 -196z" />
    <glyph glyph-name="Ccedilla.c2sc" horiz-adv-x="985" 
d="M633 -23l-195 -354l-159 103l208 268q-179 43 -293 185t-114 327q-3 144 71 266.5t203 192.5t281 67q149 0 260 -63l-31 -166q-107 63 -227 63q-161 0 -269 -103t-108 -257q0 -155 108 -259t267 -104q118 0 244 72l30 -168q-131 -70 -276 -70z" />
    <glyph glyph-name="Ccircumflex.c2sc" horiz-adv-x="985" 
d="M80 506q-3 144 71 266.5t203 192.5t281 67q149 0 260 -63l-31 -166q-107 63 -227 63q-161 0 -269 -103t-108 -257q0 -155 108 -259t267 -104q118 0 244 72l30 -168q-131 -70 -278 -70q-152 0 -278.5 70t-199.5 191.5t-73 267.5zM893 1260l-90 -103l-230 197l-229 -197
l-90 103l319 288z" />
    <glyph glyph-name="Cdotaccent.c2sc" horiz-adv-x="985" 
d="M80 506q-3 144 71 266.5t203 192.5t281 67q149 0 260 -63l-31 -166q-107 63 -227 63q-161 0 -269 -103t-108 -257q0 -155 108 -259t267 -104q118 0 244 72l30 -168q-131 -70 -278 -70q-152 0 -278.5 70t-199.5 191.5t-73 267.5zM457 1354q0 48 33.5 81t82.5 33t83 -33.5
t34 -80.5q0 -50 -34 -83.5t-83 -33.5t-82.5 33.5t-33.5 83.5z" />
    <glyph glyph-name="Cdotaccent.c2sc.ss08" horiz-adv-x="985" 
d="M80 506q-3 144 71 266.5t203 192.5t281 67q149 0 260 -63l-31 -166q-107 63 -227 63q-161 0 -269 -103t-108 -257q0 -155 108 -259t267 -104q118 0 244 72l30 -168q-131 -70 -278 -70q-152 0 -278.5 70t-199.5 191.5t-73 267.5zM573 1212l-143 142l143 141l144 -141z" />
    <glyph glyph-name="Cdotaccent.ss08" horiz-adv-x="1380" 
d="M113 717q-2 150 57.5 288.5t161.5 238.5t243 158.5t295 55.5q200 0 369 -88l-33 -186q-156 100 -338 100q-150 3 -281.5 -74t-208.5 -209.5t-73 -283.5q-3 -152 73 -284t207 -209t283 -74q186 0 357 112l32 -186q-180 -101 -391 -101q-153 -3 -294 55.5t-242 159
t-160.5 239t-56.5 288.5zM825 1612l-157 155l157 156l158 -156z" />
    <glyph glyph-name="D.c2sc" horiz-adv-x="1097" 
d="M158 0v1010h334q144 3 266.5 -64t193 -184.5t68.5 -255.5q0 -140 -69.5 -256.5t-191 -183t-267.5 -66.5h-334zM334 160h153q148 0 249.5 99.5t101.5 246.5q0 146 -101.5 245t-249.5 99h-153v-690z" />
    <glyph glyph-name="Eth.c2sc" horiz-adv-x="1097" 
d="M1020 506q0 -140 -69.5 -256.5t-191 -183t-267.5 -66.5h-334v434h-97v146h97v430h334q144 3 266.5 -64t193 -184.5t68.5 -255.5zM838 506q0 146 -101.5 245t-249.5 99h-153v-270h241v-146h-241v-274h153q148 0 249.5 99.5t101.5 246.5z" />
    <glyph glyph-name="Dcaron.c2sc" horiz-adv-x="1097" 
d="M158 0v1010h334q144 3 266.5 -64t193 -184.5t68.5 -255.5q0 -140 -69.5 -256.5t-191 -183t-267.5 -66.5h-334zM334 160h153q148 0 249.5 99.5t101.5 246.5q0 146 -101.5 245t-249.5 99h-153v-690zM770 1546l90 -102l-319 -289l-320 289l90 102l230 -196z" />
    <glyph glyph-name="Dcroat.c2sc" horiz-adv-x="1097" 
d="M1020 506q0 -140 -69.5 -256.5t-191 -183t-267.5 -66.5h-334v434h-97v146h97v430h334q144 3 266.5 -64t193 -184.5t68.5 -255.5zM838 506q0 146 -101.5 245t-249.5 99h-153v-270h241v-146h-241v-274h153q148 0 249.5 99.5t101.5 246.5z" />
    <glyph glyph-name="E.c2sc" horiz-adv-x="903" 
d="M330 156h499l-26 -156h-645v1010h624l29 -156h-481v-262h389v-156h-389v-280z" />
    <glyph glyph-name="E.c2sc.ss10" horiz-adv-x="903" 
d="M330 156h499v-156h-671v1010h665l-28 -156h-465v-262h415l-28 -156h-387v-280z" />
    <glyph glyph-name="E.ss10" horiz-adv-x="1099" 
d="M356 172h625v-172h-807v1434h795l-31 -172h-582v-439h523l-31 -172h-492v-479z" />
    <glyph glyph-name="Eacute.c2sc" horiz-adv-x="903" 
d="M330 156h499l-26 -156h-645v1010h624l29 -156h-481v-262h389v-156h-389v-280zM309 1161l-73 129l419 256l88 -145z" />
    <glyph glyph-name="Eacute.c2sc.ss10" horiz-adv-x="903" 
d="M330 156h499v-156h-671v1010h665l-28 -156h-465v-262h415l-28 -156h-387v-280zM311 1161l-73 129l419 256l88 -145z" />
    <glyph glyph-name="Eacute.ss10" horiz-adv-x="1099" 
d="M356 172h625v-172h-807v1434h795l-31 -172h-582v-439h523l-31 -172h-492v-479zM389 1575l-61 135l483 236l74 -154z" />
    <glyph glyph-name="Ebreve.c2sc" horiz-adv-x="903" 
d="M330 156h499l-26 -156h-645v1010h624l29 -156h-481v-262h389v-156h-389v-280zM154 1499h141q0 -75 49.5 -124.5t124.5 -49.5t124.5 49.5t49.5 124.5h141q0 -133 -90.5 -223t-224.5 -90t-224.5 90t-90.5 223z" />
    <glyph glyph-name="Ebreve.c2sc.ss10" horiz-adv-x="903" 
d="M330 156h499v-156h-671v1010h665l-28 -156h-465v-262h415l-28 -156h-387v-280zM156 1499h141q0 -75 49.5 -124.5t124.5 -49.5t124.5 49.5t49.5 124.5h141q0 -133 -90.5 -223t-224.5 -90t-224.5 90t-90.5 223z" />
    <glyph glyph-name="Ebreve.ss10" horiz-adv-x="1099" 
d="M356 172h625v-172h-807v1434h795l-31 -172h-582v-439h523l-31 -172h-492v-479zM231 1884h142q0 -74 54.5 -125t135.5 -51t136 51t55 125h141q0 -133 -96.5 -224t-235.5 -91t-235.5 91t-96.5 224z" />
    <glyph glyph-name="Ecaron.c2sc" horiz-adv-x="903" 
d="M330 156h499l-26 -156h-645v1010h624l29 -156h-481v-262h389v-156h-389v-280zM700 1546l91 -102l-320 -289l-319 289l90 102l229 -196z" />
    <glyph glyph-name="Ecaron.c2sc.ss10" horiz-adv-x="903" 
d="M330 156h499v-156h-671v1010h665l-28 -156h-465v-262h415l-28 -156h-387v-280zM702 1546l91 -102l-320 -289l-319 289l90 102l229 -196z" />
    <glyph glyph-name="Ecaron.ss10" horiz-adv-x="1099" 
d="M356 172h625v-172h-807v1434h795l-31 -172h-582v-439h523l-31 -172h-492v-479zM793 1942l90 -101l-320 -291l-319 291l90 101l229 -197z" />
    <glyph glyph-name="Ecircumflex.c2sc" horiz-adv-x="903" 
d="M330 156h499l-26 -156h-645v1010h624l29 -156h-481v-262h389v-156h-389v-280zM788 1260l-90 -103l-229 197l-229 -197l-90 103l319 288z" />
    <glyph glyph-name="Ecircumflex.c2sc.ss10" horiz-adv-x="903" 
d="M330 156h499v-156h-671v1010h665l-28 -156h-465v-262h415l-28 -156h-387v-280zM791 1260l-91 -103l-229 197l-229 -197l-90 103l319 288z" />
    <glyph glyph-name="Ecircumflex.ss10" horiz-adv-x="1099" 
d="M356 172h625v-172h-807v1434h795l-31 -172h-582v-439h523l-31 -172h-492v-479zM883 1667l-90 -100l-230 196l-229 -196l-90 100l319 291z" />
    <glyph glyph-name="Edieresis.c2sc" horiz-adv-x="903" 
d="M330 156h499l-26 -156h-645v1010h624l29 -156h-481v-262h389v-156h-389v-280zM168 1335q0 44 32 75.5t76 31.5t76.5 -31.5t32.5 -75.5t-32.5 -76t-76.5 -32t-76 32t-32 76zM553 1335q0 44 32.5 75.5t76.5 31.5t76 -31.5t32 -75.5t-32 -76t-76 -32q-47 0 -78 31.5
t-31 76.5z" />
    <glyph glyph-name="Edieresis.c2sc.ss08" horiz-adv-x="903" 
d="M330 156h499l-26 -156h-645v1010h624l29 -156h-481v-262h389v-156h-389v-280zM276 1206l-129 129l129 127l132 -127zM662 1206l-132 129l132 127l129 -127z" />
    <glyph glyph-name="Edieresis.c2sc.ss08.ss10" horiz-adv-x="903" 
d="M330 156h499v-156h-671v1010h665l-28 -156h-465v-262h415l-28 -156h-387v-280zM279 1206l-129 129l129 127l131 -127zM664 1206l-132 129l132 127l129 -127z" />
    <glyph glyph-name="Edieresis.c2sc.ss10" horiz-adv-x="903" 
d="M330 156h499v-156h-671v1010h665l-28 -156h-465v-262h415l-28 -156h-387v-280zM170 1335q0 44 32.5 75.5t76.5 31.5t76 -31.5t32 -75.5t-32 -76t-76 -32t-76.5 32t-32.5 76zM555 1335q0 44 32.5 75.5t76.5 31.5t76 -31.5t32 -75.5t-32 -76t-76 -32q-47 0 -78 31.5
t-31 76.5z" />
    <glyph glyph-name="Edieresis.ss08" horiz-adv-x="1099" 
d="M356 172h637l-32 -172h-787v1434h760l31 -172h-609v-439h504v-172h-504v-479zM322 1593l-146 146l146 143l147 -143zM821 1593l-147 146l147 143l146 -143z" />
    <glyph glyph-name="Edieresis.ss08.ss10" horiz-adv-x="1099" 
d="M356 172h625v-172h-807v1434h795l-31 -172h-582v-439h523l-31 -172h-492v-479zM313 1593l-145 146l145 143l148 -143zM813 1593l-147 146l147 143l145 -143z" />
    <glyph glyph-name="Edieresis.ss10" horiz-adv-x="1099" 
d="M356 172h625v-172h-807v1434h795l-31 -172h-582v-439h523l-31 -172h-492v-479zM190 1739q0 51 36 86t87 35q54 0 89.5 -35t35.5 -86t-36 -87t-89 -36t-88 35.5t-35 87.5zM688 1739q0 51 35.5 86t89.5 35q51 0 87 -35t36 -86t-36 -87t-87 -36q-53 0 -89 36t-36 87z" />
    <glyph glyph-name="Edotaccent.c2sc" horiz-adv-x="903" 
d="M330 156h499l-26 -156h-645v1010h624l29 -156h-481v-262h389v-156h-389v-280zM352 1354q0 47 34 80.5t83 33.5t83 -33.5t34 -80.5q0 -50 -34 -83.5t-83 -33.5t-83 33.5t-34 83.5z" />
    <glyph glyph-name="Edotaccent.c2sc.ss08" horiz-adv-x="903" 
d="M330 156h499l-26 -156h-645v1010h624l29 -156h-481v-262h389v-156h-389v-280zM469 1212l-143 142l143 141l143 -141z" />
    <glyph glyph-name="Edotaccent.c2sc.ss08.ss10" horiz-adv-x="903" 
d="M330 156h499v-156h-671v1010h665l-28 -156h-465v-262h415l-28 -156h-387v-280zM471 1212l-143 142l143 141l143 -141z" />
    <glyph glyph-name="Edotaccent.c2sc.ss10" horiz-adv-x="903" 
d="M330 156h499v-156h-671v1010h665l-28 -156h-465v-262h415l-28 -156h-387v-280zM354 1354q0 47 34 80.5t83 33.5t83 -33.5t34 -80.5q0 -50 -34 -83.5t-83 -33.5t-83 33.5t-34 83.5z" />
    <glyph glyph-name="Edotaccent.ss08" horiz-adv-x="1099" 
d="M356 172h637l-32 -172h-787v1434h760l31 -172h-609v-439h504v-172h-504v-479zM571 1612l-157 155l157 156l158 -156z" />
    <glyph glyph-name="Edotaccent.ss08.ss10" horiz-adv-x="1099" 
d="M356 172h625v-172h-807v1434h795l-31 -172h-582v-439h523l-31 -172h-492v-479zM563 1612l-157 155l157 156l158 -156z" />
    <glyph glyph-name="Edotaccent.ss10" horiz-adv-x="1099" 
d="M356 172h625v-172h-807v1434h795l-31 -172h-582v-439h523l-31 -172h-492v-479zM436 1767q0 54 36.5 89.5t90.5 35.5t90.5 -35.5t36.5 -89.5t-36.5 -90.5t-90.5 -36.5t-90.5 36.5t-36.5 90.5z" />
    <glyph glyph-name="Egrave.c2sc" horiz-adv-x="903" 
d="M330 156h499l-26 -156h-645v1010h624l29 -156h-481v-262h389v-156h-389v-280zM649 1161l-434 240l88 145l420 -256z" />
    <glyph glyph-name="Egrave.c2sc.ss10" horiz-adv-x="903" 
d="M330 156h499v-156h-671v1010h665l-28 -156h-465v-262h415l-28 -156h-387v-280zM651 1161l-434 240l88 145l420 -256z" />
    <glyph glyph-name="Egrave.ss10" horiz-adv-x="1099" 
d="M356 172h625v-172h-807v1434h795l-31 -172h-582v-439h523l-31 -172h-492v-479zM737 1575l-495 217l73 154l484 -236z" />
    <glyph glyph-name="Emacron.c2sc" horiz-adv-x="903" 
d="M330 156h499l-26 -156h-645v1010h624l29 -156h-481v-262h389v-156h-389v-280zM176 1286v146h586v-146h-586z" />
    <glyph glyph-name="Emacron.c2sc.ss10" horiz-adv-x="903" 
d="M330 156h499v-156h-671v1010h665l-28 -156h-465v-262h415l-28 -156h-387v-280zM178 1286v146h586v-146h-586z" />
    <glyph glyph-name="Emacron.ss10" horiz-adv-x="1099" 
d="M356 172h625v-172h-807v1434h795l-31 -172h-582v-439h523l-31 -172h-492v-479zM250 1690v145h627v-145h-627z" />
    <glyph glyph-name="Eogonek.c2sc" horiz-adv-x="903" 
d="M330 156h499l-26 -156h-2q-121 -77 -121 -150q0 -31 21 -50t53 -19q20 0 47 6v-125q-45 -10 -78 -10q-79 0 -131.5 51.5t-52.5 126.5q0 93 86 170h-467v1010h624l29 -156h-481v-262h389v-156h-389v-280z" />
    <glyph glyph-name="Eogonek.c2sc.ss10" horiz-adv-x="903" 
d="M709 -150q0 -31 20.5 -50t52.5 -19q20 0 47 6v-125q-45 -10 -77 -10q-79 0 -132 51.5t-53 126.5q0 93 86 170h-495v1010h665l-28 -156h-465v-262h415l-28 -156h-387v-280h499v-156q-120 -76 -120 -150z" />
    <glyph glyph-name="Eogonek.ss10" horiz-adv-x="1099" 
d="M850 -162q0 -33 22 -54.5t58 -21.5q16 0 51 7v-136q-52 -10 -86 -10q-85 0 -142 56.5t-57 136.5q0 101 92 184h-614v1434h795l-31 -172h-582v-439h523l-31 -172h-492v-479h625v-172q-131 -81 -131 -162z" />
    <glyph glyph-name="F.c2sc" horiz-adv-x="858" 
d="M334 852v-295h352v-158h-352v-399h-176v1010h600l28 -158h-452z" />
    <glyph glyph-name="F.c2sc.ss10" horiz-adv-x="874" 
d="M764 852h-430v-295h375l-31 -158h-344v-399h-176v1010h635z" />
    <glyph glyph-name="F.ss10" horiz-adv-x="1028" 
d="M903 1262h-545v-484h480l-31 -172h-449v-606h-184v1434h760z" />
    <glyph glyph-name="G.c2sc" horiz-adv-x="1134" 
d="M602 573h412v-493q-183 -103 -379 -103q-237 0 -396 151t-159 374q0 148 74 270t202.5 191t282.5 69q152 0 289 -67l-29 -166q-125 71 -256 71q-162 0 -273.5 -105.5t-111.5 -260.5q0 -156 112 -260.5t277 -104.5q104 0 197 43v238h-271z" />
    <glyph glyph-name="G.c2sc.ss01" horiz-adv-x="1134" 
d="M840 510l174 31v-461q-183 -103 -379 -103q-237 0 -396 151t-159 374q0 148 74 270t202.5 191t282.5 69q152 0 289 -67l-29 -166q-133 71 -256 71q-162 0 -273.5 -105.5t-111.5 -260.5q0 -156 112 -259.5t277 -103.5q103 0 193 41v328z" />
    <glyph glyph-name="G.ss01" horiz-adv-x="1486" 
d="M1157 709l184 30v-647q-98 -56 -224 -86.5t-255 -30.5q-202 -4 -376.5 96t-275.5 273t-97 373q-3 150 57.5 288.5t164.5 238.5t246.5 158.5t297.5 55.5q219 0 403 -100l-33 -187q-166 113 -370 113q-155 3 -289 -74t-211 -209t-74 -284q-2 -114 42 -219.5t119.5 -182.5
t179.5 -122t216 -43q168 0 295 55v504z" />
    <glyph glyph-name="Gbreve.c2sc" horiz-adv-x="1134" 
d="M602 573h412v-493q-183 -103 -379 -103q-237 0 -396 151t-159 374q0 148 74 270t202.5 191t282.5 69q152 0 289 -67l-29 -166q-125 71 -256 71q-162 0 -273.5 -105.5t-111.5 -260.5q0 -156 112 -260.5t277 -104.5q104 0 197 43v238h-271zM270 1499h142q0 -75 49.5 -124.5
t124.5 -49.5t124.5 49.5t49.5 124.5h141q0 -133 -90.5 -223t-224.5 -90t-225 90t-91 223z" />
    <glyph glyph-name="Gbreve.c2sc.ss01" horiz-adv-x="1134" 
d="M840 510l174 31v-461q-183 -103 -379 -103q-237 0 -396 151t-159 374q0 148 74 270t202.5 191t282.5 69q152 0 289 -67l-29 -166q-133 71 -256 71q-162 0 -273.5 -105.5t-111.5 -260.5q0 -156 112 -259.5t277 -103.5q103 0 193 41v328zM270 1499h142q0 -75 49.5 -124.5
t124.5 -49.5t124.5 49.5t49.5 124.5h141q0 -133 -90.5 -223t-224.5 -90t-225 90t-91 223z" />
    <glyph glyph-name="Gbreve.ss01" horiz-adv-x="1486" 
d="M1157 709l184 30v-647q-98 -56 -224 -86.5t-255 -30.5q-202 -4 -376.5 96t-275.5 273t-97 373q-3 150 57.5 288.5t164.5 238.5t246.5 158.5t297.5 55.5q219 0 403 -100l-33 -187q-166 113 -370 113q-155 3 -289 -74t-211 -209t-74 -284q-2 -114 42 -219.5t119.5 -182.5
t179.5 -122t216 -43q168 0 295 55v504zM487 1884h142q0 -74 54.5 -125t135.5 -51t136 51t55 125h141q0 -133 -96.5 -224t-235.5 -91t-235.5 91t-96.5 224z" />
    <glyph glyph-name="Gcircumflex.c2sc" horiz-adv-x="1134" 
d="M602 573h412v-493q-183 -103 -379 -103q-237 0 -396 151t-159 374q0 148 74 270t202.5 191t282.5 69q152 0 289 -67l-29 -166q-125 71 -256 71q-162 0 -273.5 -105.5t-111.5 -260.5q0 -156 112 -260.5t277 -104.5q104 0 197 43v238h-271zM905 1260l-90 -103l-229 197
l-230 -197l-90 103l320 288z" />
    <glyph glyph-name="Gcircumflex.c2sc.ss01" horiz-adv-x="1134" 
d="M840 510l174 31v-461q-183 -103 -379 -103q-237 0 -396 151t-159 374q0 148 74 270t202.5 191t282.5 69q152 0 289 -67l-29 -166q-133 71 -256 71q-162 0 -273.5 -105.5t-111.5 -260.5q0 -156 112 -259.5t277 -103.5q103 0 193 41v328zM905 1260l-90 -103l-229 197
l-230 -197l-90 103l320 288z" />
    <glyph glyph-name="Gcircumflex.ss01" horiz-adv-x="1486" 
d="M1157 709l184 30v-647q-98 -56 -224 -86.5t-255 -30.5q-202 -4 -376.5 96t-275.5 273t-97 373q-3 150 57.5 288.5t164.5 238.5t246.5 158.5t297.5 55.5q219 0 403 -100l-33 -187q-166 113 -370 113q-155 3 -289 -74t-211 -209t-74 -284q-2 -114 42 -219.5t119.5 -182.5
t179.5 -122t216 -43q168 0 295 55v504zM1139 1667l-90 -100l-230 196l-229 -196l-90 100l319 291z" />
    <glyph glyph-name="uni0122.c2sc" horiz-adv-x="1134" 
d="M602 573h412v-493q-183 -103 -379 -103q-237 0 -396 151t-159 374q0 148 74 270t202.5 191t282.5 69q152 0 289 -67l-29 -166q-125 71 -256 71q-162 0 -273.5 -105.5t-111.5 -260.5q0 -156 112 -260.5t277 -104.5q104 0 197 43v238h-271zM412 -543l125 422h161l-145 -401
z" />
    <glyph glyph-name="uni0122.c2sc.ss01" horiz-adv-x="1134" 
d="M840 510l174 31v-461q-183 -103 -379 -103q-237 0 -396 151t-159 374q0 148 74 270t202.5 191t282.5 69q152 0 289 -67l-29 -166q-133 71 -256 71q-162 0 -273.5 -105.5t-111.5 -260.5q0 -156 112 -259.5t277 -103.5q103 0 193 41v328zM412 -543l125 422h161l-145 -401z
" />
    <glyph glyph-name="uni0122.ss01" horiz-adv-x="1486" 
d="M1157 709l184 30v-647q-98 -56 -224 -86.5t-255 -30.5q-202 -4 -376.5 96t-275.5 273t-97 373q-3 150 57.5 288.5t164.5 238.5t246.5 158.5t297.5 55.5q219 0 403 -100l-33 -187q-166 113 -370 113q-155 3 -289 -74t-211 -209t-74 -284q-2 -114 42 -219.5t119.5 -182.5
t179.5 -122t216 -43q168 0 295 55v504zM645 -543l125 422h162l-146 -401z" />
    <glyph glyph-name="Gdotaccent.c2sc" horiz-adv-x="1134" 
d="M602 573h412v-493q-183 -103 -379 -103q-237 0 -396 151t-159 374q0 148 74 270t202.5 191t282.5 69q152 0 289 -67l-29 -166q-125 71 -256 71q-162 0 -273.5 -105.5t-111.5 -260.5q0 -156 112 -260.5t277 -104.5q104 0 197 43v238h-271zM469 1354q0 47 34 80.5t83 33.5
t82.5 -33t33.5 -81q0 -50 -33.5 -83.5t-82.5 -33.5q-50 0 -83.5 33.5t-33.5 83.5z" />
    <glyph glyph-name="Gdotaccent.c2sc.ss01" horiz-adv-x="1134" 
d="M840 510l174 31v-461q-183 -103 -379 -103q-237 0 -396 151t-159 374q0 148 74 270t202.5 191t282.5 69q152 0 289 -67l-29 -166q-133 71 -256 71q-162 0 -273.5 -105.5t-111.5 -260.5q0 -156 112 -259.5t277 -103.5q103 0 193 41v328zM469 1354q0 47 34 80.5t83 33.5
t82.5 -33t33.5 -81q0 -50 -33.5 -83.5t-82.5 -33.5q-50 0 -83.5 33.5t-33.5 83.5z" />
    <glyph glyph-name="Gdotaccent.c2sc.ss01.ss08" horiz-adv-x="1134" 
d="M840 510l174 31v-461q-183 -103 -379 -103q-237 0 -396 151t-159 374q0 148 74 270t202.5 191t282.5 69q152 0 289 -67l-29 -166q-133 71 -256 71q-162 0 -273.5 -105.5t-111.5 -260.5q0 -156 112 -259.5t277 -103.5q103 0 193 41v328zM586 1212l-144 142l144 141
l143 -141z" />
    <glyph glyph-name="Gdotaccent.c2sc.ss08" horiz-adv-x="1134" 
d="M602 573h412v-493q-183 -103 -379 -103q-237 0 -396 151t-159 374q0 148 74 270t202.5 191t282.5 69q152 0 289 -67l-29 -166q-125 71 -256 71q-162 0 -273.5 -105.5t-111.5 -260.5q0 -156 112 -260.5t277 -104.5q104 0 197 43v238h-271zM586 1212l-144 142l144 141
l143 -141z" />
    <glyph glyph-name="Gdotaccent.ss01" horiz-adv-x="1486" 
d="M1157 709l184 30v-647q-98 -56 -224 -86.5t-255 -30.5q-202 -4 -376.5 96t-275.5 273t-97 373q-3 150 57.5 288.5t164.5 238.5t246.5 158.5t297.5 55.5q219 0 403 -100l-33 -187q-166 113 -370 113q-155 3 -289 -74t-211 -209t-74 -284q-2 -114 42 -219.5t119.5 -182.5
t179.5 -122t216 -43q168 0 295 55v504zM692 1767q0 54 36.5 89.5t90.5 35.5t90.5 -35.5t36.5 -89.5t-36.5 -90.5t-90.5 -36.5t-90.5 36.5t-36.5 90.5z" />
    <glyph glyph-name="Gdotaccent.ss01.ss08" horiz-adv-x="1486" 
d="M1157 709l184 30v-647q-98 -56 -224 -86.5t-255 -30.5q-202 -4 -376.5 96t-275.5 273t-97 373q-3 150 57.5 288.5t164.5 238.5t246.5 158.5t297.5 55.5q219 0 403 -100l-33 -187q-166 113 -370 113q-155 3 -289 -74t-211 -209t-74 -284q-2 -114 42 -219.5t119.5 -182.5
t179.5 -122t216 -43q168 0 295 55v504zM819 1612l-157 155l157 156l158 -156z" />
    <glyph glyph-name="Gdotaccent.ss08" horiz-adv-x="1486" 
d="M797 788h544v-696q-98 -56 -224 -86.5t-255 -30.5q-202 -4 -376.5 96t-275.5 273t-97 373q-3 150 57.5 288.5t164.5 238.5t246.5 158.5t297.5 55.5q219 0 403 -100l-33 -184q-167 110 -370 110q-154 3 -288 -74t-212.5 -209t-75.5 -284q-2 -114 42.5 -219.5t120 -182.5
t180 -122t216.5 -43q175 0 301 57v411h-397zM819 1612l-157 155l157 156l158 -156z" />
    <glyph glyph-name="H.c2sc" horiz-adv-x="1230" 
d="M897 995l178 29v-1024h-178v432h-561v-432h-178v995l178 29v-426h561v397z" />
    <glyph glyph-name="Hbar.c2sc" horiz-adv-x="1230" 
d="M1147 854v-123h-72v-731h-178v432h-561v-432h-178v731h-74v123h74v141l178 29v-170h561v141l178 29v-170h72zM897 598v133h-561v-133h561z" />
    <glyph glyph-name="Hcircumflex.c2sc" horiz-adv-x="1230" 
d="M897 995l178 29v-1024h-178v432h-561v-432h-178v995l178 29v-426h561v397zM936 1260l-90 -103l-230 197l-229 -197l-90 103l319 288z" />
    <glyph glyph-name="I.c2sc" horiz-adv-x="512" 
d="M168 0v995l178 29v-1024h-178z" />
    <glyph glyph-name="IJ.c2sc" horiz-adv-x="1245" 
d="M168 0v995l178 29v-1024h-178zM555 55l47 156q76 -64 170 -64q76 0 118 49t42 142v657l178 29v-709q0 -149 -84 -242t-233 -93q-135 0 -238 75z" />
    <glyph glyph-name="Iacute.c2sc" horiz-adv-x="512" 
d="M168 0v995l178 29v-1024h-178zM94 1161l-74 129l420 256l88 -145z" />
    <glyph glyph-name="Ibreve.c2sc" horiz-adv-x="512" 
d="M168 0v995l178 29v-1024h-178zM-41 1499h141q0 -73 43 -119.5t111 -46.5t111 46.5t43 119.5h141q0 -133 -83.5 -219t-211.5 -86t-211.5 86t-83.5 219z" />
    <glyph glyph-name="Icircumflex.c2sc" horiz-adv-x="512" 
d="M168 0v995l178 29v-1024h-178zM532 1257l-100 -96l-178 191l-178 -191l-101 96l279 291z" />
    <glyph glyph-name="Idieresis.c2sc" horiz-adv-x="512" 
d="M168 0v995l178 29v-1024h-178zM-16 1335q0 44 31 75.5t75 31.5t75.5 -31.5t31.5 -75.5t-31.5 -75t-75.5 -31t-75 31t-31 75zM311 1335q0 44 31.5 75.5t75.5 31.5t75 -31.5t31 -75.5t-31 -75t-75 -31t-75.5 31t-31.5 75z" />
    <glyph glyph-name="Idieresis.c2sc.ss08" horiz-adv-x="512" 
d="M168 0v995l178 29v-1024h-178zM90 1206l-129 129l129 127l129 -127zM418 1206l-129 129l129 127l129 -127z" />
    <glyph glyph-name="Idieresis.ss08" horiz-adv-x="550" 
d="M184 0v1419l185 29v-1448h-185zM66 1593l-146 146l146 143l147 -143zM487 1593l-147 146l147 143l146 -143z" />
    <glyph glyph-name="Idotaccent.c2sc" horiz-adv-x="512" 
d="M168 0v995l178 29v-1024h-178zM137 1354q0 47 34 80.5t83 33.5t83 -33.5t34 -80.5q0 -50 -33.5 -83.5t-83.5 -33.5t-83.5 33.5t-33.5 83.5z" />
    <glyph glyph-name="Idotaccent.c2sc.ss08" horiz-adv-x="512" 
d="M168 0v995l178 29v-1024h-178zM254 1212l-143 142l143 141l143 -141z" />
    <glyph glyph-name="Idotaccent.ss08" horiz-adv-x="550" 
d="M184 0v1419l185 29v-1448h-185zM276 1612l-157 155l157 156l158 -156z" />
    <glyph glyph-name="Igrave.c2sc" horiz-adv-x="512" 
d="M168 0v995l178 29v-1024h-178zM434 1161l-434 240l88 145l420 -256z" />
    <glyph glyph-name="Imacron.c2sc" horiz-adv-x="512" 
d="M168 0v995l178 29v-1024h-178zM23 1286v146h462v-146h-462z" />
    <glyph glyph-name="Iogonek.c2sc" horiz-adv-x="512" 
d="M168 995l178 29v-1024h-2q-121 -77 -121 -150q0 -31 21 -50t53 -19q20 0 47 6v-125q-45 -10 -78 -10q-79 0 -131.5 51.5t-52.5 126.5q0 93 86 170v995z" />
    <glyph glyph-name="Itilde.c2sc" horiz-adv-x="512" 
d="M168 0v995l178 29v-1024h-178zM231 1292q-58 33 -90 33q-31 0 -51 -21t-20 -51h-125q0 93 54.5 151t139.5 58q63 0 137 -47q58 -33 91 -33q31 0 51 21t20 51h125q0 -93 -54.5 -151t-139.5 -58q-64 0 -138 47z" />
    <glyph glyph-name="J.c2sc" horiz-adv-x="733" 
d="M43 55l47 156q76 -64 170 -64q76 0 118 49t42 142v657l178 29v-709q0 -149 -84 -242t-233 -93q-135 0 -238 75z" />
    <glyph glyph-name="Jcircumflex.c2sc" horiz-adv-x="733" 
d="M43 55l47 156q76 -64 170 -64q76 0 118 49t42 142v657l178 29v-709q0 -149 -84 -242t-233 -93q-135 0 -238 75zM788 1257l-100 -96l-178 191l-178 -191l-101 96l279 291z" />
    <glyph glyph-name="K.c2sc" horiz-adv-x="980" 
d="M934 0h-223l-375 485v-485h-178v995l178 29v-475l369 461h225l-404 -492z" />
    <glyph glyph-name="uni0136.c2sc" horiz-adv-x="980" 
d="M934 0h-223l-375 485v-485h-178v995l178 29v-475l369 461h225l-404 -492zM319 -543l125 422h162l-145 -401z" />
    <glyph glyph-name="L.c2sc" horiz-adv-x="866" 
d="M158 0v995l178 29v-860h479l-29 -164h-628z" />
    <glyph glyph-name="Lacute.c2sc" horiz-adv-x="866" 
d="M158 0v995l178 29v-860h479l-29 -164h-628zM274 1161l-73 129l420 256l88 -145z" />
    <glyph glyph-name="Lcaron.c2sc" horiz-adv-x="866" 
d="M158 0v995l178 29v-860h479l-29 -164h-628zM432 592l66 414h176l-80 -385z" />
    <glyph glyph-name="uni013B.c2sc" horiz-adv-x="866" 
d="M158 0v995l178 29v-860h479l-29 -164h-628zM260 -543l125 422h162l-146 -401z" />
    <glyph glyph-name="Ldot.c2sc" horiz-adv-x="866" 
d="M158 0v995l178 29v-860h479l-29 -164h-628zM541 559q0 51 36 86t87 35q54 0 89 -35t35 -86t-35 -86t-89 -35q-51 0 -87 35t-36 86z" />
    <glyph glyph-name="Ldot.c2sc.ss08" horiz-adv-x="866" 
d="M158 0v995l178 29v-860h479l-29 -164h-628zM662 412l-148 147l148 148l149 -148z" />
    <glyph glyph-name="Ldot.ss08" horiz-adv-x="1058" 
d="M358 176h609l-31 -176h-762v1419l184 29v-1272zM766 637l-166 166l166 166l168 -166z" />
    <glyph glyph-name="Lslash.c2sc" horiz-adv-x="866" 
d="M336 164h479l-29 -164h-628v383l-129 -82v178l129 82v434l178 29v-350l131 82v-178l-131 -82v-332z" />
    <glyph glyph-name="M.c2sc" horiz-adv-x="1359" 
d="M1274 0h-176l-68 584l-350 -566l-350 566l-66 -584h-178l141 1063l453 -756l453 756z" />
    <glyph glyph-name="N.c2sc" horiz-adv-x="1245" 
d="M1087 1024v-1077l-751 710v-657h-178v1063l751 -713v645z" />
    <glyph glyph-name="Nacute.c2sc" horiz-adv-x="1245" 
d="M1087 1024v-1077l-751 710v-657h-178v1063l751 -713v645zM461 1161l-74 129l420 256l88 -145z" />
    <glyph glyph-name="Ncaron.c2sc" horiz-adv-x="1245" 
d="M1087 1024v-1077l-751 710v-657h-178v1063l751 -713v645zM852 1546l90 -102l-319 -289l-320 289l90 102l230 -196z" />
    <glyph glyph-name="uni0145.c2sc" horiz-adv-x="1245" 
d="M1087 1024v-1077l-751 710v-657h-178v1063l751 -713v645zM446 -543l125 422h162l-145 -401z" />
    <glyph glyph-name="Eng.c2sc" horiz-adv-x="1245" 
d="M909 995l178 29v-1178q0 -146 -83 -238.5t-228 -92.5q-124 0 -233 75l47 154q82 -61 166 -61q74 0 114.5 47.5t40.5 138.5v244l-575 544v-657h-178v1063l751 -713v645z" />
    <glyph glyph-name="Ntilde.c2sc" horiz-adv-x="1245" 
d="M1087 1024v-1077l-751 710v-657h-178v1063l751 -713v645zM594 1290q-62 41 -105 41q-37 0 -59 -24t-24 -62h-125q0 102 57.5 163.5t150.5 61.5q41 0 72.5 -11.5t85.5 -41.5q62 -41 105 -41q37 0 59.5 24.5t24.5 63.5h125q0 -102 -58 -164.5t-151 -62.5q-41 0 -72.5 11.5
t-85.5 41.5z" />
    <glyph glyph-name="O.c2sc" horiz-adv-x="1239" 
d="M80 504q-3 142 70 265t199 194.5t272 68.5q144 3 270 -68.5t199.5 -194.5t70.5 -265q2 -106 -41 -204.5t-116.5 -170t-174 -113t-208.5 -39.5q-148 0 -272.5 70t-196.5 191.5t-72 265.5zM981 506q0 149 -105.5 254.5t-254.5 105.5q-151 0 -256 -105t-105 -255
q0 -152 105 -257.5t256 -105.5q150 0 255 105.5t105 257.5z" />
    <glyph glyph-name="Oacute.c2sc" horiz-adv-x="1239" 
d="M80 504q-3 142 70 265t199 194.5t272 68.5q144 3 270 -68.5t199.5 -194.5t70.5 -265q2 -106 -41 -204.5t-116.5 -170t-174 -113t-208.5 -39.5q-148 0 -272.5 70t-196.5 191.5t-72 265.5zM981 506q0 149 -105.5 254.5t-254.5 105.5q-151 0 -256 -105t-105 -255
q0 -152 105 -257.5t256 -105.5q150 0 255 105.5t105 257.5zM461 1161l-74 129l420 256l88 -145z" />
    <glyph glyph-name="Obreve.c2sc" horiz-adv-x="1239" 
d="M80 504q-3 142 70 265t199 194.5t272 68.5q144 3 270 -68.5t199.5 -194.5t70.5 -265q2 -106 -41 -204.5t-116.5 -170t-174 -113t-208.5 -39.5q-148 0 -272.5 70t-196.5 191.5t-72 265.5zM981 506q0 149 -105.5 254.5t-254.5 105.5q-151 0 -256 -105t-105 -255
q0 -152 105 -257.5t256 -105.5q150 0 255 105.5t105 257.5zM305 1499h141q0 -75 50 -124.5t125 -49.5t124.5 49.5t49.5 124.5h141q0 -133 -90.5 -223t-224.5 -90t-225 90t-91 223z" />
    <glyph glyph-name="Ocircumflex.c2sc" horiz-adv-x="1239" 
d="M80 504q-3 142 70 265t199 194.5t272 68.5q144 3 270 -68.5t199.5 -194.5t70.5 -265q2 -106 -41 -204.5t-116.5 -170t-174 -113t-208.5 -39.5q-148 0 -272.5 70t-196.5 191.5t-72 265.5zM981 506q0 149 -105.5 254.5t-254.5 105.5q-151 0 -256 -105t-105 -255
q0 -152 105 -257.5t256 -105.5q150 0 255 105.5t105 257.5zM940 1260l-90 -103l-229 197l-230 -197l-90 103l320 288z" />
    <glyph glyph-name="Odieresis.c2sc" horiz-adv-x="1239" 
d="M80 504q-3 142 70 265t199 194.5t272 68.5q144 3 270 -68.5t199.5 -194.5t70.5 -265q2 -106 -41 -204.5t-116.5 -170t-174 -113t-208.5 -39.5q-148 0 -272.5 70t-196.5 191.5t-72 265.5zM981 506q0 149 -105.5 254.5t-254.5 105.5q-151 0 -256 -105t-105 -255
q0 -152 105 -257.5t256 -105.5q150 0 255 105.5t105 257.5zM319 1335q0 44 32.5 75.5t76.5 31.5t76.5 -31.5t32.5 -75.5t-32.5 -76t-76.5 -32t-76.5 32t-32.5 76zM705 1335q0 44 32 75.5t76 31.5t76.5 -31.5t32.5 -75.5t-32.5 -76t-76.5 -32q-47 0 -77.5 31.5t-30.5 76.5z
" />
    <glyph glyph-name="Odieresis.c2sc.ss08" horiz-adv-x="1239" 
d="M80 504q-3 142 70 265t199 194.5t272 68.5q144 3 270 -68.5t199.5 -194.5t70.5 -265q2 -106 -41 -204.5t-116.5 -170t-174 -113t-208.5 -39.5q-148 0 -272.5 70t-196.5 191.5t-72 265.5zM981 506q0 149 -105.5 254.5t-254.5 105.5q-151 0 -256 -105t-105 -255
q0 -152 105 -257.5t256 -105.5q150 0 255 105.5t105 257.5zM428 1206l-129 129l129 127l131 -127zM813 1206l-131 129l131 127l129 -127z" />
    <glyph glyph-name="Odieresis.ss08" horiz-adv-x="1734" 
d="M113 717q-3 150 56.5 288.5t161.5 238.5t243 158.5t294 55.5q152 3 292.5 -55.5t242.5 -158.5t162 -238.5t57 -288.5q3 -150 -57 -288.5t-162 -239t-242.5 -159t-292.5 -55.5q-153 -3 -294 55.5t-243 159t-161.5 239t-56.5 288.5zM1430 717q3 152 -73.5 284t-207.5 209
t-281 74q-152 3 -283 -74t-207 -209t-73 -284q-3 -152 73 -284t207 -209t283 -74q150 -3 281 74t207.5 209t73.5 284zM618 1593l-145 146l145 143l148 -143zM1118 1593l-147 146l147 143l146 -143z" />
    <glyph glyph-name="Ograve.c2sc" horiz-adv-x="1239" 
d="M80 504q-3 142 70 265t199 194.5t272 68.5q144 3 270 -68.5t199.5 -194.5t70.5 -265q2 -106 -41 -204.5t-116.5 -170t-174 -113t-208.5 -39.5q-148 0 -272.5 70t-196.5 191.5t-72 265.5zM981 506q0 149 -105.5 254.5t-254.5 105.5q-151 0 -256 -105t-105 -255
q0 -152 105 -257.5t256 -105.5q150 0 255 105.5t105 257.5zM801 1161l-434 240l88 145l419 -256z" />
    <glyph glyph-name="Ohungarumlaut.c2sc" horiz-adv-x="1239" 
d="M80 504q-3 142 70 265t199 194.5t272 68.5q144 3 270 -68.5t199.5 -194.5t70.5 -265q2 -106 -41 -204.5t-116.5 -170t-174 -113t-208.5 -39.5q-148 0 -272.5 70t-196.5 191.5t-72 265.5zM981 506q0 149 -105.5 254.5t-254.5 105.5q-151 0 -256 -105t-105 -255
q0 -152 105 -257.5t256 -105.5q150 0 255 105.5t105 257.5zM373 1186l153 334h199l-213 -334h-139zM711 1186l153 334h199l-211 -334h-141z" />
    <glyph glyph-name="Omacron.c2sc" horiz-adv-x="1239" 
d="M80 504q-3 142 70 265t199 194.5t272 68.5q144 3 270 -68.5t199.5 -194.5t70.5 -265q2 -106 -41 -204.5t-116.5 -170t-174 -113t-208.5 -39.5q-148 0 -272.5 70t-196.5 191.5t-72 265.5zM981 506q0 149 -105.5 254.5t-254.5 105.5q-151 0 -256 -105t-105 -255
q0 -152 105 -257.5t256 -105.5q150 0 255 105.5t105 257.5zM328 1286v146h585v-146h-585z" />
    <glyph glyph-name="Oslash.c2sc" horiz-adv-x="1239" 
d="M1161 504q2 -106 -41 -204.5t-116.5 -170t-174 -113t-208.5 -39.5q-166 0 -299 86l-95 -108l-100 88l92 104q-139 152 -139 357q-3 142 70 265t199 194.5t272 68.5q169 0 297 -84l94 107l100 -88l-92 -105q141 -150 141 -358zM336 281l469 536q-88 49 -184 49
q-151 0 -256 -105t-105 -255q0 -127 76 -225zM981 506q0 125 -76 223l-469 -536q86 -50 185 -50q150 0 255 105.5t105 257.5z" />
    <glyph glyph-name="Otilde.c2sc" horiz-adv-x="1239" 
d="M80 504q-3 142 70 265t199 194.5t272 68.5q144 3 270 -68.5t199.5 -194.5t70.5 -265q2 -106 -41 -204.5t-116.5 -170t-174 -113t-208.5 -39.5q-148 0 -272.5 70t-196.5 191.5t-72 265.5zM981 506q0 149 -105.5 254.5t-254.5 105.5q-151 0 -256 -105t-105 -255
q0 -152 105 -257.5t256 -105.5q150 0 255 105.5t105 257.5zM594 1290q-62 41 -105 41q-37 0 -59 -24t-24 -62h-125q0 102 57.5 163.5t150.5 61.5q41 0 72.5 -11.5t85.5 -41.5q62 -41 105 -41q37 0 59.5 24.5t24.5 63.5h125q0 -102 -58 -164.5t-151 -62.5q-41 0 -72.5 11.5
t-85.5 41.5z" />
    <glyph glyph-name="OE.c2sc" horiz-adv-x="1509" 
d="M936 156h500l-27 -156h-803q-224 0 -375 145.5t-151 360.5q-2 103 39 197.5t111.5 162.5t169 107t206.5 37h783l28 -156h-481v-262h389v-156h-389v-280zM610 160h154v690h-154q-148 0 -249 -99t-101 -245q0 -147 101 -246.5t249 -99.5z" />
    <glyph glyph-name="OE.c2sc.ss10" horiz-adv-x="1509" 
d="M936 156h500v-156h-830q-224 0 -375 145.5t-151 360.5q-2 103 39 197.5t111.5 162.5t169 107t206.5 37h824l-29 -156h-465v-262h416l-29 -156h-387v-280zM610 160h154v690h-154q-148 0 -249 -99t-101 -245q0 -147 101 -246.5t249 -99.5z" />
    <glyph glyph-name="OE.ss10" horiz-adv-x="1933" 
d="M1190 172h625v-172h-955q-154 -2 -293.5 53.5t-239.5 151.5t-158 230t-56 282q-2 148 56 282t158 230t239.5 151.5t293.5 53.5h942l-30 -172h-582v-439h522l-31 -172h-491v-479zM862 174h146v1086h-146q-156 0 -284 -71t-200.5 -195.5t-72.5 -276.5t72.5 -276.5
t200.5 -195.5t284 -71z" />
    <glyph glyph-name="P.c2sc" horiz-adv-x="944" 
d="M874 649q0 -157 -111 -258.5t-284 -101.5h-145v-289h-176v1010h321q173 0 284 -102t111 -259zM696 649q0 93 -63 150t-162 57h-137v-414h137q98 0 161.5 58.5t63.5 148.5z" />
    <glyph glyph-name="Thorn.c2sc" horiz-adv-x="944" 
d="M874 516q0 -157 -111 -258.5t-284 -101.5h-145v-156h-176v1010h176v-133h145q173 0 284 -102t111 -259zM696 516q0 93 -63 150t-162 57h-137v-414h137q98 0 161.5 58.5t63.5 148.5z" />
    <glyph glyph-name="Q.c2sc" horiz-adv-x="1239" 
d="M1176 41l-105 -115l-149 137q-138 -86 -301 -86q-148 0 -272.5 70t-196.5 191.5t-72 265.5q-3 142 70 265t199 194.5t272 68.5q144 3 270 -68.5t199.5 -194.5t70.5 -265q0 -190 -125 -340zM791 182l-158 146l98 108l176 -155q76 98 76 225q0 152 -105 257t-257 105
t-257.5 -105t-105.5 -257t105.5 -258.5t257.5 -106.5q93 0 170 41z" />
    <glyph glyph-name="Q.c2sc.ss02" horiz-adv-x="1239" 
d="M1176 41l-105 -115l-149 137q-138 -86 -301 -86q-148 0 -272.5 70t-196.5 191.5t-72 265.5q-3 142 70 265t199 194.5t272 68.5q144 3 270 -68.5t199.5 -194.5t70.5 -265q0 -190 -125 -340zM621 143q150 0 255 105.5t105 257.5q0 149 -105.5 254.5t-254.5 105.5
q-151 0 -256 -105t-105 -255q0 -152 105 -257.5t256 -105.5z" />
    <glyph glyph-name="Q.ss02" horiz-adv-x="1738" 
d="M1626 35l-113 -125l-213 196q-192 -131 -432 -131q-153 -3 -294 55.5t-243 159t-161.5 239t-56.5 288.5q-3 150 56.5 288.5t161.5 238.5t243 158.5t294 55.5q152 3 292.5 -55.5t242.5 -158.5t162 -238.5t57 -288.5q0 -141 -51 -271t-144 -231zM868 150q150 -3 281 74
t207.5 209t73.5 284q3 152 -73.5 284t-207.5 209t-281 74q-152 3 -283 -74t-207 -209t-73 -284q-3 -152 73 -284t207 -209t283 -74z" />
    <glyph glyph-name="R.c2sc" horiz-adv-x="958" 
d="M881 0h-226l-321 420v-420h-176v1010h325q161 0 263 -88t102 -226q0 -120 -75 -204.5t-200 -106.5zM334 860v-356h137q89 0 144 50t55 128t-55 128t-144 50h-137z" />
    <glyph glyph-name="Racute.c2sc" horiz-adv-x="958" 
d="M881 0h-226l-321 420v-420h-176v1010h325q161 0 263 -88t102 -226q0 -120 -75 -204.5t-200 -106.5zM334 860v-356h137q89 0 144 50t55 128t-55 128t-144 50h-137zM307 1161l-74 129l420 256l88 -145z" />
    <glyph glyph-name="Rcaron.c2sc" horiz-adv-x="958" 
d="M881 0h-226l-321 420v-420h-176v1010h325q161 0 263 -88t102 -226q0 -120 -75 -204.5t-200 -106.5zM334 860v-356h137q89 0 144 50t55 128t-55 128t-144 50h-137zM698 1546l90 -102l-319 -289l-319 289l90 102l229 -196z" />
    <glyph glyph-name="uni0156.c2sc" horiz-adv-x="958" 
d="M881 0h-226l-321 420v-420h-176v1010h325q161 0 263 -88t102 -226q0 -120 -75 -204.5t-200 -106.5zM334 860v-356h137q89 0 144 50t55 128t-55 128t-144 50h-137zM293 -543l125 422h162l-146 -401z" />
    <glyph glyph-name="S.c2sc" horiz-adv-x="856" 
d="M88 80l29 166q159 -111 289 -111q81 0 127.5 39t46.5 105q0 57 -37.5 91.5t-139.5 67.5l-45 17q-116 38 -177.5 114t-61.5 179q0 124 88 204t227 80q137 0 277 -78l-33 -161q-124 84 -248 84q-68 0 -106.5 -33.5t-38.5 -91.5q0 -49 34.5 -82.5t122.5 -63.5l45 -14
q130 -43 197.5 -121t67.5 -186q0 -135 -95 -221.5t-245 -86.5q-167 0 -324 103z" />
    <glyph glyph-name="Sacute.c2sc" horiz-adv-x="856" 
d="M88 80l29 166q159 -111 289 -111q81 0 127.5 39t46.5 105q0 57 -37.5 91.5t-139.5 67.5l-45 17q-116 38 -177.5 114t-61.5 179q0 124 88 204t227 80q137 0 277 -78l-33 -161q-124 84 -248 84q-68 0 -106.5 -33.5t-38.5 -91.5q0 -49 34.5 -82.5t122.5 -63.5l45 -14
q130 -43 197.5 -121t67.5 -186q0 -135 -95 -221.5t-245 -86.5q-167 0 -324 103zM264 1161l-74 129l420 256l88 -145z" />
    <glyph glyph-name="Scaron.c2sc" horiz-adv-x="856" 
d="M88 80l29 166q159 -111 289 -111q81 0 127.5 39t46.5 105q0 57 -37.5 91.5t-139.5 67.5l-45 17q-116 38 -177.5 114t-61.5 179q0 124 88 204t227 80q137 0 277 -78l-33 -161q-124 84 -248 84q-68 0 -106.5 -33.5t-38.5 -91.5q0 -49 34.5 -82.5t122.5 -63.5l45 -14
q130 -43 197.5 -121t67.5 -186q0 -135 -95 -221.5t-245 -86.5q-167 0 -324 103zM655 1546l90 -102l-319 -289l-320 289l91 102l229 -196z" />
    <glyph glyph-name="Scedilla.c2sc" horiz-adv-x="856" 
d="M487 -16l-198 -361l-160 103l201 258q-127 21 -242 96l29 166q159 -111 289 -111q81 0 127.5 39t46.5 105q0 57 -37.5 91.5t-139.5 67.5l-45 17q-116 38 -177.5 114t-61.5 179q0 124 88 204t227 80q137 0 277 -78l-33 -161q-124 84 -248 84q-68 0 -106.5 -33.5
t-38.5 -91.5q0 -49 34.5 -82.5t122.5 -63.5l45 -14q130 -43 197.5 -121t67.5 -186q0 -116 -71.5 -197t-193.5 -104z" />
    <glyph glyph-name="Scircumflex.c2sc" horiz-adv-x="856" 
d="M88 80l29 166q159 -111 289 -111q81 0 127.5 39t46.5 105q0 57 -37.5 91.5t-139.5 67.5l-45 17q-116 38 -177.5 114t-61.5 179q0 124 88 204t227 80q137 0 277 -78l-33 -161q-124 84 -248 84q-68 0 -106.5 -33.5t-38.5 -91.5q0 -49 34.5 -82.5t122.5 -63.5l45 -14
q130 -43 197.5 -121t67.5 -186q0 -135 -95 -221.5t-245 -86.5q-167 0 -324 103zM743 1260l-90 -103l-229 197l-229 -197l-91 103l320 288z" />
    <glyph glyph-name="uni0218.c2sc" horiz-adv-x="856" 
d="M88 80l29 166q159 -111 289 -111q81 0 127.5 39t46.5 105q0 57 -37.5 91.5t-139.5 67.5l-45 17q-116 38 -177.5 114t-61.5 179q0 124 88 204t227 80q137 0 277 -78l-33 -161q-124 84 -248 84q-68 0 -106.5 -33.5t-38.5 -91.5q0 -49 34.5 -82.5t122.5 -63.5l45 -14
q130 -43 197.5 -121t67.5 -186q0 -135 -95 -221.5t-245 -86.5q-167 0 -324 103zM250 -543l125 422h162l-146 -401z" />
    <glyph glyph-name="uni1E9E.alt" horiz-adv-x="1468" 
d="M1364 455q0 -205 -145.5 -342.5t-362.5 -137.5q-225 0 -395 175l88 159q69 -79 142 -120.5t165 -41.5q136 0 227 88t91 220q0 127 -87.5 213t-244.5 86q-68 0 -156 -15l285 525h-613v-1264h-184v1434h1102l-313 -543q175 -6 288 -129.5t113 -306.5z" />
    <glyph glyph-name="T.c2sc" horiz-adv-x="856" 
d="M836 846h-318v-846h-178v846h-317l28 164h754z" />
    <glyph glyph-name="T.c2sc.ss10" horiz-adv-x="854" 
d="M834 1010l-31 -164h-289v-846h-178v846h-303v164h801z" />
    <glyph glyph-name="T.ss10" horiz-adv-x="1081" 
d="M1038 1434l-30 -174h-377v-1260h-185v1260h-391v174h983z" />
    <glyph glyph-name="Tbar.c2sc" horiz-adv-x="856" 
d="M518 846v-279h230v-143h-230v-424h-178v424h-225v143h225v279h-317l28 164h754l31 -164h-318z" />
    <glyph glyph-name="Tbar.ss10" horiz-adv-x="1081" 
d="M1008 1260h-377v-445h270v-168h-270v-647h-185v647h-270v168h270v445h-391v174h983z" />
    <glyph glyph-name="Tcaron.c2sc" horiz-adv-x="856" 
d="M836 846h-318v-846h-178v846h-317l28 164h754zM662 1546l90 -102l-320 -289l-319 289l90 102l229 -196z" />
    <glyph glyph-name="Tcaron.c2sc.ss10" horiz-adv-x="854" 
d="M834 1010l-31 -164h-289v-846h-178v846h-303v164h801zM657 1546l91 -102l-320 -289l-319 289l90 102l229 -196z" />
    <glyph glyph-name="Tcaron.ss10" horiz-adv-x="1081" 
d="M1038 1434l-30 -174h-377v-1260h-185v1260h-391v174h983zM768 1942l90 -101l-319 -291l-320 291l90 101l230 -197z" />
    <glyph glyph-name="uni0162.c2sc" horiz-adv-x="856" 
d="M836 846h-318v-846h-178v846h-317l28 164h754zM256 -543l125 422h162l-146 -401z" />
    <glyph glyph-name="uni0162.c2sc.ss10" horiz-adv-x="854" 
d="M834 1010l-31 -164h-289v-846h-178v846h-303v164h801zM252 -543l125 422h162l-146 -401z" />
    <glyph glyph-name="uni0162.ss10" horiz-adv-x="1081" 
d="M1038 1434l-30 -174h-377v-1260h-185v1260h-391v174h983zM365 -543l124 422h162l-145 -401z" />
    <glyph glyph-name="uni021A.c2sc" horiz-adv-x="856" 
d="M836 846h-318v-846h-178v846h-317l28 164h754zM256 -543l125 422h162l-146 -401z" />
    <glyph glyph-name="uni021A.c2sc.ss10" horiz-adv-x="854" 
d="M834 1010l-31 -164h-289v-846h-178v846h-303v164h801zM252 -543l125 422h162l-146 -401z" />
    <glyph glyph-name="uni021A.ss10" horiz-adv-x="1081" 
d="M1038 1434l-30 -174h-377v-1260h-185v1260h-391v174h983zM365 -543l124 422h162l-145 -401z" />
    <glyph glyph-name="U.c2sc" horiz-adv-x="1103" 
d="M135 406v589l178 29v-606q0 -120 64.5 -192t173.5 -72q112 0 176 71.5t64 192.5v577l178 29v-621q0 -188 -115.5 -303.5t-302.5 -115.5q-185 0 -300.5 116.5t-115.5 305.5z" />
    <glyph glyph-name="U.c2sc.ss03" horiz-adv-x="1124" 
d="M791 995l178 29v-1024h-170v113q-112 -131 -297 -131q-165 0 -266 105.5t-101 285.5v622l178 29v-627q0 -119 61 -183t167 -64q110 0 180 73t70 193v579z" />
    <glyph glyph-name="U.ss03" horiz-adv-x="1398" 
d="M1040 1419l185 29v-1448h-174v180q-68 -99 -172 -152t-232 -53q-219 0 -356 146.5t-137 384.5v913l184 29v-922q0 -176 92 -276t250 -100q165 0 262.5 111t97.5 300v858z" />
    <glyph glyph-name="Uacute.c2sc" horiz-adv-x="1103" 
d="M135 406v589l178 29v-606q0 -120 64.5 -192t173.5 -72q112 0 176 71.5t64 192.5v577l178 29v-621q0 -188 -115.5 -303.5t-302.5 -115.5q-185 0 -300.5 116.5t-115.5 305.5zM391 1161l-74 129l420 256l88 -145z" />
    <glyph glyph-name="Uacute.c2sc.ss03" horiz-adv-x="1124" 
d="M791 995l178 29v-1024h-170v113q-112 -131 -297 -131q-165 0 -266 105.5t-101 285.5v622l178 29v-627q0 -119 61 -183t167 -64q110 0 180 73t70 193v579zM391 1161l-74 129l420 256l88 -145z" />
    <glyph glyph-name="Uacute.ss03" horiz-adv-x="1398" 
d="M1040 1419l185 29v-1448h-174v180q-68 -99 -172 -152t-232 -53q-219 0 -356 146.5t-137 384.5v913l184 29v-922q0 -176 92 -276t250 -100q165 0 262.5 111t97.5 300v858zM516 1575l-61 135l483 236l74 -154z" />
    <glyph glyph-name="Ubreve.c2sc" horiz-adv-x="1103" 
d="M135 406v589l178 29v-606q0 -120 64.5 -192t173.5 -72q112 0 176 71.5t64 192.5v577l178 29v-621q0 -188 -115.5 -303.5t-302.5 -115.5q-185 0 -300.5 116.5t-115.5 305.5zM236 1499h141q0 -75 49.5 -124.5t124.5 -49.5t124.5 49.5t49.5 124.5h141q0 -133 -90.5 -223
t-224.5 -90t-224.5 90t-90.5 223z" />
    <glyph glyph-name="Ubreve.c2sc.ss03" horiz-adv-x="1124" 
d="M791 995l178 29v-1024h-170v113q-112 -131 -297 -131q-165 0 -266 105.5t-101 285.5v622l178 29v-627q0 -119 61 -183t167 -64q110 0 180 73t70 193v579zM236 1499h141q0 -75 49.5 -124.5t124.5 -49.5t124.5 49.5t49.5 124.5h141q0 -133 -90.5 -223t-224.5 -90t-224.5 90
t-90.5 223z" />
    <glyph glyph-name="Ubreve.ss03" horiz-adv-x="1398" 
d="M1040 1419l185 29v-1448h-174v180q-68 -99 -172 -152t-232 -53q-219 0 -356 146.5t-137 384.5v913l184 29v-922q0 -176 92 -276t250 -100q165 0 262.5 111t97.5 300v858zM358 1884h142q0 -74 54.5 -125t135.5 -51t136 51t55 125h141q0 -133 -96.5 -224t-235.5 -91
t-235.5 91t-96.5 224z" />
    <glyph glyph-name="Ucircumflex.c2sc" horiz-adv-x="1103" 
d="M135 406v589l178 29v-606q0 -120 64.5 -192t173.5 -72q112 0 176 71.5t64 192.5v577l178 29v-621q0 -188 -115.5 -303.5t-302.5 -115.5q-185 0 -300.5 116.5t-115.5 305.5zM870 1260l-90 -103l-229 197l-229 -197l-91 103l320 288z" />
    <glyph glyph-name="Ucircumflex.c2sc.ss03" horiz-adv-x="1124" 
d="M791 995l178 29v-1024h-170v113q-112 -131 -297 -131q-165 0 -266 105.5t-101 285.5v622l178 29v-627q0 -119 61 -183t167 -64q110 0 180 73t70 193v579zM870 1260l-90 -103l-229 197l-229 -197l-91 103l320 288z" />
    <glyph glyph-name="Ucircumflex.ss03" horiz-adv-x="1398" 
d="M1040 1419l185 29v-1448h-174v180q-68 -99 -172 -152t-232 -53q-219 0 -356 146.5t-137 384.5v913l184 29v-922q0 -176 92 -276t250 -100q165 0 262.5 111t97.5 300v858zM1010 1667l-90 -100l-230 196l-229 -196l-90 100l319 291z" />
    <glyph glyph-name="Udieresis.c2sc" horiz-adv-x="1103" 
d="M135 406v589l178 29v-606q0 -120 64.5 -192t173.5 -72q112 0 176 71.5t64 192.5v577l178 29v-621q0 -188 -115.5 -303.5t-302.5 -115.5q-185 0 -300.5 116.5t-115.5 305.5zM250 1335q0 44 32 75.5t76 31.5t76.5 -31.5t32.5 -75.5t-32.5 -76t-76.5 -32t-76 32t-32 76z
M635 1335q0 44 32 75.5t76 31.5t76.5 -31.5t32.5 -75.5t-32.5 -76t-76.5 -32q-47 0 -77.5 31.5t-30.5 76.5z" />
    <glyph glyph-name="Udieresis.c2sc.ss03" horiz-adv-x="1124" 
d="M791 995l178 29v-1024h-170v113q-112 -131 -297 -131q-165 0 -266 105.5t-101 285.5v622l178 29v-627q0 -119 61 -183t167 -64q110 0 180 73t70 193v579zM250 1335q0 44 32 75.5t76 31.5t76.5 -31.5t32.5 -75.5t-32.5 -76t-76.5 -32t-76 32t-32 76zM635 1335
q0 44 32 75.5t76 31.5t76.5 -31.5t32.5 -75.5t-32.5 -76t-76.5 -32q-47 0 -77.5 31.5t-30.5 76.5z" />
    <glyph glyph-name="Udieresis.c2sc.ss03.ss08" horiz-adv-x="1124" 
d="M791 995l178 29v-1024h-170v113q-112 -131 -297 -131q-165 0 -266 105.5t-101 285.5v622l178 29v-627q0 -119 61 -183t167 -64q110 0 180 73t70 193v579zM358 1206l-129 129l129 127l131 -127zM743 1206l-131 129l131 127l129 -127z" />
    <glyph glyph-name="Udieresis.c2sc.ss08" horiz-adv-x="1103" 
d="M135 406v589l178 29v-606q0 -120 64.5 -192t173.5 -72q112 0 176 71.5t64 192.5v577l178 29v-621q0 -188 -115.5 -303.5t-302.5 -115.5q-185 0 -300.5 116.5t-115.5 305.5zM358 1206l-129 129l129 127l131 -127zM743 1206l-131 129l131 127l129 -127z" />
    <glyph glyph-name="Udieresis.ss03" horiz-adv-x="1398" 
d="M1040 1419l185 29v-1448h-174v180q-68 -99 -172 -152t-232 -53q-219 0 -356 146.5t-137 384.5v913l184 29v-922q0 -176 92 -276t250 -100q165 0 262.5 111t97.5 300v858zM317 1739q0 51 36 86t87 35q54 0 89.5 -35t35.5 -86t-35.5 -87t-89.5 -36q-53 0 -88 35.5t-35 87.5
zM815 1739q0 51 35.5 86t89.5 35q51 0 87 -35t36 -86t-36 -87t-87 -36q-54 0 -89.5 36t-35.5 87z" />
    <glyph glyph-name="Udieresis.ss03.ss08" horiz-adv-x="1398" 
d="M1040 1419l185 29v-1448h-174v180q-68 -99 -172 -152t-232 -53q-219 0 -356 146.5t-137 384.5v913l184 29v-922q0 -176 92 -276t250 -100q165 0 262.5 111t97.5 300v858zM440 1593l-145 146l145 143l148 -143zM940 1593l-147 146l147 143l145 -143z" />
    <glyph glyph-name="Udieresis.ss08" horiz-adv-x="1378" 
d="M154 545v874l184 29v-887q0 -189 95.5 -300t256.5 -111q160 0 255 111t95 300v858l185 29v-903q0 -256 -147.5 -413t-387.5 -157q-241 0 -388.5 156.5t-147.5 413.5zM440 1593l-145 146l145 143l148 -143zM940 1593l-147 146l147 143l145 -143z" />
    <glyph glyph-name="Ugrave.c2sc" horiz-adv-x="1103" 
d="M135 406v589l178 29v-606q0 -120 64.5 -192t173.5 -72q112 0 176 71.5t64 192.5v577l178 29v-621q0 -188 -115.5 -303.5t-302.5 -115.5q-185 0 -300.5 116.5t-115.5 305.5zM731 1161l-434 240l88 145l420 -256z" />
    <glyph glyph-name="Ugrave.c2sc.ss03" horiz-adv-x="1124" 
d="M791 995l178 29v-1024h-170v113q-112 -131 -297 -131q-165 0 -266 105.5t-101 285.5v622l178 29v-627q0 -119 61 -183t167 -64q110 0 180 73t70 193v579zM731 1161l-434 240l88 145l420 -256z" />
    <glyph glyph-name="Ugrave.ss03" horiz-adv-x="1398" 
d="M1040 1419l185 29v-1448h-174v180q-68 -99 -172 -152t-232 -53q-219 0 -356 146.5t-137 384.5v913l184 29v-922q0 -176 92 -276t250 -100q165 0 262.5 111t97.5 300v858zM864 1575l-495 217l73 154l484 -236z" />
    <glyph glyph-name="Uhungarumlaut.c2sc" horiz-adv-x="1103" 
d="M135 406v589l178 29v-606q0 -120 64.5 -192t173.5 -72q112 0 176 71.5t64 192.5v577l178 29v-621q0 -188 -115.5 -303.5t-302.5 -115.5q-185 0 -300.5 116.5t-115.5 305.5zM303 1186l154 334h198l-213 -334h-139zM641 1186l154 334h198l-211 -334h-141z" />
    <glyph glyph-name="Uhungarumlaut.c2sc.ss03" horiz-adv-x="1124" 
d="M791 995l178 29v-1024h-170v113q-112 -131 -297 -131q-165 0 -266 105.5t-101 285.5v622l178 29v-627q0 -119 61 -183t167 -64q110 0 180 73t70 193v579zM303 1186l154 334h198l-213 -334h-139zM641 1186l154 334h198l-211 -334h-141z" />
    <glyph glyph-name="Uhungarumlaut.ss03" horiz-adv-x="1398" 
d="M1040 1419l185 29v-1448h-174v180q-68 -99 -172 -152t-232 -53q-219 0 -356 146.5t-137 384.5v913l184 29v-922q0 -176 92 -276t250 -100q165 0 262.5 111t97.5 300v858zM430 1583l152 322h213l-213 -322h-152zM780 1583l152 322h213l-211 -322h-154z" />
    <glyph glyph-name="Umacron.c2sc" horiz-adv-x="1103" 
d="M135 406v589l178 29v-606q0 -120 64.5 -192t173.5 -72q112 0 176 71.5t64 192.5v577l178 29v-621q0 -188 -115.5 -303.5t-302.5 -115.5q-185 0 -300.5 116.5t-115.5 305.5zM258 1286v146h586v-146h-586z" />
    <glyph glyph-name="Umacron.c2sc.ss03" horiz-adv-x="1124" 
d="M791 995l178 29v-1024h-170v113q-112 -131 -297 -131q-165 0 -266 105.5t-101 285.5v622l178 29v-627q0 -119 61 -183t167 -64q110 0 180 73t70 193v579zM258 1286v146h586v-146h-586z" />
    <glyph glyph-name="Umacron.ss03" horiz-adv-x="1398" 
d="M1040 1419l185 29v-1448h-174v180q-68 -99 -172 -152t-232 -53q-219 0 -356 146.5t-137 384.5v913l184 29v-922q0 -176 92 -276t250 -100q165 0 262.5 111t97.5 300v858zM377 1690v145h627v-145h-627z" />
    <glyph glyph-name="Uogonek.c2sc" horiz-adv-x="1103" 
d="M791 995l178 29v-621q0 -241 -185 -358q-116 -79 -116 -149q0 -31 20.5 -50.5t52.5 -19.5q20 0 47 6v-123q-40 -12 -77 -12q-79 0 -132 51.5t-53 126.5q0 65 33 109h-8q-185 0 -300.5 116.5t-115.5 305.5v589l178 29v-606q0 -120 64.5 -192t173.5 -72q112 0 176 71.5
t64 192.5v577z" />
    <glyph glyph-name="Uogonek.c2sc.ss03" horiz-adv-x="1124" 
d="M848 -150q0 -31 21 -50t53 -19q20 0 47 6v-125q-45 -10 -78 -10q-79 0 -131.5 51.5t-52.5 126.5q0 96 92 176v107q-112 -131 -297 -131q-165 0 -266 105.5t-101 285.5v622l178 29v-627q0 -119 61 -183t167 -64q110 0 180 73t70 193v579l178 29v-1024q-121 -77 -121 -150z
" />
    <glyph glyph-name="Uogonek.ss03" horiz-adv-x="1398" 
d="M1094 -162q0 -33 22 -54.5t58 -21.5q16 0 51 7v-136q-52 -10 -86 -10q-85 0 -142 56.5t-57 136.5q0 112 111 198v166q-68 -99 -172 -152t-232 -53q-219 0 -356 146.5t-137 384.5v913l184 29v-922q0 -176 92 -276t250 -100q165 0 262.5 111t97.5 300v858l185 29v-1448
q-131 -81 -131 -162z" />
    <glyph glyph-name="Uring.c2sc" horiz-adv-x="1103" 
d="M135 406v589l178 29v-606q0 -120 64.5 -192t173.5 -72q112 0 176 71.5t64 192.5v577l178 29v-621q0 -188 -115.5 -303.5t-302.5 -115.5q-185 0 -300.5 116.5t-115.5 305.5zM313 1378q0 94 70 161t168 67t167.5 -67t69.5 -161q0 -95 -69.5 -162t-167.5 -67t-168 67
t-70 162zM672 1378q0 51 -35 85t-86 34t-86 -34t-35 -85t35 -86t86 -35t86 35t35 86z" />
    <glyph glyph-name="Uring.c2sc.ss03" horiz-adv-x="1124" 
d="M791 995l178 29v-1024h-170v113q-112 -131 -297 -131q-165 0 -266 105.5t-101 285.5v622l178 29v-627q0 -119 61 -183t167 -64q110 0 180 73t70 193v579zM313 1378q0 94 70 161t168 67t167.5 -67t69.5 -161q0 -95 -69.5 -162t-167.5 -67t-168 67t-70 162zM672 1378
q0 51 -35 85t-86 34t-86 -34t-35 -85t35 -86t86 -35t86 35t35 86z" />
    <glyph glyph-name="Uring.ss03" horiz-adv-x="1398" 
d="M1040 1419l185 29v-1448h-174v180q-68 -99 -172 -152t-232 -53q-219 0 -356 146.5t-137 384.5v913l184 29v-922q0 -176 92 -276t250 -100q165 0 262.5 111t97.5 300v858zM446 1765q0 96 71 163t173 67t173 -67t71 -163t-71 -162.5t-173 -66.5t-173 66.5t-71 162.5z
M815 1765q0 51 -37 87t-88 36t-88 -36t-37 -87t37 -87t88 -36t88 36t37 87z" />
    <glyph glyph-name="Utilde.c2sc" horiz-adv-x="1103" 
d="M135 406v589l178 29v-606q0 -120 64.5 -192t173.5 -72q112 0 176 71.5t64 192.5v577l178 29v-621q0 -188 -115.5 -303.5t-302.5 -115.5q-185 0 -300.5 116.5t-115.5 305.5zM524 1290q-62 41 -104 41q-37 0 -59.5 -24t-24.5 -62h-125q0 102 58 163.5t151 61.5
q41 0 72.5 -11.5t85.5 -41.5q62 -41 104 -41q37 0 59.5 24.5t24.5 63.5h125q0 -102 -58 -164.5t-151 -62.5q-41 0 -72.5 11.5t-85.5 41.5z" />
    <glyph glyph-name="Utilde.c2sc.ss03" horiz-adv-x="1124" 
d="M791 995l178 29v-1024h-170v113q-112 -131 -297 -131q-165 0 -266 105.5t-101 285.5v622l178 29v-627q0 -119 61 -183t167 -64q110 0 180 73t70 193v579zM524 1290q-62 41 -104 41q-37 0 -59.5 -24t-24.5 -62h-125q0 102 58 163.5t151 61.5q41 0 72.5 -11.5t85.5 -41.5
q62 -41 104 -41q37 0 59.5 24.5t24.5 63.5h125q0 -102 -58 -164.5t-151 -62.5q-41 0 -72.5 11.5t-85.5 41.5z" />
    <glyph glyph-name="Utilde.ss03" horiz-adv-x="1398" 
d="M1040 1419l185 29v-1448h-174v180q-68 -99 -172 -152t-232 -53q-219 0 -356 146.5t-137 384.5v913l184 29v-922q0 -176 92 -276t250 -100q165 0 262.5 111t97.5 300v858zM657 1716q-43 23 -64.5 31t-45.5 8q-38 0 -63 -24.5t-25 -61.5h-125q0 102 60 163.5t155 61.5
q46 0 83.5 -13t90.5 -42q74 -41 111 -41q38 0 63 25.5t25 62.5h125q0 -102 -60.5 -163.5t-155.5 -61.5q-46 0 -83.5 13t-90.5 42z" />
    <glyph glyph-name="V.c2sc" horiz-adv-x="1056" 
d="M834 1010h198l-504 -1053l-503 1053h198l305 -686z" />
    <glyph glyph-name="W.c2sc" horiz-adv-x="1601" 
d="M1567 1010l-437 -1055l-329 729l-330 -729l-436 1055h192l256 -664l318 709l317 -709l254 664h195z" />
    <glyph glyph-name="W.c2sc.ss04" horiz-adv-x="1472" 
d="M1448 1010l-502 -1053l-209 438l-211 -438l-501 1053h190l313 -699l121 267l-207 432h187l108 -238l107 238h186l-207 -432l121 -267l316 699h188z" />
    <glyph glyph-name="W.ss04" horiz-adv-x="2023" 
d="M1991 1434l-676 -1485l-303 639l-301 -639l-678 1485h196l490 -1100l205 440l-312 660h185l215 -467l217 467h182l-311 -660l205 -440l489 1100h197z" />
    <glyph glyph-name="Wacute.c2sc" horiz-adv-x="1601" 
d="M1567 1010l-437 -1055l-329 729l-330 -729l-436 1055h192l256 -664l318 709l317 -709l254 664h195zM641 1161l-74 129l420 256l88 -145z" />
    <glyph glyph-name="Wacute.c2sc.ss04" horiz-adv-x="1472" 
d="M1448 1010l-502 -1053l-209 438l-211 -438l-501 1053h190l313 -699l121 267l-207 432h187l108 -238l107 238h186l-207 -432l121 -267l316 699h188zM575 1161l-73 129l420 256l88 -145z" />
    <glyph glyph-name="Wacute.ss04" horiz-adv-x="2023" 
d="M1991 1434l-676 -1485l-303 639l-301 -639l-678 1485h196l490 -1100l205 440l-312 660h185l215 -467l217 467h182l-311 -660l205 -440l489 1100h197zM838 1575l-62 135l484 236l73 -154z" />
    <glyph glyph-name="Wcircumflex.c2sc" horiz-adv-x="1601" 
d="M1567 1010l-437 -1055l-329 729l-330 -729l-436 1055h192l256 -664l318 709l317 -709l254 664h195zM1120 1260l-90 -103l-229 197l-230 -197l-90 103l320 288z" />
    <glyph glyph-name="Wcircumflex.c2sc.ss04" horiz-adv-x="1472" 
d="M1448 1010l-502 -1053l-209 438l-211 -438l-501 1053h190l313 -699l121 267l-207 432h187l108 -238l107 238h186l-207 -432l121 -267l316 699h188zM1055 1260l-90 -103l-230 197l-229 -197l-90 103l319 288z" />
    <glyph glyph-name="Wcircumflex.ss04" horiz-adv-x="2023" 
d="M1991 1434l-676 -1485l-303 639l-301 -639l-678 1485h196l490 -1100l205 440l-312 660h185l215 -467l217 467h182l-311 -660l205 -440l489 1100h197zM1331 1667l-90 -100l-229 196l-230 -196l-90 100l320 291z" />
    <glyph glyph-name="Wdieresis.c2sc" horiz-adv-x="1601" 
d="M1567 1010l-437 -1055l-329 729l-330 -729l-436 1055h192l256 -664l318 709l317 -709l254 664h195zM500 1335q0 44 32 75.5t76 31.5t76.5 -31.5t32.5 -75.5t-32.5 -76t-76.5 -32t-76 32t-32 76zM885 1335q0 44 32 75.5t76 31.5t76.5 -31.5t32.5 -75.5t-32.5 -76
t-76.5 -32q-47 0 -77.5 31.5t-30.5 76.5z" />
    <glyph glyph-name="Wdieresis.c2sc.ss04" horiz-adv-x="1472" 
d="M1448 1010l-502 -1053l-209 438l-211 -438l-501 1053h190l313 -699l121 267l-207 432h187l108 -238l107 238h186l-207 -432l121 -267l316 699h188zM434 1335q0 44 32.5 75.5t76.5 31.5t76 -31.5t32 -75.5t-32 -76t-76 -32t-76.5 32t-32.5 76zM819 1335q0 44 32.5 75.5
t76.5 31.5t76 -31.5t32 -75.5t-32 -76t-76 -32q-47 0 -78 31.5t-31 76.5z" />
    <glyph glyph-name="Wdieresis.c2sc.ss04.ss08" horiz-adv-x="1472" 
d="M1448 1010l-502 -1053l-209 438l-211 -438l-501 1053h190l313 -699l121 267l-207 432h187l108 -238l107 238h186l-207 -432l121 -267l316 699h188zM543 1206l-129 129l129 127l131 -127zM928 1206l-131 129l131 127l129 -127z" />
    <glyph glyph-name="Wdieresis.c2sc.ss08" horiz-adv-x="1601" 
d="M1567 1010l-437 -1055l-329 729l-330 -729l-436 1055h192l256 -664l318 709l317 -709l254 664h195zM608 1206l-129 129l129 127l131 -127zM993 1206l-131 129l131 127l129 -127z" />
    <glyph glyph-name="Wdieresis.ss04" horiz-adv-x="2023" 
d="M1991 1434l-676 -1485l-303 639l-301 -639l-678 1485h196l490 -1100l205 440l-312 660h185l215 -467l217 467h182l-311 -660l205 -440l489 1100h197zM639 1739q0 51 36 86t87 35q54 0 89.5 -35t35.5 -86t-35.5 -87t-89.5 -36q-53 0 -88 35.5t-35 87.5zM1137 1739
q0 51 35.5 86t89.5 35q51 0 86.5 -35t35.5 -86t-35.5 -87t-86.5 -36q-54 0 -89.5 36t-35.5 87z" />
    <glyph glyph-name="Wdieresis.ss04.ss08" horiz-adv-x="2023" 
d="M1991 1434l-676 -1485l-303 639l-301 -639l-678 1485h196l490 -1100l205 440l-312 660h185l215 -467l217 467h182l-311 -660l205 -440l489 1100h197zM762 1593l-146 146l146 143l147 -143zM1262 1593l-148 146l148 143l145 -143z" />
    <glyph glyph-name="Wdieresis.ss08" horiz-adv-x="2025" 
d="M1982 1434l-509 -1487l-459 1083l-461 -1083l-510 1487h193l337 -1010l439 1034l438 -1036l340 1012h192zM762 1593l-146 146l146 143l147 -143zM1262 1593l-148 146l148 143l145 -143z" />
    <glyph glyph-name="Wgrave.c2sc" horiz-adv-x="1601" 
d="M1567 1010l-437 -1055l-329 729l-330 -729l-436 1055h192l256 -664l318 709l317 -709l254 664h195zM981 1161l-434 240l88 145l420 -256z" />
    <glyph glyph-name="Wgrave.c2sc.ss04" horiz-adv-x="1472" 
d="M1448 1010l-502 -1053l-209 438l-211 -438l-501 1053h190l313 -699l121 267l-207 432h187l108 -238l107 238h186l-207 -432l121 -267l316 699h188zM915 1161l-434 240l88 145l420 -256z" />
    <glyph glyph-name="Wgrave.ss04" horiz-adv-x="2023" 
d="M1991 1434l-676 -1485l-303 639l-301 -639l-678 1485h196l490 -1100l205 440l-312 660h185l215 -467l217 467h182l-311 -660l205 -440l489 1100h197zM1186 1575l-496 217l74 154l483 -236z" />
    <glyph glyph-name="X.c2sc" horiz-adv-x="1089" 
d="M1044 0h-219l-280 395l-281 -395h-219l389 520l-364 490h215l260 -369l260 369h215l-365 -490z" />
    <glyph glyph-name="Y.c2sc" horiz-adv-x="991" 
d="M965 1010l-379 -627v-383h-180v383l-379 627h202l267 -459l266 459h203z" />
    <glyph glyph-name="Y.c2sc.ss05" horiz-adv-x="985" 
d="M768 1010h201l-619 -1010h-200l253 395l-370 615h198l269 -459z" />
    <glyph glyph-name="Y.ss05" horiz-adv-x="1206" 
d="M952 1434h205l-741 -1434h-205l307 569l-448 865h204l340 -674z" />
    <glyph glyph-name="Yacute.c2sc" horiz-adv-x="991" 
d="M965 1010l-379 -627v-383h-180v383l-379 627h202l267 -459l266 459h203zM336 1161l-74 129l420 256l88 -145z" />
    <glyph glyph-name="Yacute.c2sc.ss05" horiz-adv-x="985" 
d="M768 1010h201l-619 -1010h-200l253 395l-370 615h198l269 -459zM334 1161l-74 129l420 256l88 -145z" />
    <glyph glyph-name="Yacute.ss05" horiz-adv-x="1206" 
d="M952 1434h205l-741 -1434h-205l307 569l-448 865h204l340 -674zM440 1575l-61 135l483 236l74 -154z" />
    <glyph glyph-name="Ycircumflex.c2sc" horiz-adv-x="991" 
d="M965 1010l-379 -627v-383h-180v383l-379 627h202l267 -459l266 459h203zM815 1260l-90 -103l-229 197l-230 -197l-90 103l320 288z" />
    <glyph glyph-name="Ycircumflex.c2sc.ss05" horiz-adv-x="985" 
d="M768 1010h201l-619 -1010h-200l253 395l-370 615h198l269 -459zM813 1260l-90 -103l-229 197l-230 -197l-90 103l320 288z" />
    <glyph glyph-name="Ycircumflex.ss05" horiz-adv-x="1206" 
d="M952 1434h205l-741 -1434h-205l307 569l-448 865h204l340 -674zM934 1667l-90 -100l-230 196l-229 -196l-90 100l319 291z" />
    <glyph glyph-name="Ydieresis.c2sc" horiz-adv-x="991" 
d="M965 1010l-379 -627v-383h-180v383l-379 627h202l267 -459l266 459h203zM195 1335q0 44 32 75.5t76 31.5t76.5 -31.5t32.5 -75.5t-32.5 -76t-76.5 -32t-76 32t-32 76zM580 1335q0 44 32 75.5t76 31.5t76.5 -31.5t32.5 -75.5t-32.5 -76t-76.5 -32q-47 0 -77.5 31.5
t-30.5 76.5z" />
    <glyph glyph-name="Ydieresis.c2sc.ss05" horiz-adv-x="985" 
d="M768 1010h201l-619 -1010h-200l253 395l-370 615h198l269 -459zM193 1335q0 44 32 75.5t76 31.5t76.5 -31.5t32.5 -75.5t-32.5 -76t-76.5 -32t-76 32t-32 76zM578 1335q0 44 32 75.5t76 31.5t76.5 -31.5t32.5 -75.5t-32.5 -76t-76.5 -32q-47 0 -77.5 31.5t-30.5 76.5z
" />
    <glyph glyph-name="Ydieresis.c2sc.ss05.ss08" horiz-adv-x="985" 
d="M768 1010h201l-619 -1010h-200l253 395l-370 615h198l269 -459zM301 1206l-129 129l129 127l131 -127zM686 1206l-131 129l131 127l129 -127z" />
    <glyph glyph-name="Ydieresis.c2sc.ss08" horiz-adv-x="991" 
d="M965 1010l-379 -627v-383h-180v383l-379 627h202l267 -459l266 459h203zM303 1206l-129 129l129 127l131 -127zM688 1206l-131 129l131 127l129 -127z" />
    <glyph glyph-name="Ydieresis.ss05" horiz-adv-x="1206" 
d="M952 1434h205l-741 -1434h-205l307 569l-448 865h204l340 -674zM242 1739q0 51 36 86t87 35q54 0 89 -35t35 -86q0 -52 -35.5 -87.5t-88.5 -35.5t-88 35.5t-35 87.5zM739 1739q0 51 35.5 86t89.5 35q51 0 87 -35t36 -86t-36 -87t-87 -36q-54 0 -89.5 36t-35.5 87z" />
    <glyph glyph-name="Ydieresis.ss05.ss08" horiz-adv-x="1206" 
d="M952 1434h205l-741 -1434h-205l307 569l-448 865h204l340 -674zM365 1593l-146 146l146 143l147 -143zM864 1593l-147 146l147 143l146 -143z" />
    <glyph glyph-name="Ydieresis.ss08" horiz-adv-x="1206" 
d="M1147 1434l-451 -873v-561h-184v557l-453 877h205l340 -678l338 678h205zM354 1593l-145 146l145 143l148 -143zM854 1593l-147 146l147 143l145 -143z" />
    <glyph glyph-name="Ygrave.c2sc" horiz-adv-x="991" 
d="M965 1010l-379 -627v-383h-180v383l-379 627h202l267 -459l266 459h203zM676 1161l-434 240l88 145l420 -256z" />
    <glyph glyph-name="Ygrave.c2sc.ss05" horiz-adv-x="985" 
d="M768 1010h201l-619 -1010h-200l253 395l-370 615h198l269 -459zM674 1161l-434 240l88 145l420 -256z" />
    <glyph glyph-name="Ygrave.ss05" horiz-adv-x="1206" 
d="M952 1434h205l-741 -1434h-205l307 569l-448 865h204l340 -674zM788 1575l-495 217l74 154l483 -236z" />
    <glyph glyph-name="Z.c2sc" horiz-adv-x="1021" 
d="M950 1010l-569 -848h551l-31 -162h-829l569 848h-543l29 162h823z" />
    <glyph glyph-name="Zacute.c2sc" horiz-adv-x="1021" 
d="M950 1010l-569 -848h551l-31 -162h-829l569 848h-543l29 162h823zM350 1161l-74 129l420 256l88 -145z" />
    <glyph glyph-name="Zcaron.c2sc" horiz-adv-x="1021" 
d="M950 1010l-569 -848h551l-31 -162h-829l569 848h-543l29 162h823zM741 1546l90 -102l-319 -289l-319 289l90 102l229 -196z" />
    <glyph glyph-name="Zdotaccent.c2sc" horiz-adv-x="1021" 
d="M950 1010l-569 -848h551l-31 -162h-829l569 848h-543l29 162h823zM393 1354q0 47 34 80.5t83 33.5t83 -33.5t34 -80.5q0 -50 -33.5 -83.5t-83.5 -33.5t-83.5 33.5t-33.5 83.5z" />
    <glyph glyph-name="Zdotaccent.c2sc.ss08" horiz-adv-x="1021" 
d="M950 1010l-569 -848h551l-31 -162h-829l569 848h-543l29 162h823zM510 1212l-143 142l143 141l143 -141z" />
    <glyph glyph-name="Zdotaccent.ss08" horiz-adv-x="1323" 
d="M1221 1434l-797 -1260h784l-30 -174h-1076l797 1260h-756l31 174h1047zM664 1612l-158 155l158 156l157 -156z" />
    <glyph glyph-name="a.ss11" horiz-adv-x="1183" 
d="M864 895l170 29v-924h-168v133q-61 -73 -145.5 -113t-181.5 -40q-190 0 -325.5 138t-135.5 335q0 198 135.5 336.5t325.5 138.5q198 0 325 -152v119zM870 455q0 134 -90.5 227.5t-220.5 93.5q-129 0 -219 -93.5t-90 -227.5q0 -136 90 -229t219 -93q131 0 221 93t90 229z
" />
    <glyph glyph-name="aacute.ss11" horiz-adv-x="1183" 
d="M864 895l170 29v-924h-168v133q-61 -73 -145.5 -113t-181.5 -40q-190 0 -325.5 138t-135.5 335q0 198 135.5 336.5t325.5 138.5q198 0 325 -152v119zM870 455q0 134 -90.5 227.5t-220.5 93.5q-129 0 -219 -93.5t-90 -227.5q0 -136 90 -229t219 -93q131 0 221 93t90 229z
M418 1059l-74 129l420 256l88 -146z" />
    <glyph glyph-name="abreve.ss11" horiz-adv-x="1183" 
d="M864 895l170 29v-924h-168v133q-61 -73 -145.5 -113t-181.5 -40q-190 0 -325.5 138t-135.5 335q0 198 135.5 336.5t325.5 138.5q198 0 325 -152v119zM870 455q0 134 -90.5 227.5t-220.5 93.5q-129 0 -219 -93.5t-90 -227.5q0 -136 90 -229t219 -93q131 0 221 93t90 229z
M262 1397h141q0 -75 50 -124.5t125 -49.5t124.5 49.5t49.5 124.5h141q0 -133 -90.5 -223.5t-224.5 -90.5t-225 90.5t-91 223.5z" />
    <glyph glyph-name="acircumflex.ss11" horiz-adv-x="1183" 
d="M864 895l170 29v-924h-168v133q-61 -73 -145.5 -113t-181.5 -40q-190 0 -325.5 138t-135.5 335q0 198 135.5 336.5t325.5 138.5q198 0 325 -152v119zM870 455q0 134 -90.5 227.5t-220.5 93.5q-129 0 -219 -93.5t-90 -227.5q0 -136 90 -229t219 -93q131 0 221 93t90 229z
M897 1157l-90 -102l-229 196l-230 -196l-90 102l320 289z" />
    <glyph glyph-name="adieresis.ss08" horiz-adv-x="933" 
d="M809 0h-158l-6 59q-95 -82 -227 -82q-142 0 -241 97t-99 235q0 137 99 233.5t243 96.5q122 0 213 -76v49q0 89 -45.5 130.5t-149.5 41.5q-100 0 -221 -41l29 150q100 33 207 33q169 0 258.5 -78t89.5 -221v-455zM645 309q0 83 -59 139t-144 56t-142.5 -56t-57.5 -139
q0 -80 58 -136t142 -56q85 0 144 56t59 136zM281 1104l-129 129l129 127l131 -127zM666 1104l-131 129l131 127l129 -127z" />
    <glyph glyph-name="adieresis.ss08.ss11" horiz-adv-x="1183" 
d="M864 895l170 29v-924h-168v133q-61 -73 -145.5 -113t-181.5 -40q-190 0 -325.5 138t-135.5 335q0 198 135.5 336.5t325.5 138.5q198 0 325 -152v119zM870 455q0 134 -90.5 227.5t-220.5 93.5q-129 0 -219 -93.5t-90 -227.5q0 -136 90 -229t219 -93q131 0 221 93t90 229z
M385 1104l-129 129l129 127l131 -127zM770 1104l-131 129l131 127l129 -127z" />
    <glyph glyph-name="adieresis.ss11" horiz-adv-x="1183" 
d="M864 895l170 29v-924h-168v133q-61 -73 -145.5 -113t-181.5 -40q-190 0 -325.5 138t-135.5 335q0 198 135.5 336.5t325.5 138.5q198 0 325 -152v119zM870 455q0 134 -90.5 227.5t-220.5 93.5q-129 0 -219 -93.5t-90 -227.5q0 -136 90 -229t219 -93q131 0 221 93t90 229z
M276 1233q0 44 32 75t77 31t77 -31t32 -75t-32.5 -76.5t-76.5 -32.5t-76.5 32.5t-32.5 76.5zM662 1233q0 44 32 75t76 31q45 0 77 -31t32 -75t-32.5 -76.5t-76.5 -32.5q-46 0 -77 32t-31 77z" />
    <glyph glyph-name="agrave.ss11" horiz-adv-x="1183" 
d="M864 895l170 29v-924h-168v133q-61 -73 -145.5 -113t-181.5 -40q-190 0 -325.5 138t-135.5 335q0 198 135.5 336.5t325.5 138.5q198 0 325 -152v119zM870 455q0 134 -90.5 227.5t-220.5 93.5q-129 0 -219 -93.5t-90 -227.5q0 -136 90 -229t219 -93q131 0 221 93t90 229z
M758 1059l-434 239l88 146l419 -256z" />
    <glyph glyph-name="amacron.ss11" horiz-adv-x="1183" 
d="M864 895l170 29v-924h-168v133q-61 -73 -145.5 -113t-181.5 -40q-190 0 -325.5 138t-135.5 335q0 198 135.5 336.5t325.5 138.5q198 0 325 -152v119zM870 455q0 134 -90.5 227.5t-220.5 93.5q-129 0 -219 -93.5t-90 -227.5q0 -136 90 -229t219 -93q131 0 221 93t90 229z
M285 1184v145h585v-145h-585z" />
    <glyph glyph-name="aogonek.ss11" horiz-adv-x="1183" 
d="M913 -150q0 -31 21 -50t53 -19q20 0 47 6v-125q-45 -10 -78 -10q-79 0 -131.5 51.5t-52.5 126.5q0 96 94 178v125q-61 -73 -145.5 -113t-181.5 -40q-190 0 -325.5 138t-135.5 335q0 198 135.5 336.5t325.5 138.5q198 0 325 -152v119l170 29v-924q-121 -77 -121 -150z
M870 455q0 134 -90.5 227.5t-220.5 93.5q-129 0 -219 -93.5t-90 -227.5q0 -136 90 -229t219 -93q131 0 221 93t90 229z" />
    <glyph glyph-name="aring.ss11" horiz-adv-x="1183" 
d="M864 895l170 29v-924h-168v133q-61 -73 -145.5 -113t-181.5 -40q-190 0 -325.5 138t-135.5 335q0 198 135.5 336.5t325.5 138.5q198 0 325 -152v119zM870 455q0 134 -90.5 227.5t-220.5 93.5q-129 0 -219 -93.5t-90 -227.5q0 -136 90 -229t219 -93q131 0 221 93t90 229z
M340 1276q0 94 70 160.5t168 66.5t167.5 -66.5t69.5 -160.5q0 -95 -69.5 -162t-167.5 -67t-168 67t-70 162zM698 1276q0 51 -34.5 85t-85.5 34t-86 -34t-35 -85t35 -86t86 -35t85.5 35t34.5 86z" />
    </font>
</defs>
</svg>
