<?xml version="1.0" encoding="utf-8"?>
<!-- Generator: Adobe Illustrator 26.0.2, SVG Export Plug-In . SVG Version: 6.00 Build 0)  -->
<svg version="1.1" id="Layer_1" xmlns="http://www.w3.org/2000/svg" xmlns:xlink="http://www.w3.org/1999/xlink" x="0px" y="0px"
	 viewBox="0 0 40 40" style="enable-background:new 0 0 40 40;" xml:space="preserve">
<style type="text/css">
	.st0{fill:#C1A633;}
	.st1{fill:#FEFDFD;}
</style>
<circle class="st0" cx="19.9" cy="20" r="19.9"/>
<path class="st1" d="M13.6,29.3c0-2.8,0-5.5,0-8.4c-0.8,0-1.5,0-2.2,0c0-0.7,0-1.3,0-2c0.7-0.2,1.4,0,2.2-0.1c0.1-2.8,0-5.5,0-8.3
	c0.1-0.2,0.3-0.2,0.5-0.2c2.1,0,4.3-0.1,6.4,0c1.4,0.1,2.7,0.4,4,1c2.4,1.2,3.8,3.3,4.3,5.9c0.4,2.1,0.4,4.3-0.2,6.4
	c-0.9,3-2.9,4.7-5.9,5.5c-0.8,0.2-1.7,0.2-2.5,0.2c-1.9,0-3.7,0-5.6,0C14.3,29.4,14,29.5,13.6,29.3z M21.2,18.8
	c0,0.7,0.1,1.4-0.1,2.1c-1.3,0-2.6,0-3.8,0c0,1.7,0,3.3,0,5c1.4,0,2.8,0.1,4.1-0.2c2-0.4,3.3-1.6,3.8-3.7c0.3-1.1,0.3-2.2,0.1-3.3
	c-0.2-1.7-1-3.2-2.6-4.1c-1.7-1-3.6-0.9-5.5-0.8c0,1.7,0,3.3,0,5C18.6,18.8,19.8,18.8,21.2,18.8z"/>
</svg>
