<svg xmlns="http://www.w3.org/2000/svg" xmlns:xlink="http://www.w3.org/1999/xlink" width="66" height="66" viewBox="0 0 66 66"><defs><filter id="a" x="0" y="0" width="66" height="66" filterUnits="userSpaceOnUse"><feOffset dx="2" dy="3" input="SourceAlpha"/><feGaussianBlur stdDeviation="3" result="b"/><feFlood flood-opacity="0.659"/><feComposite operator="in" in2="b"/><feComposite in="SourceGraphic"/></filter></defs><g transform="translate(7 6)"><g transform="matrix(1, 0, 0, 1, -7, -6)" filter="url(#a)"><rect width="48" height="48" rx="8" transform="translate(7 6)" fill="#333"/></g><g transform="translate(13 12)"><path d="M6.937,6H24a2.372,2.372,0,0,1,2.437,2.3V24.412A2.372,2.372,0,0,1,24,26.714H6.937a2.372,2.372,0,0,1-2.437-2.3V8.3A2.372,2.372,0,0,1,6.937,6Z" transform="translate(-4.5 -2.345)" fill="none" stroke="#ff6d00" stroke-linecap="round" stroke-linejoin="round" stroke-width="2"/><path d="M24,3v7.311" transform="translate(-8.16 -3)" fill="none" stroke="#ff6d00" stroke-linecap="round" stroke-linejoin="round" stroke-width="2"/><path d="M12,3v7.311" transform="translate(-5.908 -3)" fill="none" stroke="#ff6d00" stroke-linecap="round" stroke-linejoin="round" stroke-width="2"/><path d="M4.5,15H26.432" transform="translate(-4.5 -5.252)" fill="none" stroke="#ff6d00" stroke-linecap="round" stroke-linejoin="round" stroke-width="2"/></g></g></svg>