<svg id="a8a2a6a2-e6e0-42f4-8f4f-de1ac9517c8b" data-name="IAC" xmlns="http://www.w3.org/2000/svg" viewBox="0 0 400 400"><title>lwb</title><path d="M336.35,89.06A36.1,36.1,0,0,0,303.88,69H191.1a75.72,75.72,0,0,0-56.56,25.39L79.89,155.87a75.79,75.79,0,0,0-19.07,51L70.55,282h0a49.66,49.66,0,0,0,14.07,28.6,49.12,49.12,0,0,0,35,14.48H316.9a23.31,23.31,0,0,0,23.28-23.28V105.3A36.48,36.48,0,0,0,336.35,89.06ZM328.54,301.8h0a11.66,11.66,0,0,1-11.64,11.64H119.63A37.56,37.56,0,0,1,92.9,302.37,38,38,0,0,1,82.14,280.5l-9.68-74.37A64,64,0,0,1,88.63,163.6l54.64-61.47a64.09,64.09,0,0,1,47.85-21.48H303.89a24.66,24.66,0,0,1,24.66,24.66Z"/><path d="M315.53,99.48a12.93,12.93,0,0,0-11.64-7.2H191.12A52.43,52.43,0,0,0,152,109.86L97.32,171.33c-6.87,7.74-13.23,16.91-13.23,31.53a5.82,5.82,0,0,0,5.82,5.82H311.08a5.82,5.82,0,0,0,5.82-5.82V105.3A13.08,13.08,0,0,0,315.53,99.48ZM305.26,197H96.2c1.07-6.16,4.05-11.48,9.82-18l54.64-61.47a40.79,40.79,0,0,1,30.45-13.68H303.89c.54,0,1,.27,1.38,1.38Z"/><path d="M311.08,232H276.16a5.82,5.82,0,0,0,0,11.64h34.92a5.82,5.82,0,0,0,0-11.64Z"/><path d="M187.15,117.27a5.82,5.82,0,0,0-8.23,0l-11.64,11.64a5.82,5.82,0,1,0,8.23,8.23l11.64-11.64A5.82,5.82,0,0,0,187.15,117.27Z"/><path d="M210.44,117.27a5.82,5.82,0,0,0-8.23,0l-34.92,34.92a5.82,5.82,0,1,0,8.23,8.23l34.92-34.92A5.82,5.82,0,0,0,210.44,117.27Z"/><path d="M311.08,266.88H101.56a5.82,5.82,0,1,0,0,11.64H311.08a5.82,5.82,0,0,0,0-11.64Z"/></svg>
