<svg id="ecfdbe24-e5ae-4195-a38d-8a75886a6888" data-name="IAC" xmlns="http://www.w3.org/2000/svg" viewBox="0 0 400 400"><title>switch</title><path d="M313.3,116H89.7a17.44,17.44,0,0,0-17.42,17.42V267.58A17.44,17.44,0,0,0,89.7,285H313.3a17.44,17.44,0,0,0,17.42-17.42V133.42A17.44,17.44,0,0,0,313.3,116ZM207.74,128.48H313.3a4.94,4.94,0,0,1,4.94,4.94V267.58a5,5,0,0,1-4.94,4.94H207.74Zm-123,4.94a4.94,4.94,0,0,1,4.94-4.94H195.26v144H89.7a5,5,0,0,1-4.94-4.94Z"/><path d="M140,234.69a34.19,34.19,0,1,0-34.19-34.19A34.23,34.23,0,0,0,140,234.69Zm0-55.9A21.71,21.71,0,1,1,118.3,200.5,21.73,21.73,0,0,1,140,178.79Z"/><path d="M290.94,194.26H235a6.24,6.24,0,1,0,0,12.48h55.9a6.24,6.24,0,0,0,0-12.48Z"/></svg>
