<svg id="1bafd395-0a78-4193-84c2-a7af29bb6527" data-name="IAC" xmlns="http://www.w3.org/2000/svg" viewBox="0 0 400 400"><title>deco-denali</title><path d="M324.62,250.78a32.35,32.35,0,0,1-5-.39L156.72,224.83a37.87,37.87,0,0,1-26.94-18.4l-.08-.13a18.53,18.53,0,0,0-13.55-8.87l-54.89-6.86A33,33,0,0,1,38.54,177l-7.65-10.71A9.93,9.93,0,0,1,39,150.62H353.19a19.3,19.3,0,0,1,18.38,25.16l-16.89,52.93A31.48,31.48,0,0,1,324.62,250.78ZM139.36,201A26.91,26.91,0,0,0,158.42,214l162.89,25.55a20.57,20.57,0,0,0,22.9-14.14l16.89-52.93a8.3,8.3,0,0,0-7.9-10.82H41.05l6.44,9a22,22,0,0,0,15.12,9l54.89,6.86a29.59,29.59,0,0,1,21.76,14.37Z"/></svg>
