<svg id="c191c9a0-6d36-4d69-ae6c-2fec1616cd45" data-name="IAC" xmlns="http://www.w3.org/2000/svg" viewBox="0 0 400 400"><title>diaper</title><path d="M197.93,322.5H96.38a16.28,16.28,0,0,1-16.11-14.57L56.52,183.5a36.92,36.92,0,0,1,10.29-33.19l4-3.91,8.08-8a8.93,8.93,0,0,0,1.95-9.82l-12.17-29a16.21,16.21,0,0,1,1-14.49,15.13,15.13,0,0,1,11.54-7.44,16.35,16.35,0,0,1,1.65-.08h91A16.21,16.21,0,0,1,190,94.45l-1,22.77a5.21,5.21,0,0,0,5.2,5.45H330.07c7.39,0,13.22,6.33,16.21,12.25,3.57,7.07,3.84,14.34.79,19.28-2.09,6.32-16.57,48.17-45.75,87.09s-47.24,57.55-49.55,59.89C244.38,310,207.46,322.5,197.93,322.5ZM82.83,88.5l-.54,0a4.21,4.21,0,0,0-3.2,2.12,5.17,5.17,0,0,0-.34,4.62l12.17,29a19.88,19.88,0,0,1-4.34,21.87l-8.09,8-3.95,3.91a25.93,25.93,0,0,0-7.23,23.32l23.86,125,0,.3a5.22,5.22,0,0,0,5.18,4.78H197.93c7.87,0,41.41-12.15,45.29-17.27l.23-.3.3-.32c.18-.18,18.62-18.76,48.75-58.94,29.88-39.85,44.18-84.14,44.32-84.58l.28-.87.54-.73c.92-1.25.73-4.82-1.19-8.63s-4.78-6.21-6.38-6.21H194.19A16.21,16.21,0,0,1,178,116.71l1-22.77a5.21,5.21,0,0,0-5.21-5.45Z"/><path d="M278.85,168.18H253.32c-4.28,0-7.75-3.07-7.75-6.84s3.48-6.84,7.75-6.84h25.53c4.28,0,7.75,3.07,7.75,6.84S283.12,168.18,278.85,168.18Z"/><path d="M278.85,193.72H125.67c-4.28,0-7.75-3.07-7.75-6.84s3.48-6.84,7.75-6.84H278.85c4.28,0,7.75,3.07,7.75,6.84S283.12,193.72,278.85,193.72Z"/></svg>
