<svg id="189b59c1-d65d-4a0c-8ecd-54b40895c453" data-name="IAC" xmlns="http://www.w3.org/2000/svg" viewBox="0 0 400 400"><title>speaker</title><path d="M211,117.19a9.27,9.27,0,1,0-3.17-12.72A9.27,9.27,0,0,0,211,117.19Zm2.48-9.32a2.67,2.67,0,1,1,.91,3.67A2.67,2.67,0,0,1,213.45,107.87Z"/><path d="M119.56,269.36a9.27,9.27,0,1,0,3.17,12.72A9.27,9.27,0,0,0,119.56,269.36Zm-2.48,9.32a2.67,2.67,0,1,1-.91-3.67A2.67,2.67,0,0,1,117.08,278.68Z"/><path d="M265.12,161.6a9.26,9.26,0,1,0,3.18,12.71A9.26,9.26,0,0,0,265.12,161.6ZM261,172.14a2.67,2.67,0,0,1-3.24-1.94h0a2.66,2.66,0,0,1,1.93-3.23h0a2.67,2.67,0,1,1,1.3,5.18Z"/><path d="M79.15,214.76A9.27,9.27,0,1,0,72.4,226a9.28,9.28,0,0,0,6.75-11.24Zm-8.35,4.83h0a2.67,2.67,0,1,1,1.94-3.24h0A2.67,2.67,0,0,1,70.8,219.59Z"/><path d="M254.06,235.8a9.27,9.27,0,1,0,3.17,12.72A9.27,9.27,0,0,0,254.06,235.8Zm-2.48,9.32a2.67,2.67,0,1,1-.91-3.67A2.67,2.67,0,0,1,251.58,245.12Z"/><path d="M89.18,147.58a9.27,9.27,0,1,0-12.72,3.17A9.28,9.28,0,0,0,89.18,147.58Zm-5.66-3.4a2.67,2.67,0,1,1-.91-3.67A2.67,2.67,0,0,1,83.53,144.18Z"/><path d="M198,286.14a9.27,9.27,0,1,0-6.75,11.24A9.28,9.28,0,0,0,198,286.14ZM189.63,291h0a2.67,2.67,0,1,1,1.94-3.24h0A2.67,2.67,0,0,1,189.63,291Z"/><path d="M136.77,106.11a9.26,9.26,0,1,0-4.22-5.7A9.26,9.26,0,0,0,136.77,106.11Zm4.11-10.53h0A2.67,2.67,0,1,1,139,98.82h0A2.66,2.66,0,0,1,140.88,95.58Z"/><path d="M359.16,205.13a15.61,15.61,0,0,0-14-8.21h-.35c-9.8.19-19.88,8.17-26.3,20.84-33.73,66.46-49.44,67.48-52.25,67s-3.91-3.48-4.11-4.26A130.31,130.31,0,0,0,277,260.39a128.93,128.93,0,0,0,17.2-85.79,130.35,130.35,0,1,0-39.48,113.48,14.64,14.64,0,0,0,12.94,6.76c15.73-.63,35.26-24.36,59.72-72.55,5.68-11.2,13-15.28,17.57-15.37a5.72,5.72,0,0,1,5.42,3.08c3.08,5.52,1.91,18.33-10.62,37.75-11.6,18-28.86,36.45-40.08,47.66A10.5,10.5,0,0,0,286.93,297l-24.14,24.13a10.52,10.52,0,0,0,0,14.85l6.6,6.59a10.49,10.49,0,0,0,14.84,0l24.14-24.13a10.5,10.5,0,0,0,0-14.85L307,302.27c11.51-11.51,29-30.29,41.16-49.1C361.07,233.23,365.06,215.71,359.16,205.13Zm-255.72,91A120,120,0,1,1,268.15,255,120,120,0,0,1,103.44,296.13Z"/><path d="M243.42,187.37a77.65,77.65,0,0,0-12.29-36.56q-.82-1.26-1.69-2.5c-1.5-2.13-3.1-4.17-4.73-6.06-.91-1.05-1.78-2-2.67-2.94a78.34,78.34,0,0,0-15.2-12.42c-2.09-1.32-4.35-2.58-6.72-3.76-.92-.45-1.84-.87-2.77-1.29a78,78,0,0,0-16.12-5.2,79,79,0,0,0-16-1.63,77.72,77.72,0,0,0-42.41,12.5c-1,.64-1.82,1.19-2.58,1.72-2.08,1.47-4.12,3.06-6.07,4.73-1,.91-2,1.78-2.94,2.67a78.76,78.76,0,0,0-12.42,15.21c-1.37,2.18-2.63,4.44-3.74,6.7-.48,1-.91,1.91-1.31,2.79a78.54,78.54,0,0,0-1.9,59.46,77.24,77.24,0,0,0,7.56,15c.54.83,1.12,1.73,1.73,2.58,1.51,2.15,3.1,4.19,4.72,6.06.86,1,1.75,2,2.66,2.95a78.37,78.37,0,0,0,15.2,12.42c2.09,1.32,4.35,2.58,6.72,3.76.92.45,1.85.87,2.77,1.29a78,78,0,0,0,16.12,5.2,79.07,79.07,0,0,0,16,1.63,77.72,77.72,0,0,0,42.41-12.5c1-.63,1.8-1.18,2.58-1.72,2.08-1.47,4.12-3.06,6.07-4.73,1-.9,2-1.77,2.94-2.67a78.21,78.21,0,0,0,12.37-15.2c1.37-2.2,2.64-4.45,3.75-6.71l.11-.22c.42-.86.84-1.7,1.23-2.57a78.47,78.47,0,0,0,6.62-38Zm-25,49.28q-1.11,1.36-2.28,2.66l-.19-2.47ZM229,167.74l.12,1.66-18.17,1.38-1.38-18.17,10.38-.79A68.13,68.13,0,0,1,229,167.74Zm4.72,20.36a69.08,69.08,0,0,1,.08,9.18L213,198.85l-1.38-18.17,20.74-1.58A68.71,68.71,0,0,1,233.68,188.1Zm-18.5,38.83-1.38-18.18L232,207.38l.11,1.49a68.55,68.55,0,0,1-6.6,17.27Zm-25.94,30.21L187.85,239,206,237.58l.78,10.3A68.2,68.2,0,0,1,190.74,257Zm-38,2.89-1.65.12a68,68,0,0,1-17.11-6.53l-.79-10.38,18.17-1.38Zm-9.92-130.47,1.38,18.17-18.18,1.38-.8-10.46a68.22,68.22,0,0,1,15.72-9Zm2.13,28.07,1.38,18.17-18.17,1.38L125.3,159ZM147,203.88l-18.17,1.38-1.38-18.17,18.18-1.38Zm25.94-30.21-18.17,1.38-1.38-18.18,18.18-1.38Zm-2.13-28.07L152.63,147,151,126.17a70.51,70.51,0,0,1,9-1.29c1.72-.13,3.46-.2,5.19-.2,1.31,0,2.64,0,4,.12ZM149.12,232,131,233.34l-1.38-18.18,18.18-1.38Zm25.95-30.21-18.18,1.38L155.52,185l18.17-1.38Zm4.25-75.07,1.81-.14a68.69,68.69,0,0,1,17,6.51l.79,10.41-18.17,1.38ZM201,171.53l-18.18,1.38-1.38-18.17,18.17-1.38ZM177.2,229.82,159,231.2,157.65,213l18.17-1.38ZM159.78,241.1l18.17-1.38,1.58,20.71a69,69,0,0,1-9.09,1.31c-1.72.13-3.49.2-5.24.2-1.27,0-2.56,0-3.85-.11Zm43.36-41.49L185,201l-1.38-18.18,18.17-1.38Zm2.13,28.07-18.17,1.38-1.38-18.17,18.17-1.38Zm6.09-85.17-2.59.2-.2-2.6Q210,141.27,211.37,142.51ZM121,234.08l-10.4.8a68.42,68.42,0,0,1-9-15.79l-.14-1.8,18.18-1.38Zm-9.06-84q1.19-1.46,2.46-2.86l.2,2.66Zm3.41,9.7,1.38,18.18-18.18,1.38-.14-1.86a68.5,68.5,0,0,1,6.48-16.89ZM118.91,206l-20.79,1.58a68.68,68.68,0,0,1-1.39-18.17l20.8-1.58Zm.3,38.18,2.59-.2.2,2.59Q120.57,245.42,119.21,244.19Z"/></svg>
