<?xml version="1.0" standalone="no"?>
<!DOCTYPE svg PUBLIC "-//W3C//DTD SVG 20010904//EN"
 "http://www.w3.org/TR/2001/REC-SVG-20010904/DTD/svg10.dtd">
<svg version="1.0" xmlns="http://www.w3.org/2000/svg"
 width="481.000000pt" height="481.000000pt" viewBox="0 0 481.000000 481.000000"
 preserveAspectRatio="xMidYMid meet">
<metadata>
Created by potrace 1.11, written by Peter Selinger 2001-2013
</metadata>
<g transform="translate(0.000000,481.000000) scale(0.100000,-0.100000)"
fill="#000000" stroke="none">
<path d="M1196 4719 c-74 -12 -167 -62 -220 -119 -77 -82 -122 -201 -181 -480
-45 -213 -94 -448 -99 -477 -24 -137 -56 -337 -61 -378 -3 -27 -8 -61 -10 -75
-3 -14 -7 -52 -11 -85 -3 -33 -8 -73 -10 -90 -24 -190 -24 -733 0 -920 2 -16
7 -57 10 -90 4 -33 16 -112 27 -175 16 -98 26 -148 54 -273 2 -9 6 -21 9 -25
3 -5 7 -20 9 -33 13 -68 85 -258 142 -375 233 -473 581 -692 1017 -642 80 9
210 48 273 81 89 48 229 170 246 215 20 53 -16 52 -155 -3 -238 -94 -398 -84
-578 34 -128 84 -248 218 -330 371 -70 128 -141 342 -163 485 -3 22 -7 51 -10
65 -16 103 -19 174 -20 385 0 207 3 281 20 460 3 34 14 108 20 145 3 14 7 41
10 60 35 222 64 355 150 675 131 490 147 550 150 565 56 247 61 396 19 523
-22 67 -104 151 -159 165 -63 17 -96 19 -149 11z"/>
<path d="M2313 4355 c-72 -16 -176 -81 -266 -165 -174 -162 -295 -352 -480
-750 -84 -180 -144 -350 -182 -515 -9 -38 -19 -79 -21 -90 -13 -55 -39 -221
-49 -310 -21 -179 -20 -599 0 -704 2 -10 6 -42 10 -72 3 -30 10 -70 15 -89 5
-19 12 -50 15 -67 18 -109 90 -282 161 -388 225 -340 627 -393 1119 -149 165
82 293 173 420 299 102 102 225 269 225 307 0 17 -4 19 -27 13 -28 -7 -185
-108 -204 -132 -6 -7 -15 -13 -20 -13 -4 0 -35 -18 -67 -40 -85 -56 -263 -144
-352 -174 -310 -103 -588 -51 -758 140 -162 181 -199 493 -107 889 114 491
416 1029 696 1239 31 23 85 53 120 65 98 36 140 83 165 187 41 176 -67 413
-224 493 -58 30 -129 39 -189 26z"/>
<path d="M2838 3574 c-104 -26 -202 -128 -341 -354 -35 -58 -75 -124 -88 -147
-13 -23 -79 -134 -146 -245 -145 -242 -280 -508 -298 -588 -2 -8 -11 -35 -19
-59 -47 -131 -74 -276 -69 -380 6 -158 75 -281 188 -336 41 -20 67 -26 126
-26 41 0 86 2 99 5 14 3 36 8 50 10 99 16 315 81 410 124 143 63 298 141 407
206 114 68 164 101 335 223 76 54 167 96 194 89 13 -4 25 -12 25 -19 1 -6 3
-23 4 -37 5 -39 -45 -221 -85 -315 -5 -11 -21 -49 -36 -85 -65 -161 -181 -363
-298 -520 -62 -84 -268 -301 -336 -355 -244 -192 -503 -325 -820 -420 -30 -9
-66 -19 -80 -21 -14 -3 -41 -9 -60 -14 -19 -5 -51 -12 -70 -15 -19 -3 -60 -10
-90 -15 -30 -5 -109 -12 -175 -15 -253 -11 -337 -29 -343 -71 -4 -28 23 -49
87 -68 82 -24 183 -31 456 -31 340 0 482 14 725 69 311 72 621 220 860 411
264 211 485 518 625 870 42 106 90 255 101 318 2 17 7 33 9 37 11 18 28 156
30 250 3 92 -1 130 -19 225 -22 109 -107 237 -201 301 -30 20 -103 52 -140 61
-75 18 -200 8 -295 -23 -69 -23 -223 -95 -285 -135 -59 -37 -301 -198 -387
-257 -103 -71 -207 -123 -251 -128 -18 -1 -42 4 -54 12 -18 12 -21 21 -19 61
7 100 91 229 381 590 23 29 71 84 106 123 148 165 212 280 210 378 -3 206
-219 369 -423 316z"/>
</g>
</svg>
