<?xml version="1.0" encoding="utf-8"?>
<!-- Generator: by Nguyen Pham baonguyenyam@gmail.com  -->
<svg version="1.1" id="logo" xmlns="http://www.w3.org/2000/svg" xmlns:xlink="http://www.w3.org/1999/xlink" x="0px" y="0px"
	 viewBox="0 0 300 86.28" style="enable-background:new 0 0 300 86.28;" xml:space="preserve">
<g>
	<g>
		<path d="M80.18,10.39v9.93c0,2.65,0.95,4.93,2.85,6.83c1.9,1.9,4.18,2.85,6.83,2.85v-9.93c0-2.65-0.95-4.93-2.85-6.83
			C85.11,11.34,82.84,10.39,80.18,10.39z"/>
		<path d="M87.01,39.24c-1.9-1.9-4.18-2.85-6.83-2.85v13.37v17.14c0,2.65,0.95,4.93,2.85,6.83c1.9,1.9,4.18,2.85,6.83,2.85V59.44
			V46.07C89.87,43.41,88.92,41.14,87.01,39.24z"/>
		<path d="M295.02,13.25c-1.9-1.9-4.18-2.85-6.83-2.85v20.07v16.35v20.07c0,2.65,0.95,4.93,2.85,6.83c1.9,1.9,4.18,2.85,6.83,2.85
			V56.5V40.15V20.08C297.87,17.43,296.92,15.15,295.02,13.25z"/>
		<path d="M117.42,30.47c-6.38,0-11.85,2.26-16.43,6.77c-4.57,4.52-6.86,9.96-6.86,16.34c0,6.38,2.29,11.81,6.86,16.28
			c4.57,4.48,10.05,6.71,16.43,6.71c6.38,0,11.86-2.24,16.46-6.71c4.59-4.48,6.89-9.9,6.89-16.28c0-6.38-2.3-11.83-6.89-16.34
			C129.28,32.73,123.8,30.47,117.42,30.47z M127.1,63.35c-2.65,2.71-5.88,4.06-9.68,4.06c-3.8,0-7.02-1.35-9.65-4.06
			c-2.63-2.71-3.95-5.97-3.95-9.77c0-3.8,1.31-7.08,3.95-9.83c2.63-2.75,5.85-4.12,9.65-4.12c3.8,0,7.03,1.37,9.68,4.12
			c2.65,2.75,3.98,6.02,3.98,9.83C131.08,57.38,129.75,60.64,127.1,63.35z"/>
		<path d="M170.55,30.47v36.43c0,2.65,0.95,4.93,2.85,6.83c1.9,1.9,4.18,2.85,6.83,2.85V40.15c0-2.65-0.95-4.93-2.85-6.83
			C175.47,31.42,173.2,30.47,170.55,30.47z"/>
		<path d="M208.36,30.47c-6.42,0-11.91,2.26-16.48,6.77c-4.57,4.52-6.86,9.96-6.86,16.34v23c2.65,0,4.93-0.95,6.83-2.85
			c1.9-1.9,2.85-4.18,2.85-6.83V53.58c0-3.8,1.32-7.08,3.98-9.83c2.65-2.75,5.88-4.12,9.68-4.12c3.77,0,6.97,1.38,9.63,4.15
			c2.65,2.77,3.98,6.03,3.98,9.8v13.31c0,2.65,0.95,4.93,2.85,6.83c1.9,1.9,4.18,2.85,6.83,2.85v-23c0-6.38-2.29-11.83-6.86-16.34
			C220.21,32.73,214.73,30.47,208.36,30.47z"/>
		<path d="M259.48,30.47c-6.38,0-11.86,2.26-16.46,6.77c-4.59,4.52-6.89,9.96-6.89,16.34c0,6.38,2.3,11.81,6.89,16.28
			c4.59,4.48,10.08,6.71,16.46,6.71h23.4v-23c0-6.38-2.31-11.83-6.92-16.34C271.36,32.73,265.86,30.47,259.48,30.47z M273.09,67.41
			h-13.63c-3.81,0-7.04-1.35-9.68-4.06c-2.64-2.71-3.96-5.97-3.96-9.77c0-3.8,1.32-7.08,3.96-9.83c2.64-2.75,5.86-4.12,9.68-4.12
			c3.81,0,7.04,1.37,9.67,4.12c2.64,2.75,3.96,6.02,3.96,9.83V67.41z"/>
		<path d="M174.27,10.37h-0.72c-3.97,0-7.59,0.87-10.87,2.6c-1.99,1.05-3.85,2.42-5.59,4.11c-2.27,2.21-3.97,4.66-5.12,7.33
			c-0.81,1.89-1.32,3.9-1.58,6.03h-1.69c-2.54,0-4.71,0.89-6.51,2.67c-1.81,1.78-2.71,3.95-2.71,6.5h10.72v16.87v4.21v6.81
			c0,2.48,0.95,4.61,2.85,6.39c1.9,1.78,4.18,2.67,6.83,2.67v-6.18V46.8v-4.32v-3.03c1.8-0.32,3.39-1.16,4.77-2.51
			c1.81-1.78,2.71-3.95,2.71-6.5h-7.19c0.52-2.58,1.74-4.86,3.69-6.85c2.65-2.71,8.87-4.33,8.87-4.33c1.6-0.38,3.02-1.18,4.26-2.42
			c1.79-1.79,2.68-3.95,2.68-6.48H174.27z"/>
	</g>
	<g>
		<g>
			<path d="M39.66,28.24V15.25c0-3.47-1.25-6.45-3.73-8.93C33.44,3.83,30.46,2.58,27,2.58v12.99c0,3.47,1.24,6.45,3.73,8.93
				C33.22,27,36.19,28.24,39.66,28.24z"/>
			<path d="M35.93,35.52c-2.49-2.49-5.47-3.73-8.93-3.73v17.49V71.7c0,3.47,1.24,6.45,3.73,8.93c2.49,2.49,5.47,3.73,8.93,3.73
				V61.95V44.45C39.66,40.99,38.42,38.01,35.93,35.52z"/>
		</g>
		<g>
			<path d="M20.66,56.28c-3.42-3.52-5.14-7.75-5.16-12.68c-0.02-4.36,1.59-8.59,4.3-12l0.01-0.01c2.23-2.81,3.44-6.3,3.44-9.89
				v-6.78c-4.2,1.45-8.03,3.82-11.45,7.21C5.82,28.04,2.83,35.16,2.83,43.5c0,8.34,2.99,15.44,8.97,21.3
				c3.49,3.41,7.39,5.8,11.68,7.23v-9.15c0-2.48-1.06-4.8-2.79-6.57C20.68,56.3,20.67,56.29,20.66,56.28z"/>
			<path d="M63.82,43.5c0-8.34-3-15.47-9.01-21.37c-3.39-3.33-7.16-5.69-11.29-7.14c-0.06-0.02-0.12,0.02-0.12,0.08v9.26
				c0,2.36,0.92,4.62,2.55,6.31v0c3.47,3.59,5.2,7.88,5.2,12.85s-1.73,9.24-5.2,12.78c-0.01,0.01-0.02,0.02-0.03,0.03
				c-1.71,1.74-2.75,4.02-2.75,6.46v9.11c0,0.06,0.06,0.1,0.12,0.08c4.22-1.43,8.07-3.8,11.52-7.16
				C60.82,58.95,63.82,51.85,63.82,43.5z"/>
		</g>
	</g>
</g>
</svg>
