<?xml version="1.0" encoding="utf-8" standalone="yes"?> <svg width="1000" height="1000" viewBox="-1 -1 27 27" xmlns="http://www.w3.org/2000/svg" xmlns:xlink="http://www.w3.org/1999/xlink" shape-rendering="crispEdges" id="qr code"><rect id="qr background" fill-opacity="1" fill="rgb(255, 255, 255)" x="-1" y="-1" width="27" height="27"></rect><path fill-opacity="1" fill="rgb(0, 0, 0)" id="qr dark pixels" fill-rule="evenodd" d="M 8 0 L 9 0 L 9 1 L 11 1 L 11 2 L 12 2 L 12 1 L 11 1 L 11 0 L 13 0 L 13 1 L 14 1 L 14 0 L 15 0 L 15 2 L 14 2 L 14 3 L 15 3 L 15 7 L 16 7 L 16 6 L 17 6 L 17 8 L 21 8 L 21 9 L 20 9 L 20 10 L 18 10 L 18 9 L 16 9 L 16 8 L 15 8 L 15 9 L 14 9 L 14 10 L 13 10 L 13 8 L 14 8 L 14 4 L 13 4 L 13 3 L 11 3 L 11 4 L 12 4 L 12 6 L 11 6 L 11 5 L 9 5 L 9 8 L 10 8 L 10 6 L 11 6 L 11 7 L 12 7 L 12 6 L 13 6 L 13 8 L 11 8 L 11 10 L 9 10 L 9 9 L 8 9 L 8 4 L 10 4 L 10 2 L 8 2 z M 16 1 L 17 1 L 17 3 L 16 3 z M 0 8 L 3 8 L 3 10 L 2 10 L 2 9 L 0 9 z M 5 8 L 7 8 L 7 9 L 5 9 z M 23 8 L 25 8 L 25 11 L 24 11 L 24 10 L 23 10 z M 7 9 L 8 9 L 8 10 L 7 10 z M 15 9 L 16 9 L 16 10 L 17 10 L 17 11 L 19 11 L 19 12 L 20 12 L 20 14 L 19 14 L 19 15 L 21 15 L 21 14 L 23 14 L 23 15 L 22 15 L 22 16 L 18 16 L 18 12 L 17 12 L 17 14 L 16 14 L 16 15 L 15 15 L 15 16 L 16 16 L 16 17 L 15 17 L 15 18 L 13 18 L 13 16 L 14 16 L 14 15 L 13 15 L 13 16 L 11 16 L 11 17 L 9 17 L 9 16 L 8 16 L 8 15 L 6 15 L 6 14 L 9 14 L 9 15 L 10 15 L 10 14 L 11 14 L 11 15 L 12 15 L 12 13 L 11 13 L 11 12 L 13 12 L 13 11 L 14 11 L 14 13 L 13 13 L 13 14 L 15 14 L 15 13 L 16 13 L 16 11 L 15 11 z M 21 9 L 22 9 L 22 10 L 23 10 L 23 11 L 22 11 L 22 12 L 20 12 L 20 10 L 21 10 z M 0 10 L 2 10 L 2 11 L 1 11 L 1 12 L 2 12 L 2 13 L 0 13 z M 3 10 L 4 10 L 4 12 L 7 12 L 7 13 L 3 13 L 3 12 L 2 12 L 2 11 L 3 11 z M 5 10 L 7 10 L 7 11 L 5 11 z M 8 10 L 9 10 L 9 11 L 8 11 z M 11 10 L 12 10 L 12 11 L 11 11 z M 7 11 L 8 11 L 8 12 L 7 12 z M 9 11 L 10 11 L 10 14 L 9 14 z M 24 12 L 25 12 L 25 15 L 24 15 L 24 14 L 23 14 L 23 13 L 24 13 z M 0 14 L 3 14 L 3 15 L 0 15 z M 3 15 L 6 15 L 6 16 L 8 16 L 8 17 L 4 17 L 4 16 L 3 16 z M 0 16 L 3 16 L 3 17 L 0 17 z M 23 16 L 24 16 L 24 17 L 23 17 z M 8 17 L 9 17 L 9 18 L 8 18 z M 24 17 L 25 17 L 25 21 L 24 21 L 24 22 L 25 22 L 25 23 L 23 23 L 23 22 L 22 22 L 22 21 L 23 21 L 23 19 L 24 19 z M 9 18 L 12 18 L 12 19 L 11 19 L 11 20 L 10 20 L 10 21 L 9 21 L 9 20 L 8 20 L 8 19 L 9 19 z M 13 19 L 14 19 L 14 21 L 13 21 L 13 22 L 15 22 L 15 25 L 13 25 L 13 24 L 14 24 L 14 23 L 13 23 L 13 24 L 9 24 L 9 25 L 8 25 L 8 22 L 9 22 L 9 23 L 12 23 L 12 21 L 11 21 L 11 20 L 13 20 z M 15 19 L 16 19 L 16 21 L 15 21 z M 10 21 L 11 21 L 11 22 L 10 22 z M 16 21 L 18 21 L 18 23 L 17 23 L 17 22 L 16 22 z M 20 21 L 21 21 L 21 22 L 22 22 L 22 23 L 21 23 L 21 24 L 19 24 L 19 25 L 18 25 L 18 23 L 19 23 L 19 22 L 20 22 z M 16 23 L 17 23 L 17 25 L 16 25 z M 21 24 L 22 24 L 22 25 L 21 25 z M 24 24 L 25 24 L 25 25 L 24 25 z"></path><path id="qr squares" d="M0,0h7h0v0v7v0h0h-7h0v0v-7v0h0zM1,1h5h0v0v5v0h0h-5h0v0v-5v0h0zM2,2h3h0v0v3v0h0h-3h0v0v-3v0h0z M18,0h7h0v0v7v0h0h-7h0v0v-7v0h0zM19,1h5h0v0v5v0h0h-5h0v0v-5v0h0zM20,2h3h0v0v3v0h0h-3h0v0v-3v0h0z M0,18h7h0v0v7v0h0h-7h0v0v-7v0h0zM1,19h5h0v0v5v0h0h-5h0v0v-5v0h0zM2,20h3h0v0v3v0h0h-3h0v0v-3v0h0zM16,16h5h0v0v5v0h0h-5h0v0v-5v0h0zM17,17h3h0v0v3v0h0h-3h0v0v-3v0h0zM18,18h1h0v0v1v0h0h-1h0v0v-1v0h0z" fill-rule="evenodd" fill-opacity="1" fill="rgb(0, 0, 0)"></path></svg>