<svg xmlns="http://www.w3.org/2000/svg" viewBox="0 0 524.96 321.27"><title>FPT</title><g fill-rule="evenodd"><path d="M193.19 55.28H94.25c-29.78 4.09-50.58 20.27-58.49 51.05L0 268.53h98.27c29.06-2.89 49.01-24.64 56.81-47.46z" fill="#0071bc"/><path d="M369.09.01h-94.85c-27.15 3.24-49.56 19.17-60.76 50.09l-58.13 271.18h96.85c33.51-3.72 54.37-26.39 58.11-50.09z" fill="#f58220"/><path d="M524.96 55.28h-98.93c-29.78 4.09-50.58 20.27-58.49 51.05l-35.77 162.2h98.27c29.07-2.9 49-24.63 56.82-47.46z" fill="#72bf44"/><path d="M426.67 129.57H405.3a16.84 16.84 0 0 1-12.44-4.81 16.45 16.45 0 0 1-4.81-12.12 22.6 22.6 0 0 1 .46-4.43h85.18a16.83 16.83 0 0 1 12.44 4.81 16.26 16.26 0 0 1 4.81 12 23.31 23.31 0 0 1-.46 4.58h-42.59l-13.59 63.77a25.83 25.83 0 0 1-9.39 15 25.39 25.39 0 0 1-16.43 6.27zM77.2 108.04a25.21 25.21 0 0 0-16.41 6.26 27 27 0 0 0-9.54 15.11L33.08 214.9c5.9 0 13.52-2.09 18.56-6.26a26.4 26.4 0 0 0 9.39-15.11l4.58-21.37h40.59a25.5 25.5 0 0 0 16.49-6.26 26 26 0 0 0 9.46-15.11h-62l4.58-21.37h62a25.21 25.21 0 0 0 16.41-6.26 27 27 0 0 0 9.54-15.12zm245.28 21.37a21.78 21.78 0 0 0 .46-4.58 16.13 16.13 0 0 0-4.88-12 17.1 17.1 0 0 0-12.52-4.81h-79.9l-.14-.17v.17c-.05.26-.1.52-.14.78l-14.41 66.84-8.26 39.26a25.21 25.21 0 0 0 16.41-6.26 26.17 26.17 0 0 0 9.38-15.11l4.54-21.17v-.2h58.9a25.39 25.39 0 0 0 16.41-6.18 26.62 26.62 0 0 0 9.54-15.19zm-79.4 0h56.4l-4.58 21.37h-56.81z" fill="#fff"/></g></svg>