<?xml version="1.0" encoding="iso-8859-1"?>
<!-- Generator: Adobe Illustrator 19.0.0, SVG Export Plug-In . SVG Version: 6.00 Build 0)  -->
<svg version="1.1" id="Layer_1" xmlns="http://www.w3.org/2000/svg" xmlns:xlink="http://www.w3.org/1999/xlink" x="0px" y="0px"
	 viewBox="0 0 512 512" style="enable-background:new 0 0 512 512;" xml:space="preserve">
<path style="fill:#D2DCF0;" d="M485.517,61.793H26.483C11.857,61.793,0,73.65,0,88.276v335.448
	c0,14.626,11.857,26.483,26.483,26.483h459.034c14.626,0,26.483-11.857,26.483-26.483V88.276
	C512,73.65,500.143,61.793,485.517,61.793z M441.379,79.448h8.828c4.875,0,8.828,3.953,8.828,8.828c0,4.875-3.953,8.828-8.828,8.828
	h-8.828c-4.875,0-8.828-3.953-8.828-8.828C432.552,83.401,436.504,79.448,441.379,79.448z M194.207,79.448h211.862
	c4.875,0,8.828,3.953,8.828,8.828c0,4.875-3.953,8.828-8.828,8.828H194.207c-4.875,0-8.828-3.953-8.828-8.828
	C185.379,83.401,189.332,79.448,194.207,79.448z M150.069,79.448h8.828c4.875,0,8.828,3.953,8.828,8.828
	c0,4.875-3.953,8.828-8.828,8.828h-8.828c-4.875,0-8.828-3.953-8.828-8.828C141.241,83.401,145.194,79.448,150.069,79.448z
	 M114.759,79.448h8.828c4.875,0,8.828,3.953,8.828,8.828c0,4.875-3.953,8.828-8.828,8.828h-8.828c-4.875,0-8.828-3.953-8.828-8.828
	C105.931,83.401,109.884,79.448,114.759,79.448z M79.448,79.448c4.875,0,8.828,3.953,8.828,8.828c0,4.875-3.953,8.828-8.828,8.828
	c-4.875,0-8.828-3.953-8.828-8.828C70.621,83.401,74.573,79.448,79.448,79.448z M52.966,79.448c4.875,0,8.828,3.953,8.828,8.828
	c0,4.875-3.953,8.828-8.828,8.828s-8.828-3.953-8.828-8.828C44.138,83.401,48.09,79.448,52.966,79.448z M26.483,79.448
	c4.875,0,8.828,3.953,8.828,8.828c0,4.875-3.953,8.828-8.828,8.828s-8.828-3.953-8.828-8.828
	C17.655,83.401,21.608,79.448,26.483,79.448z M494.345,167.724v256c0,4.875-3.953,8.828-8.828,8.828H256H26.483h-7.724
	c-0.609,0-1.103-0.494-1.103-1.103v-7.724v-256v-44.138v-7.724c0-0.609,0.494-1.103,1.103-1.103h7.724H256h229.517
	c4.875,0,8.828,3.953,8.828,8.828V167.724z M485.517,97.103h-8.828c-4.875,0-8.828-3.953-8.828-8.828
	c0-4.875,3.953-8.828,8.828-8.828h8.828c4.875,0,8.828,3.953,8.828,8.828C494.345,93.151,490.392,97.103,485.517,97.103z"/>
<path style="fill:#FFFFFF;" d="M256,206.497v26.483v17.655v105.931v17.655v26.483v31.848h229.517c4.875,0,8.828-3.953,8.828-8.828
	v-256H256V206.497z M388.414,211.862v-8.828c0-4.875,3.953-8.828,8.828-8.828h61.793c4.875,0,8.828,3.953,8.828,8.828v8.828v70.621
	c0,4.875-3.953,8.828-8.828,8.828h-61.793c-4.875,0-8.828-3.953-8.828-8.828V211.862z M282.483,211.862v-8.828
	c0-4.875,3.953-8.828,8.828-8.828h61.793c4.875,0,8.828,3.953,8.828,8.828v8.828v70.621c0,4.875-3.953,8.828-8.828,8.828H291.31
	c-4.875,0-8.828-3.953-8.828-8.828V211.862z M291.31,317.793h8.828h158.897c4.875,0,8.828,3.953,8.828,8.828v70.621
	c0,4.875-3.953,8.828-8.828,8.828H300.138h-8.828c-4.875,0-8.828-3.953-8.828-8.828v-70.621
	C282.483,321.746,286.435,317.793,291.31,317.793z"/>
<circle style="fill:#FF6469;" cx="26.483" cy="88.276" r="8.828"/>
<circle style="fill:#FFE169;" cx="52.966" cy="88.276" r="8.828"/>
<circle style="fill:#87E1AA;" cx="79.448" cy="88.276" r="8.828"/>
<g>
	<path style="fill:#E4EAF6;" d="M114.759,97.103h8.828c4.875,0,8.828-3.953,8.828-8.828c0-4.875-3.953-8.828-8.828-8.828h-8.828
		c-4.875,0-8.828,3.953-8.828,8.828C105.931,93.151,109.884,97.103,114.759,97.103z"/>
	<path style="fill:#E4EAF6;" d="M150.069,97.103h8.828c4.875,0,8.828-3.953,8.828-8.828c0-4.875-3.953-8.828-8.828-8.828h-8.828
		c-4.875,0-8.828,3.953-8.828,8.828C141.241,93.151,145.194,97.103,150.069,97.103z"/>
	<path style="fill:#E4EAF6;" d="M441.379,97.103h8.828c4.875,0,8.828-3.953,8.828-8.828c0-4.875-3.953-8.828-8.828-8.828h-8.828
		c-4.875,0-8.828,3.953-8.828,8.828C432.552,93.151,436.504,97.103,441.379,97.103z"/>
	<path style="fill:#E4EAF6;" d="M485.517,79.448h-8.828c-4.875,0-8.828,3.953-8.828,8.828c0,4.875,3.953,8.828,8.828,8.828h8.828
		c4.875,0,8.828-3.953,8.828-8.828C494.345,83.401,490.392,79.448,485.517,79.448z"/>
	<path style="fill:#E4EAF6;" d="M194.207,97.103h211.862c4.875,0,8.828-3.953,8.828-8.828c0-4.875-3.953-8.828-8.828-8.828H194.207
		c-4.875,0-8.828,3.953-8.828,8.828C185.379,93.151,189.332,97.103,194.207,97.103z"/>
</g>
<path style="fill:#FF6469;" d="M485.517,114.759H256v52.966h238.345v-44.138C494.345,118.711,490.392,114.759,485.517,114.759z
	 M317.793,150.069h-35.31c-4.875,0-8.828-3.953-8.828-8.828s3.953-8.828,8.828-8.828h35.31c4.875,0,8.828,3.953,8.828,8.828
	S322.668,150.069,317.793,150.069z M388.414,150.069h-35.31c-4.875,0-8.828-3.953-8.828-8.828s3.953-8.828,8.828-8.828h35.31
	c4.875,0,8.828,3.953,8.828,8.828S393.289,150.069,388.414,150.069z M459.034,150.069h-35.31c-4.875,0-8.828-3.953-8.828-8.828
	s3.953-8.828,8.828-8.828h35.31c4.875,0,8.828,3.953,8.828,8.828S463.91,150.069,459.034,150.069z"/>
<g>
	<path style="fill:#D2555F;" d="M317.793,132.414h-35.31c-4.875,0-8.828,3.953-8.828,8.828s3.953,8.828,8.828,8.828h35.31
		c4.875,0,8.828-3.953,8.828-8.828S322.668,132.414,317.793,132.414z"/>
	<path style="fill:#D2555F;" d="M388.414,132.414h-35.31c-4.875,0-8.828,3.953-8.828,8.828s3.953,8.828,8.828,8.828h35.31
		c4.875,0,8.828-3.953,8.828-8.828S393.289,132.414,388.414,132.414z"/>
	<path style="fill:#D2555F;" d="M459.034,132.414h-35.31c-4.875,0-8.828,3.953-8.828,8.828s3.953,8.828,8.828,8.828h35.31
		c4.875,0,8.828-3.953,8.828-8.828S463.91,132.414,459.034,132.414z"/>
</g>
<g>
	<path style="fill:#DEE3ED;" d="M291.31,291.31h61.793c4.875,0,8.828-3.953,8.828-8.828v-70.621c0,4.875-3.953,8.828-8.828,8.828
		H291.31c-4.875,0-8.828-3.953-8.828-8.828v70.621C282.483,287.358,286.435,291.31,291.31,291.31z"/>
	<path style="fill:#DEE3ED;" d="M397.241,291.31h61.793c4.875,0,8.828-3.953,8.828-8.828v-70.621c0,4.875-3.953,8.828-8.828,8.828
		h-61.793c-4.875,0-8.828-3.953-8.828-8.828v70.621C388.414,287.358,392.366,291.31,397.241,291.31z"/>
</g>
<path style="fill:#FF969B;" d="M291.31,220.69h61.793c4.875,0,8.828-3.953,8.828-8.828v-8.828c0-4.875-3.953-8.828-8.828-8.828
	H291.31c-4.875,0-8.828,3.953-8.828,8.828v8.828C282.483,216.737,286.435,220.69,291.31,220.69z"/>
<path style="fill:#A0DCF0;" d="M397.241,220.69h61.793c4.875,0,8.828-3.953,8.828-8.828v-8.828c0-4.875-3.953-8.828-8.828-8.828
	h-61.793c-4.875,0-8.828,3.953-8.828,8.828v8.828C388.414,216.737,392.366,220.69,397.241,220.69z"/>
<path style="fill:#DEE3ED;" d="M308.966,326.621v70.621c0,4.875-3.953,8.828-8.828,8.828h158.897c4.875,0,8.828-3.953,8.828-8.828
	v-70.621c0-4.875-3.953-8.828-8.828-8.828H300.138C305.013,317.793,308.966,321.746,308.966,326.621z"/>
<path style="fill:#91E6BE;" d="M291.31,406.069h8.828c4.875,0,8.828-3.953,8.828-8.828v-70.621c0-4.875-3.953-8.828-8.828-8.828
	h-8.828c-4.875,0-8.828,3.953-8.828,8.828v70.621C282.483,402.116,286.435,406.069,291.31,406.069z"/>
<g>
	<path style="fill:#464655;" d="M203.034,303.601c0,29.252,23.713,52.966,52.966,52.966V250.635
		C226.748,250.635,203.034,274.348,203.034,303.601z"/>
	<path style="fill:#464655;" d="M232.274,397.662l-6.305,10.921c-2.438,4.222-7.837,5.668-12.058,3.231l-30.58-17.655
		c-4.222-2.438-5.668-7.837-3.231-12.06l6.285-10.885c-11.05-11.375-19.293-25.443-23.736-41.13h-12.579
		c-4.875,0-8.828-3.953-8.828-8.828v-35.31c0-4.875,3.953-8.828,8.828-8.828h12.578c4.442-15.688,12.686-29.754,23.735-41.129
		l-6.283-10.882c-2.438-4.223-0.991-9.622,3.231-12.06l30.58-17.655c4.222-2.438,9.621-0.991,12.058,3.231l6.303,10.919
		c7.608-1.914,15.528-3.043,23.729-3.043v-38.774v-52.966H26.483h-7.724c-0.609,0-1.103,0.494-1.103,1.103v7.724v44.138v256v7.724
		c0,0.609,0.494,1.103,1.103,1.103h7.724H256v-31.848C247.799,400.704,239.88,399.576,232.274,397.662z M130.24,239.834
		c-4.63,3.064-9.852,5.306-15.481,6.449V256c0,4.876-3.953,8.829-8.829,8.828c-4.875,0-8.828-3.953-8.828-8.828v-9.718
		c-5.632-1.142-10.856-3.384-15.486-6.451l-6.897,6.897c-3.447,3.448-9.036,3.448-12.484,0c-3.447-3.447-3.447-9.036,0-12.483
		l6.897-6.898c-3.065-4.629-5.308-9.854-6.451-15.485h-9.716c-4.875,0-8.828-3.953-8.828-8.828s3.953-8.828,8.828-8.828h9.717
		c1.143-5.632,3.384-10.854,6.45-15.482l-6.901-6.901c-3.447-3.448-3.447-9.037,0-12.484l0,0c3.448-3.448,9.036-3.447,12.483,0
		l6.9,6.9c4.631-3.065,9.855-5.309,15.488-6.452v-9.717c0-4.876,3.953-8.829,8.829-8.828c4.875,0,8.828,3.953,8.828,8.828v9.717
		c5.632,1.143,10.855,3.385,15.485,6.451l6.897-6.897c3.447-3.448,9.036-3.448,12.484,0c3.447,3.447,3.447,9.036,0,12.483
		l-6.897,6.898c3.065,4.629,5.308,9.854,6.451,15.485h9.718c4.875,0,8.828,3.953,8.828,8.828s-3.953,8.828-8.828,8.828h-9.717
		c-1.144,5.633-3.385,10.858-6.453,15.489l6.894,6.894c3.447,3.448,3.447,9.037,0,12.484l0,0c-3.447,3.448-9.036,3.447-12.483,0
		L130.24,239.834z"/>
	<circle style="fill:#464655;" cx="105.931" cy="203.034" r="17.655"/>
</g>
<path style="fill:#707384;" d="M225.967,198.622c-2.438-4.222-7.837-5.668-12.058-3.231l-30.58,17.655
	c-4.222,2.438-5.668,7.837-3.231,12.06l6.283,10.882c-11.049,11.375-19.292,25.442-23.735,41.129h-12.577
	c-4.875,0-8.828,3.953-8.828,8.828v35.31c0,4.875,3.953,8.828,8.828,8.828h12.578c4.444,15.688,12.687,29.756,23.736,41.13
	l-6.285,10.885c-2.438,4.223-0.991,9.622,3.231,12.06l30.58,17.655c4.222,2.438,9.621,0.991,12.058-3.231l6.305-10.921
	c7.607,1.914,15.526,3.042,23.726,3.042V374.22c-39.002,0-70.621-31.618-70.621-70.621s31.618-70.621,70.621-70.621v-26.483
	c-8.202,0-16.121,1.128-23.729,3.043L225.967,198.622z"/>
<path style="fill:#9097AA;" d="M185.379,303.601c0,39.003,31.618,70.621,70.621,70.621v-17.655
	c-29.252,0-52.966-23.713-52.966-52.966c0-29.252,23.713-52.966,52.966-52.966V232.98
	C216.998,232.98,185.379,264.598,185.379,303.601z"/>
<path style="fill:#707384;" d="M149.62,246.731L149.62,246.731c3.448-3.447,3.448-9.036,0.001-12.484l-6.894-6.894
	c3.066-4.631,5.309-9.856,6.453-15.489h9.717c4.875,0,8.828-3.953,8.828-8.828c0-4.875-3.953-8.828-8.828-8.828h-9.717
	c-1.143-5.632-3.385-10.856-6.451-15.485l6.897-6.898c3.447-3.447,3.447-9.036,0-12.483c-3.448-3.448-9.037-3.448-12.484,0
	l-6.897,6.897c-4.63-3.064-9.854-5.308-15.485-6.451v-9.717c0-4.875-3.953-8.828-8.828-8.828c-4.876-0.001-8.829,3.951-8.829,8.828
	v9.717c-5.633,1.143-10.857,3.385-15.488,6.452l-6.9-6.9c-3.447-3.447-9.036-3.448-12.483,0l0,0c-3.448,3.447-3.448,9.036,0,12.484
	l6.901,6.901c-3.064,4.629-5.306,9.852-6.45,15.482h-9.718c-4.875,0-8.828,3.953-8.828,8.828c0,4.875,3.953,8.828,8.828,8.828h9.717
	c1.143,5.632,3.385,10.856,6.451,15.485l-6.897,6.898c-3.447,3.447-3.447,9.036,0,12.483c3.448,3.448,9.037,3.448,12.484,0
	l6.897-6.897c4.63,3.065,9.854,5.309,15.486,6.451V256c0,4.875,3.953,8.828,8.828,8.828c4.876,0.001,8.829-3.951,8.829-8.828v-9.718
	c5.63-1.142,10.851-3.383,15.481-6.449l6.897,6.897C140.584,250.178,146.173,250.179,149.62,246.731z M105.931,229.517
	c-14.626,0-26.483-11.857-26.483-26.483c0-14.626,11.857-26.483,26.483-26.483s26.483,11.857,26.483,26.483
	C132.414,217.661,120.557,229.517,105.931,229.517z"/>
<path style="fill:#9097AA;" d="M105.931,176.552c-14.626,0-26.483,11.857-26.483,26.483c0,14.626,11.857,26.483,26.483,26.483
	s26.483-11.857,26.483-26.483C132.414,188.408,120.557,176.552,105.931,176.552z M105.931,220.69
	c-9.75,0-17.655-7.905-17.655-17.655c0-9.751,7.905-17.655,17.655-17.655s17.655,7.904,17.655,17.655
	C123.586,212.785,115.681,220.69,105.931,220.69z"/>
<g>
</g>
<g>
</g>
<g>
</g>
<g>
</g>
<g>
</g>
<g>
</g>
<g>
</g>
<g>
</g>
<g>
</g>
<g>
</g>
<g>
</g>
<g>
</g>
<g>
</g>
<g>
</g>
<g>
</g>
</svg>
