<?xml version="1.0" encoding="iso-8859-1"?>
<!-- Generator: Adobe Illustrator 19.0.0, SVG Export Plug-In . SVG Version: 6.00 Build 0)  -->
<svg version="1.1" id="Layer_1" xmlns="http://www.w3.org/2000/svg" xmlns:xlink="http://www.w3.org/1999/xlink" x="0px" y="0px"
	 viewBox="0 0 380.82 380.82" style="enable-background:new 0 0 380.82 380.82;" xml:space="preserve">
<g>
	<g>
		<path style="fill:#FFFFFF;" d="M253.41,128.98v36.77c0,11.11-3.95,21.29-10.51,29.22c-7.25,8.76-17.69,14.79-29.55,16.29
			c-4.62,0.608-41.719,0.547-45.88,0c-11.86-1.5-22.3-7.53-29.55-16.29c-6.56-7.93-10.51-18.11-10.51-29.22v-37.04
			c25.28-2.54,45.16-23.37,46.21-49.06c2.99,27.74,26.48,49.33,55.02,49.33H253.41z"/>
		<path style="fill:#51B3DA;" d="M253.41,119.52v9.46h-24.77c-30.712,0-55.35-24.919-55.35-55.35h34.24
			C232.87,73.63,253.41,94.17,253.41,119.52z"/>
		<path style="fill:#51B3DA;" d="M173.67,73.63c0,6.076-0.05,6.02-0.05,6.02c-1.05,25.69-20.93,46.52-46.21,49.06v-9.19
			c0-25.35,20.54-45.89,45.88-45.89H173.67z"/>
		<path style="fill:#FFFFFF;" d="M226.96,230.13c0,20.19-16.36,36.55-36.55,36.55s-36.55-16.36-36.55-36.55h13.61v-18.87
			c4.173,0.549,41.276,0.606,45.88,0v18.87H226.96z"/>
	</g>
	<g>
		<path style="fill:#FFFFFF;" d="M137.92,194.97c-1.14,17.84-14.86,32.26-32.39,34.47c-3.801,0.518-34.031,0.429-37.18,0
			c-18.31-2.31-32.47-17.94-32.47-36.88v-37.47c0-20.54,16.65-37.19,37.18-37.19h27.75c10.43,0,19.85,4.29,26.6,11.2v36.65
			C127.41,176.86,131.36,187.04,137.92,194.97z"/>
		<path style="fill:#CBE5C0;" d="M127.41,129.1v33.66h-9.49c-23.13,0-42.17-17.5-44.59-39.98v-0.01c-0.18-1.61-0.27-3.22-0.27-4.87
			h27.75C111.24,117.9,120.66,122.19,127.41,129.1z"/>
		<path style="fill:#CBE5C0;" d="M73.371,117.9c0,2.992,0.016,3.871-0.041,4.871v0.008c-0.851,20.821-16.963,37.702-37.451,39.761
			v-7.448c0-20.545,16.647-37.192,37.184-37.192H73.371z"/>
		<path style="fill:#CBE5C0;" d="M92.54,273.83c-0.09,1.19-0.14,2.4-0.14,3.62v29.74H7.5v-24.1c0-21.19,17.17-38.35,38.35-38.35
			h11.47c0,16.36,13.25,29.62,29.62,29.62C88.86,274.36,90.73,274.18,92.54,273.83z"/>
		<path style="fill:#FFFFFF;" d="M105.53,229.44v15.3c-7.36,7.68-12.14,17.83-12.99,29.09c-1.81,0.35-3.68,0.53-5.6,0.53
			c-16.37,0-29.62-13.26-29.62-29.62h11.03v-15.3C71.52,229.872,101.718,229.96,105.53,229.44z"/>
	</g>
	<g>
		<path style="fill:#FFFFFF;" d="M344.94,155.09v37.47c0,20.595-16.709,37.18-37.18,37.18c-30.137,0-29.527,0.101-32.47-0.3
			c-17.53-2.21-31.25-16.63-32.39-34.47c6.56-7.93,10.51-18.11,10.51-29.22V129.1c6.75-6.91,16.17-11.2,26.6-11.2h27.75
			C328.29,117.9,344.94,134.55,344.94,155.09z"/>
		<path style="fill:#FFDA79;" d="M344.941,155.092v7.667h-20.075c-24.808,0-44.859-20.112-44.859-44.859h27.75
			C328.294,117.9,344.941,134.547,344.941,155.092z"/>
		<path style="fill:#FFDA79;" d="M280.32,117.9c0,4.922-0.05,4.88-0.05,4.88c-0.7,17.07-11.65,31.48-26.86,37.26V129.1
			C260.15,122.201,269.463,117.9,280.32,117.9z"/>
		<path style="fill:#51B3DA;" d="M288.42,307.19H92.4v-29.74c0-1.22,0.05-2.43,0.14-3.62c0.85-11.26,5.63-21.41,12.99-29.09
			c15.838-16.574,33.34-14.61,48.33-14.61c0,20.19,16.36,36.55,36.55,36.55s36.55-16.36,36.55-36.55
			c14.955,0,32.467-1.99,48.33,14.61c7.36,7.68,12.14,17.83,12.99,29.09C288.472,276.36,288.42,274.62,288.42,307.19z"/>
		<path style="fill:#FFDA79;" d="M373.32,283.09v24.1h-84.9c0-32.614,0.051-30.839-0.14-33.36c18.198,3.52,35.22-10.438,35.22-29.09
			h11.47C356.15,244.74,373.32,261.9,373.32,283.09z"/>
		<g>
			<path style="fill:#FFFFFF;" d="M323.5,244.74c0,18.683-17.053,32.604-35.22,29.09c-0.85-11.26-5.63-21.41-12.99-29.09v-15.3
				c3.804,0.519,34.032,0.429,37.18,0v15.3H323.5z"/>
			<path style="fill:#13829B;" d="M334.97,237.24c-6.181,0-8.93,0-15,0v-1.71c18.718-5.327,32.47-22.567,32.47-42.97v-29.782
				c0-0.006,0.001-0.013,0.001-0.019v-7.667c0-6.161-1.253-12.035-3.518-17.381c-6.799-16.052-22.703-27.311-41.166-27.311H280.01
				h-0.003c-0.001,0-0.002,0-0.003,0c-6.809,0.001-13.371,1.507-19.318,4.362C258.271,87.546,235.36,66.13,207.53,66.13h-33.86
				h-0.38c-27.83,0-50.741,21.415-53.157,48.633c-5.948-2.856-12.512-4.363-19.323-4.363H73.371h-0.308H73.06
				c-18.478,0-34.372,11.277-41.163,27.312c-4.052,9.565-3.516,11.312-3.516,54.848c0,20.211,13.59,37.656,32.47,42.987v1.693
				c-6.065,0-8.81,0-15,0C20.568,237.24,0,257.808,0,283.09v24.1c0,4.142,3.358,7.5,7.5,7.5c2.995,0,358.806,0,365.82,0
				c4.142,0,7.5-3.358,7.5-7.5v-24.1C380.82,257.808,360.252,237.24,334.97,237.24z M307.098,262.467
				C307.098,262.467,307.098,262.467,307.098,262.467c-3.387,2.533-7.554,4.139-12.214,4.368
				c-1.751-8.861-5.846-17.663-12.094-24.98v-4.608c23.44,0.073,14.782-0.004,22.18-0.006v7.5c0,4.142,3.358,7.5,7.5,7.5h2.219
				C313.286,256.146,310.668,259.797,307.098,262.467z M220.85,222.63v-5.193c6.377-1.635,12.357-4.43,17.683-8.24
				c2.08,5.182,5.097,9.894,8.854,13.91C240.281,222.302,235.578,222.63,220.85,222.63z M162.403,237.825
				c-0.018-0.065-0.038-0.129-0.055-0.195h5.123c4.142,0,7.5-3.358,7.5-7.5v-11.063c8.316,0.174,21.731,0.188,30.88,0.001v11.061
				c0,4.142,3.358,7.5,7.5,7.5h5.123C210.695,266.685,170.108,265.831,162.403,237.825z M133.42,223.113
				c3.764-4.018,6.785-8.731,8.866-13.915c5.329,3.814,11.312,6.61,17.684,8.242v5.19
				C144.426,222.63,140.373,222.322,133.42,223.113z M85.936,266.835c-4.584-0.226-8.757-1.783-12.213-4.368l0,0
				c-3.338-2.496-6.103-6.082-7.591-10.226h2.218c4.142,0,7.5-3.358,7.5-7.5v-7.537c7.593,0.111,15.076,0.146,22.18,0.029v4.623
				C92.006,248.91,87.755,257.64,85.936,266.835z M272.391,126.389c-1.27,8.096-5.389,15.369-11.48,20.602v-14.636
				C264.274,129.517,268.232,127.469,272.391,126.389z M245.91,160.04c0,6.273,0.979,18.341-8.789,30.15l-0.001,0.002
				c-6.261,7.563-15.035,12.402-24.741,13.632c-0.001,0-0.003,0-0.004,0c-3.98,0.5-39.701,0.498-43.964-0.004
				c-9.674-1.224-18.451-6.064-24.712-13.629c-10.675-12.905-8.789-23.139-8.789-55.099c16.636-3.664,31.214-14.758,39.311-29.915
				c11.219,19.391,31.917,31.304,54.419,31.304h17.27V160.04z M311.357,222.015c-6.379,0.547-34.129,0.124-35.129-0.016
				c-13.169-1.66-23.535-11.903-25.549-24.824c7.066-9.704,10.231-20.418,10.231-32.267c8.383-4.257,15.234-10.752,19.926-18.598
				c9.354,14.511,25.65,23.949,44.03,23.949h12.574v22.301C337.44,207.708,326.031,220.233,311.357,222.015z M307.757,125.4
				c16.366,0,29.683,13.318,29.683,29.69v0.169h-12.574c-17.95,0-33.115-12.603-36.605-29.858H307.757z M245.91,121.48h-17.27
				c-23.455,0-43.09-16.991-47.095-39.421c-0.055-0.31-0.118-0.617-0.167-0.929h26.152C227.164,81.13,245.91,96.16,245.91,121.48z
				 M165.945,81.836c-1.701,17.263-13.732,32.509-31.035,37.756C134.91,100.589,148.528,85.226,165.945,81.836z M100.81,125.4
				c7.082,0,13.763,2.451,19.1,6.955v22.905c-21.266,0-35.25-13.266-38.595-29.86H100.81z M65.447,126.395
				c-1.948,12.278-10.528,22.523-21.997,26.76C44.293,140.218,53.434,129.575,65.447,126.395z M43.38,192.56v-23.723
				c12.911-3.176,23.815-11.492,30.478-22.572c9.342,14.53,24.922,23.995,46.246,23.995c0.845,9.934,4.525,19.35,10.037,26.915
				c-2.014,12.921-12.382,23.164-25.604,24.831c0,0-0.001,0-0.002,0c-0.069,0.008-0.165,0.016-0.251,0.024
				c-4.521,0.411-31.905,0.299-34.996-0.031C54.519,220.136,43.38,207.48,43.38,192.56z M15,283.09
				c0-17.011,13.839-30.85,30.85-30.85h4.731c3.356,16.291,17.424,28.645,34.319,29.565v17.885H15V283.09z M99.9,277.45
				c0-10.447,4.089-20.263,11.052-27.529c11.354-11.881,23.357-12.463,36.036-12.354c8.52,49.904,78.747,47.442,86.844-0.001
				c12.655-0.115,24.667,0.458,36.043,12.364c6.983,7.286,11.045,17.115,11.045,27.52v22.24H99.9V277.45z M365.82,299.69h-69.9
				v-17.885c16.827-0.916,30.947-13.197,34.318-29.565h4.732c17.011,0,30.85,13.839,30.85,30.85V299.69z"/>
		</g>
	</g>
</g>
<g>
</g>
<g>
</g>
<g>
</g>
<g>
</g>
<g>
</g>
<g>
</g>
<g>
</g>
<g>
</g>
<g>
</g>
<g>
</g>
<g>
</g>
<g>
</g>
<g>
</g>
<g>
</g>
<g>
</g>
</svg>
