<?xml version="1.0" encoding="iso-8859-1"?>
<!-- Generator: Adobe Illustrator 19.0.0, SVG Export Plug-In . SVG Version: 6.00 Build 0)  -->
<svg version="1.1" id="Layer_1" xmlns="http://www.w3.org/2000/svg" xmlns:xlink="http://www.w3.org/1999/xlink" x="0px" y="0px"
	 viewBox="0 0 496.2 496.2" style="enable-background:new 0 0 496.2 496.2;" xml:space="preserve">
<path style="fill:#00D9EA;" d="M0,248.1C0,111.1,111.1,0,248.1,0s248.1,111.1,248.1,248.1S385.1,496.2,248.1,496.2S0,385.1,0,248.1z
	"/>
<g>
	<g>
		<path style="fill:#FFFFFF;" d="M319.8,192.5c9.3,0,18.9-8.8,18.9-18.2c0-9.3-9.1-18.8-18.4-18.8s-18.6,9.7-18.6,19.1
			C301.6,183.9,310.4,192.5,319.8,192.5z M356.6,218.6c0-9.2,0.6-8.3,0-14c-2.3-7-7-9.3-11.7-9.3c-10,0-13.3,0-21,0
			c-9.4,0-13.9,0-23.3,0c-4.7,0-7.7-0.3-11.2,2.8c-4.7,5.3-4.3,5.8-4.3,20.8c0,7.4,0,20.3,0,28.5c0,7.4-1.2,18.9,6.2,18.9
			c7,0,6.9-5,6.9-12.5c0-10.5,0-13.3,0-19.5c0-6.8-0.4-8,1-8s1.4,0.1,1.4,7.3c0,6.7-0.1,101-0.1,106.4c0,4.7,2.5,9.7,9.5,9.7
			s9.9-4.1,9.9-8.8c0-8.4,0-45.1,0-49.1c0-4.7,0.2-6.9,1.3-6.9c1.2,0,1,2.3,1,6.9c0,4.2,0,40.4,0,49.1c0,2.9,3.1,9.2,10.1,9.2
			c4.7,0,9-6,9-9.1c0-18.7,0.1-101.8,0.1-107.7c0-3.2-0.3-7.2,0.9-7.2c1.2,0,1.2,1.1,1.2,5.7c0,5.3,0,10.6,0,18
			c0,12.3,1.9,15.5,6.6,15.5c7,0,6.4-12,6.4-18.7C356.6,237.5,356.6,227.9,356.6,218.6z"/>
		<path style="fill:#FFFFFF;" d="M242.2,192.5c9.3,0,18.9-8.8,18.9-18.2c0-9.3-9.1-18.8-18.4-18.8c-9.3,0-18.6,9.7-18.6,19.1
			C224.1,183.9,232.9,192.5,242.2,192.5z M279,218.6c0-9.2,0.6-8.3,0-14c-2.3-7-7-9.3-11.7-9.3c-10,0-13.3,0-21,0
			c-9.4,0-13.9,0-23.3,0c-4.7,0-7.7-0.3-11.2,2.8c-4.7,5.3-4.3,5.8-4.3,20.8c0,7.4,0,20.3,0,28.5c0,7.4-1.2,18.9,6.1,18.9
			c7,0,7-5,7-12.5c0-10.5,0-13.3,0-19.5c0-6.8-0.4-8,1-8s1.4,0.1,1.4,7.3c0,6.7-0.1,101-0.1,106.4c0,4.7,2.5,9.7,9.5,9.7
			s9.9-4.1,9.9-8.8c0-8.4,0-45.1,0-49.1c0-4.7,0.2-6.9,1.3-6.9c1.2,0,1,2.3,1,6.9c0,4.2,0,40.4,0,49.1c0,2.9,3.1,9.2,10.1,9.2
			c4.7,0,9-6,9-9.1c0-18.7,0.1-101.8,0.1-107.7c0-3.2-0.3-7.2,0.9-7.2c1.2,0,1.2,1.1,1.2,5.7c0,5.3,0,10.6,0,18
			c0,12.3,1.9,15.5,6.6,15.5c7,0,6.4-12,6.4-18.7C279,237.5,279,227.9,279,218.6z"/>
		<path style="fill:#FFFFFF;" d="M164.7,192.5c9.3,0,18.9-8.8,18.9-18.2c0-9.3-9.1-18.8-18.4-18.8c-9.3,0-18.6,9.7-18.6,19.1
			C146.5,183.9,155.3,192.5,164.7,192.5z M201.5,218.6c0-9.2,0.6-8.3,0-14c-2.3-7-7-9.3-11.7-9.3c-10,0-13.3,0-21,0
			c-9.4,0-13.9,0-23.3,0c-4.7,0-7.7-0.3-11.2,2.8c-4.7,5.3-4.3,5.8-4.3,20.8c0,7.4,0,20.3,0,28.5c0,7.4-1.3,18.9,6.1,18.9
			c7,0,7-5,7-12.5c0-10.5,0-13.3,0-19.5c0-6.8-0.4-8,1-8s1.4,0.1,1.4,7.3c0,6.7-0.1,101-0.1,106.4c0,4.7,2.5,9.7,9.5,9.7
			s10-4.1,10-8.8c0-8.4,0-45.1,0-49.1c0-4.7,0.2-6.9,1.3-6.9c1.2,0,1,2.3,1,6.9c0,4.2,0,40.4,0,49.1c0,2.9,3.1,9.2,10.1,9.2
			c4.7,0,9-6,9-9.1c0-18.7,0.1-101.8,0.1-107.7c0-3.2-0.3-7.2,0.9-7.2s1.2,1.1,1.2,5.7c0,5.3,0,10.6,0,18c0,12.3,1.9,15.5,6.6,15.5
			c7,0,6.4-12,6.4-18.7C201.5,237.5,201.5,227.9,201.5,218.6z"/>
	</g>
	<path style="fill:#FFFFFF;" d="M402.9,169.7c2.6,0,4.8,0.9,6.6,2.6c1.8,1.7,2.7,3.9,2.7,6.5c0,2.5-0.9,4.7-2.7,6.4
		c-1.8,1.8-4,2.7-6.6,2.7h-7.8v7.8c0,2.6-0.9,4.8-2.7,6.6c-1.8,1.8-3.9,2.7-6.5,2.7s-4.8-0.9-6.5-2.7s-2.6-4-2.6-6.6v-7.8h-7.9
		c-2.6,0-4.7-0.9-6.4-2.7c-1.7-1.8-2.6-3.9-2.6-6.4c0-2.6,0.9-4.8,2.6-6.5s3.8-2.6,6.4-2.6h7.9v-7.9c0-2.6,0.9-4.8,2.6-6.5
		s3.9-2.6,6.5-2.6c2.5,0,4.7,0.9,6.5,2.6c1.8,1.7,2.7,3.9,2.7,6.5v7.9H402.9z"/>
</g>
<g>
</g>
<g>
</g>
<g>
</g>
<g>
</g>
<g>
</g>
<g>
</g>
<g>
</g>
<g>
</g>
<g>
</g>
<g>
</g>
<g>
</g>
<g>
</g>
<g>
</g>
<g>
</g>
<g>
</g>
</svg>
