<?xml version="1.0" encoding="iso-8859-1"?>
<!-- Generator: Adobe Illustrator 19.0.0, SVG Export Plug-In . SVG Version: 6.00 Build 0)  -->
<svg version="1.1" id="Layer_1" xmlns="http://www.w3.org/2000/svg" xmlns:xlink="http://www.w3.org/1999/xlink" x="0px" y="0px"
	 viewBox="0 0 512 512" style="enable-background:new 0 0 512 512;" xml:space="preserve">
<g>
	<path style="fill:#BEC8DC;" d="M497.903,423.366c-1.15,0.235-2.339,0.359-3.559,0.359
		C495.564,423.724,496.754,423.601,497.903,423.366z"/>
	<path style="fill:#BEC8DC;" d="M17.655,423.724c-1.219,0-2.409-0.124-3.559-0.359C15.246,423.601,16.436,423.724,17.655,423.724z"
		/>
	<path style="fill:#BEC8DC;" d="M208.202,398.75l-5.167-10.336H17.655H8.828c-4.875,0-8.828,3.953-8.828,8.828v8.828h220.045
		C215.03,406.069,210.445,403.235,208.202,398.75z"/>
	<path style="fill:#BEC8DC;" d="M497.903,423.366c6.895-1.411,12.328-6.842,13.738-13.738
		C510.23,416.523,504.799,421.954,497.903,423.366z"/>
	<path style="fill:#BEC8DC;" d="M0.359,409.628c1.411,6.897,6.842,12.327,13.738,13.738C7.201,421.954,1.77,416.523,0.359,409.628z"
		/>
	<path style="fill:#BEC8DC;" d="M503.172,388.414h-8.828H308.966l-5.167,10.336c-2.243,4.486-6.828,7.319-11.843,7.319H512v-8.828
		C512,392.366,508.047,388.414,503.172,388.414z"/>
	<path style="fill:#BEC8DC;" d="M0.359,409.628C0.124,408.478,0,407.287,0,406.069C0,407.287,0.124,408.478,0.359,409.628z"/>
	<path style="fill:#BEC8DC;" d="M512,406.069c0,1.218-0.124,2.409-0.359,3.559C511.876,408.478,512,407.287,512,406.069z"/>
</g>
<path style="fill:#AFBBD0;" d="M220.045,406.069H0c0,1.218,0.124,2.409,0.359,3.559c1.411,6.895,6.842,12.327,13.738,13.738
	c1.15,0.235,2.339,0.359,3.559,0.359h476.69c1.219,0,2.409-0.124,3.559-0.359c6.895-1.411,12.328-6.842,13.738-13.738
	c0.235-1.15,0.359-2.339,0.359-3.559H291.955L220.045,406.069L220.045,406.069z"/>
<path style="fill:#96A5B9;" d="M208.202,398.75c2.243,4.486,6.828,7.319,11.843,7.319h71.908c5.015,0,9.6-2.834,11.843-7.319
	l5.169-10.336H203.034L208.202,398.75z"/>
<path style="fill:#464655;" d="M308.966,388.414h185.379V104.828c0-9.141-7.411-16.552-16.552-16.552H34.207
	c-9.141,0-16.552,7.411-16.552,16.552v283.586h185.379H308.966z M44.138,167.724v-52.966h423.724v52.966v194.207H44.138V167.724z"/>
<path style="fill:#FFFFFF;" d="M467.862,167.724H44.138v194.207h423.724V167.724z M256,211.862v114.759
	c0,4.875-3.953,8.828-8.828,8.828H79.448c-4.875,0-8.828-3.953-8.828-8.828V211.862v-8.828c0-4.875,3.953-8.828,8.828-8.828h167.724
	c4.875,0,8.828,3.953,8.828,8.828V211.862z M344.276,211.862v114.759c0,4.875-3.953,8.828-8.828,8.828h-52.966
	c-4.875,0-8.828-3.953-8.828-8.828V211.862v-8.828c0-4.875,3.953-8.828,8.828-8.828h52.966c4.875,0,8.828,3.953,8.828,8.828V211.862
	z M441.379,211.862v114.759c0,4.875-3.953,8.828-8.828,8.828h-52.966c-4.875,0-8.828-3.953-8.828-8.828V211.862v-8.828
	c0-4.875,3.953-8.828,8.828-8.828h52.966c4.875,0,8.828,3.953,8.828,8.828V211.862z"/>
<path style="fill:#FF6469;" d="M467.862,114.759H44.138v52.966h423.724V114.759z M158.897,150.069H70.621
	c-4.875,0-8.828-3.953-8.828-8.828s3.953-8.828,8.828-8.828h88.276c4.875,0,8.828,3.953,8.828,8.828
	S163.772,150.069,158.897,150.069z M229.517,150.069h-35.31c-4.875,0-8.828-3.953-8.828-8.828s3.953-8.828,8.828-8.828h35.31
	c4.875,0,8.828,3.953,8.828,8.828S234.392,150.069,229.517,150.069z M300.138,150.069h-35.31c-4.875,0-8.828-3.953-8.828-8.828
	s3.953-8.828,8.828-8.828h35.31c4.875,0,8.828,3.953,8.828,8.828S305.013,150.069,300.138,150.069z M370.759,150.069h-35.31
	c-4.875,0-8.828-3.953-8.828-8.828s3.953-8.828,8.828-8.828h35.31c4.875,0,8.828,3.953,8.828,8.828S375.634,150.069,370.759,150.069
	z M441.379,150.069h-35.31c-4.875,0-8.828-3.953-8.828-8.828s3.953-8.828,8.828-8.828h35.31c4.875,0,8.828,3.953,8.828,8.828
	S446.254,150.069,441.379,150.069z"/>
<path style="fill:#FFDC69;" d="M158.897,132.414H70.621c-4.875,0-8.828,3.953-8.828,8.828s3.953,8.828,8.828,8.828h88.276
	c4.875,0,8.828-3.953,8.828-8.828S163.772,132.414,158.897,132.414z"/>
<g>
	<path style="fill:#D2555F;" d="M229.517,132.414h-35.31c-4.875,0-8.828,3.953-8.828,8.828s3.953,8.828,8.828,8.828h35.31
		c4.875,0,8.828-3.953,8.828-8.828S234.392,132.414,229.517,132.414z"/>
	<path style="fill:#D2555F;" d="M300.138,132.414h-35.31c-4.875,0-8.828,3.953-8.828,8.828s3.953,8.828,8.828,8.828h35.31
		c4.875,0,8.828-3.953,8.828-8.828S305.013,132.414,300.138,132.414z"/>
	<path style="fill:#D2555F;" d="M370.759,132.414h-35.31c-4.875,0-8.828,3.953-8.828,8.828s3.953,8.828,8.828,8.828h35.31
		c4.875,0,8.828-3.953,8.828-8.828S375.634,132.414,370.759,132.414z"/>
	<path style="fill:#D2555F;" d="M441.379,132.414h-35.31c-4.875,0-8.828,3.953-8.828,8.828s3.953,8.828,8.828,8.828h35.31
		c4.875,0,8.828-3.953,8.828-8.828S446.254,132.414,441.379,132.414z"/>
</g>
<g>
	<path style="fill:#DEE3ED;" d="M247.172,220.69H79.448c-4.875,0-8.828-3.953-8.828-8.828v114.759c0,4.875,3.953,8.828,8.828,8.828
		h167.724c4.875,0,8.828-3.953,8.828-8.828V211.862C256,216.737,252.047,220.69,247.172,220.69z"/>
	<path style="fill:#DEE3ED;" d="M335.448,220.69h-52.966c-4.875,0-8.828-3.953-8.828-8.828v114.759c0,4.875,3.953,8.828,8.828,8.828
		h52.966c4.875,0,8.828-3.953,8.828-8.828V211.862C344.276,216.737,340.323,220.69,335.448,220.69z"/>
	<path style="fill:#DEE3ED;" d="M432.552,220.69h-52.966c-4.875,0-8.828-3.953-8.828-8.828v114.759c0,4.875,3.953,8.828,8.828,8.828
		h52.966c4.875,0,8.828-3.953,8.828-8.828V211.862C441.379,216.737,437.427,220.69,432.552,220.69z"/>
</g>
<path style="fill:#FFDC69;" d="M247.172,194.207H79.448c-4.875,0-8.828,3.953-8.828,8.828v8.828c0,4.875,3.953,8.828,8.828,8.828
	h167.724c4.875,0,8.828-3.953,8.828-8.828v-8.828C256,198.159,252.047,194.207,247.172,194.207z"/>
<path style="fill:#B4E173;" d="M335.448,194.207h-52.966c-4.875,0-8.828,3.953-8.828,8.828v8.828c0,4.875,3.953,8.828,8.828,8.828
	h52.966c4.875,0,8.828-3.953,8.828-8.828v-8.828C344.276,198.159,340.323,194.207,335.448,194.207z"/>
<path style="fill:#FF969B;" d="M432.552,194.207h-52.966c-4.875,0-8.828,3.953-8.828,8.828v8.828c0,4.875,3.953,8.828,8.828,8.828
	h52.966c4.875,0,8.828-3.953,8.828-8.828v-8.828C441.379,198.159,437.427,194.207,432.552,194.207z"/>
<g>
</g>
<g>
</g>
<g>
</g>
<g>
</g>
<g>
</g>
<g>
</g>
<g>
</g>
<g>
</g>
<g>
</g>
<g>
</g>
<g>
</g>
<g>
</g>
<g>
</g>
<g>
</g>
<g>
</g>
</svg>
