<?xml version="1.0" encoding="iso-8859-1"?>
<!-- Generator: Adobe Illustrator 19.0.0, SVG Export Plug-In . SVG Version: 6.00 Build 0)  -->
<svg version="1.1" id="Layer_1" xmlns="http://www.w3.org/2000/svg" xmlns:xlink="http://www.w3.org/1999/xlink" x="0px" y="0px"
	 viewBox="0 0 512 512" style="enable-background:new 0 0 512 512;" xml:space="preserve">
<g>
	<path style="fill:#FFCD73;" d="M79.484,172.949c0.284-14.257,2.321-28.149,5.899-41.463
		C81.803,144.8,79.767,158.692,79.484,172.949c-0.233,11.702,0.697,23.143,2.639,34.235
		C80.181,196.091,79.25,184.651,79.484,172.949z"/>
	<path style="fill:#FFCD73;" d="M175.094,333.49c-38.603-19.937-68.887-53.703-84.347-94.737
		C106.206,279.787,136.49,313.553,175.094,333.49c7.584,3.917,13.88,9.599,18.563,16.384
		C188.974,343.089,182.679,337.407,175.094,333.49z"/>
	<path style="fill:#FFCD73;" d="M200.046,362.467c-1.533-4.391-3.637-8.548-6.243-12.366
		C196.408,353.918,198.513,358.076,200.046,362.467z"/>
	<path style="fill:#FFCD73;" d="M295.094,212.325c-4.648,0.946-7.575,3.281-11.512,6.433c-5.992,4.793-13.452,10.759-27.582,10.759
		c-14.13,0-21.59-5.965-27.582-10.759c-3.937-3.153-6.863-5.487-11.512-6.433l30.124,165.683c0.096,0.531,0.135,1.057,0.136,1.578
		h17.668c0-0.521,0.04-1.047,0.136-1.578L295.094,212.325z"/>
	<path style="fill:#FFCD73;" d="M85.917,129.583c0.295-1.049,0.597-2.097,0.911-3.139C86.514,127.486,86.213,128.534,85.917,129.583
		z"/>
	<path style="fill:#FFCD73;" d="M246.623,0.243c6.811-0.352,13.534-0.289,20.168,0.111C207.744,5.68,160.099,81.865,158.919,172.949
		c-0.904,69.803,24.536,130.59,62.059,160.469l-26.63-146.461c-0.871-4.793,2.311-9.388,7.107-10.259
		c4.771-0.94,9.393,2.302,10.263,7.104l1.9,10.452c12.99,0.476,20.088,6.124,25.824,10.712c5.19,4.156,8.617,6.897,16.556,6.897
		c7.939,0,11.367-2.741,16.556-6.897c5.736-4.588,12.834-10.237,25.824-10.712l1.9-10.452c0.871-4.802,5.457-8.034,10.263-7.104
		c4.798,0.871,7.978,5.465,7.107,10.259l-35.024,192.63h26.338v0.534c0-19.564,10.698-37.706,28.073-46.698
		c56.734-29.362,95.514-88.581,95.514-156.871C432.552,75.936,348.389-5.02,246.623,0.243z"/>
	<path style="fill:#FFCD73;" d="M200.144,362.783c1.884,5.504,2.89,11.359,2.89,17.343l0,0
		C203.034,374.141,202.027,368.287,200.144,362.783z"/>
</g>
<path style="fill:#FFFFFF;" d="M228.418,218.757c5.992,4.793,13.452,10.759,27.582,10.759s21.59-5.965,27.582-10.759
	c3.937-3.153,6.863-5.487,11.512-6.433l3.286-18.072c-12.99,0.476-20.088,6.124-25.824,10.712c-5.19,4.156-8.617,6.897-16.556,6.897
	c-7.939,0-11.367-2.741-16.556-6.897c-5.736-4.588-12.834-10.237-25.824-10.712l3.286,18.072
	C221.553,213.27,224.481,215.605,228.418,218.757z"/>
<path style="fill:#FFB969;" d="M203.034,379.586h26.338l-8.394-46.168c-37.523-29.878-62.963-90.664-62.059-160.469
	C160.099,81.865,207.744,5.68,266.791,0.354c-6.633-0.401-13.356-0.463-20.168-0.111c-0.047,0.002-0.095,0.003-0.142,0.006
	C171.202,4.2,107.807,56.854,86.828,126.444c-0.314,1.043-0.616,2.089-0.911,3.139c-0.179,0.634-0.363,1.266-0.535,1.902
	c-3.58,13.314-5.615,27.207-5.899,41.463c-0.233,11.702,0.697,23.143,2.639,34.235c1.908,10.901,4.814,21.456,8.625,31.571
	c15.459,41.033,45.744,74.799,84.347,94.737c7.584,3.917,13.88,9.598,18.563,16.384c0.051,0.074,0.095,0.152,0.145,0.226
	c2.605,3.818,4.711,7.976,6.243,12.366c0.036,0.104,0.063,0.212,0.098,0.316c1.882,5.504,2.89,11.359,2.89,17.343v-0.541H203.034z"
	/>
<g>
	<path style="fill:#FFE8C0;" d="M238.345,379.586h8.821c0-0.521-0.04-1.047-0.136-1.578l-30.124-165.683l-3.286-18.072l-1.9-10.452
		c-0.871-4.802-5.492-8.043-10.263-7.104c-4.798,0.871-7.978,5.465-7.107,10.259l26.63,146.461l8.394,46.168h8.972V379.586z"/>
	<path style="fill:#FFE8C0;" d="M264.97,378.009c-0.096,0.531-0.135,1.057-0.136,1.578h17.793l35.024-192.63
		c0.871-4.793-2.311-9.388-7.107-10.259c-4.806-0.931-9.393,2.302-10.263,7.104l-1.9,10.452l-3.286,18.072L264.97,378.009z"/>
</g>
<path style="fill:#96A5B9;" d="M238.345,494.345c0,9.751,7.904,17.655,17.655,17.655c9.751,0,17.655-7.904,17.655-17.655v-8.828
	h-35.31V494.345z"/>
<g>
	<path style="fill:#BEC8DC;" d="M238.345,436.409l69.473-9.924c0.386-0.055,0.768-0.077,1.148-0.082v-17.738l-70.621,10.089V436.409
		z"/>
	<path style="fill:#BEC8DC;" d="M203.165,459.03c0.024,0.204,0.049,0.408,0.079,0.611
		C203.215,459.438,203.19,459.234,203.165,459.03L203.165,459.03z"/>
	<path style="fill:#BEC8DC;" d="M212.793,472.742L212.793,472.742c-0.747-0.374-1.461-0.797-2.136-1.262
		C211.332,471.946,212.046,472.368,212.793,472.742z"/>
	<path style="fill:#BEC8DC;" d="M203.84,462.193c-0.07-0.222-0.136-0.446-0.195-0.671
		C203.704,461.749,203.77,461.972,203.84,462.193z"/>
	<path style="fill:#BEC8DC;" d="M282.627,379.586h-17.793h-17.668h-8.821v21.513l69.473-9.924c0.386-0.055,0.768-0.077,1.148-0.082
		V380.12v-0.534H282.627z"/>
	<path style="fill:#BEC8DC;" d="M238.345,454.064v2.885c0,6.688,3.778,12.801,9.76,15.792l25.55,12.776l25.55-12.776
		c5.982-2.99,9.76-9.103,9.76-15.792v-12.974L238.345,454.064z"/>
</g>
<g>
	<polygon style="fill:#AAB6CA;" points="238.345,379.586 229.372,379.586 203.034,379.586 203.034,380.125 203.034,380.125 
		203.034,397.241 203.034,406.144 238.345,401.099 	"/>
	<path style="fill:#AAB6CA;" d="M238.345,418.754l-34.163,4.881c-0.386,0.055-0.768,0.077-1.148,0.082v17.738l35.311-5.044
		L238.345,418.754L238.345,418.754z"/>
	<path style="fill:#AAB6CA;" d="M238.345,456.951v-2.886l-34.163,4.881c-0.341,0.049-0.68,0.075-1.015,0.084
		c0.024,0.204,0.049,0.408,0.079,0.611c0.098,0.638,0.233,1.266,0.398,1.883c0.061,0.225,0.127,0.448,0.195,0.671
		c1.045,3.357,3.066,6.346,5.832,8.554c0.319,0.255,0.648,0.499,0.985,0.732c0.675,0.467,1.389,0.889,2.136,1.263l25.55,12.776
		h35.31l-25.55-12.776C242.123,469.751,238.345,463.638,238.345,456.951z"/>
</g>
<g>
	<path style="fill:#96A5B9;" d="M307.818,426.485l-69.473,9.924l-35.31,5.044l-1.324,0.19c-4.306,0.615-7.503,4.302-7.503,8.651
		c0,4.973,4.119,8.866,8.96,8.735l0,0c0.335-0.009,0.674-0.035,1.015-0.084l34.163-4.881l70.621-10.089l1.324-0.19
		c4.306-0.615,7.503-4.302,7.503-8.651c0-4.928-4.045-8.789-8.828-8.733C308.587,426.407,308.204,426.43,307.818,426.485z"/>
	<path style="fill:#96A5B9;" d="M307.818,391.174l-69.473,9.924l-35.31,5.044l-1.324,0.19c-4.306,0.615-7.503,4.302-7.503,8.651
		c0,4.928,4.045,8.789,8.828,8.733c0.378-0.004,0.76-0.026,1.148-0.082l34.163-4.881l70.621-10.089l1.324-0.19
		c4.306-0.615,7.503-4.302,7.503-8.651c0-4.928-4.045-8.789-8.828-8.733C308.587,391.097,308.204,391.119,307.818,391.174z"/>
</g>
<g>
</g>
<g>
</g>
<g>
</g>
<g>
</g>
<g>
</g>
<g>
</g>
<g>
</g>
<g>
</g>
<g>
</g>
<g>
</g>
<g>
</g>
<g>
</g>
<g>
</g>
<g>
</g>
<g>
</g>
</svg>
