<?xml version="1.0" encoding="iso-8859-1"?>
<!-- Generator: Adobe Illustrator 19.0.0, SVG Export Plug-In . SVG Version: 6.00 Build 0)  -->
<svg version="1.1" id="Layer_1" xmlns="http://www.w3.org/2000/svg" xmlns:xlink="http://www.w3.org/1999/xlink" x="0px" y="0px"
	 viewBox="0 0 512 512" style="enable-background:new 0 0 512 512;" xml:space="preserve">
<path style="fill:#314E55;" d="M508.603,182.573c-2.86-2.276-6.825-2.575-10-0.79L369.02,254.817L265.553,80.609
	c-1.281-2.169-3.403-3.52-5.746-4.055c-0.016-0.004-0.028-0.015-0.044-0.02c-0.027-0.008-0.055-0.001-0.083-0.009
	c-0.681-0.145-1.357-0.228-2.065-0.212c-0.717-0.019-1.401,0.065-2.09,0.214c-0.023,0.005-0.047,0-0.07,0.007
	c-0.014,0.004-0.024,0.013-0.037,0.018c-2.345,0.533-4.47,1.886-5.752,4.057L145.392,256.175L13.397,181.783
	c-3.175-1.789-7.132-1.487-10,0.79c-2.86,2.272-4.061,6.053-3.035,9.557l69.421,237.103c1.123,3.824,4.632,6.456,8.623,6.456h3.93
	h347.339h3.921c3.991,0,7.5-2.632,8.623-6.456l69.421-237.103C512.664,188.625,511.463,184.845,508.603,182.573z"/>
<path style="fill:#5ECB66;" d="M266.816,117.911l86.555,145.727l-87.002,49.035v-0.518c0.19-0.728,0.447-1.432,0.447-2.219
	L266.816,117.911L266.816,117.911z"/>
<polygon style="fill:#73C9C9;" points="248.404,117.911 248.404,314.232 161.043,264.995 "/>
<polygon style="fill:#5ECB66;" points="85.133,417.724 23.809,208.274 395.437,417.724 "/>
<polygon style="fill:#73C9C9;" points="427.598,415.226 274.297,328.826 488.191,208.274 "/>
<g>
</g>
<g>
</g>
<g>
</g>
<g>
</g>
<g>
</g>
<g>
</g>
<g>
</g>
<g>
</g>
<g>
</g>
<g>
</g>
<g>
</g>
<g>
</g>
<g>
</g>
<g>
</g>
<g>
</g>
</svg>
