<?xml version="1.0" encoding="iso-8859-1"?>
<!-- Generator: Adobe Illustrator 19.0.0, SVG Export Plug-In . SVG Version: 6.00 Build 0)  -->
<svg version="1.1" id="Layer_1" xmlns="http://www.w3.org/2000/svg" xmlns:xlink="http://www.w3.org/1999/xlink" x="0px" y="0px"
	 viewBox="0 0 297.834 297.834" style="enable-background:new 0 0 297.834 297.834;" xml:space="preserve">
<g>
	<path style="fill:#BDC3C7;" d="M255.944,224.621c-2.925-13.486-13.435-24.034-26.91-27.008l-49.316-10.885
		c-1.153,15.917-30.822,40.606-30.822,40.606s-29.338-24.732-30.45-40.688l-49.688,10.967c-13.475,2.974-23.985,13.522-26.91,27.008
		l-9.126,42.076c13.14,8.612,28.709,15.764,46.016,21.034c21.242,6.469,45.104,10.102,70.326,10.102
		c25.092,0,48.839-3.595,69.999-10.001c17.31-5.241,32.886-12.364,46.047-20.945L255.944,224.621z"/>
	<g>
		<path d="M120.016,181.997h58.99c0,0,1.341,43.213-28.132,43.213S119.972,190.752,120.016,181.997z"/>
	</g>
	<g>
		<g>
			<polygon style="fill:#DDC29B;" points="166.085,192.058 166.085,161.833 132.085,161.833 132.085,192.058 115.73,198.5 
				115.73,239.833 148.564,239.833 149.418,239.833 182.252,239.833 182.252,198.5 			"/>
		</g>
	</g>
	<g>
		<path style="fill:#E8D8BF;" d="M234.247,106.553c0-7.098-4.379-13.164-10.578-15.671c0.222-2.471,0.341-4.918,0.341-7.327
			c0-41.38-33.545-56.194-74.925-56.194S74.16,42.175,74.16,83.555c0,2.409,0.118,4.856,0.341,7.327
			c-6.199,2.507-10.578,8.573-10.578,15.671c0,9.179,12.356,21.685,21.646,22.107c13.249,26.661,36.74,48.551,63.516,48.551
			s50.267-21.89,63.516-48.551C221.891,128.238,234.247,115.733,234.247,106.553z"/>
	</g>
	<g>
		<path style="fill:#DCE0E2;" d="M255.944,224.621c-2.925-13.486-13.435-24.034-26.91-27.008l-0.662-0.146
			c-14.141,28.148-12.306,59.461-9.308,90.366c17.31-5.241,32.886-12.364,46.047-20.945L255.944,224.621z"/>
	</g>
	<g>
		<g>
			<path style="fill:#BDC3C7;" d="M179.718,186.728c-1.153,15.917-30.822,40.606-30.822,40.606s-29.338-24.732-30.45-40.688
				l-49.025,10.821c14.126,28.117,12.31,59.393,9.318,90.265c21.242,6.469,45.104,10.102,70.326,10.102
				c25.092,0,48.839-3.595,69.999-10.001c-2.998-30.905-4.834-62.218,9.308-90.366L179.718,186.728z"/>
		</g>
	</g>
	<g>
		<path style="fill:#DCE0E2;" d="M68.758,197.613c-13.475,2.974-23.985,13.522-26.91,27.008l-9.126,42.076
			c13.14,8.612,28.709,15.764,46.016,21.034c2.992-30.872,4.808-62.148-9.318-90.265L68.758,197.613z"/>
	</g>
	<path style="fill:#2B2B2B;" d="M179.042,182.003l-29.609,37.641l-29.431-37.641l-7.877,6.16l30.942,39.573l-32.004,40.686v26.576
		c5.345,0.81,10.794,1.453,16.333,1.919v-28.496l59.522-80.259L179.042,182.003z"/>
	<g>
		<path style="fill:#DDCDB6;" d="M223.647,90.882c0.222-2.471,0.341-4.918,0.341-7.327c0-41.38-33.545-56.194-74.925-56.194
			S74.138,42.175,74.138,83.555c0,2.409,0.118,4.856,0.341,7.327c-6.2,2.507-10.579,8.573-10.579,15.671
			c0,9.179,12.356,21.685,21.646,22.107c13.249,26.661,36.74,48.551,63.516,48.551s50.267-21.89,63.516-48.551
			c9.29-0.422,21.646-12.928,21.646-22.107C234.225,99.455,229.847,93.389,223.647,90.882z M149.063,174.741
			c-31.403,0-56.86-51.012-56.86-83.904s25.457-45.281,56.86-45.281s56.86,12.389,56.86,45.281S180.466,174.741,149.063,174.741z"/>
	</g>
	<g>
		<path style="fill:#935733;" d="M216.962,27.481C192.73-4.065,153.397,3.27,153.397,3.27c-23.5-12.695-69.148,13.719-79.167,42.39
			c-6.656,19.048-5.326,33.872-2.151,44.564c0.933,3.142,5.136,12.062,5.136,12.062l0,0c2.028,4.558,4.604,10.148,7.635,16.319
			c0,0-2.452-8.54-2.634-17.808L99.064,66c0,0,47,22.667,100.167,0.333l14.915,29.377c0.153,11.389-5.117,24.248-5.117,24.248
			c7.027-6.464,10.803-14.833,13.363-20.885C228.645,84.293,237.083,53.676,216.962,27.481z"/>
	</g>
	<g>
		<g>
			<path style="fill:#7F4629;" d="M74.23,65.587c10.019-28.672,55.667-55.085,79.167-42.391c0,0,39.333-7.335,63.565,24.211
				c7.025,9.146,10.562,18.83,11.932,28.192c1.97-14.641,0.299-32.194-11.932-48.119C192.73-4.065,153.397,3.27,153.397,3.27
				c-23.5-12.695-69.148,13.719-79.167,42.39c-5.061,14.484-5.5,26.519-4.026,36.159C70.923,76.797,72.202,71.391,74.23,65.587z"/>
		</g>
	</g>
</g>
<g>
</g>
<g>
</g>
<g>
</g>
<g>
</g>
<g>
</g>
<g>
</g>
<g>
</g>
<g>
</g>
<g>
</g>
<g>
</g>
<g>
</g>
<g>
</g>
<g>
</g>
<g>
</g>
<g>
</g>
</svg>
