<?xml version="1.0" encoding="iso-8859-1"?>
<!-- Generator: Adobe Illustrator 19.0.0, SVG Export Plug-In . SVG Version: 6.00 Build 0)  -->
<svg version="1.1" id="Layer_1" xmlns="http://www.w3.org/2000/svg" xmlns:xlink="http://www.w3.org/1999/xlink" x="0px" y="0px"
	 viewBox="0 0 512 512" style="enable-background:new 0 0 512 512;" xml:space="preserve">
<path style="fill:#464655;" d="M88.276,97.103c0-4.875-3.953-8.828-8.828-8.828h-35.31c-4.875,0-8.828,3.953-8.828,8.828v8.828
	h52.966V97.103z"/>
<g>
	<path style="fill:#707384;" d="M4.225,387.518c-0.406-0.751-0.778-1.524-1.13-2.307C3.446,385.994,3.819,386.765,4.225,387.518z"/>
	<path style="fill:#707384;" d="M17.386,401.178c-0.907-0.536-1.788-1.112-2.641-1.725
		C15.599,400.066,16.479,400.643,17.386,401.178z"/>
	<path style="fill:#707384;" d="M7.464,392.457c-1.102-1.412-2.1-2.909-2.98-4.481C5.364,389.548,6.361,391.044,7.464,392.457z"/>
	<path style="fill:#707384;" d="M33.493,406.023c-4.003-0.203-7.826-1.081-11.368-2.508
		C25.668,404.942,29.491,405.82,33.493,406.023z"/>
	<path style="fill:#707384;" d="M21.416,403.227c-0.833-0.358-1.647-0.75-2.445-1.167C19.769,402.476,20.583,402.869,21.416,403.227
		z"/>
	<path style="fill:#707384;" d="M181.641,370.759h-58.055c0,19.501-15.809,35.31-35.31,35.31h124
		C200.322,395.987,189.967,384.074,181.641,370.759z"/>
	<path style="fill:#707384;" d="M405.655,406.069h71.034c19.501,0,35.31-15.809,35.31-35.31h-75.71
		C427.964,384.074,417.609,395.987,405.655,406.069z"/>
	<path style="fill:#707384;" d="M2.364,383.459c-0.173-0.449-0.337-0.904-0.492-1.362C2.027,382.556,2.19,383.01,2.364,383.459z"/>
	<path style="fill:#707384;" d="M8.499,393.722c1.27,1.482,2.657,2.859,4.153,4.113C11.156,396.582,9.769,395.203,8.499,393.722z"/>
	<path style="fill:#707384;" d="M123.586,158.897h114.714c21.059-11.262,45.114-17.655,70.665-17.655s49.606,6.393,70.665,17.655
		H512c0-19.501-15.809-35.31-35.31-35.31h-69.188l-11.619-34.857c-3.604-10.815-13.724-18.109-25.123-18.109h-8.828l-5.484,21.938
		c-1.965,7.859-9.027,13.373-17.128,13.373h-60.706c-8.102,0-15.164-5.514-17.128-13.373L256,70.621h-7.395
		c-11.4,0-21.519,7.294-25.124,18.109l-11.618,34.857H118.85c3.007,5.195,4.736,11.221,4.736,17.655V158.897z"/>
</g>
<g>
	<path style="fill:#464655;" d="M379.63,158.897c47.252,25.27,79.404,75.084,79.404,132.414c0,29.178-8.337,56.406-22.744,79.448
		H512V158.897H379.63z M472.276,207.448c-7.313,0-13.241-5.929-13.241-13.241s5.929-13.241,13.241-13.241
		c7.313,0,13.241,5.929,13.241,13.241S479.588,207.448,472.276,207.448z"/>
	<path style="fill:#464655;" d="M123.586,370.759h58.055c-14.408-23.042-22.744-50.27-22.744-79.448
		c0-57.33,32.152-107.144,79.404-132.414H123.586V370.759z"/>
</g>
<path style="fill:#535463;" d="M436.29,370.759c14.408-23.042,22.744-50.27,22.744-79.448c0-57.33-32.152-107.144-79.404-132.414
	c-21.059-11.262-45.114-17.655-70.665-17.655s-49.606,6.393-70.665,17.655c-47.252,25.27-79.404,75.084-79.404,132.414
	c0,29.178,8.337,56.406,22.744,79.448c8.326,13.315,18.68,25.228,30.634,35.31c26.116,22.027,59.85,35.31,96.69,35.31
	s70.573-13.283,96.69-35.31C417.609,395.987,427.964,384.074,436.29,370.759z M194.207,291.31
	c0-63.38,51.379-114.759,114.759-114.759S423.724,227.93,423.724,291.31s-51.379,114.759-114.759,114.759
	S194.207,354.69,194.207,291.31z"/>
<path style="fill:#464655;" d="M423.724,291.31c0-63.38-51.379-114.759-114.759-114.759S194.207,227.93,194.207,291.31
	s51.379,114.759,114.759,114.759S423.724,354.69,423.724,291.31z M299.038,387.913c-1.632-0.165-3.253-0.372-4.86-0.618
	c-4.822-0.737-9.527-1.828-14.088-3.246c-9.882-3.073-19.087-7.683-27.337-13.549c-0.634-0.451-1.263-0.91-1.887-1.376
	c-3.738-2.796-7.27-5.855-10.564-9.15c-0.55-0.549-1.091-1.105-1.628-1.667c-1.071-1.124-2.118-2.274-3.135-3.448
	c-2.035-2.349-3.959-4.797-5.764-7.335c-0.903-1.269-1.775-2.561-2.617-3.874c-0.842-1.313-1.653-2.648-2.433-4.003
	c-0.779-1.355-1.527-2.732-2.242-4.127c-1.073-2.093-2.071-4.231-2.993-6.41c-0.615-1.452-1.194-2.922-1.739-4.409
	c-3.809-10.412-5.889-21.659-5.889-33.389s2.08-22.977,5.892-33.387c0.544-1.487,1.124-2.957,1.739-4.409
	c0.921-2.178,1.92-4.316,2.993-6.41c0.715-1.396,1.463-2.772,2.242-4.127c0.779-1.355,1.591-2.69,2.433-4.003
	c0.842-1.313,1.715-2.605,2.617-3.874c1.805-2.538,3.729-4.986,5.764-7.335c1.017-1.174,2.062-2.325,3.135-3.448
	c0.536-0.562,1.078-1.118,1.628-1.667c3.295-3.295,6.825-6.354,10.564-9.15c0.623-0.466,1.252-0.925,1.887-1.376
	c8.249-5.866,17.454-10.476,27.337-13.549c4.561-1.419,9.266-2.51,14.088-3.246c1.608-0.246,3.228-0.451,4.86-0.618
	c3.264-0.331,6.577-0.501,9.928-0.501c53.629,0,97.103,43.475,97.103,97.103s-43.475,97.103-97.103,97.103
	C305.613,388.414,302.302,388.244,299.038,387.913z"/>
<path style="fill:#535463;" d="M123.586,370.759V158.897v-17.655c0-6.434-1.729-12.46-4.736-17.655
	c-6.105-10.551-17.507-17.655-30.574-17.655H35.31C15.809,105.931,0,121.74,0,141.241v8.828h35.31
	c14.626,0,26.483,11.857,26.483,26.483v158.897c0,14.626-11.857,26.483-26.483,26.483H0v8.828c0,3.968,0.664,7.779,1.871,11.339
	c0.156,0.458,0.319,0.911,0.492,1.362c0.228,0.591,0.472,1.175,0.732,1.751c0.352,0.783,0.724,1.556,1.13,2.307
	c0.084,0.154,0.173,0.305,0.258,0.458c0.881,1.572,1.878,3.069,2.98,4.481c0.335,0.43,0.681,0.852,1.035,1.266
	c1.27,1.482,2.657,2.859,4.153,4.113c0.676,0.566,1.376,1.105,2.094,1.62c0.853,0.612,1.732,1.188,2.641,1.725
	c0.52,0.307,1.048,0.599,1.585,0.881c0.799,0.418,1.612,0.811,2.445,1.167c0.234,0.1,0.472,0.193,0.71,0.288
	c3.542,1.427,7.364,2.305,11.368,2.508c0.601,0.03,1.207,0.045,1.816,0.045h52.966C107.777,406.069,123.586,390.26,123.586,370.759z
	"/>
<path style="fill:#464655;" d="M61.793,335.448V176.552c0-14.626-11.857-26.483-26.483-26.483H0v8.828v203.034h35.31
	C49.937,361.931,61.793,350.074,61.793,335.448z"/>
<path style="fill:#7DE6C3;" d="M406.069,291.31c0-53.629-43.475-97.103-97.103-97.103c7.604,0,14.968,0.963,22.069,2.616
	C288.056,206.828,256,245.286,256,291.31s32.056,84.482,75.034,94.487c-7.101,1.653-14.465,2.616-22.069,2.616
	C362.594,388.414,406.069,344.939,406.069,291.31z M273.655,291.31c0-19.501,15.809-35.31,35.31-35.31
	c0-14.626,11.857-26.483,26.483-26.483s26.483,11.857,26.483,26.483c0,12.052-8.053,22.216-19.069,25.423
	c0.914,3.138,1.414,6.454,1.414,9.887c0,19.501-15.809,35.31-35.31,35.31S273.655,310.812,273.655,291.31z"/>
<g>
	<path style="fill:#5FD7B4;" d="M256,291.31c0-46.025,32.056-84.482,75.034-94.487c-7.101-1.653-14.465-2.616-22.069-2.616
		c-3.352,0-6.664,0.17-9.928,0.501c-1.632,0.166-3.253,0.372-4.86,0.618c-4.822,0.737-9.527,1.828-14.088,3.246
		c-9.882,3.073-19.087,7.683-27.337,13.549c-0.634,0.451-1.263,0.91-1.887,1.376c-3.738,2.796-7.27,5.855-10.564,9.15
		c-0.55,0.55-1.091,1.105-1.628,1.667c-1.071,1.124-2.118,2.274-3.135,3.448c-2.035,2.349-3.959,4.797-5.764,7.335
		c-0.903,1.269-1.775,2.561-2.617,3.874c-0.842,1.313-1.653,2.648-2.433,4.003c-0.779,1.355-1.527,2.732-2.242,4.127
		c-1.073,2.093-2.071,4.232-2.993,6.41c-0.615,1.452-1.194,2.922-1.739,4.409c-3.809,10.412-5.889,21.658-5.889,33.389
		s2.08,22.977,5.892,33.387c0.544,1.487,1.124,2.957,1.739,4.409c0.921,2.178,1.92,4.316,2.993,6.41
		c0.715,1.396,1.463,2.772,2.242,4.127c0.779,1.355,1.591,2.69,2.433,4.003c0.842,1.313,1.715,2.605,2.617,3.874
		c1.805,2.538,3.729,4.986,5.764,7.335c1.017,1.174,2.062,2.325,3.135,3.448c0.536,0.562,1.078,1.118,1.628,1.667
		c3.295,3.295,6.825,6.354,10.564,9.15c0.623,0.466,1.252,0.925,1.887,1.376c8.249,5.866,17.454,10.476,27.337,13.549
		c4.561,1.419,9.266,2.51,14.088,3.246c1.608,0.246,3.228,0.451,4.86,0.618c3.264,0.331,6.577,0.501,9.928,0.501
		c7.604,0,14.968-0.963,22.069-2.616C288.056,375.793,256,337.335,256,291.31z"/>
	<path style="fill:#5FD7B4;" d="M344.276,291.31c0-3.434-0.5-6.749-1.414-9.887c-2.354,0.685-4.84,1.059-7.414,1.059
		c-14.626,0-26.483-11.857-26.483-26.483c-19.501,0-35.31,15.809-35.31,35.31c0,19.501,15.809,35.31,35.31,35.31
		S344.276,310.812,344.276,291.31z M297.931,304.552c-6.094,0-11.034-4.94-11.034-11.034s4.94-11.034,11.034-11.034
		s11.034,4.94,11.034,11.034S304.025,304.552,297.931,304.552z"/>
</g>
<g>
	<path style="fill:#FFFFFF;" d="M335.448,282.483c2.574,0,5.06-0.374,7.414-1.059c11.016-3.208,19.069-13.372,19.069-25.423
		c0-14.626-11.857-26.483-26.483-26.483S308.966,241.374,308.966,256S320.822,282.483,335.448,282.483z"/>
	<circle style="fill:#FFFFFF;" cx="297.931" cy="293.517" r="11.034"/>
</g>
<circle style="fill:#FFCD73;" cx="472.276" cy="194.207" r="13.241"/>
<path style="fill:#535463;" d="M278.612,105.931h60.706c8.102,0,15.164-5.514,17.128-13.373l5.485-21.938H256l5.484,21.938
	C263.449,100.417,270.511,105.931,278.612,105.931z"/>
<g>
</g>
<g>
</g>
<g>
</g>
<g>
</g>
<g>
</g>
<g>
</g>
<g>
</g>
<g>
</g>
<g>
</g>
<g>
</g>
<g>
</g>
<g>
</g>
<g>
</g>
<g>
</g>
<g>
</g>
</svg>
