<?xml version="1.0" encoding="iso-8859-1"?>
<!-- Generator: Adobe Illustrator 19.0.0, SVG Export Plug-In . SVG Version: 6.00 Build 0)  -->
<svg version="1.1" id="Layer_1" xmlns="http://www.w3.org/2000/svg" xmlns:xlink="http://www.w3.org/1999/xlink" x="0px" y="0px"
	 viewBox="0 0 512 512" style="enable-background:new 0 0 512 512;" xml:space="preserve">
<g>
	<path style="fill:#FFDC69;" d="M158.897,114.759c0-9.751,7.904-17.655,17.655-17.655c6.531,0,12.221,3.555,15.274,8.828h46.519
		V17.655C238.345,7.904,230.441,0,220.69,0h-88.276c-9.751,0-17.655,7.904-17.655,17.655v194.207c0,9.75,7.904,17.655,17.655,17.655
		h35.31v-99.485C162.452,126.978,158.897,121.29,158.897,114.759z"/>
	<path style="fill:#FFDC69;" d="M185.379,130.033v99.485h35.31c9.751,0,17.655-7.905,17.655-17.655v-88.276h-46.519
		C190.276,126.26,188.052,128.484,185.379,130.033z"/>
</g>
<path style="fill:#FF6469;" d="M317.793,114.759c0-9.751,7.904-17.655,17.655-17.655s17.655,7.904,17.655,17.655
	c0,6.531-3.555,12.22-8.828,15.274v99.485h35.31c9.751,0,17.655-7.905,17.655-17.655V17.655C397.241,7.904,389.337,0,379.586,0
	H291.31c-9.751,0-17.655,7.904-17.655,17.655v66.966l23.896,23.896c1.725,1.724,2.586,3.982,2.586,6.241
	c0,2.259-0.862,4.518-2.586,6.241l-23.896,23.897v66.965c0,9.75,7.904,17.655,17.655,17.655h35.31v-99.485
	C321.348,126.978,317.793,121.29,317.793,114.759z"/>
<path style="fill:#B4E173;" d="M196.793,320.38c3.448-3.448,9.035-3.448,12.483,0s3.448,9.035,0,12.483l-26.472,26.472
	c-0.211,0.212-0.433,0.412-0.664,0.601c-0.078,0.064-0.161,0.119-0.242,0.18c-0.149,0.114-0.297,0.228-0.452,0.333
	c-0.111,0.074-0.227,0.138-0.341,0.207c-0.132,0.079-0.262,0.162-0.398,0.235c-0.121,0.065-0.247,0.12-0.372,0.179
	c-0.136,0.065-0.27,0.132-0.41,0.191c-0.124,0.051-0.249,0.092-0.374,0.137c-0.146,0.053-0.29,0.108-0.44,0.153
	c-0.127,0.039-0.257,0.067-0.386,0.099c-0.15,0.038-0.298,0.079-0.45,0.11c-0.152,0.03-0.306,0.047-0.459,0.07
	c-0.131,0.019-0.26,0.044-0.394,0.057c-0.289,0.029-0.58,0.044-0.871,0.044s-0.582-0.015-0.871-0.044
	c-0.134-0.013-0.263-0.038-0.395-0.057c-0.153-0.022-0.307-0.04-0.458-0.07c-0.153-0.03-0.301-0.072-0.451-0.11
	c-0.128-0.033-0.258-0.061-0.385-0.099c-0.15-0.045-0.295-0.102-0.44-0.155c-0.125-0.045-0.25-0.086-0.374-0.137
	c-0.14-0.059-0.275-0.126-0.412-0.191c-0.124-0.059-0.248-0.114-0.371-0.179c-0.137-0.073-0.267-0.157-0.399-0.236
	c-0.114-0.068-0.23-0.132-0.34-0.206c-0.157-0.105-0.306-0.221-0.455-0.334c-0.079-0.061-0.161-0.115-0.238-0.178
	c-0.232-0.19-0.454-0.389-0.664-0.601l-26.472-26.472c-3.448-3.448-3.448-9.035,0-12.483c3.448-3.448,9.035-3.448,12.483,0
	l11.415,11.414v-49.311h-35.31c-9.751,0-17.655,7.904-17.655,17.655v194.207c0,9.75,7.904,17.655,17.655,17.655h88.276
	c9.751,0,17.655-7.905,17.655-17.655V300.138c0-9.751-7.904-17.655-17.655-17.655h-35.31v49.311L196.793,320.38z M176.552,414.897
	c-9.751,0-17.655-7.905-17.655-17.655c0-9.751,7.904-17.655,17.655-17.655s17.655,7.904,17.655,17.655
	C194.207,406.991,186.303,414.897,176.552,414.897z"/>
<path style="fill:#A0DCF0;" d="M355.69,320.38c3.448-3.448,9.035-3.448,12.483,0s3.448,9.035,0,12.483l-26.472,26.472
	c-0.211,0.212-0.433,0.412-0.664,0.601c-0.078,0.064-0.161,0.119-0.242,0.18c-0.149,0.114-0.297,0.228-0.452,0.333
	c-0.111,0.074-0.227,0.138-0.341,0.207c-0.132,0.079-0.262,0.162-0.398,0.235c-0.121,0.065-0.247,0.12-0.372,0.179
	c-0.136,0.065-0.27,0.132-0.41,0.191c-0.124,0.051-0.249,0.092-0.374,0.137c-0.146,0.053-0.29,0.108-0.44,0.153
	c-0.127,0.039-0.257,0.067-0.386,0.099c-0.15,0.038-0.298,0.079-0.45,0.11c-0.152,0.03-0.306,0.047-0.459,0.07
	c-0.131,0.019-0.26,0.044-0.394,0.057c-0.289,0.029-0.58,0.044-0.871,0.044c-0.29,0-0.582-0.015-0.871-0.044
	c-0.134-0.013-0.263-0.038-0.395-0.057c-0.153-0.022-0.307-0.04-0.458-0.07c-0.153-0.03-0.301-0.072-0.451-0.11
	c-0.128-0.033-0.258-0.061-0.385-0.099c-0.15-0.045-0.295-0.102-0.44-0.155c-0.125-0.045-0.25-0.086-0.374-0.137
	c-0.14-0.059-0.275-0.126-0.412-0.191c-0.124-0.059-0.248-0.114-0.371-0.179c-0.137-0.073-0.267-0.157-0.399-0.236
	c-0.114-0.068-0.23-0.132-0.34-0.206c-0.157-0.105-0.306-0.221-0.455-0.334c-0.079-0.061-0.161-0.115-0.238-0.178
	c-0.232-0.19-0.454-0.389-0.664-0.601l-26.472-26.472c-3.448-3.448-3.448-9.035,0-12.483s9.035-3.448,12.483,0l11.415,11.414
	v-49.311h-35.31c-9.751,0-17.655,7.904-17.655,17.655v194.207c0,9.75,7.904,17.655,17.655,17.655h88.276
	c9.751,0,17.655-7.905,17.655-17.655V300.138c0-9.751-7.904-17.655-17.655-17.655h-35.31v49.311L355.69,320.38z M335.448,414.897
	c-9.751,0-17.655-7.905-17.655-17.655c0-9.751,7.904-17.655,17.655-17.655s17.655,7.904,17.655,17.655
	C353.103,406.991,345.199,414.897,335.448,414.897z"/>
<circle style="fill:#78B9C8;" cx="335.448" cy="397.241" r="17.655"/>
<circle style="fill:#96B95A;" cx="176.552" cy="397.241" r="17.655"/>
<g>
	<path style="fill:#707384;" d="M176.552,132.414c-3.22,0-6.229-0.876-8.828-2.381v99.485v52.966v49.311L156.31,320.38
		c-3.448-3.448-9.035-3.448-12.483,0c-3.448,3.448-3.448,9.035,0,12.483l26.472,26.472c0.211,0.212,0.433,0.412,0.664,0.601
		c0.077,0.064,0.159,0.118,0.238,0.178c0.149,0.115,0.298,0.23,0.455,0.334c0.111,0.074,0.226,0.138,0.34,0.206
		c0.132,0.081,0.263,0.163,0.399,0.236c0.121,0.065,0.246,0.119,0.371,0.179c0.137,0.065,0.271,0.132,0.412,0.191
		c0.122,0.051,0.248,0.092,0.374,0.137c0.147,0.053,0.291,0.109,0.44,0.155c0.127,0.039,0.256,0.066,0.385,0.099
		c0.15,0.039,0.298,0.081,0.451,0.11c0.152,0.03,0.305,0.047,0.458,0.07c0.131,0.019,0.262,0.044,0.395,0.057
		c0.289,0.029,0.58,0.044,0.871,0.044s0.582-0.015,0.871-0.044c0.134-0.013,0.263-0.038,0.394-0.057
		c0.153-0.022,0.307-0.04,0.459-0.07c0.152-0.03,0.3-0.072,0.45-0.11c0.129-0.033,0.258-0.061,0.386-0.099
		c0.149-0.045,0.294-0.102,0.44-0.153c0.125-0.045,0.25-0.086,0.374-0.137c0.14-0.057,0.274-0.126,0.41-0.191
		c0.125-0.06,0.249-0.115,0.372-0.179c0.137-0.073,0.266-0.156,0.398-0.235c0.114-0.07,0.23-0.134,0.341-0.207
		c0.156-0.104,0.303-0.219,0.452-0.333c0.081-0.061,0.163-0.116,0.242-0.18c0.232-0.19,0.454-0.389,0.664-0.601l26.472-26.472
		c3.448-3.448,3.448-9.035,0-12.483s-9.035-3.448-12.483,0l-11.415,11.414v-49.311v-52.966v-99.485
		C182.781,131.538,179.772,132.414,176.552,132.414z"/>
	<path style="fill:#707384;" d="M344.276,130.033c-2.599,1.506-5.608,2.381-8.828,2.381s-6.229-0.876-8.828-2.381v99.485v52.966
		v49.311l-11.414-11.414c-3.448-3.448-9.035-3.448-12.483,0s-3.448,9.035,0,12.483l26.472,26.472
		c0.211,0.212,0.433,0.412,0.664,0.601c0.077,0.064,0.159,0.118,0.238,0.178c0.149,0.115,0.298,0.23,0.455,0.334
		c0.111,0.074,0.226,0.138,0.34,0.206c0.132,0.081,0.263,0.163,0.399,0.236c0.121,0.065,0.246,0.119,0.371,0.179
		c0.137,0.065,0.271,0.132,0.412,0.191c0.122,0.051,0.248,0.092,0.374,0.137c0.147,0.053,0.291,0.109,0.44,0.155
		c0.127,0.039,0.256,0.066,0.385,0.099c0.15,0.039,0.298,0.081,0.451,0.11c0.152,0.03,0.305,0.047,0.458,0.07
		c0.131,0.019,0.262,0.044,0.395,0.057c0.289,0.029,0.58,0.044,0.871,0.044c0.29,0,0.582-0.015,0.871-0.044
		c0.134-0.013,0.263-0.038,0.394-0.057c0.153-0.022,0.307-0.04,0.459-0.07c0.152-0.03,0.3-0.072,0.45-0.11
		c0.129-0.033,0.258-0.061,0.386-0.099c0.149-0.045,0.294-0.102,0.44-0.153c0.125-0.045,0.25-0.086,0.374-0.137
		c0.14-0.057,0.274-0.126,0.41-0.191c0.125-0.06,0.249-0.115,0.372-0.179c0.137-0.073,0.266-0.156,0.398-0.235
		c0.114-0.07,0.23-0.134,0.341-0.207c0.156-0.104,0.303-0.219,0.452-0.333c0.081-0.061,0.163-0.116,0.242-0.18
		c0.232-0.19,0.454-0.389,0.664-0.601l26.472-26.472c3.448-3.448,3.448-9.035,0-12.483s-9.035-3.448-12.483,0l-11.415,11.414
		v-49.311v-52.966V130.033z"/>
	<path style="fill:#707384;" d="M300.138,114.759c0-2.259-0.862-4.518-2.586-6.241l-23.896-23.896l-2.586-2.586
		c-3.448-3.448-9.035-3.448-12.483,0c-3.448,3.448-3.448,9.035,0,12.483l11.415,11.413h-31.656h-46.519
		c1.505,2.599,2.381,5.608,2.381,8.828s-0.876,6.229-2.381,8.828h46.519h31.655l-11.413,11.413c-3.448,3.448-3.448,9.035,0,12.483
		c3.448,3.448,9.035,3.448,12.483,0l2.586-2.586L297.553,121C299.276,119.276,300.138,117.017,300.138,114.759z"/>
</g>
<path style="fill:#FFAF5A;" d="M176.552,97.103c-9.751,0-17.655,7.904-17.655,17.655c0,6.531,3.555,12.22,8.828,15.274
	c2.599,1.506,5.608,2.381,8.828,2.381s6.229-0.876,8.828-2.381c2.673-1.548,4.897-3.773,6.446-6.445
	c1.506-2.599,2.381-5.609,2.381-8.828c0-3.22-0.875-6.229-2.381-8.828C188.772,100.659,183.083,97.103,176.552,97.103z"/>
<path style="fill:#BE4650;" d="M353.103,114.759c0-9.751-7.904-17.655-17.655-17.655s-17.655,7.904-17.655,17.655
	c0,6.531,3.555,12.22,8.828,15.274c2.599,1.506,5.608,2.381,8.828,2.381s6.229-0.876,8.828-2.381
	C349.548,126.978,353.103,121.29,353.103,114.759z"/>
<g>
</g>
<g>
</g>
<g>
</g>
<g>
</g>
<g>
</g>
<g>
</g>
<g>
</g>
<g>
</g>
<g>
</g>
<g>
</g>
<g>
</g>
<g>
</g>
<g>
</g>
<g>
</g>
<g>
</g>
</svg>
