<?xml version="1.0" encoding="iso-8859-1"?>
<!-- Generator: Adobe Illustrator 19.0.0, SVG Export Plug-In . SVG Version: 6.00 Build 0)  -->
<svg version="1.1" id="Layer_1" xmlns="http://www.w3.org/2000/svg" xmlns:xlink="http://www.w3.org/1999/xlink" x="0px" y="0px"
	 viewBox="0 0 512 512" style="enable-background:new 0 0 512 512;" xml:space="preserve">
<path style="fill:#707384;" d="M432.552,0H79.448C64.822,0,52.966,11.857,52.966,26.483v459.034
	c0,14.626,11.857,26.483,26.483,26.483h353.103c14.626,0,26.483-11.857,26.483-26.483V26.483C459.034,11.857,447.178,0,432.552,0z
	 M229.517,26.483h52.966c4.875,0,8.828,3.953,8.828,8.828s-3.953,8.828-8.828,8.828h-52.966c-4.875,0-8.828-3.953-8.828-8.828
	S224.642,26.483,229.517,26.483z M194.207,26.483c4.875,0,8.828,3.953,8.828,8.828s-3.953,8.828-8.828,8.828
	s-8.828-3.953-8.828-8.828S189.332,26.483,194.207,26.483z M256,494.345c-9.751,0-17.655-7.905-17.655-17.655
	c0-9.75,7.904-17.655,17.655-17.655c9.751,0,17.655,7.905,17.655,17.655C273.655,486.44,265.751,494.345,256,494.345z
	 M432.552,441.379H79.448V70.621h353.103V441.379z"/>
<path style="fill:#FFFFFF;" d="M79.448,441.379h353.103V70.621H79.448V441.379z M176.552,423.724
	c-9.751,0-17.655-7.905-17.655-17.655s7.904-17.655,17.655-17.655s17.655,7.905,17.655,17.655S186.303,423.724,176.552,423.724z
	 M229.517,423.724c-9.751,0-17.655-7.905-17.655-17.655s7.904-17.655,17.655-17.655s17.655,7.905,17.655,17.655
	S239.268,423.724,229.517,423.724z M335.448,423.724c-9.751,0-17.655-7.905-17.655-17.655s7.904-17.655,17.655-17.655
	s17.655,7.905,17.655,17.655S345.199,423.724,335.448,423.724z M388.414,423.724c-9.751,0-17.655-7.905-17.655-17.655
	s7.904-17.655,17.655-17.655c9.751,0,17.655,7.905,17.655,17.655S398.165,423.724,388.414,423.724z M264.828,105.931
	c0-4.875,3.953-8.828,8.828-8.828h123.586c4.875,0,8.828,3.953,8.828,8.828l0,0c0,4.875-3.953,8.828-8.828,8.828H273.655
	C268.78,114.759,264.828,110.806,264.828,105.931L264.828,105.931z M264.828,141.241c0-4.875,3.953-8.828,8.828-8.828h79.448
	c4.875,0,8.828,3.953,8.828,8.828l0,0c0,4.875-3.953,8.828-8.828,8.828h-79.448C268.78,150.069,264.828,146.116,264.828,141.241
	L264.828,141.241z M264.828,176.552c0-4.875,3.953-8.828,8.828-8.828h123.586c4.875,0,8.828,3.953,8.828,8.828l0,0
	c0,4.875-3.953,8.828-8.828,8.828H273.655C268.78,185.379,264.828,181.427,264.828,176.552L264.828,176.552z M264.828,211.862
	c0-4.875,3.953-8.828,8.828-8.828h79.448c4.875,0,8.828,3.953,8.828,8.828l0,0c0,4.875-3.953,8.828-8.828,8.828h-79.448
	C268.78,220.69,264.828,216.737,264.828,211.862L264.828,211.862z M264.828,247.172c0-4.875,3.953-8.828,8.828-8.828h123.586
	c4.875,0,8.828,3.953,8.828,8.828l0,0c0,4.875-3.953,8.828-8.828,8.828H273.655C268.78,256,264.828,252.047,264.828,247.172
	L264.828,247.172z M264.828,282.483c0-4.875,3.953-8.828,8.828-8.828h79.448c4.875,0,8.828,3.953,8.828,8.828l0,0
	c0,4.875-3.953,8.828-8.828,8.828h-79.448C268.78,291.31,264.828,287.358,264.828,282.483L264.828,282.483z M264.828,317.793
	c0-4.875,3.953-8.828,8.828-8.828h123.586c4.875,0,8.828,3.953,8.828,8.828l0,0c0,4.875-3.953,8.828-8.828,8.828H273.655
	C268.78,326.621,264.828,322.668,264.828,317.793L264.828,317.793z M264.828,353.103c0-4.875,3.953-8.828,8.828-8.828h79.448
	c4.875,0,8.828,3.953,8.828,8.828l0,0c0,4.875-3.953,8.828-8.828,8.828h-79.448C268.78,361.931,264.828,357.978,264.828,353.103
	L264.828,353.103z M282.483,388.414c9.751,0,17.655,7.905,17.655,17.655s-7.904,17.655-17.655,17.655s-17.655-7.905-17.655-17.655
	S272.732,388.414,282.483,388.414z M105.931,105.931c0-4.875,3.953-8.828,8.828-8.828h123.586c4.875,0,8.828,3.953,8.828,8.828
	v35.31c0,4.875-3.953,8.828-8.828,8.828H114.759c-4.875,0-8.828-3.953-8.828-8.828V105.931z M105.931,176.552
	c0-4.875,3.953-8.828,8.828-8.828h123.586c4.875,0,8.828,3.953,8.828,8.828v35.31c0,4.875-3.953,8.828-8.828,8.828H114.759
	c-4.875,0-8.828-3.953-8.828-8.828V176.552z M105.931,247.172c0-4.875,3.953-8.828,8.828-8.828h123.586
	c4.875,0,8.828,3.953,8.828,8.828v35.31c0,4.875-3.953,8.828-8.828,8.828H114.759c-4.875,0-8.828-3.953-8.828-8.828V247.172z
	 M105.931,317.793c0-4.875,3.953-8.828,8.828-8.828h123.586c4.875,0,8.828,3.953,8.828,8.828v35.31c0,4.875-3.953,8.828-8.828,8.828
	H114.759c-4.875,0-8.828-3.953-8.828-8.828V317.793z M123.586,388.414c9.751,0,17.655,7.905,17.655,17.655
	s-7.904,17.655-17.655,17.655s-17.655-7.905-17.655-17.655S113.835,388.414,123.586,388.414z"/>
<g>
	<path style="fill:#464655;" d="M229.517,44.138h52.966c4.875,0,8.828-3.953,8.828-8.828s-3.953-8.828-8.828-8.828h-52.966
		c-4.875,0-8.828,3.953-8.828,8.828S224.642,44.138,229.517,44.138z"/>
	<circle style="fill:#464655;" cx="194.207" cy="35.31" r="8.828"/>
	<circle style="fill:#464655;" cx="256" cy="476.69" r="17.655"/>
</g>
<path style="fill:#FFDC69;" d="M114.759,150.069h123.586c4.875,0,8.828-3.953,8.828-8.828v-35.31c0-4.875-3.953-8.828-8.828-8.828
	H114.759c-4.875,0-8.828,3.953-8.828,8.828v35.31C105.931,146.116,109.884,150.069,114.759,150.069z"/>
<path style="fill:#BEC8DC;" d="M273.655,114.759h123.586c4.875,0,8.828-3.953,8.828-8.828l0,0c0-4.875-3.953-8.828-8.828-8.828
	H273.655c-4.875,0-8.828,3.953-8.828,8.828l0,0C264.828,110.806,268.78,114.759,273.655,114.759z"/>
<path style="fill:#DEE3ED;" d="M273.655,150.069h79.448c4.875,0,8.828-3.953,8.828-8.828l0,0c0-4.875-3.953-8.828-8.828-8.828
	h-79.448c-4.875,0-8.828,3.953-8.828,8.828l0,0C264.828,146.116,268.78,150.069,273.655,150.069z"/>
<path style="fill:#FF6469;" d="M114.759,220.69h123.586c4.875,0,8.828-3.953,8.828-8.828v-35.31c0-4.875-3.953-8.828-8.828-8.828
	H114.759c-4.875,0-8.828,3.953-8.828,8.828v35.31C105.931,216.737,109.884,220.69,114.759,220.69z"/>
<path style="fill:#BEC8DC;" d="M273.655,185.379h123.586c4.875,0,8.828-3.953,8.828-8.828l0,0c0-4.875-3.953-8.828-8.828-8.828
	H273.655c-4.875,0-8.828,3.953-8.828,8.828l0,0C264.828,181.427,268.78,185.379,273.655,185.379z"/>
<path style="fill:#DEE3ED;" d="M273.655,220.69h79.448c4.875,0,8.828-3.953,8.828-8.828l0,0c0-4.875-3.953-8.828-8.828-8.828
	h-79.448c-4.875,0-8.828,3.953-8.828,8.828l0,0C264.828,216.737,268.78,220.69,273.655,220.69z"/>
<path style="fill:#B4E173;" d="M114.759,291.31h123.586c4.875,0,8.828-3.953,8.828-8.828v-35.31c0-4.875-3.953-8.828-8.828-8.828
	H114.759c-4.875,0-8.828,3.953-8.828,8.828v35.31C105.931,287.358,109.884,291.31,114.759,291.31z"/>
<path style="fill:#BEC8DC;" d="M273.655,256h123.586c4.875,0,8.828-3.953,8.828-8.828l0,0c0-4.875-3.953-8.828-8.828-8.828H273.655
	c-4.875,0-8.828,3.953-8.828,8.828l0,0C264.828,252.047,268.78,256,273.655,256z"/>
<path style="fill:#DEE3ED;" d="M273.655,291.31h79.448c4.875,0,8.828-3.953,8.828-8.828l0,0c0-4.875-3.953-8.828-8.828-8.828
	h-79.448c-4.875,0-8.828,3.953-8.828,8.828l0,0C264.828,287.358,268.78,291.31,273.655,291.31z"/>
<path style="fill:#A0DCF0;" d="M114.759,361.931h123.586c4.875,0,8.828-3.953,8.828-8.828v-35.31c0-4.875-3.953-8.828-8.828-8.828
	H114.759c-4.875,0-8.828,3.953-8.828,8.828v35.31C105.931,357.978,109.884,361.931,114.759,361.931z"/>
<path style="fill:#BEC8DC;" d="M273.655,326.621h123.586c4.875,0,8.828-3.953,8.828-8.828l0,0c0-4.875-3.953-8.828-8.828-8.828
	H273.655c-4.875,0-8.828,3.953-8.828,8.828l0,0C264.828,322.668,268.78,326.621,273.655,326.621z"/>
<path style="fill:#DEE3ED;" d="M273.655,361.931h79.448c4.875,0,8.828-3.953,8.828-8.828l0,0c0-4.875-3.953-8.828-8.828-8.828
	h-79.448c-4.875,0-8.828,3.953-8.828,8.828l0,0C264.828,357.978,268.78,361.931,273.655,361.931z"/>
<circle style="fill:#BEC8DC;" cx="176.552" cy="406.069" r="17.655"/>
<circle style="fill:#FFDC69;" cx="123.586" cy="406.069" r="17.655"/>
<g>
	<circle style="fill:#BEC8DC;" cx="282.483" cy="406.069" r="17.655"/>
	<circle style="fill:#BEC8DC;" cx="229.517" cy="406.069" r="17.655"/>
	<circle style="fill:#BEC8DC;" cx="388.414" cy="406.069" r="17.655"/>
	<circle style="fill:#BEC8DC;" cx="335.448" cy="406.069" r="17.655"/>
</g>
<g>
</g>
<g>
</g>
<g>
</g>
<g>
</g>
<g>
</g>
<g>
</g>
<g>
</g>
<g>
</g>
<g>
</g>
<g>
</g>
<g>
</g>
<g>
</g>
<g>
</g>
<g>
</g>
<g>
</g>
</svg>
