<?xml version="1.0" encoding="iso-8859-1"?>
<!-- Generator: Adobe Illustrator 19.0.0, SVG Export Plug-In . SVG Version: 6.00 Build 0)  -->
<svg version="1.1" id="Layer_1" xmlns="http://www.w3.org/2000/svg" xmlns:xlink="http://www.w3.org/1999/xlink" x="0px" y="0px"
	 viewBox="0 0 512 512" style="enable-background:new 0 0 512 512;" xml:space="preserve">
<circle style="fill:#386895;" cx="256" cy="256" r="256"/>
<path style="fill:#273B7A;" d="M322.719,135.716c-15.591,53.403-37.552,104.486-39.136,159.934
	c-17.941,8.073-20.477,25.488-22.183,44.46v-27.22l-94.201,20.497l62.209,62.209c-1.569,0.04-3.072,0.041-4.436,0.041
	c-39.862,1.476-80.255-0.05-118.672,9.726l102.255,102.231c15.377,2.882,31.232,4.406,47.447,4.406
	c120.17,0,220.982-82.806,248.537-194.465L322.719,135.716z"/>
<path style="fill:#FFEDB5;" d="M256,408.566c-5.711,0-10.343-4.632-10.343-10.343v-85.333c0-5.711,4.632-10.343,10.343-10.343
	c5.711,0,10.343,4.632,10.343,10.343v85.333C266.343,403.934,261.713,408.566,256,408.566z"/>
<path style="fill:#FEE187;" d="M256,302.545v106.02c5.711,0,10.343-4.632,10.343-10.343v-85.333
	C266.343,307.178,261.713,302.545,256,302.545z"/>
<polygon style="fill:#71E2EF;" points="298.384,111.382 167.198,111.382 167.198,333.386 344.802,333.386 344.802,157.799 "/>
<polygon style="fill:#38C6D9;" points="344.802,157.799 298.384,111.382 256,111.382 256,333.386 344.802,333.386 "/>
<polygon style="fill:#1D9DA0;" points="298.384,157.799 344.802,157.799 298.384,111.382 "/>
<path style="fill:#FFEDB5;" d="M113.778,387.879c-5.711,0-10.343,4.632-10.343,10.343c0,5.711,4.632,10.343,10.343,10.343h142.798
	v-20.687H113.778z"/>
<path style="fill:#FEE187;" d="M398.222,387.879H256.576v20.687h141.646c5.711,0,10.343-4.632,10.343-10.343
	C408.566,392.511,403.934,387.879,398.222,387.879z"/>
<rect x="227.556" y="369.778" style="fill:#FFC61B;" width="56.889" height="56.889"/>
<rect x="256" y="369.778" style="fill:#D48B07;" width="28.444" height="56.889"/>
<g>
</g>
<g>
</g>
<g>
</g>
<g>
</g>
<g>
</g>
<g>
</g>
<g>
</g>
<g>
</g>
<g>
</g>
<g>
</g>
<g>
</g>
<g>
</g>
<g>
</g>
<g>
</g>
<g>
</g>
</svg>
