<?xml version="1.0" encoding="iso-8859-1"?>
<!-- Generator: Adobe Illustrator 19.0.0, SVG Export Plug-In . SVG Version: 6.00 Build 0)  -->
<svg version="1.1" id="Layer_1" xmlns="http://www.w3.org/2000/svg" xmlns:xlink="http://www.w3.org/1999/xlink" x="0px" y="0px"
	 viewBox="0 0 512 512" style="enable-background:new 0 0 512 512;" xml:space="preserve">
<circle style="fill:#FFEDB5;" cx="256" cy="256" r="256"/>
<path style="fill:#FFC61B;" d="M369.778,128c-11.042,9.744-17.863,22.916-25.859,34.909c-13.791,17.239-29.306,32.754-41.374,51.717
	c-12.067,20.687-32.754,36.202-41.374,58.613c-0.612,1.529-1.153,3.06-1.638,4.589l-117.312,20.839l76.81,60.63
	c-38.433-0.553-78.703-9.29-111.756,3.982L256,512c136.738,0,248.43-107.208,255.624-242.154L369.778,128z"/>
<path style="fill:#940030;" d="M398.222,344.35H267.205v-74.128c0-6.189-5.017-11.205-11.205-11.205
	c-6.189,0-11.205,5.017-11.205,11.205v74.128H113.778c-6.189,0-11.205,5.017-11.205,11.205s5.017,11.205,11.205,11.205h284.444
	c6.189,0,11.205-5.017,11.205-11.205S404.411,344.35,398.222,344.35z"/>
<path style="fill:#840030;" d="M398.222,344.35H267.205v-74.128c0-6.189-5.017-11.205-11.205-11.205
	c-0.388,0-0.771,0.019-1.148,0.059v107.685h143.37c6.189,0,11.205-5.017,11.205-11.205S404.411,344.35,398.222,344.35z"/>
<g>
	<circle style="fill:#FF6161;" cx="170.667" cy="355.556" r="28.444"/>
	<circle style="fill:#FF6161;" cx="341.333" cy="355.556" r="28.444"/>
</g>
<rect x="142.222" y="128" style="fill:#E03A00;" width="227.556" height="170.667"/>
<rect x="254.845" y="128" style="fill:#BC2C00;" width="114.933" height="170.667"/>
<g>
	<rect x="170.667" y="180.579" style="fill:#940030;" width="170.667" height="8.62"/>
	<rect x="170.667" y="209.024" style="fill:#940030;" width="170.667" height="8.62"/>
	<rect x="170.667" y="237.468" style="fill:#940030;" width="170.667" height="8.62"/>
</g>
<g>
</g>
<g>
</g>
<g>
</g>
<g>
</g>
<g>
</g>
<g>
</g>
<g>
</g>
<g>
</g>
<g>
</g>
<g>
</g>
<g>
</g>
<g>
</g>
<g>
</g>
<g>
</g>
<g>
</g>
</svg>
