<?xml version="1.0" encoding="iso-8859-1"?>
<!-- Generator: Adobe Illustrator 19.0.0, SVG Export Plug-In . SVG Version: 6.00 Build 0)  -->
<svg version="1.1" id="Layer_1" xmlns="http://www.w3.org/2000/svg" xmlns:xlink="http://www.w3.org/1999/xlink" x="0px" y="0px"
	 viewBox="0 0 512 512" style="enable-background:new 0 0 512 512;" xml:space="preserve">
<g>
	<path style="fill:#FFDC69;" d="M492.871,53.235h-17.762c-12.06,100.541-92.595,181.484-192.626,193.603v0.334h66.159
		C426.166,213.894,483.232,140.212,492.871,53.235z"/>
	<path style="fill:#FFDC69;" d="M166.325,264.828C87.292,297.319,28.89,371.394,19.128,459.034H36.89
		C48.951,359,129.486,278.466,229.517,266.409v-1.581H166.325z"/>
</g>
<path style="fill:#707384;" d="M282.483,246.838v-8.493c0-4.875-3.953-8.828-8.828-8.828h-35.31c-4.875,0-8.828,3.953-8.828,8.828
	v8.828H51.453c-3.636-10.284-13.44-17.655-24.97-17.655C11.857,229.517,0,241.374,0,256s11.857,26.483,26.483,26.483
	c11.53,0,21.334-7.371,24.97-17.655h114.873h63.191v1.581v7.246c0,4.875,3.953,8.828,8.828,8.828h35.31
	c4.875,0,8.828-3.953,8.828-8.828v-8.828h178.065c3.636,10.284,13.44,17.655,24.97,17.655C500.143,282.483,512,270.626,512,256
	s-11.857-26.483-26.483-26.483c-11.53,0-21.334,7.371-24.97,17.655H348.642h-66.159V246.838z"/>
<g>
	<path style="fill:#E4EAF6;" d="M8.828,459.034c-4.875,0-8.828,3.953-8.828,8.828v35.31C0,508.047,3.953,512,8.828,512h35.31
		c4.875,0,8.828-3.953,8.828-8.828v-35.31c0-4.875-3.953-8.828-8.828-8.828h-7.246H19.129H8.828z"/>
	<path style="fill:#E4EAF6;" d="M503.172,53.235c4.875,0,8.828-3.953,8.828-8.828V8.828C512,3.953,508.047,0,503.172,0h-35.31
		c-4.875,0-8.828,3.953-8.828,8.828v35.58c0,4.875,3.953,8.828,8.828,8.828h7.246h17.762H503.172z"/>
</g>
<g>
</g>
<g>
</g>
<g>
</g>
<g>
</g>
<g>
</g>
<g>
</g>
<g>
</g>
<g>
</g>
<g>
</g>
<g>
</g>
<g>
</g>
<g>
</g>
<g>
</g>
<g>
</g>
<g>
</g>
</svg>
