<?xml version="1.0" encoding="utf-8"?>
<!-- Generator: Adobe Illustrator 16.0.4, SVG Export Plug-In . SVG Version: 6.00 Build 0)  -->
<!DOCTYPE svg PUBLIC "-//W3C//DTD SVG 1.0//EN" "http://www.w3.org/TR/2001/REC-SVG-20010904/DTD/svg10.dtd">
<svg version="1.0" id="Layer_1" xmlns="http://www.w3.org/2000/svg" xmlns:xlink="http://www.w3.org/1999/xlink" x="0px" y="0px"
	 width="650px" height="792px" viewBox="0 0 650 792" enable-background="new 0 0 650 792" xml:space="preserve">
<g>
	<ellipse fill="#333333" cx="325.949" cy="395.076" rx="286.105" ry="112.914"/>
	<path opacity="0.22" d="M413.789,332.123c0,8.27-42.284,14.973-80.431,14.973c-38.146,0-57.71-6.704-57.71-14.973
		c0-8.27,19.564-14.973,57.71-14.973C371.505,317.15,413.789,323.853,413.789,332.123z"/>
	<path fill="#F1EDE5" d="M271.037,214.658v92.372c0,19.351,15.686,31.208,35.034,31.208h35.02c19.347,0,35.035-11.857,35.035-31.208
		v-92.372H271.037z"/>
	<path fill="#F1EDE5" d="M381.253,232.069c-21.616,0-39.139,17.518-39.139,39.136c0,21.612,17.522,39.137,39.139,39.137
		c21.612,0,39.134-17.524,39.134-39.137C420.387,249.587,402.865,232.069,381.253,232.069z M381.253,297.348
		c-14.441,0-26.145-11.705-26.145-26.143c0-14.439,11.703-26.146,26.145-26.146c14.437,0,26.142,11.707,26.142,26.146
		C407.395,285.643,395.689,297.348,381.253,297.348z"/>
	<g opacity="0.15">
		<path fill="#FFFFFF" d="M339.274,171.875c0,0-0.221-0.507-0.545-1.438c-0.323-0.894-0.729-2.43-1.49-3.859
			c-0.648-1.434-1.603-3.136-2.689-4.889c-1.185-1.739-2.481-3.504-4.131-5.254c-1.51-1.771-3.487-3.527-5.436-5.374
			c-2.133-1.847-4.383-3.792-6.711-5.805c-2.423-2.03-4.956-4.201-7.633-6.501c-2.624-2.311-5.364-4.78-8.062-7.425
			c-5.37-5.288-10.75-11.318-14.881-18.194c-2.077-3.425-3.854-6.993-5.135-10.67c-1.332-3.609-2.037-7.378-2.374-10.775
			c-0.034-1.763-0.129-3.393-0.011-4.956c0.207-1.588,0.297-3.03,0.625-4.383c0.364-1.352,0.669-2.569,1.052-3.671
			c0.449-1.1,0.886-2.071,1.319-2.923c0.742-1.719,1.867-2.895,2.38-3.71c0.597-0.795,0.961-1.19,0.961-1.19s0.19,0.505,0.544,1.456
			c0.345,0.927,0.714,2.25,1.444,3.816c0.326,0.747,0.684,1.576,1.075,2.482c0.445,0.829,0.925,1.726,1.44,2.687
			c1.07,1.834,2.353,3.714,3.803,5.582c1.566,1.867,3.146,3.747,5.115,5.657c1.84,1.934,4.02,3.885,6.245,5.977
			c4.575,4.109,9.733,8.708,15.024,13.867c5.252,5.172,10.535,10.995,14.87,17.539c2.195,3.198,4.047,6.758,5.568,10.205
			c1.428,3.597,2.559,7.091,2.996,10.59c0.525,3.423,0.409,6.679,0.007,9.423c-0.503,2.753-1.209,5.026-2.113,6.855
			c-0.736,1.847-1.765,2.825-2.299,3.671C339.641,171.459,339.274,171.875,339.274,171.875z"/>
		<path fill="#FFFFFF" d="M349.346,127.478c0.003,0-0.345-1.587-0.822-4.166c-0.329-1.235-0.692-2.583-1.277-4.107
			c-0.245-0.755-0.561-1.515-0.956-2.273c-0.326-0.768-0.754-1.52-1.227-2.262c-0.877-1.499-2.025-2.917-3.316-4.324
			c-1.267-1.416-2.863-2.788-4.502-4.248c-1.739-1.425-3.629-2.9-5.629-4.47c-2.107-1.625-4.245-3.275-6.382-4.925
			c-4.351-3.534-8.938-7.5-12.698-12.386c-1.881-2.408-3.524-5.051-4.719-7.84c-1.244-2.731-1.901-5.667-2.165-8.298
			c-0.167-2.686,0.079-5.092,0.624-7.084c0.492-2.009,1.32-3.581,1.987-4.809c0.61-1.244,1.45-2.076,1.85-2.664
			c0.456-0.582,0.732-0.864,0.732-0.864c-0.004-0.001,0.333,1.629,0.9,4.076c0.597,2.456,1.808,5.633,3.753,8.425
			c2.024,2.811,4.755,5.388,8.396,8.205c1.766,1.425,3.813,2.849,5.874,4.435c2.096,1.526,4.298,3.238,6.543,4.983
			c2.197,1.82,4.492,3.736,6.633,5.862c2.179,2.119,4.232,4.473,6.045,6.995c1.797,2.584,3.348,5.307,4.388,8.187
			c1.039,2.858,1.612,5.758,1.633,8.414c0.062,2.641-0.322,5.012-0.957,6.948c-0.521,1.942-1.454,3.559-2.107,4.784
			c-0.653,1.197-1.447,1.942-1.862,2.542C349.604,127.178,349.346,127.478,349.346,127.478z"/>
		<path fill="#FFFFFF" d="M295.035,138.585c0,0,0.239,1.103,0.569,2.891c0.228,0.859,0.489,1.79,0.863,2.849
			c0.353,1.047,0.907,2.118,1.539,3.144c1.227,2.083,3.094,3.938,5.422,5.943c2.38,1.995,5.272,4.111,8.331,6.522
			c3.021,2.454,6.199,5.205,8.811,8.59c1.301,1.67,2.442,3.507,3.271,5.442c0.866,1.895,1.321,3.933,1.502,5.754
			c0.132,1.862-0.077,3.538-0.453,4.915c-0.312,1.397-0.894,2.487-1.356,3.339c-0.421,0.864-1.006,1.438-1.282,1.845
			c-0.33,0.389-0.508,0.601-0.508,0.601s-0.231-1.133-0.626-2.83c-0.405-1.706-1.226-3.908-2.603-5.846
			c-1.404-1.945-3.297-3.735-5.828-5.69c-1.321-0.997-2.684-2.028-4.07-3.072c-1.455-1.063-2.985-2.25-4.539-3.461
			c-3.08-2.486-6.27-5.394-8.798-8.917c-1.242-1.792-2.318-3.679-3.042-5.676c-0.721-1.985-1.12-3.998-1.135-5.835
			c-0.056-1.834,0.253-3.484,0.69-4.827c0.331-1.342,0.989-2.465,1.438-3.313c0.456-0.832,1.005-1.348,1.292-1.766
			C294.857,138.793,295.035,138.585,295.035,138.585z"/>
	</g>
	<path opacity="0.6" fill="#FBFBFB" d="M276.479,219.485h46.431v113.229c-24.078,1.306-43.79-3.953-46.431-22.128
		C275.221,301.927,276.479,219.485,276.479,219.485z"/>
	<path opacity="0.5" fill="none" stroke="#FFFFFF" stroke-width="4.8946" stroke-linecap="round" stroke-miterlimit="10" d="
		M381.62,239.064c17.751,0,32.142,14.39,32.142,32.142c0,8.695-3.453,16.584-9.062,22.369"/>
	
		<rect x="334.065" y="253.599" transform="matrix(0.9986 -0.0535 0.0535 0.9986 -13.8098 19.0388)" opacity="0.1" fill="#121212" width="28.632" height="27.256"/>
	
		<rect x="332.473" y="252.168" transform="matrix(0.9986 -0.0536 0.0536 0.9986 -13.7364 18.9527)" fill="#E9BE4D" width="28.63" height="27.255"/>
	
		<rect x="333.468" y="252.594" transform="matrix(0.9986 -0.0536 0.0536 0.9986 -13.2526 18.5146)" opacity="0.5" fill="#FBFBFB" width="10.194" height="7.496"/>
	
		<rect x="337.375" y="262.282" transform="matrix(0.9986 -0.0536 0.0536 0.9986 -13.6088 18.9611)" opacity="0.2" width="18.844" height="1.972"/>
	
		<rect x="337.557" y="265.668" transform="matrix(0.9986 -0.0536 0.0536 0.9986 -13.7971 18.986)" opacity="0.2" width="18.844" height="1.972"/>
	
		<rect x="337.746" y="269.192" transform="matrix(0.9986 -0.0536 0.0536 0.9986 -13.9792 18.9919)" opacity="0.2" width="18.843" height="1.973"/>
	
		<rect x="349.891" y="275.963" transform="matrix(0.9986 -0.0534 0.0534 0.9986 -14.2851 19.2159)" opacity="0.5" fill="#FBFBFB" width="4.605" height="1.549"/>
	
		<rect x="355.581" y="275.657" transform="matrix(0.9986 -0.0536 0.0536 0.9986 -14.315 19.5984)" opacity="0.5" fill="#FBFBFB" width="4.605" height="1.55"/>
	<ellipse fill="#F1EDE5" cx="323.583" cy="214.654" rx="52.544" ry="11.39"/>
	<ellipse fill="#F1EDE5" cx="322.738" cy="223.623" rx="47.734" ry="10.348"/>
	<rect x="346.482" y="214.658" opacity="0.1" fill="#121212" width="0.979" height="37.468"/>
	<rect x="345.703" y="214.658" fill="#FBFBFB" width="0.979" height="37.468"/>
	<ellipse fill="#A47935" cx="323.583" cy="219.271" rx="46.147" ry="10.003"/>
</g>
<g>
	<path opacity="0.15" fill="#2B2A2A" d="M21.377,531.492h32.195c1.392,0,2.532,0.624,2.532,1.39c0,0.762,0,2.527,0,3.92v4.314
		c0,1.393-0.146,2.598-0.324,2.679c0,0,0,0,0,0.174c0,0.026,0,0.026,0,0.026c0.017,0.021,0.017,0.059,0,0.08c0,0,0,0,0,0.027
		c0.002,0.129,0.002,0.129,0.002,0.129c0.11,0.079-0.045,0.366-0.345,0.638c0,0,0,0,0,0.386c0,0.098,0,0.098,0,0.098
		c0.032,0.097,0.032,0.256,0,0.353c0,0,0,0,0,0.097c0,0.435,0,0.435,0,0.435c0.367,0.274,0.667,1.64,0.667,3.032v34.676
		c0,1.393-0.3,2.756-0.667,3.031c0,0,0,0,0,0.436c0,0.054,0,0.054,0,0.054c0.018,0.053,0.018,0.141,0,0.194c0,0,0,0,0,0.053
		c0,0.456,0,0.456,0,0.456c0.401,0.271,0.729,0.503,0.73,0.515c0,0.014-0.011,0.023-0.023,0.023c-0.014,0-0.178,0.066-0.364,0.146
		c0,0,0,0,0,0.181c0,0.039,0,0.039,0,0.039c0.023,0.032,0.023,0.085,0,0.118c0,0,0,0,0,0.037c0.002,0.181,0.002,0.181,0.002,0.181
		c0.185,0.081,0.367,0.147,0.402,0.147s0.143,0.816,0.236,1.814c0.096,0.998,0.136,1.816,0.087,1.816
		c-0.047,0.001-0.231,0.072-0.409,0.158c0,0,0,0,0.004,0.18c0,0.025,0,0.025,0,0.025c0.018,0.023,0.018,0.062,0,0.089
		c0,0,0,0,0,0.029c0.005,0.181,0.005,0.181,0.005,0.181c0.182,0.077,0.383,0.14,0.446,0.138c0.062-0.002,0.124,0.075,0.132,0.17
		c0.011,0.095-0.048,0.174-0.129,0.176c-0.08,0.003-0.292,0.073-0.471,0.159c0,0,0,0,0.005,0.18c0,0.026,0,0.026,0,0.026
		c0.017,0.023,0.017,0.063,0,0.089c0,0,0,0,0,0.029c0.003,0.182,0.003,0.182,0.003,0.182c0.183,0.076,0.409,0.137,0.509,0.135
		c0.096-0.002,0.185,0.082,0.194,0.189c0.01,0.105-0.084,0.195-0.21,0.198c-0.124,0.003-0.373,0.075-0.552,0.161c0,0,0,0,0.005,0.18
		c0.002,0.025,0.002,0.025,0.002,0.025c0.015,0.022,0.015,0.062-0.002,0.088c0,0,0,0,0,0.029c0.006,0.182,0.006,0.182,0.006,0.182
		c0.181,0.076,0.444,0.137,0.588,0.133c0.14-0.004,0.357,1.065,0.482,2.375c0.123,1.311-0.026,2.535-0.332,2.721
		c-0.305,0.188-0.556,1.779-0.556,2.717s0.143,2.021,0.317,2.41c0.174,0.389,2.232,0.705,3.625,0.705h15.335
		c1.393,0,2.851-0.142,3.237-0.316c0.388-0.174,0.704-1.861,0.704-2.799s-0.134-2.012-0.3-2.386
		c-0.163-0.376-0.917-1.85-0.761-3.233l0.023-0.201c0.158-1.383,0.367-2.518,0.466-2.52c0.101-0.002,0.327-0.074,0.507-0.159
		c0,0,0,0-0.006-0.181c0-0.027,0-0.027,0-0.027c-0.015-0.021-0.015-0.061,0.001-0.087c0,0,0,0-0.001-0.029
		c-0.005-0.181-0.005-0.181-0.005-0.181c-0.182-0.076-0.388-0.137-0.458-0.135c-0.072,0.002-0.12-0.084-0.107-0.192
		c0.012-0.106,0.086-0.196,0.161-0.198c0.075-0.001,0.285-0.072,0.461-0.158c0,0,0,0-0.002-0.18c0-0.026,0-0.026,0-0.026
		c-0.017-0.022-0.015-0.062,0.002-0.089c0,0,0,0-0.002-0.029c-0.006-0.181-0.006-0.181-0.006-0.181
		c-0.181-0.075-0.369-0.138-0.415-0.137c-0.049,0.001-0.078-0.076-0.067-0.172c0.011-0.097,0.057-0.177,0.102-0.177
		c0.043-0.001,0.226-0.072,0.404-0.156c0,0,0,0-0.005-0.181c0-0.026,0-0.026,0-0.026c-0.017-0.021-0.017-0.061,0-0.088
		c0,0,0,0,0-0.03c-0.004-0.181-0.004-0.181-0.004-0.181c-0.183-0.075-0.344-0.138-0.358-0.138c-0.016,0.001,0.052-0.7,0.148-1.558
		s0.212-1.559,0.256-1.559c0.046,0,0.233-0.066,0.419-0.146c0,0,0,0,0-0.182c0-0.038,0-0.038,0-0.038
		c-0.021-0.033-0.021-0.085,0-0.118c0,0,0,0,0-0.037c0.003-0.181,0.003-0.181,0.003-0.181c-0.188-0.081-0.354-0.146-0.373-0.146
		c-0.017,0-0.029-0.014-0.029-0.028c0.002-0.017,0.273-0.258,0.605-0.537c0,0,0,0,0-0.41c0-0.053,0-0.053,0-0.053
		c-0.017-0.054-0.017-0.142,0-0.194c0,0,0,0,0-0.054c0-0.381,0-0.381,0-0.381c-0.294-0.27-0.533-1.629-0.533-3.021v-34.805
		c0-1.392,0.239-2.752,0.533-3.021c0,0,0,0,0-0.381c0-0.097,0-0.097,0-0.097c-0.029-0.097-0.029-0.256,0-0.353c0,0,0,0,0-0.098
		c0-0.372,0-0.372,0-0.372c-0.281-0.267-0.373-0.55-0.206-0.628c0,0,0,0,0-0.172c0-0.026,0-0.026,0-0.026
		c-0.014-0.022-0.014-0.06,0-0.082c0,0,0,0,0-0.025c0.003-0.177,0.003-0.177,0.003-0.177c-0.183-0.079-0.33-1.285-0.33-2.678v-4.293
		c0-1.393,0-3.158,0-3.92c0-0.766,1.139-1.39,2.531-1.39h30.531c1.392,0,2.38,0.223,2.194,0.493
		c-0.187,0.271-0.659,2.189-0.919,3.558l-5.693,29.859c-0.262,1.368-0.963,2.487-1.561,2.487s-1.496,0.179-1.996,0.396
		c-0.501,0.219-0.909,2.518-0.909,3.911v8.704c0,1.394,0.183,2.932,0.407,3.42c0.223,0.488,2.551,0.888,3.943,0.888h9.321
		c1.393,0,2.39,1.13,2.213,2.511c0,0-0.016,0.117-0.029,1.504c0.006,1.516,0.104,2.096,0.104,2.096
		c0.23,1.373,0.338,2.624,0.237,2.779c-0.104,0.155-0.741,1.148-1.181,1.85c0,0,0,0-0.426,0.629
		c-0.218,0.316-0.218,0.316-0.218,0.316c-0.212,0.346-0.482,0.768-0.602,0.939c-0.118,0.17-0.627,0.912-0.86,1.26
		c-0.232,0.348-1.364,2.25-2.071,3.451c0,0-0.257,0.435-0.812,2.035c-0.51,1.582-0.77,3.496-1.128,5.6
		c-0.325,2.099-0.893,4.334-1.731,6.486c-0.827,2.156-1.813,4.369-2.71,6.637c-0.938,2.238-1.817,4.587-2.647,6.883
		c-1.627,4.641-2.84,9.328-3.266,13.481c-0.255,2.055-0.204,4.004-0.108,5.676c0.13,1.687,0.161,1.842,0.161,1.842
		c0.274,1.365,0.764,3.372,1.085,4.462c0,0,0,0,0.209,0.561c0.215,0.555,0.215,0.555,0.215,0.555
		c0.062,0.162,0.332,0.605,0.601,0.986c0,0,0,0,0.434,0.089c0.681,0.14,0.681,0.14,0.681,0.14c0.441-0.617,0.834-1.26,0.87-1.429
		c0,0,0,0,0.116-0.58c0.126-0.569,0.126-0.569,0.126-0.569c0.251-0.992,0.778-2.73,1.176-3.861c0,0,0,0,0.544-1.238
		c0.572-1.238,1.314-2.562,2.216-3.957c0.857-1.396,1.976-2.842,3.182-4.33c1.262-1.484,2.585-3.045,4.089-4.64
		c2.803-3.05,7.381-8.223,7.381-8.223c0.922-1.042,1.461-0.777,1.194,0.589c0,0-0.126,0.646-0.426,2.273
		c-0.549,2.935-1.185,5.937-1.897,8.948c-0.717,3.005-1.43,6.041-2.059,9.067c-0.663,3.015-1.153,6.044-1.552,8.986
		c-0.402,2.94-0.667,5.82-0.764,8.557c-0.071,2.738-0.029,5.326,0.161,7.705c0.179,2.38,0.479,4.542,0.828,6.438
		c0.193,0.943,0.193,0.943,0.193,0.943c0.191,0.934,0.539,2.395,0.776,3.248c0,0,0,0,0.187,0.671c0.35,1.344,0.35,1.344,0.35,1.344
		c0.351,0.907,0.72,1.886,0.819,2.174c0.104,0.288,0.337,0.706,0.519,0.93c0,0,0,0,0.269-0.036c0.304-0.041,0.304-0.041,0.304-0.041
		c0.097-0.322,0.162-0.672,0.146-0.777c-0.014-0.105-0.19-1.311-0.272-1.801c-0.081-0.489-0.295-3.342-0.395-4.73
		c0,0-0.026-0.366-0.046-2.206c-0.016-1.831,0.055-3.891,0.277-6.122c0.205-2.229,0.589-4.628,1.095-7.138
		c0.553-2.507,1.134-5.136,1.941-7.826c1.587-5.386,3.575-11.062,5.724-16.811c1.067-2.87,2.242-5.741,3.382-8.61
		c1.164-2.859,2.19-5.772,2.94-8.689c0.552-2.148,0.791-3.942,0.791-3.942c0.185-1.38,1.062-1.632,1.949-0.56
		c0,0,1.115,1.346,2.082,2.893c0.771,1.19,1.407,2.322,1.896,3.384c0.466,1.057,0.466,1.057,0.466,1.057
		c0.34,0.968,0.79,2.454,1.004,3.302c0,0,0,0,0.109,0.486c0.101,0.496,0.101,0.496,0.101,0.496c0.029,0.145,0.195,0.559,0.369,0.918
		c0,0,0,0,0.352,0.137c0.554,0.211,0.554,0.211,0.554,0.211c0.461-0.456,0.881-0.943,0.936-1.082c0,0,0,0,0.182-0.473
		c0.181-0.482,0.181-0.482,0.181-0.482c0.272-0.931,0.701-2.707,0.952-3.947c0,0,0,0,0.111-1.441
		c0.082-1.43,0.123-3.097-0.092-4.853c-0.367-3.553-1.406-7.56-2.795-11.526c-1.387-3.963-3.123-7.881-4.58-11.559
		c-0.719-1.84-1.201-3.752-1.479-5.544c-0.307-1.802-0.528-3.438-0.968-4.792c-0.474-1.366-0.505-1.42-0.505-1.42
		c-0.706-1.201-1.292-2.199-1.304-2.218c-0.013-0.019,1.099-0.068,2.49-0.068h9.031c1.393,0,2.941-0.179,3.44-0.397
		c0.501-0.219,0.91-2.517,0.91-3.91v-8.704c0-1.394-0.183-2.932-0.407-3.419c-0.223-0.489-1.912-0.889-2.524-0.889
		s-1.337-1.117-1.61-2.482l-5.971-29.898c-0.273-1.365-0.596-2.729-0.716-3.029c-0.121-0.301,0.517-0.987,1.908-0.987h50.715
		c1.392,0,2.025,0.649,1.409,1.444c0,0,0,0,0,0.934c0,1.836,1.354,2.381,1.354,2.381c1.291,0.52,3.488,0.944,4.881,0.944h8.238
		c1.393,0,3.588-0.425,4.882-0.944c0,0,1.354-0.545,1.354-2.381c0-0.934,0-0.934,0-0.934c-0.618-0.795,0.017-1.444,1.409-1.444
		h16.118c1.392,0,2.529,0.536,2.529,1.19c0,0.652,0.734,1.188,1.632,1.188c0.896,0,1.629,0.262,1.629,0.582
		c0,0.319,1.141,0.58,2.534,0.58h1.525c1.393,0,2.531-0.261,2.531-0.58c0-0.32,0.351-0.582,0.776-0.582
		c0.427,0,0.774,0.262,0.774,0.582c0,0.319,1.142,0.58,2.534,0.58h1.525c1.393,0,2.531-0.261,2.531-0.58
		c0-0.32,0.306-0.582,0.678-0.582s0.677,0.262,0.677,0.582c0,0.319,1.14,0.58,2.533,0.58h1.537c1.392,0,2.532-0.261,2.532-0.58
		c0-0.32,0.313-0.582,0.702-0.582c0.386,0,0.702,0.262,0.702,0.582c0,0.319,1.139,0.58,2.531,0.58h1.54
		c1.391,0,2.529-0.261,2.529-0.58c0-0.32,0.349-0.582,0.774-0.582c0.423,0,0.771,0.262,0.771,0.582c0,0.319,1.14,0.58,2.532,0.58
		h1.537c1.392,0,2.532-0.261,2.532-0.58c0-0.32,0.741-0.582,1.647-0.582c0.908,0,1.647,0.262,1.647,0.582
		c0,0.319,0.991,0.58,2.201,0.58c1.211,0,2.33,0.268,2.488,0.596c0.16,0.327,1.865,0.595,2.968,0.595
		c1.104,0,2.009,0.007,2.009,0.013c0,0.007-0.04,0.014-0.086,0.014c-0.047,0-0.087,1.139-0.087,2.531v11.037
		c0,1.393,0.04,2.532,0.087,2.532c0.046,0,0.086,0.095,0.086,0.212s-1.141,0.213-2.532,0.213h-70.889
		c-1.394,0-3.588,0.426-4.881,0.945l-2.768,2.406c-0.62,1.246-1.128,2.516-1.128,2.821s0,1.694,0,3.087v103.537
		c0,1.393,0,2.668,0,2.834c0,0.167,0.508,1.323,1.128,2.57l2.768,2.406c1.293,0.52,3.487,0.945,4.881,0.945h180.583
		c1.393,0,3.588-0.426,4.881-0.945l2.766-2.406c0.621-1.247,1.127-2.403,1.127-2.57c0-0.166,0-1.441,0-2.834V562.034
		c0-1.393,0-2.781,0-3.087s-0.506-1.575-1.127-2.821l-2.766-2.406c-1.293-0.52-3.488-0.945-4.881-0.945h-67.29
		c-1.392,0-2.531-1.14-2.531-2.532v-11.487c0-1.393,1.14-2.532,2.531-2.532h0.216c1.392,0,2.804-0.119,3.136-0.264
		c0.334-0.146,1.787-0.927,3.179-0.927h0.354c1.393,0,2.532-0.261,2.532-0.58c0-0.32,0.656-0.582,1.458-0.582
		s1.458,0.262,1.458,0.582c0,0.319,1.141,0.58,2.532,0.58h5.13c1.393,0,2.532-0.261,2.532-0.58c0-0.32,0.368-0.582,0.819-0.582
		c0.449,0,0.818,0.262,0.818,0.582c0,0.319,1.141,0.58,2.532,0.58h3.898c1.392,0,2.531-0.261,2.531-0.58
		c0-0.32,0.276-0.582,0.613-0.582c0.338,0,0.614,0.262,0.614,0.582c0,0.319,1.14,0.58,2.532,0.58h0.971
		c1.392,0,2.532-0.261,2.532-0.58c0-0.32,0.316-0.582,0.706-0.582c0.388,0,0.706,0.262,0.706,0.582c0,0.319,1.139,0.58,2.531,0.58
		h0.97c1.393,0,2.532-0.261,2.532-0.58c0-0.32,0.37-0.582,0.822-0.582s0.822,0.262,0.822,0.582c0,0.319,1.14,0.58,2.531,0.58h0.971
		c1.393,0,2.533-0.261,2.533-0.58c0-0.32,0.375-0.582,0.832-0.582c0.46,0,0.835-0.535,0.835-1.188c0-0.654,1.14-1.19,2.532-1.19
		h72.76c1.393,0,2.005,0.679,1.363,1.511c-0.644,0.83-1.769,3.592-2.279,3.534c0,0,0,0-0.479,0c-5.76,0-10.428,4.669-10.428,10.429
		s4.668,10.428,10.428,10.428c0.465,0,0.465,0,0.465,0c0.496-0.055,0.902,0.968,0.902,2.271c0,1.303,1.141,2.369,2.531,2.369h22.941
		c1.393,0,2.531-1.139,2.531-2.531v-19.551c0-1.393-0.219-3.545-0.488-4.782s-0.931-3.678,0.462-3.678h15.637
		c1.392,0,2.083,1.047,1.534,2.327c0,0-0.25,0.586-0.25,2.403c0,3.932,2.787,5.741,2.787,5.741c1.167,0.758,3.262,1.379,4.654,1.379
		h11.279c1.391,0,2.967,1.053,3.5,2.339l13.666,15.302c1.225,0.66,2.469,2.313,2.762,3.675l14.356,66.639
		c0.294,1.36-0.271,3.282-1.254,4.269c0,0-3.759,3.771-3.759,7.906c0,2.102,0.576,3.426,0.576,3.426
		c0.556,1.276,0.205,3.127-0.779,4.111l-53.889,53.889c-0.986,0.984-2.471,1.065-3.305,0.18c-0.834-0.887-1.566-1.652-1.629-1.705
		s0.598-0.951,1.613-1.906l0.303-0.285c1.014-0.954,2.121-2.342,2.461-3.083c0.338-0.741-0.742-3.484-1.49-4.659l-15.188-23.88
		c-0.748-1.175-1.852-2.441-2.451-2.813c-0.602-0.373-2.939,1.055-3.953,2.009l-6.441,6.06c-1.016,0.954-2.938,1.424-4.273,1.043
		c0,0,0,0-1.318-0.041c-6.586-0.201-12.086,4.974-12.287,11.558c-0.041,1.319-0.041,1.319-0.041,1.319
		c0.299,1.358-0.285,3.25-1.301,4.204l-6.258,5.889c-1.016,0.954-2.045,2.265-2.291,2.915c-0.244,0.649,1.67,2.572,2.834,3.337
		l23.955,15.761c1.164,0.766,2.777,1.529,3.588,1.697c0.811,0.167,3.318-1.43,4.33-2.385l0.299-0.28
		c1.014-0.954,1.877-1.679,1.914-1.609c0.039,0.069,0.957,1.066,1.912,2.081l10.723,11.398c0.955,1.015,2.043,2.002,2.418,2.194
		c0.373,0.192,1.975-0.867,2.988-1.821l1.773-1.667c1.012-0.954,2.203-1.097,2.645-0.316c0.439,0.779,1.029,1.535,1.309,1.678
		c0.277,0.143,1.592-0.764,2.504-1.619c0.908-0.856,1.719-1.767,1.799-2.023s-0.877-1.295-1.633-1.778s-0.543-1.66,0.471-2.615
		l1.703-1.602c1.014-0.953,1.932-2.018,2.041-2.364c0.107-0.347-1.131-2.042-2.084-3.056l-1.711-1.818
		c-0.953-1.014-0.93-2.649,0.057-3.634l55.023-55.025c0.984-0.984,2.549-1.653,3.475-1.485c0,0,0,0,0.886,0c0.166,0,0.166,0,0.166,0
		c0.18-0.014,0.474-0.014,0.652,0c0,0,0,0,0.166,0c6.229,0,11.276-5.048,11.276-11.275c0-5.576-7.184-9.816-7.184-9.816
		c-1.199-0.707-2.421-2.4-2.715-3.761l-14.285-66.316c-0.294-1.36,0.365-3.174,1.465-4.028l9.549-13.811
		c0.451-1.318,1.958-2.396,3.35-2.396h10.915c1.394,0,3.487-0.621,4.655-1.379c0,0,2.787-1.81,2.787-5.741
		c0-1.817-0.252-2.403-0.252-2.403c-0.547-1.28,0.145-2.327,1.537-2.327h29.035c1.393,0,2.532-1.14,2.532-2.532v-12.025
		c0-1.393-1.14-2.532-2.532-2.532H610.05c-1.393,0-2.532-1.081-2.532-2.401c0-1.321-0.027-2.402-0.06-2.402s-0.06-1.14-0.06-2.531
		V396.778H35.235V511.87c0,1.393-1.142,2.532-2.533,2.532H21.377c-1.393,0-2.531,1.14-2.531,2.532v12.025
		C18.846,530.353,19.985,531.492,21.377,531.492z M466.104,551.265c0,1.393-0.404,2.592-0.898,2.667c0,0,0,0-0.469,0
		c-3.846,0-6.965-3.118-6.965-6.966s3.119-6.967,6.965-6.967c0.469,0,0.469,0,0.469,0c0.494,0.074,0.898,1.274,0.898,2.666V551.265z
		 M562.552,654.84l-53.968,53.97c-0.986,0.984-2.102,1.46-2.48,1.057c-0.379-0.402,0.115-1.538,1.102-2.522l53.725-53.724
		c0.984-0.984,2.025-1.597,2.312-1.359C563.529,652.497,563.537,653.855,562.552,654.84z M574.922,642.106
		c2.521,0,4.561,2.042,4.561,4.561c0,2.52-2.04,4.562-4.561,4.562c-2.519,0-4.561-2.043-4.561-4.562
		C570.361,644.148,572.403,642.106,574.922,642.106z M553.906,562.091c0.365-0.055,0.903,1.016,1.197,2.377l14.062,65.281
		c0.294,1.36,0.23,2.502-0.143,2.537c-0.371,0.035-1.561-0.9-1.854-2.261l-14.071-65.312
		C552.805,563.352,553.542,562.146,553.906,562.091z"/>
	<g>
		<path fill="#D4D4D4" d="M298.434,536.155c0-3.496,2.834-6.329,6.331-6.329h24.683c3.496,0,6.33,2.833,6.33,6.329v81.647
			c0,3.495-2.834,6.329-6.33,6.329h-24.683c-3.497,0-6.331-2.834-6.331-6.329V536.155z"/>
	</g>
	<g>
		<polygon fill="#DBDBDB" points="298.265,539.445 321.894,539.445 313.017,555.546 298.265,555.546 		"/>
	</g>
	<g opacity="0.1">
		<rect x="587.365" y="399.761" width="4.723" height="108.229"/>
	</g>
	<g>
		<path fill="#F1F1F1" d="M293.156,534.739c0-0.701,0.566-1.267,1.267-1.267h46.633c0.7,0,1.267,0.565,1.267,1.267v3.414
			c0,0.699-0.566,1.266-1.267,1.266h-46.633c-0.7,0-1.267-0.566-1.267-1.266V534.739z"/>
	</g>
	<g>
		<rect x="39.885" y="396.778" fill="#2C2C2C" width="572.165" height="128.492"/>
	</g>
	<g>
		<rect x="484.162" y="396.778" fill="#333333" width="127.888" height="129.365"/>
	</g>
	<g opacity="0.15">
		<rect x="490.942" y="471.643" width="113.913" height="36.497"/>
	</g>
	<g>
		<rect x="492.072" y="473.924" fill="#333333" width="111.514" height="33.076"/>
	</g>
	<g opacity="0.15">
		<rect x="490.873" y="397.685" width="113.912" height="65.051"/>
	</g>
	<g>
		<rect x="484.162" y="512.796" fill="#2C2C2C" width="128.008" height="4.803"/>
	</g>
	<g>
		<path fill="#F1F1F1" d="M408.131,558.412c3.873,0,7.023,3.036,7.023,6.768v110.983c0,3.732-3.15,6.77-7.023,6.77H222.483
			c-3.873,0-7.024-3.037-7.024-6.77V565.18c0-3.731,3.151-6.768,7.024-6.768H408.131z"/>
	</g>
	<g>
		<path d="M216.241,566.362c0-3.252,2.795-5.887,6.242-5.887h185.648c3.447,0,6.242,2.635,6.242,5.887v109.156
			c0,3.253-2.795,5.886-6.242,5.886H222.483c-3.447,0-6.242-2.633-6.242-5.886V566.362z"/>
	</g>
	<g>
		<path fill="#DCB862" d="M541.18,451.552c1.673-2.664,4.631-4.441,8.01-4.441c3.38,0,6.338,1.777,8.012,4.441h5.227
			c-2.029-5.342-7.184-9.146-13.238-9.146s-11.207,3.804-13.236,9.146H541.18z"/>
	</g>
	<g>
		<rect x="492.072" y="397.569" fill="#333333" width="111.514" height="62.551"/>
	</g>
	<g>
		<circle fill="#2C2C2C" cx="551.365" cy="489.892" r="4.966"/>
	</g>
	<g>
		<circle fill="#2C2C2C" cx="550.968" cy="447.542" r="4.966"/>
	</g>
	<g>
		<circle fill="#E9BE4D" cx="550.179" cy="491.234" r="4.966"/>
	</g>
	<g>
		<path fill="#E8CF98" d="M546.71,490.138c0.296,0,0.536,0.24,0.536,0.537c0,1.85,1.506,3.355,3.357,3.355
			c0.296,0,0.535,0.24,0.535,0.537s-0.239,0.537-0.535,0.537c-2.443,0-4.43-1.988-4.43-4.43
			C546.174,490.378,546.413,490.138,546.71,490.138z"/>
	</g>
	<g>
		<circle fill="#DCB862" cx="106.009" cy="491.234" r="4.966"/>
	</g>
	<g>
		<circle fill="#E9BE4D" cx="550.179" cy="448.909" r="4.966"/>
	</g>
	<g>
		<rect x="39.992" y="396.778" fill="#333333" width="127.888" height="129.365"/>
	</g>
	<g opacity="0.15">
		<rect x="46.771" y="471.034" width="113.913" height="37.105"/>
	</g>
	<g>
		<rect x="47.901" y="472.782" fill="#333333" width="111.514" height="34.218"/>
	</g>
	<g opacity="0.15">
		<rect x="223.316" y="567.934" fill="#FFFFFF" width="184.29" height="98.529"/>
	</g>
	<g opacity="0.15">
		<rect x="46.702" y="397.685" width="113.915" height="65.789"/>
	</g>
	<g>
		<rect x="47.901" y="397.569" fill="#333333" width="111.514" height="63.738"/>
	</g>
	<g>
		<circle fill="#2C2C2C" cx="104.695" cy="447.542" r="4.966"/>
	</g>
	<g>
		<circle fill="#E9BE4D" cx="106.009" cy="448.909" r="4.966"/>
	</g>
	<g>
		<circle fill="#2C2C2C" cx="104.833" cy="489.892" r="4.966"/>
	</g>
	<g>
		<circle fill="#E9BE4D" cx="106.009" cy="491.234" r="4.966"/>
	</g>
	<g>
		<rect x="39.992" y="512.796" fill="#2C2C2C" width="127.888" height="4.803"/>
	</g>
	<g>
		<g>
			<g opacity="0.2">
				<rect x="223.316" y="568.185" width="184.29" height="104.976"/>
			</g>
			<g>
				<g opacity="0.2">
					<rect x="377.336" y="654.224" fill="#E0E0E0" width="23.066" height="2.07"/>
				</g>
				<g>
					<rect x="386.4" y="657.847" fill="#E9BE4D" width="14.002" height="2.068"/>
				</g>
				<g>
					<rect x="371.199" y="657.847" fill="#3C681E" width="14.002" height="2.068"/>
				</g>
				<g opacity="0.2">
					<rect x="366.008" y="642.929" fill="#E0E0E0" width="34.395" height="2.07"/>
				</g>
				<g>
					<rect x="392.309" y="646.464" fill="#F1EDE5" width="8.094" height="2.07"/>
				</g>
				<g opacity="0.2">
					<rect x="363.336" y="650.432" fill="#E0E0E0" width="37.066" height="2.068"/>
				</g>
				<g>
					<rect x="370.35" y="646.464" fill="#E9BE4D" width="9.604" height="2.07"/>
				</g>
				<g>
					<rect x="381.6" y="646.464" fill="#B56349" width="9.605" height="2.07"/>
				</g>
			</g>
			<g>
				<g>
					<g>
						<defs>
							<rect id="SVGID_1_" x="377.354" y="607.156" width="14.322" height="2.399"/>
						</defs>
						<clipPath id="SVGID_2_">
							<use xlink:href="#SVGID_1_"  overflow="visible"/>
						</clipPath>
						<rect x="390.482" y="607.155" clip-path="url(#SVGID_2_)" fill="#4B66CE" width="1.191" height="2.398"/>
						<rect x="389.287" y="607.155" clip-path="url(#SVGID_2_)" fill="#4A66CF" width="1.195" height="2.398"/>
						<rect x="388.096" y="607.155" clip-path="url(#SVGID_2_)" fill="#4966D0" width="1.191" height="2.398"/>
						<rect x="386.9" y="607.155" clip-path="url(#SVGID_2_)" fill="#4966D1" width="1.195" height="2.398"/>
						<rect x="385.711" y="607.155" clip-path="url(#SVGID_2_)" fill="#4866D2" width="1.189" height="2.398"/>
						<rect x="384.516" y="607.155" clip-path="url(#SVGID_2_)" fill="#4766D3" width="1.195" height="2.398"/>
						<rect x="383.32" y="607.155" clip-path="url(#SVGID_2_)" fill="#4666D5" width="1.195" height="2.398"/>
						<rect x="382.129" y="607.155" clip-path="url(#SVGID_2_)" fill="#4566D6" width="1.191" height="2.398"/>
						<rect x="380.934" y="607.155" clip-path="url(#SVGID_2_)" fill="#4466D7" width="1.195" height="2.398"/>
						<rect x="379.738" y="607.155" clip-path="url(#SVGID_2_)" fill="#4466D8" width="1.195" height="2.398"/>
						<rect x="378.549" y="607.155" clip-path="url(#SVGID_2_)" fill="#4366D9" width="1.189" height="2.398"/>
						<rect x="377.354" y="607.155" clip-path="url(#SVGID_2_)" fill="#4266DA" width="1.195" height="2.398"/>
						<path clip-path="url(#SVGID_2_)" fill="#4266DA" d="M377.354,607.155v2.398V607.155z"/>
					</g>
				</g>
				<g>
					<g>
						<defs>
							<rect id="SVGID_3_" x="355.461" y="607.156" width="2.627" height="2.399"/>
						</defs>
						<clipPath id="SVGID_4_">
							<use xlink:href="#SVGID_3_"  overflow="visible"/>
						</clipPath>
						<rect x="357.869" y="607.155" clip-path="url(#SVGID_4_)" fill="#4B66CE" width="0.219" height="2.398"/>
						<rect x="357.651" y="607.155" clip-path="url(#SVGID_4_)" fill="#4A66CF" width="0.218" height="2.398"/>
						<rect x="357.43" y="607.155" clip-path="url(#SVGID_4_)" fill="#4966D0" width="0.222" height="2.398"/>
						<rect x="357.211" y="607.155" clip-path="url(#SVGID_4_)" fill="#4966D1" width="0.219" height="2.398"/>
						<rect x="356.993" y="607.155" clip-path="url(#SVGID_4_)" fill="#4866D2" width="0.218" height="2.398"/>
						<rect x="356.774" y="607.155" clip-path="url(#SVGID_4_)" fill="#4766D3" width="0.219" height="2.398"/>
						<rect x="356.557" y="607.155" clip-path="url(#SVGID_4_)" fill="#4666D5" width="0.218" height="2.398"/>
						<rect x="356.339" y="607.155" clip-path="url(#SVGID_4_)" fill="#4566D6" width="0.218" height="2.398"/>
						<rect x="356.116" y="607.155" clip-path="url(#SVGID_4_)" fill="#4466D7" width="0.223" height="2.398"/>
						<rect x="355.898" y="607.155" clip-path="url(#SVGID_4_)" fill="#4466D8" width="0.218" height="2.398"/>
						<rect x="355.681" y="607.155" clip-path="url(#SVGID_4_)" fill="#4366D9" width="0.218" height="2.398"/>
						<rect x="355.462" y="607.155" clip-path="url(#SVGID_4_)" fill="#4266DA" width="0.219" height="2.398"/>
						<rect x="355.458" y="607.155" clip-path="url(#SVGID_4_)" fill="#4266DA" width="0.004" height="2.398"/>
					</g>
				</g>
				<g opacity="0.2">
					<rect x="392.941" y="607.156" fill="#E0E0E0" width="8.117" height="2.399"/>
				</g>
				<g opacity="0.2">
					<rect x="359.59" y="607.156" fill="#E0E0E0" width="16.253" height="2.399"/>
				</g>
				<g opacity="0.2">
					<rect x="358.088" y="611.457" fill="#E0E0E0" width="42.971" height="2.401"/>
				</g>
				<g>
					<rect x="396.367" y="629.142" fill="#3C681E" width="4.691" height="2.398"/>
				</g>
				<g opacity="0.2">
					<rect x="362.652" y="629.142" fill="#E0E0E0" width="31.369" height="2.398"/>
				</g>
				<g>
					<rect x="389.926" y="615.889" fill="#E9BE4D" width="11.133" height="2.397"/>
				</g>
				<g>
					<rect x="377.055" y="615.889" fill="#B56349" width="11.135" height="2.397"/>
				</g>
				<g>
					<rect x="345.64" y="611.457" fill="#B56349" width="11.134" height="2.401"/>
				</g>
				<g opacity="0.2">
					<rect x="364.186" y="615.889" fill="#E0E0E0" width="11.133" height="2.397"/>
				</g>
				<g opacity="0.2">
					<rect x="367.657" y="620.144" fill="#E0E0E0" width="33.401" height="2.398"/>
				</g>
				<g opacity="0.2">
					<rect x="384.826" y="624.741" fill="#E0E0E0" width="16.232" height="2.4"/>
				</g>
				<g>
					<g>
						<defs>
							<rect id="SVGID_5_" x="372.411" y="624.741" width="11.478" height="2.4"/>
						</defs>
						<clipPath id="SVGID_6_">
							<use xlink:href="#SVGID_5_"  overflow="visible"/>
						</clipPath>
						<rect x="382.934" y="624.743" clip-path="url(#SVGID_6_)" fill="#4B66CE" width="0.957" height="2.398"/>
						<rect x="381.979" y="624.743" clip-path="url(#SVGID_6_)" fill="#4A66CF" width="0.955" height="2.398"/>
						<rect x="381.018" y="624.743" clip-path="url(#SVGID_6_)" fill="#4966D0" width="0.961" height="2.398"/>
						<rect x="380.062" y="624.743" clip-path="url(#SVGID_6_)" fill="#4966D1" width="0.955" height="2.398"/>
						<rect x="379.105" y="624.743" clip-path="url(#SVGID_6_)" fill="#4866D2" width="0.957" height="2.398"/>
						<rect x="378.148" y="624.743" clip-path="url(#SVGID_6_)" fill="#4766D3" width="0.957" height="2.398"/>
						<rect x="377.193" y="624.743" clip-path="url(#SVGID_6_)" fill="#4666D5" width="0.955" height="2.398"/>
						<rect x="376.236" y="624.743" clip-path="url(#SVGID_6_)" fill="#4566D6" width="0.957" height="2.398"/>
						<rect x="375.281" y="624.743" clip-path="url(#SVGID_6_)" fill="#4466D7" width="0.955" height="2.398"/>
						<rect x="374.324" y="624.743" clip-path="url(#SVGID_6_)" fill="#4466D8" width="0.957" height="2.398"/>
						<rect x="373.369" y="624.743" clip-path="url(#SVGID_6_)" fill="#4366D9" width="0.955" height="2.398"/>
						<rect x="372.412" y="624.743" clip-path="url(#SVGID_6_)" fill="#4266DA" width="0.957" height="2.398"/>
						<rect x="372.408" y="624.743" clip-path="url(#SVGID_6_)" fill="#4266DA" width="0.004" height="2.398"/>
					</g>
				</g>
				<g opacity="0.2">
					<rect x="360.308" y="624.741" fill="#E0E0E0" width="11.479" height="2.4"/>
				</g>
			</g>
			<g>
				<g>
					<g>
						<defs>
							<rect id="SVGID_7_" x="388.785" y="571.267" width="2.625" height="2.398"/>
						</defs>
						<clipPath id="SVGID_8_">
							<use xlink:href="#SVGID_7_"  overflow="visible"/>
						</clipPath>
						<rect x="391.191" y="571.267" clip-path="url(#SVGID_8_)" fill="#4B66CE" width="0.219" height="2.399"/>
						<rect x="390.973" y="571.267" clip-path="url(#SVGID_8_)" fill="#4A66CF" width="0.219" height="2.399"/>
						<rect x="390.756" y="571.267" clip-path="url(#SVGID_8_)" fill="#4966D0" width="0.217" height="2.399"/>
						<rect x="390.533" y="571.267" clip-path="url(#SVGID_8_)" fill="#4966D1" width="0.223" height="2.399"/>
						<rect x="390.314" y="571.267" clip-path="url(#SVGID_8_)" fill="#4866D2" width="0.219" height="2.399"/>
						<rect x="390.096" y="571.267" clip-path="url(#SVGID_8_)" fill="#4766D3" width="0.219" height="2.399"/>
						<rect x="389.879" y="571.267" clip-path="url(#SVGID_8_)" fill="#4666D5" width="0.217" height="2.399"/>
						<rect x="389.66" y="571.267" clip-path="url(#SVGID_8_)" fill="#4566D6" width="0.219" height="2.399"/>
						<rect x="389.443" y="571.267" clip-path="url(#SVGID_8_)" fill="#4466D7" width="0.217" height="2.399"/>
						<rect x="389.225" y="571.267" clip-path="url(#SVGID_8_)" fill="#4466D8" width="0.219" height="2.399"/>
						<rect x="389.002" y="571.267" clip-path="url(#SVGID_8_)" fill="#4366D9" width="0.223" height="2.399"/>
						<rect x="388.783" y="571.267" clip-path="url(#SVGID_8_)" fill="#4266DA" width="0.219" height="2.399"/>
						<path clip-path="url(#SVGID_8_)" fill="#4266DA" d="M388.783,571.267v2.399V571.267z"/>
					</g>
				</g>
				<g>
					<rect x="370.635" y="571.267" fill="#3C681E" width="16.756" height="2.398"/>
				</g>
				<g opacity="0.2">
					<rect x="392.645" y="571.267" fill="#E0E0E0" width="8.117" height="2.398"/>
				</g>
				<g>
					<rect x="367.441" y="575.567" fill="#B56349" width="15.697" height="2.4"/>
				</g>
				<g>
					<rect x="396.068" y="593.251" fill="#3C681E" width="4.693" height="2.398"/>
				</g>
				<g opacity="0.2">
					<rect x="377.055" y="593.251" fill="#E0E0E0" width="16.67" height="2.398"/>
				</g>
				<g>
					<g>
						<defs>
							<rect id="SVGID_9_" x="389.627" y="579.997" width="11.135" height="2.4"/>
						</defs>
						<clipPath id="SVGID_10_">
							<use xlink:href="#SVGID_9_"  overflow="visible"/>
						</clipPath>
						<rect x="399.834" y="579.998" clip-path="url(#SVGID_10_)" fill="#4B66CE" width="0.926" height="2.399"/>
						<rect x="398.906" y="579.998" clip-path="url(#SVGID_10_)" fill="#4A66CF" width="0.928" height="2.399"/>
						<rect x="397.977" y="579.998" clip-path="url(#SVGID_10_)" fill="#4966D0" width="0.93" height="2.399"/>
						<rect x="397.049" y="579.998" clip-path="url(#SVGID_10_)" fill="#4966D1" width="0.928" height="2.399"/>
						<rect x="396.123" y="579.998" clip-path="url(#SVGID_10_)" fill="#4866D2" width="0.926" height="2.399"/>
						<rect x="395.195" y="579.998" clip-path="url(#SVGID_10_)" fill="#4766D3" width="0.928" height="2.399"/>
						<rect x="394.266" y="579.998" clip-path="url(#SVGID_10_)" fill="#4666D5" width="0.93" height="2.399"/>
						<rect x="393.338" y="579.998" clip-path="url(#SVGID_10_)" fill="#4566D6" width="0.928" height="2.399"/>
						<rect x="392.412" y="579.998" clip-path="url(#SVGID_10_)" fill="#4466D7" width="0.926" height="2.399"/>
						<rect x="391.484" y="579.998" clip-path="url(#SVGID_10_)" fill="#4466D8" width="0.928" height="2.399"/>
						<rect x="390.553" y="579.998" clip-path="url(#SVGID_10_)" fill="#4366D9" width="0.932" height="2.399"/>
						<rect x="389.627" y="579.998" clip-path="url(#SVGID_10_)" fill="#4266DA" width="0.926" height="2.399"/>
						<path clip-path="url(#SVGID_10_)" fill="#4266DA" d="M389.627,579.998v2.399V579.998z"/>
					</g>
				</g>
				<g opacity="0.1">
					<rect x="376.758" y="579.997" fill="#E0E0E0" width="11.133" height="2.4"/>
				</g>
				<g opacity="0.1">
					<rect x="384.529" y="575.567" fill="#E0E0E0" width="15.389" height="2.4"/>
				</g>
				<g>
					<rect x="357.79" y="575.567" fill="#E9BE4D" width="8.633" height="2.4"/>
				</g>
				<g opacity="0.2">
					<rect x="363.888" y="579.997" fill="#E0E0E0" width="11.134" height="2.4"/>
				</g>
				<g opacity="0.2">
					<rect x="367.359" y="584.254" fill="#E0E0E0" width="33.402" height="2.398"/>
				</g>
				<g opacity="0.2">
					<rect x="384.529" y="588.853" fill="#E0E0E0" width="16.232" height="2.398"/>
				</g>
				<g>
					<g>
						<defs>
							<rect id="SVGID_11_" x="378.963" y="588.853" width="4.629" height="2.398"/>
						</defs>
						<clipPath id="SVGID_12_">
							<use xlink:href="#SVGID_11_"  overflow="visible"/>
						</clipPath>
						<rect x="383.207" y="588.851" clip-path="url(#SVGID_12_)" fill="#4B66CE" width="0.381" height="2.398"/>
						<rect x="382.82" y="588.851" clip-path="url(#SVGID_12_)" fill="#4A66CF" width="0.387" height="2.398"/>
						<rect x="382.436" y="588.851" clip-path="url(#SVGID_12_)" fill="#4966D0" width="0.385" height="2.398"/>
						<rect x="382.049" y="588.851" clip-path="url(#SVGID_12_)" fill="#4966D1" width="0.387" height="2.398"/>
						<rect x="381.664" y="588.851" clip-path="url(#SVGID_12_)" fill="#4866D2" width="0.385" height="2.398"/>
						<rect x="381.277" y="588.851" clip-path="url(#SVGID_12_)" fill="#4766D3" width="0.387" height="2.398"/>
						<rect x="380.893" y="588.851" clip-path="url(#SVGID_12_)" fill="#4666D5" width="0.385" height="2.398"/>
						<rect x="380.506" y="588.851" clip-path="url(#SVGID_12_)" fill="#4566D6" width="0.387" height="2.398"/>
						<rect x="380.121" y="588.851" clip-path="url(#SVGID_12_)" fill="#4466D7" width="0.385" height="2.398"/>
						<rect x="379.734" y="588.851" clip-path="url(#SVGID_12_)" fill="#4466D8" width="0.387" height="2.398"/>
						<rect x="379.35" y="588.851" clip-path="url(#SVGID_12_)" fill="#4366D9" width="0.385" height="2.398"/>
						<rect x="378.963" y="588.851" clip-path="url(#SVGID_12_)" fill="#4266DA" width="0.387" height="2.398"/>
						<path clip-path="url(#SVGID_12_)" fill="#4266DA" d="M378.963,588.851v2.398V588.851z"/>
					</g>
				</g>
				<g opacity="0.2">
					<rect x="370.918" y="593.251" fill="#E0E0E0" width="4.627" height="2.398"/>
				</g>
				<g opacity="0.2">
					<rect x="360.011" y="588.853" fill="#E0E0E0" width="17.841" height="2.398"/>
				</g>
			</g>
			<g opacity="0.2">
				<rect x="332.4" y="635.555" width="75.205" height="3.212"/>
			</g>
			<g opacity="0.2">
				<rect x="332.4" y="599.714" width="75.205" height="3.211"/>
			</g>
			<g opacity="0.2">
				<rect x="332.4" y="663.526" width="75.205" height="3.211"/>
			</g>
			<g opacity="0.2">
				<rect x="329.387" y="568.185" width="3.014" height="98.553"/>
			</g>
			<g>
				<g>
					<rect x="223.316" y="570.089" fill="#568FEA" width="106.07" height="96.648"/>
				</g>
				<g>
					<g opacity="0.4">
						<rect x="283.985" y="594.946" fill="#274394" width="7.244" height="7.241"/>
					</g>
					<g>
						<rect x="283.422" y="594.364" fill="#F1EDE5" width="7.242" height="7.24"/>
					</g>
					<g opacity="0.3">
						<rect x="232.067" y="623.229" fill="#274394" width="89.866" height="31.074"/>
					</g>
					<g>
						<rect x="233.077" y="624.024" fill="#F1EDE5" width="89.307" height="31.533"/>
					</g>
					<g>
						<rect x="279.94" y="614.519" fill="#DE5AC8" width="25.702" height="5.359"/>
						<path fill="#DE5AC8" d="M279.377,613.956h26.827v6.483h-26.827V613.956z M305.08,615.08h-24.578v4.235h24.578V615.08z"/>
					</g>
					<g>
						<path fill="#DE5AC8" d="M250.655,613.956h26.464v6.483h-26.464V613.956z M275.996,615.08h-24.217v4.235h24.217V615.08z"/>
					</g>
					<g>
						<g opacity="0.4">
							<rect x="314.034" y="594.946" fill="#274394" width="7.244" height="7.241"/>
						</g>
						<g>
							<rect x="313.497" y="594.39" fill="#F1EDE5" width="7.245" height="7.242"/>
						</g>
						<g>
							<g>
								<rect x="297.046" y="601.058" fill="#F1EDE5" width="14.226" height="1.13"/>
							</g>
							<g>
								<rect x="295.355" y="599.278" fill="#F1EDE5" width="15.917" height="1.128"/>
							</g>
							<g>
								<rect x="298.34" y="597.497" fill="#F1EDE5" width="12.932" height="1.127"/>
							</g>
							<g>
								<rect x="296.221" y="595.599" fill="#F1EDE5" width="15.051" height="1.127"/>
							</g>
							<g>
								<rect x="300.287" y="593.817" fill="#F1EDE5" width="10.985" height="1.129"/>
							</g>
							<g>
								<rect x="237.624" y="601.058" fill="#F1EDE5" width="14.225" height="1.13"/>
							</g>
							<g>
								<rect x="235.932" y="599.278" fill="#F1EDE5" width="15.916" height="1.128"/>
							</g>
							<g>
								<rect x="238.917" y="597.497" fill="#F1EDE5" width="12.932" height="1.127"/>
							</g>
							<g>
								<rect x="236.797" y="595.599" fill="#F1EDE5" width="15.051" height="1.127"/>
							</g>
							<g>
								<rect x="240.863" y="593.817" fill="#F1EDE5" width="10.985" height="1.129"/>
							</g>
							<g>
								<rect x="265.922" y="601.058" fill="#F1EDE5" width="15.301" height="1.13"/>
							</g>
							<g>
								<rect x="266.999" y="599.278" fill="#F1EDE5" width="14.225" height="1.128"/>
							</g>
							<g>
								<rect x="265.306" y="597.497" fill="#F1EDE5" width="15.917" height="1.127"/>
							</g>
							<g>
								<rect x="266.999" y="595.599" fill="#F1EDE5" width="14.225" height="1.127"/>
							</g>
							<g>
								<rect x="265.306" y="593.817" fill="#F1EDE5" width="15.917" height="1.129"/>
							</g>
						</g>
					</g>
					<g opacity="0.4">
						<rect x="254.708" y="594.946" fill="#274394" width="7.242" height="7.241"/>
					</g>
					<g>
						<rect x="254.115" y="594.334" fill="#F1EDE5" width="7.244" height="7.241"/>
					</g>
				</g>
				<g>
					<rect x="223.316" y="568.185" fill="#274394" width="106.07" height="17.268"/>
				</g>
				<g>
					<polygon fill="#568FEA" points="278.498,583.093 281.831,586.543 278.498,589.995 275.165,586.543 					"/>
				</g>
				<g>
					<rect x="223.316" y="662.151" fill="#F1EDE5" width="106.071" height="4.586"/>
				</g>
				<g>
					<ellipse fill="#DE5AC8" cx="313.874" cy="662.151" rx="2.994" ry="2.934"/>
				</g>
				<g>
					<rect x="261.197" y="660.548" fill="#274394" width="11.608" height="3.206"/>
				</g>
				<g>
					<rect x="248.243" y="660.548" fill="#274394" width="11.608" height="3.206"/>
				</g>
				<g>
					<rect x="235.287" y="660.548" fill="#274394" width="11.611" height="3.206"/>
				</g>
				<g>
					<path fill="#DE5AC8" d="M318.783,599.095v0.678c-0.304,0.015-0.517,0.036-0.638,0.062c-0.192,0.045-0.35,0.135-0.473,0.268
						c-0.082,0.091-0.146,0.211-0.188,0.363c-0.025,0.09-0.038,0.158-0.038,0.203h-0.804v-5.072h0.987v3.498H318.783z"/>
				</g>
				<g>
					<path fill="#DE5AC8" d="M288.504,596.594c-0.139,0.338-0.463,0.696-0.974,1.074c-0.444,0.329-0.73,0.563-0.86,0.706
						c-0.201,0.221-0.302,0.463-0.302,0.728c0,0.214,0.057,0.393,0.172,0.534c0.115,0.144,0.28,0.215,0.494,0.215
						c0.292,0,0.491-0.113,0.598-0.34c0.061-0.131,0.097-0.338,0.108-0.623h0.936c-0.017,0.432-0.092,0.78-0.227,1.047
						c-0.258,0.505-0.714,0.758-1.37,0.758c-0.518,0-0.932-0.148-1.237-0.445c-0.308-0.297-0.46-0.691-0.46-1.181
						c0-0.376,0.108-0.709,0.325-1.001c0.142-0.192,0.374-0.408,0.699-0.646l0.386-0.283c0.242-0.177,0.407-0.307,0.496-0.385
						c0.09-0.08,0.165-0.172,0.225-0.276h-2.14v-0.878h3.357C288.721,595.961,288.646,596.294,288.504,596.594z"/>
				</g>
				<g>
					<path fill="#DE5AC8" d="M258.677,597.153c0-0.203-0.032-0.371-0.096-0.504c-0.117-0.244-0.329-0.367-0.637-0.367
						c-0.188,0-0.354,0.068-0.493,0.201c-0.142,0.135-0.212,0.328-0.212,0.579c0,0.333,0.131,0.556,0.392,0.669
						c0.148,0.062,0.381,0.094,0.7,0.094v0.713c-0.312,0.005-0.529,0.037-0.653,0.095c-0.214,0.098-0.319,0.296-0.319,0.595
						c0,0.193,0.055,0.351,0.163,0.472c0.109,0.122,0.263,0.183,0.46,0.183c0.228,0,0.395-0.076,0.501-0.225
						s0.156-0.348,0.153-0.598h0.898c-0.008,0.252-0.051,0.49-0.125,0.717c-0.078,0.199-0.202,0.381-0.371,0.549
						c-0.126,0.119-0.275,0.209-0.448,0.273c-0.174,0.063-0.386,0.094-0.639,0.094c-0.469,0-0.846-0.125-1.133-0.376
						c-0.286-0.251-0.43-0.587-0.43-1.009c0-0.299,0.086-0.549,0.257-0.756c0.108-0.127,0.22-0.215,0.338-0.262
						c-0.089,0-0.215-0.078-0.379-0.234c-0.245-0.234-0.368-0.557-0.368-0.966c0-0.429,0.145-0.806,0.431-1.131
						s0.711-0.487,1.274-0.487c0.693,0,1.174,0.233,1.444,0.701c0.142,0.25,0.221,0.578,0.236,0.98H258.677z"/>
				</g>
			</g>
			<g opacity="0.8">
				<rect x="223.316" y="666.737" fill="#232323" width="184.29" height="6.423"/>
			</g>
		</g>
	</g>
	<g>
		<path fill="#FFFFFF" d="M396.367,667.027c0.045,0,0.09,0.011,0.131,0.034l3.316,1.866c0.086,0.048,0.139,0.138,0.137,0.235
			c0,0.098-0.053,0.188-0.139,0.234l-3.316,1.809c-0.08,0.043-0.178,0.043-0.258,0l-3.316-1.809
			c-0.086-0.047-0.139-0.137-0.141-0.234c0-0.098,0.053-0.188,0.137-0.235l3.316-1.866
			C396.275,667.038,396.32,667.027,396.367,667.027z M399.129,669.158l-2.762-1.556l-2.764,1.556l2.764,1.506L399.129,669.158z"/>
	</g>
	<g>
		<rect x="243.375" y="534.688" fill="#FFFFFF" width="152.118" height="2.379"/>
	</g>
	<g>
		<rect x="387.79" y="537.04" fill="#D4D4D4" width="6.034" height="1.189"/>
	</g>
	<g>
		<rect x="380.11" y="537.04" fill="#D4D4D4" width="6.034" height="1.189"/>
	</g>
	<g>
		<rect x="372.666" y="537.04" fill="#D4D4D4" width="6.033" height="1.189"/>
	</g>
	<g>
		<rect x="362.474" y="537.04" fill="#D4D4D4" width="8.962" height="1.189"/>
	</g>
	<g>
		<rect x="350.643" y="537.04" fill="#D4D4D4" width="10.193" height="1.189"/>
	</g>
	<g>
		<rect x="278.874" y="537.04" fill="#D4D4D4" width="6.602" height="1.189"/>
	</g>
	<g>
		<rect x="270.728" y="537.04" fill="#D4D4D4" width="6.602" height="1.189"/>
	</g>
	<g>
		<rect x="262.721" y="537.04" fill="#D4D4D4" width="6.601" height="1.189"/>
	</g>
	<g>
		<rect x="254.777" y="537.04" fill="#D4D4D4" width="6.591" height="1.189"/>
	</g>
	<g>
		<rect x="246.635" y="537.04" fill="#D4D4D4" width="6.59" height="1.189"/>
	</g>
	<g>
		<rect x="288.771" y="537.04" fill="#D4D4D4" width="58.955" height="1.189"/>
	</g>
	<g>
		<path fill="#E8CF98" d="M546.662,448.079c0.297,0,0.536,0.24,0.536,0.537c0,1.85,1.507,3.355,3.356,3.355
			c0.297,0,0.537,0.24,0.537,0.537s-0.24,0.537-0.537,0.537c-2.441,0-4.43-1.988-4.43-4.43
			C546.125,448.319,546.365,448.079,546.662,448.079z"/>
	</g>
	<g>
		<path fill="#E8CF98" d="M109.395,490.138c0.296,0,0.536,0.24,0.536,0.537c0,2.441-1.987,4.43-4.429,4.43
			c-0.296,0-0.536-0.24-0.536-0.537s0.24-0.537,0.536-0.537c1.849,0,3.354-1.506,3.354-3.355
			C108.857,490.378,109.098,490.138,109.395,490.138z"/>
	</g>
	<g>
		<path fill="#E8CF98" d="M109.443,448.079c0.296,0,0.536,0.24,0.536,0.537c0,2.441-1.987,4.43-4.431,4.43
			c-0.296,0-0.536-0.24-0.536-0.537s0.24-0.537,0.536-0.537c1.852,0,3.357-1.506,3.357-3.355
			C108.906,448.319,109.145,448.079,109.443,448.079z"/>
	</g>
	<g>
		<rect x="180.156" y="396.778" fill="#313131" width="290.825" height="116.018"/>
	</g>
	<g>
		<g>
			<path fill="#33571C" d="M106.841,652.538c0.129,1.686,0.341,3.102,0.662,4.325c0.258,1.233,0.582,1.979,0.794,2.541
				c0.213,0.554,0.328,0.847,0.328,0.847c0.148,0.385,0.488,0.692,0.922,0.781c0.678,0.141,1.345-0.299,1.482-0.98
				c0,0,0.064-0.308,0.182-0.889c0.129-0.569,0.239-1.484,0.581-2.375c0.279-0.896,0.722-2.058,1.265-3.293
				c0.573-1.238,1.315-2.563,2.216-3.958c0.857-1.396,1.978-2.844,3.184-4.329c1.261-1.484,2.583-3.047,4.087-4.641
				c2.803-3.05,5.93-6.377,9.058-10.119c-0.307,1.551-0.607,3.133-0.907,4.758c-0.55,2.938-1.186,5.938-1.898,8.949
				c-0.717,3.006-1.429,6.04-2.059,9.066c-0.661,3.015-1.154,6.047-1.552,8.988c-0.403,2.939-0.664,5.82-0.763,8.555
				c-0.072,2.74-0.03,5.328,0.161,7.707c0.179,2.378,0.479,4.542,0.827,6.436c0.195,0.944,0.375,1.826,0.539,2.642
				c0.225,0.81,0.433,1.55,0.616,2.221c0.351,1.347,0.773,2.298,0.988,2.995c0.239,0.684,0.367,1.047,0.367,1.047
				c0.083,0.248,0.333,0.406,0.602,0.369c0.304-0.039,0.521-0.32,0.478-0.625c0,0-0.052-0.385-0.15-1.102
				c-0.069-0.711-0.297-1.781-0.361-3.096c-0.106-1.309-0.207-2.893-0.226-4.732c-0.019-1.832,0.055-3.892,0.276-6.122
				c0.206-2.229,0.587-4.628,1.093-7.138c0.553-2.506,1.134-5.135,1.941-7.827c1.59-5.384,3.575-11.062,5.725-16.81
				c1.066-2.871,2.241-5.741,3.384-8.611c1.162-2.857,2.188-5.771,2.938-8.689c0.551-2.147,0.907-4.322,1.129-6.45
				c1.447,1.683,2.728,3.295,3.694,4.843c0.771,1.188,1.406,2.322,1.895,3.384c0.466,1.056,0.844,2.047,1.082,2.815
				c0.294,0.76,0.389,1.542,0.496,2.03c0.102,0.495,0.155,0.758,0.155,0.758c0.074,0.345,0.315,0.653,0.667,0.79
				c0.555,0.213,1.179-0.062,1.393-0.618c0,0,0.097-0.251,0.279-0.724c0.18-0.484,0.455-1.118,0.678-2.176
				c0.276-1.043,0.455-2.254,0.565-3.697c0.082-1.429,0.123-3.096-0.092-4.852c-0.367-3.553-1.405-7.56-2.796-11.525
				c-1.386-3.964-3.122-7.882-4.579-11.561c-0.719-1.839-1.201-3.75-1.479-5.543c-0.307-1.802-0.529-3.438-0.965-4.79
				c-0.477-1.369-1.076-2.504-1.789-3.604c-0.306-0.549-0.756-1.086-1.037-1.625c-0.398-0.533-0.712-1.073-1.074-1.61
				c-0.364-0.54-0.726-1.085-1.05-1.629c-0.185-0.283-0.365-0.555-0.541-0.821c-0.147-0.273-0.309-0.544-0.48-0.817
				c-0.663-1.082-1.277-2.156-1.824-3.104c-0.532-0.949-0.945-1.766-1.294-2.353c-0.358-0.604-0.547-0.927-0.547-0.927l-0.015-0.023
				c-0.389-0.658-1.22-0.945-1.942-0.635c0,0-0.364,0.155-0.971,0.504c-0.32,0.169-0.673,0.396-1.079,0.675
				c-0.402,0.287-0.936,0.599-1.353,1.024c-0.909,0.828-2.069,1.893-2.982,3.33c-0.527,0.705-0.964,1.497-1.386,2.365
				c-0.418,0.87-0.836,1.816-1.114,2.83c-0.687,2.033-0.978,4.324-1.005,6.729c0.006,1.516,0.183,3.074,0.528,4.592
				c-0.188,0.28-0.373,0.564-0.565,0.857c-0.38,0.639-0.802,1.274-1.228,1.904c-0.219,0.316-0.423,0.629-0.602,0.942
				c-0.215,0.309-0.435,0.623-0.656,0.942c-0.362,0.625-0.845,1.262-1.207,1.9c-0.838,1.287-1.542,2.615-2.095,4.217
				c-0.512,1.58-0.771,3.495-1.131,5.598c-0.324,2.101-0.892,4.336-1.732,6.488c-0.823,2.154-1.812,4.368-2.709,6.636
				c-0.938,2.239-1.817,4.588-2.645,6.884c-1.628,4.641-2.84,9.327-3.268,13.48C106.694,648.919,106.744,650.866,106.841,652.538z"
				/>
		</g>
		<g>
			<path fill="none" stroke="#75CC34" stroke-width="2.8133" stroke-linecap="round" stroke-miterlimit="10" d="M139.216,583.639"/>
		</g>
		<g>
			<path fill="none" stroke="#75CC34" stroke-width="5.3046" stroke-linecap="round" stroke-miterlimit="10" d="M135.527,645.562"/>
		</g>
		<g>
			<path fill="#E9BE4D" d="M108.403,572.862c0-0.98,0.812-1.776,1.82-1.776h47.761c1.005,0,1.821,0.796,1.821,1.776v13.768
				c0,0.982-0.816,1.776-1.821,1.776h-47.761c-1.008,0-1.82-0.794-1.82-1.776V572.862z"/>
		</g>
		<g>
			<path fill="#E9BE4D" d="M156.255,573.576c0.368,1.54-0.627,2.802-2.213,2.802h-39.777c-1.585,0-2.638-1.272-2.341-2.83
				l7.11-37.296c0.298-1.558,1.838-2.831,3.421-2.831h22.786c1.588,0,3.182,1.26,3.553,2.802L156.255,573.576z"/>
		</g>
		<g>
			<path fill="#3C681E" d="M109.829,652.905c2.674-6.375,5.162-11.201,7.46-14.946c-1.22-0.4-2.621-0.166-2.621-0.166
				c0.614-1.115,2.233-1.634,3.919-1.866c1.605-2.416,3.111-4.296,4.504-5.783c-1.388-1.617-4.49-1.108-4.49-1.108
				c1.211-2.195,5.742-2.438,8.378-2.384c1.39-1.027,2.618-1.738,3.667-2.377c-0.08-0.221-0.126-0.533-0.12-0.975
				c0.073-5.506-7.065-4.312-7.065-4.312c1.68-3.049,8.024-3.349,11.615-3.262c0.005-0.283,0.018-0.557,0.018-0.86
				c0-9.659-14.092-6.22-14.092-6.22C122.228,620.968,109.829,626.577,109.829,652.905z"/>
		</g>
		<g>
			<path fill="#3C681E" d="M126.416,678.925c0.171-5.55,2.219-12.857,4.745-20.396c-0.936-0.363-2.088,0.557-2.088,0.557
				c-0.013-1.186,1.813-2.329,2.887-2.903c0.344-0.998,0.693-1.997,1.049-2.996c-0.938-0.383-2.11,0.55-2.11,0.55
				c-0.012-1.213,1.899-2.385,2.961-2.944c0.305-0.854,0.608-1.702,0.912-2.546c-0.927-0.316-2.046,0.579-2.046,0.579
				c-0.014-1.183,1.808-2.322,2.879-2.896c1.333-3.725,2.587-7.286,3.583-10.493c-1.192-0.808-2.883,0.542-2.883,0.542
				c-0.017-1.557,2.532-3.072,3.815-3.732c0.548-2.023,0.942-3.85,1.122-5.403c-1.682-1.223-3.137,1.229-3.137,1.229
				c-0.614-1.594,1.685-4.215,2.526-5.102c-0.836-1.439-2.201-2.375-2.993-2.06c-3.261,1.303-0.924,5.769-7.234,27.74
				C124.095,670.62,126.416,678.925,126.416,678.925z"/>
		</g>
		<g>
			<path fill="#3C681E" d="M142.881,614.587c6.315,5.58,10.395,18.881,10.395,18.881s0.098-10.018-2.869-18.671
				c-0.543,0.593-0.654,1.589-0.654,1.589c-0.746-0.742-0.461-2.459-0.133-3.68c-0.714-1.705-1.57-3.309-2.591-4.726
				c-1.784,0.586-1.432,3.379-1.432,3.379c-1.642-0.996-1.526-4.716-1.384-6.39c-0.925-0.738-1.946-1.335-3.07-1.765
				c-3.146,0.906-1.298,4.843-1.298,4.843c-1.851-0.436-3.029-3.42-3.65-5.573C130.469,603.06,137.933,610.21,142.881,614.587z"/>
		</g>
		<g opacity="0.8">
			<g opacity="0.2">
				<polygon fill="#FFFFFF" points="152.571,573.709 134.635,573.709 134.635,585.032 134.635,585.763 157.142,585.763 
					157.142,573.709 154.015,573.709 				"/>
			</g>
			<g opacity="0.2">
				<polygon fill="#FFFFFF" points="152,570.941 145.009,536.96 134.635,536.96 134.635,570.941 				"/>
			</g>
		</g>
	</g>
	<g>
		
			<rect x="539.118" y="641.425" transform="matrix(-0.7073 -0.707 0.707 -0.7073 437.723 1554.8958)" fill="#E9BE4D" width="3.358" height="90.788"/>
	</g>
	<g>
		
			<rect x="534.862" y="638.089" transform="matrix(-0.707 -0.7073 0.7073 -0.707 432.4618 1546.1465)" fill="#E9BE4D" width="3.358" height="90.786"/>
	</g>
	<path fill="#E9BE4D" d="M556.303,551.639l3.282-0.708l18.775,87.229l-3.283,0.707L556.303,551.639z M569.979,640.697l3.283-0.706
		l-18.775-87.228l-3.283,0.708L569.979,640.697z"/>
	<g>
		<path fill="#E9BE4D" d="M515.654,539.419c0-3.933,2.197-7.121,4.908-7.121h70.248c2.712,0,4.908,3.188,4.908,7.121l0,0
			c0,3.933-2.196,7.121-4.908,7.121h-70.248C517.852,546.54,515.654,543.352,515.654,539.419L515.654,539.419z"/>
	</g>
	<g>
		<path fill="#E9BE4D" d="M555.869,565.503c10.473,0,18.963-8.492,18.963-18.963h-37.926
			C536.906,557.011,545.395,565.503,555.869,565.503z"/>
	</g>
	<g>
		<path fill="#F1EDE5" d="M498.76,565.231v-24.616c-0.001-5.157-4.18-8.317-9.336-8.317h-9.332c-5.156,0-9.338,3.16-9.338,8.317
			v24.616H498.76z"/>
	</g>
	<g>
		<path fill="#F1EDE5" d="M469.389,560.591c5.762,0,10.43-4.668,10.43-10.43c0-5.76-4.668-10.429-10.43-10.429
			c-5.76,0-10.428,4.669-10.428,10.429C458.961,555.923,463.629,560.591,469.389,560.591z M469.389,543.194
			c3.85,0,6.967,3.119,6.967,6.967s-3.117,6.968-6.967,6.968c-3.848,0-6.967-3.12-6.967-6.968S465.541,543.194,469.389,543.194z"/>
	</g>
	<g>
		<path fill="#FFFFFF" d="M484.758,562.647c0,0,0-22.232-0.001-25.658c-5.326-0.018-10.236-0.843-10.651,3.873
			c-0.35,3.984,0,21.785,0,21.785H484.758z"/>
	</g>
	<g>
		<path fill="#F3D486" d="M555.012,562.815c0,0-15.405-3.106-15.405-16.151h14.099l1.096,14.909"/>
	</g>
	<g>
		<path fill="#F3D486" d="M524.947,544.91h-4.562c0,0-5.457-3.578,0-9.034h4.562C524.947,535.876,521.324,541.287,524.947,544.91z"
			/>
	</g>
	<g opacity="0.05">
		<polygon fill="#FFFFFF" points="488.479,683.982 428.39,534.485 163.593,534.485 460.424,710.6 		"/>
	</g>
	<g>
		<g opacity="0.3">
			<circle fill="#FFFFFF" cx="472.622" cy="694.277" r="11.928"/>
		</g>
		<g>
			<path fill="#E9BE4D" d="M512.045,732.384c-0.438-0.401-0.531-1.009-0.211-1.354l1.955-2.115c0.318-0.346,0.932-0.3,1.367,0.104
				l3.033,1.661c0.438,0.401,0.529,1.006,0.211,1.353l-3.084,3.337c-0.32,0.346-0.932,0.3-1.367-0.104L512.045,732.384z"/>
		</g>
		<g>
			<path fill="#E9BE4D" d="M490.012,723.857c-0.588-0.544-0.713-1.36-0.279-1.829l13.287-14.373
				c0.432-0.467,1.256-0.404,1.842,0.135l15.209,14.062c0.588,0.541,0.713,1.359,0.281,1.827l-13.287,14.374
				c-0.432,0.465-1.256,0.403-1.84-0.138L490.012,723.857z"/>
		</g>
		<g opacity="0.2">
			<polygon fill="#FFFFFF" points="505.215,735.29 491.264,721.623 497.699,714.661 514.361,725.944 			"/>
		</g>
		<g>
			<path fill="#E9BE4D" d="M452.691,711.618c-1.217-0.683-1.436-2.077-0.49-3.102l33.186-35.902
				c0.945-1.019,2.396-0.939,3.223,0.179l19.822,26.837c0.828,1.119,0.732,2.873-0.213,3.896l-22.193,24.007
				c-0.943,1.021-2.711,1.302-3.926,0.62L452.691,711.618z"/>
		</g>
		<g opacity="0.2">
			<polygon fill="#FFFFFF" points="481.463,724.264 456.055,709.88 472.75,692.515 492.723,713.124 			"/>
		</g>
	</g>
	<g>
		<path fill="#D4D4D4" d="M202.605,537.067c0-1.837,1.659-3.326,3.705-3.326h13.302c2.044,0,3.704,1.489,3.704,3.326l0,0
			c0,1.837-1.66,3.325-3.704,3.325H206.31C204.264,540.393,202.605,538.904,202.605,537.067L202.605,537.067z"/>
	</g>
	<g>
		<path fill="#FFFFFF" d="M202.605,537.067c0,1.837,1.659,3.325,3.705,3.325h13.302c2.044,0,3.704-1.488,3.704-3.325H202.605z"/>
	</g>
	<g opacity="0.15">
		<g>
			<path fill="#FFFFFF" d="M480.859,576.776c0,0,0.072,0.146,0.182,0.414c0.109,0.258,0.252,0.703,0.498,1.111
				c0.213,0.411,0.52,0.896,0.865,1.395c0.375,0.493,0.785,0.992,1.295,1.48c0.473,0.497,1.08,0.982,1.682,1.495
				c0.654,0.509,1.348,1.046,2.062,1.602c0.742,0.56,1.521,1.157,2.344,1.792c0.807,0.639,1.65,1.322,2.484,2.057
				c1.658,1.471,3.334,3.16,4.654,5.116c0.664,0.974,1.242,1.995,1.674,3.056c0.447,1.041,0.713,2.137,0.865,3.13
				c0.037,0.518,0.09,0.995,0.08,1.456c-0.037,0.47-0.041,0.896-0.115,1.299c-0.088,0.401-0.158,0.765-0.254,1.094
				c-0.115,0.33-0.229,0.622-0.342,0.879c-0.191,0.518-0.504,0.881-0.641,1.128c-0.164,0.243-0.264,0.364-0.264,0.364
				s-0.064-0.146-0.184-0.419c-0.115-0.268-0.244-0.649-0.484-1.099c-0.107-0.215-0.225-0.453-0.354-0.713
				c-0.145-0.237-0.299-0.492-0.465-0.768c-0.344-0.521-0.75-1.055-1.205-1.582c-0.488-0.523-0.982-1.051-1.59-1.582
				c-0.57-0.54-1.242-1.08-1.928-1.66c-1.408-1.137-2.994-2.408-4.631-3.842c-1.621-1.438-3.266-3.068-4.641-4.924
				c-0.695-0.905-1.295-1.922-1.795-2.912c-0.475-1.034-0.861-2.044-1.045-3.064c-0.207-0.998-0.223-1.957-0.146-2.77
				c0.105-0.816,0.277-1.496,0.514-2.047c0.189-0.555,0.477-0.857,0.619-1.115C480.758,576.905,480.859,576.776,480.859,576.776z"/>
		</g>
		<g>
			<path fill="#FFFFFF" d="M478.586,589.979c0,0,0.127,0.461,0.307,1.211c0.117,0.357,0.244,0.748,0.439,1.188
				c0.084,0.217,0.188,0.436,0.316,0.652c0.107,0.221,0.244,0.436,0.395,0.646c0.281,0.427,0.643,0.826,1.043,1.219
				c0.395,0.396,0.885,0.775,1.389,1.179c0.533,0.392,1.109,0.796,1.723,1.227c0.645,0.444,1.297,0.896,1.951,1.349
				c1.334,0.971,2.744,2.064,3.924,3.442c0.59,0.679,1.115,1.431,1.508,2.231c0.408,0.782,0.648,1.635,0.766,2.404
				c0.09,0.786,0.057,1.498-0.074,2.092c-0.113,0.598-0.332,1.072-0.51,1.443c-0.158,0.375-0.393,0.633-0.5,0.812
				c-0.127,0.179-0.203,0.265-0.203,0.265c0.002,0-0.123-0.473-0.328-1.184c-0.213-0.713-0.619-1.627-1.232-2.416
				c-0.639-0.796-1.48-1.51-2.596-2.281c-0.541-0.392-1.164-0.779-1.795-1.213c-0.639-0.416-1.312-0.885-1.998-1.363
				c-0.676-0.501-1.381-1.027-2.041-1.619c-0.672-0.59-1.312-1.249-1.885-1.962c-0.568-0.731-1.066-1.507-1.416-2.337
				c-0.35-0.824-0.562-1.668-0.611-2.447c-0.059-0.776,0.018-1.479,0.174-2.057c0.123-0.579,0.373-1.068,0.545-1.439
				c0.174-0.361,0.396-0.593,0.508-0.775C478.516,590.071,478.586,589.979,478.586,589.979z"/>
		</g>
		<g>
			<path fill="#FFFFFF" d="M494.375,585.874c0,0-0.088-0.321-0.211-0.842c-0.082-0.248-0.172-0.518-0.299-0.824
				c-0.121-0.301-0.299-0.607-0.5-0.898c-0.395-0.594-0.973-1.109-1.688-1.663c-0.729-0.55-1.613-1.126-2.549-1.788
				c-0.926-0.674-1.902-1.433-2.723-2.387c-0.408-0.471-0.771-0.992-1.045-1.549c-0.283-0.543-0.449-1.135-0.531-1.668
				c-0.066-0.545-0.031-1.039,0.059-1.451c0.07-0.414,0.223-0.744,0.346-1.002c0.111-0.26,0.273-0.438,0.35-0.562
				c0.09-0.12,0.141-0.185,0.141-0.185s0.084,0.329,0.227,0.822c0.146,0.494,0.42,1.129,0.854,1.677
				c0.443,0.551,1.027,1.046,1.803,1.582c0.402,0.272,0.818,0.555,1.242,0.84c0.445,0.29,0.912,0.614,1.389,0.946
				c0.943,0.684,1.926,1.488,2.725,2.484c0.391,0.508,0.736,1.045,0.98,1.621c0.242,0.572,0.391,1.157,0.424,1.697
				c0.045,0.537-0.021,1.027-0.129,1.429c-0.076,0.399-0.252,0.739-0.371,0.995c-0.119,0.252-0.273,0.412-0.352,0.539
				C494.424,585.81,494.375,585.874,494.375,585.874z"/>
		</g>
	</g>
	<g>
		<rect x="247.851" y="640.68" fill="#274394" width="60.178" height="3.723"/>
	</g>
	<g>
		<rect x="259.366" y="636.156" fill="#274394" width="39.745" height="1.86"/>
	</g>
	<g>
		<g>
			<polygon fill="#AAAAB2" points="60.756,591.217 84.225,591.217 82.575,605.815 62.14,605.815 			"/>
		</g>
		<g>
			<rect x="60.756" y="537.466" fill="#871010" width="23.469" height="53.751"/>
		</g>
		<g>
			<rect x="60.756" y="533.868" fill="#AAAAB2" width="23.469" height="13.422"/>
		</g>
		<g>
			<path fill="#333333" d="M60.881,605.622c0-0.779,0.632-1.41,1.409-1.41H82.69c0.778,0,1.411,0.631,1.411,1.41v3.409
				c0,0.778-0.633,1.409-1.411,1.409H62.291c-0.777,0-1.409-0.631-1.409-1.409V605.622z"/>
		</g>
		<g>
			<path fill="#7B0000" d="M60.091,548.452c0-0.555,0.449-1.004,1.002-1.004h22.662c0.553,0,1.005,0.449,1.005,1.004l0,0
				c0,0.554-0.452,1.005-1.005,1.005H61.093C60.541,549.457,60.091,549.006,60.091,548.452L60.091,548.452z"/>
		</g>
		<g>
			<path fill="#931D1D" d="M60.091,548.998c0-0.554,0.449-1.005,1.002-1.005h22.662c0.553,0,1.005,0.451,1.005,1.005l0,0
				c0,0.554-0.452,1.005-1.005,1.005H61.093C60.541,550.003,60.091,549.552,60.091,548.998L60.091,548.998z"/>
		</g>
		<g>
			<path fill="#8C8C98" d="M60.694,599.058c-0.005-0.183,0.14-0.332,0.319-0.336l22.681-0.538c0.181-0.004,0.332,0.14,0.336,0.32
				l0,0c0.005,0.181-0.138,0.331-0.32,0.335l-22.681,0.537C60.849,599.38,60.697,599.237,60.694,599.058L60.694,599.058z"/>
		</g>
		<g>
			<path fill="#8C8C98" d="M60.742,597.869c-0.005-0.181,0.14-0.331,0.32-0.336l22.681-0.538c0.18-0.005,0.332,0.14,0.338,0.32l0,0
				c0.002,0.183-0.141,0.331-0.321,0.336l-22.683,0.537C60.897,598.192,60.748,598.05,60.742,597.869L60.742,597.869z"/>
		</g>
		<g>
			<path fill="#8C8C98" d="M60.753,596.722c-0.004-0.182,0.142-0.331,0.321-0.336l22.684-0.535c0.18-0.007,0.33,0.137,0.332,0.317
				l0,0c0.005,0.181-0.139,0.332-0.318,0.336l-22.682,0.537C60.909,597.047,60.758,596.902,60.753,596.722L60.753,596.722z"/>
		</g>
		<g>
			<path fill="#A3A3AF" d="M60.694,599.2c-0.005-0.182,0.14-0.331,0.319-0.336l22.681-0.537c0.181-0.004,0.332,0.139,0.336,0.32l0,0
				c0.005,0.18-0.138,0.33-0.32,0.335l-22.681,0.536C60.849,599.524,60.697,599.38,60.694,599.2L60.694,599.2z"/>
		</g>
		<g>
			<path fill="#A3A3AF" d="M60.742,598.013c-0.005-0.182,0.14-0.332,0.32-0.336l22.681-0.537c0.18-0.005,0.332,0.139,0.338,0.319
				l0,0c0.002,0.181-0.141,0.33-0.321,0.335l-22.683,0.539C60.897,598.337,60.748,598.192,60.742,598.013L60.742,598.013z"/>
		</g>
		<g>
			<path fill="#A3A3AF" d="M60.753,596.864c-0.004-0.18,0.142-0.331,0.321-0.335l22.684-0.537c0.18-0.005,0.33,0.138,0.332,0.319
				l0,0c0.005,0.182-0.139,0.332-0.318,0.335l-22.682,0.539C60.909,597.189,60.758,597.047,60.753,596.864L60.753,596.864z"/>
		</g>
		<g>
			<path fill="#8C8C98" d="M60.433,547.165c0-0.18,0.151-0.326,0.338-0.326l23.443-0.02c0.189,0,0.34,0.145,0.34,0.327l0,0
				c0,0.181-0.15,0.327-0.34,0.327l-23.443,0.021C60.584,547.495,60.433,547.348,60.433,547.165L60.433,547.165z"/>
		</g>
		<g>
			<path fill="#A3A3AF" d="M60.433,547.3c0-0.182,0.151-0.327,0.338-0.327l23.443-0.019c0.189-0.002,0.34,0.145,0.34,0.326l0,0
				c0,0.181-0.15,0.327-0.34,0.327l-23.443,0.019C60.584,547.629,60.433,547.481,60.433,547.3L60.433,547.3z"/>
		</g>
		<g>
			<path fill="#8C8C98" d="M60.433,592.231c0-0.182,0.151-0.328,0.338-0.328l23.443-0.021c0.189,0,0.34,0.147,0.34,0.327l0,0
				c0,0.182-0.15,0.329-0.34,0.329l-23.443,0.019C60.584,592.56,60.433,592.413,60.433,592.231L60.433,592.231z"/>
		</g>
		<g>
			<path fill="#A3A3AF" d="M60.433,592.425c0-0.182,0.151-0.327,0.338-0.328l23.443-0.02c0.189,0,0.34,0.146,0.34,0.328l0,0
				c0,0.18-0.15,0.326-0.34,0.326l-23.443,0.021C60.584,592.753,60.433,592.606,60.433,592.425L60.433,592.425z"/>
		</g>
		<g>
			<g>
				<path fill="#3D3D3D" d="M82.119,605.488c0-0.321,0.261-0.583,0.582-0.583l0,0c0.323,0,0.583,0.262,0.583,0.583v3.621
					c0,0.321-0.26,0.583-0.583,0.583l0,0c-0.321,0-0.582-0.262-0.582-0.583V605.488z"/>
			</g>
			<g>
				<path fill="#3D3D3D" d="M80.08,605.488c0-0.321,0.26-0.583,0.581-0.583l0,0c0.322,0,0.582,0.262,0.582,0.583v3.621
					c0,0.321-0.26,0.583-0.582,0.583l0,0c-0.321,0-0.581-0.262-0.581-0.583V605.488z"/>
			</g>
			<g>
				<path fill="#3D3D3D" d="M78.042,605.488c0-0.321,0.26-0.583,0.581-0.583l0,0c0.322,0,0.582,0.262,0.582,0.583v3.621
					c0,0.321-0.26,0.583-0.582,0.583l0,0c-0.321,0-0.581-0.262-0.581-0.583V605.488z"/>
			</g>
			<g>
				<path fill="#3D3D3D" d="M76.001,605.488c0-0.321,0.261-0.583,0.583-0.583l0,0c0.32,0,0.583,0.262,0.583,0.583v3.621
					c0,0.321-0.263,0.583-0.583,0.583l0,0c-0.322,0-0.583-0.262-0.583-0.583V605.488z"/>
			</g>
			<g>
				<path fill="#3D3D3D" d="M73.961,605.488c0-0.321,0.262-0.583,0.583-0.583l0,0c0.322,0,0.582,0.262,0.582,0.583v3.621
					c0,0.321-0.26,0.583-0.582,0.583l0,0c-0.321,0-0.583-0.262-0.583-0.583V605.488z"/>
			</g>
			<g>
				<path fill="#3D3D3D" d="M71.922,605.488c0-0.321,0.261-0.583,0.584-0.583l0,0c0.322,0,0.583,0.262,0.583,0.583v3.621
					c0,0.321-0.261,0.583-0.583,0.583l0,0c-0.323,0-0.584-0.262-0.584-0.583V605.488z"/>
			</g>
			<g>
				<path fill="#3D3D3D" d="M69.885,605.488c0-0.321,0.261-0.583,0.583-0.583l0,0c0.32,0,0.581,0.262,0.581,0.583v3.621
					c0,0.321-0.261,0.583-0.581,0.583l0,0c-0.322,0-0.583-0.262-0.583-0.583V605.488z"/>
			</g>
			<g>
				<path fill="#3D3D3D" d="M67.847,605.488c0-0.321,0.26-0.583,0.581-0.583l0,0c0.322,0,0.582,0.262,0.582,0.583v3.621
					c0,0.321-0.26,0.583-0.582,0.583l0,0c-0.321,0-0.581-0.262-0.581-0.583V605.488z"/>
			</g>
			<g>
				<path fill="#3D3D3D" d="M65.806,605.488c0-0.321,0.263-0.583,0.584-0.583l0,0c0.321,0,0.583,0.262,0.583,0.583v3.621
					c0,0.321-0.262,0.583-0.583,0.583l0,0c-0.321,0-0.584-0.262-0.584-0.583V605.488z"/>
			</g>
			<g>
				<path fill="#3D3D3D" d="M63.769,605.488c0-0.321,0.26-0.583,0.582-0.583l0,0c0.321,0,0.581,0.262,0.581,0.583v3.621
					c0,0.321-0.26,0.583-0.581,0.583l0,0c-0.322,0-0.582-0.262-0.582-0.583V605.488z"/>
			</g>
			<g>
				<path fill="#3D3D3D" d="M61.729,605.488c0-0.321,0.262-0.583,0.583-0.583l0,0c0.322,0,0.582,0.262,0.582,0.583v3.621
					c0,0.321-0.26,0.583-0.582,0.583l0,0c-0.321,0-0.583-0.262-0.583-0.583V605.488z"/>
			</g>
		</g>
		<g>
			<path fill="#931D1D" d="M60.091,590.907c0-0.553,0.449-1.003,1.002-1.003h22.662c0.553,0,1.005,0.45,1.005,1.003l0,0
				c0,0.555-0.452,1.005-1.005,1.005H61.093C60.541,591.912,60.091,591.462,60.091,590.907L60.091,590.907z"/>
		</g>
		<g>
			<path fill="#7D1010" d="M60.091,590.607c0-0.554,0.449-1.004,1.002-1.004h22.662c0.553,0,1.005,0.45,1.005,1.004l0,0
				c0,0.554-0.452,1.003-1.005,1.003H61.093C60.541,591.61,60.091,591.161,60.091,590.607L60.091,590.607z"/>
		</g>
		<g opacity="0.1">
			<polygon fill="#FFFFFF" points="74.928,603.161 80.17,603.161 82.209,593.634 81.626,536.96 74.928,536.96 			"/>
		</g>
	</g>
	<g>
		<path fill="#333333" d="M23.497,520.131c0-1.394,1.142-2.532,2.533-2.532h600.011c1.393,0,2.532,1.139,2.532,2.532v12.026
			c0,1.392-1.14,2.531-2.532,2.531H320.49c-1.393,0-3.671,0-5.063,0H26.03c-1.392,0-2.533-1.14-2.533-2.531V520.131z"/>
	</g>
	<path fill="#E9BE4D" d="M574.922,657.944c6.229,0,11.275-5.048,11.275-11.277c0-6.229-5.046-11.275-11.275-11.275
		c-6.228,0-11.277,5.047-11.277,11.275C563.645,652.896,568.694,657.944,574.922,657.944z M574.922,642.106
		c2.521,0,4.561,2.042,4.561,4.561c0,2.52-2.04,4.562-4.561,4.562c-2.519,0-4.561-2.043-4.561-4.562
		C570.361,644.148,572.403,642.106,574.922,642.106z"/>
</g>
</svg>
