<?xml version="1.0" encoding="utf-8"?>
<!-- Generator: Adobe Illustrator 17.0.0, SVG Export Plug-In . SVG Version: 6.00 Build 0)  -->
<!DOCTYPE svg PUBLIC "-//W3C//DTD SVG 1.1//EN" "http://www.w3.org/Graphics/SVG/1.1/DTD/svg11.dtd">
<svg version="1.1" id="Layer_1" xmlns="http://www.w3.org/2000/svg" xmlns:xlink="http://www.w3.org/1999/xlink" x="0px" y="0px"
	 width="174px" height="104.5px" viewBox="0 0 174 104.5" enable-background="new 0 0 174 104.5" xml:space="preserve">
<path fill="none" stroke="#000000" stroke-miterlimit="10" d="M2,101.944c0,0,31.333-16,32-55.667s0-13,0-13s-3,34-2,66.333
	c0,0-13.904-59.727-3.333-78.667c15.239-27.302,33.803,8.589,13.362,36.4c-1.021,1.39-5.235,5.185-7.922,6.215
	c-1.947,0.746-9.036,2.394-6.719,1.718c7.954-2.32,21.28-11.45,29.613-32.45s4-30.045,2.667-22.689
	c-1.333,7.356-3.333,35.59-0.667,47.531s0.667-5.842,0.667-13.842c0-8.307,0.637-18.651,1.667-7.667c1,10.667,1.667,15,1.667,1.333
	s0.333-12.216,0.5-5.883c0.123,4.677,4,12.667,4.667,7.667c0.667-5,3.056,1.773,3.167-5.117c0.167-10.383,3,8.333,2.333-1
	C73,23.827,74.167,14.444,75,4.827c0.738-8.512-5.977,26.481,1,31.333c4.481,3.117,6.001-2.076,6.001-12.41S77.436,24.191,80,28.16
	s12.667-2.667,47.333-10.333S158,14.493,158,14.493"/>
<path fill="none" stroke="#000000" stroke-miterlimit="10" d="M48.979,76.957c0,0,63.333-44.784,123-53.117"/>
</svg>
