<?xml version="1.0" standalone="no"?>
<!DOCTYPE svg PUBLIC "-//W3C//DTD SVG 1.1//EN" "http://www.w3.org/Graphics/SVG/1.1/DTD/svg11.dtd" >
<svg xmlns="http://www.w3.org/2000/svg" xmlns:xlink="http://www.w3.org/1999/xlink" version="1.1">
<metadata>
Created by FontForge 20201107 at Wed Dec 18 11:51:26 2019
 By Jimmy Wärting
2019 Iconian Fonts - www.iconian.com
</metadata>
<defs>
<font id="Mandalore3D" horiz-adv-x="439" >
  <font-face 
    font-family="Mandalore 3D"
    font-weight="400"
    font-stretch="normal"
    units-per-em="1000"
    panose-1="0 0 0 0 0 0 0 0 0 0"
    ascent="800"
    descent="-200"
    x-height="716"
    cap-height="716"
    bbox="-73 -160 1804 882"
    underline-thickness="50"
    underline-position="-125"
    unicode-range="U+0020-2122"
  />
<missing-glyph horiz-adv-x="500" 
 />
    <glyph glyph-name=".notdef" horiz-adv-x="500" 
 />
    <glyph glyph-name=".null" horiz-adv-x="0" 
 />
    <glyph glyph-name="nonmarkingreturn" horiz-adv-x="500" 
 />
    <glyph glyph-name="space" unicode=" " horiz-adv-x="204" 
 />
    <glyph glyph-name="space" unicode="&#xa0;" horiz-adv-x="204" 
 />
    <glyph glyph-name="FL0021h" unicode="!" horiz-adv-x="208" 
d="M166 716v-6l21 -21v-530h-146l-21 21h-6v536h152zM30 700v-506h120v506h-120zM14 146h152v-6l21 -21v-152h-146l-21 21h-6v158zM30 130v-126h120v126h-120z" />
    <glyph glyph-name="FL0022h" unicode="&#x22;" horiz-adv-x="365" 
d="M41 447l-21 19h-6v244h154v-6l1 -1v7h154v-6l21 -21v-137q0 -52 -25.5 -75.5t-76.5 -23.5h-46l-21 19h-6v9q-25 -28 -84 -28h-44zM63 482q43 0 66 21.5t23 66.5v124h-122v-212h33zM218 482q43 0 66 21.5t23 66.5v124h-122v-212h33z" />
    <glyph glyph-name="FL0023h" unicode="#" horiz-adv-x="499" 
d="M211 328h49v58h-49v-58zM211 512h49v188h122v-188h59v-126h-59v-58h59v-126h-59v-198h-122v198h-49v-198h-122v198h-59v126h59v58h-59v126h59v188h122v-188zM14 528v-158h6l21 -21h32v-5h-59v-157h6l21 -20h32v-179h6l21 -21h148v21h2l21 -21h148v200h59v150l-21 21v6
h-38v5h59v152l-21 21v6h-38v161l-21 21v6h-154v-23l-17 17v6h-154v-188h-59z" />
    <glyph glyph-name="FL0024h" unicode="$" horiz-adv-x="387" 
d="M158 576l163 -400v-2q0 -2 1 -3v1q0 -1 0.5 -1.5t0.5 -1.5q2 -8 4 -16.5t2 -19.5v-41q0 -87 -88 -88v-70h-124v70h-87v126h171l-163 401q-3 8 -5.5 20.5t-2.5 21.5v47q0 43 22.5 61t64.5 19v70h124v-70h88v-124h-171zM276 759l-19 21v6h-156v-71q-43 -5 -65 -27.5
t-22 -67.5v-47q0 -10 2.5 -23.5t6.5 -22.5l154 -381h-163v-158h6l21 -21h60v-49h6l21 -21h148v71q90 9 90 100v41q0 11 -2.5 21.5t-4.5 18.5v3l-1 1v-1l-1 3l-158 384h167v150l-21 21v6h-69v43z" />
    <glyph glyph-name="FL05C7h" unicode="%" horiz-adv-x="667" 
d="M529 90v209h-32v-209h32zM143 405v209h-32v-209h32zM167 319h-82q-55 0 -55 56v270q0 55 55 55h82q54 0 54 -55v-270q0 -56 -54 -56zM555 4h-82q-55 0 -55 56v270q0 55 55 55h82q54 0 54 -55v-270q0 -56 -54 -56zM311 4h-131l150 696h131zM478 716h-163l-57 -270v175
q0 35 -17 52l-13 13q-18 30 -61 30h-82q-71 0 -71 -71v-270q0 -49 30 -64l14 -13q16 -16 51 -16h82q15 0 32 5l-62 -299h7l21 -21h158l55 258v-165q0 -23 7.5 -39.5t22.5 -23.5l14 -14q16 -16 49 -16h84q67 0 67 69v270q0 35 -17 52l-13 13q-18 30 -61 30h-82q-22 0 -36 -7
l61 295l-21 21z" />
    <glyph glyph-name="FL0026h" unicode="&#x26;" horiz-adv-x="469" 
d="M54 3h1q-41 26 -41 89v183q0 55 33 81q-33 24 -33 77v179q0 54 27 79t78 25h267v-6l21 -21v-150h-218v-103h238v-6l21 -21v-152h-41v-290h-264q-51 0 -77 26l-5 5zM370 294h41v126h-226v-127h63v-163h-96v444h218v126h-251q-43 0 -66 -21.5t-23 -66.5v-179
q0 -29 14.5 -48t39.5 -28q-54 -20 -54 -82v-183q0 -45 23 -66.5t66 -21.5h251v290zM196 256l-7 7v-117h43v110h-36z" />
    <glyph glyph-name="FL0027h" unicode="'" horiz-adv-x="208" 
d="M41 447l-21 19h-6v244h152v-6l21 -21v-137q0 -52 -25.5 -75.5t-76.5 -23.5h-44zM61 482q89 0 89 88v124h-120v-212h31z" />
    <glyph glyph-name="FL0028h" unicode="(" horiz-adv-x="282" 
d="M30 92v526q0 45 23.5 63.5t65.5 18.5h105v-126h-72v-444h72v-126h-105q-43 0 -66 21.5t-23 66.5zM187 539h74v150l-21 21v6h-121q-49 0 -77 -22t-28 -76v-526q0 -63 41 -89h-1l7 -5l3 -5q26 -26 79 -26h118v152l-21 21v6h-53v393z" />
    <glyph glyph-name="FL0029h" unicode=")" horiz-adv-x="282" 
d="M14 146h72v393h-45l-21 21h-6v156h121q67 0 92 -43v1l11 -11q23 -23 23 -69v-526q0 -101 -102 -101h-118l-21 21h-6v158zM102 130h-72v-126h105q43 0 66 21.5t23 66.5v526q0 45 -23.5 63.5t-65.5 18.5h-105v-126h72v-444z" />
    <glyph glyph-name="asterisk" unicode="*" horiz-adv-x="256" 
d="M157 750l-1 -6l19 -20l-1 -8l16 7l1 -9l20 -18l25 -83l-36 -14l27 -35l-63 -53l-22 20l-2 -2l-9 9l-21 -27l-24 20l-64 56l16 27l-2 1l-18 17l-7 4l26 86l34 -15l-1 43h87zM139 685l2 49h-55l2 -49l-41 16l-17 -58l39 -15l-23 -39l40 -36l28 41l28 -41l42 36l-27 39
l41 15l-20 59z" />
    <glyph glyph-name="FL002Bh" unicode="+" horiz-adv-x="340" 
d="M14 432h63v65h156v-6l21 -21v-38h44v-6l21 -21v-150h-65v-63h-150l-21 21h-6v42h-36l-21 21h-6v156zM93 416h-63v-124h63v-63h126v63h63v124h-63v65h-126v-65z" />
    <glyph glyph-name="FL002Ch" unicode="," horiz-adv-x="208" 
d="M41 -119l-21 21h-6v242h152v-6l21 -21v-137q0 -99 -102 -99h-44zM61 -82q89 0 89 86v124h-120v-210h31z" />
    <glyph glyph-name="FL002Dh" unicode="-" horiz-adv-x="263" 
d="M30 290v122h175v-122h-175zM14 428v-154h6l21 -21h201v148l-21 21v6h-207z" />
    <glyph glyph-name="FL002Eh" unicode="." horiz-adv-x="208" 
d="M14 142h152v-6l21 -19v-150h-146l-21 21h-6v154zM30 128v-124h120v124h-120z" />
    <glyph glyph-name="FL002Fh" unicode="/" horiz-adv-x="345" 
d="M149 4h-129l148 696h129zM316 716h-163l-152 -728h7l21 -21h156l151 722l-21 21z" />
    <glyph glyph-name="FL00F8h" unicode="0" horiz-adv-x="437" 
d="M189 539h8l-8 -32v32zM241 146h-10l10 32v-32zM152 326h4l69 248h-73v-248zM257 378h-4l-69 -248h73v248zM119 700h171q43 0 66 -21.5t23 -66.5v-520q0 -45 -23 -66.5t-66 -21.5h-171q-43 0 -66 21.5t-23 66.5v520q0 45 23 66.5t66 21.5zM290 716h-171q-51 0 -78 -25
t-27 -79v-520q0 -63 41 -89h-1l7 -5l5 -5q26 -26 77 -26h169q104 0 104 101v520q0 51 -25 75l-11 11v-1q-27 43 -90 43z" />
    <glyph glyph-name="FL0031h" unicode="1" horiz-adv-x="286" 
d="M108 4v570h-78v126h198v-696h-120zM14 716v-156h6l21 -21h51v-551h6l21 -21h146v722l-21 21v6h-230z" />
    <glyph glyph-name="FL0032h" unicode="2" horiz-adv-x="387" 
d="M30 700h210q42 0 65.5 -18.5t23.5 -63.5v-47q0 -8 -2.5 -20t-5.5 -20l-162 -401h170v-126h-299v128q0 11 3 23.5t5 20.5l162 398h-170v126zM167 539l-146 -364q-2 -8 -4.5 -19t-2.5 -24v-144h6l21 -21h325v152l-21 21v6h-134l146 358q3 9 6 22.5t3 22.5v45q0 46 -23 69
l-11 11v-1q-14 23 -37.5 33t-54.5 10h-226v-156h6l21 -21h126z" />
    <glyph glyph-name="FL0033h" unicode="3" horiz-adv-x="387" 
d="M207 420v154h-177v126h210q43 0 66 -21.5t23 -66.5v-179q0 -29 -14.5 -48t-39.5 -28q54 -20 54 -82v-183q0 -45 -23 -66.5t-66 -21.5h-210v126h177v164h-147v126h147zM44 436v-158h6l21 -21h120v-111h-177v-158h6l21 -21h223q102 0 102 101v183q0 48 -24 72l-11 11
q17 11 26 29t9 46v179q0 51 -25 75l-11 11v-1q-27 43 -90 43h-226v-156h6l21 -21h150v-103h-147z" />
    <glyph glyph-name="FL0034h" unicode="4" horiz-adv-x="437" 
d="M152 421h105v279h122v-696h-122v289h-227v407h122v-279zM168 716h-154v-439h6l21 -21h200v-268h6l21 -21h148v722l-21 21v6h-154v-279h-52v252l-21 21v6z" />
    <glyph glyph-name="FL0035h" unicode="5" horiz-adv-x="387" 
d="M207 130v164h-177v406h299v-126h-177v-154h88q43 0 66 -21.5t23 -66.5v-240q0 -45 -23 -66.5t-66 -21.5h-210v126h177zM14 146v-158h6l21 -21h223q102 0 102 101v240q0 51 -25 75l-11 11v-1q-27 43 -90 43h-51v103h177v150l-21 21v6h-331v-438h6l21 -21h150v-111h-177z
" />
    <glyph glyph-name="FL0036h" unicode="6" horiz-adv-x="435" 
d="M188 146v111h52v-111h-52zM151 294v-164h105v164h-105zM288 4h-169q-43 0 -66 21.5t-23 66.5v526q0 45 23.5 63.5t65.5 18.5h258v-126h-226v-154h137q43 0 66 -21t23 -66v-241q0 -45 -23 -66.5t-66 -21.5zM61 -2l5 -5q26 -26 77 -26h167q104 0 104 101v241q0 49 -25 74
l-10 9v-1q-27 45 -91 45h-100v103h226v150l-21 21v6h-274q-49 0 -77 -22t-28 -76v-526q0 -63 41 -89h-1z" />
    <glyph glyph-name="FL0037h" unicode="7" horiz-adv-x="387" 
d="M321 531l-128 -527h-127l136 570h-172v126h299v-129q0 -8 -2.5 -20t-5.5 -20zM53 -12l21 -21h154l130 540h-1q3 9 6 21t3 21v140l-21 21v6h-331v-156h6l21 -21h136l-131 -551h7z" />
    <glyph glyph-name="FL0039h" unicode="8" horiz-adv-x="440" 
d="M189 436v103h55v-103h-55zM189 263l7 -7h48v-110h-55v117zM260 130v163h-75v127h75v154h-108v-444h108zM30 433v179q0 45 23 66.5t66 21.5h174q43 0 66 -21.5t23 -66.5v-179q0 -29 -14.5 -48t-39.5 -28q54 -20 54 -82v-183q0 -45 -23 -66.5t-66 -21.5h-174
q-43 0 -66 21.5t-23 66.5v183q0 62 54 82q-25 9 -39.5 28t-14.5 48zM14 612v-179q0 -53 33 -77q-33 -26 -33 -81v-183q0 -63 41 -89h-1l7 -5l5 -5q26 -26 77 -26h172q104 0 104 101v183q0 48 -25 73l-10 10q17 11 26 29t9 46v179q0 51 -25 75l-11 11v-1q-27 43 -90 43h-174
q-51 0 -78 -25t-27 -79z" />
    <glyph glyph-name="FL0038h" unicode="9" horiz-adv-x="435" 
d="M189 427v112h50v-112h-50zM255 411v163h-103v-163h103zM119 700h169q43 0 66 -21.5t23 -66.5v-526q0 -45 -23.5 -63.5t-65.5 -18.5h-258v126h225v155h-136q-43 0 -66 21.5t-23 66.5v239q0 45 23 66.5t66 21.5zM288 716h-169q-51 0 -78 -25t-27 -79v-239q0 -63 41 -89h-1
l9 -7l1 -1q28 -28 79 -28h96v-102h-225v-158h6l21 -21h269q49 0 76.5 21.5t27.5 73.5v526q0 51 -25 75l-11 11v-1q-27 43 -90 43z" />
    <glyph glyph-name="FL003Ah" unicode=":" horiz-adv-x="208" 
d="M14 144h152v-6l21 -20v-151h-146l-21 21h-6v156zM14 434h152v-6l21 -21v-150h-146l-21 21h-6v156zM30 128v-124h120v124h-120zM30 418v-124h120v124h-120z" />
    <glyph glyph-name="FL003Bh" unicode=";" horiz-adv-x="208" 
d="M41 -120l-21 21h-6v243h152v-5l21 -20v-138q0 -101 -102 -101h-44zM14 434h152v-6l21 -19v-152h-146l-21 21h-6v156zM61 -83q89 0 89 88v125h-120v-213h31zM30 418v-124h120v124h-120z" />
    <glyph glyph-name="FL003Ch" unicode="&#x3c;" horiz-adv-x="322" 
d="M146 4l-126 348l126 348h126l-120 -348l120 -348h-126zM4 352l132 -364h5l21 -21h152l-125 361l125 361l-22 21l2 6h-158z" />
    <glyph glyph-name="FL0FA0h" unicode="=" horiz-adv-x="290" 
d="M14 514h234v-6l21 -21v-150h-12l12 -12v-150h-228l-21 21h-6v156h12l-6 6h-6v156zM30 336v-124h202v124h-202zM30 498v-124h202v124h-202z" />
    <glyph glyph-name="FL003Eh" unicode="&#x3e;" horiz-adv-x="322" 
d="M0 716h158l2 -7l18 -18l133 -363l-131 -361h-152l-21 21h-7l125 364zM274 352l-128 348h-126l122 -348l-122 -348h126z" />
    <glyph glyph-name="FL003Fh" unicode="?" horiz-adv-x="387" 
d="M240 716q63 0 90 -43v1l11 -11q25 -24 25 -75v-230q0 -101 -102 -101h-39v-98h-148l-21 21h-6v152q0 54 27 79t78 25h36v103h-150l-21 21h-6v156h226zM240 700h-210v-126h177v-154h-52q-89 0 -89 -88v-138h122v100h52q43 0 66 21.5t23 66.5v230q0 45 -23 66.5t-66 21.5z
M50 146h154v-6l21 -21v-152h-148l-21 21h-6v158zM66 130v-126h122v126h-122z" />
    <glyph glyph-name="FL00A9h" unicode="@" horiz-adv-x="688" 
d="M189 554v27h26q-16 -10 -26 -27zM215 125l11 -10q1 -4 13 -11h-50v46q11 -17 26 -25zM443 581h47v-52q-2 6 -5 9l-1 1q0 1 -1 2h-1v2l-10 10q-11 17 -29 28zM312 248h36v208h-36v-208zM539 126h-258q-91 0 -91 86v280q0 88 91 88h98q91 0 91 -88v-244h36v370h-352v-530
h455v-126h-488q-91 0 -91 88v610q0 45 24.5 63.5t66.5 18.5h418q42 0 66.5 -18.5t24.5 -63.5v-448q0 -86 -91 -86zM55 -38l11 -11q26 -26 79 -26h501v152l-21 21v5q42 24 42 87v446q0 46 -23 69l-11 11v-1q-14 23 -38 33t-56 10h-418q-51 0 -79 -22t-28 -76v-610
q0 -61 41 -88z" />
    <glyph glyph-name="FL0041h" unicode="A" horiz-adv-x="489" 
d="M292 200v2l1 1zM237 44l1 -3q0 -1 -0.5 -1.5t-0.5 -1.5v6zM183 77l4 8q0 -7 -4 -8zM180 196l5 9q0 -6 -5 -9zM221 49v-24l-3 18zM186 127v-1v-13q1 -1 1 -2l-7 -7q2 7 3.5 13zM291 231v12l1 1q2 -6 2 -11v-11q-3 1 -3 9zM238 93v-31q0 -2 -1 -2v-1v-2q0 1 -0.5 1.5
t-0.5 1.5l1 7q0 9 -1 11q0 2 -1 2v1l2 8q0 3 1 4zM275 251v-20q0 -14 4 -18l-6 -6l4 -13v-2q0 -2 0.5 -4t0.5 -6h6l12 -14h-4l-4 -4l-12 -1q0 -2 -1 -7.5t-1.5 -12t-1.5 -12t-1 -8.5v-14l-4 -19l-1 -2l-11 19l-15 15l-16 24q0 -13 -0.5 -24.5t-0.5 -18.5q0 7 -1.5 12
t-9.5 14v22l2 12q8 5 8 20v5l-8 26l-9 7v7l-2 1l2 2v10l10 31l-9 7q4 13 17 19h2l1.5 2.5t3.5 7.5h1q17 0 17 15l-7 31q0 12 9 18l3 -15l-1 -2v-4q0 -11 14 -19l17 -16q4 -4 11 -6.5t11 -2.5h1q0 -2 1 -3l-1 -10h-4v-20q0 -5 1 -6v-2l3 -4v1l2 -10l-7 8l-2 4q-1 0 -1 2
q-1 1 -1 6zM171 71l1 -3q5 0 8 3l1 2l5 -34q2 -7 4 -8.5t4 -2.5l1 -1q1 0 1 -1l6 -22h-182l146 696h129l146 -696h-172q0 12 10 28l4 53l4 20v18q0 2 1 10.5t2 14.5l7 1l3 3h5q5 5 7 13q0 2 4 6v13q4 3 4 4q0 2 3 4l5 26q2 2 2 6v3q0 5 -0.5 6.5t-3.5 4.5v9l-2 10q-1 1 -1 2
q0 5 -1 7q0 2 -3 7v1q0 3 -1 4h5q0 5 -1 6l1 27q-2 9 -5 12.5t-7 6.5q-1 0 -2 1q-2 2 -4 3.5t-3 2.5l4 12q4 4 4 11q0 3 1 3q0 2 7 9q2 2 3.5 3t3.5 3l1 1q1 0 2 1q5 5 9 9.5t4 10.5q-2 0 -5.5 -1t-6.5 -2h-4q-5 0 -6.5 4.5t-3.5 9.5q-1 1 -1 3t-1 3q-2 11 -6 11h-3
q0 -13 -1 -23t-4 -21q-4 -4 -3.5 -6.5t-0.5 -4.5l-3 -9q-1 -2 -1.5 -5t-1.5 -5q-7 -10 -8 -10q-4 0 -8.5 2t-4.5 5q2 6 2 5l-5 31q-2 10 -8 18t-19 8q-17 0 -25.5 -10.5t-8.5 -26.5l7 -31h-4q-7 0 -10 -3q-2 -5 -4 -7q-11 -7 -18.5 -18t-7.5 -27v-2q0 -4 3 -4q1 -1 3 -1
l-5 -18v-3q-5 -5 -8 -9q-1 -1 -1 -2l-1 -1l-2 -2l-6 -8l-28 -28q7 0 9 1q-4 -2 -7.5 -4t-5.5 -2l-7 1q-4 0 -7 -5q-1 -1 -1 -2t-1 -2q-3 -5 -6.5 -8.5t-11.5 -3.5h-11l9 -6l-4 -2t-7 -3v-2h15l-2 -25h5l4 24q1 9 7 9l2 -2q2 -2 7 -2h5l26 19q1 4 3 4q1 1 2 1t2 0.5t2 0.5
t1.5 0.5l0.5 0.5q0 -5 -3 -9l-2 -6q-1 -1 -1 -5l4 -6q0 -5 -1 -6q0 -2 -0.5 -3t-0.5 -2v-1q0 -5 6 -16t9 -11h1q5 0 5 7l-3 7h1q5 0 5 9l-2 15l9 16l-3 -16v-47h1q0 -1 -0.5 -4.5t-1.5 -4.5l-2 -32q2 0 7 12l1 -15l-1 -2q-1 -2 -3 -5t-5 -8zM29 -33h216l-5 15l15 -15h225
l-149 722l-20 19l-1 8h-159l-150 -728h7z" />
    <glyph glyph-name="FL0042h" unicode="B" 
d="M189 436v103h54v-103h-54zM189 264l7 -7h47v-111h-54v118zM259 420v154h-107v-444h107v164h-74v126h74zM30 700h262q43 0 66 -21.5t23 -66.5v-179q0 -29 -14.5 -48t-39.5 -28q54 -20 54 -82v-183q0 -45 -23 -66.5t-66 -21.5h-262v696zM41 -33h273q104 0 104 101v183
q0 48 -25 73l-10 10q17 11 26 29t9 46v179q0 51 -25 75l-11 11v-1q-27 43 -90 43h-278v-728h6z" />
    <glyph glyph-name="FL007Bh" unicode="C" 
d="M61 -2l-7 5h1q-41 26 -41 89v520q0 54 27 79t78 25h173q63 0 90 -43v1l11 -11q25 -24 25 -75v-174h-148l-21 21h-6v104h-54v-393h54v123h154v-6l21 -21v-174q0 -101 -104 -101h-171q-51 0 -77 26zM259 574v-123h122v161q0 45 -23 66.5t-66 21.5h-173q-43 0 -66 -21.5
t-23 -66.5v-520q0 -45 23 -66.5t66 -21.5h173q43 0 66 21.5t23 66.5v161h-122v-123h-107v444h107z" />
    <glyph glyph-name="FL0044h" unicode="D" 
d="M189 146v393h54v-393h-54zM152 130h107v444h-107v-444zM30 700h262q43 0 66 -21.5t23 -66.5v-520q0 -45 -23 -66.5t-66 -21.5h-262v696zM41 -33h273q104 0 104 101v520q0 51 -25 75l-11 11v-1q-27 43 -90 43h-278v-728h6z" />
    <glyph glyph-name="FL0045h" unicode="E" horiz-adv-x="385" 
d="M152 294v-164h175v-126h-297v696h297v-126h-175v-154h145v-126h-145zM14 716v-728h6l21 -21h323v152l-21 21v6h-154v111h145v152l-21 21v6h-124v103h175v150l-21 21v6h-329z" />
    <glyph glyph-name="FL0046h" unicode="F" horiz-adv-x="385" 
d="M152 294v-290h-122v696h297v-126h-175v-154h145v-126h-145zM14 716v-728h6l21 -21h148v290h145v152l-21 21v6h-124v103h175v150l-21 21v6h-329z" />
    <glyph glyph-name="FL0047h" unicode="G" horiz-adv-x="435" 
d="M189 273l17 -17h35v-110h-52v127zM377 4h-258q-43 0 -66 21.5t-23 66.5v526q0 45 23.5 63.5t65.5 18.5h258v-126h-225v-444h105v163h-62v127h182v-416zM61 -2l5 -5q26 -26 77 -26h271v442l-21 21v6h-204v103h225v150l-21 21v6h-274q-49 0 -77 -22t-28 -76v-526
q0 -63 41 -89h-1z" />
    <glyph glyph-name="FL0048h" unicode="H" horiz-adv-x="437" 
d="M152 421h105v279h122v-696h-122v289h-105v-289h-122v696h122v-279zM168 716h-154v-728h6l21 -21h148v289h52v-268h6l21 -21h148v722l-21 21v6h-154v-279h-52v252l-21 21v6z" />
    <glyph glyph-name="FL0049h" unicode="I" horiz-adv-x="209" 
d="M14 716h153v-6l21 -21v-722h-147l-21 21h-6v728zM30 700v-696h121v696h-121z" />
    <glyph glyph-name="FL004Ah" unicode="J" horiz-adv-x="375" 
d="M333 710l21 -21v-621q0 -101 -102 -101h-211l-21 21h-6v158h165v570h154v-6zM228 4q43 0 66 21.5t23 66.5v608h-122v-570h-165v-126h198z" />
    <glyph glyph-name="FL004Bh" unicode="K" horiz-adv-x="446" 
d="M168 710l21 -21v-144l67 171h164l-3 -8l22 -19l-148 -361l148 -361h-157l-21 21h-5l-67 176v-197h-148l-21 21h-6v728h154v-6zM30 700v-696h122v696h-122zM184 491v-271l82 -216h130l-142 348l142 348h-130z" />
    <glyph glyph-name="FL004Ch" unicode="L" horiz-adv-x="375" 
d="M14 716h154v-6l21 -21v-543h144v-6l21 -21v-152h-313l-21 21h-6v728zM30 700v-696h287v126h-165v570h-122z" />
    <glyph glyph-name="FL004Dh" unicode="M" horiz-adv-x="513" 
d="M14 716h140l2 -7l18 -18l74 -194l87 219h136v-6l21 -21v-722h-148l-21 21h-6v231l-51 -121l-22 21l-2 -5l-54 129v-276h-147l-21 21h-6v728zM242 439l-100 261h-112v-696h121v362h4l87 -213l87 213h4v-362h122v696h-110z" />
    <glyph glyph-name="FL004Eh" unicode="N" horiz-adv-x="436" 
d="M155 308h-4v-304h-121v696h98l125 -337h4v337h121v-696h-100zM273 -12l21 -21h121v722l-21 21v6h-153v-244l-81 219l-18 18l-2 7h-126v-728h6l21 -21h147v219l80 -198h5z" />
    <glyph glyph-name="FL004Fh" unicode="O" 
d="M61 -2l-7 5h1q-41 26 -41 89v520q0 54 27 79t78 25h173q63 0 90 -43v1l11 -11q25 -24 25 -75v-520q0 -101 -104 -101h-171q-51 0 -77 26zM292 4q43 0 66 21.5t23 66.5v520q0 45 -23 66.5t-66 21.5h-173q-43 0 -66 -21.5t-23 -66.5v-520q0 -45 23 -66.5t66 -21.5h173z
M162 166l-2 -1q-2 2 -5 2l-3 2l-2 3q-3 3 -3 11l-1 3l-1 1v2l-2 3q-1 1 -1 6v21l12 8l-2 8q-9 12 -10 22v2q-1 -1 -1 -3l-3 -1l-1 -9v-17q0 -8 -3 -11l-22 -49v-1q0 -3 -5 -3l-1 4l9 25q0 3 3 8l0.5 0.5t0.5 1.5v1q0 4 1 5v-1q1 3 3 7q1 9 4 12q-1 0 -1.5 0.5t-1.5 0.5
t-1 -2l-21 -58q-5 0 -5 4v2q0 3 1 4l3 8v3v1v-1l12 38q0 1 2 5q2 6 6 10l1 1q0 1 1 2v-1q0 2 3 5q1 3 2.5 8t3.5 7l1 4v17l-2 23q0 5 -8 11h-2q-5 0 -9 4l-2 2q-1 1 -1 5h-1l-2 -2v11q-1 1 -1 4v1q0 1 -1 1v2l-1 1q0 1 -2 3l-1 5l-3 18l-1 1q-2 0 -2 4v9v7q0 1 1 2q6 2 7 7
q0 14 4 15v1q0 12 1 15q0 1 0.5 2t0.5 2v5q0 4 -1 5q0 1 -0.5 1.5t-0.5 1.5v17q0 11 1 13q0 8 5 11l1 1q1 0 2 1l11 12q4 0 9 5l6 4v1h6l2 3q0 1 1 1q2 2 5 2l1 1q-1 2 -1 14v23l5 5v1l1 1q0 4 2 6q2 8 4.5 9.5t8.5 3.5h-2l6 4l7 1q4 0 6 -2h3q17 -8 21 -25q1 -1 1.5 -2
t1.5 -2l1 -10q0 -4 -1 -5v-25l3 -1q3 0 4 -1q2 -2 2 -6q8 14 12 28.5t6 26.5q0 2 1 9t2 9l1 1v5q0 8 0.5 9.5t3.5 1.5h1q5 0 5 -8v-15q1 -13 13 -13h8h1q0 1 2 1q5 0 5 -3q0 -4 -4 -8q-1 0 -2 -1q-4 -4 -8 -5h1q-5 -4 -7.5 -5.5t-4.5 -2.5q-10 -6 -13.5 -15.5t-5.5 -19.5
l2 -2h-1q13 -8 17 -23.5t4 -26.5l3 -1q2 -2 9.5 -6t9.5 -5q12 -8 15 -14q4 -8 12 -12l5 -6l3 -1v-10l1 -1v-3l1 -1q0 -10 -1 -11v1l-1 -9q0 -9 -4 -13q-3 0 -4 -1l-8 -4h-3v3q0 3 3 6q6 4 6 10v2q0 4 -0.5 7t-4.5 5l-7 3v1v-1q-4 4 -6 7h-2q-4 0 -5 -1l-16 -2v-2l2 2
q3 0 5 -2q1 0 1 -1v-1q0 -6 1 -7l2 -6q5 -25 5 -36l1 -6v-1q0 -2 -1 -2v-1q0 -5 1 -6q2 -6 2 -10v-6q-5 -3 -7 -5.5t-4 -6.5q0 -2 -1 -3l-4 -4q-2 -5 -3 -6q3 -6 6 -9v-1q1 0 1 -1l1 -2q6 -2 6 -10q0 -2 2 -4v-1v-1q0 -2 1 -5.5t3 -4.5l5 -9v-4q0 -1 -1 -1v-2l1 -16
q3 -6 3 -11q0 -7 -2 -9q0 -5 3 -6v-3v-2q0 -4 -4 -5q0 3 -1 3l-1 -1q-1 -1 -5 -1v2h-1q0 -4 -1 -4q0 -1 -2 -1h1q3 0 5 -2q0 -6 -1 -6v-3q0 -3 -4 -3h-6l-3 -1h-4l-2 -3v-4h2v-5h-7q0 3 -2 3q0 8 -3 11l-5 7h-5h-4q-2 -3 -7 -3l-2 1l-5 -5v3q-1 -3 -4 -4h-4l-1 -3
q-1 -3 -3 -7q0 -2 -1 -3t-1 -4q-1 0 -1 -2q-2 -9 -3 -15t-2 -17v-5h-43l-2 7q-2 2 -2 8v4q-1 9 -5 14v2q0 1 -0.5 2t-0.5 3t-0.5 6.5t-0.5 8.5zM257 238v5q-5 5 -5 15v16l9 1q-2 2 -3 5t-3 8q-2 2 -2 4l-1 1q-2 2 -2 7v10h-1q-8 17 -12 29.5t-7 24.5q-2 8 -4 15.5t-3 10.5v5
q0 5 3.5 10.5t14.5 5.5h15v-6l2 -2v12l25 2q2 0 2.5 0.5t2.5 0.5l-5 5l-5 3l-15 15q-3 1 -5 3l-6 3q0 14 -3 29q-2 0 -4 2v-1l-9 8l-1 1q-1 0 -1 1l-10 10q-10 0 -11 9q-5 1 -7 3t-2 13v30h-2q-3 -3 -4 -7q0 -5 -1 -6q0 -7 -5 -7v-25h1l3 -12l-8 -6l-2 -2q-2 -2 -6 -2l-6 -4
h-2l-4 -3q-1 -1 -3 -1q0 -1 -1 -1q-1 -1 -2 -1l-13 -13l-2 -2q-1 -1 -2 -1q-1 -1 -1 -6q-1 -1 -1 -7v-15q2 -8 2 -10v-7q-1 -1 -1 -4q3 -3 5 -9v1l9 -8q5 -5 8.5 -9t3.5 -9v-7q0 -2 1 -5t6 -8q0 -12 -1 -15t-3 -5l-3 -3v-12h-1v-16h-1v-17v-2l2 -23v-7l7 -7q2 -2 2 -5v-11
l2 -4t5 -6l2 -2l4 -26l-13 -8v-10l3 -4v-6l2 -5v-2l8 -7l5 -10q0 -1 0.5 -1.5t0.5 -1.5q0 -5 1 -6v-3q0 -1 0.5 -1.5t0.5 -1.5q1 7 2 13t3 11q0 8 2 10q0 1 3 4v-1l1 3q5 12 10 15l1 1q0 2 1 3v12q8 0 13 -0.5t8 -1.5q0 1 2 3v-1q3 5 5.5 11t7.5 13q-1 2 -1 9zM259 325
q3 -2 5 -13q2 4 2.5 10.5t0.5 8.5v7l-14 30q-8 8 -8 17q0 3 -1 4q-4 1 -4 6h-1v-4l3 -12q1 -4 2 -7t2 -5q0 -2 0.5 -2.5t0.5 -2.5q4 -17 12 -37zM130 363l1 -1h-1q2 0 2 -3v-2q0 1 1 1v1q0 3 4 10v-1q0 3 1 4v-1q0 1 1 2q-5 5 -5.5 9.5t-0.5 10.5v6q-1 -1 -1 -2v-2
q0 -2 -1 -3zM274 210q-7 0 -10 5v-1v-3l14 -13q0 6 1 7zM274 236q0 -4 2 -6h2q0 -3 1 -4v5q0 12 -4 19q-1 -1 -1 -5v-4l-1 -1zM266 304q1 -1 1 -3t1 -3q0 -2 1 -2v2l1 5q-3 0 -4 1zM131 347q0 -4 1 -5v6h-1v-1zM239 183q0 -1 -1 -1v-2l1 1l1 1zM238 180q-1 -1 -1 -4q0 2 1 3
v1zM268 258v-1v1q1 0 1 1h-1v-1z" />
    <glyph glyph-name="FL0050h" unicode="P" 
d="M189 436v103h55v-103h-55zM30 700h262q43 0 66 -21.5t23 -66.5v-230q0 -45 -23 -66.5t-66 -21.5h-107v126h75v154h-108v-570h-122v696zM14 716v-728h6l21 -21h148v297l7 -7h118q104 0 104 101v230q0 51 -25 75l-11 11v-1q-27 43 -90 43h-278z" />
    <glyph glyph-name="FL0051h" unicode="Q" 
d="M189 166v373h54v-342zM259 190v386h-107v-448zM143 4h-24q-43 0 -66 21.5t-23 66.5v522q0 43 23 64.5t66 21.5h173q43 0 66 -21.5t23 -64.5v-522q0 -45 -23 -66.5t-66 -21.5h-20l29 -88h-129zM61 -2l5 -5q24 -24 72 -26l24 -67h5l21 -21h153l-31 88h4q104 0 104 101v522
q0 49 -25 73l-11 11v-1q-27 43 -90 43h-173q-51 0 -78 -25.5t-27 -76.5v-522q0 -63 41 -89h-1z" />
    <glyph glyph-name="FL0052h" unicode="R" 
d="M189 436v103h54v-103h-54zM30 700h262q43 0 66 -21.5t23 -66.5v-249q0 -35 -22 -50t-54 -17l95 -292h-126l-89 273v143h74v154h-107v-570h-122v696zM292 716h-278v-728h6l21 -21h148v245l74 -224h5l21 -21h154l-100 293q33 4 54 22t21 57v249q0 51 -25 75l-11 11v-1
q-27 43 -90 43z" />
    <glyph glyph-name="FL0053h" unicode="S" horiz-adv-x="387" 
d="M207 130v164h-88q-43 0 -66 21.5t-23 66.5v230q0 45 23 66.5t66 21.5h210v-126h-177v-154h88q43 0 66 -21.5t23 -66.5v-240q0 -45 -23 -66.5t-66 -21.5h-210v126h177zM14 146v-158h6l21 -21h223q102 0 102 101v240q0 51 -25 75l-11 11v-1q-27 43 -90 43h-51v103h177v150
l-21 21v6h-226q-51 0 -78 -25t-27 -79v-230q0 -63 41 -89h-1l9 -7l1 -1q28 -28 79 -28h48v-111h-177z" />
    <glyph glyph-name="FL0056h" unicode="T" horiz-adv-x="412" 
d="M130 4v570h-100v126h324v-126h-100v-570h-124zM370 716h-356v-156h6l21 -21h73v-551h6l21 -21h148v572h102v150l-21 21v6z" />
    <glyph glyph-name="FL0057h" unicode="U" 
d="M292 4h-173q-43 0 -66 21.5t-23 66.5v608h122v-570h107v570h122v-608q0 -45 -23 -66.5t-66 -21.5zM61 -2l5 -5q26 -26 77 -26h171q104 0 104 101v621l-21 21v6h-154v-570h-54v543l-21 21v6h-154v-624q0 -63 41 -89h-1z" />
    <glyph glyph-name="FL0058h" unicode="V" horiz-adv-x="489" 
d="M228 316h4l79 384h130l-146 -696h-129l-146 696h130zM460 716h-164l-59 -288l-51 261l-20 19l-1 8h-164l150 -728h6l21 -21h153l149 722l-21 21z" />
    <glyph glyph-name="FL007Dh" unicode="W" horiz-adv-x="513" 
d="M242 551l87 -213h4v362h122v-696h-110l-103 261l-100 -261h-112v696h121v-362h4zM20 -12l21 -21h135l81 216l78 -195h5l19 -21h133v722l-21 21v6h-154v-281l-51 125l-18 15l-6 17l-54 -132v229l-21 21v6h-153v-728h6z" />
    <glyph glyph-name="FL005Ah" unicode="X" horiz-adv-x="446" 
d="M209 187l-63 -183h-126l122 348l-122 348h126l63 -182l61 182h126l-120 -348l120 -348h-126zM0 716l125 -364l-125 -364h7l21 -21h153l42 127l36 -106h5l21 -21h153l-125 361l125 361l-22 21l2 6h-159l-44 -131l-34 104l-21 19l-1 8h-159z" />
    <glyph glyph-name="FL005Bh" unicode="Y" horiz-adv-x="446" 
d="M270 352v-348h-124v349l-126 347h126l63 -182l61 182h126zM159 716h-159l130 -364v-364h6l21 -21h150v361l131 361l-22 21l2 6h-159l-44 -131l-34 104l-21 19z" />
    <glyph glyph-name="FL005Fh" unicode="Z" horiz-adv-x="387" 
d="M321 531l-162 -401h170v-126h-299v129q0 9 3 22t5 21l162 398h-170v126h299v-129q0 -8 -2.5 -20t-5.5 -20zM167 539l-146 -364q-2 -8 -4.5 -19.5t-2.5 -22.5v-145h6l21 -21h325v152l-21 21v6h-134l146 358q3 9 6 22.5t3 22.5v140l-21 21v6h-331v-156h6l21 -21h126z" />
    <glyph glyph-name="FL005Eh" unicode="[" horiz-adv-x="282" 
d="M152 574v-444h72v-126h-194v696h194v-126h-72zM187 539h74v150l-21 21v6h-226v-728h6l21 -21h220v152l-21 21v6h-53v393z" />
    <glyph glyph-name="FL005Ch" unicode="\" horiz-adv-x="345" 
d="M1 716h163l1 -8l20 -19l151 -722h-156l-21 21h-6zM149 700h-129l148 -696h129z" />
    <glyph glyph-name="FL005Dh" unicode="]" horiz-adv-x="282" 
d="M14 146h72v393h-45l-21 21h-6v156h226v-6l21 -21v-722h-220l-21 21h-6v158zM102 130h-72v-126h194v696h-194v-126h72v-444z" />
    <glyph glyph-name="FL0060h" unicode="^" horiz-adv-x="489" 
d="M152 716h158l1 -8l20 -19l149 -722h-450l-21 21h-7zM167 700l-146 -696h420l-146 696h-128zM177 130l51 259h4l52 -259h-107zM242 251l-21 -105h44z" />
    <glyph glyph-name="FL0069h" unicode="_" horiz-adv-x="355" 
d="M14 111h299v-6l21 -21v-148h-293l-21 20h-6v155zM30 95v-124h267v124h-267z" />
    <glyph glyph-name="FL0061h" unicode="`" horiz-adv-x="201" 
d="M28 728l-59 122h120l53 -122h-114zM101 866h-157l74 -154h5l21 -21h139l-62 150l-18 17z" />
    <glyph glyph-name="a" unicode="a" horiz-adv-x="489" 
d="M152 716h158l1 -8l20 -19l149 -722h-157l-21 21h-6l-54 263l-55 -284h-158l-21 21h-7zM232 388l79 -384h130l-146 696h-128l-147 -696h131l77 384h4z" />
    <glyph glyph-name="FL0062h" unicode="b" 
d="M189 436v103h54v-103h-54zM189 264l7 -7h47v-111h-54v118zM259 420v154h-107v-444h107v164h-74v126h74zM30 700h262q43 0 66 -21.5t23 -66.5v-179q0 -29 -14.5 -48t-39.5 -28q54 -20 54 -82v-183q0 -45 -23 -66.5t-66 -21.5h-262v696zM41 -33h273q104 0 104 101v183
q0 48 -25 73l-10 10q17 11 26 29t9 46v179q0 51 -25 75l-11 11v-1q-27 43 -90 43h-278v-728h6z" />
    <glyph glyph-name="FL0063h" unicode="c" horiz-adv-x="385" 
d="M30 92v526q0 45 23.5 63.5t65.5 18.5h208v-126h-175v-444h175v-126h-208q-43 0 -66 21.5t-23 66.5zM189 539h175v150l-21 21v6h-224q-49 0 -77 -22t-28 -76v-526q0 -63 41 -89h-1l7 -5l5 -5q26 -26 77 -26h221v152l-21 21v6h-154v393z" />
    <glyph glyph-name="FL0064h" unicode="d" 
d="M189 146v393h54v-393h-54zM152 130h107v444h-107v-444zM30 700h262q43 0 66 -21.5t23 -66.5v-520q0 -45 -23 -66.5t-66 -21.5h-262v696zM41 -33h273q104 0 104 101v520q0 51 -25 75l-11 11v-1q-27 43 -90 43h-278v-728h6z" />
    <glyph glyph-name="FL0065h" unicode="e" horiz-adv-x="385" 
d="M152 294v-164h175v-126h-297v696h297v-126h-175v-154h145v-126h-145zM14 716v-728h6l21 -21h323v152l-21 21v6h-154v111h145v152l-21 21v6h-124v103h175v150l-21 21v6h-329z" />
    <glyph glyph-name="FL0066h" unicode="f" horiz-adv-x="385" 
d="M152 294v-290h-122v696h297v-126h-175v-154h145v-126h-145zM14 716v-728h6l21 -21h148v290h145v152l-21 21v6h-124v103h175v150l-21 21v6h-329z" />
    <glyph glyph-name="FL0067h" unicode="g" horiz-adv-x="435" 
d="M189 273l17 -17h35v-110h-52v127zM377 4h-258q-43 0 -66 21.5t-23 66.5v526q0 45 23.5 63.5t65.5 18.5h258v-126h-225v-444h105v163h-62v127h182v-416zM61 -2l5 -5q26 -26 77 -26h271v442l-21 21v6h-204v103h225v150l-21 21v6h-274q-49 0 -77 -22t-28 -76v-526
q0 -63 41 -89h-1z" />
    <glyph glyph-name="FL0068h" unicode="h" horiz-adv-x="437" 
d="M152 421h105v279h122v-696h-122v289h-105v-289h-122v696h122v-279zM168 716h-154v-728h6l21 -21h148v289h52v-268h6l21 -21h148v722l-21 21v6h-154v-279h-52v252l-21 21v6z" />
    <glyph glyph-name="i" unicode="i" horiz-adv-x="209" 
d="M14 716h153v-6l21 -21v-722h-147l-21 21h-6v728zM30 700v-696h121v696h-121z" />
    <glyph glyph-name="FL006Ah" unicode="j" horiz-adv-x="375" 
d="M333 710l21 -21v-621q0 -101 -102 -101h-211l-21 21h-6v158h165v570h154v-6zM228 4q43 0 66 21.5t23 66.5v608h-122v-570h-165v-126h198z" />
    <glyph glyph-name="FL006Ch" unicode="k" horiz-adv-x="446" 
d="M156 290h-4v-286h-122v696h122v-277h4l110 277h130l-142 -348l142 -348h-130zM189 689l-21 21v6h-154v-728h6l21 -21h148v196l67 -175h5l21 -21h157l-148 361l148 361l-22 19l3 8h-164l-67 -169v142z" />
    <glyph glyph-name="l" unicode="l" horiz-adv-x="375" 
d="M14 716h154v-6l21 -21v-543h144v-6l21 -21v-152h-313l-21 21h-6v728zM30 700v-696h287v126h-165v570h-122z" />
    <glyph glyph-name="m" unicode="m" horiz-adv-x="513" 
d="M14 716h140l2 -7l18 -18l74 -194l87 219h136v-6l21 -21v-722h-148l-21 21h-6v231l-51 -121l-22 21l-2 -5l-54 129v-276h-147l-21 21h-6v728zM242 439l-100 261h-112v-696h121v362h4l87 -213l87 213h4v-362h122v696h-110z" />
    <glyph glyph-name="FL006Eh" unicode="n" horiz-adv-x="436" 
d="M155 308h-4v-304h-121v696h98l125 -337h4v337h121v-696h-100zM273 -12l21 -21h121v722l-21 21v6h-153v-244l-81 219l-18 18l-2 7h-126v-728h6l21 -21h147v219l80 -198h5z" />
    <glyph glyph-name="FL006Fh" unicode="o" 
d="M189 146v393h54v-393h-54zM152 130h107v444h-107v-444zM292 4h-173q-43 0 -66 21.5t-23 66.5v520q0 45 23 66.5t66 21.5h173q43 0 66 -21.5t23 -66.5v-520q0 -45 -23 -66.5t-66 -21.5zM61 -2l5 -5q26 -26 77 -26h171q104 0 104 101v520q0 51 -25 75l-11 11v-1
q-27 43 -90 43h-173q-51 0 -78 -25t-27 -79v-520q0 -63 41 -89h-1z" />
    <glyph glyph-name="FL0070h" unicode="p" 
d="M189 436v103h55v-103h-55zM30 700h262q43 0 66 -21.5t23 -66.5v-230q0 -45 -23 -66.5t-66 -21.5h-107v126h75v154h-108v-570h-122v696zM14 716v-728h6l21 -21h148v297l7 -7h118q104 0 104 101v230q0 51 -25 75l-11 11v-1q-27 43 -90 43h-278z" />
    <glyph glyph-name="FL0071h" unicode="q" 
d="M189 146v393h54v-393h-54zM259 130v446h-107v-446h107zM143 4h-24q-43 0 -66 21.5t-23 66.5v522q0 43 23 64.5t66 21.5h173q43 0 66 -21.5t23 -64.5v-522q0 -45 -23 -66.5t-66 -21.5h-20l29 -88h-129zM61 -2l5 -5q24 -24 72 -26l24 -67h5l21 -21h153l-31 88h4
q104 0 104 101v522q0 49 -25 73l-11 11v-1q-27 43 -90 43h-173q-51 0 -78 -25.5t-27 -76.5v-522q0 -63 41 -89h-1z" />
    <glyph glyph-name="FL0072h" unicode="r" 
d="M189 436v103h54v-103h-54zM30 700h262q43 0 66 -21.5t23 -66.5v-249q0 -35 -22 -50t-54 -17l95 -292h-126l-89 273v143h74v154h-107v-570h-122v696zM292 716h-278v-728h6l21 -21h148v245l74 -224h5l21 -21h154l-100 293q33 4 54 22t21 57v249q0 51 -25 75l-11 11v-1
q-27 43 -90 43z" />
    <glyph glyph-name="FL0073h" unicode="s" horiz-adv-x="387" 
d="M41 -33l-21 21h-6v158h163l-154 381q-4 9 -6.5 22.5t-2.5 21.5v47q0 54 28 76t77 22h226v-6l21 -21v-150h-167l159 -386v-1h1q2 -8 4.5 -18.5t2.5 -24.5v-41q0 -101 -102 -101h-223zM158 574h171v126h-210q-42 0 -65.5 -18.5t-23.5 -63.5v-47q0 -8 2.5 -20t5.5 -20
l163 -401h-171v-126h210q43 0 66 21.5t23 66.5v41q0 11 -2 19.5t-4 16.5q0 1 -0.5 1.5t-0.5 1.5v-1q-1 1 -1 3v2z" />
    <glyph glyph-name="FL0074h" unicode="t" horiz-adv-x="410" 
d="M129 4v570h-99v126h322v-126h-99v-570h-124zM368 716h-354v-156h6l21 -21h72v-551h6l21 -21h148v572h101v150l-21 21v6z" />
    <glyph glyph-name="FL0075h" unicode="u" 
d="M292 4h-173q-43 0 -66 21.5t-23 66.5v608h122v-570h107v570h122v-608q0 -45 -23 -66.5t-66 -21.5zM61 -2l5 -5q26 -26 77 -26h171q104 0 104 101v621l-21 21v6h-154v-570h-54v543l-21 21v6h-154v-624q0 -63 41 -89h-1z" />
    <glyph glyph-name="FL0076h" unicode="v" horiz-adv-x="489" 
d="M228 316h4l79 384h130l-146 -696h-129l-146 696h130zM460 716h-164l-59 -288l-51 261l-20 19l-1 8h-164l150 -728h6l21 -21h153l149 722l-21 21z" />
    <glyph glyph-name="FL0059h" unicode="w" horiz-adv-x="658" 
d="M152 700l63 -308h4l51 308h91l48 -308h4l67 308h130l-146 -696h-97l-55 275h-4l-44 -275h-98l-146 696h132zM629 716h-163l-44 -199l-25 172l-21 20v7h-121l-33 -202l-36 175l-20 19l-1 8h-164l152 -728h6l19 -21h122l24 160l28 -139h6l21 -21h119l151 722l-21 21z" />
    <glyph glyph-name="FL0079h" unicode="x" horiz-adv-x="446" 
d="M209 187l-63 -183h-126l122 348l-122 348h126l63 -182l61 182h126l-120 -348l120 -348h-126zM0 716l125 -364l-125 -364h7l21 -21h153l42 127l36 -106h5l21 -21h153l-125 361l125 361l-22 21l2 6h-159l-44 -131l-34 104l-21 19l-1 8h-159z" />
    <glyph glyph-name="FL0078h" unicode="y" horiz-adv-x="446" 
d="M270 352v-348h-124v349l-126 347h126l63 -182l61 182h126zM159 716h-159l130 -364v-364h6l21 -21h150v361l131 361l-22 21l2 6h-159l-44 -131l-34 104l-21 19z" />
    <glyph glyph-name="FL007Ah" unicode="z" horiz-adv-x="387" 
d="M321 531l-162 -401h170v-126h-299v129q0 9 3 22t5 21l162 398h-170v126h299v-129q0 -8 -2.5 -20t-5.5 -20zM167 539l-146 -364q-2 -8 -4.5 -19.5t-2.5 -22.5v-145h6l21 -21h325v152l-21 21v6h-134l146 358q3 9 6 22.5t3 22.5v140l-21 21v6h-331v-156h6l21 -21h126z" />
    <glyph glyph-name="FL0036" unicode="{" horiz-adv-x="1194" 
d="M1043 339h-1h1zM1108 230l1 -1q1 -1 8 -1q7 -1 13 -2.5t6 -9.5q0 -7 -6 -7h-3q-1 0 -7 3q-6 1 -8 5q-4 1 -4 3l-2 5l-11 5l-20 -2q-1 0 -2 1h-3l-1 1l-18 -5q-8 0 -14.5 3.5t-14.5 8.5l-2 2q-1 1 -1.5 0.5t-2.5 1.5l-6 3q-4 0 -4 -4l-8 -86l-2 -12q-1 -3 -1 -6l-2 -6v-1
l5 -68q0 -14 -14 -25t-32.5 -18t-38 -10.5t-29.5 -3.5h-6q-20 3 -39.5 15.5t-37.5 28.5l-11 4q-5 5 -10.5 9.5t-10.5 9.5q-2 1 -4 2.5t-4 2.5h1q-5 4 -8 7l-5 5h-40l-1 1q-1 0 -2 1q-1 0 -2 1q-1 0 -1.5 0.5t-1.5 0.5q-6 2 -5 2l-1 2h-1l-2 2l-12 8t-17 11q-7 5 -11.5 7.5
t-9.5 4.5h-1v1q-5 4 -12 4q-4 0 -5 -1q-1 0 -1 -1h-1q-1 0 -1.5 -0.5t-1.5 -0.5q-6 -2 -7 -2q-7 0 -13 2.5t-12 5.5h1q-1 1 -4 1q-26 8 -50 20.5t-50 27.5h2q-16 8 -22.5 20t-11.5 24q-1 1 -0.5 1.5t-0.5 1.5v-1q-1 2 -1.5 3.5t-1.5 3.5q-4 9 -6.5 16.5t-6.5 12.5l-36 54
l-1 1.5t-2 3.5l-1 1q1 0 0 1v-1q-5 9 -10.5 17.5t-17.5 10.5q-11 2 -22.5 3.5t-24.5 1.5h-8l-25 -26q-5 -4 -9 -6.5t-8 -4.5l-3 -2q0 -1 -0.5 -1.5t-0.5 -1.5q-1 -1 -1 -4v-2q0 -2 -2 -3.5t-10 -4.5v-6l7 -12q0 -2 -5.5 -3t-12.5 -2.5t-14 -2t-10 -0.5h-7q-11 7 -23 19
t-17 20q-3 2 -7 3l-8 2h-1l-9 3q-1 0 -1.5 0.5t-1.5 0.5q-12 6 -26.5 15.5t-28 21.5t-25.5 25t-19 26q-14 19 -14 55q0 22 8.5 42t23 35.5t33.5 24.5t41 9q17 0 30.5 -6.5t27.5 -14.5q2 0 4.5 -1t4.5 -2l28 -14h-1l3 -1l6 -2q4 -1 9 -4t16 -11l26 -23q3 -2 5 -3.5t4 -3.5
l77 14h1q2 0 8 2q12 2 18 8l14 13q5 5 17 5q10 0 12 1q5 0 17.5 1.5t27 4t27 4.5t17.5 3q1 1 3 1q5 0 6 1h-1q17 5 25 5q7 0 13 -3h-1q4 -2 7 -3t9 -1h4q4 0 5 1q2 0 3.5 0.5t3.5 0.5q2 1 7 1h4q2 0 3 0.5t3 0.5q2 1 11 1h21q2 2 4 2l50 4l10 2q9 4 24 4q1 1 2 1q3 0 3 5
l-5 36q0 35 25 57.5t60 30.5h30q27 0 64.5 -2.5t73 -12.5t62 -30.5t32.5 -56.5v-34l-2 -8q-1 -4 -3 -14v1q-18 -26 -42 -45t-56 -19h-6l-69 11q-3 0 -5 -2v2l-19 -32q-2 -2 -2 -3v1q-1 -1 -1 -2q-7 -10 -7 -20v-7q0 -4 3 -4q5 -4 6 -5t5 -4q6 -8 12 -8l7 -7q9 -8 20 -19.5
t15 -16.5q4 -2 4.5 -2.5t0.5 -1.5l3.5 -1.5t10.5 -5.5l8 -4q2 -1 5.5 -2t8.5 -3q6 -2 12.5 -5t12.5 -5q3 -1 6.5 -2t1.5 -1q5 -5 9 -5q2 -2 2 -6v-12q0 -15 5 -20q2 -2 5 -3.5t8 -4.5q4 -2 7.5 -5t9.5 -9q0 -3 1 -4l1 -1q0 -3 3 -4q0 3 2 -5l2 -2q2 -2 4 -2l1 -1q1 0 2 -1
l2 -2q2 -2 5.5 -5t13.5 -6h-1zM1074 282v11q0 11 -8 19l-17 17v-1q-1 2 -2 3.5t-1 2.5q-1 1 -2 2.5t-2 2.5q-1 0 -2 1q-1 0 -2 0.5t-2 0.5h-2q1 0 -5 2q-2 1 -4.5 2t-6.5 3h1q-2 2 -5 2t-5 1q-6 5 -13 6q-6 1 -14 5l-6 3q-4 0 -5 1v-1q-1 1 -2 2.5t-3 3.5q-7 9 -19.5 22.5
t-23.5 22.5l2 2q0 1 1 2l5 5l15 25l64 -10h7q38 0 64.5 21t46.5 50q1 4 1.5 6.5t0.5 4.5q0 5 1 6q1 2 1 5q0 5 1 7v33q-6 37 -29 60l-7 7q-17 26 -46.5 41t-62.5 22.5t-66 9t-58 1.5h-33q-42 -9 -70 -34.5t-28 -70.5l4 -26q-3 0 -11 -2q-2 0 -2 -1h-1h-1q-1 -1 -5 -1
q-2 0 -2.5 -0.5t-1.5 -0.5l-49 -6q-4 0 -5 -1q-1 0 -1 -1h-1h-18q-9 0 -11 -1q-2 0 -2 -1h-1h-10q-4 0 -5 -1q-1 0 -1.5 -0.5t-1.5 -0.5q-2 -1 -6 -1h-5q-4 0 -5 1h-3v1h-1v1q-5 2 -10.5 3t-8.5 1q-11 0 -20 -3q-2 -2 -12 -3q-1 -1 -2 -1h-3q-5 -1 -17.5 -3t-26.5 -3.5
t-26.5 -3t-17.5 -1.5q-2 -1 -9 -1q-13 0 -20 -3v4l-23 -23q-4 -4 -14 -5v-1l-74 -13q0 1 -2 1v1l-26 24l-22 11q-3 1 -7 3h1l-3 2l-12 6l-6 2q-3 2 -7.5 4.5t-12.5 6.5v-2q-3 1 -6 4q-17 9 -32 15.5t-32 6.5q-26 0 -48 -10t-38.5 -27.5t-26 -40.5t-9.5 -49q0 -39 22 -73v1
q9 -15 23.5 -28.5t28.5 -27.5q16 -14 35 -27t36 -22q5 -5 7 -5q4 0 5 -1q1 0 1 -1h1h-1q9 -9 27 -22h1q7 -6 14 -11.5t15 -10.5h13q3 0 11.5 1.5t18 4t16.5 6.5t7 9v6l-3 4q8 8 8 15l4 4h2l7.5 5l4.5 3l25 24h1q8 0 17 -1.5t20 -3.5q0 -1 2 -1q3 -3 4 -6l5 -10l35 -53
l3 -7.5l3 -7.5l0.5 -1.5l1.5 -4.5q0 -3 1 -4v1q5 -15 11.5 -28t22.5 -22h-1q2 -2 3.5 -2.5t3.5 -1.5l10 -10q0 -1 5 -3h-1l1 -0.5t3 -2.5q0 -2 2 -2q0 -1 2 -1q26 -15 49 -27t54 -23h2q0 -1 2 -1h2q7 -4 14 -6.5t15 -2.5h9q1 0 3 2q2 0 4 2l1 1l1.5 -0.5t3.5 -2.5l2 -2
q7 -1 14 -7q0 -2 2 -2q0 -1 2 -1q4 -4 13 -9t16 -9q0 -2 1 -2l5 -4q2 0 4 -2q1 0 6 -5v3q3 -3 10 -3h31q0 -1 1 -1q0 -1 2 -1l2 -2q2 -2 4 -4.5t9 -5.5h-1q5 -5 6 -5.5t4 -2.5l2 -1.5l6 -4.5l15 -8h-1q20 -17 41 -30t47 -18h7q10 0 31.5 4t42.5 12.5t37 22t16 31.5l-5 65
q1 2 1 6q0 5 1 6q2 3 3 13l7 71q8 -5 15 -7.5t21 -2.5l12 4q1 -1 7 -1h3l15 1l6 -5l4 -1q3 -4 13 -7v-1h1q4 -4 12 -4h3q19 0 19 18q0 11 -6 17l-17 15q-4 11 -14 15t-18 5q-1 0 -2 1q-1 0 -2 0.5t-2 0.5q-2 0 -2.5 0.5t-1.5 0.5l-17 18v1h-1l-2 2v4q-2 2 -3 2.5t-2 1.5
q-1 0 -1 1q-2 0 -4 2q-1 1 -2 1.5t-2 1.5z" />
    <glyph glyph-name="FL007Ch" unicode="|" horiz-adv-x="208" 
d="M14 804h152v-6l21 -21v-898h-146l-21 21h-6v904zM30 788v-872h120v872h-120z" />
    <glyph glyph-name="FL0037" unicode="}" horiz-adv-x="402" 
d="M332 393l7 1q1 1 4 1v-2q0 -3 -1 -4l-3 -3q-3 -3 -5 -7zM273 223v-5q0 -4 5 -9q7 1 7 11v5h-3h-3zM58 347v-4q0 -7 9 -20v12h2v9q0 4 -8 6q-3 0 -3 -3zM281 192l2 -4q0 -12 6 -13h1v-1h1q5 -5 8 -5h2q2 6 2 8v4q0 8 -1.5 16.5t-6.5 15.5h-6q-2 -2 -4 -7.5t-3 -8.5v1
q-1 -1 -1 -4v-2zM55 385v-18q2 -5 3 -5q1 -2 6 -3l4 -2h10l-6 5l4 6l1 1q2 3 4.5 7.5t2.5 10.5v3q-7 8 -8 15q-1 1 -1 3q0 3 -1 4l-3 9q0 6 -3 8q-1 0 -3 2q-5 -5 -6 -12q-1 -1 -1 -3t-0.5 -3t-0.5 -2q0 -2 -0.5 -4t-0.5 -4v-8q-1 -2 -1 -10zM105 93l-1 1q-2 0 -2 1l-5 5
q-2 2 -3 8q-1 1 -1 2l-2 4q0 5 -1 6v7l-2 3q-1 1 -1 4q-1 2 -1 9v16l2 2q1 1 2 1q4 2 8 5t4 6l-2 18q-7 6 -9.5 12.5t-3.5 11.5l-1 11q0 7 -5 7v-9q-7 -1 -7 -4l-2 -2q0 -5 -4 -12q-1 -1 -1 -3l-1 -1v-31l-36 -76v-1q-1 -1 -1 -3q0 -1 -1 -2l-2 2l17 38q0 1 1 2q0 1 0.5 2
t0.5 2q1 2 1.5 3.5t3.5 7.5h1l3 9q1 4 3 10q1 2 1.5 5t2.5 6q0 7 -9 7q-5 0 -5 -7l-33 -76l-3 -3v1q2 10 3 12.5t2 6.5v1q1 0 1 1l22 58v-1l1 1q2 8 5 11l8 8l6 6q2 2 5.5 13t4.5 13q0 1 1.5 3t2.5 3v4q0 2 -2 12q-1 1 -1 6v3l-2 32q0 6 -2.5 10t-5.5 7l-8 8l-3 -3
q-2 0 -6.5 3t-7.5 6v1q0 4 -1 5q0 3 -2 5l-4 -1l-2 2v7h-2v8l-4 7q-2 2 -2 3q-1 0 -2 1l-2 2v2l-3 23h-2v-1q-1 2 -1.5 5t-1.5 5v11q0 6 1.5 8t3.5 4h-1h1q0 1 1 1q6 2 7 7q2 4 2 11q0 6 1 7q4 4 4 9q2 7 4 14.5t3 15.5v2q0 6 -4 10q-3 3 -3 6v24q4 8 5 14v2q1 5 3 8t11 8
l3 3t5 6l8 7h-1l8 4q1 0 1.5 0.5t1.5 0.5t3 1l4 2l7 2v1h1q5 0 8 3h-1h1l2 2q1 4 6 4q2 0 7 4q-4 1 -4 6v34l-1 2v14q0 2 4 3q3 0 3 2v-1q2 2 2 6q1 1 1 4q0 1 0.5 1.5t0.5 1.5q5 15 9 18.5t16 7.5q3 0 4 1h5v1h4l3 -1.5l1 -0.5q0 -1 4 -1q1 0 1 -1q12 -5 19.5 -15.5
t9.5 -23.5h3l2 -2q2 0 2.5 -2t1.5 -13l-2 -2v-26q-1 -1 -1 -4q-1 -1 -1 -6v-5q0 -4 3.5 -4.5t6.5 -1.5q1 0 2 -1q0 -1 2 -1q1 -2 1.5 -2.5l0.5 -0.5q1 -6 5 -6h1q12 23 22 45.5t12 42.5q0 2 0.5 9t1.5 12q2 2 2 8v5q1 1 1 5q1 7 3 7t2 -5v-23q5 -26 27 -26q8 0 9 1h4
q1 0 2 0.5t3 0.5t3 -1q-2 -3 -5 -5l-2 -2q-1 -1 -2 -1l-1 -1q-3 -3 -9 -6t-11 -6q-4 -2 -8 -4.5t-3 -1.5q-14 -8 -20 -23.5t-12 -35.5q0 -1 2 -1q1 -1 3 -1q1 0 2 -0.5t3 -0.5q14 -6 20 -25.5t6 -36.5v-7l2 -2q3 -3 18 -8q2 -1 8 -3t8 -3h-1v-2q4 -2 10.5 -8t13.5 -12l1 -1
q1 0 2 -1v1q4 -6 7 -8.5t8 -5.5h-1l1 -1q1 0 2 -1l6 -7l6 -3v-10q0 -5 2 -7l2 -2q0 -6 -1 -8q0 -1 -1 -1v-1v-2q0 -2 -0.5 -7t-1.5 -6q0 -9 -5 -14l-3 -3h1q-2 -1 -3.5 -2.5t-3.5 -2.5l-1 -0.5t-2 -0.5l5 5q2 3 4.5 7t2.5 11t-2 14.5t-10 9.5q-5 3 -6 3.5t-2 0.5q-4 0 -8 7
q-2 2 -3 2.5t-2 1.5h-7q-8 0 -9 -1l-28 -2v-3q0 -2 1 -2l2.5 -5t3.5 -3q4 0 5 1l1 1q1 0 1 -1q1 0 1 -1q0 -7 2 -14l4 -14l3 -12q4 -15 4 -29v-14q0 -11 1 -13v-12v-2v-1l-7 -10q-3 -3 -10 -13q-4 -4 -5 -8v1q-1 -1 -1 -3v1l-2 -2q-1 1 -1 4v2l6 16v-1l1 1q0 1 1 1v8
q-1 1 -1 2l-4 2h-3l-2 -7l-1 -9l-1 -2q-3 0 -3 3v3q1 4 1.5 13t0.5 14q1 1 1 7v2l2 4q0 3 -1 4v-1l-25 47q0 1 -0.5 2t-0.5 2q-1 1 -1 2l-1.5 3t-2.5 6q-3 3 -3 5l-5 9h-1q-1 1 -3 8h-3q-8 0 -8 -6v-6l6 -21q6 -20 12.5 -38.5t15.5 -37.5q0 -17 10 -33v1l3 -6q2 -4 5 -7
t7 -8v1q1 -2 3 -4.5t3 -4.5l4 -6l2 -2q0 -2 2 -2h-3v-4q8 -8 10.5 -14.5t4.5 -12.5q1 -2 1.5 -3.5t1.5 -3.5l4 -7v-6q-1 -1 -1 -4v-8v-2l-5 6v-8q0 -4 1 -5q0 -1 2 -3v1l3 -6q4 -5 4 -12v-2q0 -1 -0.5 -1.5t-0.5 -1.5q0 -2 -0.5 -3t-0.5 -3t0.5 -7t2.5 -8h-1q-6 0 -7 -3h-2
h-1q-3 -2 -3 -5q0 -1 -4 -1v-4l-2 -1v-3q1 -4 5 -4q0 -1 1 -2v-2v-4h-3l-3 3q-6 -2 -8 -4l-1 -1v2l-4 2q-3 0 -5 -8v1q-1 -1 -1 -3q0 -1 -0.5 -1.5t-0.5 -1.5l-2 -1v-1v-5q0 1 -1 1v1q-1 8 -2 11.5t-3 5.5l-10 11v-2q-1 0 -2 0.5t-2 0.5q-1 -1 -2 -1v1h-4q-3 0 -3 5h-4
q-3 -9 -9 -9q-1 0 -1 1l-2 1q2 6 2 8q0 1 -4 3.5t-8 2.5v-2q-1 -1 -1 -4q0 -1 -1 -2q0 -1 -0.5 -2t-0.5 -2q-6 -9 -8 -11h-2q-4 0 -4.5 -6t-0.5 -7q-2 -4 -3 -5.5t-4 -6.5l-1 -1v-1q-2 -2 -2 -4q-1 -1 -1 -5l-3 -12q-2 -11 -3.5 -20t-2.5 -20v-2h-59q0 1 -0.5 1.5t-0.5 1.5
t-1 1v1q-1 1 -1 6q-1 1 -1 4v7l-3 12q-2 3 -3.5 7.5l-2.5 7.5h1q0 1 -0.5 3.5t-0.5 4.5q-1 4 -1.5 7.5t-2.5 8.5l-3 12h-1q-3 4 -5 4zM100 72l2 -7v-2h1v-3q1 -3 1 -8q0 -4 1 -5q1 -3 1 -7q0 1 2 -5l3 -13v-3q0 -8 1 -9q0 -7 4 -11l1 -1v-10h6l21 -21h83v15q2 10 2.5 17
t2.5 15q0 2 0.5 3t0.5 3l3 12q0 2 1 3l2 2v3l3 6l2 2l0.5 2t2.5 4v2l3 3h-1q3 1 4 5h13v-3q3 0 3 -4h6l21 -21h26v19q3 0 5 2h8q3 0 7.5 4t5.5 14v4q1 0 1 1q17 2 17 15q0 7 -3 10h-1v3l-2 2q-1 1 -1 2l0.5 0.5t0.5 1.5q1 1 1 9v2q0 8 -4 15v1q0 1 -0.5 2t-0.5 3v16v2
q1 0 1 1v12l-6 10h-2q0 3 -1 4q-2 5 -3.5 8.5t-3.5 6.5v4q0 13 -7 17l-3 3q-4 1 -4 4q-1 1 -1.5 2t-1.5 2q-1 0 -3 2q1 0 1 3q1 0 1 1q1 1 1.5 2t2.5 3q7 9 8 12v-1q4 4 5 7v-1l1 1q0 1 1 2q6 0 6 12v3q0 12 -1 14q0 2 -1 2q-1 1 -1 7q1 1 1 9q-1 1 -1 4v3q0 8 -1.5 15
t-3.5 15h2l18 -18q3 -3 12 -3q8 1 13 6q1 0 2 1h-1q1 0 3 2l4 4q8 8 8 24h-1q0 1 0.5 1.5t0.5 2.5t0.5 2.5t0.5 1.5q1 1 1 4q1 2 1.5 5t0.5 8t-4 9v17l-21 21v4q-2 1 -5 3t-2 2h1q-3 3 -6 4l-5 6q-1 0 -2 1q-4 3 -7 6l-7 7q-2 0 -2 1q-1 0 -1 1q-2 2 -3 2l-1 1q-3 1 -11 7
q-2 0 -4 2q-2 1 -3 2l-2 2q-1 0 -1.5 0.5t-5.5 3.5l1 4h-6q-2 15 -7.5 29t-13.5 24l-2 1h1l-9 8l-1 1q4 8 9 17t14 15q2 2 4 3.5t5 3.5h-1q2 1 3.5 2l1.5 1q1 0 2 1l2 2q7 4 11 6t5 3v1q2 0 3 1l2 2q3 2 5.5 5.5t2.5 10.5q0 6 -3 9l-19 18q-2 5 -6.5 9t-9.5 4q-1 0 -1 -1h-1
h-6v8q0 10 -3 15l-20 18q-2 12 -16 12q-8 0 -12.5 -5.5t-6.5 -12.5v-1l-1 -1v-11l-1 -1q-1 -3 -2 -14t-1 -15q-1 -3 -3 -13l-2 -6t-1 -5l-6 6q-6 14 -13 22l-18 18q-3 4 -7.5 8t-12.5 9h-1q1 1 1 6h-11l-5 5v-3h-8q-8 0 -9 -1h-2q-2 -2 -4 -2l-1 -1h1q-9 -3 -14 -5.5t-8 -6
t-5.5 -9.5t-5.5 -16q-1 -1 -1 -4q-11 -8 -11 -16v-17l1 -3v-29q-2 -1 -3.5 -1.5l-1.5 -0.5l-2 -2h-14v-5l-8 -2v-2q-8 -2 -11 -5l-2 -2q-2 -2 -4 -3.5t-5 -8.5v1l-7 -6q-12 -6 -14 -11.5t-3 -13.5q-1 -1 -1 -3l-1 -1l-3 -10v-27q0 -11 6 -17v-1l1 -1q-1 -6 -3 -12.5
t-4 -12.5v-1q-4 -4 -4.5 -7.5t-0.5 -11.5q0 -1 -1 -2v-2q-6 -4 -10 -9.5t-4 -17.5v-15q0 -4 3 -7q0 -1 1 -1q0 -2 2 -2l2 -19v-8l8 -8q0 -1 1 -2h1v-3q0 -1 0.5 -1.5t0.5 -1.5q0 -5 1 -6v-8l1 -2q4 -21 13 -21l21 -20q1 -1 4 -1q2 0 3 1l2 -24v-2q0 -9 1 -10q0 -2 0.5 -2.5
t0.5 -1.5q1 -1 1 -4l-1 -2l-1 1q-1 -2 -3.5 -9.5t-6.5 -15.5q-7 -7 -12.5 -13t-8.5 -14q-1 -1 -1 -7l-17 -46q-5 -5 -5 -10q-3 -6 -3 -8l-2 -7q0 -4 -1 -5v-5q0 -12 9 -15l18 -17l4 -2h-1q3 -3 11 -3h1l9 -8q11 0 14.5 4t5.5 9v1q1 0 1 1v1l13 27q1 -3 5 -7l1 -1q1 -9 9 -9z
" />
    <glyph glyph-name="FL007Eh" unicode="~" horiz-adv-x="357" 
d="M332 428l-3 -8l22 -19l-67 -148h-133l-21 21h-3l-7 -21h-94l-21 21h-8l70 154h138l3 -9l14 -14l9 23h101zM111 341l24 -51h117l55 122h-66l-23 -51l-25 51h-116l-57 -122h68z" />
    <glyph glyph-name="FL007Fh" horiz-adv-x="121" 
 />
    <glyph glyph-name="FL0025h" unicode="&#x20ac;" 
d="M84 502v116q0 45 23.5 63.5t65.5 18.5h208v-126h-175v-72h82v-126h-82v-38h82v-126h-82v-82h175v-126h-208q-89 0 -89 88v120h-54v126h54v38h-54v126h54zM14 518v-158h6l6 -6h-12v-158h6l21 -19h27v-85q0 -64 39 -89h-1l7 -5l5 -5q26 -26 79 -26h221v152l-21 21v6h-154
v31h80v150l-12 12h12v152l-20 21v6h-60v21h175v150l-21 21v6h-224q-51 0 -78 -22t-27 -76v-100h-54z" />
    <glyph glyph-name="FL201Ah" unicode="&#x201a;" horiz-adv-x="208" 
d="M41 -119l-21 21h-6v242h152v-6l21 -21v-137q0 -99 -102 -99h-44zM61 -82q89 0 89 86v124h-120v-210h31z" />
    <glyph glyph-name="FL0192h" unicode="&#x192;" horiz-adv-x="392" 
d="M30 4v614q0 45 23.5 63.5t65.5 18.5h215v-126h-182v-154h152v-126h-152v-290h-122zM20 -12l21 -21h148v290h152v152l-21 21v6h-131v103h182v150l-21 21v6h-231q-49 0 -77 -22t-28 -76v-630h6z" />
    <glyph glyph-name="FL201Eh" unicode="&#x201e;" horiz-adv-x="366" 
d="M41 -119l-21 21h-6v242h154v-6l2 -2v8h154v-6l21 -21v-137q0 -99 -102 -99h-46l-21 21h-6v12q-27 -33 -85 -33h-44zM63 -82q43 0 66 20.5t23 65.5v124h-122v-210h33zM219 -82q43 0 66 20.5t23 65.5v124h-122v-210h33z" />
    <glyph glyph-name="FL0890h" unicode="&#x2026;" horiz-adv-x="524" 
d="M14 142h154v-6l2 -2v8h156v-6l2 -2v8h154v-6l21 -19v-150h-148l-8 8v-8h-150l-8 8v-8h-148l-21 21h-6v154zM186 128v-124h124v124h-124zM30 128v-124h122v124h-122zM344 128v-124h122v124h-122z" />
    <glyph glyph-name="FL2020h" unicode="&#x2020;" horiz-adv-x="326" 
d="M211 386v-382h-124v382h-57v126h57v188h124v-188h57v-126h-57zM14 528v-158h6l21 -21h32v-361h4l21 -21h148v382h59v152l-21 21v6h-38v161l-21 21v6h-152v-188h-59z" />
    <glyph glyph-name="FL2021h" unicode="&#x2021;" horiz-adv-x="326" 
d="M211 386v-58h57v-126h-57v-198h-124v198h-57v126h57v58h-57v126h57v188h124v-188h57v-126h-57zM14 528v-158h6l21 -21h32v-5h-59v-157h6l21 -20h32v-179h4l21 -21h148v200h59v150l-21 21v6h-38v5h59v152l-21 21v6h-38v161l-21 21v6h-152v-188h-59z" />
    <glyph glyph-name="FL02C6h" unicode="&#x2c6;" horiz-adv-x="369" 
d="M170 779l-26 -51h-114l56 122h168l55 -122h-114zM264 866h-187l-70 -154h8l21 -21h142l8 21h4l21 -21h142l-69 150l-17 17z" />
    <glyph glyph-name="FL2030h" unicode="&#x2030;" horiz-adv-x="889" 
d="M143 405v209h-32v-209h32zM531 90v209h-32v-209h32zM751 90v209h-32v-209h32zM169 319h-84q-55 0 -55 56v270q0 55 55 55h84q52 0 52 -55v-270q0 -56 -52 -56zM777 4h-84q-53 0 -53 56v270q0 55 53 55h84q54 0 54 -55v-270q0 -56 -54 -56zM557 4h-84q-55 0 -55 56v270
q0 55 55 55h84q54 0 54 -55v-270q0 -56 -54 -56zM311 4h-129l148 696h131zM480 716h-165l-57 -270v175q0 35 -17 52l-13 13q-18 30 -59 30h-84q-71 0 -71 -71v-270q0 -49 30 -64l14 -13q16 -16 51 -16h84q9 0 16 1.5t14 3.5l-60 -299h7l21 -21h156l55 258v-165
q0 -23 7.5 -39.5t22.5 -23.5l14 -14q16 -16 51 -16h84q48 0 59 36q6 -2 5 -2q1 -1 2.5 -1.5t4.5 -2.5l14 -14q16 -16 51 -16h84q67 0 67 69v270q0 35 -17 52l-13 13q-18 30 -61 30h-84q-52 0 -66 -41l-9 10v1q-18 30 -61 30h-84q-22 0 -36 -7l63 295l-21 21z" />
    <glyph glyph-name="FL0160h" unicode="&#x160;" horiz-adv-x="387" 
d="M343 882l-3 -8l22 -19l-64 -139h47v-6l21 -21v-150h-167l159 -386v-1h1v-3q2 -8 4.5 -18.5t2.5 -21.5v-41q0 -101 -102 -101h-223l-21 21h-6v158h163l-154 381q-4 9 -6.5 22.5t-2.5 23.5v47q0 48 21.5 69t61.5 24l-8 11h-3l-70 158h149l3 -9l16 -15l10 24h149zM158 576
h171v124h-210q-42 0 -65.5 -17.5t-23.5 -62.5v-47q0 -9 2.5 -21.5t5.5 -20.5l163 -401h-171v-126h210q43 0 66 21.5t23 66.5v41q0 11 -2 19.5t-4 16.5q0 1 -0.5 1.5t-0.5 1.5v-1q-1 1 -1 3v2zM180 813l-27 53h-114l55 -126h169l55 126h-114z" />
    <glyph glyph-name="FL2039h" unicode="&#x2039;" horiz-adv-x="210" 
d="M189 347l-21 -10v-2l21 -21v-142l-150 69l-17 16l-8 2v189l154 70v-8l21 -21v-142zM30 436v-167l122 -55v114l-51 26l51 25v114z" />
    <glyph glyph-name="FL0152h" unicode="&#x152;" horiz-adv-x="616" 
d="M574 716v-6l21 -21v-150h-175v-103h124v-6l21 -21v-152h-145v-111h154v-6l21 -21v-152h-450q-53 0 -79 26l-5 5l-7 5h1q-41 26 -41 89v520q0 104 107 104h453zM121 700q-91 0 -91 -88v-520q0 -88 91 -88h437v126h-175v164h145v126h-145v154h175v126h-437zM152 574h107
v-444h-107v444zM189 539v-393h54v393h-54z" />
    <glyph glyph-name="FL017Dh" unicode="&#x17d;" horiz-adv-x="387" 
d="M343 882l-3 -8l22 -19l-64 -139h47v-6l21 -21v-140q0 -9 -3 -22.5t-6 -22.5l-146 -358h134v-6l21 -21v-152h-325l-21 21h-6v145q0 11 2.5 22.5t4.5 19.5l146 364h-126l-21 21h-6v156h83l-8 8h-3l-70 158h149l3 -9l16 -15l10 24h149zM38 176q-2 -8 -5 -21t-3 -22v-129h299
v126h-170l162 401q3 8 5.5 20.5t2.5 21.5v127h-299v-124h170zM180 813l-27 53h-114l55 -126h169l55 126h-114z" />
    <glyph glyph-name="FL2018h" unicode="&#x2018;" horiz-adv-x="208" 
d="M166 710v-6l21 -21v-236h-146l-21 19h-6v140q0 104 105 104h47zM30 606v-124h120v212h-31q-89 0 -89 -88z" />
    <glyph glyph-name="FL2019h" unicode="&#x2019;" horiz-adv-x="208" 
d="M41 447l-21 19h-6v244h152v-6l21 -21v-137q0 -52 -25.5 -75.5t-76.5 -23.5h-44zM61 482q89 0 89 88v124h-120v-212h31z" />
    <glyph glyph-name="FL201Ch" unicode="&#x201c;" horiz-adv-x="365" 
d="M323 710v-6l21 -21v-236h-148l-7 7v-7h-148l-21 19h-6v140q0 54 27 79t78 25h49v-6l21 -21v-6q25 33 85 33h49zM185 606v-124h122v212h-33q-43 0 -66 -21.5t-23 -66.5zM30 606v-124h122v212h-33q-43 0 -66 -21.5t-23 -66.5z" />
    <glyph glyph-name="FL201Dh" unicode="&#x201d;" horiz-adv-x="365" 
d="M41 447l-21 19h-6v244h154v-6l1 -1v7h154v-6l21 -21v-137q0 -52 -25.5 -75.5t-76.5 -23.5h-46l-21 19h-6v9q-25 -28 -84 -28h-44zM63 482q43 0 66 21.5t23 66.5v124h-122v-212h33zM218 482q43 0 66 21.5t23 66.5v124h-122v-212h33z" />
    <glyph glyph-name="FL2022h" unicode="&#x2022;" horiz-adv-x="437" 
d="M290 4h-171q-43 0 -66 21.5t-23 66.5v520q0 45 23 66.5t66 21.5h171q43 0 66 -21.5t23 -66.5v-520q0 -45 -23 -66.5t-66 -21.5zM61 -2l5 -5q26 -26 77 -26h169q104 0 104 101v520q0 51 -25 75l-11 11v-1q-27 43 -90 43h-171q-51 0 -78 -25t-27 -79v-520q0 -63 41 -89h-1z
" />
    <glyph glyph-name="FL2013h" unicode="&#x2013;" horiz-adv-x="263" 
d="M30 290v122h175v-122h-175zM14 428v-154h6l21 -21h201v148l-21 21v6h-207z" />
    <glyph glyph-name="FL2014h" unicode="&#x2014;" horiz-adv-x="340" 
d="M14 428h284v-6l21 -21v-148h-278l-21 21h-6v154zM30 412v-122h252v122h-252z" />
    <glyph glyph-name="FL02DCh" unicode="&#x2dc;" horiz-adv-x="318" 
d="M342 866l-3 -8l22 -19l-67 -148h-133l-21 21h-3l-7 -21h-94l-21 21h-8l70 154h138l3 -9l14 -14l9 23h101zM121 779l24 -51h117l55 122h-66l-23 -51l-25 51h-116l-57 -122h66z" />
    <glyph glyph-name="trademark" unicode="&#x2122;" horiz-adv-x="355" 
d="M98 700v-151h-24v151h-44v29h112v-29h-44zM226 603h4l24 126h43v-180h-24v145h-4l-30 -145h-22l-32 145h-4v-145h-23v180h41zM148 533l21 -19h49v10l12 -10h44v6l10 -6h50v204l-21 21v6h-73l-5 -29v2l-20 19l-1 8h-200v-61h6l21 -21h17v-130h6l19 -19h52v149h7v-130h6z
" />
    <glyph glyph-name="FL0161h" unicode="&#x161;" horiz-adv-x="387" 
d="M343 882l-3 -8l22 -19l-64 -139h47v-6l21 -21v-150h-167l159 -386v-1h1v-3q2 -8 4.5 -18.5t2.5 -21.5v-41q0 -101 -102 -101h-223l-21 21h-6v158h163l-154 381q-4 9 -6.5 22.5t-2.5 23.5v47q0 48 21.5 69t61.5 24l-8 11h-3l-70 158h149l3 -9l16 -15l10 24h149zM158 576
h171v124h-210q-42 0 -65.5 -17.5t-23.5 -62.5v-47q0 -9 2.5 -21.5t5.5 -20.5l163 -401h-171v-126h210q43 0 66 21.5t23 66.5v41q0 11 -2 19.5t-4 16.5q0 1 -0.5 1.5t-0.5 1.5v-1q-1 1 -1 3v2zM180 813l-27 53h-114l55 -126h169l55 126h-114z" />
    <glyph glyph-name="FL203Ah" unicode="&#x203a;" horiz-adv-x="210" 
d="M30 328l51 26l-51 25v114l122 -57v-167l-122 -55v114zM41 172l148 67v185l-21 19v5l-154 70v-149l8 -4l16 -15l-24 -10v-149l5 2z" />
    <glyph glyph-name="FL0040h" unicode="&#x153;" horiz-adv-x="616" 
d="M574 716v-6l21 -21v-150h-175v-103h124v-6l21 -21v-152h-145v-111h154v-6l21 -21v-152h-450q-53 0 -79 26l-5 5l-7 5h1q-41 26 -41 89v520q0 104 107 104h453zM121 700q-91 0 -91 -88v-520q0 -88 91 -88h437v126h-175v164h145v126h-145v154h175v126h-437zM152 574h107
v-444h-107v444zM189 539v-393h54v393h-54z" />
    <glyph glyph-name="FL017Eh" unicode="&#x17e;" horiz-adv-x="387" 
d="M343 882l-3 -8l22 -19l-64 -139h47v-6l21 -21v-140q0 -9 -3 -22.5t-6 -22.5l-146 -358h134v-6l21 -21v-152h-325l-21 21h-6v145q0 11 2.5 22.5t4.5 19.5l146 364h-126l-21 21h-6v156h83l-8 8h-3l-70 158h149l3 -9l16 -15l10 24h149zM38 176q-2 -8 -5 -21t-3 -22v-129h299
v126h-170l162 401q3 8 5.5 20.5t2.5 21.5v127h-299v-124h170zM180 813l-27 53h-114l55 -126h169l55 126h-114z" />
    <glyph glyph-name="FL0178h" unicode="&#x178;" horiz-adv-x="446" 
d="M179 691l-12 12h62v7l7 -7h18l-39 -116zM225 740v126h122v-126h-122zM70 740v126h122v-126h-122zM270 352v-348h-124v349l-126 347h126l63 -182l61 182h126zM363 882h-154v-7l-1 1v6h-154v-158h6l8 -8h-68l130 -364v-364h6l21 -21h150v360l131 362l-22 21l2 6h-34v139
l-21 21v6z" />
    <glyph glyph-name="FL00A1h" unicode="&#xa1;" horiz-adv-x="208" 
d="M30 574v126h120v-126h-120zM20 560l21 -21h146v150l-21 21v6h-152v-156h6zM30 4v506h120v-506h-120zM41 -33h146v532l-21 21v6h-152v-538h6z" />
    <glyph glyph-name="FL00A2h" unicode="&#xa2;" horiz-adv-x="385" 
d="M116 48q-19 2 -30.5 9t-21.5 18l-2 2l-7 5h1q-42 25 -42 90v368q0 51 26.5 72.5t75.5 23.5v80h154v-6l21 -21v-53h52v-6l21 -21v-150h-175v-235h154v-6l21 -21v-150h-73v-80h-148l-21 21h-6v60zM152 496h175v124h-71v80h-124v-80h-13q-42 0 -65.5 -18.5t-23.5 -61.5v-368
q0 -45 23 -66.5t66 -21.5h13v-80h124v80h71v124h-175v288z" />
    <glyph glyph-name="FL0030h" unicode="&#xa3;" 
d="M93 420v192q0 88 89 88h100v-126h-67v-154h115v-126h-115v-164h166v-126h-351v126h63v164h-63v126h63zM14 436v-158h6l21 -21h36v-111h-63v-158h6l21 -21h377v152l-21 21v6h-145v111h115v152l-21 21v6h-94v103h65v150l-19 21v6h-116q-105 0 -105 -104v-176h-63z" />
    <glyph glyph-name="FL0282h" unicode="&#xa4;" horiz-adv-x="446" 
d="M207 175v336h24v-336h-24zM170 159h77v389h-77v-389zM161 655h95l14 45h126l-50 -144v-407l50 -145h-126l-14 46h-95l-15 -46h-126l52 145v407l-52 144h126zM0 716l56 -161v-405l-56 -162h7l21 -21h153l13 46h56l9 -25h5l21 -21h153l-55 158v407l55 157l-22 21l2 6h-158
l-16 -45h-59l-4 18l-21 19l-1 8h-159z" />
    <glyph glyph-name="FL002Ah" unicode="&#xa5;" horiz-adv-x="446" 
d="M270 63v-59h-124v59h-82v124h82v38h-82v126h82l-126 349h126l63 -182l61 182h126l-126 -349h83v-126h-83v-38h83v-124h-83zM48 367v-158h6l6 -6h-12v-156h6l21 -21h55v-38h6l21 -21h150v59h83v152l-12 10h12v152l-21 21v6h-49l118 322l-22 21l2 6h-159l-44 -131l-34 104
l-21 19l-1 8h-159l123 -349h-75z" />
    <glyph glyph-name="FL00A6h" unicode="&#xa6;" horiz-adv-x="208" 
d="M30 371v417h120v-417h-120zM30 -84v417h120v-417h-120zM14 804v-449h6l6 -6h-12v-449h6l21 -21h146v443l-12 12h12v443l-21 21v6h-152z" />
    <glyph glyph-name="FL00A7h" unicode="&#xa7;" horiz-adv-x="446" 
d="M207 175v336h24v-336h-24zM170 159h77v389h-77v-389zM20 4l52 145v430q0 76 69 76h115l14 45h126l-50 -144v-430q0 -76 -69 -76h-116l-15 -46h-126zM28 -33h153l13 46h107q82 0 82 89v430l55 157l-22 21l2 6h-158l-16 -45h-103q-85 0 -85 -92v-429l-56 -162h7z" />
    <glyph glyph-name="FL00A8h" unicode="&#xa8;" horiz-adv-x="365" 
d="M14 866h154v-6l1 -1v7h154v-6l21 -21v-148h-148l-7 7v-7h-148l-21 21h-6v154zM30 850v-122h122v122h-122zM185 850v-122h122v122h-122z" />
    <glyph glyph-name="copyright" unicode="&#xa9;" horiz-adv-x="271" 
d="M122 592q-20 0 -33 13.5t-13 36.5t13 36.5t33 13.5q30 0 40 -28l-16 -3q-11 18 -24 18q-15 0 -21.5 -10t-6.5 -26q0 -37 27 -37q17 0 24 22l17 -7q-11 -29 -40 -29zM123 720q-33 0 -59 -23q-19 -23 -19 -55q0 -31 20 -54q23 -23 57 -23q32 0 55 23q21 22 21 54
q0 33 -22 56q-25 22 -53 22zM119 734q42 0 67 -28q27 -32 27 -64q0 -19 -7 -36t-19.5 -29.5t-29 -19.5t-35.5 -7q-40 0 -64 28q-28 28 -28 64q0 21 12 45v-1q28 48 77 48zM119 750q-59 0 -87 -48q-18 -33 -18 -60q0 -41 23 -67h-1q4 -4 8.5 -8t7.5 -7q3 -2 5.5 -5t4.5 -5
l10 -9q32 -26 74 -26q21 0 40 8t33.5 21.5t22.5 32.5t8 42q0 38 -30 73l-9 8q2 -1 -0.5 1.5l-3.5 3.5q-3 3 -5 7l-4 6q-32 32 -79 32z" />
    <glyph glyph-name="FL00AFh" unicode="&#xaa;" horiz-adv-x="435" 
d="M54 3h1q-41 26 -41 89v241q0 54 27 78.5t78 24.5h121v103h-199l-21 21h-6v156h274q31 0 54.5 -10t37.5 -33v1l11 -11q23 -23 23 -69v-627h-271q-51 0 -77 26l-5 5zM30 92q0 -45 23 -66.5t66 -21.5h258v614q0 45 -23.5 63.5t-65.5 18.5h-258v-126h226v-444h-105v164h73
v126h-105q-43 0 -66 -21t-23 -66v-241zM188 257v-111h52v111h-52z" />
    <glyph glyph-name="FL00B0h" unicode="&#xab;" horiz-adv-x="368" 
d="M39 241l-17 16l-8 2v189l156 70v-8l21 -21v-34l135 63v-8l21 -21v-142l-21 -10v-2l21 -21v-142l-152 69l-4 4v-73zM30 436v-167l124 -55v114l-53 26l53 25v114zM186 436v-167l124 -55v114l-53 26l53 25v114z" />
    <glyph glyph-name="FL00B1h" unicode="&#xac;" horiz-adv-x="340" 
d="M14 430h284v-6l21 -19v-215h-150l-21 21h-6v44h-101l-21 21h-6v154zM158 292v-65h124v189h-252v-124h128z" />
    <glyph glyph-name="FL00AEh" unicode="&#xad;" horiz-adv-x="205" 
d="M30 290v122h117v-122h-117zM14 428v-154h6l21 -21h143v148l-21 21v6h-149z" />
    <glyph glyph-name="FL00B6h" unicode="&#xae;" horiz-adv-x="271" 
d="M97 646h19q25 0 25 16q0 15 -23 15h-21v-31zM81 689h46q17 0 24.5 -7.5t7.5 -18.5q0 -19 -27 -25v-4q5 -1 10 -6q2 -3 3 -5t3 -4q1 -1 3.5 -5t4.5 -6v1l7 -15h-21l-7 14q-2 4 -4 7l-4 6l-3.5 7l-1.5 3q-8 5 -17 5h-8v-42h-16v95zM123 720q-36 0 -59 -23q-19 -23 -19 -55
q0 -33 21 -55t56 -22q33 0 55 22q21 24 21 55q0 21 -14 44v-2q-12 19 -27 27q-17 9 -34 9zM119 734q19 0 36.5 -7.5t30 -20t20 -29.5t7.5 -35q0 -19 -7 -36t-19.5 -29.5t-29 -19.5t-35.5 -7q-40 0 -64 28q-28 28 -28 64q0 22 12 46v-1q15 26 36 36.5t41 10.5zM119 750
q-24 0 -46 -9t-38 -33q-21 -38 -21 -66q0 -41 23 -67h-1q4 -4 8.5 -8t7.5 -7q3 -2 5.5 -5t4.5 -5l10 -9q32 -26 74 -26q21 0 40 8t33.5 21.5t22.5 32.5t8 42q0 21 -8.5 40t-22.5 33l-5 5q-14 23 -38.5 38t-56.5 15z" />
    <glyph glyph-name="FL00BAh" unicode="&#xaf;" horiz-adv-x="355" 
d="M14 736h299v-6l21 -21v-148h-293l-21 19h-6v156zM30 720v-124h267v124h-267z" />
    <glyph glyph-name="FL00B2h" unicode="&#xb0;" horiz-adv-x="208" 
d="M71 766h39v46h-39v-46zM30 728v122h120v-122h-120zM20 712l21 -21h146v148l-21 21v6h-152v-154h6z" />
    <glyph glyph-name="FL0196h" unicode="&#xb1;" horiz-adv-x="340" 
d="M14 500h63v65h156v-6l21 -21v-38h44v-6l21 -21v-150h-65v-48h44v-6l21 -21v-150h-278l-21 19h-6v158h73l-4 4h-6v44h-36l-21 21h-6v156zM93 484h-63v-126h63v-63h126v63h63v126h-63v65h-126v-65zM30 259v-126h252v126h-252z" />
    <glyph glyph-name="B" unicode="&#xb2;" horiz-adv-x="659" 
d="M454 398l1 1h-1q-1 -1 0 -1zM446 587h1l5 -5l-4 -1q-2 -2 -3 -2t-2 -1v2q2 2 3 7zM101 558v-5q0 -5 6 -11q0 5 2 5v6zM497 646l12 -10h5v3q0 1 -3 6t-7 8h-3q-4 0 -4 -3v-4zM314 212l10 -9l8 8l-10 10q-1 1 -5 1q0 -1 -3 -4v-6zM355 421l1 -1q3 0 4 -1t3 -1h2q3 0 3 4v1
l1.5 2l4.5 6v6q-7 -2 -13 -6.5t-6 -9.5zM485 128v-6q0 -4 4 -4q6 0 8 6t2 8t-2 4h1l-9 9h-4v-4q0 -6 1 -7v-1q-1 -1 -1 -5zM379 477v-4v-4q10 0 10 9l-1 1h-2l1 1l2 2t4 5v1h2v3q0 3 -3 3t-3 -2q-17 -2 -26 -12l6 -3h10zM295 424v-4h3q2 0 3 4l1 1q3 2 10 8t9 8l3 2v9
q-2 -2 -4 -3.5l-2 -1.5v7q1 1 1 4q0 1 0.5 1.5t0.5 1.5q-3 5 -6 5q-2 0 -3 -1h-3q-5 0 -6 -6l-2 -12q0 -2 -2 -12l-2 -4v1q-1 -1 -1 -8zM520 62h4q10 0 10 9v2q0 2 -0.5 3.5t-4.5 5.5q-2 1 -2.5 1.5l-0.5 0.5q0 4 -3 7t-6 9q-3 3 -3 4l-2 3h-2q-2 0 -6.5 -4t-4.5 -6
q0 -5 4 -5zM309 220v-5l10 10l7 -7q4 -4 8 -7.5t6 -7.5l-5 5h-5l-6 -6l11 -11q8 0 8 6v3l-3 3h3q6 1 6 8l-28 30h-3q-6 0 -6 -6l1 -2l-4 4l-9 -8zM468 348l-1 -4q-5 -17 -12 -31.5t-19 -31.5h44q0 7 -4.5 8.5l-7.5 2.5l21 28v10l-25 -24q3 5 5.5 11t4.5 11l7 14v3q-5 0 -6 1
q-2 0 -3 1t-4 1zM167 579v-58q11 0 15 1.5t6 12.5v6q0 7 1 10q0 2 0.5 4t0.5 4q1 6 1.5 11.5t0.5 9.5q2 4 5.5 7t7.5 6l2 2q5 5 8 9t3 10v9h-2q0 -1 -1 -1v-1v1q-2 -4 -3.5 -6t-3.5 -4q-16 -10 -33 -10q-14 0 -28.5 3t-28.5 11h-7q0 -8 9 -12l1 -0.5t3 -2.5l1 -1q4 -4 8 -4
q2 -2 11 -4q1 -1 8 -3h-1l3 -1l6 -2zM156 326v-4q11 -19 27.5 -35.5t42.5 -23.5l44 -16h-1q1 -1 8 -4q0 -4 4 -8t8 -6h5l16 14l-9 9q-4 3 -7 7q0 2 -0.5 2.5t-1.5 2.5l-2 2t-2 3q-14 14 -34.5 23t-42.5 17q-15 8 -25 21q-1 3 -3.5 7t-9.5 4v-1q-3 0 -3 -4q0 -6 4.5 -11.5
t10 -10.5t11.5 -9l9 -6l27 -11q14 -5 27 -12t24 -23v1q0 -1 1 -1l1 -2h-1l-11 6l-45 17q-19 6 -35 22.5t-28 34.5h-3q-6 0 -6 -5zM400 416h-1q-3 -3 -3 -8h4l10 1l-1 -1q-11 -9 -21 -14t-21 -8l-58 -17q-6 0 -6 -5v-22q0 -2 -2.5 -6t-4.5 -6l-1 -1v-3q0 -4 0.5 -4.5
l1.5 -1.5l3 -3l-3 -20q4 0 6 2q1 3 4 6q1 1 1.5 2t2.5 3l12 17v8l58 29l19 -1q11 0 20 3t17 7h2l1 1l18 9q7 3 10 4.5t16 9.5h3q2 0 10 -2l4.5 -1.5t6.5 -2.5l14 1q7 0 14.5 -11.5t12.5 -21.5q1 -1 0.5 -1.5t0.5 -1.5q0 -4 1 -5q0 -1 1 -1q1 -1 1 -3t1 -3v1q3 -9 5.5 -18
t5.5 -21l1 -1q-2 -5 -7 -6.5t-8 -1.5l-10 3l-10 -32l-14 -12v-5q1 -1 6 -1v-1q1 0 1 -2q0 -6 -7 -7h-2q-11 -3 -13 -5l-13 -14l-38 -27v-3q0 -4 -4.5 -7.5t-10.5 -7.5h1q-1 0 -1.5 -0.5t-1.5 -0.5q-3 -3 -4 -3q-1 -1 -2 -1l-1 -1q0 -2 4.5 -9.5t5.5 -7.5h12q3 0 6 5q0 2 3 2
l1 -1q0 -2 1 -3l2 -2q2 -4 3 -4.5t6 -0.5h13l-3 10q0 5 5 7t10 2h2l2 -2q0 -4 3 -7l5 -5q1 -1 1 -5q1 -1 1 -5t2 -6q1 -1 1 -2l1 -1v-1l5 -2l2 -2q1 -5 4.5 -9t4.5 -5v-8q1 0 1 -3l21 -31q9 -11 14 -22q0 -1 0.5 -1.5t0.5 -1.5q0 -2 1 -3h2q0 -2 3 -5l6 -10.5t4 -6.5
q0 -2 2 -4q-5 -11 -17 -11h-4l-14 26q0 4 -3 7q0 1 0.5 2t0.5 2q0 4 -4 4.5t-6 0.5q-8 0 -8 -8q0 -2 3 -11t5 -11q0 -2 2 -2l7 -15h-44q-1 9 -8 17v-1l-4 9q-11 14 -11 21l1 3q0 16 -13 20l-16 33l-1 1l-12 -4q-4 0 -6 5q-1 0 -2 0.5t-4 0.5l-12 -2l-12 1l-8 -3l-14 3v-10
q0 -6 0.5 -10.5t3.5 -9.5l11 -31h-7l-4 -4q1 -2 2 -2.5l1 -0.5q0 -2 -1 -3q0 -6 -4 -6q-1 0 -4.5 3t-7.5 6l-3 3q-1 0 -2 1q-1 0 -1 1q-1 1 -2 1l-1 1q-11 10 -23 22.5t-14 24.5q0 2 -0.5 2.5t-0.5 2.5q-1 3 -1 12v7q0 9 -1.5 17t-9.5 17q-6 -3 -6 -8q0 -3 1 -4l3 -47
q1 -1 1 -3q0 -1 0.5 -1.5t0.5 -1.5q0 -8 5 -11q0 -4 4 -8v1q1 -2 2.5 -5.5l1.5 -3.5v1q1 -5 5 -8l2 -2l2 -47h-121v2q-1 0 -1 1t1 2l-5 34q-1 8 -1.5 9t-4.5 1h-3q-1 -6 -8 -9l-32 22l-2 31q-1 2 -1 6t-1 5q-1 2 -1.5 5.5t-2.5 8.5l-0.5 3t-1.5 5q-2 6 -2 8q0 3 -1 4
q-6 6 -6 13q0 2 2.5 5.5t5.5 7.5q0 2 2 4l0.5 1t2.5 4l-4 7q-2 2 -4.5 8t-2.5 8v2l9 21v6l-14 11q-1 1 -1 3l-1 1v1q0 2 -1 3q-2 5 -3.5 10t-3.5 7l-8 12l-15 18h-6l7 -18l-2 -2l5 -6q-11 -12 -28 -12q-6 0 -11.5 2t-9.5 8v5q0 1 0.5 1.5t0.5 2.5q1 1 1 9v7q-6 2 -11 8v-1
l-5 5q-2 6 -2 8v9q0 8 5 16q1 7 6 7q8 0 8 6v3q-6 5 -8 8.5t-4 8.5q0 1 -0.5 1.5t-0.5 1.5q-1 5 -3 10l-4 10l-9 13v12l2 5h-1v1l5 4q0 10 -4 17q-1 1 -0.5 1.5t-0.5 1.5v-1q-4 8 -4 16q2 1 4 3h-1q4 2 4.5 3l1.5 3v-1l4 4q0 1 1 2q3 4 6 4l7 -1q2 5 3 6.5t3 3.5l1 1l1 1
q0 1 2 3q0 1 1 2l3 3q5 5 5 14v1h1v1l-3 4.5l-5 7.5q-2 2 -2 3t-1 2l-5 5v4q0 4 -1 5.5t-6 6.5q0 4 3 4q0 3 -1.5 6l-2.5 5v2l-21 55v2h2v8l-1 2l-3 28v17q2 2 2 11v3q0 2 1 2q3 0 7.5 -5.5t8.5 -13t7 -14t4 -9.5q1 -1 2 -2.5t2 -2.5q4 -10 10 -10h1l3 -12q3 -9 3 -18
q1 -1 1 -9q3 -3 5 -15v-4q1 -10 4 -13q1 0 3 -0.5t2 -1.5v-3l-1 -1q0 -6 3 -6h4v5q0 7 -0.5 15t-4.5 19h-1v1v3q-7 10 -7 17q0 4 1 5v1q1 0 1 1v1q1 0 1 1v-1q1 1 1 6v13q0 4 5 7l1 1v19q0 5 -3 13.5t-3 7.5l5 3l-3 3q-2 0 -2 6q0 5 5 6.5t11 1.5h17q4 0 4 -5t-4 -7t-9 -4
q-2 -2 -4 -2.5l-2 -0.5q-4 -3 -4 -7v-11l3 -6q15 10 26 12t22 2q18 0 34 -6.5t28 -27.5q6 -6 6 -21v-36l10 1q2 -1 9 -2t10 -1q4 0 9 5q-2 1 -2.5 2l-0.5 1v6l35 39l13 12q3 0 6 -5q0 -2 2 -2h1q7 1 9 5q2 5 3 5h5q6 1 6 4v1q2 4 8 10q1 1 3 1q5 0 11 5t11 12q2 0 3 1h21
l8 -2q1 0 9 2q1 0 2 0.5t2 0.5q7 3 16 3q14 0 26.5 -6.5t23.5 -16.5q6 -7 7.5 -8.5l3.5 -3.5h3l1 -1l3 -2v-3l6 -2l2 -2v-4q1 0 1 -1q1 -2 7 -4q1 -2 2 -3.5t2 -3.5l18 -22l4 -9h-2l4 -4q2 -2 2 -3v-5q3 0 16 -5h-1q3 -3 8 -4q7 -4 7 -6l2 -5l18 -11q0 -2 0.5 -2.5t0.5 -1.5
q0 -3 1 -4v-58q0 -7 -10 -7q-3 0 -3 3l0.5 1t2.5 3l1 1q2 2 2.5 3.5t0.5 6.5v2q0 3 -0.5 6.5t-5.5 6.5v5q-5 0 -5 -3t1 -3q-2 -12 -9 -12h-3l3 10q0 6 -8 16.5t-11 10.5q-7 0 -10.5 -3t-5.5 -6q-8 -9 -11 -9q-6 0 -11.5 2t-5.5 7l4 4q3 2 6 6t3 17h-3q-2 0 -5 2.5t-7 4.5
q-4 3 -7.5 6t-7.5 3l-7 -1h-2l-54 41l-2 2v-1l-2 6q0 1 -2 1v1v-1q-1 0 -1.5 0.5t-1.5 0.5l-2 2l-15 10v-8l6 -9l-15 4l1 -2t2 -3q2 -2 3 -2l1 -1q1 0 2 -1q1 -2 2 -2.5t2 -1.5l-3 -3q-2 -2 -2 -5v1q-11 -14 -23 -22.5t-26 -13.5q-4 -1 -4 -7q0 -5 -5 -7l-14 -13
q0 -2 -0.5 -3l-0.5 -1l-11 -19q0 -2 -5 -8t-7 -8l-2 -6v1q-3 -5 -3 -8q0 -8 8 -9t14 -1h9l9 9l2 5h1l1 2l1 3q4 4 7 10q2 2 3.5 5.5l1.5 3.5l1 1q2 -2 2 -6v-5h7q10 0 18 6t14 14.5t10.5 18.5t7.5 18h2l0.5 -1t0.5 -3v-6l2 -18h5q6 0 11.5 8.5t8.5 14.5v1h2v-3
q0 -27 -19 -59l9 1v-9q0 -1 -0.5 -2t-0.5 -3v-2h4q0 1 5 4q1 0 2 1l12 18q-1 -17 -12 -35t-22 -29l-25 -26l-1 -1q-2 0 -3 -1zM615 18h2l-9 9v-1l-2 2v3l-5 3v1q-3 7 -6.5 13.5t-7.5 10.5l-19 28q0 8 -1 9v3q-1 0 -1 1l-1 1q-2 2 -4.5 6t-2.5 6l-11 11q0 4 -1 5q0 7 -4 11
h-1l-1 1q-3 3 -3 8l-17 17q-4 4 -4 8l-7 6l16 10l13 12h1l1 1q1 0 2 0.5t2 0.5q8 2 12.5 5t4.5 14q0 3 -1 4v-1q0 1 -1 2l7 6l7 26h2q6 0 17 8t11 20l-2 1q-2 10 -4.5 17.5t-5.5 15.5h1q0 1 -2 3t-3 2h2q0 2 -1 3l-0.5 1.5l-1.5 4.5v1q-3 8 -9 18.5t-12 16.5l-9 8l-1 1
q-7 11 -15 19t-19 8l-13 -1l-4 2q0 1 -2 1q-8 3 -15 3h-1q-5 0 -7.5 -0.5t-6.5 -4.5q-3 -3 -6 -4t-7 -3v-1q-1 -1 -3 -1q-1 0 -2 -1l-4 -2v1l16 16q11 12 23 33.5t12 42.5q0 12 -1 13l-14 12q3 12 3 24v14l-14 13l25 -16q-3 -3 -3 -11q0 -17 14 -22l18 -17q5 -5 11 -6t14 -1
q5 0 13 2h2h2l1 -1q0 -18 13 -19l17 -17h1q3 -4 10 -4l3 -3q5 -5 22 -5v87q0 6 -1 7q0 1 -1 1v1q-1 1 -1 7l-21 20v4l-12 7l-8 7v2l-1 1l-1 1q0 3 -1 6l-3 -1l-5 5q-6 0 -7 1l-20 23q-1 0 -1 2q-1 0 -1 4l-6 6v1l-12 12q-6 7 -8 9v-1q-2 6 -5 7l-4 4v1l-7 5q-2 0 -5 3l-6 6
v-4l-0.5 1.5t-1.5 3.5q-2 2 -3 5q-12 11 -26.5 18t-34.5 7q-14 0 -21 -4h-4q-1 -1 -4 -1l-5 1h-32q-1 -1 -4 -1q-4 -5 -8.5 -10t-6.5 -7q-8 0 -13 -5l-1 -1l-3.5 -3.5t-3.5 -6.5q-7 0 -12 -5h-1h-1q0 1 -1 1q-1 1 -5 1h-9l-17 -16l-26 -29q-2 2 -2 3q-1 1 -1.5 2t-1.5 2h1
q-6 10 -7 12.5t-1 1.5v1q-1 1 -1 2l-17 17q-12 19 -30 25.5t-39 6.5h1l-15 15q-2 14 -18 14h-17q-10 0 -21 -3.5t-11 -20.5q0 -9 5 -17l7 -8q-6 -2 -6 -8v-9q-3 2 -5 7q-4 4 -5.5 6.5t-2.5 4.5l-10 9q-6 9 -13 16.5t-14 7.5q-12 0 -14.5 -2t-2.5 -8v-9q0 -3 -2 -5v-26l3 -29
q-1 -1 -1 -8v-3l21 -56q0 -5 3 -9q-1 -1 -1 -4q0 -1 -1 -1v-1v-8l7 -7v-1q0 -8 7 -15l4 -6l3 -3v-1l-1 -3v1l-2 -2q-2 -2 -2 -4v1l-3 -3v-1l-5 -5q-7 -1 -9 -2.5t-5 -6.5v1l-3 -3l-1 -1q-1 -1 -1 -2q-1 -1 -1 -3q-8 -3 -12 -7q0 -14 1 -19.5t3 -10.5v-2q0 -2 1 -2q0 -3 1 -4
l-2 -2l4 -3v-1l6 -6h-11v-26l14 -23q0 -3 2 -5v-2q2 -11 4 -14l-3 -6q-7 -10 -7 -26q0 -18 4 -29l7 -3q2 -5 3 -5l3 -3v-3q0 -1 -1 -1v-1v-16q5 -11 16 -16l16 -14q6 -6 14.5 -8t14.5 -2q14 0 22 4l5 -4l-5 -15v-5q0 -2 1.5 -8.5t4.5 -12.5q-8 -11 -8 -24q0 -15 7 -22
q0 -4 1 -5q0 -1 0.5 -1.5t0.5 -1.5q1 -1 1 -2q0 -4 1 -6q1 -1 1 -3t1 -3q2 -6 2.5 -10.5t2.5 -7.5l3 -35l12 -10l13 -13l26 -20v-12q0 -9 5 -11l-2 -4h7l18 -18q1 -1 7 -1l2 -2h138l-2 49l8 -8q0 -1 6 -1q0 -1 1 -1l6 -5q3 -2 7.5 -4.5t9.5 -2.5q1 0 5.5 2.5t8.5 6.5
q2 2 4 7h14l-19 52h-2v6l9 3l12 -1l8 1l3 -2v1q1 -3 2 -3l1 -1l5 -7q4 -2 8 -6q0 -12 3.5 -20.5t9.5 -16.5v1q0 -1 0.5 -1.5t0.5 -1.5q3 -5 5 -10t2 -16h6l21 -21h77l-2 5h3q8 0 19 8t11 20l-5 4h1l2 3l-2 1q-2 9 -3 10z" />
    <glyph glyph-name="eight" unicode="&#xb3;" horiz-adv-x="1825" 
d="M334 414q-2 0 -2 2l-3 3q-26 8 -51.5 13t-51.5 9l-4 2l-102 18l-2 2h-2h-2q-2 0 -3 1q-6 1 -10 2t-8 5l-17 16l-9 3q-10 22 -12 35q-1 4 -3 14q-3 12 -6 20.5t-5 14.5h2v-4q-3 1 -3 7l-3 5q-1 1 -1 3q0 1 -1 2q-3 4 -7 18q-5 5 -6 8.5t-2 8.5v2q0 6 -1 7v-1q-3 3 -3 7v1
q0 1 -1 1v1q-1 1 -1 6v50l24 10l120 -4v8q-7 10 -7 21q0 1 0.5 1.5t0.5 1.5q2 5 5 8.5t11 3.5h52v-6l21 -21q0 -16 -3 -23l97 -5q7 -2 19 -2.5t27 -1.5q9 -1 19 -1.5t20 -1.5h9q20 -1 37 -1.5t25 -1.5l344 -18l1 -1h52l229 -14q11 -2 30 -3t31 -1h12q45 -4 91 -17.5t88 -35
t79.5 -50.5t66.5 -65q6 -7 11 -12t10 -12q1 -3 3 -5q0 -2 3 -3q3 -6 6 -9q2 -4 5 -7l6 7h10q14 0 21 -16l16 -16q6 -6 9 -18t5 -26q1 -1 1 -6q0 -4 1 -5l3 -15l2 -12q11 -24 18.5 -41.5t12.5 -37.5q1 1 2 1q1 1 4 1h5q1 -1 3 -1h11v-7l21 -20l10 -62l20 -19l10 -14l12 -12
l17 -23l-1 -1l8 -7q0 -1 2 -3q1 -1 1 -2l1 -1q1 -2 2 -2.5t2 -2.5v1q6 -7 11 -14t5 -15q0 -14 -9 -17t-19 -4l13 -18h-205l-1 1v-6l-167 56l8 -39h-30l-1.5 -3l-0.5 -1v1q-2 -6 -2 -5q-6 -8 -12 -9l4 -4h-58q-5 0 -7 2l-20 19q-3 0 -6 3l-44 -7q-13 -13 -31 -13
q-10 0 -13.5 1.5t-5.5 3.5l-7 7h1q-5 1 -8 5q-3 1 -7.5 4.5t-7.5 6.5h-1l-3 -2q-8 0 -11.5 -0.5t-5.5 1.5l1 -6h-9l-12 -3q-1 0 -1.5 -0.5l-0.5 -0.5l9 -8q2 -3 7 -16q-7 -2 -9.5 -4t-3.5 -3v1l-5 -12h-139l-21 21h-4l-17 17q-2 -6 -5.5 -12.5t-10.5 -6.5h-21q-7 0 -10 3
l-18 18q-6 0 -9 5h-59l-35 -3h-504q-3 0 -5 2l-19 19h-1q-5 1 -10.5 13t-10.5 27t-8 28.5t-3 18.5v2q0 14 19 21l56 -22q3 3 15 8l1 1l8 4h-1l8 5l1 1l163 143l68 -32l169 55v3q-1 1 -1 2t-1 3l-11 20l-332 75v-4h-22l-5 5h-1q-10 0 -13 4zM1192 32q5 0 12 4t9 9l70 11v54h4
v-10h2q1 -4 3 -22q0 -2 0.5 -5t0.5 -6q2 -15 3.5 -27t3.5 -12h52q1 4 1.5 5l2.5 5v-1q1 3 3 5v3l1 1v3h25l-8 45l169 -59q0 17 15 17q6 0 8 -3t3 -12h166l-6 10q0 8 15 8h3q7 1 12 2t5 6q0 1 -6 8t-11 14q-1 2 -2.5 4t-2.5 4v-1l-8 10l-16 22l-26 25q-3 1 -3 3q-5 4 -12 9
l-12 67v-1l-1 1q-5 0 -13.5 -9t-13.5 -17q-1 -1 -2 -1q-1 -3 -5 -7q-5 11 -5 29v19q0 1 -0.5 2t-0.5 3q-5 26 -12.5 45.5t-20.5 42.5v-1q-5 8 -6 23q-2 5 -3 14q0 1 -0.5 2t-0.5 2q-3 17 -6 30.5t-9 13.5h-1l-20 -22l-4 4q-5 5 -13 23v-1q-2 2 -3 5t-3 5q-5 7 -9.5 14.5
t-13.5 16.5q-28 36 -64.5 64.5t-77.5 49t-85 33.5t-86 17h-11q-13 0 -33 1t-31 3l-226 14h-57l-3 1l-338 18q-8 1 -24.5 1.5t-36.5 1.5l-45 3q-17 1 -31.5 1.5t-21.5 2.5l-126 6l-7 1v35q5 5 6 13h-35q-2 -2 -2 -3q0 -2 2.5 -5t4.5 -5v-31l-134 4l-10 -5v-37l2 -4l3 -9
q1 -2 1.5 -5.5l0.5 -3.5q2 -9 6 -10q3 -9 6 -17.5t6 -16.5q4 -10 7.5 -20t5.5 -20q2 -3 3 -13q1 -5 1.5 -9t3.5 -10v1q4 -6 7 -7.5t7 -2.5q1 0 1.5 -0.5t1.5 -0.5q6 -2 7 -2l100 -18l4 -2q32 -4 59 -10.5t56 -14.5q0 -6 4 -6q2 0 3 1h4q1 0 2 0.5t2 0.5l5 -5l10 59h4l7 -58
l338 -75q10 -2 11.5 -3t2.5 -5l19 -39h1v-1q1 0 1 -1l4 -8t6 -17l-192 -63l-64 29l-156 -136q-6 -4 -10 -5h1l-3.5 -1.5t-5.5 -2.5q-5 -2 -8 -4.5t-11 -8.5l-61 23q-4 -1 -4 -5v-2q0 -5 1.5 -16t4 -23t5.5 -21.5t6 -10.5h503l36 3h89q4 -1 4.5 -6t0.5 -10q0 -10 2 -10h21
q2 0 3.5 6t1.5 11q0 6 4 6h61l4 -6l-1 -1v-3q-2 0 -2 -2l12 -7q-11 -3 -12 -10h-17l12 -13h122q1 0 1 2q0 1 0.5 1.5t0.5 1.5l3 3t5 4l-6 2h-3q-5 1 -8.5 3t-7.5 11q1 0 1.5 8t1.5 19v18v5q0 4 1 7h4q0 -8 0.5 -15t0.5 -12q0 -6 0.5 -9.5t0.5 -6.5q5 0 11 0.5t11 1.5l3 1.5
l1 0.5l-1 58h4q0 -5 0.5 -9.5t0.5 -7.5q0 -5 0.5 -8.5t0.5 -6.5v-17q1 0 2 0.5t3 0.5l6 -2l4 -2t4 -1h-1l7 5h6l2 -2q3 -3 6 -4l11 -11v1h2l1 -0.5t2 -1.5q1 -2 2 -2.5l1 -0.5q3 -1 6 -4q6 -6 12 -6z" />
    <glyph glyph-name="FL00B4h" unicode="&#xb4;" horiz-adv-x="201" 
d="M71 866h157l-3 -8l22 -19l-69 -148h-142l-21 21h-8zM81 850l-51 -122h114l59 122h-122z" />
    <glyph glyph-name="FL00B5h" unicode="&#xb5;" 
d="M189 689v-543h54v570h154v-6l21 -21v-621q0 -101 -104 -101h-125v-88h-148l-21 21h-6v816h154v-6zM292 4q43 0 66 21.5t23 66.5v608h-122v-570h-107v570h-122v-784h122v88h140z" />
    <glyph glyph-name="FL0DF0h" unicode="&#xb6;" 
d="M397 716v-6l21 -21v-803h-148l-6 6v-6h-150l-19 21h-6v359q-13 4 -24 17l-2 2l-9 8q-40 25 -40 89v232q0 51 27 76.5t78 25.5h278zM259 576v-653h122v777h-262q-43 0 -66 -21.5t-23 -64.5v-232q0 -80 73 -87v-372h124v653h32z" />
    <glyph glyph-name="FL00B7h" unicode="&#xb7;" horiz-adv-x="208" 
d="M14 428h152v-6l21 -21v-148h-146l-21 21h-6v154zM30 412v-122h120v122h-120z" />
    <glyph glyph-name="FL00B9h" unicode="&#xb8;" horiz-adv-x="167" 
d="M-24 -27h38v43h113v-6l19 -21v-145h-143l-21 21h-6v108zM30 -43h-38v-78h119v121h-81v-43z" />
    <glyph glyph-name="FL0035" unicode="&#xb9;" horiz-adv-x="776" 
d="M384 352v-1q-1 1 -1 8q4 -9 13 -13l-3 2q-3 1 -5 2zM274 256l-3 16l-1 1v2q-4 7 -4 16l8 -8v-2q0 -6 2.5 -8.5t7.5 -6.5l3 -3l8 -7q0 -1 1 -1l6 -5q-13 0 -28 6zM171 160l17 -15q2 -2 3 -3.5t6 -3.5h-7q-11 0 -19 3.5t-19 11.5l-1 1q0 2 -1 2v1q-1 1 -1 5l-3 9v20
q2 -4 5.5 -5.5t5.5 -3.5l3 -3l1 1v-12l3 -3q2 -3 7 -5zM495 205q5 2 16 5.5t15 4.5q7 1 12 11l17 46v6q0 13 -9 13q-10 0 -19.5 -8t-18.5 -17l-6 -6l-10.5 -10.5t-8.5 -4.5q-12 0 -16 3l2 2q1 1 7 5.5t14.5 10.5t16.5 12t13 9q9 6 15 7t14 1h10q7 -4 7 -11v-6l-13 -63h37v-2
q-1 -2 -1.5 -2.5l-0.5 -0.5h-37l-24 -80q-5 0 -7 -0.5t-7 -2.5q-2 -1 -6 -1t-6 -1q-8 -2 -10 -2t-2.5 -0.5t-1.5 -0.5h-1v1l43 76l-41 -13q0 5 1 10t6 9zM187 504q0 5 1 8.5t3 9.5q3 8 4 10.5t4 8.5h1l6 12l2 4l17 38v1l35 -73q2 -5 2.5 -7.5t0.5 -8.5q0 -17 -9.5 -29
t-26.5 -12t-28.5 9t-11.5 29zM601 252v8q0 4 -1 9t-5 9l-15 15q-2 11 -17 18h-6l85 75q1 -3 1 -16v-20q0 -34 -8.5 -66t-22.5 -61l3 8h-20zM171 507v-3q0 -34 24 -47l14 -13q15 -15 41 -15l-144 -109v8q0 108 65 179zM395 607q23 0 42 -4t39 -9l-179 -132q3 9 3 21
q0 8 -0.5 10.5t-3.5 9.5l-35 73q58 31 134 31zM470 126v-20h6l8 -9q-51 -25 -112 -25q-20 0 -40 2.5t-39 8.5l172 147l10 -10q1 -2 2 -2.5t3 -2.5l1 -1q-7 -8 -8 -20.5t-1 -23.5v-4l5 1l9 -11zM123 124l5 -4l16 18q12 -8 21.5 -12t24.5 -4q26 0 42 10t33 27h-11q-5 0 -6 -1
h-6q-2 0 -3 -0.5t-3 -0.5h-4q-15 0 -29 4t-25 14l0.5 0.5t0.5 1.5l4 4q2 5 5 5l69 62q8 -7 18.5 -10.5t27.5 -3.5q4 0 13 2t18 5t16 7.5t7 9.5q-28 0 -56 16q-1 0 -5 4q-3 1 -5 2t-3 1h2l75 62l10 -3h-1q1 -1 1.5 -0.5t1.5 -0.5q8 -3 16.5 -6.5t16.5 -3.5q16 0 28.5 6.5
t22.5 16.5q-5 0 -17.5 0.5t-15.5 1.5q-6 0 -18 3.5t-13 11.5l71 61l3 -1h-1q9 -5 17.5 -8.5t17.5 -3.5q1 0 7 1.5t13 4t12 6t5 8.5q-14 0 -26.5 2t-23.5 10l3 2q4 3 12 9.5t17 14t16.5 14t10.5 9.5q1 1 1.5 2t2.5 3l1 1h2l1 -1t4 -2q1 -1 3 -1q1 0 1 -1h1h-1q5 -4 10.5 -7
t14.5 -3q11 0 19 2.5t19 10.5h-10q-11 3 -21.5 6t-18.5 14l2 2q-1 -1 2.5 1t8 5t10 6.5t9.5 6.5h-1q3 1 7 5h-1q2 1 3.5 2t3.5 2q5 0 5 5v2q-3 3 -9 3l-46 -27l-1 4l-3 6v-1l-2 6v32q-5 0 -9 -5t-7 -11.5t-4.5 -13t-1.5 -9.5q0 -2 0.5 -5t1.5 -8q1 -2 1 -11l-71 -50
q-2 2 -3 7t-1 7v31q0 10 5 15h-9q-7 -5 -8.5 -6.5l-3.5 -3.5q-1 -1 -1 -3v1q-5 -8 -6.5 -19.5t-1.5 -20.5l3 -30q0 -1 -2 -1l-64 -49l-8 -5q-2 2 -3 9t-1 8v16q0 8 3 17q4 8 4 19v3q-22 -10 -28.5 -27.5t-6.5 -36.5v-8q0 -20 2 -26l-78 -59q-2 1 -2.5 6t-0.5 11v12
q0 13 3.5 26t14.5 28h-5q-2 -1 -10 -4t-10 -5q-15 -10 -23 -27t-8 -38q0 -15 4.5 -24t4.5 -18l-79 -75q-8 7 -9 21.5t-1 22.5q0 10 2 19t5 19q0 2 0.5 2.5t0.5 2.5l1.5 2.5t3.5 6.5q-29 -12 -41 -35.5t-12 -49.5v-20l3 -7q0 -3 1 -4q0 -1 0.5 -1.5t0.5 -2.5v-1q1 0 1 -1
q2 -8 2 -9v-1l-15 -14zM69 352v-25q0 -11 3 -23t9 -22l435 319v4q-37 20 -72 29.5t-73 9.5q-62 0 -117 -21.5t-96 -60t-65 -92.5t-24 -118zM234 90l2 -2q2 0 3 -1l1 -0.5t2 -0.5q7 -4 11 -4q28 -11 57.5 -18.5t61.5 -7.5q61 0 113.5 24t91 64.5t60.5 93.5t22 112
q0 69 -10 90l-2 4q0 4 -4 4q-3 0 -4 -1l-405 -350v-7zM24 65l70 73q-38 45 -56 98.5t-18 110.5q0 75 27 138.5t73.5 110t108 73t131.5 26.5q85 0 149 -33.5t123 -94.5q15 11 28 25t25 29h1v1l38 10q-4 -5 -11.5 -15.5t-12.5 -15.5q0 -3 -5 -5q-6 -6 -16 -10l-8 -4
q-6 -1 -15 -10q-2 -2 -6 -5.5t-9 -6.5h1v-3q35 -42 52 -96t17 -114q0 -70 -27 -132.5t-73.5 -109.5t-109 -74.5t-134.5 -27.5q-75 0 -135 26.5t-112 77.5h-7l-68 -69l-1 1q-6 5 -13 12t-7 14zM46 15l7 -6v1l1.5 -2t2.5 -3q0 -1 5 -3h-1l8 -8l71 72l4 -4q100 -96 247 -96
q74 0 139 28t113.5 77t76.5 113.5t28 138.5q0 60 -16 114t-48 97l13 13q9 3 19.5 8.5t15.5 9.5q1 1 2 2.5t3 3.5v-1q4 4 8 10l8 12v-1q1 1 1.5 3t2.5 4v-1l2 2q0 1 1 2l19 19l-22 22l7 7h-42l-43 -12h-3l-2 -2h-4v-5q-15 -19 -39 -40q-59 57 -123 89t-148 32
q-74 0 -139 -27.5t-113 -76t-76 -115t-28 -145.5q0 -58 16 -111t51 -98l-63 -65v-8q0 -11 9 -21.5t17 -18.5l11 -11z" />
    <glyph glyph-name="FL00BCh" unicode="&#xba;" horiz-adv-x="525" 
d="M204 131v1l-1 -1q1 2 1.5 2.5t1.5 2.5zM247 556l-1 -1l1 -1v-1h1v3l-1 -1v1zM125 373l29 30l-20 -23q-1 -1 -9 -7zM389 351l4 -11q2 -2 2 -8h6l1 24l-4 6zM127 350l-2 2q-7 -3 -9.5 -4.5t-6.5 -3.5q-13 -5 -26 -12t-13 -18q8 0 12 2.5t7 5.5q1 3 7 7h-1q1 0 1.5 0.5
t1.5 0.5l5 3l5 2q6 2 5 2q4 2 6.5 3.5t7.5 9.5zM389 423v-26q0 -21 14 -21v12q0 11 -0.5 21.5t-5.5 21.5zM309 165l-4 8h-2q0 -1 -2 -3q-2 -7 -5 -15.5t-3 -13.5q3 -18 3 -27l-1 -18q1 -1 1 -5v-63v-24h-47l-12 39q-1 5 -3 6t-4.5 1.5t-5 3.5t-4.5 12l-9 58q7 5 9.5 13.5
t2.5 17.5q0 12 -5 12t-6 -7l2 -10l-6 -11q1 1 1 7l-1 24l11 11l2 6v2q0 4 -1 5v19q0 11 -1 15.5t-2 6.5v1h-2l-6 -12v-6q0 -1 -1.5 -8t-3.5 -16l-4 -18t-4 -14l3 38q2 5 2.5 11.5t0.5 8.5v6h-1v75l7 31q10 1 10 21v6l-4 10l-29 -57q-5 -5 -5 -11l3 -26q0 -10 -3 -10h-2
l-3 12h-8l11 -29q0 -7 -3 -7h-2q-3 0 -6.5 4.5t-6.5 11.5t-5 13.5t-2 11.5v4q0 3 1 4q1 4 1.5 7.5t0.5 8.5l-7 12q1 3 2 7t3 9q1 2 1.5 4t1.5 4q4 9 4 23q0 2 -6 8q9 9 20 12v5q0 6 -6 6h-2l-5 -5l-11 -11t-11 -17l4 -2q2 2 4.5 5.5t6.5 6.5q0 -2 -0.5 -3t-0.5 -2v-3
q0 -1 -0.5 -1.5t-0.5 -1.5q-1 -3 -1.5 -5l-0.5 -2q-7 -2 -8.5 -2.5t-5.5 -1.5q-3 -3 -4 -7l-53 -36h-3q-3 0 -6 3q-4 4 -10 4q-5 0 -10 -6t-7 -15l-3 -17l2 24h-14q2 0 3 1q4 0 5 1q2 0 3 0.5t3 0.5v6l-6 4q14 1 20 8t11 15l1 1q0 1 1 2q7 12 10 12l16 -1q11 0 19 3t16 8
l22 23l12 15q7 7 9 8l1 1q1 0 2 1q5 3 8.5 6.5t3.5 10.5l-2 2l-11 -2l-8 -8q1 0 1 1q1 2 2.5 4.5t2.5 4.5v-1q6 11 15 17v11l12 36h-8l-6 2v5q0 23 11.5 41.5t31.5 29.5l3 5q0 2 4 6v-1q7 6 13 6q13 0 13 5l-12 54q0 23 13.5 40.5t39.5 17.5q17 0 26.5 -11t14.5 -28l8 -54
v-1q0 1 -1 -1.5t-2 -4.5v-1q0 -9 12 -13.5t19 -4.5q8 0 15 10q4 10 5.5 17.5t3.5 13.5q2 8 4 15t4 10q7 21 9 39.5t2 38.5l2 -8q0 -1 0.5 -2t0.5 -2q2 -12 7 -26.5t21 -14.5v2h7q1 0 2 0.5t2 0.5q4 3 10 3q-2 -5 -10 -12.5t-17 -15.5l-8 -8q-5 -5 -9.5 -8.5t-6.5 -10.5v1
q-2 -2 -2 -5q0 -2 -1 -3q-2 -9 -3 -10l-13 -31q4 -5 7.5 -8.5t7.5 -6.5q9 -6 13.5 -11.5t7.5 -16.5l-1 -48v-3h-7v-10q1 -1 1.5 -2l0.5 -1v-7l5 -7v1q1 -3 1 -8v-4q0 -3 1 -4v1q0 -1 0.5 -1.5t0.5 -1.5l4 -15v-21q5 -5 5.5 -7t0.5 -4v-8q0 -2 -1 -3l-11 -46q-5 -5 -5 -13
q0 -4 -7 -5v-22q-3 -3 -4 -9q-1 -2 -1.5 -3.5t-1.5 -3.5v1q-1 -1 -1 -5l-3.5 -7t-6.5 -6h-9l-4 -5l-10 -1q0 -13 -4 -26q-3 -15 -3 -23v-29l-6 -34l-7 -86q-9 -14 -13 -26t-4 -29h-46v20v33q3 3 3 12l-3 12q0 2 0.5 5t1.5 8q1 2 1 11v60zM198 99l6 -36q6 -25 17 -28
q0 -1 1 -1l16 -46h5l21 -21h125q0 20 3.5 33t11.5 27l7 92l6 34v33q0 4 3 19q0 6 1 8q0 5 1 7l7 1l5 5h7q15 11 19 29v2v1l7 7v18q7 3 7 16l4 4l11 48q2 6 2 10v9q0 5 -0.5 8.5t-5.5 8.5v16l-3 10q-2 5 -2.5 8t-1.5 14q0 5 -3 8l-1 1q0 1 -1 1v1v1h6v13q0 4 -1 5l1 49
q-4 18 -14 28l-13 13q-3 3 -4 6l-2 1l4 11q4 5 6 9t3 9h1q2 8 7 12t10 9l6 6q11 10 21 22.5t10 29.5l-22 19q1 1 1 8q-20 0 -29 -3q0 2 -0.5 2.5t-0.5 2.5q-1 5 -2 9.5l-1 4.5l-21 21v-1q-3 5 -5.5 8.5t-9.5 3.5h-16q0 -26 -2 -46t-7 -40q-2 -7 -4 -13.5t-4 -13.5v-2
q0 -1 -0.5 -1.5t-0.5 -1.5l-2 -6v1q-1 -1 -1 -5l-2 -6l-4 34q-8 24 -18 34l-10 10v-1q-9 14 -19.5 22.5t-29.5 8.5q-34 0 -51.5 -22.5t-17.5 -54.5l9 -41q-14 -5 -19 -10q-1 -1 -1 -3h-1l-1 -1.5t-2 -3.5q-22 -14 -35.5 -35.5t-13.5 -48.5v-4q0 -13 10 -17l-8 -21v-3
q-3 -3 -7 -9t-4 -8v1l-4 -4q-6 -9 -12 -15l-51 -52l-15 1q-10 0 -14 -5t-9 -14v1q-1 -1 -1 -2v1q-1 -1 -1 -2l-1 -1v-1q-5 -6 -9 -10.5t-11 -4.5h-52l26 -19l2 -2q-1 -1 -2 -1h1q-4 -2 -6.5 -3.5t-3.5 -2.5q-2 -2 -6 -4.5t-8 -5.5q-2 -2 -3 -2t-6 -5h17l21 -21h10l-2 -22h6
l21 -21h24l8 46q1 0 1 2l2 8h1q6 -6 16 -6h9l27 19v-8q0 -6 3.5 -15t9 -18t11 -16t10.5 -8l14 -14l-1.5 -3l-0.5 -1l-4 -66h4l4 -4q0 -1 -1 -1v-1q-1 -2 -2 -3t-1 -3q-1 -2 -1.5 -2.5t-1.5 -2.5l8 -19h4z" />
    <glyph glyph-name="FL00BBh" unicode="&#xbb;" horiz-adv-x="368" 
d="M191 353l3 -3l-3 -2v5zM186 328l53 26l-53 25v114l124 -57v-167l-124 -55v114zM30 328l53 26l-53 25v114l124 -57v-167l-124 -55v114zM175 193l22 -21l150 67v185l-21 19v5l-156 70v-70l-156 70v-149l8 -4l16 -15l-24 -10v-149l5 2l22 -21l129 56v-37z" />
    <glyph glyph-name="F" unicode="&#xbc;" horiz-adv-x="1143" 
d="M513 465q-6 11 -11 24t-7 26q-1 2 -1 15v32q0 27 -6 55t-30 50l-5 6q0 9 6 16t14 12t16 7.5t13 2.5h16q8 0 15.5 -2t17.5 -8q0 -1 -0.5 -1.5t-0.5 -1.5v-3l21 -20q-6 -13 -12 -19q33 14 75 14q30 0 55.5 -11.5t40.5 -35.5l9 -9q8 -8 13.5 -16.5t8.5 -22.5l7 -6
q5 -11 7 -18.5t3 -10.5q1 -5 2 -8.5t3 -7.5v53l2 2q0 1 1 2l-2 2q-2 2 -3 2.5t-2 1.5l-31 66v111q12 0 24 -5l1 1q2 -4 4.5 -6.5l3.5 -3.5q0 -1 1 -2q0 -2 2 -2l3 -3q8 -8 15.5 -16t12.5 -16q14 -17 25.5 -35.5t13.5 -43.5v-10q0 -11 0.5 -25.5t2.5 -23.5v-3l9 -9q0 -1 1 -2
v-1q3 -6 11 -22.5t12 -27.5v1l2 -2v-3h1l2 -3q0 -1 1 -2v-2q0 -1 2 -3v1q1 -1 0.5 -1.5t0.5 -1.5l4 -11l1 -2q0 -3 -2 -11h4l-2 -2q6 -4 14 -10q4 3 9.5 6t14.5 3t22.5 -2.5t21.5 -10.5q1 -1 3 -5t6 -11v1l1 -1l15 -13q9 -12 11 -32v-2q1 0 1 -1v-1q0 -3 1 -4v-1h1
q0 -1 1 -2l1 -1q17 -29 29 -67.5t20 -76.5l5 -1q12 0 15 -10h1l19 -19q2 -2 2 -7l4 -39q-7 -7 -8 -10l-1 -1q0 -3 -1 -4v-2l10 -62v-3q0 -7 -5 -12.5t-12 -9t-14.5 -5.5t-11.5 -2q-27 0 -44 17l-13 12l-1 1h1l-4 2q-2 -1 -2.5 -1.5t-2.5 -1.5q-2 -2 -4 -2t-2 -2q0 -3 1 -4
l1 -1v-2v-1q1 0 1 -1q2 -3 3 -5t1 -7q0 -11 -7 -19v-2v-9q0 -8 1 -11h2h2q2 -7 3.5 -17t1.5 -27h-436l-14 14l-3 -1q-11 -3 -23 -3q-17 0 -27.5 4t-21.5 9v-1q-10 1 -10 4h-2l-11 4l-19 18l-1 1q-3 0 -4 1l-89 86h1q-11 7 -13 12t-2 10q-1 1 -1 5q-1 0 -1 2v2l-9 9
q-7 7 -12.5 15.5t-5.5 21.5v4v3v1l-1 1q-5 2 -10.5 6t-8.5 11q-4 5 -4.5 10.5t-0.5 9.5q-4 14 -7 20l-4 11v1q-7 12 -8 19q-4 2 -7 5h1q-51 5 -97 7t-94 3l-1 1h1q-9 5 -13.5 8.5t-6.5 5.5l-9 8q-15 11 -22 20t-7 28q0 4 1.5 11.5t5.5 14.5t10 12t14 5h68v37h63q0 -2 0.5 -3
t0.5 -2v-1q0 -2 1 -2l4 -3h19l5 7h35q4 0 9.5 -2.5t7.5 -11.5v1l2 -2h91v-6l21 -21v-23h2h11l1 -1h12q5 0 8 -1t11 -1q2 0 2.5 -0.5t2.5 -0.5h6q11 -2 20.5 -2.5t12.5 -0.5h1l15 5q15 5 25 5q8 0 14.5 -0.5t14.5 -1.5h7q1 -1 5 -1q-2 5 -3.5 9.5t-3.5 12.5q-1 0 -1 2v2
q-1 4 -3 14q-2 6 -2 5q-2 8 -3.5 13.5t-2.5 9.5q-2 1 -7 13q-1 1 -1 2q-3 3 -3 8zM557 20q8 0 10 -4t3 -10v-2h410q0 8 -5 26q-5 15 -5 25t4 14q3 4 3 7q0 2 -3 7q-4 4 -4 14q0 4 9.5 10.5t17.5 11.5v7l4 -6q0 1 2 1h-1q1 1 4 1h4q0 -8 3 -14v1l20 -19h-1q12 -5 23 -5
q6 0 18 4t12 12v2l-10 62v7l4 8q2 2 3.5 6t2.5 4l-3 15l-1 1v-4l-7 7l-4 2l-11 10q-1 1 -5 1q-4 2 -7 3l-2 2q-8 40 -20.5 87t-35.5 83q-1 0 -1 2q-1 1 -1 3q-1 1 -1 5q0 5 -1 6l-2 10t-4 10q-1 1 -7 1h-6q-8 0 -12.5 -3.5t-8.5 -7.5q-1 -1 -3 -1q0 -1 1 -1q0 -3 3 -4l-4 -4
l-10 7l-16 15h-8q-1 1 -1 3q0 1 -1 2q-6 1 -8.5 2.5t-4.5 3.5l-9 9q-12 2 -19 6t-7 16q0 6 4 13q5 8 5 11l-1 2q0 2 -2.5 6.5t-4.5 8.5l-1 2l-2 4l-3 6q-2 5 -4.5 11t-4.5 12v-1l-21 23l1 3q-4 3 -6 8q4 1 4 5v4q-2 8 -2.5 24t-0.5 27v10q-2 19 -14 36t-26 34v-96l18 -37v1
l3 -3q3 -2 3 -9v-2l3 -8l12 -11v-3q0 -3 -0.5 -4.5t-3.5 -5.5v-74q3 -3 5 -6.5t2 -11.5v-3l10 -10q0 -1 0.5 -2t0.5 -2q2 -6 2 -5l2 -2q0 -3 -1 -4q0 -3 -1 -4v-2h-1l-2 -2q-1 -2 -1.5 -4t-2.5 -4h-33l-15 15h-7q-5 0 -8 5t-5 12l-0.5 1t-0.5 2q-1 1 -1 4q0 1 -1 2v4
q0 7 5 10q5 5 5 6v4l-3 12h-1v2q-2 5 -3.5 8.5t-1.5 7.5q-2 5 -4 11t-4.5 14t-6 20.5t-9.5 30.5l-6 3q-6 26 -26 45h1q-26 8 -44 8q-33 0 -61 -9.5t-49 -33.5l3 -6l6 -6l-22 -1l-17 15q5 -14 6 -29t1 -31v-16h2q13 5 26 8t27 5q2 1 13 1q14 7 29.5 11.5t26.5 6.5q3 1 7 2
t2 0l26 -26l-5 -6l6 -6h-9q-1 -1 -5 -1q-1 0 -1.5 -0.5l-0.5 -0.5l-13 -5l-1 -1l-1 2l3 3l-3.5 -2t-14.5 -9q-10 -2 -13 -2q-5 0 -7 -1q-3 -1 -7 -1q-1 0 -7 -2q-2 0 -2.5 -0.5t-2.5 -0.5q-1 -1 -4 -1q-14 -9 -14 -18v-5l14 -14q-4 0 -7 -0.5t-5 0.5l18 -78l18 -17l-11 -13
l8 -7l-3 -2l8 -7h-39q-4 0 -6 2l-6 5h-3q-1 0 -1.5 0.5t-1.5 0.5q-7 0 -8 1h-2q-8 1 -14.5 1.5t-14.5 0.5q-15 0 -25 -6h-1l-13 -4h-2q-3 0 -12.5 0.5t-20.5 2.5q-3 1 -12 1t-11 1q-2 0 -3.5 0.5t-3.5 0.5h-14q-3 0 -4 1h-6l-1 -1h-9q-2 0 -8 -2l2 -1l-6 -9q3 -6 3 -12v-5
q0 -1 -0.5 -2t-0.5 -3l-21 8l-14 14l-2 -2v4l-8 8l4 4v-1q0 2 1 3t2 3h-16l-24 24v-1q0 -4 -6 -4q-4 0 -4 4q0 5 4 5q2 0 4 -2l2 2v9h9l2 2l2 -2h22v7h-56q0 -1 0.5 -1.5l0.5 -0.5v-2h-3l-3 3l-6 3l-13 13h-21v-1l5 -4l-12 -9h30q10 0 10 -7q0 -11 -10 -11t-21.5 2t-22.5 4
q-1 0 -1.5 0.5t-1.5 0.5q-2 1 -7 1v10h24l-7 7h-25l-11 11h-40v-9h14v2h14l26 -26h1l-8 -8l5 -5h-9v-5l-5 5h-42l-9 9h-62q-12 0 -18 -14t-6 -22v-3q1 -4 7 -6v-1h1q48 -1 95 -3t98 -7v3l3 -3h-1q1 -1 11 -1v-4q0 1 3 -2t11 -16l3 -4l1 1h1q3 0 5 -9v-3q0 -1 0.5 -1.5
t0.5 -1.5v1l24 -23h-6l-1 -1h-3l4 -10l4 -10q4 -4 4 -7q2 -3 2.5 -6.5t2.5 -6.5l2 -8h2v-5q2 -2 7 -2q1 0 1 -1h1h5q4 0 4 -6v-5l18 -18l-3 -3q0 -5 -4 -5h-2l-2 -6v-2q0 -1 2 -1q2 -2 4 -4.5t5 -6.5l2 -6v-2l1 -1v-5l12 -11l1 -1v-2l2 -4v1l82 -80q2 -2 5 -2q2 -1 4 -1.5
t5 -1.5q11 -5 21.5 -8.5t26.5 -3.5q10 0 21 3q2 0 3.5 0.5t3.5 0.5q10 2 12 2zM468 224v-9q3 -1 8 -1h6h9l2.5 2t6.5 6v-11h-1q-1 -2 -2.5 -5.5l-1.5 -3.5v1q-1 -4 -2 -4l-8 -12t-9 -13h-10l-54 50h56zM555 83l-3 -28q-2 -1 -8.5 -3.5t-8.5 -5.5h-43v7l14 9l44 26zM449 64h1
q6 0 12 -6l5 -5h-7q-12 0 -12 10zM447 64q0 -4 -3 -4q-5 0 -5 4t4 4t4 -4zM803 449v-1v-1l2 4v5q0 2 -4 6v-2q0 1 2 -7v-4zM479 29v-2l-2 -4l-4 4l4 4zM535 642q2 1 2.5 1.5t2.5 1.5q-4 0 -5 -3z" />
    <glyph glyph-name="s" unicode="&#xbd;" horiz-adv-x="1716" 
d="M16 500h257l-30 39q-11 14 -13 27.5t-2 32.5v4q0 18 7 37.5t19.5 36t30.5 27t40 10.5h505v-6l21 -21l8 27h213l1 -7l21 -20l81 -266v293h264q30 0 52 -15t36 -38l5 -4q17 -17 27 -40.5t10 -47.5q0 -26 -4.5 -41.5t-15.5 -27.5h125v-6l21 -21v-141h-21l4 -4l17 -18v-117
h-156q1 -1 2 -1q2 -5 6 -5q20 -20 34.5 -47.5t14.5 -60.5q0 -18 -7.5 -38t-21 -36.5t-31.5 -27t-39 -10.5h-297l-36 10l-24 22l-3 1l-41 37v-70h-157l-9 9v-9h-133q-5 0 -8 3l-18 18q-9 5 -15 13q-2 2 -5 10h-81l-14 -44h-148l-21 21h-7l-6 -21h-120q-5 0 -8 3l-18 18h1
q-8 2 -15 13.5t-13 29.5l-19 -64h-134l-21 21h-5l-113 367h7v145zM1189 333h-261v-329h131v92l89 -83l31 -9h294q17 0 32.5 9.5t27.5 23.5t19 31.5t7 34.5q0 35 -20 63.5t-46 50.5v13h165v96l-12 13h-189q-23 0 -44 -7t-36.5 -20t-24.5 -32t-9 -42q0 -18 4 -31.5t11.5 -26
t17.5 -24.5t22 -26v-9h-171q-1 0 -5.5 1.5t-6.5 3.5v6q1 2 5 6q5 4 13.5 12.5t16.5 20t13.5 26t5.5 31.5q0 13 -5.5 31.5t-16 34.5t-25.5 27.5t-33 11.5zM310 484h-278v-115h354q16 0 29 10t23 25t15.5 32.5t5.5 32.5q0 34 -21.5 62.5t-43.5 50.5v11h153v-224h122v217l8 9
h137v103h-489q-18 0 -33 -9t-25.5 -22.5t-16.5 -30.5t-6 -33v-4q0 -14 1.5 -25.5t10.5 -22.5zM155 339h-125l103 -335h114l40 124q5 -5 9 -19t9 -30q2 -5 2.5 -8.5t2.5 -8.5q7 -23 12.5 -40.5t7.5 -17.5h109l101 335h-118q-2 0 -3 -2.5t-6 -17.5q-2 -2 -7 -19t-9 -32
q-3 -4 -4.5 -7t-3.5 -5l-3 3l-24 68h-2l-2 5q-5 4 -8 5.5l-3 1.5h-115q-9 0 -15 -16.5t-11 -34.5q-3 -8 -4.5 -12.5l-6.5 -19.5q-4 1 -6 4.5t-2 6.5q-2 3 -5.5 12t-6.5 19.5t-6 20t-4 14.5zM1439 698h-248v-329h127v83h8q4 -5 13.5 -14.5t21 -20t21.5 -19.5t15 -12
q1 -2 6 -5t10 -5.5t10 -4.5t6 -2h229v115h-177l-7 10q16 14 27 24.5t18 21t10 23t3 30.5t-7 36.5t-19.5 34t-29.5 25t-37 9.5zM600 323l-99 -319h121l17 44h119q0 -2 1 -7t2.5 -10t3.5 -9.5t3 -5.5q1 -2 2.5 -7t2.5 -5h120l-0.5 0.5t-0.5 1.5q0 4 -2 11.5t-5 10.5l-92 295
q-2 5 -6 10.5t-10 5.5h-158q-15 0 -19 -16zM1037 380v1q2 -2 2.5 -3.5t2.5 -8.5h117l-100 329h-189l-100 -329h124l1 4l2 8q2 0 4 8q1 1 1 3t1 3q2 6 4.5 12t7.5 6h105q1 0 9 -12v-2q1 -2 2 -4.5t2 -4.5zM709 559l-3 -3v-201h43l61 204h-101zM819 320q3 -3 10 -17l3 -6
l80 -258v293h-107q2 -2 4 -2zM1306 204q0 -21 -6.5 -37.5t-16.5 -29.5h85q-20 23 -30.5 45t-10.5 56q0 45 24.5 73t62.5 37l-1 2h1q-14 4 -15 8t-7 8l-6 6q-5 2 -8 5l-6 6q-2 2 -3.5 3t-3.5 3h1q-4 2 -7 5q-1 1 -2 1.5t-2 1.5v-65h-120q6 -6 12.5 -12t12.5 -16l5 -6
q20 -20 30.5 -46.5t10.5 -47.5zM496 445q0 -22 -10 -47.5t-28 -42.5h73v203h-94q22 -23 40.5 -50.5t18.5 -62.5zM1402 603q14 0 14 -19q0 -17 -14 -20.5t-27 -3.5h-21h-10h-10q-3 1 -7.5 3t-4.5 6v34h80zM1115 244q16 0 27.5 -3.5t11.5 -22.5q0 -5 -2 -11t-12 -6h-78v35
q0 6 9 7t18 1h26zM702 228l22 -72q2 -2 2.5 -6.5t0.5 -6.5h-54l22 78zM971 586l1 -1q6 -18 9.5 -28t5.5 -16.5t3 -11.5t3 -13l1 -8h-54l23 78h8zM938 364v-1q-1 -1 -1 -5l-3 -9h107l-4 4h-4q-3 5 -5 8t-3 5l-4 6l1 1l-3 3h-80v-6q0 -4 -1 -6zM400 329l1 1v2h-20l14 -15
q1 7 5 11v1zM583 328l-78 -257l79 257v4h-5zM201 326l2 6h-15l11 -11q0 -1 2 5zM389 256l-7 -10.5t0.5 0.5t4 5.5l2.5 3.5v1zM204 333q1 3 0 1v-1zM390 255h-1l1 1v-1z" />
    <glyph glyph-name="FL0F6Bh" unicode="&#xbe;" horiz-adv-x="663" 
d="M237 94h1h-1zM611 128l1 1v1q-1 -1 -1 -2zM295 206l1 -1q-1 0 -1 1zM445 580v-1l0.5 1l1.5 3h2q-1 -1 -2 -1l-3 -6v1q0 2 1 3zM114 395l-1 -1h2l2 -2v2h1v5l-1 -1v2l-4 -4zM279 608h10v7h-6q-4 0 -4 -4v-3zM185 429l9 -8v-1l1 -2l2 -5v-2l-8 9l-1 1v1q-4 6 -10 10l-9 10
q4 -5 8 -8t8 -5zM531 345v-2q0 -4 2 -4q1 -1 6 -1l-1 3q6 0 6 3v1q0 11 -6 11q-7 0 -7 -11zM326 300v-5h1q0 -2 4 -2l2 -2q0 -3 6 -3h4v23h-4q-3 0 -8 -2.5t-5 -8.5zM344 68v7q0 2 0.5 3.5t0.5 3.5v10q1 0 1 1l3 6q0 1 1 1h5q1 -1 1 -4v-1l-1 -17v-47q0 -1 0.5 -1.5
t0.5 -1.5q0 -4 2 -6h1v-18v1l-4 12t-3 12q0 2 -1 2v1v1q-1 1 -1 7q0 1 -0.5 1.5t-0.5 1.5v3q0 1 -0.5 1.5t-0.5 1.5v4q0 4 -1 7t-2 5q0 2 -1 3zM236 102v19q0 6 1 6h4h1q3 0 4 -1l2 -1q1 0 2 -1q2 -2 2.5 -3t2.5 -2v-43q0 -10 -1 -12v-1q0 -1 -0.5 -1.5t-0.5 -1.5
q-1 -1 -1 -5q0 -2 -0.5 -2.5t-0.5 -1.5v-3q-1 -1 -1 -4l-1 -1q-2 4 -2 6q0 6 -1 9q-1 9 -3 14q-2 10 -3 14q-1 2 -2 5l-1 3q-1 1 -1 8zM353 491l10 11q5 2 7.5 4.5l5.5 5.5q4 0 5 7q14 16 28 20v-17q0 -3 -6 -13.5t-10 -10.5q-8 0 -15 -4h1q-6 -4 -11 -7t-8 -5v2
q-9 -9 -12.5 -12t-6.5 -5l-1 -1l-3 4l4 4h-5q5 6 17 17zM277 98v2q0 1 -0.5 1.5t-0.5 1.5v15q-2 7 -5.5 11.5t-7.5 8.5l-5 5q-6 6 -7 8q-3 3 -4 5q-2 2 -4 4.5t-4 3.5l-1 4q-2 5 -3.5 11.5t-1.5 8.5v14v11q0 8 1 11q1 6 1.5 11.5t0.5 12.5q2 1 3.5 3t3.5 4l2 2q2 5 4 5h16
q3 0 3 -5q0 -7 1 -8l3 -4v1l3 -6v-5q0 -2 2 -8q1 -6 4 -9q7 -1 9 -8h-1v-8q0 -10 -1.5 -17t-3.5 -15l-3 -16q-2 -2 -2 -7v-15q0 -1 0.5 -2t2.5 -6v-1q0 -1 0.5 -1.5t0.5 -2.5q1 -2 1 -4q0 -1 1 -3v-11q0 -1 0.5 -1.5t0.5 -1.5v-2q0 -1 0.5 -1.5t0.5 -1.5q0 -4 1 -4v-2
q1 0 1 -1q1 -1 1 -4v-32q0 -3 -0.5 -6t-0.5 -5v-19l-1 -2q-3 6 -3 14q0 5 -0.5 10.5t-1.5 10.5q0 2 -0.5 3.5t-0.5 2.5v3q-1 2 -1 6v5q0 1 -0.5 1.5t-0.5 1.5v11q-1 1 -1 3q0 6 -2 8zM31 235v1q2 11 3 20.5t2 20.5q1 10 1.5 19.5t2.5 19.5q2 3 3 6t3 7l5 10v-1l9 15l14 22
t15 20l3 3v1q2 5 3.5 7.5t5.5 5.5q0 3 3 6q7 12 11 12l3.5 3.5t2.5 1.5h33l10 -14q4 -3 9 -8l2 -2q1 -1 1 -2l12 -12q0 -1 1 -1q4 -3 8.5 -8.5t4.5 -8.5q0 -2 -0.5 -2.5t-0.5 -1.5v-12l-3 -3q0 -1 -1 -1q-2 -3 -4 -3l-3 -4q-1 -2 -5.5 -6.5t-6.5 -5.5q-4 0 -11 -6t-9 -8
l-3 -4l-1 -2l-2 -4v1q-1 -1 -1 -3l-2 -2q-5 -4 -9.5 -8t-8.5 -10q0 -1 -2 -1q-3 -3 -4 -6q-1 -1 -1 -2l-2 -2q-14 -19 -28 -41.5t-14 -49.5v-8l5 -11l4.5 -9t8 -15t9.5 -15t10 -8q4 -4 9.5 -7.5t14.5 -5.5q3 -1 11 -1q4 0 14 -2q2 -1 10 -1q-14 -4 -26.5 -4.5t-28.5 -0.5
h-21q-7 0 -15 5.5t-15 13.5t-13.5 16.5t-10.5 14.5v1l-5 10l-2 2q1 0 -4 8v1q-2 5 -2.5 8t-1.5 10q0 3 -1 4v33q1 1 1 4zM478 116q4 2 11 6t14 8.5t12 9t6 8.5v10q0 1 0.5 2t0.5 3q5 12 5 25q0 7 -5 19v3q0 6 -1 7q-2 10 -6 21q-2 5 -6 12.5t-8 14.5q-2 5 -4.5 9t-4.5 11
q-6 6 -15 18q-4 5 -7 9.5t-7 7.5l-2 2l-8 6l-9 9q-4 0 -6 5l-4 4q-3 3 -6 7q-1 1 -1.5 2t-1.5 2q-12 5 -16 12v1q0 8 5.5 17.5t11.5 14.5h-1l6 3q2 1 4.5 2t4.5 2q2 0 3.5 1.5t6.5 9.5q0 2 1 3q0 2 1 2l7 7q6 9 17 9q8 0 17.5 -2t14.5 -8q9 -5 10 -8q1 -1 1 -2l1 -1
q2 -5 11 -10l3 3q2 -1 5.5 -3.5t5.5 -4.5v-3q0 -2 -2 -8q-2 -2 -2 -4l-10 -12v-7h24q1 -1 4 -2t5 -3q9 -6 9 -10v-2q0 -1 0.5 -1.5t0.5 -1.5q0 -5 1 -6v-5q1 -1 1 -9v-9q0 -1 0.5 -1.5t0.5 -2.5q1 -2 1 -6q0 -3 3 -4h-1l1 -1v-19q0 -6 0.5 -14t1.5 -14q0 -3 0.5 -5t0.5 -3
t0.5 -2t0.5 -2q0 -4 1 -5q0 -6 1 -7q1 0 3 -2q0 -1 2 -3v-1q0 -2 1 -2l5 -3h-1q-4 0 -4 -3q0 -2 0.5 -4t0.5 -4v-6q0 -8 -1.5 -14t-3.5 -12q-2 -5 -4 -8t-3 -5q-1 -5 -7 -11q-5 -5 -7 -14q-10 -14 -16 -20.5t-17 -12.5q-7 -4 -14 -4h-12q-1 0 -1.5 0.5t-1.5 0.5q-1 1 -6 1
l-8 2q-2 0 -7.5 1t-6.5 4zM320 22v2q0 5 -1 10l-2 10q0 2 -0.5 3t-0.5 3q-2 12 -3 27q0 1 -0.5 2t-0.5 2v4q-1 5 -1.5 10.5t-0.5 11.5v30q0 2 -0.5 3t-0.5 3q-1 1 -1 8v27q0 3 1 4v2q0 1 0.5 2t0.5 2v2q-1 1 -1 3q2 0 4 2q1 5 1.5 7t0.5 1q2 0 2 4q3 3 3 8l1 2q4 4 4.5 5.5
t0.5 7.5v4q1 1 1 4q0 1 0.5 2t0.5 2t0.5 1.5t0.5 1.5v1q1 0 1 1v1q0 1 1 2l3 3q2 2 2.5 3.5t0.5 6.5v6h-2q2 0 2 5v11q-1 0 -2 0.5t-2 0.5h1q-1 1 -4 1q-6 0 -8 -5v1l-2 -2h1q-9 -5 -9 -12q0 -5 1.5 -7t3.5 -4q4 -4 4 -6q0 -7 -3 -7h-11q-4 0 -4 -1l-4 -4l-6 -7h-1
q-3 0 -6 1.5t-3 3.5q0 9 7 19q-5 2 -5 6t-2 6v22q0 2 -1 2v1v5q-5 8 -5 11t-1 4t-1 3h-3v1l-1 1q0 -1 -3 4v-1q-6 2 -5 2h-3q-1 -1 -3 -7v1l-1 -1q1 0 0 -1q-1 -4 -6 -4q-2 0 -6 3t-7 5l-1 1v-1l-6 13l-2 50q-11 17 -15 34q-1 1 -1 2q0 4 -1 6q-2 7 -6 10.5t-11 7.5
q-3 1 -12 10l-5 17q-3 1 -5 10q0 -1 -2 5h-1v1h1v28h-1l1 1q1 1 1 6q0 4 4 5l6 6h10q2 0 3 -7q1 -1 1 -5t1 -5q1 -2 1 -6t1 -5q2 -12 7 -16q4 -6 15 -11h-1q10 -6 18.5 -12t8.5 -11q0 -3 8 -5l5 -5h2q0 -2 1 -3q0 -2 1 -3v-11q-1 -1 -1 -5v-3l15 1q0 1 1 1q0 -6 5 -6
q6 0 6 5v11q0 3 -5 3h-3l-2 2q0 5 -1 6v13q1 1 1 7q2 1 5.5 2.5t3.5 5.5q0 3 -1 9t-3 11q0 2 -0.5 2.5t-0.5 2.5q-1 1 -1 6l-1 1q0 1 -1 1v1l-2 2v-1l-1 6l-5 5q-4 4 -6 8q-6 14 -10 21.5t-11 15.5l-3 3q-2 2 -6 4t-10 6q-3 2 -8 8q-10 10 -12 16q-1 1 -1 2t-1 2
q-10 10 -13.5 15t-3.5 19q0 11 2.5 18t11.5 15q2 2 3 2.5t3 2.5l6 6q10 9 19 15.5t23 6.5t14 -15v-2q-5 -3 -6 -9q-2 -5 -8 -11l-3 -3q-3 -4 -5 -8t-2 -10q0 -3 8 -12.5t11 -9.5q2 0 8.5 1t6.5 6v4l-6 6l-4 12v1q0 3 -2 5q0 8 4.5 15t15.5 7h3q1 -2 2 -3t3 -4q1 -1 1 -3h4
q4 0 5 1v-1l3 3v1h4l1 1v1q1 6 3 6q1 0 1.5 0.5t1.5 0.5h1q0 1 1 1q6 2 7 3h8q1 -1 4 -1l5 -3q1 -1 6 -1q2 0 2 -2q5 0 7 -1q1 0 1.5 -0.5t1.5 -0.5q1 -1 8 -1h3q12 0 14 1h5q2 0 4.5 0.5t5.5 0.5h11q8 -2 11 -7.5t6 -10.5q0 -1 0.5 -1.5t0.5 -1.5q1 -1 1 -2q0 -2 1 -3v-40
h-1q0 -4 -1 -9t-4 -9q-4 -4 -14 -5l-12 -3q-1 0 -1.5 -0.5t-1.5 -0.5l-3 -3l-4 -2l-1 -1q-15 -8 -26.5 -13.5t-19.5 -13.5v-3q-5 0 -6 -1v-5q-4 -4 -11 -7l-1 -2l-8 -8q-7 -6 -13.5 -13.5t-6.5 -16.5v-1q0 -4 4 -8h-1q5 -5 6 -12t1 -11q0 -5 -1 -6q-2 -6 -2 -10v-6
q0 -4 3 -4q1 -12 3.5 -18t9.5 -16q1 -1 4 -1h9q1 0 2.5 4t1.5 6l-0.5 1t-1.5 1v3q1 1 1 3q0 4 1 5q0 1 0.5 1.5t0.5 2.5v2q6 9 7.5 12t1.5 6q3 3 6.5 6t7.5 6q5 5 11.5 10.5t10.5 7.5q2 2 8 2q3 0 8.5 5.5t10.5 12t9 13t4 9.5v28q5 2 5 10v1q1 0 1 1q1 1 2 1h5l1 1v1
q0 2 1 3q0 -3 2 -5l2 -1q1 0 2 -1q2 -2 4 -8q1 -1 1 -4q0 -2 1 -3q2 -5 3 -8.5t4 -5.5v-27q0 -5 -4.5 -9t-11.5 -9h1q-2 -2 -3 -2.5t-2 -1.5h-3q-2 -2 -2.5 -4t-2.5 -4q-1 -2 -2 -3t-3 -6q-1 -2 -2 -3.5t-2 -3.5v1q-8 -12 -13.5 -24.5t-5.5 -28.5v-2q0 -2 1 -3t1 -5
q0 -1 -2 -3h1q-3 0 -5 -2q0 -1 -0.5 -3.5t-1.5 -3.5q-2 -8 -12.5 -15t-18.5 -9q-2 -5 -2.5 -11t-0.5 -17q0 -1 2 -3h-2q3 -3 7 -6t5 -5l-2 -2q-1 -1 -1 -5t3 -5v-21q0 -1 -3 -7.5t-3 -4.5v1l-4 -4q-6 -6 -8 -13q-1 -1 -1 -6v-7l-1 -1v-9q-2 -2 -5 -7t-3 -6l3 -6h-6
q-2 -2 -2 -6q0 -5 1 -5v-2q-1 -1 -1 -5t1 -5q0 -2 1 -2q-1 -1 -1.5 -2l-0.5 -1q-1 0 -1 -5q0 -4 2 -6l1 -1q0 -1 -1 -1q0 -1 -1 -2v-2q0 -2 0.5 -5t1.5 -8v-2q1 -3 1.5 -6t0.5 -8v-4q0 -1 -1 -1v-2v-4q0 -2 -4 -6q-1 -1 -1 -2l-1 -1q-2 -2 -3 -2l-1 -1l-1 -1h1q-2 0 -2 -3
q0 -1 -2 -9v-1l-2 -8v3q-3 -3 -3 -11q0 -4 -2 -6v-48q0 -7 -3 -10q0 -2 -0.5 -2.5zM389 86l-3 3l-7 6q2 2 2.5 4t0.5 8v4q1 1 1 3v4q0 6 -0.5 10t-1.5 8q0 1 -1 1v1q-1 1 -1 6q2 6 2 9q0 4 -1 5l-2 2q1 1 1 3v1q1 0 1 1q1 1 1 6q-1 1 -1 2v7q1 1 1 2q2 1 7 6v10l-1 1l5 5v9
l1 1v16q0 1 2 3l4 4q4 4 6 9v-1l1 1q0 1 2 3q0 1 1 1q0 2 3 5v39q0 9 -9 18l-3 3v6h2q9 0 11.5 2.5t3.5 7.5l1 -1h1q3 -3 8 -3q3 -3 7 -6l8 -6v1q1 -3 6 -8l8 -7h1l1 -1v-3l19 -23q2 -8 5.5 -12.5t9.5 -11.5l7 -14q3 -6 4 -11.5t2 -10.5v-4q0 -4 1 -5q0 -6 1 -7l2 -3
q2 -6 2 -7q0 -7 -3 -17v1l-1 -1v-2l-1 -1v-1q-1 -1 -1 -6v-10q-2 -5 -11.5 -10.5t-17.5 -8.5h-12v-15q0 -15 13 -21l16 -14q4 -5 10.5 -6.5t10.5 -1.5l8 -2q1 0 2 -1q1 0 1 -1h20q15 0 26 7h-1q12 7 18.5 13t14.5 20q0 1 1 1q1 1 1 7q1 0 1 1q1 1 1.5 2.5t2.5 3.5v1q0 1 1 2
q0 5 4 9v-1l3 4l0.5 1.5t2.5 3.5q1 2 2 3.5t4 6.5v3v1q1 0 1 1q2 5 2.5 10.5t0.5 15.5v1h11q0 5 -2.5 13t-5.5 11l-11 11v1q0 1 -0.5 1.5t-0.5 1.5q0 4 -1 5v5q0 8 -1 10v1q0 1 -0.5 1.5t-0.5 2.5q-1 3 -1 7v7v25l-5 4v4v9q0 11 -1 12v5q-1 1 -1 3q0 1 -0.5 1.5t-0.5 1.5v2
q0 11 -8 19l-1 1l-15 13l-4 8v1v14l-21 21v6q-3 0 -3 1q-4 3 -11 7.5t-13 5.5v1l-15 14q-8 5 -18.5 8t-19.5 5q5 5 9 10t4 14v36l-6 6q-3 4 -3 8q-5 13 -7 16l3 3h-1l3 3l2 2q0 1 1 2v8l-15 17v51q-2 2 -2 3q-1 1 -1 2l-3 6q-3 5 -5 9.5t-3 5.5l-17 15q-6 16 -22 20h-15
q-3 0 -4 -1h-14q-2 -1 -11 -1h-3q-3 0 -4 1q-6 0 -7 1h-2l-1 1h-3l-6 6h-3l-1 1h-24q-3 -3 -7 -3v-1l-1 -1h1q-3 0 -3 -2q-5 -2 -8 -5l-5 5h-8l-6 5q-5 18 -28 18q-17 0 -26.5 -5.5t-19.5 -13.5q-1 -1 -2 -1.5t-2 -1.5l-7 -7v2q-17 -17 -22 -27.5t-5 -27.5q0 -18 4 -26
t15 -19l2 -3q0 -2 1 -2q2 -5 5.5 -10t10.5 -10q3 -3 9 -4l2 -2q0 -1 1 -1l1 -1q1 0 2 -1l8 -8q10 -13 18 -29q2 -6 4 -9.5t7 -8.5l1 -1q0 -6 4 -9v-1h1q0 -5 1 -6q-2 -3 -2.5 -6t-1.5 -5q0 -1 -1 -1v-1v-9q0 -1 -1 -1h-1h1l-2 1q-3 8 -10.5 13.5t-16.5 11.5v5q-5 20 -6 23
l-19 19q-4 13 -17 13h-18l-10 -10q-6 -5 -6 -11q-5 -5 -5 -13q0 -12 4 -13v-5l-2 1q-2 0 -2 -3q0 -4 4 -11v-1h1v-4q0 -6 0.5 -11.5t5.5 -10.5l6 -14l-8 9h-42q-2 0 -3 -1q-7 -3 -8 -3.5t-3 -2.5q-4 -3 -7 -7.5t-8 -10.5l-3 -3v-2q-5 -3 -6 -9l-5 -5q-11 -11 -17.5 -20.5
t-11.5 -18.5q-1 -1 -1 -3l-9 -16q-1 -2 -4.5 -11t-7.5 -13q-2 -8 -3 -20.5t-2 -26.5q0 -2 -0.5 -4.5t-0.5 -4.5l-3 -27l-1 -1v-1l-1 -1v-46q0 -5 1 -5q1 -10 2 -13.5t3 -8.5h3q0 -2 1 -3q0 -3 1 -4q1 0 1.5 -0.5l0.5 -0.5q0 -2 1 -3v1l2 -5q0 -5 1 -6v-1q0 -2 1 -2
q5 -9 15.5 -23t27.5 -23l9 -9q8 -8 18 -14t22 -6h21q15 0 29 0.5t28 4.5q6 0 9 1.5t3 10.5q0 12 -1 13l-20 20v-1q-2 9 -15 9q-7 0 -9 1h-2v1h-4q-2 1 -10 1q-5 0 -6 1q-11 3 -21 13v-4h2l-2 3l-5 12l-4 9v8q0 20 13 41t27 39q0 4 1 6q6 0 8 8q2 4 6 7.5t8 5.5q1 0 1 1l1 1
q0 1 2 3l3 6l3 3q1 0 2 1q2 2 7.5 6.5t7.5 4.5l8 6q2 2 5 3l6 -5q1 -1 3.5 -2.5t6.5 -3.5h-1l17 -16q1 -4 9 -7h-12q-8 0 -12 -3.5t-7 -9.5v1l-1 -1q-2 -2 -9 -4q0 -15 -0.5 -23t-1.5 -15q-1 -3 -1 -10v-11v-14q0 -3 1.5 -10t4.5 -14l1 -2l5 -12q1 0 2 -1v1q0 -2 1 -3.5
t2 -3.5q-11 -2 -12.5 -9.5t-1.5 -12.5v-22l2 -8v-3v-1q1 0 1 -1q0 -4 1 -5l2 -6v-2q0 -2 1 -2v-5q0 -2 1 -2q1 -9 6 -22.5t30 -37.5v4l21 -21v12l15 -15v4l22 -22l4 29v3l13 -13q11 0 15 4l19 -19q4 -4 23 -4v33q0 10 -1 11l-3 3v40l1 17v2q0 10 -4 14z" />
    <glyph glyph-name="FL00BFh" unicode="&#xbf;" horiz-adv-x="387" 
d="M54 3h1q-41 26 -41 89v230q0 54 27 79t78 25h36v100h154v-6l21 -21v-151q0 -101 -102 -101h-39v-101h156v-6l21 -21v-152h-223q-51 0 -77 26l-5 5zM30 92q0 -45 23 -66.5t66 -21.5h210v126h-177v154h52q89 0 89 88v138h-122v-100h-52q-43 0 -66 -21.5t-23 -66.5v-230z
M309 710l21 -21v-150h-148l-21 21h-6v156h154v-6zM171 700v-126h122v126h-122z" />
    <glyph glyph-name="FL00C0h" unicode="&#xc0;" horiz-adv-x="488" 
d="M292 202v2l1 1zM237 44l1 -3q0 -1 -0.5 -1.5t-0.5 -1.5v6zM183 77l4 8q0 -7 -4 -8zM180 198l5 9q0 -6 -5 -9zM221 49v-24l-3 18zM186 127v-1v-13q1 -1 1 -2l-7 -7q2 7 3.5 13zM291 231v12l1 1q2 -6 2 -11v-9q-3 1 -3 7zM238 93v-31q0 -2 -1 -2v-1v-1q0 1 -1 1v1l1 7
q0 9 -1 11q0 1 -0.5 1.5l-0.5 0.5q0 1 2 9q0 3 1 4zM275 251v-20q0 -12 4 -16l-6 -6l4 -13v-1q0 -2 0.5 -5t0.5 -8h6l12 -14h-4l-4 -4l-12 -1q0 -2 -1 -7.5t-1.5 -12t-1.5 -12t-1 -8.5v-14l-4 -19l-1 -2l-11 19l-15 15l-16 24q0 -13 -0.5 -24.5t-0.5 -18.5q0 7 -1.5 12
t-9.5 14v22l2 12q8 5 8 20v7l-8 26l-9 7v6h-2l2 2v10l10 31l-9 7q4 13 17 19h2l1.5 2.5t3.5 7.5h1q17 0 17 15l-7 31q0 12 9 18l3 -15l-1 -2v-4q0 -15 16 -19l15 -15q9 -10 23 -10q0 -2 1 -3l-1 -10h-4v-20q0 -5 1 -6v-2l3 -4v1l2 -10l-7 8l-2 4q-1 0 -1 2q-1 1 -1 6z
M184 740l-61 126h124l53 -126h-116zM171 71l1 -3q5 0 8 3l1 2l5 -34q2 -7 4 -8.5t4 -2.5l1 -1q1 0 1 -1l6 -22h-182l146 696h129l146 -696h-172q0 12 10 28l4 53l4 20v18q0 2 1 10.5t2 14.5l7 1l3 3h5q5 5 7 13q0 2 4 6v13q4 3 4 6q0 2 3 4l5 26q2 2 2 6v3q0 3 -0.5 4.5
t-3.5 4.5v9l-2 10q-1 1 -1 2q0 5 -1 7q0 2 -3 7v1q0 3 -1 4h5q0 5 -1 6l1 27q-2 9 -5 12.5t-7 6.5q-1 0 -2 1q-2 2 -4 3.5t-3 2.5l4 12q4 4 4.5 6l2.5 10l10 8q7 5 14.5 12t7.5 15q-2 0 -5.5 -1t-6.5 -2h-4q-6 0 -8.5 4.5t-4.5 10.5q0 4 -1 5q-2 11 -6 11h-3q0 -13 -1 -23
t-4 -21q-4 -4 -3.5 -6.5t-0.5 -4.5l-3 -9q-1 -2 -1.5 -5t-1.5 -5q-7 -10 -8 -10q-4 0 -9.5 2t-5.5 5q2 6 2 5l-5 31q-2 10 -8 18t-19 8q-17 0 -25.5 -10.5t-8.5 -26.5l7 -31h-4q-7 0 -10 -3q-2 -5 -4 -7q-11 -7 -18.5 -18t-7.5 -27v-2q0 -4 3 -4q1 -1 3 -1l-5 -18v-3
q-5 -5 -8 -9q-1 -1 -1 -2l-1 -1l-2 -2l-6 -8l-28 -26q7 0 9 1q-4 -2 -7.5 -4t-5.5 -2l-9 1q-4 0 -7 -5q-1 -1 -1 -2t-1 -2q-3 -5 -6.5 -9t-11.5 -4h-11l9 -7l-4 -2t-7 -3v-2h15l-2 -25h5l4 24q1 9 7 9l2 -2q2 -2 7 -2h5l28 21q1 4 3 4q1 1 2 1t2 0.5t2 0.5t1.5 0.5l0.5 0.5
q0 -5 -3 -9l-2 -6q-1 -1 -1 -4v-3l4 -6q0 -5 -1 -6q0 -2 -0.5 -3t-0.5 -2v-1q0 -5 6 -16t9 -11h1q5 0 5 7l-3 7h1q5 0 5 9l-2 15l9 17l-3 -17v-47h1q0 -1 -0.5 -4.5t-1.5 -4.5l-2 -32q2 0 7 12l1 -15l-1 -2q-1 -2 -3 -5t-5 -8zM259 882h-157l72 -158h5l8 -8h-36l-150 -728h7
l21 -21h216l-5 15l15 -15h225l-149 722l-14 14h26l-64 154l-18 17z" />
    <glyph glyph-name="FL00C1h" unicode="&#xc1;" horiz-adv-x="489" 
d="M292 202v2l1 1zM237 44l1 -3q0 -1 -0.5 -1.5t-0.5 -1.5v6zM183 77l4 8q0 -7 -4 -8zM180 198l5 9q0 -6 -5 -9zM221 49v-24l-3 18zM186 127v-1v-13q1 -1 1 -2l-7 -7q2 7 3.5 13zM291 231v12l1 1q2 -6 2 -11v-9q-3 1 -3 7zM238 93v-31q0 -2 -1 -2v-1v-2q0 1 -0.5 1.5
t-0.5 1.5l1 7q0 9 -1 11q0 2 -1 2v1l2 8q0 3 1 4zM275 251v-20q0 -12 4 -16l-6 -6l4 -13v-1q0 -2 0.5 -5t0.5 -8h6l12 -14h-4l-4 -4h1l-13 -1q0 -2 -1 -7.5t-1.5 -12t-1.5 -12t-1 -8.5v-14l-4 -19l-1 -2l-11 19l-15 15l-16 24q0 -13 -0.5 -24.5t-0.5 -18.5q0 7 -1.5 12
t-9.5 14v22l2 12q8 5 8 20v7l-8 26l-9 7v6h-2l2 2v10l10 31l-9 7q4 13 17 19h2l1.5 2.5t3.5 7.5h1q17 0 17 15l-7 31q0 12 9 18l3 -15l-1 -2v-4q0 -15 16 -19l15 -15q9 -10 23 -10q0 -2 1 -3l-1 -10h-4v-20q0 -5 1 -6v-2l3 -4v1l2 -10l-7 8l-2 4q-1 0 -1 2q-1 1 -1 6z
M159 740l53 126h124l-61 -126h-116zM171 71l1 -3q5 0 8 3l1 2l5 -34q2 -7 4 -8.5t4 -2.5l1 -1q1 0 1 -1l6 -22h-182l146 696h129l146 -696h-172q0 12 10 28l4 53l4 20v18q0 2 1 10.5t2 14.5l7 1l3 3h5q5 5 7 13q0 2 4 6v13q4 3 4 6q0 2 3 4l5 26q2 2 2 6v3q0 3 -0.5 4.5
t-3.5 4.5v9l-2 10q-1 1 -1 2q0 5 -1 7q0 2 -3 7v1q0 3 -1 4h5q0 5 -1 6l1 27q-2 9 -5 12.5t-7 6.5q-1 0 -2 1q-2 2 -4 3.5t-3 2.5l4 12q4 4 4.5 6l2.5 10l10 8q7 5 14.5 12t7.5 15q-2 0 -5.5 -1t-6.5 -2h-4q-6 0 -8.5 4.5t-4.5 10.5q0 4 -1 5q-2 11 -6 11h-3q0 -13 -1 -23
t-4 -21q-4 -4 -3.5 -6.5t-0.5 -4.5l-3 -9q-1 -2 -1.5 -5t-1.5 -5q-7 -10 -8 -10q-4 0 -9.5 2t-5.5 5q2 6 2 5l-5 31q-2 10 -8 18t-19 8q-17 0 -25.5 -10.5t-8.5 -26.5l7 -31h-4q-7 0 -10 -3q-2 -5 -4 -7q-11 -7 -18.5 -18t-7.5 -27v-2q0 -4 3 -4q1 -1 3 -1l-5 -18v-3
q-5 -5 -8 -9q-1 -1 -1 -2l-1 -1l-2 -2l-6 -8l-28 -26q7 0 9 1q-4 -2 -7.5 -4t-5.5 -2l-9 1q-4 0 -7 -5q-1 -1 -1 -2t-1 -2q-3 -5 -6.5 -9t-11.5 -4h-11l9 -7l-4 -2t-7 -3v-2h15l-2 -25h5l4 24q1 9 7 9l2 -2q2 -2 7 -2h5l28 21q1 4 3 4q1 1 2 1t2 0.5t2 0.5t1.5 0.5l0.5 0.5
q0 -5 -3 -9l-2 -6q-1 -1 -1 -4v-3l4 -6q0 -5 -1 -6q0 -2 -0.5 -3t-0.5 -2v-1q0 -5 6 -16t9 -11h1q5 0 5 7l-3 7h1q5 0 5 9l-2 15l9 17l-3 -17v-47h1q0 -1 -0.5 -4.5t-1.5 -4.5l-2 -32q2 0 7 12l1 -15l-1 -2q-1 -2 -3 -5t-5 -8zM151 716l-150 -728h7l21 -21h216l-5 15l15 -15
h225l-149 722l-20 18v2l67 146l-20 20l1 7h-157l-66 -158h8l8 -8h-1z" />
    <glyph glyph-name="FL00C2h" unicode="&#xc2;" horiz-adv-x="489" 
d="M292 202v2l1 1zM237 44l1 -3q0 -1 -0.5 -1.5t-0.5 -1.5v6zM183 77l4 8q0 -7 -4 -8zM180 198l5 10q0 -8 -5 -10zM221 49v-24l-3 18zM186 127v-1v-13q1 -1 1 -2l-7 -7q2 7 3.5 13zM291 231v12l1 1q2 -6 2 -11v-9q-3 1 -3 7zM238 93v-31q0 -2 -1 -2v-1v-1q0 1 -1 1v1l1 7
q0 9 -1 11q0 2 -1 2v1l2 8q0 3 1 4zM242 716l4 8h4l8 -8h-16zM275 251v-20q0 -12 4 -16l-6 -6l4 -13v-1q0 -2 0.5 -5t0.5 -8h6l12 -14h-4l-4 -4l-12 -1q0 -2 -1 -7.5t-1.5 -12t-1.5 -12t-1 -8.5v-14l-4 -19l-1 -2l-11 19l-15 15l-16 24q0 -13 -0.5 -24.5t-0.5 -18.5
q0 7 -1.5 12t-9.5 14v22l2 12q6 5 7 12t1 12v3l-12 24l-7 5q2 8 2 10h-2l2 2v10l10 31l-9 7q4 13 17 19h2l1.5 2.5t3.5 7.5h1q17 0 17 15l-7 31q0 12 9 18l3 -15l-1 -2v-4q0 -15 16 -19l15 -15q9 -10 23 -10q0 -2 1 -3l-1 -10h-4v-20q0 -5 1 -6v-2l3 -4q0 -7 1 -8l-1 1l-5 6
l-2 4q-1 0 -1 2q-1 1 -1 6zM230 793l-26 -53h-114l55 126h169l55 -126h-114zM171 71l1 -3q5 0 8 3l1 2l5 -34q2 -7 4 -8.5t4 -2.5l1 -1q1 0 1 -1l6 -22h-182l146 696h129l146 -696h-172q0 12 10 28l4 53l4 20v18q0 2 1 10.5t2 14.5l7 1l3 3h5q5 5 7 13q0 2 4 6v13q4 3 4 6
q0 2 3 4l5 26q2 2 2 6v3q0 2 -0.5 3t-0.5 2l1 1l-4 4v8q-2 10 -3 12q-1 1 -1 7q0 2 -3 7v1q0 3 -1 4h5q0 5 -1 6l1 27q-2 10 -4.5 13t-5.5 5q-3 1 -11 9q0 1 1 2l0.5 1.5t1.5 3.5q0 3 1 4q4 4 4.5 6l2.5 10l10 8q7 5 14.5 12t7.5 15q-2 0 -5.5 -1t-6.5 -2h-4q-6 0 -8.5 4.5
t-4.5 10.5q0 4 -1 5q-2 11 -6 11h-3q0 -13 -1 -23t-4 -21q-4 -4 -3.5 -6.5t-0.5 -4.5l-3 -9q-1 -2 -1.5 -5t-1.5 -5q-7 -10 -8 -10q-4 0 -9.5 2t-5.5 5q2 6 2 5l-5 31q-2 10 -8 18t-19 8q-17 0 -25.5 -10.5t-8.5 -26.5l7 -31h-4q-7 0 -10 -3q-2 -5 -4 -7q-11 -7 -18.5 -18
t-7.5 -27v-2q0 -4 3 -4q1 -1 3 -1l-5 -18v-3q-5 -5 -8 -9q-1 -1 -1 -2l-1 -1l-2 -2l-6 -8l-28 -26h9q-8 -5 -13 -5l-9 1q-4 0 -7 -5q-1 -1 -1 -2t-1 -2q-3 -5 -6.5 -9t-11.5 -4h-11l9 -7l-4 -2t-7 -3v-2h15l-2 -25h5l4 24q1 9 7 9l2 -2q2 -2 7 -2h5l28 21q1 4 3 4q1 1 2 1
t2 0.5t2 0.5h1q0 1 1 1q-1 -2 -1.5 -3.5t-1.5 -3.5l-3 -14q0 -3 2 -5l2 -2q0 -5 -1 -6q0 -2 -0.5 -3t-0.5 -2v-1q0 -5 6 -16t9 -11h1q5 0 5 7l-3 7h1q5 0 5 9l-2 15l9 18l-3 -18v-47h1q0 -1 -0.5 -4.5t-1.5 -4.5l-2 -32q2 0 7 12l1 -15l-1 -2q-1 -2 -3 -5t-5 -8zM326 882
h-191l-68 -158h8l21 -21h53l-148 -715h7l21 -21h216l-5 15l15 -15h225l-149 722l-14 14h96l-67 154l-17 17z" />
    <glyph glyph-name="FL00C3h" unicode="&#xc3;" horiz-adv-x="489" 
d="M292 202v2l1 1zM237 44l1 -3q0 -1 -0.5 -1.5t-0.5 -1.5v6zM183 77l4 8q0 -7 -4 -8zM180 198l5 9q0 -7 -5 -9zM221 49v-24l-3 18zM186 127v-1v-13q1 -1 1 -2l-7 -7q2 7 3.5 13zM291 231v12l1 1q2 -6 2 -11v-9q-3 1 -3 7zM238 93v-31q0 -2 -1 -2v-1v-1q0 1 -1 1v1l1 7
q0 9 -1 11q0 2 -1 2v1v1q0 -1 2 7q0 3 1 4zM189 716l4 8h3l8 -8h-15zM275 251v-20q0 -12 4 -16l-6 -6l4 -13v-1q0 -2 0.5 -5t0.5 -8h6l12 -14h-4l-4 -4l-12 -1q0 -2 -1 -7.5t-1.5 -12t-1.5 -12t-1 -8.5v-14l-4 -19l-1 -2l-11 19l-15 15l-16 24q0 -13 -0.5 -24.5t-0.5 -18.5
q0 7 -1.5 12t-9.5 14v22l3 13v-1q5 4 6 10.5t1 11.5v5l-8 26l-9 7v6h-2l2 2v10l10 31l-9 7q4 13 17 19h2l1.5 2.5t3.5 7.5h1q17 0 17 15l-7 31q0 12 9 18l3 -15l-1 -2v-4q0 -15 16 -19l15 -15q9 -10 23 -10q0 -2 1 -3l-1 -10h-4v-20q0 -5 1 -6v-2l3 -4q0 -7 1 -8l-1 1l-5 6
l-2 4q-1 0 -1 2q-1 1 -1 6zM259 866l25 -53l23 53h66l-55 -126h-117l-24 53l-25 -53h-66l55 126h118zM171 71l1 -3q5 0 8 3l1 2l5 -34q2 -7 4 -8.5t4 -2.5l1 -1q1 0 1 -1l6 -22h-182l146 696h129l146 -696h-172q0 12 10 28l4 53l4 20v18q0 2 1 10.5t2 14.5l7 1l3 3h5
q5 5 7 13q0 2 4 6v13q4 3 4 6q0 2 3 4l5 26q2 2 2 6v3q0 2 -0.5 3t-0.5 2l1 1l-4 4v8q-2 12 -4 12h1q-1 1 -1 7q0 2 -3 7v1q0 3 -1 4h5q0 5 -1 6l1 27q-2 9 -5 12.5t-7 6.5q-1 0 -2 1q-2 2 -4 3.5t-3 2.5l4 12q4 4 4.5 6l2.5 10l10 8q7 5 14.5 12t7.5 15q-2 0 -5.5 -1
t-6.5 -2h-4q-6 0 -8.5 4.5t-4.5 10.5q0 4 -1 5q-2 11 -6 11h-3q0 -13 -1 -23t-4 -21q-4 -4 -3.5 -6.5t-0.5 -4.5l-3 -9q-1 -2 -1.5 -5t-1.5 -5q-7 -10 -8 -10q-4 0 -9.5 2t-5.5 5q2 6 2 5l-5 31q-2 10 -8 18t-19 8q-17 0 -25.5 -10.5t-8.5 -26.5l7 -31h-4q-7 0 -10 -3
q-2 -5 -4 -7q-11 -7 -18.5 -18t-7.5 -27v-2q0 -4 3 -4q1 -1 3 -1l-5 -18v-3q-5 -5 -8 -9q-1 -1 -1 -2l-1 -1l-2 -2l-6 -8l-28 -26q7 0 9 1q-4 -2 -7.5 -4t-5.5 -2l-9 1q-4 0 -7 -5q-1 -1 -1 -2t-1 -2q-3 -5 -6.5 -9t-11.5 -4h-11l9 -7l-4 -2t-7 -3v-2h15l-2 -25h5l4 24
q1 9 7 9l2 -2q2 -2 7 -2h5l28 21q1 4 3 4q1 1 2 1t2 0.5t2 0.5t1.5 0.5l0.5 0.5q0 -5 -3 -9l-2 -6q-1 -1 -1 -5v-1v-1l4 -6q0 -5 -1 -6q0 -2 -0.5 -3t-0.5 -2v-1q0 -5 6 -16t9 -11h1q5 0 5 7l-3 7h1q5 0 5 9l-2 15l9 17l-3 -17v-47h1q0 -1 -0.5 -4.5t-1.5 -4.5l-2 -32
q2 0 7 12l1 -15l-1 -2q-1 -2 -3 -5t-5 -8zM8 -12l21 -21h216l-5 15l15 -15h225l-149 722l-14 14h35l65 152l-22 19l3 8h-101l-9 -23l-14 14l-3 9h-140l-68 -158h8l21 -21h57l-148 -715h7z" />
    <glyph glyph-name="FL00C4h" unicode="&#xc4;" horiz-adv-x="489" 
d="M292 202v2l1 1zM237 44l1 -3q0 -1 -0.5 -1.5t-0.5 -1.5v6zM183 77l4 8q0 -7 -4 -8zM180 198l5 10q0 -8 -5 -10zM221 49v-24l-3 18zM186 127v-1v-13q1 -1 1 -2l-7 -7q2 7 3.5 13zM291 231v12l1 1q2 -6 2 -11v-9q-3 1 -3 7zM238 93v-31q0 -2 -1 -2v-1v-1q0 1 -1 1v1l1 7
q0 9 -1 11q0 2 -1 2v1l2 8q0 3 1 4zM275 251v-20q0 -12 4 -16l-6 -6l4 -13v-1q0 -2 0.5 -5t0.5 -8h6l12 -14h-4l-4 -4l-12 -1q0 -2 -1 -7.5t-1.5 -12t-1.5 -12t-1 -8.5v-14l-4 -19l-1 -2l-11 19l-15 15l-16 24q0 -13 -0.5 -24.5t-0.5 -18.5q0 7 -1.5 12t-9.5 14v22l3 13v-1
q5 4 6 11.5t1 12.5v3l-12 24l-7 5q2 8 2 10h-2l2 2v10l10 31l-9 7q4 13 17 19h2l1.5 2.5t3.5 7.5h1q17 0 17 15l-7 31q0 12 9 18l3 -15l-1 -2v-4q0 -15 16 -19l15 -15q9 -10 23 -10q0 -2 1 -3l-1 -10h-4v-20q0 -5 1 -6v-2l3 -4q0 -7 1 -8l-1 1l-5 6l-2 4q-1 0 -1 2
q-1 1 -1 6zM247 740v126h122v-126h-122zM92 740v126h122v-126h-122zM171 71l1 -3q5 0 8 3l1 2l5 -34q2 -7 4 -8.5t4 -2.5l1 -1q1 0 1 -1l6 -22h-182l146 696h129l146 -696h-172q0 12 10 28l4 53l4 20v18q0 2 1 10.5t2 14.5l7 1l3 3h5q5 5 7 13q0 2 4 6v13q4 3 4 6q0 2 3 4
l5 26q2 2 2 6v3q0 2 -0.5 3t-0.5 2l1 1l-4 4v8q-2 12 -4 12h1q-1 1 -1 7q0 2 -3 7v1q0 3 -1 4h5q0 5 -1 6l1 27q-2 10 -4.5 13t-5.5 5q-3 1 -11 9q0 1 1 2l0.5 1.5t1.5 3.5q0 3 1 4q4 4 4.5 6l2.5 10l10 8q7 5 14.5 12t7.5 15q-2 0 -5.5 -1t-6.5 -2h-4q-6 0 -8.5 4.5
t-4.5 10.5q0 4 -1 5q-2 11 -6 11h-3q0 -13 -1 -23t-4 -21q-4 -4 -3.5 -6.5t-0.5 -4.5l-3 -9q-1 -2 -1.5 -5t-1.5 -5q-7 -10 -8 -10q-4 0 -9.5 2t-5.5 5q2 6 2 5l-5 31q-2 10 -8 18t-19 8q-17 0 -25.5 -10.5t-8.5 -26.5l7 -31h-4q-7 0 -10 -3q-2 -5 -4 -7q-11 -7 -18.5 -18
t-7.5 -27v-2q0 -4 3 -4q1 -1 3 -1l-5 -18v-3q-5 -5 -8 -9q-1 -1 -1 -2l-1 -1l-2 -2l-6 -8l-28 -26h9q-8 -5 -13 -5l-9 1q-4 0 -7 -5q-1 -1 -1 -2t-1 -2q-3 -5 -6.5 -9t-11.5 -4h-11l9 -7l-4 -2t-7 -3v-2h15l-2 -25h5l4 24q1 9 7 9l2 -2q2 -2 7 -2h5l28 21q1 4 3 4q1 1 2 1
t2 0.5t2 0.5h1q0 1 1 1q-1 -2 -1.5 -3.5t-1.5 -3.5l-3 -14q0 -3 2 -5l2 -2q0 -5 -1 -6q0 -2 -0.5 -3t-0.5 -2v-1q0 -5 6 -16t9 -11h1q5 0 5 7l-3 7h1q5 0 5 9l-2 15l9 18l-3 -18v-47h1q0 -1 -0.5 -4.5t-1.5 -4.5l-2 -32q2 0 7 12l1 -15l-1 -2q-1 -2 -3 -5t-5 -8zM385 882
h-154v-7l-1 1v6h-154v-158h6l21 -21h46l-148 -715h7l21 -21h216l-5 15l15 -15h225l-149 722l-14 14h89v152l-21 21v6z" />
    <glyph glyph-name="FL00C5h" unicode="&#xc5;" horiz-adv-x="489" 
d="M292 202v2l1 1zM237 44l1 -3q0 -1 -0.5 -1.5t-0.5 -1.5v6zM183 77l4 8q0 -7 -4 -8zM180 198l5 9q0 -7 -5 -9zM221 49v-24l-3 18zM186 127v-1v-13q1 -1 1 -2l-7 -7q2 7 3.5 13zM291 231v12l1 1q2 -6 2 -11v-9q-3 1 -3 7zM238 93v-31q0 -2 -1 -2v-1v-2q0 1 -0.5 1.5
t-0.5 1.5l1 7q0 9 -1 11q0 2 -1 2v1l2 8q0 3 1 4zM211 780h39v46h-39v-46zM275 251v-20q0 -12 4 -16l-6 -6l4 -13v-1q0 -2 0.5 -5t0.5 -8h6l12 -14h-4l-4 -4h1l-13 -1q0 -2 -1 -7.5t-1.5 -12t-1.5 -12t-1 -8.5v-14l-4 -19l-1 -2l-11 19l-15 15l-16 24q0 -13 -0.5 -24.5
t-0.5 -18.5q0 7 -1.5 12t-9.5 14v22l2 12q6 5 7 11t1 11v5l-8 26l-9 7v6h-2l2 2v10l10 31l-9 7q4 13 17 19h2l1.5 2.5t3.5 7.5h1q17 0 17 15l-7 31q0 12 9 18l3 -15l-1 -2v-4q0 -15 16 -19l15 -15q9 -10 23 -10q0 -2 1 -3l-1 -10h-4v-20q0 -5 1 -6v-2l3 -4v-7l-5 6l-2 4
q-1 0 -1 2q-1 1 -1 6zM168 740v126h124v-126h-124zM171 71l1 -3q5 0 8 3l1 2l5 -34q2 -7 4 -8.5t4 -2.5l1 -1q1 0 1 -1l6 -22h-182l146 696h129l146 -696h-172q0 12 10 28l4 53l4 20v18q0 2 1 10.5t2 14.5l7 1l3 3h5q5 5 7 13q0 2 4 6v13q4 3 4 6q0 2 3 4l5 26q2 2 2 6v3
q0 2 -0.5 3t-0.5 2l1 1l-4 4v8q-2 10 -3 12q-1 1 -1 7q0 2 -3 7v1q0 3 -1 4h5q0 5 -1 6l1 27q-2 9 -5 12.5t-7 6.5q-1 0 -2 1q-2 2 -4 3.5t-3 2.5l4 12q4 4 4.5 6l2.5 10l10 8q7 5 14.5 12t7.5 15q-2 0 -5.5 -1t-6.5 -2h-4q-6 0 -8.5 4.5t-4.5 10.5q0 4 -1 5q-2 11 -6 11h-3
q0 -13 -1 -23t-4 -21q-4 -4 -3.5 -6.5t-0.5 -4.5l-3 -9q-1 -2 -1.5 -5t-1.5 -5q-7 -10 -8 -10q-4 0 -9.5 2t-5.5 5q2 6 2 5l-5 31q-2 10 -8 18t-19 8q-17 0 -25.5 -10.5t-8.5 -26.5l7 -31h-4q-7 0 -10 -3q-2 -5 -4 -7q-11 -7 -18.5 -18t-7.5 -27v-2q0 -4 3 -4q1 -1 3 -1
l-5 -18v-3q-5 -5 -8 -9q-1 -1 -1 -2l-1 -1l-2 -2l-6 -8l-28 -26q7 0 9 1q-4 -2 -7.5 -4t-5.5 -2l-9 1q-4 0 -7 -5q-1 -1 -1 -2t-1 -2q-3 -5 -6.5 -9t-11.5 -4h-11l9 -7l-4 -2t-7 -3v-2h15l-2 -25h5l4 24q1 9 7 9l2 -2q2 -2 7 -2h5l28 21q1 4 3 4q1 1 2 1t2 0.5t2 0.5
t1.5 0.5l0.5 0.5q0 -5 -3 -9l-2 -6q-1 -1 -1 -4v-3l4 -6q0 -5 -1 -6q0 -2 -0.5 -3t-0.5 -2v-1q0 -5 6 -16t9 -11h1q5 0 5 7l-3 7h1q5 0 5 9l-2 15l9 17l-3 -17v-47h1q0 -1 -0.5 -4.5t-1.5 -4.5l-2 -32q2 0 7 12l1 -15l-1 -2q-1 -2 -3 -5t-5 -8zM151 716l-150 -728h7l21 -21
h216l-5 15l15 -15h225l-149 722l-14 14h12v152l-21 21v6h-156v-158h6l8 -8h-15z" />
    <glyph glyph-name="FL00E6h" unicode="&#xc6;" horiz-adv-x="730" 
d="M679 257h-147v-111h156v-6l21 -21v-152h-454l-15 15l5 -15h-216l-21 21h-7l152 728h157l1 -8l20 -19l26 -127v154h331v-6l21 -21v-150h-177v-103h126v-6l21 -21v-152zM173 71q3 5 4 8t2 5l1 2l-1 13q-3 -10 -5 -10l2 32q1 1 1 4v52l1 16l-7 -16l2 -15q0 -9 -5 -9h-1l3 -7
q0 -7 -5 -7h-1q-3 0 -9 11t-6 16v1q0 1 0.5 2t0.5 3q1 1 1 6l-2 2q-2 2 -2 5l3 12q1 2 1.5 3.5t1.5 3.5q-1 0 -1 -1h-1q-1 0 -2 -0.5t-2 -0.5t-2 -1q-2 0 -3 -4l-30 -19h-5q-5 0 -7 2l-2 2q-6 0 -7 -9l-4 -24h-5l2 25h-15v2q5 2 7 3l4 2l-9 6h11q8 0 11.5 3.5t6.5 8.5
q1 1 1 2t1 2q3 5 7 5l9 -1q7 0 15 5h-9l28 28l6 8l2 2l1 1q0 1 1 2q3 4 8 9v3l5 18q-2 0 -3 1q-3 0 -3 4v2q0 31 24 45q2 2 4 7q3 3 10 3h4l-7 31q0 16 8.5 26.5t25.5 10.5q13 0 19 -8t8 -18l5 -31q0 1 -2 -5q0 -3 5.5 -5t9.5 -2q1 0 8 10q1 2 1.5 5t1.5 5l3 9q1 2 0.5 4.5
t3.5 6.5q3 11 4 21t1 23h3q4 0 6 -11q1 -1 1 -5q2 -6 4.5 -10.5t8.5 -4.5h4q3 1 6.5 2t5.5 1q0 -8 -7.5 -15t-14.5 -12l-10 -8l-2.5 -10t-4.5 -6q-1 -1 -1 -4q-1 -2 -1.5 -3.5l-0.5 -1.5q-1 -1 -1 -2q8 -8 11 -9q3 -2 5.5 -5t4.5 -13l-1 -27q1 -1 1 -6h-5q1 -1 1 -4v-1
q3 -5 3 -7q0 -6 1 -7q1 -2 3 -12v-8l4 -4l-1 -1q0 -2 0.5 -3.5t0.5 -3.5v-3q0 -4 -2 -6l-5 -26q-3 -2 -3 -4q0 -1 -4 -4v-13q-4 -4 -4 -6q-2 -8 -7 -13h-5l-3 -3l-7 -1q-1 -6 -2 -14.5t-1 -10.5v-18l-4 -20l-4 -53q-10 -16 -10 -28h403v126h-175v164h145v126h-145v154h175
v126h-299v-349h-4l-74 349h-127l-148 -696h182l-6 22q0 1 -1 1l-1 1q-2 1 -4 2.5t-4 8.5l-5 34l-1 -2q-3 -3 -6 -3zM240 122l15 -15l11 -19l1 2l4 19v14q0 3 1 8.5t1.5 12t1.5 12t1 7.5l12 1l4 4h4l-12 14h-6q0 4 -0.5 6t-0.5 4v2l-4 13l6 6q-4 4 -4 18v20l22 22q0 -5 1 -6
q0 -2 1 -2l2 -4l5 -6l1 -1q-1 1 -1 8l-3 4v2q-1 1 -1 6v20h4l1 10q-1 1 -1 3q-14 0 -23 10l-15 15q-16 4 -16 19v4l1 2l-3 15q-9 -6 -9 -18l7 -31q0 -15 -17 -15h-1q-2 -5 -3.5 -7.5l-1.5 -2.5h-2q-13 -6 -17 -19l9 -7l-10 -31v-10l-2 -2l2 -1q0 -3 -2 -11l7 -5l12 -24v-1
q0 -5 -1 -12t-7 -12l-2 -12v-22q8 -9 9.5 -14t1.5 -12q0 7 0.5 18.5t0.5 24.5zM237 59v1q1 0 1 2v31q-1 -1 -1 -4l-2 -8v-1q1 0 1 -2q1 -2 1 -11l-1 -7q0 -1 0.5 -1.5t0.5 -1.5v2zM291 231q0 -8 3 -9v11q0 5 -2 11l-1 -1v-12zM186 127l-2.5 -10t-3.5 -13l7 7q0 1 -1 2v13v1z
M221 49l-3 -6l3 -18v24zM180 196q5 2 5 10zM183 77q4 1 4 8zM238 41l-1 3v-6q0 1 0.5 1.5t0.5 1.5zM106 187q1 0 4 3q-4 -1 -4 -3zM292 202v-2l1 3z" />
    <glyph glyph-name="FL08D9h" unicode="&#xc7;" horiz-adv-x="385" 
d="M54 3h1q-41 26 -41 89v528q0 51 28 73.5t77 22.5h224v-6l21 -21v-150h-175v-393h154v-6l21 -21v-152h-86v-127h-145l-21 21h-6v110q-26 7 -40 22l-5 5zM160 -43h-38v-80h121v127h84v126h-175v446h175v124h-208q-42 0 -65.5 -18.5t-23.5 -61.5v-528q0 -45 23 -66.5
t66 -21.5h41v-47z" />
    <glyph glyph-name="FL00C8h" unicode="&#xc8;" horiz-adv-x="385" 
d="M132 740l-59 126h122l53 -126h-116zM152 294v-164h175v-126h-297v696h297v-124h-175v-156h145v-126h-145zM207 882h-157l72 -158h5l8 -8h-121v-728h6l21 -21h323v152l-21 21v6h-154v111h145v152l-21 21v6h-124v103h175v150l-21 21v6h-60l-56 141l-18 17z" />
    <glyph glyph-name="FL00C9h" unicode="&#xc9;" horiz-adv-x="385" 
d="M107 740l53 126h122l-59 -126h-116zM152 294v-164h175v-126h-297v696h297v-124h-175v-156h145v-126h-145zM307 882h-157l-64 -158h6l8 -8h-86v-728h6l21 -21h323v152l-21 21v6h-154v111h145v152l-21 21v6h-124v103h175v150l-21 21v6h-82l65 139l-22 19z" />
    <glyph glyph-name="FL00CAh" unicode="&#xca;" horiz-adv-x="385" 
d="M85 882h187l3 -8l17 -17l69 -154h-11l14 -14v-150h-175v-103h124v-6l21 -21v-152h-145v-111h154v-6l21 -21v-152h-323l-21 21h-6v728h17l-8 8h-8zM152 576h175v124h-297v-696h297v126h-175v164h145v126h-145v156zM178 793l25 -53h114l-56 126h-168l-55 -126h114zM194 724
l-4 -8h16l-8 8h-4z" />
    <glyph glyph-name="FL00CBh" unicode="&#xcb;" horiz-adv-x="385" 
d="M24 882h154v-6l1 -1v7h154v-6l21 -21v-152h-4l14 -14v-150h-175v-103h124v-6l21 -21v-152h-145v-111h154v-6l21 -21v-152h-323l-21 21h-6v728h24l-8 8h-6v158zM152 576h175v124h-297v-696h297v126h-175v164h145v126h-145v156zM40 866v-126h122v126h-122zM195 866v-126
h122v126h-122z" />
    <glyph glyph-name="FL00CCh" unicode="&#xcc;" horiz-adv-x="209" 
d="M-38 882h157l2 -8l18 -17l62 -154h-26l12 -14v-722h-146l-21 21h-6v728h35l-8 8h-5zM30 700v-696h122v696h-122zM-13 866l59 -126h114l-53 126h-120z" />
    <glyph glyph-name="FL00CDh" unicode="&#xcd;" horiz-adv-x="209" 
d="M62 882h157l-3 -8l22 -19l-69 -149l18 -17v-722h-146l-21 21h-6v728l-8 8h-8zM30 700v-696h122v696h-122zM72 866l-51 -126h114l59 126h-122z" />
    <glyph glyph-name="FL00CEh" unicode="&#xce;" horiz-adv-x="210" 
d="M41 -33l-21 21h-6v715h-58l-21 21h-8l70 158h189l3 -8l17 -17l67 -154h-98l14 -14v-722h-148zM30 700v-696h122v696h-122zM90 793l25 -53h116l-57 126h-167l-55 -126h114zM106 724l-4 -8h16l-8 8h-4z" />
    <glyph glyph-name="FL00CFh" unicode="&#xcf;" horiz-adv-x="210" 
d="M41 -33l-21 21h-6v715h-51l-21 21h-6v158h154v-6l1 -1v7h156v-6l19 -21v-152h-91l14 -14v-722h-148zM30 700v-696h122v696h-122zM-48 866v-126h124v126h-124zM107 866v-126h124v126h-124z" />
    <glyph glyph-name="FL07A3h" unicode="&#xd0;" horiz-adv-x="482" 
d="M284 257v152l-21 21v6h-31v103h54v-393h-54v111h52zM195 294v-164h107v444h-107v-154h52v-126h-52zM73 700h262q43 0 66 -21.5t23 -66.5v-520q0 -45 -23 -66.5t-66 -21.5h-262v290h-43v126h43v280zM14 436v-158h6l21 -21h16v-269h6l21 -21h273q104 0 104 101v520
q0 51 -25 75l-11 11v-1q-27 43 -90 43h-278v-280h-43z" />
    <glyph glyph-name="FL00D1h" unicode="&#xd1;" horiz-adv-x="436" 
d="M394 710l21 -21v-722h-121l-21 21h-5l-80 199v-220h-147l-21 21h-6v728h37l-8 8h-8l68 158h140l3 -9l14 -14l9 23h101l-3 -8l22 -19l-64 -139h69v-6zM155 308l123 -304h100v696h-121v-337h-4l-125 337h-98v-696h121v304h4zM149 793l24 -53h117l55 126h-66l-23 -53l-25 53
h-118l-55 -126h66zM158 703h-10l12 -12l81 -219v231h-52l-21 21h-3z" />
    <glyph glyph-name="FL00D2h" unicode="&#xd2;" 
d="M75 882h157l2 -8l18 -17l56 -142q52 -6 74 -39l11 -11q25 -24 25 -75v-522q0 -101 -104 -101h-171q-51 0 -77 26l-5 5l-7 5h1q-41 26 -41 89v522q0 54 27 78t78 24h41l-8 8h-5zM292 4q43 0 66 21.5t23 66.5v522q0 45 -23 65.5t-66 20.5h-173q-43 0 -66 -20.5t-23 -65.5
v-522q0 -45 23 -66.5t66 -21.5h173zM162 166l-2 -1q-2 2 -5 2l-3 2l-2 3q-3 3 -3 11l-1 3q0 1 -1 2v3l-2 3q-1 1 -1 6v21l12 8l-2 6q-9 12 -10 22v2q-1 -1 -1 -3l-3 -1l-1 -9v-17q0 -6 -3 -9l-22 -51v-1q0 -3 -5 -3l-1 4l9 27q0 3 3 8l0.5 0.5t0.5 1.5v1q0 4 1 5v-1
q3 6 3.5 10.5t2.5 7.5h-2h-1l-21 -60q-5 0 -5 4v2q0 3 1 4l3 10v3v1v-1l12 37q0 2 2 4q2 6 6 10l1 1q0 1 1 2v-1q0 2 3 5q1 3 2.5 8t3.5 7l1 4v17l-2 23q0 5 -8 11h-2q-5 0 -9 4l-2 2q-1 1 -1 5h-1l-2 -2v11q-1 1 -1 4v1q0 1 -1 1v2l-1 1q0 1 -2 3l-1 5l-3 18l-1 1
q-2 0 -2 4v9v7q0 1 1 2q6 2 7 7q0 14 4 15v1q0 12 1 15q0 1 0.5 2t0.5 2v5q0 4 -1 5q0 1 -0.5 1.5t-0.5 1.5v17q0 11 1 13q0 8 5 11l1 1q1 0 2 1l11 12q4 0 9 5l6 4v1h6q1 2 4 5v-1q2 2 4 2l1 1q-1 2 -1 14v23q0 4 5 7v1l1 1q0 4 2 6q2 8 4.5 9.5t8.5 3.5h-2l6 4l7 1
q4 0 6 -2h3q17 -8 21 -25q1 -1 1.5 -2t1.5 -2l1 -12q0 -4 -1 -5v-25l3 -1q3 0 4 -1q2 -2 2 -6q8 14 12 28.5t6 28.5q0 2 1 9t2 9l1 1v5q0 8 0.5 9.5t3.5 1.5h1q5 0 5 -8v-15q1 -13 13 -13h8h1q0 1 2 1q5 0 5 -3q0 -6 -4 -10q-1 0 -2 -1q-4 -4 -8 -5h1q-5 -4 -7.5 -5.5
t-4.5 -2.5q-10 -6 -13.5 -15.5t-5.5 -19.5l2 -2h-1q13 -8 17 -23.5t4 -26.5l3 -1q2 -2 9.5 -6t9.5 -5q12 -8 15 -14q4 -8 12 -12l5 -6l3 -1v-10l1 -1v-3l1 -1q0 -9 -1 -11l-1 -8q0 -9 -4 -13q-3 0 -4 -1l-8 -4h-3v3q0 3 3 6q6 4 6 10v2q0 4 -0.5 7t-4.5 5l-7 3v1v-1
q-4 4 -6 7h-2q-4 0 -5 -1l-16 -2v-2l2 2q3 0 5 -2q1 0 1 -1v-1q0 -6 1 -7l2 -6q5 -25 5 -36l1 -6v-1q0 -2 -1 -2v-1q0 -5 1 -6q2 -6 2 -10v-6q-5 -3 -7 -5.5t-4 -6.5q0 -2 -1 -3l-4 -4q-2 -5 -3 -6q3 -6 6 -9v-1q1 0 1 -1l1 -2q6 -2 6 -10q0 -2 2 -4v-1v-1q0 -2 1 -5.5
t3 -4.5l5 -9v-4q0 -1 -1 -1v-2l1 -14q3 -6 3 -11q0 -7 -2 -9q0 -5 3 -6v-3v-2q0 -6 -4 -7q0 4 -1 4l-1 -2q-1 -1 -5 -1v2h-1q0 -4 -1 -4q0 -1 -2 -1h1q3 0 5 -2q0 -6 -1 -6v-3q0 -3 -4 -3h-6l-3 -1h-4l-2 -3v-4h2v-5h-7q0 3 -2 3q0 8 -3 11l-5 7h-5h-4q-2 -3 -7 -3l-2 1
l-5 -5v3q-1 -3 -4 -4h-4l-1 -3q-1 -3 -3 -7q0 -2 -1 -3t-1 -4q-1 0 -1 -2q-2 -9 -3 -15t-2 -17v-5h-43l-2 7q-2 2 -2 8v4q-1 9 -5 14v2q0 1 -0.5 2t-0.5 3t-0.5 6.5t-0.5 8.5zM257 238v5q-5 5 -5 15v16l9 1q-2 2 -3 5t-3 8q-2 2 -2 4l-1 1q-2 2 -2 7v10h-1q-8 17 -12 29.5
t-7 24.5q-2 8 -4 15.5t-3 10.5v5q0 5 3.5 10.5t14.5 5.5h15v-6l2 -2v12l25 2q2 0 2.5 0.5t2.5 0.5l-5 5l-5 3l-15 15q-3 1 -5 3l-6 3q0 14 -3 29q-2 0 -4 2v-1l-9 8l-1 1q-1 0 -1 1l-10 10q-10 0 -11 9q-5 1 -7 3t-2 13v30h-2q-3 -3 -4 -7q0 -5 -1 -6q0 -7 -5 -7v-25h1
l3 -12l-8 -6l-2 -2q-2 -2 -6 -2l-6 -4h-2l-4 -3q-1 -1 -3 -1q0 -1 -1 -1q-1 -1 -2 -1l-13 -13l-2 -2q-1 -1 -2 -1q-1 -1 -1 -6q-1 -1 -1 -7v-15q2 -8 2 -10v-7q-1 -1 -1 -4q3 -3 5 -9v1l9 -8q5 -5 8.5 -9t3.5 -9v-7q0 -3 5 -11l2 -2q0 -12 -1 -15t-3 -5l-3 -3v-12h-1v-16h-1
v-17v-2l2 -23v-7l7 -7q2 -2 2 -5v-10q2 -4 7 -9l2 -2l4 -26l-13 -9v-11l3 -4v-6l2 -5v-2l8 -7l5 -10q0 -1 0.5 -1.5t0.5 -1.5q0 -5 1 -6v-3q0 -1 0.5 -1.5t0.5 -1.5v-1q1 8 2 14t3 11q0 8 2 10q0 1 3 4v-1l1 3q5 12 10 15l1 1q0 2 1 3v14q8 0 13 -0.5t8 -1.5q0 1 2 3v-1
q3 5 5.5 11t7.5 13v2q-1 1 -1 5zM98 866l59 -126h116l-53 126h-122zM259 325q3 -2 5 -13q2 4 2.5 10.5t0.5 8.5v7l-14 30q-8 8 -8 17q0 3 -1 4q-4 1 -4 6h-1v-4l3 -12q1 -4 2 -7t2 -5q0 -2 0.5 -2.5t0.5 -2.5q4 -17 12 -37zM130 363l1 -1h-1q2 0 2 -3v-2q0 1 1 1v1q0 3 4 10
q0 2 1 3v-1q0 1 1 2q-5 5 -5.5 9.5t-0.5 10.5v6q-1 -1 -1 -2v-2q0 -2 -1 -3zM273 212q-6 1 -9 6v-2v-3l14 -13q0 5 1 6zM274 236q0 -4 2 -6h2q0 -1 1 -2v3q0 12 -4 19q-1 -1 -1 -5v-4l-1 -1zM266 304q1 -1 1 -3t1 -3q0 -2 1 -2v2l1 5q-3 0 -4 1zM131 347q0 -4 1 -5v6h-1v-1z
M239 183q0 -1 -1 -1v-2l1 1l1 1zM238 180q-1 -1 -1 -4q0 2 1 3v1zM268 258v-1v1q1 0 1 1h-1v-1z" />
    <glyph glyph-name="FL00D3h" unicode="&#xd3;" 
d="M179 882h157l-3 -8l22 -19l-65 -139h2q62 0 90 -40l11 -11q25 -24 25 -75v-522q0 -101 -104 -101h-171q-51 0 -77 26l-5 5l-7 5h1q-41 26 -41 89v522q0 54 27 78t78 24h10l-8 8h-8zM292 4q43 0 66 21.5t23 66.5v522q0 45 -23 65.5t-66 20.5h-173q-43 0 -66 -20.5
t-23 -65.5v-522q0 -45 23 -66.5t66 -21.5h173zM162 166l-2 -1q-2 2 -5 2l-3 2l-2 3q-3 3 -3 11l-1 3q0 1 -1 2v3l-2 3q-1 1 -1 6v21l12 8l-2 6q-9 12 -10 22v2q-1 -1 -1 -3l-3 -1l-1 -9v-17q0 -6 -3 -9l-22 -51v-1q0 -3 -5 -3l-1 4l9 27q0 3 3 8l0.5 0.5t0.5 1.5v1q0 4 1 5
v-1q3 6 3.5 10.5t2.5 7.5h-2h-1l-21 -60q-5 0 -5 4v2q0 3 1 4l3 10v3v1v-1l12 37q0 2 2 4q2 6 6 10l1 1q0 1 1 2v-1q0 2 3 5q1 3 2.5 8t3.5 7l1 4v17l-2 23q0 5 -8 11h-2q-5 0 -9 4l-2 2q-1 1 -1 5h-1l-2 -2v11q-1 1 -1 4v1q0 1 -1 1v2l-1 1q0 1 -2 3l-1 5l-3 18l-1 1
q-2 0 -2 4v9v7q0 1 1 2q6 2 7 7q0 14 4 15v1q0 12 1 15q0 1 0.5 2t0.5 2v5q0 4 -1 5q0 1 -0.5 1.5t-0.5 1.5v17q0 11 1 13q0 8 5 11l1 1q1 0 2 1l11 12q4 0 9 5l6 4v1h6q1 2 4 5v-1q2 2 4 2l1 1q-1 2 -1 14v23q0 4 5 7v1l1 1v-1q0 3 2 7q2 8 4.5 9.5t8.5 3.5h-2l6 4l7 1
q4 0 6 -2h3q17 -8 21 -25q1 -1 1.5 -2t1.5 -2l1 -12q0 -4 -1 -5v-25l3 -1q3 0 4 -1q2 -2 2 -6q8 14 12 28.5t6 28.5q0 2 1 9t2 9l1 1v5q0 8 0.5 9.5t3.5 1.5h1q5 0 5 -8v-15q1 -13 13 -13h8h1q0 1 2 1q5 0 5 -3q0 -6 -4 -10q-1 0 -2 -1q-4 -4 -8 -5h1q-5 -4 -7.5 -5.5
t-4.5 -2.5q-10 -6 -13.5 -15.5t-5.5 -19.5l2 -2h-1q13 -8 17 -23.5t4 -26.5l3 -1q2 -2 9.5 -6t9.5 -5q12 -8 15 -14q4 -8 12 -12l5 -6l3 -1v-10l1 -1v-3l1 -1q0 -10 -1 -11v1l-1 -9q0 -9 -4 -13q-3 0 -4 -1l-8 -4h-3v3q0 3 3 6q6 4 6 10v2q0 4 -0.5 7t-4.5 5l-7 3v1v-1
q-4 4 -6 7h-2q-4 0 -5 -1l-16 -2v-2l2 2q3 0 5 -2q1 0 1 -1v-1q0 -6 1 -7l2 -6q5 -25 5 -36l1 -6v-1q0 -2 -1 -2v-1q0 -5 1 -6q2 -6 2 -10v-6q-5 -3 -7 -5.5t-4 -6.5q0 -2 -1 -3l-4 -4q-2 -5 -3 -6q3 -6 6 -9v-1q1 0 1 -1l1 -2q6 -2 6 -10q0 -2 2 -4q0 -1 1 -5.5t3 -6.5
l5 -9v-4q0 -1 -1 -1v-2l1 -14q3 -6 3 -11q0 -7 -2 -9q0 -5 3 -6v-3v-2q0 -6 -4 -7q0 4 -1 4l-1 -2q-1 -1 -5 -1v2h-1q0 -4 -1 -4q0 -1 -2 -1h1q3 0 5 -2q0 -6 -1 -6v-3q0 -3 -4 -3h-6l-3 -1h-4l-2 -3v-4h2v-5h-7q0 3 -2 3q0 8 -3 11l-5 7h-5h-4q-2 -3 -7 -3l-2 1l-5 -5v3
q-1 -3 -4 -4h-4l-1 -3q-1 -3 -3 -7q0 -2 -1 -3t-1 -4q-1 0 -1 -2q-2 -9 -3 -15t-2 -17v-5h-43l-2 7q-2 2 -2 8v4q-1 9 -5 14v2q0 1 -0.5 2t-0.5 3t-0.5 6.5t-0.5 8.5zM257 238v5q-5 5 -5 15v16l9 1q-2 2 -3 5t-3 8q-2 2 -2 4l-1 1q-2 2 -2 7v10h-1q-8 17 -12 29.5t-7 24.5
q-2 8 -4 15.5t-3 10.5v5q0 5 3.5 10.5t14.5 5.5h15v-6l2 -2v12l25 2q2 0 2.5 0.5t2.5 0.5l-5 5l-5 3l-15 15q-3 1 -5 3l-6 3q0 14 -3 29q-2 0 -4 2v-1l-9 8l-1 1q-1 0 -1 1l-10 10q-10 0 -11 9q-5 1 -7 3t-2 13v30h-2q-3 -3 -4 -7q0 -5 -1 -6q0 -7 -5 -7v-25h1l3 -12l-8 -6
l-2 -2q-2 -2 -6 -2l-6 -4h-2l-4 -3q-1 -1 -3 -1q0 -1 -1 -1q-1 -1 -2 -1l-13 -13l-2 -2q-1 -1 -2 -1q-1 -1 -1 -6q-1 -1 -1 -7v-15q2 -8 2 -10v-7q-1 -1 -1 -4q2 -3 3 -5t2 -3l9 -8q5 -5 8.5 -9t3.5 -9v-7q0 -3 5 -11l2 -2q0 -12 -1 -15t-3 -5l-3 -3v-12h-1v-16h-1v-17v-2
l2 -23v-7l7 -7q2 -2 2 -5v-11l1.5 -3t5.5 -5q0 -2 2 -2l4 -26l-13 -9v-11l3 -4v-6l2 -5v-2l8 -7l5 -10q0 -1 0.5 -1.5t0.5 -1.5q0 -5 1 -6v-3q0 -1 0.5 -1.5t0.5 -1.5v-1q1 8 2 14t3 11q0 8 2 10v-1q0 2 3 5v-1l1 3q5 12 10 15l1 1q0 2 1 3v14q13 0 21 -2q5 9 8 15t7 12v2
q-1 1 -1 4zM189 866l-53 -126h116l59 126h-122zM259 325q3 -2 5 -13q2 4 2.5 10.5t0.5 8.5v7l-14 30q-8 8 -8 17q0 3 -1 4q-4 1 -4 6h-1v-4l3 -12q1 -4 2 -7t2 -5q0 -2 0.5 -2.5t0.5 -2.5q4 -17 12 -37zM130 363l1 -1h-1q2 0 2 -3v-2q0 1 1 1v1q0 3 4 10q0 2 1 3v-1q0 1 1 2
q-5 5 -5.5 9.5t-0.5 10.5v6q-1 -1 -1 -2v-2q0 -2 -1 -3zM274 212q-7 0 -10 5v-1v-3l14 -13q0 6 1 7zM274 236q0 -4 2 -6h2q0 -1 1 -2v3q0 12 -4 19q-1 -1 -1 -5v-4l-1 -1zM322 172l4 -4l-4 -4l-4 4zM260 164l1 -1v2l4 -4l-1 -1l2 -1l-5 -3v1l-1 -1v8zM266 304q1 -1 1 -3
t1 -3q0 -2 1 -2v2l1 5q-3 0 -4 1zM131 347q0 -4 1 -5v6h-1v-1zM239 183q0 -1 -1 -1v-2l1 1l1 1zM238 180q-1 -1 -1 -4q0 2 1 3v1zM268 258v-1v1q1 0 1 1h-1v-1z" />
    <glyph glyph-name="FL00D4h" unicode="&#xd4;" 
d="M110 882h191l2 -9l16 -16l69 -154h-37q20 -11 31 -28v1l11 -11q25 -24 25 -75v-522q0 -101 -104 -101h-171q-51 0 -77 26l-5 5l-7 5h1q-41 26 -41 89v522q0 69 53 92l-17 18h-8zM292 4q43 0 66 21.5t23 66.5v522q0 45 -23 65.5t-66 20.5h-173q-43 0 -66 -20.5t-23 -65.5
v-522q0 -45 23 -66.5t66 -21.5h173zM162 166l-2 -1q-2 2 -5 2l-3 2l-2 3q-3 3 -3 11l-1 3q0 1 -1 2v3l-2 3q-1 1 -1 6v21l12 8l-2 6q-9 12 -10 22v2q-1 -1 -1 -3l-3 -1l-1 -9v-17q0 -6 -3 -9l-22 -51v-1q0 -3 -5 -3l-1 4l9 27q0 3 3 8l0.5 0.5t0.5 1.5v1q0 4 1 5v-1
q3 6 3.5 10.5t2.5 7.5h-2h-1l-21 -60q-5 0 -5 4v2q0 3 1 4l3 10v3v1v-1l12 37q0 2 2 4q2 6 6 10l1 1q0 1 1 2q0 1 3 4q1 3 2.5 8t3.5 7l1 4v17l-2 23q0 5 -8 11h-2q-5 0 -9 4l-2 2q-1 1 -1 5h-1l-2 -2v11q-1 1 -1 4v1q0 1 -1 1v2l-1 1q0 1 -2 3l-1 5l-3 18l-1 1q-2 0 -2 4v9
v7q0 1 1 2q6 2 7 7q0 14 4 15v1q0 12 1 15q0 1 0.5 2t0.5 2v5q0 4 -1 5q0 1 -0.5 1.5t-0.5 1.5v17q0 13 1 14q0 7 5 10l1 1q1 0 2 1l11 12q4 0 9 5l6 4v1h6l2 3q0 1 1 1q2 2 5 2l1 1q-1 2 -1 14v23q0 4 5 7v1l1 1v-1q0 3 2 7q2 8 4.5 9.5t8.5 3.5h-2l6 4l7 1q4 0 6 -2h3
q17 -8 21 -25q1 -1 1.5 -2t1.5 -2l1 -12q0 -4 -1 -5v-25l3 -1q3 0 4 -1q2 -2 2 -6q8 14 12 28.5t6 28.5q0 2 1 9t2 9l1 1v5q0 8 0.5 9.5t3.5 1.5h1q5 0 5 -8v-15q1 -13 13 -13h8h1q0 1 2 1q5 0 5 -3q0 -6 -4 -10q-1 0 -2 -1q-4 -4 -8 -5h1l-1 -1q-4 -3 -6.5 -4.5t-4.5 -2.5
q-10 -6 -13.5 -15.5t-5.5 -19.5l2 -2h-1q13 -8 17 -23.5t4 -26.5l3 -1q2 -2 9.5 -6t9.5 -5q12 -8 15 -14q4 -8 12 -12l5 -6l3 -1v-10l1 -1v-3l1 -1q0 -9 -1 -11l-1 -8q0 -9 -4 -13q-3 0 -4 -1l-8 -4h-3v3q0 3 3 6q6 4 6 10v2q0 4 -0.5 7t-4.5 5l-7 3v1v-1q-4 4 -6 7h-2
q-4 0 -5 -1l-16 -2v-2l2 2q3 0 5 -2q1 0 1 -1v-1q0 -6 1 -7l2 -6q5 -25 5 -36l1 -6v-1q0 -2 -1 -2v-1q0 -5 1 -6q2 -6 2 -10v-6q-5 -3 -7 -5.5t-4 -6.5q0 -2 -1 -3l-4 -4q-2 -5 -3 -6q3 -6 6 -9v-1q1 0 1 -1l1 -2q6 -2 6 -10q0 -2 2 -4q0 -1 1 -5.5t3 -6.5l5 -9v-4
q0 -1 -1 -1v-2l1 -14q3 -6 3 -11q0 -7 -2 -9q0 -5 3 -6v-3v-2q0 -6 -4 -7q0 4 -1 4l-1 -2q-1 -1 -5 -1v2h-1q0 -4 -1 -4q0 -1 -2 -1h1q3 0 5 -2q0 -6 -1 -6v-3q0 -3 -4 -3h-6l-3 -1h-4l-2 -3v-4h2v-5h-7q0 3 -2 3q0 8 -3 11l-5 7h-5h-4q-2 -3 -7 -3l-2 1l-5 -5v3
q-1 -3 -4 -4h-4l-1 -3q-1 -3 -3 -7q0 -2 -1 -3t-1 -4q-1 0 -1 -2q-2 -9 -3 -15t-2 -17v-5h-43l-2 7q-2 4 -2 8v4q-1 9 -5 14v2q0 1 -0.5 2t-0.5 3t-0.5 6.5t-0.5 8.5zM205 793l25 -53h114l-55 126h-169l-55 -126h114zM257 238v5q-5 5 -5 15v16l9 1q-2 2 -3 5t-3 8q-2 2 -2 4
l-1 1q-2 2 -2 7v10h-1q-8 17 -12 29.5t-7 24.5q-2 8 -4 15.5t-3 10.5v5q0 5 3.5 10.5t14.5 5.5h15v-6l2 -2v12l25 2q2 0 2.5 0.5t2.5 0.5l-5 5l-5 3l-15 15q-3 1 -5 3l-6 3q0 14 -3 29q-2 0 -4 2v-1l-9 8l-1 1q-1 0 -1 1l-10 10q-10 0 -11 9q-5 1 -7 3t-2 13v30h-2
q-3 -3 -4 -7q0 -5 -1 -6q0 -7 -5 -7v-25h1l3 -12l-8 -6l-2 -2q-2 -2 -6 -2l-6 -4h-2l-4 -3q-1 -1 -3 -1q0 -1 -1 -1q-1 -1 -2 -1l-13 -13l-2 -2q-1 -1 -2 -1q-1 -1 -1 -6q-1 -1 -1 -7v-15q2 -8 2 -10v-7q-1 -1 -1 -4q2 -3 3 -5t2 -3l9 -8q5 -5 8.5 -9t3.5 -9v-7q0 -3 5 -11
l2 -2q0 -12 -1 -15t-3 -5l-3 -3v-12h-1v-16h-1v-17v-2l2 -23v-7l7 -7q2 -2 2 -5v-10q2 -4 7 -9l2 -2l4 -26l-13 -9v-11l3 -4v-6l2 -5v-2l8 -7l5 -10q0 -1 0.5 -1.5t0.5 -1.5q0 -5 1 -6v-3q0 -1 0.5 -1.5t0.5 -1.5q1 7 2 13t3 11q0 8 2 10v-1q0 2 3 5v-1l1 3q5 12 10 15l1 1
q0 2 1 3v14q13 0 21 -2q5 9 8 15t7 12v2q-1 1 -1 4zM259 325q3 -2 5 -13q2 4 2.5 10.5t0.5 8.5v7l-14 30q-8 8 -8 17q0 3 -1 4q-4 1 -4 6h-1v-4l3 -12q1 -4 2 -7t2 -5q0 -2 0.5 -2.5t0.5 -2.5q4 -17 12 -37zM130 363l1 -1h-1q2 0 2 -3v-2q0 1 1 1v1q0 3 4 10q0 2 1 3v-1
q0 1 1 2q-5 5 -5.5 9.5t-0.5 10.5v6q-1 -1 -1 -2v-2q0 -2 -1 -3zM274 212q-7 0 -10 5v-1v-3l14 -13q0 6 1 7zM274 236q0 -4 2 -6h2q0 -1 1 -2v3q0 12 -4 19q-1 -1 -1 -5v-4l-1 -1zM221 724l-4 -8h16l-8 8h-4zM322 172l4 -4l-4 -4l-4 4zM317 164l2 -2l-2 -5l-5 5zM266 304
q1 -1 1 -3t1 -3q0 -2 1 -2v2l1 5q-3 0 -4 1zM131 347q0 -4 1 -5v6h-1v-1zM239 183q0 -1 -1 -1v-2l2 2zM238 180q-1 -1 -1 -4q0 2 1 3v1zM268 258v-1v1q1 0 1 1h-1v-1z" />
    <glyph glyph-name="FL00D5h" unicode="&#xd5;" 
d="M373 882l-3 -8l22 -19l-65 -145q37 -9 55 -34l11 -11q25 -24 25 -75v-522q0 -101 -104 -101h-171q-51 0 -77 26l-5 5l-7 5h1q-41 26 -41 89v522q0 65 51 91l-19 19h-8l68 158h140l3 -9l14 -14l9 23h101zM292 4q43 0 66 21.5t23 66.5v522q0 45 -23 65.5t-66 20.5h-173
q-43 0 -66 -20.5t-23 -65.5v-522q0 -45 23 -66.5t66 -21.5h173zM162 166l-2 -1q-2 2 -5 2l-3 2l-2 3q-3 3 -3 11l-1 3q0 1 -1 2v3l-2 3q-1 1 -1 6v21l12 8l-2 6q-9 12 -10 22v2q-1 -1 -1 -3l-3 -1l-1 -9v-17q0 -6 -3 -9l-22 -51v-1q0 -3 -5 -3l-1 4l9 27q0 3 3 8l0.5 0.5
t0.5 1.5v1q0 4 1 5v-1q3 6 3.5 10.5t2.5 7.5h-2h-1l-21 -60q-5 0 -5 4v2q0 3 1 4l3 10v3v1v-1l12 37q0 2 2 4q2 6 6 10l1 1q0 1 1 2v-1q0 2 3 5q1 3 2.5 8t3.5 7v-1l1 5v17l-2 23q0 5 -8 11h-2q-5 0 -9 4l-2 2q-1 1 -1 5h-1l-2 -2v11q-1 1 -1 4v1q0 1 -1 1v2l-1 1q0 1 -2 3
l-1 5l-3 18l-1 1q-2 0 -2 4v9v7q0 1 1 2q6 2 7 7q0 14 4 15v1q0 12 1 15q0 1 0.5 2t0.5 2v5q0 4 -1 5q0 1 -0.5 1.5t-0.5 1.5v17q0 11 1 13q0 8 5 11l1 1q1 0 2 1l11 12q4 0 9 5l6 4v1h6l2 3q0 1 1 1q2 2 5 2l1 1q-1 2 -1 14v23q0 4 5 7v1l1 1q0 4 2 6q2 8 4.5 9.5t8.5 3.5
h-2l6 4l7 1q4 0 6 -2h3q17 -8 21 -25q1 -1 1.5 -2t1.5 -2l1 -12q0 -4 -1 -5v-25l3 -1q3 0 4 -1q2 -2 2 -6q8 14 12 28.5t6 28.5q0 2 1 9t2 9l1 1v5q0 8 0.5 9.5t3.5 1.5h1q5 0 5 -8v-15q1 -13 13 -13h8h1q0 1 2 1q5 0 5 -3q0 -6 -4 -10q-1 0 -2 -1q-4 -4 -8 -5h1
q-5 -4 -7.5 -5.5t-4.5 -2.5q-10 -6 -13.5 -15.5t-5.5 -19.5l2 -2h-1q13 -8 17 -23.5t4 -26.5l3 -1q2 -2 9.5 -6t9.5 -5q12 -8 15 -14q4 -8 12 -12l5 -6l3 -1v-10l1 -1v-3l1 -1q0 -10 -1 -11v1l-1 -9q0 -9 -4 -13q-3 0 -4 -1l-8 -4h-3v3q0 3 3 6q6 4 6 10v2q0 4 -0.5 7
t-4.5 5l-7 3v1v-1q-4 4 -6 7h-2q-4 0 -5 -1l-16 -2v-2l2 2q3 0 5 -2q1 0 1 -1v-1q0 -6 1 -7l2 -6q5 -25 5 -36l1 -6v-1q0 -2 -1 -2v-1q0 -5 1 -6q2 -6 2 -10v-6q-5 -3 -7 -5.5t-4 -6.5q0 -2 -1 -3l-4 -4q-2 -5 -3 -6q3 -6 6 -9v-1q1 0 1 -1l1 -2q6 -2 6 -10q0 -2 2 -4
q0 -1 1 -5.5t3 -6.5l5 -9v-4q0 -1 -1 -1v-2l1 -14q3 -6 3 -11q0 -7 -2 -9q0 -5 3 -6v-3v-2q0 -6 -4 -7q0 4 -1 4l-1 -2q-1 -1 -5 -1v2h-1q0 -4 -1 -4q0 -1 -2 -1h1q3 0 5 -2q0 -6 -1 -6v-3q0 -3 -4 -3h-6l-3 -1h-4l-2 -3v-4h2v-5h-7q0 3 -2 3q0 8 -3 11l-5 7h-5h-4
q-2 -3 -7 -3l-2 1l-5 -5v3q-1 -3 -4 -4h-4l-1 -3q-1 -3 -3 -7q0 -2 -1 -3t-1 -4q-1 0 -1 -2q-2 -9 -3 -15t-2 -17v-5h-43l-2 7q-2 4 -2 8v4q-1 9 -5 14v2q0 1 -0.5 2t-0.5 3t-0.5 6.5t-0.5 8.5zM152 793l24 -53h117l55 126h-66l-23 -53l-25 53h-118l-55 -126h66zM257 238v5
q-5 5 -5 15v16l9 1q-2 2 -3 5t-3 8q-2 2 -2 4l-1 1q-2 2 -2 7v10h-1q-8 17 -12 29.5t-7 24.5q-2 8 -4 15.5t-3 10.5v5q0 5 3.5 10.5t14.5 5.5h15v-6l2 -2v12l25 2q2 0 2.5 0.5t2.5 0.5l-5 5l-5 3l-15 15q-3 1 -5 3l-6 3q0 14 -3 29q-2 0 -4 2v-1l-9 8l-1 1q-1 0 -1 1l-10 10
q-10 0 -11 9q-5 1 -7 3t-2 13v30h-2q-3 -3 -4 -7q0 -5 -1 -6q0 -7 -5 -7v-25l4 -12l-8 -6l-2 -2q-2 -2 -6 -2l-6 -4h-2l-4 -3q-1 -1 -3 -1q0 -1 -1 -1q-1 -1 -2 -1l-13 -13l-2 -2q-1 -1 -2 -1q-1 -1 -1 -6q-1 -1 -1 -7v-15q2 -8 2 -10v-7q-1 -1 -1 -4q3 -3 5 -9v1l9 -8
q5 -5 8.5 -9t3.5 -9v-7q0 -3 5 -11l2 -2q0 -12 -1 -15t-3 -5l-3 -3v-12h-1v-16h-1v-17v-2l2 -23v-7l7 -7q2 -2 2 -5v-10q0 -2 9 -11l4 -26l-13 -9v-11l3 -4v-6l2 -5v-2l8 -7l5 -10q0 -1 0.5 -1.5t0.5 -1.5q0 -5 1 -6v-3q0 -1 0.5 -1.5t0.5 -1.5q1 7 2 13t3 11q0 8 2 10
q0 1 3 4v-1l1 3q5 12 10 15l1 1q0 2 1 3v14q13 0 21 -2q4 8 6.5 12t5.5 9v-1q1 2 2 3t2 3q0 1 -1 1v1q-1 1 -1 5zM259 325q3 -2 5 -13q2 4 2.5 10.5t0.5 8.5v7l-14 30q-8 8 -8 17q0 3 -1 4q-4 1 -4 6h-1v-4l3 -12q1 -4 2 -7t2 -5q0 -2 0.5 -2.5t0.5 -2.5q4 -17 12 -37z
M130 363l1 -1h-1q2 0 2 -3v-2q0 1 1 1v1q0 3 4 10v-1q0 3 1 4v-1q0 1 1 2q-5 5 -5.5 9.5t-0.5 10.5v6q-1 -1 -1 -2v-2q0 -2 -1 -3zM274 236q0 -4 2 -6h2q0 -1 1 -2v3q0 12 -4 19q-1 -1 -1 -5v-4l-1 -1zM168 724l-4 -8h15l-8 8h-3zM261 156v1l-1 -1v8l1 -1v2l4 -4l-1 -1l2 -1
zM317 164l2 -2l-2 -5l-5 5zM266 304q1 -1 1 -3t1 -3q0 -2 1 -2v2l1 5q-3 0 -4 1zM131 347q0 -4 1 -5v6h-1v-1zM239 183q0 -1 -1 -1v-2l2 2zM238 180q-1 -1 -1 -4q0 2 1 3v1zM268 258v-1v1q1 0 1 1h-1v-1z" />
    <glyph glyph-name="FL00D6h" unicode="&#xd6;" 
d="M51 882h154v-6l1 -1v7h154v-6l21 -21v-152h-30q20 -11 31 -28v1l11 -11q25 -24 25 -75v-522q0 -101 -104 -101h-171q-51 0 -77 26l-5 5l-7 5h1q-41 26 -41 89v522q0 75 58 94l-15 16h-6v158zM292 4q43 0 66 21.5t23 66.5v522q0 45 -23 65.5t-66 20.5h-173
q-43 0 -66 -20.5t-23 -65.5v-522q0 -45 23 -66.5t66 -21.5h173zM162 166l-2 -1q-2 2 -5 2l-3 2l-2 3q-3 3 -3 11l-1 3q0 1 -1 2v3l-2 3q-1 1 -1 6v21l12 8l-2 6q-9 12 -10 22v2q-1 -1 -1 -3l-3 -1l-1 -9v-17q0 -6 -3 -9l-22 -51v-1q0 -3 -5 -3l-1 4l9 27q0 3 3 8l0.5 0.5
t0.5 1.5v1q0 4 1 5v-1q3 6 3.5 10.5t2.5 7.5h-2h-1l-21 -60q-5 0 -5 4v2q0 3 1 4l3 10v3v1v-1l12 37q0 2 2 4q2 6 6 10l1 1q0 1 1 2v-1q0 2 3 5q1 3 2.5 8t3.5 7l1 4v17l-2 23q0 5 -8 11h-2q-5 0 -9 4l-2 2q-1 1 -1 5h-1l-2 -2v11q-1 1 -1 4v1q0 1 -1 1v2l-1 1q0 1 -2 3
l-1 5l-3 18l-1 1q-2 0 -2 4v9v7q0 1 1 2q6 2 7 7q0 14 4 15v1q0 12 1 15q0 1 0.5 2t0.5 2v5q0 4 -1 5q0 1 -0.5 1.5t-0.5 1.5v17q0 11 1 13q0 8 5 11l1 1q1 0 2 1l11 12q4 0 9 5l6 4v1h6q1 2 4 5v-1q2 2 4 2l1 1q-1 2 -1 14v23q0 4 5 7v1l1 1q0 4 2 6q2 8 4.5 9.5t8.5 3.5
h-2l6 4l7 1q4 0 6 -2h3q17 -8 21 -25q1 -1 1.5 -2t1.5 -2l1 -12q0 -4 -1 -5v-25l3 -1q3 0 4 -1q2 -2 2 -6q8 14 12 28.5t6 28.5q0 2 1 9t2 9l1 1v5q0 8 0.5 9.5t3.5 1.5h1q5 0 5 -8v-15q1 -13 13 -13h8h1q0 1 2 1q5 0 5 -3q0 -6 -4 -10q-1 0 -2 -1q-4 -4 -8 -5h1
q-5 -4 -7.5 -5.5t-4.5 -2.5q-10 -6 -13.5 -15.5t-5.5 -19.5l2 -2h-1q13 -8 17 -23.5t4 -26.5l3 -1q2 -2 9.5 -6t9.5 -5q12 -8 15 -14q4 -8 12 -12l5 -6l3 -1v-10l1 -1v-3l1 -1q0 -9 -1 -11l-1 -8q0 -9 -4 -13q-3 0 -4 -1l-8 -4h-3v3q0 3 3 6q6 4 6 10v2q0 4 -0.5 7t-4.5 5
l-7 3v1v-1q-4 4 -6 7h-2q-4 0 -5 -1l-16 -2v-2l2 2q3 0 5 -2q1 0 1 -1v-1q0 -6 1 -7l2 -6q5 -25 5 -36l1 -6v-1q0 -2 -1 -2v-1q0 -5 1 -6q2 -6 2 -10v-6q-5 -3 -7 -5.5t-4 -6.5q0 -2 -1 -3l-4 -4q-2 -5 -3 -6q3 -6 6 -9v-1q1 0 1 -1l1 -2q6 -2 6 -10q0 -2 2 -4v-1v-1
q0 -2 1 -5.5t3 -4.5l5 -9v-4q0 -1 -1 -1v-2l1 -14q3 -6 3 -11q0 -7 -2 -9q0 -5 3 -6v-3v-2q0 -6 -4 -7q0 4 -1 4l-1 -2q-1 -1 -5 -1v2h-1q0 -4 -1 -4q0 -1 -2 -1h1q3 0 5 -2q0 -6 -1 -6v-3q0 -3 -4 -3h-6l-3 -1h-4l-2 -3v-4h2v-5h-7q0 3 -2 3q0 8 -3 11l-5 7h-5h-4
q-2 -3 -7 -3l-2 1l-5 -5v3q-1 -3 -4 -4h-4l-1 -3q-1 -3 -3 -7q0 -2 -1 -3t-1 -4q-1 0 -1 -2q-2 -9 -3 -15t-2 -17v-5h-43l-2 7q-2 2 -2 8v4q-1 9 -5 14v2q0 1 -0.5 2t-0.5 3t-0.5 6.5t-0.5 8.5zM257 238v5q-5 5 -5 15v16l9 1q-2 2 -3 5t-3 8q-2 2 -2 4l-1 1q-2 2 -2 7v10h-1
q-8 17 -12 29.5t-7 24.5q-2 8 -4 15.5t-3 10.5v5q0 5 3.5 10.5t14.5 5.5h15v-6l2 -2v12l25 2q2 0 2.5 0.5t2.5 0.5l-5 5l-5 3l-15 15q-3 1 -5 3l-6 3q0 14 -3 29q-2 0 -4 2v-1l-9 8l-1 1q-1 0 -1 1l-10 10q-10 0 -11 9q-5 1 -7 3t-2 13v30h-2q-3 -3 -4 -7q0 -5 -1 -6
q0 -7 -5 -7v-25h1l3 -12l-8 -6l-2 -2q-2 -2 -6 -2l-6 -4h-2l-4 -3q-1 -1 -3 -1q0 -1 -1 -1q-1 -1 -2 -1l-13 -13l-2 -2q-1 -1 -2 -1q-1 -1 -1 -6q-1 -1 -1 -7v-15q2 -8 2 -10v-7q-1 -1 -1 -4q2 -3 3 -5t2 -3l9 -8q5 -5 8.5 -9t3.5 -9v-7q0 -2 1 -5t6 -8q0 -12 -1 -15t-3 -5
l-3 -3v-12h-1v-16h-1v-17v-2l2 -23v-7l7 -7q2 -2 2 -5v-10q0 -2 9 -11l4 -26l-13 -9v-11l3 -4v-6l2 -5v-2l8 -7l5 -10q0 -1 0.5 -1.5t0.5 -1.5q0 -5 1 -6v-3q0 -1 0.5 -1.5t0.5 -1.5v-1q1 8 2 14t3 11q0 8 2 10q0 1 3 4v-1l1 3q5 12 10 15l1 1q0 2 1 3v14q8 0 13 -0.5
t8 -1.5q0 1 2 3v-1q3 5 5.5 11t7.5 13v2q-1 1 -1 5zM67 866v-126h122v126h-122zM222 866v-126h122v126h-122zM259 325q3 -2 5 -13q2 4 2.5 10.5t0.5 8.5v7l-14 30q-8 8 -8 17q0 3 -1 4q-4 1 -4 6h-1v-4l3 -12q1 -4 2 -7t2 -5q0 -2 0.5 -2.5t0.5 -2.5q4 -17 12 -37zM130 363
l1 -1h-1q2 0 2 -3v-2q0 1 1 1v1q0 3 4 10q0 2 1 3v-1q0 1 1 2q-5 5 -5.5 9.5t-0.5 10.5v6q-1 -1 -1 -2v-2q0 -2 -1 -3zM274 212q-7 0 -10 5v-1v-3l14 -13q0 6 1 7zM274 236q0 -4 2 -6h2q0 -1 1 -2v3q0 12 -4 19q-1 -1 -1 -5v-4l-1 -1zM266 304q1 -1 1 -3t1 -3q0 -2 1 -2v2
l1 5q-3 0 -4 1zM131 347q0 -4 1 -5v6h-1v-1zM239 183q0 -1 -1 -1v-2l1 1l1 1zM238 180q-1 -1 -1 -4q0 2 1 3v1zM268 258v-1v1q1 0 1 1h-1v-1z" />
    <glyph glyph-name="FL00D7h" unicode="&#xd7;" horiz-adv-x="356" 
d="M118 511l46 -46l46 46l110 -110l-2 -2l22 -22l-44 -44l24 -24l-2 -2l22 -22l-106 -106l-22 22l-2 -2l-24 24l-44 -44l-22 22l-2 -2l-110 110l46 46l-46 46zM164 441l-46 46l-86 -86l46 -46l-46 -46l86 -86l46 44l46 -44l86 86l-46 46l46 46l-86 86z" />
    <glyph glyph-name="FL00D8h" unicode="&#xd8;" horiz-adv-x="437" 
d="M189 539h8l-8 -32v32zM241 146h-10l10 32v-32zM152 326h4l69 248h-73v-248zM257 378h-4l-69 -248h73v248zM119 700h171q43 0 66 -21.5t23 -66.5v-520q0 -45 -23 -66.5t-66 -21.5h-171q-43 0 -66 21.5t-23 66.5v520q0 45 23 66.5t66 21.5zM290 716h-171q-51 0 -78 -25
t-27 -79v-520q0 -63 41 -89h-1l7 -5l5 -5q26 -26 77 -26h169q104 0 104 101v520q0 51 -25 75l-11 11v-1q-27 43 -90 43z" />
    <glyph glyph-name="FL00D9h" unicode="&#xd9;" 
d="M157 740l-59 126h122l53 -126h-116zM189 146v543l-14 14h68v-557h-54zM292 4h-173q-43 0 -66 21.5t-23 66.5v608h122v-570h107v570h122v-608q0 -45 -23 -66.5t-66 -21.5zM232 882h-157l72 -158h5l8 -8h-146v-624q0 -63 41 -89h-1l7 -5l5 -5q26 -26 77 -26h171
q104 0 104 101v621l-21 21v6h-89l-56 141l-18 17z" />
    <glyph glyph-name="FL00DAh" unicode="&#xda;" 
d="M136 740l53 126h122l-59 -126h-116zM189 146v543l-14 14h68v-557h-54zM292 4h-173q-43 0 -66 21.5t-23 66.5v608h122v-570h107v570h122v-608q0 -45 -23 -66.5t-66 -21.5zM336 882h-157l-66 -158h8l8 -8h-115v-624q0 -63 41 -89h-1l7 -5l5 -5q26 -26 77 -26h171
q104 0 104 101v621l-21 21v6h-107l65 139l-22 19z" />
    <glyph glyph-name="FL00DBh" unicode="&#xdb;" 
d="M205 793l-26 -53h-114l55 126h169l55 -126h-114zM225 724l18 -18v-560h-54v543l-14 14h38l8 21h4zM292 4h-173q-43 0 -66 21.5t-23 66.5v608h122v-570h107v570h122v-608q0 -45 -23 -66.5t-66 -21.5zM301 882h-191l-68 -158h8l8 -8h-44v-624q0 -63 41 -89h-1l7 -5l5 -5
q26 -26 77 -26h171q104 0 104 101v621l-21 21v6h-16l-62 141l-16 16z" />
    <glyph glyph-name="FL00DCh" unicode="&#xdc;" 
d="M222 740v126h122v-126h-122zM67 740v126h122v-126h-122zM189 146v543l-14 14h51v7l7 -7h10v-557h-54zM292 4h-173q-43 0 -66 21.5t-23 66.5v608h122v-570h107v570h122v-608q0 -45 -23 -66.5t-66 -21.5zM360 882h-154v-7l-1 1v6h-154v-158h6l8 -8h-51v-624q0 -63 41 -89
h-1l7 -5l5 -5q26 -26 77 -26h171q104 0 104 101v621l-21 21v6h-16v139l-21 21v6z" />
    <glyph glyph-name="FL00DDh" unicode="&#xdd;" horiz-adv-x="446" 
d="M179 691l-12 12h87l-39 -116zM139 740l53 126h124l-61 -126h-116zM270 352v-348h-124v349l-126 347h126l63 -182l61 182h126zM339 882h-157l-66 -158h8l8 -8h-132l130 -364v-364h6l21 -21h150v361l131 361l-22 21l2 6h-125l65 139l-22 19z" />
    <glyph glyph-name="FL00DEh" unicode="&#xde;" 
d="M14 716h154v-6l21 -21v-111h103q62 0 90 -40l11 -11q25 -24 25 -75v-232q0 -99 -104 -99h-118l-7 7v-161h-148l-21 21h-6v728zM152 562v138h-122v-696h122v434h108v-156h-75v-124h107q43 0 66 21.5t23 64.5v232q0 45 -23 65.5t-66 20.5h-140zM189 401v-103h55v103h-55z
" />
    <glyph glyph-name="FL08C2h" unicode="&#xdf;" horiz-adv-x="449" 
d="M14 612q0 54 27 79t78 25h165q63 0 90 -43v1l11 -11q25 -24 25 -75v-179q0 -27 -6 -44t-19 -29q1 -1 1 -2l2 -2q2 -6 6 -7l7 -6q12 -12 19.5 -28.5t7.5 -39.5v-183q0 -101 -104 -101h-129l-6 6v-6h-148l-21 21h-6v624zM30 612v-608h122v570h99v-154h-66v-127h84v-163h-85
v-126h118q43 0 66 21.5t23 66.5v183q0 32 -18 52t-45 30q25 8 35 27.5t10 48.5v179q0 45 -23 66.5t-66 21.5h-165q-43 0 -66 -21.5t-23 -66.5zM196 256l-7 7v-117h64v110h-57zM189 539v-103h46v103h-46z" />
    <glyph glyph-name="FL00E0h" unicode="&#xe0;" horiz-adv-x="488" 
d="M102 882h157l2 -8l18 -17l64 -154h-27l14 -14l149 -722h-157l-21 21h-6l-52 263l-57 -284h-157l-21 21h-7l150 728h36l-8 8h-5zM233 389l77 -385h130l-146 696h-128l-146 -696h130l79 385h4zM123 866l61 -126h116l-53 126h-124z" />
    <glyph glyph-name="FL0CF4h" unicode="&#xe1;" horiz-adv-x="489" 
d="M202 882h157l-1 -7l20 -20l-67 -146v-2l20 -18l149 -722h-157l-21 21h-6l-54 264l-55 -285h-157l-21 21h-7l150 728l-8 8h-8zM232 389l79 -385h130l-146 696h-128l-146 -696h130l77 385h4zM212 866l-53 -126h116l61 126h-124z" />
    <glyph glyph-name="FL00E2h" unicode="&#xe2;" horiz-adv-x="489" 
d="M135 882h191l3 -8l17 -17l67 -154h-96l14 -14l149 -722h-157l-21 21h-6l-54 264l-55 -285h-157l-21 21h-7l148 715h-54l-21 21h-8zM232 389l79 -385h130l-146 696h-128l-146 -696h130l77 385h4zM230 793l25 -53h114l-55 126h-169l-55 -126h114zM246 724l-4 -8h16l-8 8h-4
z" />
    <glyph glyph-name="FL00E3h" unicode="&#xe3;" horiz-adv-x="489" 
d="M398 882l-3 -8l22 -19l-65 -152h-35l14 -14l149 -722h-157l-21 21h-6l-54 264l-55 -285h-157l-21 21h-7l148 715h-58l-21 21h-8l68 158h140l3 -9l14 -14l9 23h101zM232 389l79 -385h130l-146 696h-128l-146 -696h130l77 385h4zM177 793l24 -53h117l55 126h-66l-23 -53
l-25 53h-118l-55 -126h66zM193 724l-4 -8h15l-8 8h-3z" />
    <glyph glyph-name="FL00E4h" unicode="&#xe4;" horiz-adv-x="489" 
d="M76 882h154v-6l1 -1v7h154v-6l21 -21v-152h-89l14 -14l149 -722h-157l-21 21h-6l-54 264l-55 -285h-157l-21 21h-7l148 715h-47l-21 21h-6v158zM232 389l79 -385h130l-146 696h-128l-146 -696h130l77 385h4zM92 866v-126h122v126h-122zM247 866v-126h122v126h-122z" />
    <glyph glyph-name="FL00E5h" unicode="&#xe5;" horiz-adv-x="489" 
d="M211 780h39v46h-39v-46zM168 740v126h124v-126h-124zM232 389h-4l-77 -385h-130l146 696h128l146 -696h-130zM152 716l-150 -728h7l21 -21h157l55 285l54 -264h6l21 -21h157l-149 722l-14 14h12v152l-21 21v6h-156v-158h6l8 -8h-14z" />
    <glyph glyph-name="FL00E7h" unicode="&#xe6;" horiz-adv-x="730" 
d="M309 716l1 -8l20 -19l27 -131v158h331v-6l21 -21v-150h-177v-103h126v-6l21 -21v-152h-147v-111h156v-6l21 -21v-152h-387l-21 21h-6l-54 264l-55 -285h-157l-21 21h-7l152 728h156zM497 574h175v126h-299v-354h-4l-75 354h-126l-148 -696h132l75 385h4l79 -385h362v126
h-175v164h145v126h-145v154z" />
    <glyph glyph-name="FL00E8h" unicode="&#xe7;" horiz-adv-x="385" 
d="M54 3h1q-41 26 -41 89v528q0 51 28 73.5t77 22.5h224v-6l21 -21v-150h-175v-393h154v-6l21 -21v-152h-86v-127h-145l-21 21h-6v110q-26 7 -40 22l-5 5zM160 -43h-38v-80h121v127h84v126h-175v446h175v124h-208q-42 0 -65.5 -18.5t-23.5 -61.5v-528q0 -45 23 -66.5
t66 -21.5h41v-47z" />
    <glyph glyph-name="FL07DEh" unicode="&#xe8;" horiz-adv-x="385" 
d="M132 740l-59 126h122l53 -126h-116zM152 294v-164h175v-126h-297v696h297v-124h-175v-156h145v-126h-145zM207 882h-157l72 -158h5l8 -8h-121v-728h6l21 -21h323v152l-21 21v6h-154v111h145v152l-21 21v6h-124v103h175v150l-21 21v6h-60l-56 141l-18 17z" />
    <glyph glyph-name="FL00E9h" unicode="&#xe9;" horiz-adv-x="385" 
d="M107 740l53 126h122l-59 -126h-116zM152 294v-164h175v-126h-297v696h297v-124h-175v-156h145v-126h-145zM307 882h-157l-64 -158h6l8 -8h-86v-728h6l21 -21h323v152l-21 21v6h-154v111h145v152l-21 21v6h-124v103h175v150l-21 21v6h-82l65 139l-22 19z" />
    <glyph glyph-name="FL00EAh" unicode="&#xea;" horiz-adv-x="385" 
d="M85 882h187l3 -8l17 -17l69 -154h-11l14 -14v-150h-175v-103h124v-6l21 -21v-152h-145v-111h154v-6l21 -21v-152h-323l-21 21h-6v728h17l-8 8h-8zM152 576h175v124h-297v-696h297v126h-175v164h145v126h-145v156zM178 793l25 -53h114l-56 126h-168l-55 -126h114zM194 724
l-4 -8h16l-8 8h-4z" />
    <glyph glyph-name="FL00EBh" unicode="&#xeb;" horiz-adv-x="385" 
d="M24 882h154v-6l1 -1v7h154v-6l21 -21v-152h-4l14 -14v-150h-175v-103h124v-6l21 -21v-152h-145v-111h154v-6l21 -21v-152h-323l-21 21h-6v728h24l-8 8h-6v158zM152 576h175v124h-297v-696h297v126h-175v164h145v126h-145v156zM40 866v-126h122v126h-122zM195 866v-126
h122v126h-122z" />
    <glyph glyph-name="FL00ECh" unicode="&#xec;" horiz-adv-x="209" 
d="M-38 882h157l2 -8l18 -17l62 -154h-26l12 -14v-722h-146l-21 21h-6v728h35l-8 8h-5zM30 700v-696h122v696h-122zM-13 866l59 -126h114l-53 126h-120z" />
    <glyph glyph-name="FL0718h" unicode="&#xed;" horiz-adv-x="209" 
d="M62 882h157l-3 -8l22 -19l-69 -149l18 -17v-722h-146l-21 21h-6v728l-8 8h-8zM30 700v-696h122v696h-122zM72 866l-51 -126h114l59 126h-122z" />
    <glyph glyph-name="FL00EEh" unicode="&#xee;" horiz-adv-x="210" 
d="M41 -33l-21 21h-6v715h-58l-21 21h-8l70 158h189l3 -8l17 -17l67 -154h-98l14 -14v-722h-148zM30 700v-696h122v696h-122zM90 793l25 -53h116l-57 126h-167l-55 -126h114zM106 724l-4 -8h16l-8 8h-4z" />
    <glyph glyph-name="FL00EFh" unicode="&#xef;" horiz-adv-x="210" 
d="M41 -33l-21 21h-6v715h-51l-21 21h-6v158h154v-6l1 -1v7h156v-6l19 -21v-152h-91l14 -14v-722h-148zM30 700v-696h122v696h-122zM-48 866v-126h124v126h-124zM107 866v-126h124v126h-124z" />
    <glyph glyph-name="FL00F0h" unicode="&#xf0;" horiz-adv-x="435" 
d="M188 146v111h52v-111h-52zM151 294v-164h105v164h-105zM30 700h69v70h122v-70h67q42 0 65.5 -18.5t23.5 -63.5v-526q0 -45 -23 -66.5t-66 -21.5h-169q-43 0 -66 21.5t-23 66.5v241q0 45 23 66t66 21h137v156h-35v-70h-122v70h-69v124zM61 -2l5 -5q26 -26 77 -26h167
q104 0 104 101v528q0 44 -23 67l-11 11v-1q-14 23 -37.5 33t-54.5 10h-30v43l-21 21v6h-154v-70h-69v-156h6l21 -21h42v-49h6l19 -21h132v-33h-121q-51 0 -78 -24.5t-27 -78.5v-241q0 -63 41 -89h-1z" />
    <glyph glyph-name="FL00F1h" unicode="&#xf1;" horiz-adv-x="436" 
d="M394 710l21 -21v-722h-121l-21 21h-5l-80 199v-220h-147l-21 21h-6v728h37l-8 8h-8l68 158h140l3 -9l14 -14l9 23h101l-3 -8l22 -19l-64 -139h69v-6zM155 308l123 -304h100v696h-121v-337h-4l-125 337h-98v-696h121v304h4zM149 793l24 -53h117l55 126h-66l-23 -53l-25 53
h-118l-55 -126h66zM158 703h-10l12 -12l81 -219v231h-52l-21 21h-3z" />
    <glyph glyph-name="FL00F2h" unicode="&#xf2;" 
d="M75 882h157l2 -8l18 -17l56 -142q52 -6 74 -39l11 -11q25 -24 25 -75v-522q0 -101 -104 -101h-171q-51 0 -77 26l-5 5l-7 5h1q-41 26 -41 89v522q0 54 27 78t78 24h41l-8 8h-5zM292 4q43 0 66 21.5t23 66.5v522q0 45 -23 65.5t-66 20.5h-173q-43 0 -66 -20.5t-23 -65.5
v-522q0 -45 23 -66.5t66 -21.5h173zM259 130h-107v446h107v-446zM189 539v-393h54v393h-54zM98 866l59 -126h116l-53 126h-122z" />
    <glyph glyph-name="FL00F3h" unicode="&#xf3;" 
d="M179 882h157l-3 -8l22 -19l-65 -139h2q62 0 90 -40l11 -11q25 -24 25 -75v-522q0 -101 -104 -101h-171q-51 0 -77 26l-5 5l-7 5h1q-41 26 -41 89v522q0 54 27 78t78 24h10l-8 8h-8zM292 4q43 0 66 21.5t23 66.5v522q0 45 -23 65.5t-66 20.5h-173q-43 0 -66 -20.5
t-23 -65.5v-522q0 -45 23 -66.5t66 -21.5h173zM259 130h-107v446h107v-446zM189 539v-393h54v393h-54zM189 866l-53 -126h116l59 126h-122z" />
    <glyph glyph-name="FL00F4h" unicode="&#xf4;" 
d="M110 882h191l2 -9l16 -16l69 -154h-37q20 -11 31 -28v1l11 -11q25 -24 25 -75v-522q0 -101 -104 -101h-171q-51 0 -77 26l-5 5l-7 5h1q-41 26 -41 89v522q0 69 53 92l-17 18h-8zM292 4q43 0 66 21.5t23 66.5v522q0 45 -23 65.5t-66 20.5h-173q-43 0 -66 -20.5t-23 -65.5
v-522q0 -45 23 -66.5t66 -21.5h173zM259 130h-107v446h107v-446zM205 793l25 -53h114l-55 126h-169l-55 -126h114zM189 539v-393h54v393h-54zM221 724l-4 -8h16l-8 8h-4z" />
    <glyph glyph-name="FL003Dh" unicode="&#xf5;" 
d="M373 882l-3 -8l22 -19l-65 -145q37 -9 55 -34l11 -11q25 -24 25 -75v-522q0 -101 -104 -101h-171q-51 0 -77 26l-5 5l-7 5h1q-41 26 -41 89v522q0 65 51 91l-19 19h-8l68 158h140l3 -9l14 -14l9 23h101zM292 4q43 0 66 21.5t23 66.5v522q0 45 -23 65.5t-66 20.5h-173
q-43 0 -66 -20.5t-23 -65.5v-522q0 -45 23 -66.5t66 -21.5h173zM259 130h-107v446h107v-446zM152 793l24 -53h117l55 126h-66l-23 -53l-25 53h-118l-55 -126h66zM189 539v-393h54v393h-54zM168 724l-4 -8h15l-8 8h-3z" />
    <glyph glyph-name="FL00F6h" unicode="&#xf6;" 
d="M51 882h154v-6l1 -1v7h154v-6l21 -21v-152h-30q20 -11 31 -28v1l11 -11q25 -24 25 -75v-522q0 -101 -104 -101h-171q-51 0 -77 26l-5 5l-7 5h1q-41 26 -41 89v522q0 75 58 94l-15 16h-6v158zM292 4q43 0 66 21.5t23 66.5v522q0 45 -23 65.5t-66 20.5h-173
q-43 0 -66 -20.5t-23 -65.5v-522q0 -45 23 -66.5t66 -21.5h173zM259 130h-107v446h107v-446zM189 539v-393h54v393h-54zM67 866v-126h122v126h-122zM222 866v-126h122v126h-122z" />
    <glyph glyph-name="FL00F7h" unicode="&#xf7;" horiz-adv-x="390" 
d="M103 595h156v-6l19 -21v-134h70v-6l21 -21v-150h-101l10 -10v-150h-148l-21 21h-6v139h-62l-21 21h-6v156h98l-3 3h-6v158zM30 418v-124h302v124h-302zM119 258v-126h124v126h-124zM119 579v-126h124v126h-124z" />
    <glyph glyph-name="FL0100h" unicode="&#xf8;" horiz-adv-x="437" 
d="M189 539h8l-8 -32v32zM241 146h-10l10 32v-32zM152 326h4l69 248h-73v-248zM257 378h-4l-69 -248h73v248zM119 700h171q43 0 66 -21.5t23 -66.5v-520q0 -45 -23 -66.5t-66 -21.5h-171q-43 0 -66 21.5t-23 66.5v520q0 45 23 66.5t66 21.5zM290 716h-171q-51 0 -78 -25
t-27 -79v-520q0 -63 41 -89h-1l7 -5l5 -5q26 -26 77 -26h169q104 0 104 101v520q0 51 -25 75l-11 11v-1q-27 43 -90 43z" />
    <glyph glyph-name="FL00F9h" unicode="&#xf9;" 
d="M157 740l-59 126h122l53 -126h-116zM189 146v543l-14 14h68v-557h-54zM292 4h-173q-43 0 -66 21.5t-23 66.5v608h122v-570h107v570h122v-608q0 -45 -23 -66.5t-66 -21.5zM232 882h-157l72 -158h5l8 -8h-146v-624q0 -63 41 -89h-1l7 -5l5 -5q26 -26 77 -26h171
q104 0 104 101v621l-21 21v6h-89l-56 141l-18 17z" />
    <glyph glyph-name="FL00FAh" unicode="&#xfa;" 
d="M136 740l53 126h122l-59 -126h-116zM189 146v543l-14 14h68v-557h-54zM292 4h-173q-43 0 -66 21.5t-23 66.5v608h122v-570h107v570h122v-608q0 -45 -23 -66.5t-66 -21.5zM336 882h-157l-66 -158h8l8 -8h-115v-624q0 -63 41 -89h-1l7 -5l5 -5q26 -26 77 -26h171
q104 0 104 101v621l-21 21v6h-107l65 139l-22 19z" />
    <glyph glyph-name="FL00FBh" unicode="&#xfb;" 
d="M205 793l-26 -53h-114l55 126h169l55 -126h-114zM225 724l18 -18v-560h-54v543l-14 14h38l8 21h4zM292 4h-173q-43 0 -66 21.5t-23 66.5v608h122v-570h107v570h122v-608q0 -45 -23 -66.5t-66 -21.5zM301 882h-191l-68 -158h8l8 -8h-44v-624q0 -63 41 -89h-1l7 -5l5 -5
q26 -26 77 -26h171q104 0 104 101v621l-21 21v6h-16l-62 141l-16 16z" />
    <glyph glyph-name="FL00FCh" unicode="&#xfc;" 
d="M222 740v126h122v-126h-122zM67 740v126h122v-126h-122zM189 146v543l-14 14h51v7l7 -7h10v-557h-54zM292 4h-173q-43 0 -66 21.5t-23 66.5v608h122v-570h107v570h122v-608q0 -45 -23 -66.5t-66 -21.5zM360 882h-154v-7l-1 1v6h-154v-158h6l8 -8h-51v-624q0 -63 41 -89
h-1l7 -5l5 -5q26 -26 77 -26h171q104 0 104 101v621l-21 21v6h-16v139l-21 21v6z" />
    <glyph glyph-name="FL00FDh" unicode="&#xfd;" horiz-adv-x="446" 
d="M179 691l-12 12h87l-39 -116zM139 740l53 126h124l-61 -126h-116zM270 352v-348h-124v349l-126 347h126l63 -182l61 182h126zM339 882h-157l-66 -158h8l8 -8h-132l130 -364v-364h6l21 -21h150v361l131 361l-22 21l2 6h-125l65 139l-22 19z" />
    <glyph glyph-name="FL00FEh" unicode="&#xfe;" 
d="M14 716h154v-6l21 -21v-111h103q62 0 90 -40l11 -11q25 -24 25 -75v-232q0 -99 -104 -99h-118l-7 7v-161h-148l-21 21h-6v728zM152 562v138h-122v-696h122v434h108v-156h-75v-124h107q43 0 66 21.5t23 64.5v232q0 45 -23 65.5t-66 20.5h-140zM189 401v-103h55v103h-55z
" />
    <glyph glyph-name="FL00FFh" unicode="&#xff;" horiz-adv-x="446" 
d="M179 691l-12 12h62v7l7 -7h18l-39 -116zM225 740v126h122v-126h-122zM70 740v126h122v-126h-122zM270 352v-348h-124v349l-126 347h126l63 -182l61 182h126zM363 882h-154v-7l-1 1v6h-154v-158h6l8 -8h-68l130 -364v-364h6l21 -21h150v360l131 362l-22 21l2 6h-34v139
l-21 21v6z" />
    </font>
</defs>
</svg>
