<?xml version="1.0" standalone="no"?>
<!DOCTYPE svg PUBLIC "-//W3C//DTD SVG 1.1//EN" "http://www.w3.org/Graphics/SVG/1.1/DTD/svg11.dtd" >
<svg>
<metadata>
Created by FontForge 20110222 at Thu May 24 03:56:53 2012
 By Stefan Warting
(c) Copyright 2001 by Tom Truong. All Rights Reserved
</metadata>
<defs>
<font id="UVNHongHaHep" horiz-adv-x="913" >
  <font-face 
    font-family="UVN Hong Ha Hep"
    font-weight="400"
    font-stretch="condensed"
    units-per-em="2048"
    panose-1="2 11 5 6 2 2 2 3 2 4"
    ascent="1638"
    descent="-410"
    x-height="1151"
    cap-height="1540"
    bbox="-342 -483 2048 2189"
    underline-thickness="147"
    underline-position="-122"
    unicode-range="U+0020-F002"
  />
<missing-glyph horiz-adv-x="1024" 
d="M128 0v2175h768v-2175h-768zM256 128h512v1919h-512v-1919z" />
    <glyph glyph-name=".notdef" horiz-adv-x="1024" 
d="M128 0v2175h768v-2175h-768zM256 128h512v1919h-512v-1919z" />
    <glyph glyph-name=".null" horiz-adv-x="0" 
 />
    <glyph glyph-name="nonmarkingreturn" horiz-adv-x="510" 
 />
    <glyph glyph-name="space" unicode=" " horiz-adv-x="510" 
 />
    <glyph glyph-name="exclam" unicode="!" horiz-adv-x="530" 
d="M180 0v211h170v-211h-170zM215 379l-43 723v438h186v-438l-43 -723h-100z" />
    <glyph glyph-name="quotedbl" unicode="&#x22;" horiz-adv-x="614" 
d="M524 1436v-555h-139v555h139zM229 1436v-555h-139v555h139z" />
    <glyph glyph-name="numbersign" unicode="#" horiz-adv-x="1575" 
d="M969 858h-260l-93 -264h261zM924 1458l-162 -454h256l164 454h164l-160 -454h301l-51 -146h-303l-93 -262h322l-51 -147h-322l-162 -453h-165l161 453h-258l-162 -453h-165l159 453h-309l53 147h310l92 262h-330l51 146h332l162 454h166z" />
    <glyph glyph-name="dollar" unicode="$" horiz-adv-x="1020" 
d="M457 897v489q-94 -9 -146 -81q-47 -66 -47 -164q0 -176 193 -244zM457 -199v197q-381 22 -381 434q0 39 2 59l168 1q0 -8 -1 -24t-1 -24q0 -303 205 -303h8v578q-177 61 -260 148q-101 104 -101 274q0 169 96.5 272t264.5 111v139h88v-137q350 -34 350 -377v-23h-164v9
q0 224 -186 249v-518q195 -70 280 -150q113 -107 113 -286q0 -194 -99 -306q-102 -116 -294 -124v-199h-88zM545 139q111 8 169 89q52 73 52 188q0 196 -221 268v-545z" />
    <glyph glyph-name="percent" unicode="%" horiz-adv-x="1430" 
d="M1053 629q-93 0 -123 -97q-17 -54 -17 -174q0 -235 140 -235q141 0 141 264q0 242 -141 242zM774 383q0 369 277 369q284 0 284 -369q0 -383 -280 -383q-281 0 -281 383zM373 1399q-92 0 -121 -97q-16 -52 -16 -174q0 -235 137 -235q141 0 141 264q0 242 -141 242z
M94 1153q0 369 277 369q284 0 284 -367q0 -385 -282 -385q-279 0 -279 383zM305 -29l694 1579h117l-692 -1579h-119z" />
    <glyph glyph-name="ampersand" unicode="&#x26;" horiz-adv-x="1253" 
d="M553 973q168 111 168 268q0 162 -143 162q-142 0 -142 -164q0 -104 117 -266zM836 276l-338 492q-209 -137 -209 -336q0 -125 77 -213q80 -92 203 -92q158 0 267 149zM1026 0l-106 150q-148 -177 -381 -177q-194 0 -311 130q-113 125 -113 321q0 276 307 459
q-148 195 -148 348q0 139 84.5 226t223.5 87q131 0 216 -83t85 -214q0 -227 -256 -385l295 -430q35 108 49 285h164q-18 -270 -117 -418l207 -299h-199z" />
    <glyph glyph-name="quotesingle" unicode="'" horiz-adv-x="317" 
d="M229 1436v-555h-139v555h139z" />
    <glyph glyph-name="parenleft" unicode="(" horiz-adv-x="653" 
d="M504 -449q-318 520 -318 1002q0 528 318 987h117q-256 -395 -256 -981q0 -401 92 -647q66 -176 164 -361h-117z" />
    <glyph glyph-name="parenright" unicode=")" horiz-adv-x="653" 
d="M172 -449h-117q96 183 162 361q94 252 94 647q0 586 -256 981h117q317 -458 317 -987q0 -484 -317 -1002z" />
    <glyph glyph-name="asterisk" unicode="*" horiz-adv-x="1024" 
d="M510 1057l-178 -260l-117 84l201 245l-295 80l45 137l283 -102v299h122v-299l281 98l51 -131l-297 -82l201 -245l-117 -84z" />
    <glyph glyph-name="plus" unicode="+" horiz-adv-x="1706" 
d="M924 1221v-541h528v-139h-528v-541h-142v541h-528v139h528v541h142z" />
    <glyph glyph-name="comma" unicode="," horiz-adv-x="512" 
d="M160 -295v96q86 17 86 189v10h-86v211h182v-211q0 -104 -41 -181q-48 -91 -141 -114z" />
    <glyph glyph-name="hyphen" unicode="-" horiz-adv-x="676" 
d="M90 485v181h494v-181h-494z" />
    <glyph glyph-name="hyphen" unicode="&#x2010;" horiz-adv-x="676" 
d="M90 485v181h494v-181h-494z" />
    <glyph glyph-name="period" unicode="." horiz-adv-x="512" 
d="M164 0v211h182v-211h-182z" />
    <glyph glyph-name="slash" unicode="/" horiz-adv-x="569" 
d="M582 1577l-549 -1767h-111l549 1767h111z" />
    <glyph glyph-name="zero" unicode="0" horiz-adv-x="1020" 
d="M272 766q0 -285 19 -387q49 -260 221 -260q176 0 221 257q15 83 15 388q0 282 -19 381q-48 254 -219 254q-175 0 -221 -251q-17 -90 -17 -382zM94 762q0 346 53 506q92 280 363 280q219 0 332 -202q84 -151 84 -586q0 -343 -52 -506q-92 -285 -358 -285q-276 0 -369 281
q-53 160 -53 512z" />
    <glyph glyph-name="one" unicode="1" horiz-adv-x="1020" 
d="M481 0v1133h-327v131h20q322 0 338 286h135v-1550h-166z" />
    <glyph glyph-name="two" unicode="2" horiz-adv-x="1020" 
d="M101 0q-3 16 -3 59q0 300 269 539l75 67q159 141 207 197q80 93 80 262q0 275 -227 275q-112 0 -167 -79q-65 -91 -56 -239l1 -17q1 -17 1 -34h-166q0 9 -1 27.5t-1 27.5q0 210 92 331q102 136 305 136q192 0 296 -115q101 -110 101 -304q0 -190 -86 -320
q-48 -73 -201 -196q-39 -32 -59 -48q-284 -236 -288 -411h647v-158h-819z" />
    <glyph glyph-name="three" unicode="3" horiz-adv-x="1020" 
d="M82 459h170v-25q0 -315 235 -315q256 0 256 313q0 301 -305 301h-27q-17 -1 -26 -1v140h35q280 0 280 273q0 114 -52 182q-58 74 -169 74q-207 0 -207 -285v-24h-163v22q0 191 90 307q99 127 284 127q179 0 283 -103t104 -282q0 -125 -48 -216q-58 -109 -169 -130
q267 -47 267 -377q0 -217 -107 -340q-113 -131 -326 -131q-405 0 -405 475v15z" />
    <glyph glyph-name="four" unicode="4" horiz-adv-x="1020" 
d="M205 541h416l18 788zM621 0v393h-558v150l572 1005h149v-1007h144v-148h-144v-393h-163z" />
    <glyph glyph-name="five" unicode="5" horiz-adv-x="1020" 
d="M88 405l168 1v-13q0 -272 229 -272q248 0 248 375q0 366 -252 366q-171 0 -217 -143l-145 12l84 791h649v-156h-516l-55 -459q49 111 241 111q199 0 302 -157q87 -133 87 -343q0 -235 -92 -378q-110 -171 -332 -171q-395 0 -399 436z" />
    <glyph glyph-name="six" unicode="6" horiz-adv-x="1020" 
d="M279 500q0 -155 48 -253q64 -130 203 -130q234 0 234 377q0 348 -246 348q-239 0 -239 -342zM258 797q76 192 289 192q200 0 303 -149q90 -128 90 -338q0 -220 -93 -364q-109 -169 -317 -169q-268 0 -368 254q-66 165 -66 484q0 361 60 540q100 303 385 303
q166 0 261 -100.5t95 -267.5h-170v10q0 94 -48 150q-52 59 -144 59q-175 0 -237 -233q-25 -95 -40 -371z" />
    <glyph glyph-name="seven" unicode="7" horiz-adv-x="1020" 
d="M240 0q41 340 149 641h-245v168h312q128 291 324 545h-688v168h836v-148q-197 -261 -318 -565h82v-168h-142q-98 -309 -118 -641h-192z" />
    <glyph glyph-name="eight" unicode="8" horiz-adv-x="1020" 
d="M508 1405q-197 0 -197 -256q0 -102 46 -168q53 -76 151 -76q207 0 207 252q0 108 -48 174q-55 74 -159 74zM270 459q0 -340 244 -340q122 0 184 100q52 83 52 213q0 326 -246 326q-234 0 -234 -299zM362 831q-217 62 -217 324q0 181 94 286q98 109 277 109
q173 0 270 -104.5t97 -278.5q0 -269 -221 -329q264 -61 264 -387q0 -217 -98 -343q-108 -139 -318 -139q-198 0 -311 132q-105 125 -105 327q0 152 59 257q71 123 209 146z" />
    <glyph glyph-name="nine" unicode="9" horiz-adv-x="1020" 
d="M741 1020q0 381 -252 381q-233 0 -233 -377q0 -346 246 -346q239 0 239 342zM762 721q-77 -193 -289 -193q-201 0 -304 150q-89 130 -89 340q0 220 92 363q109 169 317 169q268 0 369 -253q66 -164 66 -484q0 -361 -60 -540q-100 -304 -385 -304q-166 0 -262 101.5
t-96 267.5h172v-10q0 -94 48 -150q52 -59 144 -59q175 0 237 232q25 95 40 370z" />
    <glyph glyph-name="colon" unicode=":" horiz-adv-x="512" 
d="M164 926v211h182v-211h-182zM164 0v211h182v-211h-182z" />
    <glyph glyph-name="semicolon" unicode=";" horiz-adv-x="512" 
d="M164 926v211h182v-211h-182zM164 -295v96q88 17 88 189v10h-88v211h182v-211q0 -104 -41 -181q-48 -91 -141 -114z" />
    <glyph glyph-name="less" unicode="&#x3c;" horiz-adv-x="1706" 
d="M1442 1006l-969 -396l969 -393v-154l-1178 484v129l1178 483v-153z" />
    <glyph glyph-name="equal" unicode="=" horiz-adv-x="1706" 
d="M1452 481v-139h-1198v139h1198zM1452 879v-140h-1198v140h1198z" />
    <glyph glyph-name="greater" unicode="&#x3e;" horiz-adv-x="1706" 
d="M1442 676v-129l-1178 -484v154l971 393l-971 396v153z" />
    <glyph glyph-name="question" unicode="?" horiz-adv-x="1018" 
d="M430 388q-2 34 -2 77q0 121 41 210q33 72 123 179q7 9 16 19q131 155 131 311q0 104 -48 169q-54 74 -154 74q-218 0 -218 -305v-30h-165v26q0 459 381 459q180 0 282.5 -108t102.5 -289q0 -217 -180 -397l-5 -5q-149 -149 -149 -329v-31q1 -21 1 -31zM422 0v211h170
v-211h-170z" />
    <glyph glyph-name="at" unicode="@" horiz-adv-x="2048" 
d="M1284 854l57 115h132l-146 -576q-8 -32 -8 -59q0 -94 100 -94q101 0 209 102q170 161 170 420q0 279 -211 438q-191 143 -479 143q-265 0 -457 -114t-296.5 -299.5t-104.5 -409.5q0 -344 254 -538q210 -160 524 -160q346 0 621 190l55 -82q-297 -223 -664 -223
q-383 0 -628 187q-306 234 -306 628q0 334 203 582q297 362 807 362q340 0 563 -172q265 -204 265 -514q0 -354 -248 -551q-141 -112 -316 -112q-200 0 -200 157v19q-108 -174 -301 -174q-314 0 -314 332q0 221 126 380q136 173 351 173q170 0 242 -150zM1190 475l59 236
q-36 184 -198 184q-156 0 -248 -153q-78 -130 -78 -296q0 -219 186 -219q103 0 181 75q72 68 98 173z" />
    <glyph glyph-name="A" unicode="A" horiz-adv-x="1126" 
d="M356 600h410l-205 807zM31 0l420 1540h219l426 -1540h-174l-117 444h-488l-112 -444h-174z" />
    <glyph glyph-name="B" unicode="B" horiz-adv-x="1108" 
d="M303 885h180q155 0 221 55q72 60 72 211q0 148 -80 205q-66 47 -223 47h-170v-518zM303 152h219q154 0 224.5 65t70.5 217q0 172 -77 242q-74 67 -248 67h-189v-591zM137 0v1540h402q210 0 308 -87q103 -91 103 -298q0 -275 -213 -336q262 -53 262 -377q0 -212 -116 -327
t-328 -115h-418z" />
    <glyph glyph-name="C" unicode="C" horiz-adv-x="1157" 
d="M866 565h170q-3 -263 -99 -416q-118 -186 -364 -186q-467 0 -467 803q0 354 72 534q111 277 408 277q217 0 331 -128q109 -123 109 -343v-19h-166q0 145 -64 235q-73 103 -212 103q-195 0 -261 -253q-34 -132 -34 -406q0 -271 37 -400q67 -239 268 -239q151 0 220 140
q52 105 52 274v24z" />
    <glyph glyph-name="D" unicode="D" horiz-adv-x="1192" 
d="M309 147h223q197 0 261 93q102 148 102 528q0 311 -43 423q-75 200 -326 200h-217v-1244zM137 0v1540h436q294 0 417 -225q93 -171 93 -494q0 -504 -176 -696q-72 -78 -170 -105q-71 -20 -202 -20h-398z" />
    <glyph glyph-name="E" unicode="E" horiz-adv-x="1004" 
d="M137 0v1540h764v-160h-594v-495h555v-156h-555v-567h600v-162h-770z" />
    <glyph glyph-name="F" unicode="F" horiz-adv-x="885" 
d="M137 0v1540h711v-156h-535v-495h498v-160h-498v-729h-176z" />
    <glyph glyph-name="G" unicode="G" horiz-adv-x="1214" 
d="M954 0l-10 213q-87 -250 -354 -250q-293 0 -408 282q-76 188 -76 535q0 357 85 538q122 259 434 259q216 0 333 -132q111 -126 113 -345h-170q-10 330 -285 330q-221 0 -293 -261q-38 -136 -38 -438q0 -606 329 -606q310 0 310 453q0 49 -3 69h-348v156h514v-803h-133z
" />
    <glyph glyph-name="H" unicode="H" horiz-adv-x="1200" 
d="M137 0v1540h176v-635h574v635h176v-1540h-176v750h-574v-750h-176z" />
    <glyph glyph-name="I" unicode="I" horiz-adv-x="451" 
d="M137 0v1540h176v-1540h-176z" />
    <glyph glyph-name="J" unicode="J" horiz-adv-x="862" 
d="M35 477h166v-149q0 -217 174 -217q131 0 167 119q17 56 17 231v1079h166v-1196q0 -379 -358 -379q-332 0 -332 387v125z" />
    <glyph glyph-name="K" unicode="K" horiz-adv-x="1110" 
d="M137 0v1540h170v-741l557 741h199l-479 -622l514 -918h-209l-420 768l-162 -211v-557h-170z" />
    <glyph glyph-name="L" unicode="L" horiz-adv-x="975" 
d="M137 0v1540h172v-1374h615v-166h-787z" />
    <glyph glyph-name="M" unicode="M" horiz-adv-x="1511" 
d="M1204 0v1452l-375 -1452h-167l-359 1452v-1452h-168v1540h289l324 -1313l339 1313h285v-1540h-168z" />
    <glyph glyph-name="N" unicode="N" horiz-adv-x="1188" 
d="M137 0v1540h230l534 -1321l-16 1321h166v-1540h-220l-542 1360l14 -1360h-166z" />
    <glyph glyph-name="O" unicode="O" horiz-adv-x="1200" 
d="M285 770q0 -293 34 -415q67 -240 281 -240q217 0 283 239q32 117 32 416t-32 415q-66 238 -283 238q-214 0 -281 -239q-34 -121 -34 -414zM106 770q0 358 75 537q114 270 419 270q307 0 420 -269q74 -176 74 -538q0 -363 -74 -538q-112 -269 -420 -269q-303 0 -418 271
q-76 180 -76 536z" />
    <glyph glyph-name="P" unicode="P" horiz-adv-x="1085" 
d="M309 803h226q303 0 303 309q0 153 -82 219q-74 60 -232 60h-215v-588zM137 0v1540h395q240 0 356 -94q128 -103 128 -336q0 -463 -477 -463h-230v-647h-172z" />
    <glyph glyph-name="Q" unicode="Q" horiz-adv-x="1200" 
d="M780 170l-162 137l99 115l145 -123q53 186 53 451q0 311 -30 426q-65 247 -285 247q-214 0 -280 -240q-33 -120 -33 -413q0 -294 33 -414q66 -241 280 -241q117 0 180 55zM907 61q-90 -98 -307 -98q-303 0 -418 271q-76 180 -76 536q0 358 75 537q114 270 419 270
q307 0 420 -269q74 -176 74 -538q0 -423 -101 -586l174 -141l-92 -117z" />
    <glyph glyph-name="R" unicode="R" horiz-adv-x="1196" 
d="M305 834h209q350 0 350 286q0 150 -86 214q-75 55 -231 55h-242v-555zM137 0v1540h432q471 0 471 -395q0 -305 -286 -377q135 -12 200 -93q57 -71 70 -213q4 -44 11 -155q16 -252 81 -307h-213q-32 52 -41 251q-4 93 -10 157q-14 163 -90 222q-68 54 -238 54h-219v-684
h-168z" />
    <glyph glyph-name="S" unicode="S" horiz-adv-x="1098" 
d="M104 489h164v-55q0 -317 287 -317q131 0 204 80q70 77 70 209q0 124 -64 187q-47 46 -181 97q-30 11 -104 39q-189 69 -226 102q-127 112 -127 318q0 200 110 314t310 114q187 0 294 -104t107 -291q0 -7 -1 -19.5t-1 -19.5h-158v16q0 271 -243 271q-118 0 -188 -66.5
t-70 -183.5q0 -125 67 -190q49 -47 185 -97l56 -21q241 -89 288 -133q112 -104 112 -311q0 -218 -120 -340.5t-338 -122.5q-435 0 -435 473q0 9 1 26t1 25z" />
    <glyph glyph-name="T" unicode="T" horiz-adv-x="995" 
d="M422 0v1382h-393v158h938v-158h-369v-1382h-176z" />
    <glyph glyph-name="U" unicode="U" horiz-adv-x="1180" 
d="M139 1540h172v-1036q0 -188 43 -270q61 -115 228 -115q292 0 292 385v1036h168v-1005q0 -152 -11 -220q-20 -120 -85 -198q-128 -152 -366 -152q-251 0 -369 160q-51 69 -65 198q-7 60 -7 212v1005z" />
    <glyph glyph-name="V" unicode="V" horiz-adv-x="1075" 
d="M436 0l-430 1540h187l346 -1327l356 1327h172l-424 -1540h-207z" />
    <glyph glyph-name="W" unicode="W" horiz-adv-x="1620" 
d="M350 0l-325 1540h178l241 -1302l273 1302h196l267 -1292l245 1292h168l-325 -1540h-185l-270 1257l-274 -1257h-189z" />
    <glyph glyph-name="X" unicode="X" horiz-adv-x="1012" 
d="M-25 0l428 797l-407 743h209l305 -584l309 584h197l-412 -739l432 -801h-207l-325 645l-330 -645h-199z" />
    <glyph glyph-name="Y" unicode="Y" horiz-adv-x="1028" 
d="M424 0v596l-455 944h205l340 -758l356 758h187l-459 -944v-596h-174z" />
    <glyph glyph-name="Z" unicode="Z" horiz-adv-x="905" 
d="M47 0v160l621 1220h-586v160h768v-158l-617 -1216h625v-166h-811z" />
    <glyph glyph-name="bracketleft" unicode="[" horiz-adv-x="653" 
d="M233 -434v1974h363v-123h-197v-1726h197v-125h-363z" />
    <glyph glyph-name="backslash" unicode="\" horiz-adv-x="569" 
d="M549 -190l-549 1767h111l548 -1767h-110z" />
    <glyph glyph-name="bracketright" unicode="]" horiz-adv-x="653" 
d="M420 -434h-363v125h197v1726h-197v123h363v-1974z" />
    <glyph glyph-name="asciicircum" unicode="^" horiz-adv-x="2048" 
d="M1116 1458l510 -557h-180l-422 420l-424 -420h-180l510 557h186z" />
    <glyph glyph-name="underscore" unicode="_" horiz-adv-x="1024" 
d="M1024 -340v-143h-1024v143h1024z" />
    <glyph glyph-name="grave" unicode="`" horiz-adv-x="1024" 
d="M633 1276h-101l-247 270h178z" />
    <glyph glyph-name="a" unicode="a" 
d="M616 621q-38 -42 -168 -89q-6 -2 -16 -6q-103 -36 -139 -80q-41 -50 -41 -153q0 -180 145 -180q110 0 169 88q50 76 50 192v228zM870 -2q-60 -10 -94 -10q-143 0 -149 165q-77 -182 -273 -182q-135 0 -204 96q-60 83 -60 224q0 169 91 253q67 62 252 124l3 1
q176 59 176 138v106q0 136 -170 136t-170 -183v-20h-151q3 175 84 256.5t256 81.5q163 0 239 -74t76 -236v-673q0 -84 68 -84q7 0 22 3q2 0 4 1v-123z" />
    <glyph glyph-name="b" unicode="b" horiz-adv-x="981" 
d="M274 584q0 -196 28 -291q50 -172 198 -172q139 0 187 183q26 98 26 292q0 438 -219 438q-147 0 -195 -165q-25 -88 -25 -285zM125 0v1540h160v-508q23 72 100 111q68 35 150 35q197 0 287 -197q67 -145 67 -369q0 -635 -363 -635q-87 0 -155 42q-74 46 -97 126v-145h-149
z" />
    <glyph glyph-name="c" unicode="c" horiz-adv-x="942" 
d="M680 405l158 1q0 -195 -84 -309q-95 -128 -283 -128q-377 0 -377 615q0 598 387 598q165 0 258 -102q90 -98 90 -265v-24h-157q-10 247 -185 247q-145 0 -193 -172q-26 -91 -26 -288q0 -199 26 -291q48 -174 195 -174q185 0 191 292z" />
    <glyph glyph-name="d" unicode="d" horiz-adv-x="975" 
d="M705 584q0 199 -24 285q-47 165 -194 165q-221 0 -221 -438q0 -192 27 -292q49 -183 188 -183q147 0 197 172q27 95 27 291zM856 0h-151v145q-23 -80 -96 -126q-67 -42 -154 -42q-365 0 -365 635q0 223 68 369q91 197 288 197q82 0 149 -35q79 -40 99 -111v508h162v-1540
z" />
    <glyph glyph-name="e" unicode="e" horiz-adv-x="901" 
d="M256 700h391v31q0 320 -186 320q-205 0 -205 -351zM649 389h158q-4 -420 -354 -420q-363 0 -363 594q0 265 57 407q86 214 310 214q354 0 354 -514q0 -66 -2 -100l-553 -1v-51q0 -414 209 -414q98 0 146 95q38 74 38 182v8z" />
    <glyph glyph-name="f" unicode="f" horiz-adv-x="532" 
d="M166 0v1020h-162v131h162v156q0 241 272 241q30 0 68 -8l-1 -143q-34 6 -65 6q-108 0 -108 -103v-149h174v-131h-174v-1020h-166z" />
    <glyph glyph-name="g" unicode="g" horiz-adv-x="973" 
d="M262 573q0 -189 26 -281q49 -169 189 -169q146 0 195 174q26 92 26 291q0 188 -30 285q-51 167 -195 167q-138 0 -186 -179q-25 -96 -25 -288zM127 -106l160 -1q10 -141 188 -141q133 0 185 102q38 75 38 224q0 10 -1 30.5t-1 30.5q-70 -157 -256 -157q-348 0 -348 628
q0 568 361 568q190 0 245 -162v135h156v-1098q0 -202 -93 -317q-101 -125 -298 -125q-136 0 -231 68q-105 77 -105 208v7z" />
    <glyph glyph-name="h" unicode="h" horiz-adv-x="963" 
d="M123 0v1540h162v-514q89 150 278 150q130 0 203 -65q78 -68 78 -196v-915h-162v838q0 194 -162 194q-111 0 -173 -70t-62 -182v-780h-162z" />
    <glyph glyph-name="i" unicode="i" horiz-adv-x="408" 
d="M121 1331v209h166v-209h-166zM121 0v1151h166v-1151h-166z" />
    <glyph glyph-name="j" unicode="j" horiz-adv-x="426" 
d="M147 1333v207h160v-209zM20 -387v137h9q77 0 101 38q17 29 17 114v1249h160v-1262q0 -144 -62 -210t-204 -66h-21z" />
    <glyph glyph-name="k" unicode="k" horiz-adv-x="868" 
d="M123 0v1540h156v-911l393 522h188l-344 -436l371 -715h-197l-284 567l-127 -157v-410h-156z" />
    <glyph glyph-name="l" unicode="l" horiz-adv-x="401" 
d="M121 0v1540h160v-1540h-160z" />
    <glyph glyph-name="m" unicode="m" horiz-adv-x="1528" 
d="M123 0v1151h149v-139q95 166 303 166q199 0 248 -168q102 168 299 168q289 0 289 -283v-895h-166v795q0 119 -23 167q-35 72 -139 72q-103 0 -168 -65t-65 -168v-801h-166v801q0 111 -28 163q-38 70 -138 70q-103 0 -170 -61.5t-67 -163.5v-809h-158z" />
    <glyph glyph-name="n" unicode="n" horiz-adv-x="963" 
d="M123 0v1151h151v-143q84 168 289 168q163 0 228 -92q53 -77 53 -250v-834h-162v846q0 186 -162 186q-111 0 -175 -71q-60 -68 -60 -181v-780h-162z" />
    <glyph glyph-name="o" unicode="o" horiz-adv-x="989" 
d="M90 575q0 609 404 609q238 0 335 -198q70 -143 70 -411t-70 -410q-96 -196 -335 -196q-240 0 -335 195q-69 141 -69 411zM262 575q0 -205 27 -297q51 -172 205 -172q152 0 203 173q28 95 28 296q0 202 -28 296q-51 171 -203 171q-154 0 -204 -171q-28 -93 -28 -296z" />
    <glyph glyph-name="p" unicode="p" horiz-adv-x="975" 
d="M279 580q0 -463 229 -463q134 0 180 180q25 97 25 285q0 186 -26 280q-48 172 -185 172q-146 0 -196 -168q-27 -92 -27 -286zM123 -389v1540h156v-145q19 79 91 127q68 45 152 45q365 0 365 -600q0 -254 -54 -393q-83 -210 -296 -210q-171 0 -248 148v-512h-166z" />
    <glyph glyph-name="q" unicode="q" horiz-adv-x="975" 
d="M696 580q0 193 -28 286q-49 168 -195 168q-137 0 -185 -172q-26 -94 -26 -280q0 -189 24 -285q46 -180 181 -180q229 0 229 463zM852 -389h-166v512q-77 -148 -248 -148q-213 0 -296 210q-54 139 -54 393q0 600 365 600q84 0 152 -45q72 -49 91 -127v145h156v-1540z" />
    <glyph glyph-name="r" unicode="r" horiz-adv-x="596" 
d="M123 0v1151h149v-188q75 215 267 215q43 0 69 -4v-172q-26 14 -63 14q-133 0 -201 -92q-61 -82 -61 -219v-705h-160z" />
    <glyph glyph-name="s" unicode="s" horiz-adv-x="909" 
d="M92 346h160q0 -3 -1 -6q-3 -22 -3 -33q0 -192 209 -192q90 0 145 48.5t55 137.5q0 138 -209 208l-3 1q-206 69 -272 145q-62 72 -62 209q0 154 90 237t245 83q338 0 338 -320v-16h-153q-10 199 -178 199q-189 0 -189 -177q0 -79 48 -119t176 -81q71 -23 108 -37
q115 -45 166 -112q55 -72 55 -191q0 -178 -104 -271q-99 -90 -279 -90q-342 0 -342 353v24z" />
    <glyph glyph-name="t" unicode="t" horiz-adv-x="504" 
d="M307 238q0 -79 36 -101q26 -16 114 -16q24 0 36 2l1 -141q-8 -1 -40 -2q-65 -3 -79 -3q-225 0 -225 183v858h-160v133h160v307h157v-307h187v-133h-187v-780z" />
    <glyph glyph-name="u" unicode="u" horiz-adv-x="963" 
d="M682 0v150q-71 -181 -287 -181q-148 0 -214 76q-62 71 -62 221v885h168v-889q0 -149 135 -149q122 0 186 78q60 72 60 196v764h163v-1151h-149z" />
    <glyph glyph-name="v" unicode="v" horiz-adv-x="872" 
d="M344 0l-311 1151h176l225 -903l236 903h168l-320 -1151h-174z" />
    <glyph glyph-name="w" unicode="w" horiz-adv-x="1364" 
d="M338 0l-295 1151h166l213 -920l178 920h164l199 -922l198 922h160l-279 -1151h-159l-201 893l-176 -893h-168z" />
    <glyph glyph-name="x" unicode="x" horiz-adv-x="825" 
d="M-18 0l327 596l-305 555h184l222 -414l225 414h180l-307 -543l334 -608h-189l-247 467l-242 -467h-182z" />
    <glyph glyph-name="y" unicode="y" horiz-adv-x="909" 
d="M78 -369v146q48 -21 100 -21q85 0 135 79q27 43 60 155l-338 1161h174l246 -928l254 928h165l-354 -1202q-51 -172 -106 -239q-78 -97 -230 -97q-44 0 -106 18z" />
    <glyph glyph-name="z" unicode="z" horiz-adv-x="793" 
d="M47 0v147l494 859h-473v145h665v-129l-504 -868h514v-154h-696z" />
    <glyph glyph-name="braceleft" unicode="{" horiz-adv-x="1024" 
d="M866 1327h-41q-126 0 -167 -52q-35 -46 -35 -177v-242q0 -143 -34 -209q-44 -84 -167 -117q124 -31 168 -116q33 -65 33 -209v-242q0 -132 36 -177q41 -52 168 -52h39v-148h-43q-193 0 -272 49q-68 42 -89 138q-11 52 -11 170v245q0 141 -49 202q-54 69 -191 69
q-7 0 -21.5 -1t-21.5 -1v149q8 0 22.5 -1t22.5 -1q135 0 190 68q48 60 48 200v246q0 118 11 170q21 95 89 137q84 52 278 52h37v-150z" />
    <glyph glyph-name="bar" unicode="|" horiz-adv-x="1024" 
d="M588 1565v-2048h-150v2048h150z" />
    <glyph glyph-name="braceright" unicode="}" horiz-adv-x="1024" 
d="M575 1118v-246q0 -140 48 -200q55 -68 190 -68q8 0 22.5 1t22.5 1v-149q-7 0 -21.5 1t-21.5 1q-138 0 -192 -68q-48 -61 -48 -203v-245q0 -118 -11 -170q-21 -96 -89 -138q-79 -49 -272 -49h-43v148h39q126 0 168 53q36 46 36 178v240q0 143 34 208q44 85 167 117
q-123 33 -167 117q-34 66 -34 209v242q0 131 -36 177q-42 52 -168 52h-39v150h37q194 0 278 -52q68 -42 89 -137q11 -52 11 -170z" />
    <glyph glyph-name="asciitilde" unicode="~" horiz-adv-x="1706" 
d="M1530 614q-204 -141 -389 -141q-93 0 -256 58l-49 17q-180 60 -273 60q-160 0 -385 -157v155q212 144 387 144q114 0 291 -62q6 -2 47 -17q157 -57 240 -57q166 0 387 156v-156z" />
    <glyph glyph-name="exclamdown" unicode="&#xa1;" horiz-adv-x="530" 
d="M180 1540h170v-209h-170v209zM215 1161h100l43 -723v-438h-186v438z" />
    <glyph glyph-name="cent" unicode="&#xa2;" horiz-adv-x="1020" 
d="M463 -324v324q-313 24 -313 584q0 240 48 375q74 206 265 231v287h131v-283q285 -44 285 -365v-12h-160q-16 242 -184 242q-148 0 -193 -190q-20 -87 -20 -306q0 -428 215 -428q96 0 148 88q42 72 42 176v29h159q-2 -169 -63 -278q-75 -132 -229 -148v-326h-131z" />
    <glyph glyph-name="sterling" unicode="&#xa3;" horiz-adv-x="1020" 
d="M147 -37l-88 133q240 153 240 408q0 102 -45 194h-195v93h150q-105 143 -105 325q0 196 115.5 315t310.5 119q205 0 312 -117q104 -114 104 -321v-33h-164v19q0 303 -254 303q-122 0 -185 -80q-58 -74 -58 -199q0 -182 106 -331h326v-93h-287q35 -112 35 -155
q0 -213 -238 -418q122 70 234 70q53 0 154.5 -26t150.5 -26q89 0 168 62l55 -139q-112 -91 -248 -91q-58 0 -178 39t-184 39q-130 0 -232 -90z" />
    <glyph glyph-name="currency" unicode="&#xa4;" horiz-adv-x="1020" 
d="M739 700l-26 -98h-358q5 -215 33 -306q54 -177 212 -177q201 0 211 352h168q-13 -233 -87 -351q-95 -151 -308 -151q-237 0 -333 212q-63 139 -75 421h-143l24 98h117q0 110 2 170h-135l25 99h114q16 274 85 400q99 179 339 179q342 0 365 -415h-166q-20 266 -201 266
q-151 0 -207 -151q-31 -84 -39 -279h449l-25 -99h-428q0 -14 -1 -42t-1 -42t1 -43t1 -43h387z" />
    <glyph glyph-name="yen" unicode="&#xa5;" horiz-adv-x="1020" 
d="M424 0v641h-397v98h346l-84 170h-262v101h209l-259 512h201l336 -725l352 725h185l-263 -512h209v-101h-262l-86 -170h348v-98h-399v-641h-174z" />
    <glyph glyph-name="brokenbar" unicode="&#xa6;" horiz-adv-x="1024" 
d="M588 408v-758h-150v758h150zM588 1432v-758h-150v758h150z" />
    <glyph glyph-name="section" unicode="&#xa7;" horiz-adv-x="1024" 
d="M643 418q109 66 109 194t-266 292q-79 49 -107 67q-109 -65 -109 -187q0 -115 90 -180q95 -62 283 -186zM172 145h160v-24q0 -180 166 -180t166 165q0 118 -188 225q-66 38 -105 62q-127 80 -176 139q-70 84 -70 207q0 216 166 297q-96 83 -96 221q0 320 321 320
q307 0 307 -313v-29h-157v10q0 189 -150 189q-160 0 -160 -164q0 -107 179 -202q65 -35 104 -58q136 -81 187 -143q73 -87 73 -218q0 -204 -168 -301q98 -74 98 -225q0 -326 -325 -326q-334 0 -334 305q0 29 2 43z" />
    <glyph glyph-name="dieresis" unicode="&#xa8;" horiz-adv-x="1024" 
d="M598 1311v170h156v-170h-156zM270 1311v170h156v-170h-156z" />
    <glyph glyph-name="copyright" unicode="&#xa9;" horiz-adv-x="1706" 
d="M1053 907q-27 160 -205 160q-121 0 -180 -116q-45 -90 -45 -224q0 -137 48 -223q61 -109 187 -109q175 0 205 176h145q-10 -138 -116 -218q-98 -74 -240 -74q-194 0 -297 133q-92 120 -92 321q0 191 101 313q108 132 294 132q134 0 228 -68q102 -74 114 -203h-147z
M1493 727q0 269 -184 453q-188 188 -455 188q-264 0 -448 -184q-193 -193 -193 -457q0 -261 189 -450t452 -189q190 0 355 109.5t237 284.5q47 114 47 245zM852 1464q309 0 524 -215t215 -522q0 -308 -213 -516q-226 -221 -526 -221q-299 0 -517 218t-218 519q0 304 219 524
q212 213 516 213z" />
    <glyph glyph-name="ordfeminine" unicode="&#xaa;" horiz-adv-x="686" 
d="M463 1169q-24 -23 -128 -61l-11 -4q-88 -32 -111 -62q-25 -34 -25 -102q0 -125 111 -125q81 0 125 59q39 52 39 136v159zM653 733q-40 -6 -71 -6q-107 0 -111 116q-57 -128 -205 -128q-198 0 -198 223q0 121 70 181q49 41 186 83l1 1q134 42 134 97v74q0 94 -127 94
t-127 -127v-14h-114q4 238 255 238q236 0 236 -217v-471q0 -60 51 -60q3 0 10 1t10 1v-86z" />
    <glyph glyph-name="guillemotleft" unicode="&#xab;" horiz-adv-x="987" 
d="M856 186l-305 320v145l305 314v-187l-197 -200l197 -205v-187zM434 186l-305 320v145l305 314v-187l-196 -200l196 -205v-187z" />
    <glyph glyph-name="logicalnot" unicode="&#xac;" horiz-adv-x="1706" 
d="M1452 860v-502h-137v363h-1061v139h1198z" />
    <glyph glyph-name="registered" unicode="&#xae;" horiz-adv-x="1706" 
d="M844 1057h-129v-277h133q211 0 211 133q0 144 -215 144zM872 1159q349 0 349 -229q0 -187 -191 -225l187 -381h-177l-170 356h-155v-356h-158v835h315zM1493 721q0 274 -182 457q-189 190 -457 190q-267 0 -446 -182q-195 -198 -195 -459q0 -190 109.5 -352.5
t285.5 -236.5q116 -50 240 -50q265 0 459 188q186 180 186 445zM852 1464q310 0 526 -219q213 -216 213 -518q0 -309 -215 -518q-225 -219 -524 -219q-302 0 -520 221q-215 218 -215 516q0 302 223 528q206 209 512 209z" />
    <glyph glyph-name="degree" unicode="&#xb0;" horiz-adv-x="674" 
d="M530 1169q0 82 -55.5 137.5t-136.5 55.5q-82 0 -138.5 -56t-56.5 -137q0 -82 56.5 -139t138.5 -57q81 0 136.5 57t55.5 139zM338 1456q120 0 203.5 -84.5t83.5 -204.5q0 -121 -84 -203.5t-205 -82.5t-204 82.5t-83 203.5t84 205t205 84z" />
    <glyph glyph-name="plusminus" unicode="&#xb1;" horiz-adv-x="1706" 
d="M1452 170v-141h-1198v141h1198zM924 1192v-340h528v-139h-528v-340h-142v340h-528v139h528v340h142z" />
    <glyph glyph-name="twosuperior" unicode="&#xb2;" horiz-adv-x="674" 
d="M66 606v35q0 183 176 324q14 11 49 39q99 80 137 120q53 55 53 156q0 166 -149 166q-148 0 -148 -191v-30h-108q0 5 -1 16t-1 16q0 281 262 281q122 0 192 -65.5t70 -186.5q0 -116 -55 -192q-29 -40 -125 -111l-47 -35q-187 -141 -191 -247l426 -1v-94h-540z" />
    <glyph glyph-name="threesuperior" unicode="&#xb3;" horiz-adv-x="674" 
d="M53 881h113v-15q0 -188 156 -188q170 0 170 188q0 181 -203 181q-21 0 -35 -2v85h22q187 0 187 162q0 154 -148 154q-135 0 -135 -170v-14h-108v12q0 119 64.5 190.5t182.5 71.5q113 0 182 -58q74 -62 74 -173q0 -181 -143 -209q174 -27 174 -226q0 -282 -284 -282
q-269 0 -269 284v9z" />
    <glyph glyph-name="acute" unicode="&#xb4;" horiz-adv-x="1024" 
d="M391 1274l170 272h178l-247 -272h-101z" />
    <glyph glyph-name="paragraph" unicode="&#xb6;" horiz-adv-x="1024" 
d="M958 1393h-120v-1393h-111v1393h-176v-1393h-113v782q-163 8 -263 95q-109 94 -109 253q0 166 116 261q108 88 277 88h499v-86z" />
    <glyph glyph-name="cedilla" unicode="&#xb8;" horiz-adv-x="1024" 
d="M330 -342l16 -3q117 -22 162 -22q110 0 110 84q0 88 -112 88q-13 0 -37 -3v198h76v-102h6q90 0 145 -41q62 -46 62 -133q0 -195 -246 -195q-80 0 -182 27v102z" />
    <glyph glyph-name="onesuperior" unicode="&#xb9;" horiz-adv-x="674" 
d="M317 606v680h-215v78h13q213 0 223 172h90v-930h-111z" />
    <glyph glyph-name="ordmasculine" unicode="&#xba;" horiz-adv-x="741" 
d="M68 1139q0 426 303 426t303 -426q0 -193 -55 -293q-72 -131 -248 -131q-177 0 -249 131q-54 99 -54 293zM197 1139q0 -145 22 -212q39 -118 152 -118q112 0 151 118q23 69 23 212q0 141 -23 209q-39 116 -151 116q-114 0 -152 -115q-22 -65 -22 -210z" />
    <glyph glyph-name="guillemotright" unicode="&#xbb;" horiz-adv-x="987" 
d="M129 186v187l199 205l-199 200v187l305 -314v-145zM551 186v187l199 205l-199 200v187l305 -314v-145z" />
    <glyph glyph-name="onequarter" unicode="&#xbc;" horiz-adv-x="1628" 
d="M1114 303h262l13 440zM1376 0v221h-350v82l358 563h95v-563h90v-82h-90v-221h-103zM426 -31h-125l899 1581h125zM303 668v635h-207v73h13q203 0 213 160h86v-868h-105z" />
    <glyph glyph-name="onehalf" unicode="&#xbd;" horiz-adv-x="1628" 
d="M1049 0q-2 12 -2 33q0 166 170 303q14 11 61 48q79 62 89 71q50 45 65 91q12 35 12 83q0 153 -144 153q-139 0 -139 -176v-28h-104v30q0 260 250 260q114 0 181.5 -60t67.5 -173q0 -108 -53 -180q-28 -38 -118 -103q-18 -12 -45 -32q-81 -60 -117 -99q-64 -68 -65 -133
h407v-88h-516zM426 -31h-125l899 1581h125zM303 668v635h-207v73h13q203 0 213 160h86v-868h-105z" />
    <glyph glyph-name="threequarters" unicode="&#xbe;" horiz-adv-x="1626" 
d="M1114 303h262l13 440zM1376 0v221h-350v82l358 563h95v-563h90v-82h-90v-221h-103zM426 -31h-125l899 1581h125zM51 924h107v-13q0 -178 149 -178q162 0 162 176q0 168 -193 168h-34v80h22q176 0 176 152q0 143 -139 143q-129 0 -129 -160v-14h-104v14q0 113 62 177.5
t175 64.5q108 0 173 -53q71 -57 71 -162q0 -171 -137 -195q168 -28 168 -211q0 -126 -73 -194t-200 -68q-256 0 -256 267v6z" />
    <glyph glyph-name="questiondown" unicode="&#xbf;" horiz-adv-x="1018" 
d="M651 1540v-209h-170v209h170zM643 1153q2 -34 2 -78q0 -120 -42 -210q-33 -71 -123 -178q-5 -6 -17 -20q-129 -153 -129 -309q0 -105 47 -170q54 -75 154 -75q219 0 219 305v31h166v-27q0 -457 -381 -457q-180 0 -282.5 107t-102.5 288q0 101 34 184q47 117 148 218l2 2
q149 149 149 330q0 16 -2 43q-1 7 -2 16h160z" />
    <glyph glyph-name="Agrave" unicode="&#xc0;" horiz-adv-x="1126" 
d="M356 600h410l-205 807zM31 0l420 1540h219l426 -1540h-174l-117 444h-488l-112 -444h-174zM684 1688h-101l-247 270h178z" />
    <glyph glyph-name="Aacute" unicode="&#xc1;" horiz-adv-x="1126" 
d="M356 600h410l-205 807zM31 0l420 1540h219l426 -1540h-174l-117 444h-488l-112 -444h-174zM442 1686l170 272h178l-247 -272h-101z" />
    <glyph glyph-name="Acircumflex" unicode="&#xc2;" horiz-adv-x="1126" 
d="M356 600h410l-205 807zM31 0l420 1540h219l426 -1540h-174l-117 444h-488l-112 -444h-174zM307 1610l172 270h168l172 -270h-98l-158 166l-158 -166h-98z" />
    <glyph glyph-name="Atilde" unicode="&#xc3;" horiz-adv-x="1126" 
d="M356 600h410l-205 807zM31 0l420 1540h219l426 -1540h-174l-117 444h-488l-112 -444h-174zM809 1930q-28 -201 -166 -201q-31 0 -59 10l-87 31q-11 4 -34 4q-51 0 -72 -66h-76q44 195 176 195q22 0 41 -6l107 -33q1 0 4 -1q16 -3 24 -3q56 0 68 70h74z" />
    <glyph glyph-name="Adieresis" unicode="&#xc4;" horiz-adv-x="1126" 
d="M356 600h410l-205 807zM31 0l420 1540h219l426 -1540h-174l-117 444h-488l-112 -444h-174zM649 1723v170h156v-170h-156zM321 1723v170h156v-170h-156z" />
    <glyph glyph-name="Aring" unicode="&#xc5;" horiz-adv-x="1126" 
d="M463 1780q0 -39 29.5 -69t68.5 -30q40 0 69 29.5t29 69.5t-29 69t-69 29q-39 0 -68.5 -29.5t-29.5 -68.5zM369 1780q0 81 55.5 136.5t136.5 55.5t137 -55.5t56 -136.5t-56 -137t-137 -56t-136.5 56t-55.5 137zM356 600h410l-205 807zM31 0l418 1530h223l424 -1530h-174
l-117 444h-488l-112 -444h-174z" />
    <glyph glyph-name="AE" unicode="&#xc6;" horiz-adv-x="1612" 
d="M385 600h360v780h-65zM-27 0l596 1540h940v-160h-594v-495h555v-156h-555v-567h601v-162h-771v444h-421l-166 -444h-185z" />
    <glyph glyph-name="Ccedilla" unicode="&#xc7;" horiz-adv-x="1157" 
d="M866 565h170q-3 -263 -99 -416q-118 -186 -364 -186q-467 0 -467 803q0 354 72 534q111 277 408 277q217 0 331 -128q109 -123 109 -343v-19h-166q0 145 -64 235q-73 103 -212 103q-195 0 -261 -253q-34 -132 -34 -406q0 -271 37 -400q67 -239 268 -239q151 0 220 140
q52 105 52 274v24zM379 -342l16 -3q117 -22 162 -22q110 0 110 84q0 88 -112 88q-13 0 -37 -3v198h76v-102h6q90 0 145 -41q62 -46 62 -133q0 -195 -246 -195q-80 0 -182 27v102z" />
    <glyph glyph-name="Egrave" unicode="&#xc8;" horiz-adv-x="1004" 
d="M137 0v1540h764v-160h-594v-495h555v-156h-555v-567h600v-162h-770zM656 1688h-101l-247 270h178z" />
    <glyph glyph-name="Eacute" unicode="&#xc9;" horiz-adv-x="1004" 
d="M137 0v1540h764v-160h-594v-495h555v-156h-555v-567h600v-162h-770zM414 1686l170 272h178l-247 -272h-101z" />
    <glyph glyph-name="Ecircumflex" unicode="&#xca;" horiz-adv-x="1004" 
d="M137 0v1540h764v-160h-594v-495h555v-156h-555v-567h600v-162h-770zM278 1610l172 270h168l172 -270h-98l-158 166l-158 -166h-98z" />
    <glyph glyph-name="Edieresis" unicode="&#xcb;" horiz-adv-x="1004" 
d="M137 0v1540h764v-160h-594v-495h555v-156h-555v-567h600v-162h-770zM621 1723v170h156v-170h-156zM293 1723v170h156v-170h-156z" />
    <glyph glyph-name="Igrave" unicode="&#xcc;" horiz-adv-x="451" 
d="M137 0v1540h176v-1540h-176zM346 1688h-101l-247 270h178z" />
    <glyph glyph-name="Iacute" unicode="&#xcd;" horiz-adv-x="451" 
d="M137 0v1540h176v-1540h-176zM104 1686l170 272h178l-247 -272h-101z" />
    <glyph glyph-name="Icircumflex" unicode="&#xce;" horiz-adv-x="451" 
d="M137 0v1540h176v-1540h-176zM-31 1688l172 270h168l172 -270h-98l-158 166l-158 -166h-98z" />
    <glyph glyph-name="Idieresis" unicode="&#xcf;" horiz-adv-x="451" 
d="M137 0v1540h176v-1540h-176zM311 1723v170h156v-170h-156zM-17 1723v170h156v-170h-156z" />
    <glyph glyph-name="Eth" unicode="&#xd0;" horiz-adv-x="1210" 
d="M328 147h223q195 0 260 93q102 147 102 528q0 311 -42 423q-76 200 -326 200h-217v-490h305v-147h-305v-607zM156 0v754h-156v147h156v639h436q294 0 416 -225q94 -171 94 -494q0 -503 -176 -696q-71 -78 -170 -105q-72 -20 -203 -20h-397z" />
    <glyph glyph-name="Ntilde" unicode="&#xd1;" horiz-adv-x="1188" 
d="M137 0v1540h230l534 -1321l-16 1321h166v-1540h-220l-542 1360l14 -1360h-166zM862 1930q-28 -201 -166 -201q-31 0 -59 10l-87 31q-11 4 -34 4q-51 0 -72 -66h-76q44 195 176 195q22 0 41 -6l107 -33q1 0 4 -1q16 -3 24 -3q56 0 68 70h74z" />
    <glyph glyph-name="Ograve" unicode="&#xd2;" horiz-adv-x="1200" 
d="M285 770q0 -293 34 -415q67 -240 281 -240q217 0 283 239q32 117 32 416t-32 415q-66 238 -283 238q-214 0 -281 -239q-34 -121 -34 -414zM106 770q0 358 75 537q114 270 419 270q307 0 420 -269q74 -176 74 -538q0 -363 -74 -538q-112 -269 -420 -269q-303 0 -418 271
q-76 180 -76 536zM721 1688h-101l-247 270h178z" />
    <glyph glyph-name="Oacute" unicode="&#xd3;" horiz-adv-x="1200" 
d="M285 770q0 -293 34 -415q67 -240 281 -240q217 0 283 239q32 117 32 416t-32 415q-66 238 -283 238q-214 0 -281 -239q-34 -121 -34 -414zM106 770q0 358 75 537q114 270 419 270q307 0 420 -269q74 -176 74 -538q0 -363 -74 -538q-112 -269 -420 -269q-303 0 -418 271
q-76 180 -76 536zM479 1686l170 272h178l-247 -272h-101z" />
    <glyph glyph-name="Ocircumflex" unicode="&#xd4;" horiz-adv-x="1200" 
d="M285 770q0 -293 34 -415q67 -240 281 -240q217 0 283 239q32 117 32 416t-32 415q-66 238 -283 238q-214 0 -281 -239q-34 -121 -34 -414zM106 770q0 358 75 537q114 270 419 270q307 0 420 -269q74 -176 74 -538q0 -363 -74 -538q-112 -269 -420 -269q-303 0 -418 271
q-76 180 -76 536zM345 1610l172 270h168l172 -270h-98l-158 166l-158 -166h-98z" />
    <glyph glyph-name="Otilde" unicode="&#xd5;" horiz-adv-x="1200" 
d="M285 770q0 -293 34 -415q67 -240 281 -240q217 0 283 239q32 117 32 416t-32 415q-66 238 -283 238q-214 0 -281 -239q-34 -121 -34 -414zM106 770q0 358 75 537q114 270 419 270q307 0 420 -269q74 -176 74 -538q0 -363 -74 -538q-112 -269 -420 -269q-303 0 -418 271
q-76 180 -76 536zM846 1930q-28 -201 -166 -201q-31 0 -59 10l-87 31q-11 4 -34 4q-51 0 -72 -66h-76q44 195 176 195q22 0 41 -6l107 -33q1 0 4 -1q16 -3 24 -3q56 0 68 70h74z" />
    <glyph glyph-name="Odieresis" unicode="&#xd6;" horiz-adv-x="1200" 
d="M285 770q0 -293 34 -415q67 -240 281 -240q217 0 283 239q32 117 32 416t-32 415q-66 238 -283 238q-214 0 -281 -239q-34 -121 -34 -414zM106 770q0 358 75 537q114 270 419 270q307 0 420 -269q74 -176 74 -538q0 -363 -74 -538q-112 -269 -420 -269q-303 0 -418 271
q-76 180 -76 536zM686 1723v170h156v-170h-156zM358 1723v170h156v-170h-156z" />
    <glyph glyph-name="multiply" unicode="&#xd7;" horiz-adv-x="1706" 
d="M860 709l469 469l98 -99l-469 -469l469 -469l-98 -96l-469 467l-469 -467l-98 96l469 469l-469 469l98 99z" />
    <glyph glyph-name="Oslash" unicode="&#xd8;" horiz-adv-x="1200" 
d="M848 1286q-74 137 -248 137q-214 0 -280 -240q-33 -120 -33 -413q0 -227 26 -369zM352 264q69 -149 248 -149q223 0 287 256q28 114 28 436q0 184 -26 344zM78 14l117 193q-86 182 -86 563q0 359 74 537q112 270 417 270q225 0 344 -135l80 139l90 -57l-106 -183
q86 -186 86 -571q0 -363 -74 -538q-112 -269 -420 -269q-221 0 -342 143l-90 -151z" />
    <glyph glyph-name="Ugrave" unicode="&#xd9;" horiz-adv-x="1180" 
d="M139 1540h172v-1036q0 -188 43 -270q61 -115 228 -115q292 0 292 385v1036h168v-1005q0 -152 -11 -220q-20 -120 -85 -198q-128 -152 -366 -152q-251 0 -369 160q-51 69 -65 198q-7 60 -7 212v1005zM711 1688h-101l-247 270h178z" />
    <glyph glyph-name="Uacute" unicode="&#xda;" horiz-adv-x="1180" 
d="M139 1540h172v-1036q0 -188 43 -270q61 -115 228 -115q292 0 292 385v1036h168v-1005q0 -152 -11 -220q-20 -120 -85 -198q-128 -152 -366 -152q-251 0 -369 160q-51 69 -65 198q-7 60 -7 212v1005zM469 1686l170 272h178l-247 -272h-101z" />
    <glyph glyph-name="Ucircumflex" unicode="&#xdb;" horiz-adv-x="1180" 
d="M139 1540h172v-1036q0 -188 43 -270q61 -115 228 -115q292 0 292 385v1036h168v-1005q0 -152 -11 -220q-20 -120 -85 -198q-128 -152 -366 -152q-251 0 -369 160q-51 69 -65 198q-7 60 -7 212v1005zM334 1688l172 270h168l172 -270h-98l-158 166l-158 -166h-98z" />
    <glyph glyph-name="Udieresis" unicode="&#xdc;" horiz-adv-x="1180" 
d="M139 1540h172v-1036q0 -188 43 -270q61 -115 228 -115q292 0 292 385v1036h168v-1005q0 -152 -11 -220q-20 -120 -85 -198q-128 -152 -366 -152q-251 0 -369 160q-51 69 -65 198q-7 60 -7 212v1005zM676 1723v170h156v-170h-156zM348 1723v170h156v-170h-156z" />
    <glyph glyph-name="Yacute" unicode="&#xdd;" horiz-adv-x="1028" 
d="M424 0v596l-455 944h205l340 -758l356 758h187l-459 -944v-596h-174zM393 1686l170 272h178l-247 -272h-101z" />
    <glyph glyph-name="Thorn" unicode="&#xde;" horiz-adv-x="1085" 
d="M309 528h226q303 0 303 310q0 153 -82 219q-74 59 -232 59h-215v-588zM137 0v1540h172v-274h223q240 0 356 -93q128 -102 128 -335q0 -465 -477 -465h-230v-373h-172z" />
    <glyph glyph-name="germandbls" unicode="&#xdf;" horiz-adv-x="985" 
d="M121 0v1077q0 471 358 471q348 0 348 -372q0 -217 -143 -299q201 -84 201 -424q0 -482 -320 -482q-84 0 -137 41v152q59 -47 125 -47q108 0 144 122q20 68 20 210q0 161 -33 236q-50 114 -188 114q-29 0 -47 -2v137q12 -2 34 -2q187 0 187 221q0 260 -197 260t-197 -272
v-1141h-155z" />
    <glyph glyph-name="agrave" unicode="&#xe0;" 
d="M616 621q-38 -42 -168 -89q-6 -2 -16 -6q-103 -36 -139 -80q-41 -50 -41 -153q0 -180 145 -180q110 0 169 88q50 76 50 192v228zM870 -2q-60 -10 -94 -10q-143 0 -149 165q-77 -182 -273 -182q-135 0 -204 96q-60 83 -60 224q0 169 91 253q67 62 252 124l3 1
q176 59 176 138v106q0 136 -170 136t-170 -183v-20h-151q3 175 84 256.5t256 81.5q163 0 239 -74t76 -236v-673q0 -84 68 -84q7 0 22 3q2 0 4 1v-123zM594 1276h-101l-247 270h178z" />
    <glyph glyph-name="aacute" unicode="&#xe1;" 
d="M616 621q-38 -42 -168 -89q-6 -2 -16 -6q-103 -36 -139 -80q-41 -50 -41 -153q0 -180 145 -180q110 0 169 88q50 76 50 192v228zM870 -2q-60 -10 -94 -10q-143 0 -149 165q-77 -182 -273 -182q-135 0 -204 96q-60 83 -60 224q0 169 91 253q67 62 252 124l3 1
q176 59 176 138v106q0 136 -170 136t-170 -183v-20h-151q3 175 84 256.5t256 81.5q163 0 239 -74t76 -236v-673q0 -84 68 -84q7 0 22 3q2 0 4 1v-123zM352 1274l170 272h178l-247 -272h-101z" />
    <glyph glyph-name="acircumflex" unicode="&#xe2;" 
d="M616 621q-38 -42 -168 -89q-6 -2 -16 -6q-103 -36 -139 -80q-41 -50 -41 -153q0 -180 145 -180q110 0 169 88q50 76 50 192v228zM870 -2q-60 -10 -94 -10q-143 0 -149 165q-77 -182 -273 -182q-135 0 -204 96q-60 83 -60 224q0 169 91 253q67 62 252 124l3 1
q176 59 176 138v106q0 136 -170 136t-170 -183v-20h-151q3 175 84 256.5t256 81.5q163 0 239 -74t76 -236v-673q0 -84 68 -84q7 0 22 3q2 0 4 1v-123zM217 1276l172 270h168l172 -270h-98l-158 166l-158 -166h-98z" />
    <glyph glyph-name="atilde" unicode="&#xe3;" 
d="M616 621q-38 -42 -168 -89q-6 -2 -16 -6q-103 -36 -139 -80q-41 -50 -41 -153q0 -180 145 -180q110 0 169 88q50 76 50 192v228zM870 -2q-60 -10 -94 -10q-143 0 -149 165q-77 -182 -273 -182q-135 0 -204 96q-60 83 -60 224q0 169 91 253q67 62 252 124l3 1
q176 59 176 138v106q0 136 -170 136t-170 -183v-20h-151q3 175 84 256.5t256 81.5q163 0 239 -74t76 -236v-673q0 -84 68 -84q7 0 22 3q2 0 4 1v-123zM719 1518q-28 -201 -166 -201q-31 0 -59 10l-87 31q-11 4 -34 4q-51 0 -72 -66h-76q44 195 176 195q22 0 41 -6l107 -33
q1 0 4 -1q16 -3 24 -3q56 0 68 70h74z" />
    <glyph glyph-name="adieresis" unicode="&#xe4;" 
d="M616 621q-38 -42 -168 -89q-6 -2 -16 -6q-103 -36 -139 -80q-41 -50 -41 -153q0 -180 145 -180q110 0 169 88q50 76 50 192v228zM870 -2q-60 -10 -94 -10q-143 0 -149 165q-77 -182 -273 -182q-135 0 -204 96q-60 83 -60 224q0 169 91 253q67 62 252 124l3 1
q176 59 176 138v106q0 136 -170 136t-170 -183v-20h-151q3 175 84 256.5t256 81.5q163 0 239 -74t76 -236v-673q0 -84 68 -84q7 0 22 3q2 0 4 1v-123zM559 1311v170h156v-170h-156zM231 1311v170h156v-170h-156z" />
    <glyph glyph-name="aring" unicode="&#xe5;" 
d="M362 1434q0 -39 30 -70t69 -31q40 0 69 30.5t29 70.5t-29 69t-69 29q-39 0 -69 -29.5t-30 -68.5zM268 1434q0 80 56.5 136t136.5 56q81 0 136.5 -55.5t55.5 -136.5t-56 -138t-136 -57q-81 0 -137 57t-56 138zM616 621q-38 -42 -168 -89q-6 -2 -16 -6q-103 -36 -139 -80
q-41 -50 -41 -153q0 -180 145 -180q110 0 169 88q50 76 50 192v228zM870 -2q-60 -10 -94 -10q-143 0 -149 165q-77 -182 -273 -182q-135 0 -204 96q-60 83 -60 224q0 169 91 253q67 62 252 124l3 1q176 59 176 138v106q0 136 -170 136t-170 -183v-20h-151q3 175 84 256.5
t256 81.5q163 0 239 -74t76 -236v-673q0 -84 68 -84q7 0 22 3q2 0 4 1v-123z" />
    <glyph glyph-name="ae" unicode="&#xe6;" horiz-adv-x="1423" 
d="M774 700h391v37q0 314 -192 314q-199 0 -199 -322v-29zM621 621q-31 -40 -164 -87q-8 -3 -21 -8q-102 -36 -139 -80q-41 -50 -41 -153q0 -178 145 -178q115 0 172 92q48 77 48 199v215zM674 170q-142 -199 -316 -199q-134 0 -203 96q-61 85 -61 224q0 168 96 258
q55 51 219 108q52 18 76 27q53 20 68 27q39 19 57 43q15 20 15 80v55q0 166 -174 166q-175 0 -175 -183q0 -4 1.5 -13t1.5 -13h-152q3 175 84 256.5t256 81.5q195 0 266 -121q87 121 244 121q354 0 354 -512q0 -45 -4 -102l-557 -1q-2 -36 -2 -98q0 -162 31 -240
q49 -122 184 -122q184 0 184 280h158q-2 -188 -82 -296q-91 -122 -272 -122q-215 0 -297 199z" />
    <glyph glyph-name="ccedilla" unicode="&#xe7;" horiz-adv-x="942" 
d="M680 405l158 1q0 -195 -84 -309q-95 -128 -283 -128q-377 0 -377 615q0 598 387 598q165 0 258 -102q90 -98 90 -265v-24h-157q-10 247 -185 247q-145 0 -193 -172q-26 -91 -26 -288q0 -199 26 -291q48 -174 195 -174q185 0 191 292zM285 -342l16 -3q117 -22 162 -22
q110 0 110 84q0 88 -112 88q-13 0 -37 -3v198h76v-102h6q90 0 145 -41q62 -46 62 -133q0 -195 -246 -195q-80 0 -182 27v102z" />
    <glyph glyph-name="egrave" unicode="&#xe8;" horiz-adv-x="901" 
d="M256 700h391v31q0 320 -186 320q-205 0 -205 -351zM649 389h158q-4 -420 -354 -420q-363 0 -363 594q0 265 57 407q86 214 310 214q354 0 354 -514q0 -66 -2 -100l-553 -1v-51q0 -414 209 -414q98 0 146 95q38 74 38 182v8zM598 1276h-101l-247 270h178z" />
    <glyph glyph-name="eacute" unicode="&#xe9;" horiz-adv-x="901" 
d="M256 700h391v31q0 320 -186 320q-205 0 -205 -351zM649 389h158q-4 -420 -354 -420q-363 0 -363 594q0 265 57 407q86 214 310 214q354 0 354 -514q0 -66 -2 -100l-553 -1v-51q0 -414 209 -414q98 0 146 95q38 74 38 182v8zM356 1274l170 272h178l-247 -272h-101z" />
    <glyph glyph-name="ecircumflex" unicode="&#xea;" horiz-adv-x="901" 
d="M256 700h391v31q0 320 -186 320q-205 0 -205 -351zM649 389h158q-4 -420 -354 -420q-363 0 -363 594q0 265 57 407q86 214 310 214q354 0 354 -514q0 -66 -2 -100l-553 -1v-51q0 -414 209 -414q98 0 146 95q38 74 38 182v8zM221 1276l172 270h168l172 -270h-98l-158 166
l-158 -166h-98z" />
    <glyph glyph-name="edieresis" unicode="&#xeb;" horiz-adv-x="901" 
d="M256 700h391v31q0 320 -186 320q-205 0 -205 -351zM649 389h158q-4 -420 -354 -420q-363 0 -363 594q0 265 57 407q86 214 310 214q354 0 354 -514q0 -66 -2 -100l-553 -1v-51q0 -414 209 -414q98 0 146 95q38 74 38 182v8zM563 1311v170h156v-170h-156zM235 1311v170
h156v-170h-156z" />
    <glyph glyph-name="igrave" unicode="&#xec;" horiz-adv-x="408" 
d="M121 0v1151h166v-1151h-166zM326 1276h-101l-247 270h178z" />
    <glyph glyph-name="iacute" unicode="&#xed;" horiz-adv-x="408" 
d="M121 0v1151h166v-1151h-166zM84 1274l170 272h178l-247 -272h-101z" />
    <glyph glyph-name="icircumflex" unicode="&#xee;" horiz-adv-x="408" 
d="M121 0v1151h166v-1151h-166zM-51 1276l172 270h168l172 -270h-98l-158 166l-158 -166h-98z" />
    <glyph glyph-name="idieresis" unicode="&#xef;" horiz-adv-x="408" 
d="M121 0v1151h166v-1151h-166zM291 1311v170h156v-170h-156zM-37 1311v170h156v-170h-156z" />
    <glyph glyph-name="eth" unicode="&#xf0;" horiz-adv-x="989" 
d="M592 1083q-50 75 -172 168l-242 -135l-45 82l205 117q-47 33 -168 98l41 127q140 -69 266 -151l271 151l53 -82l-242 -137q186 -144 267 -344q71 -176 71 -432q0 -261 -72 -396q-96 -180 -331 -180q-236 0 -332 180q-72 136 -72 396q0 573 373 573q71 0 129 -35zM262 551
q0 -196 29 -285q51 -157 203 -157q149 0 201 159q30 93 30 283q0 193 -29 282q-51 156 -202 156t-203 -156q-29 -89 -29 -282z" />
    <glyph glyph-name="ntilde" unicode="&#xf1;" horiz-adv-x="963" 
d="M123 0v1151h151v-143q84 168 289 168q163 0 228 -92q53 -77 53 -250v-834h-162v846q0 186 -162 186q-111 0 -175 -71q-60 -68 -60 -181v-780h-162zM746 1518q-28 -201 -166 -201q-31 0 -59 10l-87 31q-11 4 -34 4q-51 0 -72 -66h-76q44 195 176 195q22 0 41 -6l107 -33
q1 0 4 -1q16 -3 24 -3q56 0 68 70h74z" />
    <glyph glyph-name="ograve" unicode="&#xf2;" horiz-adv-x="989" 
d="M90 575q0 609 404 609q238 0 335 -198q70 -143 70 -411t-70 -410q-96 -196 -335 -196q-240 0 -335 195q-69 141 -69 411zM262 575q0 -205 27 -297q51 -172 205 -172q152 0 203 173q28 95 28 296q0 202 -28 296q-51 171 -203 171q-154 0 -204 -171q-28 -93 -28 -296z
M623 1276h-101l-247 270h178z" />
    <glyph glyph-name="oacute" unicode="&#xf3;" horiz-adv-x="989" 
d="M90 575q0 609 404 609q238 0 335 -198q70 -143 70 -411t-70 -410q-96 -196 -335 -196q-240 0 -335 195q-69 141 -69 411zM262 575q0 -205 27 -297q51 -172 205 -172q152 0 203 173q28 95 28 296q0 202 -28 296q-51 171 -203 171q-154 0 -204 -171q-28 -93 -28 -296z
M381 1274l170 272h178l-247 -272h-101z" />
    <glyph glyph-name="ocircumflex" unicode="&#xf4;" horiz-adv-x="989" 
d="M90 575q0 609 404 609q238 0 335 -198q70 -143 70 -411t-70 -410q-96 -196 -335 -196q-240 0 -335 195q-69 141 -69 411zM262 575q0 -205 27 -297q51 -172 205 -172q152 0 203 173q28 95 28 296q0 202 -28 296q-51 171 -203 171q-154 0 -204 -171q-28 -93 -28 -296z
M246 1276l172 270h168l172 -270h-98l-158 166l-158 -166h-98z" />
    <glyph glyph-name="otilde" unicode="&#xf5;" horiz-adv-x="989" 
d="M90 575q0 609 404 609q238 0 335 -198q70 -143 70 -411t-70 -410q-96 -196 -335 -196q-240 0 -335 195q-69 141 -69 411zM262 575q0 -205 27 -297q51 -172 205 -172q152 0 203 173q28 95 28 296q0 202 -28 296q-51 171 -203 171q-154 0 -204 -171q-28 -93 -28 -296z
M748 1518q-28 -201 -166 -201q-31 0 -59 10l-87 31q-11 4 -34 4q-51 0 -72 -66h-76q44 195 176 195q22 0 41 -6l107 -33q1 0 4 -1q16 -3 24 -3q56 0 68 70h74z" />
    <glyph glyph-name="odieresis" unicode="&#xf6;" horiz-adv-x="989" 
d="M90 575q0 609 404 609q238 0 335 -198q70 -143 70 -411t-70 -410q-96 -196 -335 -196q-240 0 -335 195q-69 141 -69 411zM262 575q0 -205 27 -297q51 -172 205 -172q152 0 203 173q28 95 28 296q0 202 -28 296q-51 171 -203 171q-154 0 -204 -171q-28 -93 -28 -296z
M588 1311v170h156v-170h-156zM260 1311v170h156v-170h-156z" />
    <glyph glyph-name="divide" unicode="&#xf7;" horiz-adv-x="1706" 
d="M854 367q51 0 88 -37t37 -88q0 -52 -36.5 -88.5t-88.5 -36.5q-53 0 -89 36t-36 89q0 51 37 88t88 37zM1452 680v-139h-1198v139h1198zM854 1106q52 0 88.5 -37.5t36.5 -89.5t-36.5 -88.5t-88.5 -36.5t-88.5 36.5t-36.5 88.5t36.5 89.5t88.5 37.5z" />
    <glyph glyph-name="oslash" unicode="&#xf8;" horiz-adv-x="989" 
d="M674 938q-53 104 -180 104q-156 0 -206 -168q-26 -88 -26 -296q0 -142 12 -236zM309 223q47 -114 185 -114q152 0 203 173q28 95 28 296q0 113 -16 239zM29 -25l129 193q-68 158 -68 399q0 270 69 415q97 202 335 202q179 0 274 -107l102 152l78 -53l-123 -185
q74 -136 74 -428q0 -594 -405 -594q-178 0 -281 111l-107 -162z" />
    <glyph glyph-name="ugrave" unicode="&#xf9;" horiz-adv-x="963" 
d="M682 0v150q-71 -181 -287 -181q-148 0 -214 76q-62 71 -62 221v885h168v-889q0 -149 135 -149q122 0 186 78q60 72 60 196v764h163v-1151h-149zM596 1276h-101l-247 270h178z" />
    <glyph glyph-name="uacute" unicode="&#xfa;" horiz-adv-x="963" 
d="M682 0v150q-71 -181 -287 -181q-148 0 -214 76q-62 71 -62 221v885h168v-889q0 -149 135 -149q122 0 186 78q60 72 60 196v764h163v-1151h-149zM354 1274l170 272h178l-247 -272h-101z" />
    <glyph glyph-name="ucircumflex" unicode="&#xfb;" horiz-adv-x="963" 
d="M682 0v150q-71 -181 -287 -181q-148 0 -214 76q-62 71 -62 221v885h168v-889q0 -149 135 -149q122 0 186 78q60 72 60 196v764h163v-1151h-149zM219 1276l172 270h168l172 -270h-98l-158 166l-158 -166h-98z" />
    <glyph glyph-name="udieresis" unicode="&#xfc;" horiz-adv-x="963" 
d="M682 0v150q-71 -181 -287 -181q-148 0 -214 76q-62 71 -62 221v885h168v-889q0 -149 135 -149q122 0 186 78q60 72 60 196v764h163v-1151h-149zM561 1311v170h156v-170h-156zM233 1311v170h156v-170h-156z" />
    <glyph glyph-name="yacute" unicode="&#xfd;" horiz-adv-x="909" 
d="M78 -369v146q48 -21 100 -21q85 0 135 79q27 43 60 155l-338 1161h174l246 -928l254 928h165l-354 -1202q-51 -172 -106 -239q-78 -97 -230 -97q-44 0 -106 18zM334 1274l170 272h178l-247 -272h-101z" />
    <glyph glyph-name="thorn" unicode="&#xfe;" horiz-adv-x="975" 
d="M123 -389v1929h166v-506q55 144 233 144q365 0 365 -600q0 -254 -54 -393q-83 -210 -296 -210q-172 0 -248 148v-512h-166zM279 580q0 -463 229 -463q134 0 180 180q25 97 25 285q0 186 -26 280q-48 172 -185 172q-145 0 -195 -168q-28 -93 -28 -286z" />
    <glyph glyph-name="ydieresis" unicode="&#xff;" horiz-adv-x="909" 
d="M78 -369v146q48 -21 100 -21q85 0 135 79q27 43 60 155l-338 1161h174l246 -928l254 928h165l-354 -1202q-51 -172 -106 -239q-78 -97 -230 -97q-44 0 -106 18zM541 1311v170h156v-170h-156zM213 1311v170h156v-170h-156z" />
    <glyph glyph-name="Cacute" unicode="&#x106;" horiz-adv-x="1157" 
d="M866 565h170q-3 -263 -99 -416q-118 -186 -364 -186q-467 0 -467 803q0 354 72 534q111 277 408 277q217 0 331 -128q109 -123 109 -343v-19h-166q0 145 -64 235q-73 103 -212 103q-195 0 -261 -253q-34 -132 -34 -406q0 -271 37 -400q67 -239 268 -239q151 0 220 140
q52 105 52 274v24zM483 1686l170 272h178l-247 -272h-101z" />
    <glyph glyph-name="cacute" unicode="&#x107;" horiz-adv-x="942" 
d="M680 405l158 1q0 -195 -84 -309q-95 -128 -283 -128q-377 0 -377 615q0 598 387 598q165 0 258 -102q90 -98 90 -265v-24h-157q-10 247 -185 247q-145 0 -193 -172q-26 -91 -26 -288q0 -199 26 -291q48 -174 195 -174q185 0 191 292zM364 1274l170 272h178l-247 -272
h-101z" />
    <glyph glyph-name="Ccaron" unicode="&#x10c;" horiz-adv-x="1157" 
d="M866 565h170q-3 -263 -99 -416q-118 -186 -364 -186q-467 0 -467 803q0 354 72 534q111 277 408 277q217 0 331 -128q109 -123 109 -343v-19h-166q0 145 -64 235q-73 103 -212 103q-195 0 -261 -253q-34 -132 -34 -406q0 -271 37 -400q67 -239 268 -239q151 0 220 140
q52 105 52 274v24zM348 1958h98l158 -166l158 166h98l-172 -270h-168z" />
    <glyph glyph-name="ccaron" unicode="&#x10d;" horiz-adv-x="942" 
d="M680 405l158 1q0 -195 -84 -309q-95 -128 -283 -128q-377 0 -377 615q0 598 387 598q165 0 258 -102q90 -98 90 -265v-24h-157q-10 247 -185 247q-145 0 -193 -172q-26 -91 -26 -288q0 -199 26 -291q48 -174 195 -174q185 0 191 292zM229 1546h98l158 -166l158 166h98
l-172 -270h-168z" />
    <glyph glyph-name="Dslash" unicode="&#x110;" horiz-adv-x="1210" 
d="M328 147h223q195 0 260 93q102 147 102 528q0 311 -42 423q-76 200 -326 200h-217v-490h305v-147h-305v-607zM156 0v754h-156v147h156v639h436q294 0 416 -225q94 -171 94 -494q0 -503 -176 -696q-71 -78 -170 -105q-72 -20 -203 -20h-397z" />
    <glyph glyph-name="dcroat" unicode="&#x111;" horiz-adv-x="993" 
d="M705 0v145q-20 -79 -95 -126q-69 -42 -155 -42q-211 0 -302 228q-63 158 -63 407q0 223 68 369q91 197 288 197q80 0 149 -35q80 -41 99 -111v248h-248v100h248v160h162v-160h160v-100h-160v-1280h-151zM705 584q0 198 -25 284q-47 166 -193 166q-221 0 -221 -438
q0 -194 26 -293q48 -182 189 -182q147 0 197 172q27 95 27 291z" />
    <glyph glyph-name="Gbreve" unicode="&#x11e;" horiz-adv-x="1214" 
d="M954 0l-10 213q-87 -250 -354 -250q-293 0 -408 282q-76 188 -76 535q0 357 85 538q122 259 434 259q216 0 333 -132q111 -126 113 -345h-170q-10 330 -285 330q-221 0 -293 -261q-38 -136 -38 -438q0 -606 329 -606q310 0 310 453q0 49 -3 69h-348v156h514v-803h-133z
M354 1950h94q19 -121 160 -121t158 121h94q-23 -256 -252 -256q-231 0 -254 256z" />
    <glyph glyph-name="gbreve" unicode="&#x11f;" horiz-adv-x="973" 
d="M262 573q0 -189 26 -281q49 -169 189 -169q146 0 195 174q26 92 26 291q0 188 -30 285q-51 167 -195 167q-138 0 -186 -179q-25 -96 -25 -288zM127 -106l160 -1q10 -141 188 -141q133 0 185 102q38 75 38 224q0 10 -1 30.5t-1 30.5q-70 -157 -256 -157q-348 0 -348 628
q0 568 361 568q190 0 245 -162v135h156v-1098q0 -202 -93 -317q-101 -125 -298 -125q-136 0 -231 68q-105 77 -105 208v7zM233 1538h94q19 -121 160 -121t158 121h94q-23 -256 -252 -256q-231 0 -254 256z" />
    <glyph glyph-name="Idotaccent" unicode="&#x130;" horiz-adv-x="451" 
d="M137 0v1540h176v-1540h-176zM129 1741v219h192v-219h-192z" />
    <glyph glyph-name="dotlessi" unicode="&#x131;" horiz-adv-x="408" 
d="M121 0v1151h166v-1151h-166z" />
    <glyph glyph-name="Lslash" unicode="&#x141;" horiz-adv-x="993" 
d="M156 0v596l-156 -111v168l156 107v780h172v-663l307 217v-170l-307 -215v-543h614v-166h-786z" />
    <glyph glyph-name="lslash" unicode="&#x142;" horiz-adv-x="428" 
d="M143 0v719l-143 -101v115l143 98v709h160v-629l146 101v-115l-146 -100v-797h-160z" />
    <glyph glyph-name="OE" unicode="&#x152;" horiz-adv-x="1747" 
d="M881 498v567q0 170 -56 255q-67 103 -227 103q-207 0 -276 -226q-37 -123 -37 -396q0 -314 30 -431q64 -255 283 -255q167 0 233 113q50 87 50 270zM881 0v133q-81 -170 -310 -170q-285 0 -395 281q-72 184 -72 526t72 526q110 281 395 281q229 0 310 -170v133h764v-160
h-596v-495h555v-156h-555v-567h602v-162h-770z" />
    <glyph glyph-name="oe" unicode="&#x153;" horiz-adv-x="1485" 
d="M854 698h373q0 9 1 28t1 28q0 295 -185 295q-190 0 -190 -351zM260 565q0 -196 27 -290q50 -171 196 -171t191 175q22 85 22 290q0 219 -20 300q-44 180 -195 180q-152 0 -199 -181q-22 -88 -22 -303zM770 137q-79 -166 -289 -166q-231 0 -324 192q-67 139 -67 400
q0 273 62 414q91 205 327 205q201 0 295 -160q90 160 270 160q345 0 345 -518q0 -70 -3 -97h-530v-71q0 -169 23 -247q41 -145 168 -145q182 0 186 279h149q-5 -178 -76 -284q-84 -128 -251 -128q-210 0 -285 166z" />
    <glyph glyph-name="Scedilla" unicode="&#x15e;" horiz-adv-x="1098" 
d="M104 489h164v-55q0 -317 287 -317q131 0 204 80q70 77 70 209q0 124 -64 187q-47 46 -181 97q-30 11 -104 39q-189 69 -226 102q-127 112 -127 318q0 200 110 314t310 114q187 0 294 -104t107 -291q0 -7 -1 -19.5t-1 -19.5h-158v16q0 271 -243 271q-118 0 -188 -66.5
t-70 -183.5q0 -125 67 -190q49 -47 185 -97l56 -21q241 -89 288 -133q112 -104 112 -311q0 -218 -120 -340.5t-338 -122.5q-435 0 -435 473q0 9 1 26t1 25zM367 -342l16 -3q117 -22 162 -22q110 0 110 84q0 88 -112 88q-13 0 -37 -3v198h76v-102h6q90 0 145 -41
q62 -46 62 -133q0 -195 -246 -195q-80 0 -182 27v102z" />
    <glyph glyph-name="scedilla" unicode="&#x15f;" horiz-adv-x="909" 
d="M92 346h160q0 -3 -1 -6q-3 -22 -3 -33q0 -192 209 -192q90 0 145 48.5t55 137.5q0 138 -209 208l-3 1q-206 69 -272 145q-62 72 -62 209q0 154 90 237t245 83q338 0 338 -320v-16h-153q-10 199 -178 199q-189 0 -189 -177q0 -79 48 -119t176 -81q71 -23 108 -37
q115 -45 166 -112q55 -72 55 -191q0 -178 -104 -271q-99 -90 -279 -90q-342 0 -342 353v24zM273 -342l16 -3q117 -22 162 -22q110 0 110 84q0 88 -112 88q-13 0 -37 -3v198h76v-102h6q90 0 145 -41q62 -46 62 -133q0 -195 -246 -195q-80 0 -182 27v102z" />
    <glyph glyph-name="Scaron" unicode="&#x160;" horiz-adv-x="1098" 
d="M104 489h164v-55q0 -317 287 -317q131 0 204 80q70 77 70 209q0 124 -64 187q-47 46 -181 97q-30 11 -104 39q-189 69 -226 102q-127 112 -127 318q0 200 110 314t310 114q187 0 294 -104t107 -291q0 -7 -1 -19.5t-1 -19.5h-158v16q0 271 -243 271q-118 0 -188 -66.5
t-70 -183.5q0 -125 67 -190q49 -47 185 -97l56 -21q241 -89 288 -133q112 -104 112 -311q0 -218 -120 -340.5t-338 -122.5q-435 0 -435 473q0 9 1 26t1 25zM293 1958h98l158 -166l158 166h98l-172 -270h-168z" />
    <glyph glyph-name="scaron" unicode="&#x161;" horiz-adv-x="909" 
d="M92 346h160q0 -3 -1 -6q-3 -22 -3 -33q0 -192 209 -192q90 0 145 48.5t55 137.5q0 138 -209 208l-3 1q-206 69 -272 145q-62 72 -62 209q0 154 90 237t245 83q338 0 338 -320v-16h-153q-10 199 -178 199q-189 0 -189 -177q0 -79 48 -119t176 -81q71 -23 108 -37
q115 -45 166 -112q55 -72 55 -191q0 -178 -104 -271q-99 -90 -279 -90q-342 0 -342 353v24zM199 1546h98l158 -166l158 166h98l-172 -270h-168z" />
    <glyph glyph-name="Ydieresis" unicode="&#x178;" horiz-adv-x="1028" 
d="M424 0v596l-455 944h205l340 -758l356 758h187l-459 -944v-596h-174zM600 1723v170h156v-170h-156zM272 1723v170h156v-170h-156z" />
    <glyph glyph-name="Zcaron" unicode="&#x17d;" horiz-adv-x="905" 
d="M47 0v160l621 1220h-586v160h768v-158l-617 -1216h625v-166h-811zM197 1958h98l158 -166l158 166h98l-172 -270h-168z" />
    <glyph glyph-name="zcaron" unicode="&#x17e;" horiz-adv-x="793" 
d="M47 0v147l494 859h-473v145h665v-129l-504 -868h514v-154h-696zM141 1546h98l158 -166l158 166h98l-172 -270h-168z" />
    <glyph glyph-name="florin" unicode="&#x192;" horiz-adv-x="1020" 
d="M471 850h-223v131h244l28 156q35 196 91 284q83 131 249 131q76 0 152 -32l-37 -142q-68 29 -111 29q-110 0 -162 -169q-18 -62 -43 -257h244v-131h-264l-98 -614q-50 -314 -84 -399q-88 -224 -291 -224q-78 0 -152 33l37 141q68 -29 111 -29q127 0 203 416l2 11z" />
    <glyph glyph-name="circumflex" unicode="&#x2c6;" horiz-adv-x="1024" 
d="M256 1276l172 270h168l172 -270h-98l-158 166l-158 -166h-98z" />
    <glyph glyph-name="caron" unicode="&#x2c7;" horiz-adv-x="1024" 
d="M256 1546h98l158 -166l158 166h98l-172 -270h-168z" />
    <glyph glyph-name="macron" unicode="&#xaf;" horiz-adv-x="1024" 
d="M287 1331v133h450v-133h-450z" />
    <glyph glyph-name="macron" unicode="&#x2c9;" horiz-adv-x="1024" 
d="M287 1331v133h450v-133h-450z" />
    <glyph glyph-name="breve" unicode="&#x2d8;" horiz-adv-x="1024" 
d="M258 1538h94q19 -121 160 -121t158 121h94q-23 -256 -252 -256q-231 0 -254 256z" />
    <glyph glyph-name="dotaccent" unicode="&#x2d9;" horiz-adv-x="1024" 
d="M416 1329v219h192v-219h-192z" />
    <glyph glyph-name="ring" unicode="&#x2da;" horiz-adv-x="1024" 
d="M377 1509q0 -57 39 -96t96 -39q56 0 95.5 39.5t39.5 95.5t-39.5 96t-95.5 40q-57 0 -96 -39.5t-39 -96.5zM260 1509q0 107 72.5 179.5t179.5 72.5t180.5 -72.5t73.5 -179.5t-73.5 -180.5t-180.5 -73.5t-179.5 73.5t-72.5 180.5z" />
    <glyph glyph-name="ogonek" unicode="&#x2db;" horiz-adv-x="1024" 
d="M588 0q-137 -122 -137 -221q0 -78 96 -78h69v-143h-71q-226 0 -226 168q0 125 187 274h82z" />
    <glyph glyph-name="tilde" unicode="&#x2dc;" horiz-adv-x="1024" 
d="M758 1518q-28 -201 -166 -201q-31 0 -59 10l-87 31q-11 4 -34 4q-51 0 -72 -66h-76q44 195 176 195q22 0 41 -6l107 -33q1 0 4 -1q16 -3 24 -3q56 0 68 70h74z" />
    <glyph glyph-name="hungarumlaut" unicode="&#x2dd;" horiz-adv-x="1024" 
d="M569 1276l148 348h166l-217 -348h-97zM311 1276l117 348h168l-188 -348h-97z" />
    <glyph glyph-name="Delta" unicode="&#x394;" horiz-adv-x="1370" 
d="M684 1262l-418 -1084h836zM573 1473h224l579 -1473h-1382z" />
    <glyph glyph-name="Delta" unicode="&#x2206;" horiz-adv-x="1370" 
d="M684 1262l-418 -1084h836zM573 1473h224l579 -1473h-1382z" />
    <glyph glyph-name="Omega" unicode="&#x3a9;" horiz-adv-x="1565" 
d="M1487 178v-178h-600v178q178 97 276.5 263t98.5 368q0 230 -123 376q-131 154 -357 154t-357 -155q-124 -145 -124 -375q0 -202 99.5 -368t277.5 -263v-178h-600v178h319q-303 267 -303 621q0 314 186 511q190 201 502 201q307 0 499 -198q189 -196 189 -504
q0 -199 -76 -351q-71 -143 -227 -280h320z" />
    <glyph glyph-name="Omega" unicode="&#x2126;" horiz-adv-x="1565" 
d="M1487 178v-178h-600v178q178 97 276.5 263t98.5 368q0 230 -123 376q-131 154 -357 154t-357 -155q-124 -145 -124 -375q0 -202 99.5 -368t277.5 -263v-178h-600v178h319q-303 267 -303 621q0 314 186 511q190 201 502 201q307 0 499 -198q189 -196 189 -504
q0 -199 -76 -351q-71 -143 -227 -280h320z" />
    <glyph glyph-name="mu" unicode="&#xb5;" horiz-adv-x="1151" 
d="M385 1071l-129 -600q-14 -65 -14 -133q0 -207 200 -207q153 0 237 132q55 88 95 272l115 536h178l-156 -732l-4 -20q-18 -87 -18 -112q0 -68 72 -68q18 0 32 2l-31 -143q-48 -10 -108 -10q-116 0 -149 129q-89 -131 -271 -131q-157 0 -256 116l-110 -530h-181l318 1499
h180z" />
    <glyph glyph-name="mu" unicode="&#x3bc;" horiz-adv-x="1151" 
d="M385 1071l-129 -600q-14 -65 -14 -133q0 -207 200 -207q153 0 237 132q55 88 95 272l115 536h178l-156 -732l-4 -20q-18 -87 -18 -112q0 -68 72 -68q18 0 32 2l-31 -143q-48 -10 -108 -10q-116 0 -149 129q-89 -131 -271 -131q-157 0 -256 116l-110 -530h-181l318 1499
h180z" />
    <glyph glyph-name="pi" unicode="&#x3c0;" horiz-adv-x="1206" 
d="M1159 913h-182l-105 -487q-30 -139 -30 -188q0 -107 102 -107q26 0 100 10l-30 -141q-60 -16 -111 -16q-239 0 -239 202q0 92 55 351l80 376h-326l-194 -913h-181l195 913h-41q-106 0 -123 -133h-160q28 164 99.5 227.5t236.5 63.5h889z" />
    <glyph glyph-name="endash" unicode="&#x2013;" horiz-adv-x="1024" 
d="M0 502v147h1024v-147h-1024z" />
    <glyph glyph-name="emdash" unicode="&#x2014;" horiz-adv-x="2048" 
d="M0 502v147h2048v-147h-2048z" />
    <glyph glyph-name="quoteleft" unicode="&#x2018;" horiz-adv-x="502" 
d="M342 1577v-98q-88 -17 -88 -187v-10h88v-211h-182v211q0 104 41 181q48 91 141 114z" />
    <glyph glyph-name="quoteright" unicode="&#x2019;" horiz-adv-x="502" 
d="M160 1036v97q88 17 88 188v10h-88v209h182v-211q0 -104 -41 -181q-48 -89 -141 -112z" />
    <glyph glyph-name="quotesinglbase" unicode="&#x201a;" horiz-adv-x="502" 
d="M160 -295v96q88 17 88 189v10h-88v211h182v-211q0 -104 -41 -181q-48 -91 -141 -114z" />
    <glyph glyph-name="quotedblleft" unicode="&#x201c;" horiz-adv-x="795" 
d="M342 1575v-96q-88 -17 -88 -189v-10h88v-209h-182v211q0 104 41 181q48 89 141 112zM633 1575v-96q-88 -17 -88 -189v-10h88v-209h-182v211q0 105 41 181q48 89 141 112z" />
    <glyph glyph-name="quotedblright" unicode="&#x201d;" horiz-adv-x="795" 
d="M160 1036v97q88 17 88 188v10h-88v209h182v-211q0 -104 -41 -181q-48 -89 -141 -112zM451 1036v97q88 17 88 188v10h-88v209h182v-211q0 -104 -41 -181q-48 -89 -141 -112z" />
    <glyph glyph-name="quotedblbase" unicode="&#x201e;" horiz-adv-x="795" 
d="M160 -295v96q88 17 88 189v10h-88v211h182v-211q0 -104 -41 -181q-48 -91 -141 -114zM451 -295v96q88 17 88 189v10h-88v211h182v-211q0 -104 -41 -181q-48 -91 -141 -114z" />
    <glyph glyph-name="dagger" unicode="&#x2020;" horiz-adv-x="1024" 
d="M430 -168v1124h-336v146h336v438h164v-438h334v-146h-334v-1124h-164z" />
    <glyph glyph-name="daggerdbl" unicode="&#x2021;" horiz-adv-x="1024" 
d="M430 -168v422h-326v145h326v574h-326v145h326v422h164v-422h324v-145h-324v-574h324v-145h-324v-422h-164z" />
    <glyph glyph-name="bullet" unicode="&#x2022;" horiz-adv-x="1208" 
d="M307 762q0 124 86.5 209.5t210.5 85.5q123 0 209 -86t86 -209t-87 -210t-210 -87q-124 0 -209.5 86.5t-85.5 210.5z" />
    <glyph glyph-name="ellipsis" unicode="&#x2026;" horiz-adv-x="2048" 
d="M250 0v211h182v-211h-182zM932 0v211h182v-211h-182zM1616 0v211h182v-211h-182z" />
    <glyph glyph-name="perthousand" unicode="&#x2030;" horiz-adv-x="2089" 
d="M1712 629q-92 0 -122 -97q-17 -53 -17 -174q0 -235 139 -235q141 0 141 264q0 242 -141 242zM1434 383q0 369 274 369q285 0 285 -369q0 -383 -281 -383q-278 0 -278 383zM1053 629q-93 0 -123 -97q-17 -54 -17 -174q0 -235 140 -235q141 0 141 264q0 242 -141 242z
M774 383q0 369 277 369q284 0 284 -369q0 -383 -280 -383q-281 0 -281 383zM373 1399q-92 0 -121 -97q-16 -52 -16 -174q0 -235 137 -235q141 0 141 264q0 242 -141 242zM94 1153q0 369 277 369q284 0 284 -367q0 -385 -282 -385q-279 0 -279 383zM305 -29l694 1579h117
l-692 -1579h-119z" />
    <glyph glyph-name="guilsinglleft" unicode="&#x2039;" horiz-adv-x="565" 
d="M434 186l-303 320v145l303 314v-187l-196 -200l196 -205v-187z" />
    <glyph glyph-name="guilsinglright" unicode="&#x203a;" horiz-adv-x="565" 
d="M131 965l303 -318v-147l-303 -314v187l197 200l-197 205v187z" />
    <glyph glyph-name="fraction" unicode="&#x2044;" horiz-adv-x="342" 
d="M-217 -31h-125l899 1581h125z" />
    <glyph glyph-name="franc" unicode="&#x20a3;" horiz-adv-x="1481" 
d="M137 0v1540h711v-156h-535v-495h498v-160h-498v-729h-176zM1008 0v1151h149v-188q75 215 267 215q43 0 69 -4v-172q-26 14 -63 14q-133 0 -201 -92q-61 -82 -61 -219v-705h-160z" />
    <glyph glyph-name="trademark" unicode="&#x2122;" horiz-adv-x="1706" 
d="M963 1458l151 -385l141 385h150v-538h-98v444l-166 -444h-56l-174 444v-444h-98v538h150zM694 1458v-80h-172v-458h-108v458h-172v80h452z" />
    <glyph glyph-name="partialdiff" unicode="&#x2202;" horiz-adv-x="1059" 
d="M756 621q30 174 30 325q0 260 -145 260q-50 0 -127 -58t-108 -58q-34 0 -59 21t-25 54q0 75 89 122q74 38 156 38q206 0 311 -194q83 -154 83 -379q0 -277 -111 -499q-140 -278 -391 -278q-157 0 -258 112q-97 108 -97 267q0 182 98 312q108 143 285 143q195 0 269 -188z
M707 494q0 241 -166 241q-134 0 -201 -177q-49 -128 -49 -288q0 -239 166 -239q133 0 201 176q49 129 49 287z" />
    <glyph glyph-name="product" unicode="&#x220f;" horiz-adv-x="1550" 
d="M156 1473h1237v-1866h-240v1661h-758v-1661h-239v1866z" />
    <glyph glyph-name="summation" unicode="&#x2211;" horiz-adv-x="1380" 
d="M55 1473h1258v-193h-959l672 -717l-694 -764h1007v-192h-1314v149l725 801l-695 739v177z" />
    <glyph glyph-name="minus" unicode="&#x2212;" horiz-adv-x="1706" 
d="M1452 682v-141h-1198v141h1198z" />
    <glyph glyph-name="periodcentered" horiz-adv-x="512" 
d="M125 762q0 55 37 92t92 37q56 0 93.5 -36.5t37.5 -92.5q0 -55 -38 -93t-93 -38t-92 38t-37 93z" />
    <glyph glyph-name="radical" unicode="&#x221a;" horiz-adv-x="1305" 
d="M1116 1661h189v-96h-115l-594 -1606h-66l-319 883l-125 -45l-25 80l283 98l256 -709z" />
    <glyph glyph-name="infinity" unicode="&#x221e;" horiz-adv-x="1706" 
d="M915 559q99 -178 267 -178q103 0 166 68t63 172q0 96 -54 163q-59 72 -153 72q-99 0 -181 -105q-48 -62 -108 -192zM793 666q-98 176 -267 176q-104 0 -166.5 -66.5t-62.5 -171.5q0 -96 54 -163q59 -72 153 -72q154 0 289 297zM864 483q-136 -262 -321 -262
q-148 0 -239 124q-83 112 -83 265q0 157 70 265q82 126 231 126q182 0 320 -264q133 269 323 269q147 0 239 -126q83 -113 83 -266q0 -157 -70 -264q-82 -125 -231 -125q-175 0 -322 258z" />
    <glyph glyph-name="integral" unicode="&#x222b;" horiz-adv-x="1067" 
d="M311 -262q106 0 120 688l3 165q9 388 55 577q93 382 349 382q73 0 124 -37q56 -41 56 -112q0 -117 -119 -117q-84 0 -110 73l-10 50q-8 37 -21 37q-107 0 -121 -619l-8 -303q-13 -365 -61 -543q-94 -350 -341 -350q-73 0 -124 37q-56 41 -56 111q0 119 129 119
q65 0 96 -57q2 -4 14 -59q9 -42 25 -42z" />
    <glyph glyph-name="approxequal" unicode="&#x2248;" horiz-adv-x="1706" 
d="M1530 430q-203 -141 -389 -141q-97 0 -287.5 67.5t-290.5 67.5q-157 0 -385 -158v156q215 145 387 145q105 0 300 -68.5t278 -68.5q165 0 387 156v-156zM1530 799q-204 -142 -389 -142q-97 0 -287.5 68t-290.5 68q-155 0 -385 -158v156q211 143 387 143q105 0 300 -67.5
t278 -67.5q164 0 387 155v-155z" />
    <glyph glyph-name="approxequal" unicode="&#x22f2;" horiz-adv-x="1706" 
d="M1530 430q-203 -141 -389 -141q-97 0 -287.5 67.5t-290.5 67.5q-157 0 -385 -158v156q215 145 387 145q105 0 300 -68.5t278 -68.5q165 0 387 156v-156zM1530 799q-204 -142 -389 -142q-97 0 -287.5 68t-290.5 68q-155 0 -385 -158v156q211 143 387 143q105 0 300 -67.5
t278 -67.5q164 0 387 155v-155z" />
    <glyph glyph-name="notequal" unicode="&#x2260;" horiz-adv-x="1706" 
d="M1313 1112l-187 -235h326v-136h-416l-205 -262h621v-135h-709l-249 -317l-105 84l184 233h-319v135h408l204 262h-612v136h702l252 317z" />
    <glyph glyph-name="lessequal" unicode="&#x2264;" horiz-adv-x="1706" 
d="M1446 162v-139h-1184v139h1184zM1444 1059l-936 -309l936 -306v-149l-1182 395v121l1182 395v-147z" />
    <glyph glyph-name="greaterequal" unicode="&#x2265;" horiz-adv-x="1706" 
d="M1446 162v-139h-1184v139h1184zM1446 811v-121l-1184 -395v149l938 306l-938 309v147z" />
    <glyph glyph-name="SF370000" unicode="&#x255f;" horiz-adv-x="1024" 
d="M391 1274l170 272h178l-247 -272h-101z" />
    <glyph glyph-name="SF420000" unicode="&#x2560;" horiz-adv-x="1024" 
d="M633 1276h-101l-247 270h178z" />
    <glyph glyph-name="SF190000" unicode="&#x2561;" horiz-adv-x="1018" 
d="M430 388q-2 34 -2 77q0 121 41 210q33 72 123 179q7 9 16 19q131 155 131 311q0 104 -48 169q-54 74 -154 74q-218 0 -218 -305v-30h-165v26q0 459 381 459q180 0 282.5 -108t102.5 -289q0 -217 -180 -397l-5 -5q-149 -149 -149 -329v-31q1 -21 1 -31zM422 0v211h170
v-211h-170z" />
    <glyph glyph-name="glyph257" horiz-adv-x="512" 
 />
    <glyph glyph-name="lozenge" unicode="&#x25ca;" horiz-adv-x="1012" 
d="M506 1409l-385 -817l385 -825l385 825zM506 1653l500 -1061l-500 -1069l-500 1069z" />
    <glyph glyph-name="circle" unicode="&#x25cb;" horiz-adv-x="1126" 
d="M356 600h410l-205 807zM31 0l420 1540h219l426 -1540h-174l-117 444h-488l-112 -444h-174z" />
    <glyph glyph-name="H18533" unicode="&#x25cf;" horiz-adv-x="1004" 
d="M137 0v1540h764v-160h-594v-495h555v-156h-555v-567h600v-162h-770z" />
    <glyph glyph-name="invbullet" unicode="&#x25d8;" horiz-adv-x="451" 
d="M137 0v1540h176v-1540h-176z" />
    <glyph glyph-name="invcircle" unicode="&#x25d9;" horiz-adv-x="1200" 
d="M285 770q0 -293 34 -415q67 -240 281 -240q217 0 283 239q32 117 32 416t-32 415q-66 238 -283 238q-214 0 -281 -239q-34 -121 -34 -414zM106 770q0 358 75 537q114 270 419 270q307 0 420 -269q74 -176 74 -538q0 -363 -74 -538q-112 -269 -420 -269q-303 0 -418 271
q-76 180 -76 536z" />
    <glyph glyph-name="openbullet" unicode="&#x25e6;" horiz-adv-x="1180" 
d="M139 1540h172v-1036q0 -188 43 -270q61 -115 228 -115q292 0 292 385v1036h168v-1005q0 -152 -11 -220q-20 -120 -85 -198q-128 -152 -366 -152q-251 0 -369 160q-51 69 -65 198q-7 60 -7 212v1005z" />
    <glyph glyph-name="glyph264" horiz-adv-x="1028" 
d="M424 0v596l-455 944h205l340 -758l356 758h187l-459 -944v-596h-174z" />
    <glyph glyph-name="smileface" unicode="&#x263a;" 
d="M616 621q-38 -42 -168 -89q-6 -2 -16 -6q-103 -36 -139 -80q-41 -50 -41 -153q0 -180 145 -180q110 0 169 88q50 76 50 192v228zM870 -2q-60 -10 -94 -10q-143 0 -149 165q-77 -182 -273 -182q-135 0 -204 96q-60 83 -60 224q0 169 91 253q67 62 252 124l3 1
q176 59 176 138v106q0 136 -170 136t-170 -183v-20h-151q3 175 84 256.5t256 81.5q163 0 239 -74t76 -236v-673q0 -84 68 -84q7 0 22 3q2 0 4 1v-123z" />
    <glyph glyph-name="invsmileface" unicode="&#x263b;" horiz-adv-x="901" 
d="M256 700h391v31q0 320 -186 320q-205 0 -205 -351zM649 389h158q-4 -420 -354 -420q-363 0 -363 594q0 265 57 407q86 214 310 214q354 0 354 -514q0 -66 -2 -100l-553 -1v-51q0 -414 209 -414q98 0 146 95q38 74 38 182v8z" />
    <glyph glyph-name="sun" unicode="&#x263c;" horiz-adv-x="408" 
d="M121 1331v209h166v-209h-166zM121 0v1151h166v-1151h-166z" />
    <glyph glyph-name="female" unicode="&#x2640;" horiz-adv-x="408" 
d="M121 0v1151h166v-1151h-166z" />
    <glyph glyph-name="male" unicode="&#x2642;" horiz-adv-x="989" 
d="M90 575q0 609 404 609q238 0 335 -198q70 -143 70 -411t-70 -410q-96 -196 -335 -196q-240 0 -335 195q-69 141 -69 411zM262 575q0 -205 27 -297q51 -172 205 -172q152 0 203 173q28 95 28 296q0 202 -28 296q-51 171 -203 171q-154 0 -204 -171q-28 -93 -28 -296z" />
    <glyph glyph-name="spade" unicode="&#x2660;" horiz-adv-x="963" 
d="M682 0v150q-71 -181 -287 -181q-148 0 -214 76q-62 71 -62 221v885h168v-889q0 -149 135 -149q122 0 186 78q60 72 60 196v764h163v-1151h-149z" />
    <glyph glyph-name="club" unicode="&#x2663;" horiz-adv-x="909" 
d="M78 -369v146q48 -21 100 -21q85 0 135 79q27 43 60 155l-338 1161h174l246 -928l254 928h165l-354 -1202q-51 -172 -106 -239q-78 -97 -230 -97q-44 0 -106 18z" />
    <glyph glyph-name="fi" unicode="&#xf001;" horiz-adv-x="922" 
d="M166 0v1018h-164v133h164v156q0 241 272 241q38 0 66 -8l-1 -143q-40 8 -63 8q-61 0 -84.5 -25t-23.5 -86v-143h172v-133h-172v-1018h-166zM641 0v1151h166v-1151h-166zM641 1331v209h166v-209h-166z" />
    <glyph glyph-name="fl" unicode="&#xf002;" horiz-adv-x="922" 
d="M166 0v1018h-164v133h164v156q0 241 272 241q38 0 66 -8l-1 -143q-40 8 -63 8q-62 0 -85 -25.5t-23 -89.5v-139h172v-133h-172v-1018h-166zM641 0v1540h166v-1540h-166z" />
    <glyph glyph-name="glyph274" horiz-adv-x="510" 
 />
    <glyph glyph-name="SF200000" unicode="&#x2562;" horiz-adv-x="510" 
 />
    <glyph glyph-name="nonbreakingspace" unicode="&#xa0;" horiz-adv-x="1020" 
 />
    <glyph glyph-name="apple" unicode="&#xf000;" horiz-adv-x="1618" 
d="M836 1216q-2 12 -2 37q0 132 101 237q96 99 230 124q2 -20 2 -62q0 -117 -94 -226q-97 -112 -213 -112h-8q-3 0 -8 1t-8 1zM1505 403q-90 -196 -152 -279q-118 -159 -257 -159q-46 0 -130 33t-124 33q-44 0 -130 -33t-128 -33q-129 0 -258 176q-213 291 -213 596
q0 211 117 348q124 146 331 146q57 0 149.5 -34t129.5 -34q32 0 124.5 35t149.5 35q216 0 359 -164q-201 -128 -201 -328q0 -233 233 -338z" />
    <glyph glyph-name="sfthyphen" unicode="&#xad;" horiz-adv-x="676" 
d="M90 485v181h494v-181h-494z" />
    <glyph glyph-name="ch270" unicode="&#xb7;" horiz-adv-x="512" 
d="M125 762q0 55 37 92t92 37q56 0 93.5 -36.5t37.5 -92.5q0 -55 -38 -93t-93 -38t-92 38t-37 93z" />
    <glyph glyph-name="ch270" unicode="&#x2219;" horiz-adv-x="512" 
d="M125 762q0 55 37 92t92 37q56 0 93.5 -36.5t37.5 -92.5q0 -55 -38 -93t-93 -38t-92 38t-37 93z" />
    <glyph glyph-name="euro" horiz-adv-x="1020" 
d="M739 700l-26 -98h-358q5 -215 33 -306q54 -177 212 -177q201 0 211 352h168q-13 -233 -87 -351q-95 -151 -308 -151q-237 0 -333 212q-63 139 -75 421h-143l24 98h117q0 110 2 170h-135l25 99h114q16 274 85 400q99 179 339 179q342 0 365 -415h-166q-20 266 -201 266
q-151 0 -207 -151q-31 -84 -39 -279h449l-25 -99h-428q0 -14 -1 -42t-1 -42t1 -43t1 -43h387z" />
    <glyph glyph-name="glyph261" horiz-adv-x="1024" 
d="M523 1249v20q0 49 41 98q2 3 4 5q34 39 34 79q0 61 -52 61q-55 0 -55 -77v-7h-63v6q0 63 23 97q38 58 101 58q76 0 118 -63q23 -33 23 -79q-1 -48 -51 -98l-1 -1q-50 -50 -50 -83v-16h-72z" />
    <glyph glyph-name="glyph262" 
d="M217 1276l172 270h168l172 -270h-98l-158 166l-158 -166h-98zM206 1557l170 272h178l-247 -272h-101z" />
    <glyph glyph-name="glyph263" 
d="M217 1276l172 270h168l172 -270h-98l-158 166l-158 -166h-98zM741 1557h-101l-247 270h178z" />
    <glyph glyph-name="glyph264" 
d="M217 1276l172 270h168l172 -270h-98l-158 166l-158 -166h-98zM623 1515v20q0 49 41 98q2 3 4 5q34 39 34 79q0 61 -52 61q-55 0 -55 -77v-7h-63v6q0 63 23 97q38 58 101 58q76 0 118 -63q23 -33 23 -79q-1 -48 -51 -98l-1 -1q-50 -50 -50 -83v-16h-72z" />
    <glyph glyph-name="glyph265" 
d="M217 1276l172 270h168l172 -270h-98l-158 166l-158 -166h-98zM770 1820q-28 -201 -166 -201q-31 0 -59 10l-87 31q-11 4 -34 4q-51 0 -72 -66h-76q44 195 176 195q22 0 41 -6l107 -33q1 0 4 -1q16 -3 24 -3q56 0 68 70h74z" />
    <glyph glyph-name="glyph266" 
d="M220 1538h94q19 -121 160 -121t158 121h94q-23 -256 -252 -256q-231 0 -254 256zM369 1557l170 272h178l-247 -272h-101z" />
    <glyph glyph-name="glyph267" 
d="M220 1538h94q19 -121 160 -121t158 121h94q-23 -256 -252 -256q-231 0 -254 256zM585 1557h-101l-247 270h178z" />
    <glyph glyph-name="glyph268" 
d="M220 1538h94q19 -121 160 -121t158 121h94q-23 -256 -252 -256q-231 0 -254 256zM438 1515v20q0 49 41 98q2 3 4 5q34 39 34 79q0 61 -52 61q-55 0 -55 -77v-7h-63v6q0 63 23 97q38 58 101 58q76 0 118 -63q23 -33 23 -79q-1 -48 -51 -98l-1 -1q-50 -50 -50 -83v-16h-72z
" />
    <glyph glyph-name="glyph269" 
d="M220 1538h94q19 -121 160 -121t158 121h94q-23 -256 -252 -256q-231 0 -254 256zM770 1820q-28 -201 -166 -201q-31 0 -59 10l-87 31q-11 4 -34 4q-51 0 -72 -66h-76q44 195 176 195q22 0 41 -6l107 -33q1 0 4 -1q16 -3 24 -3q56 0 68 70h74z" />
    <glyph glyph-name="u20AB" unicode="&#x20ab;" horiz-adv-x="576" 
d="M421 486v99q-14 -54 -66 -86q-47 -29 -106 -29q-250 0 -250 435q0 153 47 253q62 135 197 135q55 0 102 -24q55 -28 68 -76v170h-170v68h170v110h111v-110h110v-68h-110v-877h-103zM421 886q0 135 -17 195q-33 113 -133 113q-151 0 -151 -300q0 -326 147 -326
q101 0 135 118q19 65 19 200zM500 398v-62h-477v62h477z" />
    <glyph glyph-name="glyph271" unicode="&#x102;" horiz-adv-x="1126" 
d="M356 600h410l-205 807zM31 0l420 1540h219l426 -1540h-174l-117 444h-488l-112 -444h-174zM310 1873h94q19 -121 160 -121t158 121h94q-23 -256 -252 -256q-231 0 -254 256z" />
    <glyph glyph-name="glyph272" unicode="&#x103;" 
d="M616 621q-38 -42 -168 -89q-6 -2 -16 -6q-103 -36 -139 -80q-41 -50 -41 -153q0 -180 145 -180q110 0 169 88q50 76 50 192v228zM870 -2q-60 -10 -94 -10q-143 0 -149 165q-77 -182 -273 -182q-135 0 -204 96q-60 83 -60 224q0 169 91 253q67 62 252 124l3 1
q176 59 176 138v106q0 136 -170 136t-170 -183v-20h-151q3 175 84 256.5t256 81.5q163 0 239 -74t76 -236v-673q0 -84 68 -84q7 0 22 3q2 0 4 1v-123zM220 1538h94q19 -121 160 -121t158 121h94q-23 -256 -252 -256q-231 0 -254 256z" />
    <glyph glyph-name="glyph273" unicode="&#x128;" horiz-adv-x="451" 
d="M137 0v1540h176v-1540h-176zM497 1930q-28 -201 -166 -201q-31 0 -59 10l-87 31q-11 4 -34 4q-51 0 -72 -66h-76q44 195 176 195q22 0 41 -6l107 -33q1 0 4 -1q16 -3 24 -3q56 0 68 70h74z" />
    <glyph glyph-name="glyph274" unicode="&#x129;" horiz-adv-x="408" 
d="M121 0v1151h166v-1151h-166zM497 1518q-28 -201 -166 -201q-31 0 -59 10l-87 31q-11 4 -34 4q-51 0 -72 -66h-76q44 195 176 195q22 0 41 -6l107 -33q1 0 4 -1q16 -3 24 -3q56 0 68 70h74z" />
    <glyph glyph-name="glyph275" unicode="&#x168;" horiz-adv-x="1180" 
d="M139 1540h172v-1036q0 -188 43 -270q61 -115 228 -115q292 0 292 385v1036h168v-1005q0 -152 -11 -220q-20 -120 -85 -198q-128 -152 -366 -152q-251 0 -369 160q-51 69 -65 198q-7 60 -7 212v1005zM858 1930q-28 -201 -166 -201q-31 0 -59 10l-87 31q-11 4 -34 4
q-51 0 -72 -66h-76q44 195 176 195q22 0 41 -6l107 -33q1 0 4 -1q16 -3 24 -3q56 0 68 70h74z" />
    <glyph glyph-name="glyph276" unicode="&#x169;" horiz-adv-x="963" 
d="M682 0v150q-71 -181 -287 -181q-148 0 -214 76q-62 71 -62 221v885h168v-889q0 -149 135 -149q122 0 186 78q60 72 60 196v764h163v-1151h-149zM748 1518q-28 -201 -166 -201q-31 0 -59 10l-87 31q-11 4 -34 4q-51 0 -72 -66h-76q44 195 176 195q22 0 41 -6l107 -33
q1 0 4 -1q16 -3 24 -3q56 0 68 70h74z" />
    <glyph glyph-name="glyph277" unicode="&#x1a0;" horiz-adv-x="1200" 
d="M285 770q0 -293 34 -415q67 -240 281 -240q217 0 283 239q32 117 32 416t-32 415q-66 238 -283 238q-214 0 -281 -239q-34 -121 -34 -414zM1035 1264q42 50 42 161v10h-88v209h182v-211q0 -184 -112 -262q35 -163 35 -401q0 -363 -74 -538q-112 -269 -420 -269
q-303 0 -418 271q-76 180 -76 536q0 358 75 537q114 270 419 270q263 0 379 -186q32 -54 56 -127z" />
    <glyph glyph-name="glyph278" unicode="&#x1a1;" horiz-adv-x="989" 
d="M262 575q0 -205 27 -297q51 -172 205 -172q152 0 203 173q28 95 28 296q0 202 -28 296q-51 171 -203 171q-154 0 -204 -171q-28 -93 -28 -296zM848 940q41 50 41 158v10h-88v209h182v-211q0 -180 -109 -259q25 -115 25 -272q0 -268 -70 -410q-96 -196 -335 -196
q-240 0 -335 195q-69 141 -69 411q0 609 404 609q265 0 354 -244z" />
    <glyph glyph-name="glyph279" unicode="&#x1af;" horiz-adv-x="1180" 
d="M989 1540v104h182v-211q0 -200 -129 -273v-625q0 -152 -11 -220q-20 -120 -85 -198q-128 -152 -366 -152q-251 0 -369 160q-51 69 -65 198q-7 60 -7 212v1005h172v-1036q0 -188 43 -270q61 -115 228 -115q292 0 292 385v1036h115zM1042 1274q35 51 35 151v10h-35v-161z
" />
    <glyph glyph-name="glyph280" unicode="&#x1b0;" horiz-adv-x="963" 
d="M802 1151v166h182v-211q0 -222 -153 -283v-823h-149v150q-71 -181 -287 -181q-148 0 -214 76q-62 71 -62 221v885h168v-889q0 -149 135 -149q122 0 186 78q60 72 60 196v764h134zM831 923q59 41 59 175v10h-59v-185z" />
    <glyph glyph-name="glyph281" unicode="&#x1ea0;" horiz-adv-x="1126" 
d="M356 600h410l-205 807zM31 0l420 1540h219l426 -1540h-174l-117 444h-488l-112 -444h-174zM473 -358v211h182v-211h-182z" />
    <glyph glyph-name="glyph282" unicode="&#x1ea1;" 
d="M616 621q-38 -42 -168 -89q-6 -2 -16 -6q-103 -36 -139 -80q-41 -50 -41 -153q0 -180 145 -180q110 0 169 88q50 76 50 192v228zM870 -2q-60 -10 -94 -10q-143 0 -149 165q-77 -182 -273 -182q-135 0 -204 96q-60 83 -60 224q0 169 91 253q67 62 252 124l3 1
q176 59 176 138v106q0 136 -170 136t-170 -183v-20h-151q3 175 84 256.5t256 81.5q163 0 239 -74t76 -236v-673q0 -84 68 -84q7 0 22 3q2 0 4 1v-123zM384 -358v211h182v-211h-182z" />
    <glyph glyph-name="glyph283" unicode="&#x1ea2;" horiz-adv-x="1126" 
d="M356 600h410l-205 807zM31 0l420 1540h219l426 -1540h-174l-117 444h-488l-112 -444h-174zM530 1661v20q0 49 41 98q2 3 4 5q34 39 34 79q0 61 -52 61q-55 0 -55 -77v-7h-63v6q0 63 23 97q38 58 101 58q76 0 118 -63q23 -33 23 -79q-1 -48 -51 -98l-1 -1q-50 -50 -50 -83
v-16h-72z" />
    <glyph glyph-name="glyph284" unicode="&#x1ea3;" 
d="M616 621q-38 -42 -168 -89q-6 -2 -16 -6q-103 -36 -139 -80q-41 -50 -41 -153q0 -180 145 -180q110 0 169 88q50 76 50 192v228zM870 -2q-60 -10 -94 -10q-143 0 -149 165q-77 -182 -273 -182q-135 0 -204 96q-60 83 -60 224q0 169 91 253q67 62 252 124l3 1
q176 59 176 138v106q0 136 -170 136t-170 -183v-20h-151q3 175 84 256.5t256 81.5q163 0 239 -74t76 -236v-673q0 -84 68 -84q7 0 22 3q2 0 4 1v-123zM422 1249v20q0 49 41 98q2 3 4 5q34 39 34 79q0 61 -52 61q-55 0 -55 -77v-7h-63v6q0 63 23 97q38 58 101 58
q76 0 118 -63q23 -33 23 -79q-1 -48 -51 -98l-1 -1q-50 -50 -50 -83v-16h-72z" />
    <glyph glyph-name="glyph285" unicode="&#x1ea4;" horiz-adv-x="1126" 
d="M356 600h410l-205 807zM31 0l420 1540h219l426 -1540h-174l-117 444h-488l-112 -444h-174zM307 1610l172 270h168l172 -270h-98l-158 166l-158 -166h-98zM296 1890l170 272h178l-247 -272h-101z" />
    <glyph glyph-name="glyph286" unicode="&#x1ea5;" 
d="M616 621q-38 -42 -168 -89q-6 -2 -16 -6q-103 -36 -139 -80q-41 -50 -41 -153q0 -180 145 -180q110 0 169 88q50 76 50 192v228zM870 -2q-60 -10 -94 -10q-143 0 -149 165q-77 -182 -273 -182q-135 0 -204 96q-60 83 -60 224q0 169 91 253q67 62 252 124l3 1
q176 59 176 138v106q0 136 -170 136t-170 -183v-20h-151q3 175 84 256.5t256 81.5q163 0 239 -74t76 -236v-673q0 -84 68 -84q7 0 22 3q2 0 4 1v-123zM217 1276l172 270h168l172 -270h-98l-158 166l-158 -166h-98zM206 1557l170 272h178l-247 -272h-101z" />
    <glyph glyph-name="glyph287" unicode="&#x1ea6;" horiz-adv-x="1126" 
d="M356 600h410l-205 807zM31 0l420 1540h219l426 -1540h-174l-117 444h-488l-112 -444h-174zM307 1610l172 270h168l172 -270h-98l-158 166l-158 -166h-98zM831 1890h-101l-247 270h178z" />
    <glyph glyph-name="glyph288" unicode="&#x1ea7;" 
d="M616 621q-38 -42 -168 -89q-6 -2 -16 -6q-103 -36 -139 -80q-41 -50 -41 -153q0 -180 145 -180q110 0 169 88q50 76 50 192v228zM870 -2q-60 -10 -94 -10q-143 0 -149 165q-77 -182 -273 -182q-135 0 -204 96q-60 83 -60 224q0 169 91 253q67 62 252 124l3 1
q176 59 176 138v106q0 136 -170 136t-170 -183v-20h-151q3 175 84 256.5t256 81.5q163 0 239 -74t76 -236v-673q0 -84 68 -84q7 0 22 3q2 0 4 1v-123zM217 1276l172 270h168l172 -270h-98l-158 166l-158 -166h-98zM741 1557h-101l-247 270h178z" />
    <glyph glyph-name="glyph289" unicode="&#x1ea8;" horiz-adv-x="1126" 
d="M356 600h410l-205 807zM31 0l420 1540h219l426 -1540h-174l-117 444h-488l-112 -444h-174zM307 1610l172 270h168l172 -270h-98l-158 166l-158 -166h-98zM713 1848v20q0 49 41 98q2 3 4 5q34 39 34 79q0 61 -52 61q-55 0 -55 -77v-7h-63v6q0 63 23 97q38 58 101 58
q76 0 118 -63q23 -33 23 -79q-1 -48 -51 -98l-1 -1q-50 -50 -50 -83v-16h-72z" />
    <glyph glyph-name="glyph290" unicode="&#x1ea9;" 
d="M616 621q-38 -42 -168 -89q-6 -2 -16 -6q-103 -36 -139 -80q-41 -50 -41 -153q0 -180 145 -180q110 0 169 88q50 76 50 192v228zM870 -2q-60 -10 -94 -10q-143 0 -149 165q-77 -182 -273 -182q-135 0 -204 96q-60 83 -60 224q0 169 91 253q67 62 252 124l3 1
q176 59 176 138v106q0 136 -170 136t-170 -183v-20h-151q3 175 84 256.5t256 81.5q163 0 239 -74t76 -236v-673q0 -84 68 -84q7 0 22 3q2 0 4 1v-123zM217 1276l172 270h168l172 -270h-98l-158 166l-158 -166h-98zM623 1515v20q0 49 41 98q2 3 4 5q34 39 34 79q0 61 -52 61
q-55 0 -55 -77v-7h-63v6q0 63 23 97q38 58 101 58q76 0 118 -63q23 -33 23 -79q-1 -48 -51 -98l-1 -1q-50 -50 -50 -83v-16h-72z" />
    <glyph glyph-name="glyph291" unicode="&#x1eaa;" horiz-adv-x="1126" 
d="M356 600h410l-205 807zM31 0l420 1540h219l426 -1540h-174l-117 444h-488l-112 -444h-174zM307 1610l172 270h168l172 -270h-98l-158 166l-158 -166h-98zM860 2154q-28 -201 -166 -201q-31 0 -59 10l-87 31q-11 4 -34 4q-51 0 -72 -66h-76q44 195 176 195q22 0 41 -6
l107 -33q1 0 4 -1q16 -3 24 -3q56 0 68 70h74z" />
    <glyph glyph-name="glyph292" unicode="&#x1eab;" 
d="M616 621q-38 -42 -168 -89q-6 -2 -16 -6q-103 -36 -139 -80q-41 -50 -41 -153q0 -180 145 -180q110 0 169 88q50 76 50 192v228zM870 -2q-60 -10 -94 -10q-143 0 -149 165q-77 -182 -273 -182q-135 0 -204 96q-60 83 -60 224q0 169 91 253q67 62 252 124l3 1
q176 59 176 138v106q0 136 -170 136t-170 -183v-20h-151q3 175 84 256.5t256 81.5q163 0 239 -74t76 -236v-673q0 -84 68 -84q7 0 22 3q2 0 4 1v-123zM217 1276l172 270h168l172 -270h-98l-158 166l-158 -166h-98zM770 1820q-28 -201 -166 -201q-31 0 -59 10l-87 31
q-11 4 -34 4q-51 0 -72 -66h-76q44 195 176 195q22 0 41 -6l107 -33q1 0 4 -1q16 -3 24 -3q56 0 68 70h74z" />
    <glyph glyph-name="glyph293" unicode="&#x1eac;" horiz-adv-x="1126" 
d="M356 600h410l-205 807zM31 0l420 1540h219l426 -1540h-174l-117 444h-488l-112 -444h-174zM307 1610l172 270h168l172 -270h-98l-158 166l-158 -166h-98zM473 -358v211h182v-211h-182z" />
    <glyph glyph-name="glyph294" unicode="&#x1ead;" 
d="M616 621q-38 -42 -168 -89q-6 -2 -16 -6q-103 -36 -139 -80q-41 -50 -41 -153q0 -180 145 -180q110 0 169 88q50 76 50 192v228zM870 -2q-60 -10 -94 -10q-143 0 -149 165q-77 -182 -273 -182q-135 0 -204 96q-60 83 -60 224q0 169 91 253q67 62 252 124l3 1
q176 59 176 138v106q0 136 -170 136t-170 -183v-20h-151q3 175 84 256.5t256 81.5q163 0 239 -74t76 -236v-673q0 -84 68 -84q7 0 22 3q2 0 4 1v-123zM217 1276l172 270h168l172 -270h-98l-158 166l-158 -166h-98zM384 -358v211h182v-211h-182z" />
    <glyph glyph-name="glyph295" unicode="&#x1eae;" horiz-adv-x="1126" 
d="M356 600h410l-205 807zM31 0l420 1540h219l426 -1540h-174l-117 444h-488l-112 -444h-174zM310 1873h94q19 -121 160 -121t158 121h94q-23 -256 -252 -256q-231 0 -254 256zM458 1891l170 272h178l-247 -272h-101z" />
    <glyph glyph-name="glyph296" unicode="&#x1eaf;" 
d="M616 621q-38 -42 -168 -89q-6 -2 -16 -6q-103 -36 -139 -80q-41 -50 -41 -153q0 -180 145 -180q110 0 169 88q50 76 50 192v228zM870 -2q-60 -10 -94 -10q-143 0 -149 165q-77 -182 -273 -182q-135 0 -204 96q-60 83 -60 224q0 169 91 253q67 62 252 124l3 1
q176 59 176 138v106q0 136 -170 136t-170 -183v-20h-151q3 175 84 256.5t256 81.5q163 0 239 -74t76 -236v-673q0 -84 68 -84q7 0 22 3q2 0 4 1v-123zM220 1538h94q19 -121 160 -121t158 121h94q-23 -256 -252 -256q-231 0 -254 256zM369 1557l170 272h178l-247 -272h-101z
" />
    <glyph glyph-name="glyph297" unicode="&#x1eb0;" horiz-adv-x="1126" 
d="M356 600h410l-205 807zM31 0l420 1540h219l426 -1540h-174l-117 444h-488l-112 -444h-174zM310 1873h94q19 -121 160 -121t158 121h94q-23 -256 -252 -256q-231 0 -254 256zM674 1890h-101l-247 270h178z" />
    <glyph glyph-name="glyph298" unicode="&#x1eb1;" 
d="M616 621q-38 -42 -168 -89q-6 -2 -16 -6q-103 -36 -139 -80q-41 -50 -41 -153q0 -180 145 -180q110 0 169 88q50 76 50 192v228zM870 -2q-60 -10 -94 -10q-143 0 -149 165q-77 -182 -273 -182q-135 0 -204 96q-60 83 -60 224q0 169 91 253q67 62 252 124l3 1
q176 59 176 138v106q0 136 -170 136t-170 -183v-20h-151q3 175 84 256.5t256 81.5q163 0 239 -74t76 -236v-673q0 -84 68 -84q7 0 22 3q2 0 4 1v-123zM220 1538h94q19 -121 160 -121t158 121h94q-23 -256 -252 -256q-231 0 -254 256zM585 1557h-101l-247 270h178z" />
    <glyph glyph-name="glyph299" unicode="&#x1eb2;" horiz-adv-x="1126" 
d="M356 600h410l-205 807zM31 0l420 1540h219l426 -1540h-174l-117 444h-488l-112 -444h-174zM310 1873h94q19 -121 160 -121t158 121h94q-23 -256 -252 -256q-231 0 -254 256zM527 1848v20q0 49 41 98q2 3 4 5q34 39 34 79q0 61 -52 61q-55 0 -55 -77v-7h-63v6q0 63 23 97
q38 58 101 58q76 0 118 -63q23 -33 23 -79q-1 -48 -51 -98l-1 -1q-50 -50 -50 -83v-16h-72z" />
    <glyph glyph-name="glyph300" unicode="&#x1eb3;" 
d="M616 621q-38 -42 -168 -89q-6 -2 -16 -6q-103 -36 -139 -80q-41 -50 -41 -153q0 -180 145 -180q110 0 169 88q50 76 50 192v228zM870 -2q-60 -10 -94 -10q-143 0 -149 165q-77 -182 -273 -182q-135 0 -204 96q-60 83 -60 224q0 169 91 253q67 62 252 124l3 1
q176 59 176 138v106q0 136 -170 136t-170 -183v-20h-151q3 175 84 256.5t256 81.5q163 0 239 -74t76 -236v-673q0 -84 68 -84q7 0 22 3q2 0 4 1v-123zM220 1538h94q19 -121 160 -121t158 121h94q-23 -256 -252 -256q-231 0 -254 256zM438 1515v20q0 49 41 98q2 3 4 5
q34 39 34 79q0 61 -52 61q-55 0 -55 -77v-7h-63v6q0 63 23 97q38 58 101 58q76 0 118 -63q23 -33 23 -79q-1 -48 -51 -98l-1 -1q-50 -50 -50 -83v-16h-72z" />
    <glyph glyph-name="glyph301" unicode="&#x1eb4;" horiz-adv-x="1126" 
d="M356 600h410l-205 807zM31 0l420 1540h219l426 -1540h-174l-117 444h-488l-112 -444h-174zM310 1873h94q19 -121 160 -121t158 121h94q-23 -256 -252 -256q-231 0 -254 256zM860 2154q-28 -201 -166 -201q-31 0 -59 10l-87 31q-11 4 -34 4q-51 0 -72 -66h-76
q44 195 176 195q22 0 41 -6l107 -33q1 0 4 -1q16 -3 24 -3q56 0 68 70h74z" />
    <glyph glyph-name="glyph302" unicode="&#x1eb5;" 
d="M616 621q-38 -42 -168 -89q-6 -2 -16 -6q-103 -36 -139 -80q-41 -50 -41 -153q0 -180 145 -180q110 0 169 88q50 76 50 192v228zM870 -2q-60 -10 -94 -10q-143 0 -149 165q-77 -182 -273 -182q-135 0 -204 96q-60 83 -60 224q0 169 91 253q67 62 252 124l3 1
q176 59 176 138v106q0 136 -170 136t-170 -183v-20h-151q3 175 84 256.5t256 81.5q163 0 239 -74t76 -236v-673q0 -84 68 -84q7 0 22 3q2 0 4 1v-123zM220 1538h94q19 -121 160 -121t158 121h94q-23 -256 -252 -256q-231 0 -254 256zM770 1820q-28 -201 -166 -201
q-31 0 -59 10l-87 31q-11 4 -34 4q-51 0 -72 -66h-76q44 195 176 195q22 0 41 -6l107 -33q1 0 4 -1q16 -3 24 -3q56 0 68 70h74z" />
    <glyph glyph-name="glyph303" unicode="&#x1eb6;" horiz-adv-x="1126" 
d="M356 600h410l-205 807zM31 0l420 1540h219l426 -1540h-174l-117 444h-488l-112 -444h-174zM310 1873h94q19 -121 160 -121t158 121h94q-23 -256 -252 -256q-231 0 -254 256zM473 -358v211h182v-211h-182z" />
    <glyph glyph-name="glyph304" unicode="&#x1eb7;" 
d="M616 621q-38 -42 -168 -89q-6 -2 -16 -6q-103 -36 -139 -80q-41 -50 -41 -153q0 -180 145 -180q110 0 169 88q50 76 50 192v228zM870 -2q-60 -10 -94 -10q-143 0 -149 165q-77 -182 -273 -182q-135 0 -204 96q-60 83 -60 224q0 169 91 253q67 62 252 124l3 1
q176 59 176 138v106q0 136 -170 136t-170 -183v-20h-151q3 175 84 256.5t256 81.5q163 0 239 -74t76 -236v-673q0 -84 68 -84q7 0 22 3q2 0 4 1v-123zM220 1538h94q19 -121 160 -121t158 121h94q-23 -256 -252 -256q-231 0 -254 256zM384 -358v211h182v-211h-182z" />
    <glyph glyph-name="glyph305" unicode="&#x1eb8;" horiz-adv-x="1004" 
d="M137 0v1540h764v-160h-594v-495h555v-156h-555v-567h600v-162h-770zM447 -358v211h182v-211h-182z" />
    <glyph glyph-name="glyph306" unicode="&#x1eb9;" horiz-adv-x="901" 
d="M256 700h391v31q0 320 -186 320q-205 0 -205 -351zM649 389h158q-4 -420 -354 -420q-363 0 -363 594q0 265 57 407q86 214 310 214q354 0 354 -514q0 -66 -2 -100l-553 -1v-51q0 -414 209 -414q98 0 146 95q38 74 38 182v8zM372 -358v211h182v-211h-182z" />
    <glyph glyph-name="glyph307" unicode="&#x1eba;" horiz-adv-x="1004" 
d="M137 0v1540h764v-160h-594v-495h555v-156h-555v-567h600v-162h-770zM489 1661v20q0 49 41 98q2 3 4 5q34 39 34 79q0 61 -52 61q-55 0 -55 -77v-7h-63v6q0 63 23 97q38 58 101 58q76 0 118 -63q23 -33 23 -79q-1 -48 -51 -98l-1 -1q-50 -50 -50 -83v-16h-72z" />
    <glyph glyph-name="glyph308" unicode="&#x1ebb;" horiz-adv-x="901" 
d="M256 700h391v31q0 320 -186 320q-205 0 -205 -351zM649 389h158q-4 -420 -354 -420q-363 0 -363 594q0 265 57 407q86 214 310 214q354 0 354 -514q0 -66 -2 -100l-553 -1v-51q0 -414 209 -414q98 0 146 95q38 74 38 182v8zM422 1249v20q0 49 41 98q2 3 4 5q34 39 34 79
q0 61 -52 61q-55 0 -55 -77v-7h-63v6q0 63 23 97q38 58 101 58q76 0 118 -63q23 -33 23 -79q-1 -48 -51 -98l-1 -1q-50 -50 -50 -83v-16h-72z" />
    <glyph glyph-name="glyph309" unicode="&#x1ebc;" horiz-adv-x="1004" 
d="M137 0v1540h764v-160h-594v-495h555v-156h-555v-567h600v-162h-770zM780 1930q-28 -201 -166 -201q-31 0 -59 10l-87 31q-11 4 -34 4q-51 0 -72 -66h-76q44 195 176 195q22 0 41 -6l107 -33q1 0 4 -1q16 -3 24 -3q56 0 68 70h74z" />
    <glyph glyph-name="glyph310" unicode="&#x1ebd;" horiz-adv-x="901" 
d="M256 700h391v31q0 320 -186 320q-205 0 -205 -351zM649 389h158q-4 -420 -354 -420q-363 0 -363 594q0 265 57 407q86 214 310 214q354 0 354 -514q0 -66 -2 -100l-553 -1v-51q0 -414 209 -414q98 0 146 95q38 74 38 182v8zM700 1518q-28 -201 -166 -201q-31 0 -59 10
l-87 31q-11 4 -34 4q-51 0 -72 -66h-76q44 195 176 195q22 0 41 -6l107 -33q1 0 4 -1q16 -3 24 -3q56 0 68 70h74z" />
    <glyph glyph-name="glyph311" unicode="&#x1ebe;" horiz-adv-x="1004" 
d="M137 0v1540h764v-160h-594v-495h555v-156h-555v-567h600v-162h-770zM278 1610l172 270h168l172 -270h-98l-158 166l-158 -166h-98zM267 1891l170 272h178l-247 -272h-101z" />
    <glyph glyph-name="glyph312" unicode="&#x1ebf;" horiz-adv-x="901" 
d="M256 700h391v31q0 320 -186 320q-205 0 -205 -351zM649 389h158q-4 -420 -354 -420q-363 0 -363 594q0 265 57 407q86 214 310 214q354 0 354 -514q0 -66 -2 -100l-553 -1v-51q0 -414 209 -414q98 0 146 95q38 74 38 182v8zM221 1276l172 270h168l172 -270h-98l-158 166
l-158 -166h-98zM210 1557l170 272h178l-247 -272h-101z" />
    <glyph glyph-name="glyph313" unicode="&#x1ec0;" horiz-adv-x="1004" 
d="M137 0v1540h764v-160h-594v-495h555v-156h-555v-567h600v-162h-770zM278 1610l172 270h168l172 -270h-98l-158 166l-158 -166h-98zM801 1891h-101l-247 270h178z" />
    <glyph glyph-name="glyph314" unicode="&#x1ec1;" horiz-adv-x="901" 
d="M256 700h391v31q0 320 -186 320q-205 0 -205 -351zM649 389h158q-4 -420 -354 -420q-363 0 -363 594q0 265 57 407q86 214 310 214q354 0 354 -514q0 -66 -2 -100l-553 -1v-51q0 -414 209 -414q98 0 146 95q38 74 38 182v8zM221 1276l172 270h168l172 -270h-98l-158 166
l-158 -166h-98zM745 1557h-101l-247 270h178z" />
    <glyph glyph-name="glyph315" unicode="&#x1ec2;" horiz-adv-x="1004" 
d="M137 0v1540h764v-160h-594v-495h555v-156h-555v-567h600v-162h-770zM278 1610l172 270h168l172 -270h-98l-158 166l-158 -166h-98zM684 1848v20q0 49 41 98q2 3 4 5q34 39 34 79q0 61 -52 61q-55 0 -55 -77v-7h-63v6q0 63 23 97q38 58 101 58q76 0 118 -63q23 -33 23 -79
q-1 -48 -51 -98l-1 -1q-50 -50 -50 -83v-16h-72z" />
    <glyph glyph-name="glyph316" unicode="&#x1ec3;" horiz-adv-x="901" 
d="M256 700h391v31q0 320 -186 320q-205 0 -205 -351zM649 389h158q-4 -420 -354 -420q-363 0 -363 594q0 265 57 407q86 214 310 214q354 0 354 -514q0 -66 -2 -100l-553 -1v-51q0 -414 209 -414q98 0 146 95q38 74 38 182v8zM221 1276l172 270h168l172 -270h-98l-158 166
l-158 -166h-98zM627 1515v20q0 49 41 98q2 3 4 5q34 39 34 79q0 61 -52 61q-55 0 -55 -77v-7h-63v6q0 63 23 97q38 58 101 58q76 0 118 -63q23 -33 23 -79q-1 -48 -51 -98l-1 -1q-50 -50 -50 -83v-16h-72z" />
    <glyph glyph-name="glyph317" unicode="&#x1ec4;" horiz-adv-x="1004" 
d="M137 0v1540h764v-160h-594v-495h555v-156h-555v-567h600v-162h-770zM278 1610l172 270h168l172 -270h-98l-158 166l-158 -166h-98zM831 2154q-28 -201 -166 -201q-31 0 -59 10l-87 31q-11 4 -34 4q-51 0 -72 -66h-76q44 195 176 195q22 0 41 -6l107 -33q1 0 4 -1
q16 -3 24 -3q56 0 68 70h74z" />
    <glyph glyph-name="glyph318" unicode="&#x1ec5;" horiz-adv-x="901" 
d="M256 700h391v31q0 320 -186 320q-205 0 -205 -351zM649 389h158q-4 -420 -354 -420q-363 0 -363 594q0 265 57 407q86 214 310 214q354 0 354 -514q0 -66 -2 -100l-553 -1v-51q0 -414 209 -414q98 0 146 95q38 74 38 182v8zM221 1276l172 270h168l172 -270h-98l-158 166
l-158 -166h-98zM774 1820q-28 -201 -166 -201q-31 0 -59 10l-87 31q-11 4 -34 4q-51 0 -72 -66h-76q44 195 176 195q22 0 41 -6l107 -33q1 0 4 -1q16 -3 24 -3q56 0 68 70h74z" />
    <glyph glyph-name="glyph319" unicode="&#x1ec6;" horiz-adv-x="1004" 
d="M137 0v1540h764v-160h-594v-495h555v-156h-555v-567h600v-162h-770zM278 1610l172 270h168l172 -270h-98l-158 166l-158 -166h-98zM447 -358v211h182v-211h-182z" />
    <glyph glyph-name="glyph320" unicode="&#x1ec7;" horiz-adv-x="901" 
d="M256 700h391v31q0 320 -186 320q-205 0 -205 -351zM649 389h158q-4 -420 -354 -420q-363 0 -363 594q0 265 57 407q86 214 310 214q354 0 354 -514q0 -66 -2 -100l-553 -1v-51q0 -414 209 -414q98 0 146 95q38 74 38 182v8zM221 1276l172 270h168l172 -270h-98l-158 166
l-158 -166h-98zM384 -358v211h182v-211h-182z" />
    <glyph glyph-name="glyph321" unicode="&#x1ec8;" horiz-adv-x="451" 
d="M137 0v1540h176v-1540h-176zM187 1661v20q0 49 41 98q2 3 4 5q34 39 34 79q0 61 -52 61q-55 0 -55 -77v-7h-63v6q0 63 23 97q38 58 101 58q76 0 118 -63q23 -33 23 -79q-1 -48 -51 -98l-1 -1q-50 -50 -50 -83v-16h-72z" />
    <glyph glyph-name="glyph322" unicode="&#x1ec9;" horiz-adv-x="408" 
d="M121 0v1151h166v-1151h-166zM171 1249v20q0 49 41 98q2 3 4 5q34 39 34 79q0 61 -52 61q-55 0 -55 -77v-7h-63v6q0 63 23 97q38 58 101 58q76 0 118 -63q23 -33 23 -79q-1 -48 -51 -98l-1 -1q-50 -50 -50 -83v-16h-72z" />
    <glyph glyph-name="glyph323" unicode="&#x1eca;" horiz-adv-x="451" 
d="M137 0v1540h176v-1540h-176zM138 -358v211h182v-211h-182z" />
    <glyph glyph-name="glyph324" unicode="&#x1ecb;" horiz-adv-x="408" 
d="M121 1331v209h166v-209h-166zM121 0v1151h166v-1151h-166zM117 -358v211h182v-211h-182z" />
    <glyph glyph-name="glyph325" unicode="&#x1ecc;" horiz-adv-x="1200" 
d="M285 770q0 -293 34 -415q67 -240 281 -240q217 0 283 239q32 117 32 416t-32 415q-66 238 -283 238q-214 0 -281 -239q-34 -121 -34 -414zM106 770q0 358 75 537q114 270 419 270q307 0 420 -269q74 -176 74 -538q0 -363 -74 -538q-112 -269 -420 -269q-303 0 -418 271
q-76 180 -76 536zM506 -358v211h182v-211h-182z" />
    <glyph glyph-name="glyph326" unicode="&#x1ecd;" horiz-adv-x="989" 
d="M90 575q0 609 404 609q238 0 335 -198q70 -143 70 -411t-70 -410q-96 -196 -335 -196q-240 0 -335 195q-69 141 -69 411zM262 575q0 -205 27 -297q51 -172 205 -172q152 0 203 173q28 95 28 296q0 202 -28 296q-51 171 -203 171q-154 0 -204 -171q-28 -93 -28 -296z
M405 -358v211h182v-211h-182z" />
    <glyph glyph-name="glyph327" unicode="&#x1ece;" horiz-adv-x="1200" 
d="M285 770q0 -293 34 -415q67 -240 281 -240q217 0 283 239q32 117 32 416t-32 415q-66 238 -283 238q-214 0 -281 -239q-34 -121 -34 -414zM106 770q0 358 75 537q114 270 419 270q307 0 420 -269q74 -176 74 -538q0 -363 -74 -538q-112 -269 -420 -269q-303 0 -418 271
q-76 180 -76 536zM563 1661v20q0 49 41 98q2 3 4 5q34 39 34 79q0 61 -52 61q-55 0 -55 -77v-7h-63v6q0 63 23 97q38 58 101 58q76 0 118 -63q23 -33 23 -79q-1 -48 -51 -98l-1 -1q-50 -50 -50 -83v-16h-72z" />
    <glyph glyph-name="glyph328" unicode="&#x1ecf;" horiz-adv-x="989" 
d="M90 575q0 609 404 609q238 0 335 -198q70 -143 70 -411t-70 -410q-96 -196 -335 -196q-240 0 -335 195q-69 141 -69 411zM262 575q0 -205 27 -297q51 -172 205 -172q152 0 203 173q28 95 28 296q0 202 -28 296q-51 171 -203 171q-154 0 -204 -171q-28 -93 -28 -296z
M464 1249v20q0 49 41 98q2 3 4 5q34 39 34 79q0 61 -52 61q-55 0 -55 -77v-7h-63v6q0 63 23 97q38 58 101 58q76 0 118 -63q23 -33 23 -79q-1 -48 -51 -98l-1 -1q-50 -50 -50 -83v-16h-72z" />
    <glyph glyph-name="glyph329" unicode="&#x1ed0;" horiz-adv-x="1200" 
d="M285 770q0 -293 34 -415q67 -240 281 -240q217 0 283 239q32 117 32 416t-32 415q-66 238 -283 238q-214 0 -281 -239q-34 -121 -34 -414zM106 770q0 358 75 537q114 270 419 270q307 0 420 -269q74 -176 74 -538q0 -363 -74 -538q-112 -269 -420 -269q-303 0 -418 271
q-76 180 -76 536zM345 1610l172 270h168l172 -270h-98l-158 166l-158 -166h-98zM334 1891l170 272h178l-247 -272h-101z" />
    <glyph glyph-name="glyph330" unicode="&#x1ed1;" horiz-adv-x="989" 
d="M90 575q0 609 404 609q238 0 335 -198q70 -143 70 -411t-70 -410q-96 -196 -335 -196q-240 0 -335 195q-69 141 -69 411zM262 575q0 -205 27 -297q51 -172 205 -172q152 0 203 173q28 95 28 296q0 202 -28 296q-51 171 -203 171q-154 0 -204 -171q-28 -93 -28 -296z
M246 1276l172 270h168l172 -270h-98l-158 166l-158 -166h-98zM234 1557l170 272h178l-247 -272h-101z" />
    <glyph glyph-name="glyph331" unicode="&#x1ed2;" horiz-adv-x="1200" 
d="M285 770q0 -293 34 -415q67 -240 281 -240q217 0 283 239q32 117 32 416t-32 415q-66 238 -283 238q-214 0 -281 -239q-34 -121 -34 -414zM106 770q0 358 75 537q114 270 419 270q307 0 420 -269q74 -176 74 -538q0 -363 -74 -538q-112 -269 -420 -269q-303 0 -418 271
q-76 180 -76 536zM345 1610l172 270h168l172 -270h-98l-158 166l-158 -166h-98zM869 1891h-101l-247 270h178z" />
    <glyph glyph-name="glyph332" unicode="&#x1ed3;" horiz-adv-x="989" 
d="M90 575q0 609 404 609q238 0 335 -198q70 -143 70 -411t-70 -410q-96 -196 -335 -196q-240 0 -335 195q-69 141 -69 411zM262 575q0 -205 27 -297q51 -172 205 -172q152 0 203 173q28 95 28 296q0 202 -28 296q-51 171 -203 171q-154 0 -204 -171q-28 -93 -28 -296z
M246 1276l172 270h168l172 -270h-98l-158 166l-158 -166h-98zM770 1557h-101l-247 270h178z" />
    <glyph glyph-name="glyph333" unicode="&#x1ed4;" horiz-adv-x="1200" 
d="M285 770q0 -293 34 -415q67 -240 281 -240q217 0 283 239q32 117 32 416t-32 415q-66 238 -283 238q-214 0 -281 -239q-34 -121 -34 -414zM106 770q0 358 75 537q114 270 419 270q307 0 420 -269q74 -176 74 -538q0 -363 -74 -538q-112 -269 -420 -269q-303 0 -418 271
q-76 180 -76 536zM345 1610l172 270h168l172 -270h-98l-158 166l-158 -166h-98zM751 1849v20q0 49 41 98q2 3 4 5q34 39 34 79q0 61 -52 61q-55 0 -55 -77v-7h-63v6q0 63 23 97q38 58 101 58q76 0 118 -63q23 -33 23 -79q-1 -48 -51 -98l-1 -1q-50 -50 -50 -83v-16h-72z" />
    <glyph glyph-name="glyph334" unicode="&#x1ed5;" horiz-adv-x="989" 
d="M90 575q0 609 404 609q238 0 335 -198q70 -143 70 -411t-70 -410q-96 -196 -335 -196q-240 0 -335 195q-69 141 -69 411zM262 575q0 -205 27 -297q51 -172 205 -172q152 0 203 173q28 95 28 296q0 202 -28 296q-51 171 -203 171q-154 0 -204 -171q-28 -93 -28 -296z
M246 1276l172 270h168l172 -270h-98l-158 166l-158 -166h-98zM652 1515v20q0 49 41 98q2 3 4 5q34 39 34 79q0 61 -52 61q-55 0 -55 -77v-7h-63v6q0 63 23 97q38 58 101 58q76 0 118 -63q23 -33 23 -79q-1 -48 -51 -98l-1 -1q-50 -50 -50 -83v-16h-72z" />
    <glyph glyph-name="glyph335" unicode="&#x1ed6;" horiz-adv-x="1200" 
d="M285 770q0 -293 34 -415q67 -240 281 -240q217 0 283 239q32 117 32 416t-32 415q-66 238 -283 238q-214 0 -281 -239q-34 -121 -34 -414zM106 770q0 358 75 537q114 270 419 270q307 0 420 -269q74 -176 74 -538q0 -363 -74 -538q-112 -269 -420 -269q-303 0 -418 271
q-76 180 -76 536zM345 1610l172 270h168l172 -270h-98l-158 166l-158 -166h-98zM899 2154q-28 -201 -166 -201q-31 0 -59 10l-87 31q-11 4 -34 4q-51 0 -72 -66h-76q44 195 176 195q22 0 41 -6l107 -33q1 0 4 -1q16 -3 24 -3q56 0 68 70h74z" />
    <glyph glyph-name="glyph336" unicode="&#x1ed7;" horiz-adv-x="989" 
d="M90 575q0 609 404 609q238 0 335 -198q70 -143 70 -411t-70 -410q-96 -196 -335 -196q-240 0 -335 195q-69 141 -69 411zM262 575q0 -205 27 -297q51 -172 205 -172q152 0 203 173q28 95 28 296q0 202 -28 296q-51 171 -203 171q-154 0 -204 -171q-28 -93 -28 -296z
M246 1276l172 270h168l172 -270h-98l-158 166l-158 -166h-98zM799 1820q-28 -201 -166 -201q-31 0 -59 10l-87 31q-11 4 -34 4q-51 0 -72 -66h-76q44 195 176 195q22 0 41 -6l107 -33q1 0 4 -1q16 -3 24 -3q56 0 68 70h74z" />
    <glyph glyph-name="glyph337" unicode="&#x1ed8;" horiz-adv-x="1200" 
d="M285 770q0 -293 34 -415q67 -240 281 -240q217 0 283 239q32 117 32 416t-32 415q-66 238 -283 238q-214 0 -281 -239q-34 -121 -34 -414zM106 770q0 358 75 537q114 270 419 270q307 0 420 -269q74 -176 74 -538q0 -363 -74 -538q-112 -269 -420 -269q-303 0 -418 271
q-76 180 -76 536zM345 1610l172 270h168l172 -270h-98l-158 166l-158 -166h-98zM506 -358v211h182v-211h-182z" />
    <glyph glyph-name="glyph338" unicode="&#x1ed9;" horiz-adv-x="989" 
d="M90 575q0 609 404 609q238 0 335 -198q70 -143 70 -411t-70 -410q-96 -196 -335 -196q-240 0 -335 195q-69 141 -69 411zM262 575q0 -205 27 -297q51 -172 205 -172q152 0 203 173q28 95 28 296q0 202 -28 296q-51 171 -203 171q-154 0 -204 -171q-28 -93 -28 -296z
M246 1276l172 270h168l172 -270h-98l-158 166l-158 -166h-98zM405 -358v211h182v-211h-182z" />
    <glyph glyph-name="glyph339" unicode="&#x1eda;" horiz-adv-x="1200" 
d="M285 770q0 -293 34 -415q67 -240 281 -240q217 0 283 239q32 117 32 416t-32 415q-66 238 -283 238q-214 0 -281 -239q-34 -121 -34 -414zM1035 1264q42 50 42 161v10h-88v209h182v-211q0 -184 -112 -262q35 -163 35 -401q0 -363 -74 -538q-112 -269 -420 -269
q-303 0 -418 271q-76 180 -76 536q0 358 75 537q114 270 419 270q263 0 379 -186q32 -54 56 -127zM479 1686l170 272h178l-247 -272h-101z" />
    <glyph glyph-name="glyph340" unicode="&#x1edb;" horiz-adv-x="989" 
d="M262 575q0 -205 27 -297q51 -172 205 -172q152 0 203 173q28 95 28 296q0 202 -28 296q-51 171 -203 171q-154 0 -204 -171q-28 -93 -28 -296zM848 940q41 50 41 158v10h-88v209h182v-211q0 -180 -109 -259q25 -115 25 -272q0 -268 -70 -410q-96 -196 -335 -196
q-240 0 -335 195q-69 141 -69 411q0 609 404 609q265 0 354 -244zM381 1274l170 272h178l-247 -272h-101z" />
    <glyph glyph-name="glyph341" unicode="&#x1edc;" horiz-adv-x="1200" 
d="M285 770q0 -293 34 -415q67 -240 281 -240q217 0 283 239q32 117 32 416t-32 415q-66 238 -283 238q-214 0 -281 -239q-34 -121 -34 -414zM1035 1264q42 50 42 161v10h-88v209h182v-211q0 -184 -112 -262q35 -163 35 -401q0 -363 -74 -538q-112 -269 -420 -269
q-303 0 -418 271q-76 180 -76 536q0 358 75 537q114 270 419 270q263 0 379 -186q32 -54 56 -127zM721 1688h-101l-247 270h178z" />
    <glyph glyph-name="glyph342" unicode="&#x1edd;" horiz-adv-x="989" 
d="M262 575q0 -205 27 -297q51 -172 205 -172q152 0 203 173q28 95 28 296q0 202 -28 296q-51 171 -203 171q-154 0 -204 -171q-28 -93 -28 -296zM848 940q41 50 41 158v10h-88v209h182v-211q0 -180 -109 -259q25 -115 25 -272q0 -268 -70 -410q-96 -196 -335 -196
q-240 0 -335 195q-69 141 -69 411q0 609 404 609q265 0 354 -244zM623 1276h-101l-247 270h178z" />
    <glyph glyph-name="glyph343" unicode="&#x1ede;" horiz-adv-x="1200" 
d="M285 770q0 -293 34 -415q67 -240 281 -240q217 0 283 239q32 117 32 416t-32 415q-66 238 -283 238q-214 0 -281 -239q-34 -121 -34 -414zM1035 1264q42 50 42 161v10h-88v209h182v-211q0 -184 -112 -262q35 -163 35 -401q0 -363 -74 -538q-112 -269 -420 -269
q-303 0 -418 271q-76 180 -76 536q0 358 75 537q114 270 419 270q263 0 379 -186q32 -54 56 -127zM563 1661v20q0 49 41 98q2 3 4 5q34 39 34 79q0 61 -52 61q-55 0 -55 -77v-7h-63v6q0 63 23 97q38 58 101 58q76 0 118 -63q23 -33 23 -79q-1 -48 -51 -98l-1 -1
q-50 -50 -50 -83v-16h-72z" />
    <glyph glyph-name="glyph344" unicode="&#x1edf;" horiz-adv-x="989" 
d="M262 575q0 -205 27 -297q51 -172 205 -172q152 0 203 173q28 95 28 296q0 202 -28 296q-51 171 -203 171q-154 0 -204 -171q-28 -93 -28 -296zM848 940q41 50 41 158v10h-88v209h182v-211q0 -180 -109 -259q25 -115 25 -272q0 -268 -70 -410q-96 -196 -335 -196
q-240 0 -335 195q-69 141 -69 411q0 609 404 609q265 0 354 -244zM464 1249v20q0 49 41 98q2 3 4 5q34 39 34 79q0 61 -52 61q-55 0 -55 -77v-7h-63v6q0 63 23 97q38 58 101 58q76 0 118 -63q23 -33 23 -79q-1 -48 -51 -98l-1 -1q-50 -50 -50 -83v-16h-72z" />
    <glyph glyph-name="glyph345" unicode="&#x1ee0;" horiz-adv-x="1200" 
d="M285 770q0 -293 34 -415q67 -240 281 -240q217 0 283 239q32 117 32 416t-32 415q-66 238 -283 238q-214 0 -281 -239q-34 -121 -34 -414zM1035 1264q42 50 42 161v10h-88v209h182v-211q0 -184 -112 -262q35 -163 35 -401q0 -363 -74 -538q-112 -269 -420 -269
q-303 0 -418 271q-76 180 -76 536q0 358 75 537q114 270 419 270q263 0 379 -186q32 -54 56 -127zM846 1930q-28 -201 -166 -201q-31 0 -59 10l-87 31q-11 4 -34 4q-51 0 -72 -66h-76q44 195 176 195q22 0 41 -6l107 -33q1 0 4 -1q16 -3 24 -3q56 0 68 70h74z" />
    <glyph glyph-name="glyph346" unicode="&#x1ee1;" horiz-adv-x="989" 
d="M262 575q0 -205 27 -297q51 -172 205 -172q152 0 203 173q28 95 28 296q0 202 -28 296q-51 171 -203 171q-154 0 -204 -171q-28 -93 -28 -296zM848 940q41 50 41 158v10h-88v209h182v-211q0 -180 -109 -259q25 -115 25 -272q0 -268 -70 -410q-96 -196 -335 -196
q-240 0 -335 195q-69 141 -69 411q0 609 404 609q265 0 354 -244zM748 1518q-28 -201 -166 -201q-31 0 -59 10l-87 31q-11 4 -34 4q-51 0 -72 -66h-76q44 195 176 195q22 0 41 -6l107 -33q1 0 4 -1q16 -3 24 -3q56 0 68 70h74z" />
    <glyph glyph-name="glyph347" unicode="&#x1ee2;" horiz-adv-x="1200" 
d="M285 770q0 -293 34 -415q67 -240 281 -240q217 0 283 239q32 117 32 416t-32 415q-66 238 -283 238q-214 0 -281 -239q-34 -121 -34 -414zM1035 1264q42 50 42 161v10h-88v209h182v-211q0 -184 -112 -262q35 -163 35 -401q0 -363 -74 -538q-112 -269 -420 -269
q-303 0 -418 271q-76 180 -76 536q0 358 75 537q114 270 419 270q263 0 379 -186q32 -54 56 -127zM506 -358v211h182v-211h-182z" />
    <glyph glyph-name="glyph348" unicode="&#x1ee3;" horiz-adv-x="989" 
d="M262 575q0 -205 27 -297q51 -172 205 -172q152 0 203 173q28 95 28 296q0 202 -28 296q-51 171 -203 171q-154 0 -204 -171q-28 -93 -28 -296zM848 940q41 50 41 158v10h-88v209h182v-211q0 -180 -109 -259q25 -115 25 -272q0 -268 -70 -410q-96 -196 -335 -196
q-240 0 -335 195q-69 141 -69 411q0 609 404 609q265 0 354 -244zM405 -358v211h182v-211h-182z" />
    <glyph glyph-name="glyph349" unicode="&#x1ee4;" horiz-adv-x="1180" 
d="M139 1540h172v-1036q0 -188 43 -270q61 -115 228 -115q292 0 292 385v1036h168v-1005q0 -152 -11 -220q-20 -120 -85 -198q-128 -152 -366 -152q-251 0 -369 160q-51 69 -65 198q-7 60 -7 212v1005zM489 -358v211h182v-211h-182z" />
    <glyph glyph-name="glyph350" unicode="&#x1ee5;" horiz-adv-x="963" 
d="M682 0v150q-71 -181 -287 -181q-148 0 -214 76q-62 71 -62 221v885h168v-889q0 -149 135 -149q122 0 186 78q60 72 60 196v764h163v-1151h-149zM390 -358v211h182v-211h-182z" />
    <glyph glyph-name="glyph351" unicode="&#x1ee6;" horiz-adv-x="1180" 
d="M139 1540h172v-1036q0 -188 43 -270q61 -115 228 -115q292 0 292 385v1036h168v-1005q0 -152 -11 -220q-20 -120 -85 -198q-128 -152 -366 -152q-251 0 -369 160q-51 69 -65 198q-7 60 -7 212v1005zM563 1661v20q0 49 41 98q2 3 4 5q34 39 34 79q0 61 -52 61
q-55 0 -55 -77v-7h-63v6q0 63 23 97q38 58 101 58q76 0 118 -63q23 -33 23 -79q-1 -48 -51 -98l-1 -1q-50 -50 -50 -83v-16h-72z" />
    <glyph glyph-name="glyph352" unicode="&#x1ee7;" horiz-adv-x="963" 
d="M682 0v150q-71 -181 -287 -181q-148 0 -214 76q-62 71 -62 221v885h168v-889q0 -149 135 -149q122 0 186 78q60 72 60 196v764h163v-1151h-149zM441 1249v20q0 49 41 98q2 3 4 5q34 39 34 79q0 61 -52 61q-55 0 -55 -77v-7h-63v6q0 63 23 97q38 58 101 58q76 0 118 -63
q23 -33 23 -79q-1 -48 -51 -98l-1 -1q-50 -50 -50 -83v-16h-72z" />
    <glyph glyph-name="glyph353" unicode="&#x1ee8;" horiz-adv-x="1180" 
d="M989 1540v104h182v-211q0 -200 -129 -273v-625q0 -152 -11 -220q-20 -120 -85 -198q-128 -152 -366 -152q-251 0 -369 160q-51 69 -65 198q-7 60 -7 212v1005h172v-1036q0 -188 43 -270q61 -115 228 -115q292 0 292 385v1036h115zM1042 1274q35 51 35 151v10h-35v-161z
M469 1686l170 272h178l-247 -272h-101z" />
    <glyph glyph-name="glyph354" unicode="&#x1ee9;" horiz-adv-x="963" 
d="M802 1151v166h182v-211q0 -222 -153 -283v-823h-149v150q-71 -181 -287 -181q-148 0 -214 76q-62 71 -62 221v885h168v-889q0 -149 135 -149q122 0 186 78q60 72 60 196v764h134zM831 923q59 41 59 175v10h-59v-185zM354 1274l170 272h178l-247 -272h-101z" />
    <glyph glyph-name="glyph355" unicode="&#x1eea;" horiz-adv-x="1180" 
d="M989 1540v104h182v-211q0 -200 -129 -273v-625q0 -152 -11 -220q-20 -120 -85 -198q-128 -152 -366 -152q-251 0 -369 160q-51 69 -65 198q-7 60 -7 212v1005h172v-1036q0 -188 43 -270q61 -115 228 -115q292 0 292 385v1036h115zM1042 1274q35 51 35 151v10h-35v-161z
M711 1688h-101l-247 270h178z" />
    <glyph glyph-name="glyph356" unicode="&#x1eeb;" horiz-adv-x="963" 
d="M802 1151v166h182v-211q0 -222 -153 -283v-823h-149v150q-71 -181 -287 -181q-148 0 -214 76q-62 71 -62 221v885h168v-889q0 -149 135 -149q122 0 186 78q60 72 60 196v764h134zM831 923q59 41 59 175v10h-59v-185zM596 1276h-101l-247 270h178z" />
    <glyph glyph-name="glyph357" unicode="&#x1eec;" horiz-adv-x="1180" 
d="M989 1540v104h182v-211q0 -200 -129 -273v-625q0 -152 -11 -220q-20 -120 -85 -198q-128 -152 -366 -152q-251 0 -369 160q-51 69 -65 198q-7 60 -7 212v1005h172v-1036q0 -188 43 -270q61 -115 228 -115q292 0 292 385v1036h115zM1042 1274q35 51 35 151v10h-35v-161z
M563 1661v20q0 49 41 98q2 3 4 5q34 39 34 79q0 61 -52 61q-55 0 -55 -77v-7h-63v6q0 63 23 97q38 58 101 58q76 0 118 -63q23 -33 23 -79q-1 -48 -51 -98l-1 -1q-50 -50 -50 -83v-16h-72z" />
    <glyph glyph-name="glyph358" unicode="&#x1eed;" horiz-adv-x="963" 
d="M802 1151v166h182v-211q0 -222 -153 -283v-823h-149v150q-71 -181 -287 -181q-148 0 -214 76q-62 71 -62 221v885h168v-889q0 -149 135 -149q122 0 186 78q60 72 60 196v764h134zM831 923q59 41 59 175v10h-59v-185zM441 1249v20q0 49 41 98q2 3 4 5q34 39 34 79
q0 61 -52 61q-55 0 -55 -77v-7h-63v6q0 63 23 97q38 58 101 58q76 0 118 -63q23 -33 23 -79q-1 -48 -51 -98l-1 -1q-50 -50 -50 -83v-16h-72z" />
    <glyph glyph-name="glyph359" unicode="&#x1eee;" horiz-adv-x="1180" 
d="M989 1540v104h182v-211q0 -200 -129 -273v-625q0 -152 -11 -220q-20 -120 -85 -198q-128 -152 -366 -152q-251 0 -369 160q-51 69 -65 198q-7 60 -7 212v1005h172v-1036q0 -188 43 -270q61 -115 228 -115q292 0 292 385v1036h115zM1042 1274q35 51 35 151v10h-35v-161z
M858 1930q-28 -201 -166 -201q-31 0 -59 10l-87 31q-11 4 -34 4q-51 0 -72 -66h-76q44 195 176 195q22 0 41 -6l107 -33q1 0 4 -1q16 -3 24 -3q56 0 68 70h74z" />
    <glyph glyph-name="glyph360" unicode="&#x1eef;" horiz-adv-x="963" 
d="M802 1151v166h182v-211q0 -222 -153 -283v-823h-149v150q-71 -181 -287 -181q-148 0 -214 76q-62 71 -62 221v885h168v-889q0 -149 135 -149q122 0 186 78q60 72 60 196v764h134zM831 923q59 41 59 175v10h-59v-185zM748 1518q-28 -201 -166 -201q-31 0 -59 10l-87 31
q-11 4 -34 4q-51 0 -72 -66h-76q44 195 176 195q22 0 41 -6l107 -33q1 0 4 -1q16 -3 24 -3q56 0 68 70h74z" />
    <glyph glyph-name="glyph361" unicode="&#x1ef0;" horiz-adv-x="1180" 
d="M989 1540v104h182v-211q0 -200 -129 -273v-625q0 -152 -11 -220q-20 -120 -85 -198q-128 -152 -366 -152q-251 0 -369 160q-51 69 -65 198q-7 60 -7 212v1005h172v-1036q0 -188 43 -270q61 -115 228 -115q292 0 292 385v1036h115zM1042 1274q35 51 35 151v10h-35v-161z
M489 -358v211h182v-211h-182z" />
    <glyph glyph-name="glyph362" unicode="&#x1ef1;" horiz-adv-x="963" 
d="M802 1151v166h182v-211q0 -222 -153 -283v-823h-149v150q-71 -181 -287 -181q-148 0 -214 76q-62 71 -62 221v885h168v-889q0 -149 135 -149q122 0 186 78q60 72 60 196v764h134zM831 923q59 41 59 175v10h-59v-185zM390 -358v211h182v-211h-182z" />
    <glyph glyph-name="glyph363" unicode="&#x1ef2;" horiz-adv-x="1028" 
d="M424 0v596l-455 944h205l340 -758l356 758h187l-459 -944v-596h-174zM666 1688h-101l-247 270h178z" />
    <glyph glyph-name="glyph364" unicode="&#x1ef3;" horiz-adv-x="909" 
d="M78 -369v146q48 -21 100 -21q85 0 135 79q27 43 60 155l-338 1161h174l246 -928l254 928h165l-354 -1202q-51 -172 -106 -239q-78 -97 -230 -97q-44 0 -106 18zM586 1276h-101l-247 270h178z" />
    <glyph glyph-name="glyph365" unicode="&#x1ef4;" horiz-adv-x="1028" 
d="M424 0v596l-455 944h205l340 -758l356 758h187l-459 -944v-596h-174zM422 -358v211h182v-211h-182z" />
    <glyph glyph-name="glyph366" unicode="&#x1ef5;" horiz-adv-x="909" 
d="M78 -369v146q48 -21 100 -21q85 0 135 79q27 43 60 155l-338 1161h174l246 -928l254 928h165l-354 -1202q-51 -172 -106 -239q-78 -97 -230 -97q-44 0 -106 18zM546 -358v211h182v-211h-182z" />
    <glyph glyph-name="glyph367" unicode="&#x1ef6;" horiz-adv-x="1028" 
d="M424 0v596l-455 944h205l340 -758l356 758h187l-459 -944v-596h-174zM492 1661v20q0 49 41 98q2 3 4 5q34 39 34 79q0 61 -52 61q-55 0 -55 -77v-7h-63v6q0 63 23 97q38 58 101 58q76 0 118 -63q23 -33 23 -79q-1 -48 -51 -98l-1 -1q-50 -50 -50 -83v-16h-72z" />
    <glyph glyph-name="glyph368" unicode="&#x1ef7;" horiz-adv-x="909" 
d="M78 -369v146q48 -21 100 -21q85 0 135 79q27 43 60 155l-338 1161h174l246 -928l254 928h165l-354 -1202q-51 -172 -106 -239q-78 -97 -230 -97q-44 0 -106 18zM441 1249v20q0 49 41 98q2 3 4 5q34 39 34 79q0 61 -52 61q-55 0 -55 -77v-7h-63v6q0 63 23 97q38 58 101 58
q76 0 118 -63q23 -33 23 -79q-1 -48 -51 -98l-1 -1q-50 -50 -50 -83v-16h-72z" />
    <glyph glyph-name="glyph369" unicode="&#x1ef8;" horiz-adv-x="1028" 
d="M424 0v596l-455 944h205l340 -758l356 758h187l-459 -944v-596h-174zM799 1930q-28 -201 -166 -201q-31 0 -59 10l-87 31q-11 4 -34 4q-51 0 -72 -66h-76q44 195 176 195q22 0 41 -6l107 -33q1 0 4 -1q16 -3 24 -3q56 0 68 70h74z" />
    <glyph glyph-name="glyph370" unicode="&#x1ef9;" horiz-adv-x="909" 
d="M78 -369v146q48 -21 100 -21q85 0 135 79q27 43 60 155l-338 1161h174l246 -928l254 928h165l-354 -1202q-51 -172 -106 -239q-78 -97 -230 -97q-44 0 -106 18zM723 1518q-28 -201 -166 -201q-31 0 -59 10l-87 31q-11 4 -34 4q-51 0 -72 -66h-76q44 195 176 195
q22 0 41 -6l107 -33q1 0 4 -1q16 -3 24 -3q56 0 68 70h74z" />
    </font>
</defs>
</svg>
