<?xml version="1.0" encoding="UTF-8"?><!DOCTYPE svg PUBLIC "-//W3C//DTD SVG 1.1//EN" "http://www.w3.org/Graphics/SVG/1.1/DTD/svg11.dtd"><svg xmlns="http://www.w3.org/2000/svg" xmlns:xlink="http://www.w3.org/1999/xlink"><symbol id="arrow-left" viewBox="0 0 69.32 69.32"><title>arrow-left</title><rect x="9.69" y="33.37" width="59.63" height="2.58" transform="translate(79 69.32) rotate(-180)"/><polygon points="11.33 34.66 11.33 27.16 5.67 30.91 0 34.66 5.67 38.41 11.33 42.16 11.33 34.66"/></symbol><symbol id="arrow-right" viewBox="0 0 69.32 69.32"><title>arrow-right</title><rect y="33.37" width="59.63" height="2.58"/><polygon points="57.98 34.66 57.98 27.16 63.65 30.91 69.31 34.66 63.65 38.41 57.98 42.16 57.98 34.66"/></symbol><symbol id="check" viewBox="0 0 24.29 24.29"><title>check</title><path d="M23.79,6.22,9.58,20.38a1.52,1.52,0,0,1-1.1.45,1.57,1.57,0,0,1-1.17-.45L.49,13.52a1.56,1.56,0,0,1,0-2.27,1.57,1.57,0,0,1,2.26,0L8.48,17,21.59,3.89a1.6,1.6,0,1,1,2.2,2.33Z"/></symbol><symbol id="circle-reverse" viewBox="0 0 75 75"><title>circle-reverse</title><path d="M0,0V75H75V0ZM37.5,66.5a29,29,0,1,1,29-29A29,29,0,0,1,37.5,66.5Z"/></symbol><symbol id="close" viewBox="0 0 15.6 15.6"><title>close</title><path d="M1.4,0,15.5,14.1l-1.4,1.4L0,1.4Z"/><path d="M15.6,1.4,1.4,15.6,0,14.1,14.1,0Z"/></symbol><symbol id="download" viewBox="0 0 40.5 40.5"><title>download</title><path d="M39,12.5A1.5,1.5,0,0,1,37.5,11V3h-8a1.5,1.5,0,0,1,0-3H39a1.5,1.5,0,0,1,1.5,1.5V11A1.5,1.5,0,0,1,39,12.5Z"/><path d="M21.5,20.5a1.51,1.51,0,0,1-1.06-.44,1.49,1.49,0,0,1,0-2.12L37.94.44a1.5,1.5,0,0,1,2.12,2.12l-17.5,17.5A1.51,1.51,0,0,1,21.5,20.5Z"/><path d="M33,40.5H1.5A1.5,1.5,0,0,1,0,39V7.5A1.5,1.5,0,0,1,1.5,6H24.71a1.5,1.5,0,0,1,0,3H3V37.5H31.5V16.62a1.5,1.5,0,1,1,3,0V39A1.5,1.5,0,0,1,33,40.5Z"/></symbol><symbol id="file-check" viewBox="0 0 24.54 24.54"><title>file-check</title><g id="Layer_1" data-name="Layer 1"><path d="M11.64,20.31,10.39,19a2.5,2.5,0,0,1-.78-1.76,2.56,2.56,0,0,1,.7-1.84l.08-.08a2.59,2.59,0,0,1,.81-.55V5a3,3,0,1,1,6.09,0l-.08,12.23a5.69,5.69,0,0,1-.08.83l2.26-2.26.06-10.65A5.38,5.38,0,0,0,14.29,0a5.07,5.07,0,0,0-5.1,5v0L9.12,17.32A3,3,0,0,0,11.64,20.31Z"/><path d="M14.2,6.14a1,1,0,0,0-1,1v7.65a2.42,2.42,0,0,1,.81.53l.08.07,1.11,1.12V7.14A1,1,0,0,0,14.2,6.14Z"/><path d="M15.08,23.76l-1.63-1.64a4.92,4.92,0,0,1-1.33.2A5.09,5.09,0,0,1,7,17.23H7L7.14,1.06a1,1,0,1,0-2,0l0,16.33a7.16,7.16,0,0,0,10.35,6.66A2.54,2.54,0,0,1,15.08,23.76Z"/></g><g id="Layer_2" data-name="Layer 2"><path d="M27.44,13l-9.75,9.72a1.07,1.07,0,0,1-.76.31,1.08,1.08,0,0,1-.8-.31L11.45,18a1.07,1.07,0,0,1,0-1.51l0,0a1.07,1.07,0,0,1,1.52,0l0,0,3.93,3.94,9-9a1.11,1.11,0,0,1,1.56.05,1.1,1.1,0,0,1,0,1.55Z"/></g></symbol><symbol id="file" viewBox="0 0 24.54 24.54"><title>file</title><path d="M14.29,0a5.07,5.07,0,0,0-5.1,5.09L9.12,17.32a3,3,0,1,0,6.08,0V7.14a1,1,0,1,0-2,0V17.32a1,1,0,0,1-1,1,1,1,0,0,1-1-1V5a3,3,0,0,1,6.09,0l-.08,12.23a5.09,5.09,0,1,1-10.18,0L7.14,1.06a1,1,0,1,0-2,0L5.09,17.39a7.15,7.15,0,1,0,14.29,0l.07-12.24A5.39,5.39,0,0,0,14.29,0Z"/></symbol><symbol id="files" viewBox="0 0 88 88"><title>files</title><path d="M61,88a2,2,0,0,0,2-2V72H79a2,2,0,0,0,2-2V17a2,2,0,0,0-.59-1.4l-15-15A2,2,0,0,0,64,0H26.81A2,2,0,0,0,25,2V16H8.81A2,2,0,0,0,7,18V86a2,2,0,0,0,2,2m13.07,0M11,84V20H44V33a2,2,0,0,0,2,2H59V84M29,4H62V17a2,2,0,0,0,2,2H77V68H63V33a2,2,0,0,0-.59-1.44l-15-15A2.06,2.06,0,0,0,46,16H29ZM66,6.81,74.19,15H66Zm-18,16L56.19,31H48ZM18.81,44A2,2,0,0,0,19,48H38a2,2,0,0,0,.06-4H18.81Zm0,12A2,2,0,0,0,19,60H51a2,2,0,0,0,.06-4H18.81Zm0,12A2,2,0,0,0,19,72H51a2,2,0,0,0,.06-4H18.81Z"/></symbol><symbol id="logo" viewBox="0 0 310.68 257.57"><path d="M155.8,0a24.29,24.29,0,1,1-24.32,24.32A24.24,24.24,0,0,1,155.8,0Zm0,40.8a16.18,16.18,0,0,0,16.08-16.48c0-9.18-7-16.55-16.08-16.55s-16.08,7.37-16.08,16.55A16.17,16.17,0,0,0,155.8,40.8Z"/><path d="M71.45,105.34h8v19h22v-19h8.05v46.9h-8.05v-20.3h-22v20.3h-8Z"/><path d="M241,119.67c0,9-6.63,14.28-16.21,14.28h-7.17v18.29h-8v-46.9h15.21C234.34,105.34,241,110.56,241,119.67Zm-23.38,7.11h7.3c4.69,0,8-2.61,8-7.11s-3.35-7.1-8-7.1h-7.3Z"/><path d="M15.34,256.77H0v-46.9H15.34a23.45,23.45,0,1,1,0,46.9Zm-.2-39.4H8v31.9h7.1c8.91,0,15.55-7,15.55-16S24.05,217.37,15.14,217.37Z"/><path d="M92.57,209.87h26.8v7.3H100.61V229.1H117.9v7.1H100.61v13.27H119.5v7.3H92.57Z"/><path d="M197.75,209a24,24,0,0,1,12.8,3.82v8.64c-4.09-3.08-8.11-4.62-12.74-4.62-9,0-15.94,7.23-15.94,16.48s6.9,16.42,15.94,16.42a21.8,21.8,0,0,0,12.87-4.49v8.64a25.32,25.32,0,0,1-13,3.68,24.29,24.29,0,0,1,.07-48.57Z"/><path d="M286.36,209A24.29,24.29,0,1,1,262,233.32,24.23,24.23,0,0,1,286.36,209Zm0,40.8a16.17,16.17,0,0,0,16.08-16.48c0-9.18-7-16.55-16.08-16.55s-16.08,7.37-16.08,16.55A16.18,16.18,0,0,0,286.36,249.8Z"/></symbol><symbol id="paint" viewBox="0 0 267.84 31.7" preserveAspectRatio="none"><title>paint</title><path d="M266.65,14.91a7.58,7.58,0,0,0-2.8-.24c-.28,0-.58,0-.75-.32h0l.24-.19c1.41.36,2.47-.8,3.77-1-.95-.4-1.88.23-2.82,0,0-.14-.14-.4,0-.41.9-.09,1.56-.91,2.76-.79-.42-.2-.67-.24-.72-.36s.17-.29.33-.33c.38-.1.81.11,1.18-.23-.93-.88-1.86.47-2.74-.05a11.42,11.42,0,0,1,2.12-.94H266.1c-.16-1-1-.21-1.4-.63.53-.21,1.17-.08,1.63-.57-.43-.47-1-.05-1.44-.43.39-.48.91-.1,1.34-.45a3.4,3.4,0,0,0-2.42.18L263,8.08c.22-.85,1-.73,1.56-1.08.3-.09.58-.3.13-.46a1.81,1.81,0,0,0-1.54.18c-.79-.08-1.61.19-2.39-.29a6.9,6.9,0,0,0,2.19-.88c.43,0,.89.06,1.18-.46a2.38,2.38,0,0,0-1.66.2l-1.38-.24a.55.55,0,0,0,0-.22c-.18-.42-.64-.14-.86-.34.77-.68,2-.34,2.88-1.37-1.4,0-2.53.47-3.72.17l1.49-.52a7.14,7.14,0,0,0-2.26,0,2.51,2.51,0,0,1-2.07-.15c-1.29-.83-2.58-.23-3.87,0v0h0a1.67,1.67,0,0,0-1.82,0h-.23c-1.43-.62-2.94,0-4.41-.21.52-.43,1.13-.14,1.67-.33-.09-.27-.43-.06-.44-.67,1.6,1.07,3.05.24,4.6-.13A7,7,0,0,0,249.56,1,34.14,34.14,0,0,1,241,1c-.49-.05-1.06-.23-1.52.22L239,1c-1.79,0-3.59.18-5.37.32-1.08.09-2.24-.15-3.28.4-.53.09-1.11-.21-1.6.23h0c-16.93-.15-33.86.23-50.79-.2-6.14-.16-12.28,0-18.42,0-1.2.17-2.39-.6-3.6,0-.32-.33-.72-.2-1.08-.2-1.16,0-2.31-.06-3.47-.06-1.78,0-3.57-.27-5.37-.22a7.69,7.69,0,0,1-3.57-.34c-2.27-1.11-4.6-.74-6.91-.85a9.17,9.17,0,0,0-2.87.58c-1,.3-1.54,1.47-2.62,1.58s-2.1.22-3.16.23c-4.13,0-8.26,0-12.39,0-.73-.39-1.53-.09-2.29-.21-.38-.43-.86-.24-1.3-.24-2.52,0-5,0-7.57,0,4.38-.61,8.77-.45,13.15-.72H82.4C80.55,1.32,78.71,1,76.86,1c-9.81.1-19.61-.1-29.43.16-12.34.33-24.69-.18-37,.3-.34,0-.68,0-1,0,0,.08,0,.16,0,.24h7.94c.34.38.78.21,1.18.21,1.48,0,3,0,4.59,0-1.37.82-2.76.22-4,.71h0l-4.51,0a27.65,27.65,0,0,0-5.23.16c0,.1,0,.21,0,.31H20.94c0,.16,0,.31,0,.47a.34.34,0,0,1-.2,0,.91.91,0,0,0-.39-.06,40.61,40.61,0,0,0-5.94,0c1.25.37,2.54-.15,3.77.38l-7,.06H8.84v.16h2.32l7.7.08c.05.51-.53.35-.65.68l-7.28.24a8.1,8.1,0,0,0-3.23.58c-1.13.58-2.66.29-4,.4-.36,0-.79-.16-1.17.33a37.22,37.22,0,0,0,5.39.4h0c-1.47.5-3,0-4.51.42H9.58l.63.07-.44.4-.43.07c-2.27,0-4.56-.26-6.81.46H5c.51.53,1.29-.1,1.8.45h0L4.58,9l.88.12c.94.51,2,0,3.19.39L6.4,9.66v.19H9.08v.45h0l-4.29,0H1v.2H4.79c1.58.17,3.23-.33,4.75.49l-.42.05h-8v.18h8l.41.05a12,12,0,0,1-3.31.44c-1.91.05-3.83,0-5.75,0V12H9.35c0,.17,0,.33,0,.5-.12.62-.6.46-1,.51s-1-.11-1.49.25H0v.16H6.87l.86.05c0,.15,0,.3,0,.45-1.68.2-3.36.24-5,.47h4.4c.16,0,.36,0,.41.27-2,.16-3.91.68-5.91.69H7.75l.4.06c-.25.33-.62.15-.93.23a5,5,0,0,0-2.47.92H1c0,.08,0,.16,0,.25H9.11l.19.05c0,.14,0,.28,0,.42l0,0H3.67a1.48,1.48,0,0,1,0,.21H7.52l1.57,0h0a.81.81,0,0,1,0,.22c-2.9.7-5.91.22-8.82.85A10.59,10.59,0,0,1,3,19H3l.22.45c-.29.09-.64-.11-1,.25H3.41c.5.45,1.09.14,1.63.24a.5.5,0,0,0,0,.21H5c.29.44.73.21,1.11.27.6.1,1.24-.21,1.81.22l-1.58,0H.93c1.32.63,2.71.38,4.07.48v.2a13.47,13.47,0,0,0-2.62.15l0,.37H7.47c-.75.57-1.72-.18-2.46.45-.59.48-1.35.37-2,.66.5.07,1,0,1.48.07,1.31.1,2.64-.24,3.92.21a8.14,8.14,0,0,0-2.88.48h3.6c.16.05.36,0,.4.25-1.87-.19-3.54.87-5.37,1h6.12l.88,0c.57.6,1.56-.21,2,.69L8.48,26v.17l1.4.1c-.28.32-.77.06-1,.68h2.94c-.15.32-.45.13-.49.48H13l.93.51H6.14v.21h4.75v.27H8.71c3.17.21,6.34.11,9.5.44-.34.39-.79.23-1.18.23H9.55a1.2,1.2,0,0,0-1.22.45c2.09-.05,3.91.42,5.77.34-.49.33-1.13-.07-1.59.39-.13.12-.51-.21-.45.27s.55.43.91.47c2.11.54,4.23.08,6.54.27-.51-.45-1-.08-1.3-.51s-1.16.06-1.58-.47l5,0c2.26-.29,4.54-.24,6.82-.31-.48-.3-1.17.06-1.63-.64H54.85c20.54.41,41.08.18,61.62.53h-4.9c0,.07,0,.13,0,.2h7.7c.34.39.78.23,1.18.23q4.44,0,8.88,0a22.73,22.73,0,0,0,3.39-.18,7.38,7.38,0,0,1,3.48.23c-2,.26-4,0-6,.95a3.11,3.11,0,0,0,1.92.45c6.06.08,12.1-.41,18.15-.43,26.7-.11,53.4-.05,80.1-.05.56,0,1.13-.1,1.68-.13,1.64-.09,3.22-1,4.9-.36.54,0,1.12.32,1.59-.23,1.62.27,3.24,0,4.88.16a9.25,9.25,0,0,0,4.46-.18.76.76,0,0,0,.21,0c.45.4,1.32-.22,1.32.08,0,1.17.82.61,1.15.59a40.68,40.68,0,0,1,6-.27,3.23,3.23,0,0,0,2.22-.55c.94-1.08,2.27-.72,3.26-1.47-.22-.1-.53,0-.69-.28.4-.06.81.09,1.21-.15a2.29,2.29,0,0,0-1.21-.1l-.71,0c.13-.42,0-.95.49-1.21-.33-.58.37-.42.45-.7.52,0,.25-.52.47-.71h0a3.51,3.51,0,0,1,1.18-.34c1,.06.55-.83.76-1.25s-.44-.28-.55-.57c.43-.29,1-.42,1.16-1.12-.35-.19-1.09,0-.93-.8.13-1.14,1.39-1.1,1.86-2-.68.08-.81-.33-.72-.9a1,1,0,0,0-.92-.48c-.24-.31-.67-.1-.92-.29a5.16,5.16,0,0,1,3.77-.9c-.59-.42-1.19,0-1.7-.49a2.19,2.19,0,0,1,1.62-.7.64.64,0,0,0,.68-.65C267.29,14.87,266.9,15,266.65,14.91ZM10.22,16.34h.06c0-.08,0,0,0,0Zm230.13-15h0Zm17.7,27s0,0,0,0h.09ZM20.78,9a.28.28,0,0,1,0-.27C20.78,8.81,20.77,8.91,20.78,9Zm-4.73-.84a0,0,0,0,0,0,0s0,.07-.09.07h0C16,8.23,16.05,8.19,16.05,8.16Zm81.58-5h-.49l.11,0Zm58.56-.07,0,0h-.06ZM261.41,18.58a.13.13,0,0,1-.07-.09.3.3,0,0,0,.08.08Zm1.09-5.87h-.07l0-.06Zm-136-7.49h0c0,.09,0,0,0,0Zm77-.9h0ZM41.33,27h0Zm205.82-9.16c-.2-.18-.08-.37.13-.49A.63.63,0,0,0,247.15,17.87ZM242.52,5h0ZM176.6,28v-.08h.34a.41.41,0,0,0-.11.07ZM244.49,5h0S244.48,5,244.49,5ZM215.12,27.61l0,0s0,0,0,0ZM224,10.32h0Zm-58.38,7.16a.11.11,0,0,0,0-.05A.09.09,0,0,1,165.63,17.48Zm-8.38,1.15Zm4.53,2.47c0,.07-.05.14-.07.2a.22.22,0,0,0-.05-.08S161.74,21.15,161.78,21.1Zm-16.69.47a.46.46,0,0,1,.38,0ZM202.89,28H203c-.23,0-.45,0-.68,0A4.09,4.09,0,0,1,202.89,28Zm-19.95-3.27c.24.07.47.16.7.25A4.81,4.81,0,0,1,182.94,24.69ZM217.55,4.82h0Zm-82.27,7.75s0,0-.06,0h.06Zm10.66.56Zm-13.05-.32a1.53,1.53,0,0,0,.43,0A.37.37,0,0,1,132.89,12.81Zm53.77,15.52h.05l0,0s0,0,0,0h0Zm66.23-19.9v0h0Zm-49.33-4H204c-.15,0-.3,0-.45,0h-.12v-.1h0S203.52,4.43,203.56,4.43Zm-57.4,8.2-.08,0a.39.39,0,0,1-.15-.16A1.3,1.3,0,0,0,146.16,12.63ZM66.6,12.31a.34.34,0,0,1,.45.09ZM62.32,7.76a.19.19,0,0,0,0-.07h.07A.18.18,0,0,1,62.32,7.76ZM47.72,3.27Zm-22,15.35c.05-.07.15,0,.24,0l-.25,0Zm1.91,5.59a.06.06,0,0,0,0,0h0Zm78.73-14,0,0Zm-16.74-4a3.68,3.68,0,0,1,.87.09Q90,6.32,89.58,6.26ZM151.42,28.6v0l-.05,0ZM249.26,5h0Zm-21.18-.21h0Zm-7.26-1.21h0ZM87.18,18.49h0v0Zm75.7,10.44c.6,0,1.2,0,1.81,0l-1.46.05Zm73.86-1.32s0,0,0,.06l-.05-.06Zm23.63-14.79Zm-3.5-6.17a.26.26,0,0,1-.06-.13l.36,0ZM127,4.22h0S127,4.23,127,4.22Zm-21.59-.13h0ZM93.33,3.27l.23,0-.45,0ZM20.49,15.37h0Zm77.85,2.16Zm162.3-7.44v0ZM167.87,3.26h0Zm-4.47,0a1.13,1.13,0,0,0-.36.06c-.15.09-.08.2-.12.09s0,0,.08-.08h0a.6.6,0,0,1,.2-.06ZM130,7.65s0,0,0,0,.19-.11.29,0A1.09,1.09,0,0,0,130,7.65ZM106.72,3.73h0Zm-1.32-.12h0l0,0ZM25,3.37v0ZM19.13,27.72h0a3.85,3.85,0,0,0-.48,0A2.12,2.12,0,0,1,19.13,27.72ZM260.8,18h0Zm-.75-3-.12-.17.26.12C260.13,15,260.08,15.07,260.05,15ZM238,2.71h.08l-.06,0Zm-30.17.63,0,0s0,0,0,0ZM11.9,7.2h0C12,7.25,12,7.25,11.9,7.2ZM260.78,18s0-.1.06-.09l.25,0A1.66,1.66,0,0,1,260.78,18ZM91.52,2.45l0,0h0ZM19.79,4.12h0ZM8.67,19.66l0,0,0-.06Zm.88.53h0s0,0,0,0l0,0ZM239.22,2.65v0l0,0Zm-1.84-.85V1.71a.05.05,0,0,0,0,0S237.42,1.76,237.38,1.8ZM98.09,1.93v0s0,0,0,0ZM8.38,6.74v0l0,0Zm2.21,4.57h-.05C10.47,11.21,10.59,11.27,10.59,11.31ZM7.35,16.22v0H7.23Zm2.87,8.55h0Zm3.29.45a.08.08,0,0,1,0,0,.2.2,0,0,0-.08,0Zm2.85,4.24h-.22l-.16,0Zm1.82.32h0Zm91.28-.51a.08.08,0,0,1,0,0l.06,0Z" fill-rule="evenodd"/><path d="M21.88,31.34c1.95-.09,3.88.43,5.84.27A17.1,17.1,0,0,0,21.88,31.34Z" fill-rule="evenodd"/></symbol><symbol id="play" viewBox="0 0 159.22 159.22"><title>play</title><path d="M79.61,159.22a79.61,79.61,0,1,1,79.61-79.61A79.7,79.7,0,0,1,79.61,159.22ZM79.61,1a78.61,78.61,0,1,0,78.61,78.61A78.69,78.69,0,0,0,79.61,1Z"/><path d="M159.22,159.22H0V0H159.22ZM1,158.22H158.22V1H1Z"/><polygon points="86.21 79.61 79.61 83.42 73.01 87.23 73.01 79.61 73.01 71.98 79.61 75.8 86.21 79.61"/></symbol><symbol id="plus" viewBox="0 0 121 121"><title>plus</title><rect x="55" width="11" height="121"/><rect y="55" width="121" height="11"/></symbol><symbol id="right" viewBox="0 0 106.77 106.77"><title>right</title><polygon points="30.58 106.77 22.8 99 68.41 53.39 22.8 7.78 30.58 0 83.97 53.39 30.58 106.77"/></symbol><symbol id="send" viewBox="0 0 45 45"><title>send</title><path d="M3,40.5l42-18L3,4.5l0,14,30,4-30,4Z"/></symbol><symbol id="social-facebook" viewBox="0 0 32 32"><title>social-facebook</title><path d="M23.38,10.41h-5V7.11a1.34,1.34,0,0,1,1.4-1.53H23.3V.14l-4.89,0c-5.42,0-6.65,4.06-6.65,6.66v3.63H8.62V16h3.14V31.88h6.59V16H22.8Z"/></symbol><symbol id="social-instagram" viewBox="0 0 32 32"><title>social-instagram</title><path d="M25.12,1.13H6.88A5.75,5.75,0,0,0,1.13,6.87V25.13a5.75,5.75,0,0,0,5.75,5.74H25.12a5.75,5.75,0,0,0,5.75-5.74V6.87A5.75,5.75,0,0,0,25.12,1.13Zm1.65,3.42h.66v5l-5,0,0-5Zm-15,8.4a5.2,5.2,0,0,1,8.48,0,5.13,5.13,0,0,1,1,3.05A5.24,5.24,0,1,1,11.76,13ZM28,25.13A2.86,2.86,0,0,1,25.12,28H6.88A2.86,2.86,0,0,1,4,25.13V13H8.47A7.94,7.94,0,0,0,7.87,16a8.13,8.13,0,0,0,16.26,0,7.94,7.94,0,0,0-.6-3.05H28Z"/></symbol><symbol id="social-pinterest" viewBox="0 0 32 32"><title>social-pinterest</title><path d="M16,.84A15.16,15.16,0,0,0,9.92,29.89a13.15,13.15,0,0,1,.26-3.49l2-8.26a5.73,5.73,0,0,1-.49-2.4c0-2.24,1.31-3.92,2.93-3.92a2,2,0,0,1,2,2.28c0,1.38-.88,3.46-1.33,5.38a2.35,2.35,0,0,0,2.39,2.92c2.87,0,4.81-3.69,4.81-8.06,0-3.33-2.24-5.81-6.31-5.81A7.18,7.18,0,0,0,8.7,15.79a4.37,4.37,0,0,0,1,3,.74.74,0,0,1,.22.85c-.07.27-.24.95-.31,1.21a.52.52,0,0,1-.76.38c-2.12-.86-3.1-3.18-3.1-5.79,0-4.31,3.63-9.47,10.83-9.47,5.79,0,9.6,4.19,9.6,8.68,0,6-3.31,10.39-8.18,10.39a4.31,4.31,0,0,1-3.7-1.89s-.88,3.5-1.07,4.17a12.49,12.49,0,0,1-1.53,3.25A15.16,15.16,0,1,0,16,.84Z"/></symbol><symbol id="social-twitter" viewBox="0 0 32 32"><title>social-twitter</title><path d="M31.07,5.94a11.42,11.42,0,0,1-3.56,1,6.63,6.63,0,0,0,2.73-3.67A12.52,12.52,0,0,1,26.3,4.93a5.94,5.94,0,0,0-4.51-2.11,6.43,6.43,0,0,0-6.18,6.65A7.43,7.43,0,0,0,15.77,11,17.13,17.13,0,0,1,3,4a7,7,0,0,0-.84,3.34A6.73,6.73,0,0,0,5,12.91a5.83,5.83,0,0,1-2.8-.82v.09A6.56,6.56,0,0,0,7.1,18.7a5.78,5.78,0,0,1-1.63.22,4.53,4.53,0,0,1-1.16-.12,6.24,6.24,0,0,0,5.78,4.63,11.83,11.83,0,0,1-7.68,2.84,12.12,12.12,0,0,1-1.48-.09,16.53,16.53,0,0,0,9.48,3C21.78,29.18,28,19,28,10.24c0-.28,0-.56,0-.85A13.43,13.43,0,0,0,31.07,5.94Z"/></symbol><symbol id="square" viewBox="0 0 150 150">
<style type="text/css">
	.st0{fill:none;stroke:#000000;stroke-miterlimit:10;}
</style>
<path class="st0" d="M74.4,4 146,4 146,146 3.9,146 3,4 74,4 "/>
</symbol><symbol id="step1" viewBox="0 0 343.77 191.94"><title>step1</title><path d="M96.13,191.94a95.82,95.82,0,1,1,95.81-95.82A95.92,95.92,0,0,1,96.13,191.94Zm0-190.63a94.82,94.82,0,1,0,94.81,94.81A94.92,94.92,0,0,0,96.13,1.31Z"/><path d="M343.77,191.94H0V0H343.77ZM1,190.94H342.77V1H1Z"/><path d="M313.49,191.94H253.94V54.72h-30.5V0h90.05Zm-58.55-1h57.55V1H224.44V53.72h30.5Z"/><path d="M97.57,94.21a.53.53,0,0,0,.35.13.54.54,0,0,0,.39-.17l19-20.84a.62.62,0,0,0,.11-.17.55.55,0,0,0,0-.4.66.66,0,0,0-.12-.17,14.54,14.54,0,0,0-10.52-3.78,14.38,14.38,0,0,0-2.72.39l0,0-6.21-2.28a.51.51,0,0,0-.56.14l-7.32,8a.52.52,0,0,0-.08.58l2.73,5.7-10,15.94h-.1a4.51,4.51,0,0,0,0,9c.13,0,.25,0,.38,0l4.42,11.42H80.61a.53.53,0,0,0-.42.21l-2.08,2.78H75.38a.52.52,0,0,0-.52.53v3.69a.52.52,0,0,0,.52.52H99.61a.52.52,0,0,0,.52-.52v-3.69a.52.52,0,0,0-.52-.53H96.88l-2.08-2.78a.54.54,0,0,0-.42-.21h-6.1L83.77,106a4.47,4.47,0,0,0-.2-8.57l9.24-14.64c0,.42,0,.85,0,1.27A14.49,14.49,0,0,0,97.57,94.21Zm1.51,30.14H75.9v-2.64H99.08Zm-3.51-3.69H79.42l1.45-1.94H94.12Zm-9.76-18.88a3.46,3.46,0,1,1-3.46-3.46A3.46,3.46,0,0,1,85.81,101.78Zm21-31.92.65,0A13.51,13.51,0,0,1,116.13,73l-9.12,10-9.12,10a13.56,13.56,0,0,1,8.87-23.21ZM97.7,68l4.64,1.7a14.59,14.59,0,0,0-9.2,10.56l-2.27-4.74Z"/></symbol><symbol id="step2" viewBox="0 0 343.77 191.94"><title>step2</title><path d="M96.12,191.94a95.82,95.82,0,1,1,95.82-95.82A95.92,95.92,0,0,1,96.12,191.94Zm0-190.63a94.82,94.82,0,1,0,94.82,94.81A94.92,94.92,0,0,0,96.12,1.31Z"/><path d="M343.77,191.94H0V0H343.77ZM1,190.94H342.77V1H1Z"/><path d="M343.59,191.94H197.25V145.55l.19-.15L262.1,95.69c7.72-6.11,13.32-11,16.65-14.62a16.87,16.87,0,0,0,4.89-11.61,13.45,13.45,0,0,0-3.92-10.1,13.85,13.85,0,0,0-10-3.8,13.38,13.38,0,0,0-10.89,5c-2.72,3.33-4.19,8.26-4.37,14.64v.48H196.7v-.5a88.67,88.67,0,0,1,5.2-31.28,66.21,66.21,0,0,1,14.64-23.41,64.43,64.43,0,0,1,23-14.78,84.08,84.08,0,0,1,30.2-5.2,87.53,87.53,0,0,1,29.51,4.79,70,70,0,0,1,23.12,13.41,59.83,59.83,0,0,1,15.07,20.68,64.51,64.51,0,0,1,5.34,26.28,66.71,66.71,0,0,1-2.33,17.93,56.33,56.33,0,0,1-7.95,16.59A97.53,97.53,0,0,1,318,116.55a197.65,197.65,0,0,1-21.92,17.16,75.69,75.69,0,0,1-7,4.64c-1.18.68-2.24,1.27-3.21,1.79h57.66Zm-145.34-1H342.59v-49.8H281.74l1.91-.95c1.41-.7,3-1.59,5-2.7a76.88,76.88,0,0,0,6.88-4.59,197.29,197.29,0,0,0,21.82-17.08A97.37,97.37,0,0,0,331.68,99.6a55.8,55.8,0,0,0,7.81-16.29,65.91,65.91,0,0,0,2.29-17.66,63.42,63.42,0,0,0-5.26-25.88,59,59,0,0,0-14.81-20.34,69,69,0,0,0-22.8-13.21,86.51,86.51,0,0,0-29.17-4.73A83.18,83.18,0,0,0,239.9,6.62a63.3,63.3,0,0,0-22.65,14.56,65.23,65.23,0,0,0-14.42,23,87.54,87.54,0,0,0-5.13,30.43h55.8c.24-6.37,1.78-11.33,4.58-14.76a14.35,14.35,0,0,1,11.66-5.34,14.78,14.78,0,0,1,10.67,4.08,14.4,14.4,0,0,1,4.23,10.82,17.82,17.82,0,0,1-5.16,12.29c-3.36,3.63-9,8.58-16.76,14.72h0L198.25,146Z"/><path d="M112.38,102.33V73a4.77,4.77,0,0,0-4.52-5H78.5a5,5,0,0,0-4.7,5.18v.54h8.3v28.61H76v21.92h42.42V102.33ZM74.93,72.63a3.57,3.57,0,0,1,7.14,0Zm8.26,1.09v-.54a5.37,5.37,0,0,0-1.84-4.09h26.51A3.68,3.68,0,0,1,111.28,73v29.35H83.19Zm34.16,49.44H77.12V103.42h40.23Z"/><path d="M94,82.65a1.53,1.53,0,0,1,1.53,1.53.55.55,0,0,0,.55.55.55.55,0,0,0,.54-.55,2.63,2.63,0,0,0-2.07-2.57v-.79a.55.55,0,1,0-1.1,0v.79a2.64,2.64,0,0,0-2.08,2.57,2.46,2.46,0,0,0,2.59,2.62A1.54,1.54,0,0,1,94,89.87h0a1.53,1.53,0,0,1-1.53-1.49.57.57,0,0,0-.57-.53.55.55,0,0,0-.53.56,2.63,2.63,0,0,0,2.08,2.49v.8a.55.55,0,0,0,1.1,0v-.8a2.62,2.62,0,0,0-.57-5.19,1.38,1.38,0,0,1-1.51-1.53A1.52,1.52,0,0,1,94,82.65Z"/><path d="M101.82,82.65a1.53,1.53,0,0,1,1.54,1.53.55.55,0,0,0,.54.55.55.55,0,0,0,.55-.55,2.64,2.64,0,0,0-2.08-2.57v-.79a.55.55,0,1,0-1.09,0v.79a2.63,2.63,0,0,0-2.08,2.57,2.46,2.46,0,0,0,2.58,2.62,1.53,1.53,0,0,1,1.57,1.49,1.52,1.52,0,0,1-1.48,1.58,1.56,1.56,0,0,1-1.58-1.49.57.57,0,0,0-.56-.53.55.55,0,0,0-.53.56,2.61,2.61,0,0,0,2.08,2.49v.8a.55.55,0,0,0,1.09,0v-.8a2.62,2.62,0,0,0-.56-5.19,1.38,1.38,0,0,1-1.52-1.53A1.53,1.53,0,0,1,101.82,82.65Z"/></symbol><symbol id="step3" viewBox="0 0 343.77 191.94"><title>step3</title><path d="M96.13,191.94a95.82,95.82,0,1,1,95.81-95.82A95.92,95.92,0,0,1,96.13,191.94Zm0-190.63a94.82,94.82,0,1,0,94.81,94.81A94.92,94.92,0,0,0,96.13,1.31Z"/><path d="M343.77,191.94H0V0H343.77ZM1,190.94H342.77V1H1Z"/><path d="M271.29,191.92a92.11,92.11,0,0,1-29.63-4.54A61.72,61.72,0,0,1,218.91,174a60.72,60.72,0,0,1-14.59-21.81c-3.46-8.61-5.21-18.63-5.21-29.79v-.5H255.3l0,.47c.35,5.71,1.91,10.25,4.66,13.51a13.45,13.45,0,0,0,10.77,4.87c4.64,0,8.42-1.21,11.23-3.6a12.11,12.11,0,0,0,4.2-9.71,11.53,11.53,0,0,0-4.46-9.43c-3-2.39-7.22-3.61-12.56-3.61h-8.73V73.57H267a13.62,13.62,0,0,0,9.62-3.45,11.26,11.26,0,0,0,3.69-8.53,11.14,11.14,0,0,0-3.19-7.76c-2.1-2.27-5.15-3.42-9.05-3.42-4.29,0-7.37,1.49-9.41,4.55a20.85,20.85,0,0,0-3.37,10.9l0,.48h-53v-.5a72.63,72.63,0,0,1,5-27.41A57.5,57.5,0,0,1,221,18,60,60,0,0,1,242.45,5.23,83.7,83.7,0,0,1,270.23.82a84.83,84.83,0,0,1,26.57,4,68.23,68.23,0,0,1,21,11,50.17,50.17,0,0,1,13.81,16.76,46.2,46.2,0,0,1,5,21.06c0,15.4-6.45,27.7-19.17,36.58,8.52,4.38,15.08,9.89,19.48,16.37,4.55,6.69,6.86,15.14,6.86,25.11a55,55,0,0,1-20.36,43.53,71.29,71.29,0,0,1-23,12.3A93,93,0,0,1,271.29,191.92Zm-71.18-69c0,10.83,1.78,20.56,5.14,28.91a59.82,59.82,0,0,0,14.35,21.46A60.65,60.65,0,0,0,242,186.43a97.54,97.54,0,0,0,58.09.13,70.33,70.33,0,0,0,22.68-12.12,54,54,0,0,0,20-42.76c0-9.77-2.25-18-6.68-24.54S324.94,95.08,316.2,90.71l-.76-.38.71-.48C329,81.14,335.57,69,335.57,53.62A45.09,45.09,0,0,0,330.71,33a49,49,0,0,0-13.53-16.43,67.3,67.3,0,0,0-20.69-10.8,88.91,88.91,0,0,0-53.71.39,58.92,58.92,0,0,0-21.06,12.51,56.53,56.53,0,0,0-13.55,20.13,71.36,71.36,0,0,0-4.88,26.53h51.07a21.66,21.66,0,0,1,3.51-10.93c2.21-3.32,5.66-5,10.24-5,4.19,0,7.48,1.26,9.79,3.74a12.38,12.38,0,0,1-.56,17.7h0A14.56,14.56,0,0,1,267,74.57h-5.6v38.82h7.73c5.57,0,10,1.29,13.19,3.83a12.51,12.51,0,0,1,4.83,10.21,13,13,0,0,1-4.56,10.47c-3,2.55-7,3.84-11.87,3.84a14.38,14.38,0,0,1-11.53-5.23c-2.82-3.33-4.45-7.91-4.87-13.62Z"/><path d="M112.5,101l0-.29a14.25,14.25,0,0,0-.22-1.48.29.29,0,0,1,0-.09q-.17-.77-.39-1.5v0a16.3,16.3,0,0,0-4-6.61l-.26-.26c-.26-.25-.52-.49-.79-.72s-.43-.35-.65-.52l-.53-.4c-.22-.16-.45-.31-.68-.46l-.08,0-2.31-8.81,2.58-5.23a.48.48,0,0,0,0-.48.49.49,0,0,0-.42-.24H87.55a.5.5,0,0,0-.43.24.48.48,0,0,0,0,.48l2.59,5.23-2.32,8.81-.07,0-.69.46-.53.4-.64.52c-.28.23-.54.47-.8.72l-.25.26a16.19,16.19,0,0,0-4,6.61v0q-.22.73-.39,1.5s0,.06,0,.09a14.26,14.26,0,0,0-.23,1.48l0,.29c0,.5-.08,1-.08,1.51a.5.5,0,0,0,.5.5H92.24L95.64,118a.49.49,0,0,0,.49.39h0a.5.5,0,0,0,.49-.4l3.1-15h12.36a.5.5,0,0,0,.5-.5A15.11,15.11,0,0,0,112.5,101ZM88.35,74.82H103.9l-2,4.11H90.38Zm2.3,5.23v0a.54.54,0,0,0,0-.1h10.88s0,0,0,.07l2.07,7.88a16.35,16.35,0,0,0-15.07,0Zm5.46,35.51L93.27,103H98.7ZM80.69,102a.86.86,0,0,1,0-.16,15.55,15.55,0,0,1,.36-2.76c0-.06,0-.12,0-.18a15.33,15.33,0,0,1,2.38-5.26v0a15.46,15.46,0,0,1,1.74-2l.29-.28c.21-.2.43-.4.66-.59s.51-.41.78-.61l.35-.25c.23-.16.46-.32.7-.47a15.35,15.35,0,0,1,16.23,0l.71.47.34.25.79.61.65.59.3.28a15.38,15.38,0,0,1,1.73,2l0,0a15.31,15.31,0,0,1,2.37,5.26,1.16,1.16,0,0,1,0,.18,15.55,15.55,0,0,1,.37,2.76V102Z"/></symbol><symbol id="step4" viewBox="0 0 343.77 191.94"><title>step4</title><path d="M96.13,191.94a95.82,95.82,0,1,1,95.81-95.82A95.92,95.92,0,0,1,96.13,191.94Zm0-190.63a94.82,94.82,0,1,0,94.81,94.81A94.92,94.92,0,0,0,96.13,1.31Z"/><path d="M343.77,191.94H0V0H343.77ZM1,190.94H342.77V1H1Z"/><path d="M343.77,191.94H287.31V158.82H200.63V119.23l.06-.12L269.68,0h74.09V110.46h-1V1H270.26L201.63,119.5v38.32h86.68v33.12h54.46V158.32h1Zm-54.91-81H261.08l27.78-55.5Zm-26.16-1h25.16V59.69Z"/><path d="M117.91,81.8l-7.44-7.45a1.19,1.19,0,0,0-.76-.36h-.11a1.13,1.13,0,0,0-.78.35L76.19,107a1.28,1.28,0,0,0-.33.59L74,116.87a1.17,1.17,0,0,0,.17.87,1.14,1.14,0,0,0,.73.5l.23,0a.86.86,0,0,0,.22,0l9.3-1.85a1.18,1.18,0,0,0,.64-.3l32.63-32.64a1.15,1.15,0,0,0,.34-.82A1.17,1.17,0,0,0,117.91,81.8ZM109.63,75h0ZM75.11,117.26a.15.15,0,0,1-.1-.07.18.18,0,0,1,0-.12l1.78-8.8L84,115.5Zm9.8-2.27-7.66-7.66,28.66-28.66,7.68,7.7Zm32.31-32.24-2.92,2.92L106.61,78,109.54,75a.12.12,0,0,1,.1-.05.2.2,0,0,1,.11.06l7.47,7.47a.17.17,0,0,1,0,.11A.17.17,0,0,1,117.22,82.75Z"/></symbol><symbol id="step5" viewBox="0 0 343.77 191.94"><title>step5</title><path d="M96.09,191.94a95.82,95.82,0,1,1,95.82-95.82A95.92,95.92,0,0,1,96.09,191.94Zm0-190.63a94.82,94.82,0,1,0,94.82,94.81A94.92,94.92,0,0,0,96.09,1.31Z"/><path d="M343.74,191.94H0V0H343.74ZM1,190.94H342.74V1H1Z"/><path d="M270.51,191.93a94.89,94.89,0,0,1-30.58-4.66,67.31,67.31,0,0,1-23.25-13.17,59.41,59.41,0,0,1-14.93-20.6,68.7,68.7,0,0,1-5.61-26.61v-.51h56.36l0,.44c.35,3,2,5.88,5,8.68s7.05,4.22,12.15,4.22a17.22,17.22,0,0,0,12.68-5,18.11,18.11,0,0,0,0-25,17.5,17.5,0,0,0-12.69-4.9,18.51,18.51,0,0,0-16.13,9l-.18.32L200.7,103l.06-.46L214.94,0H331V49.21H258.18L256,63.36a64.2,64.2,0,0,1,51.56-1,58.54,58.54,0,0,1,19.31,13.33,61.15,61.15,0,0,1,12.46,19.77,65.54,65.54,0,0,1,4.52,24.29,76.26,76.26,0,0,1-5.33,28.78,68.77,68.77,0,0,1-15.05,22.91,67.72,67.72,0,0,1-23.26,15.09A80.27,80.27,0,0,1,270.51,191.93Zm-73.36-64.55a67.48,67.48,0,0,0,5.51,25.71,58.41,58.41,0,0,0,14.68,20.26,66.31,66.31,0,0,0,22.92,13,93.67,93.67,0,0,0,30.25,4.61,79.43,79.43,0,0,0,29.29-5.28,66.68,66.68,0,0,0,22.91-14.87,67.83,67.83,0,0,0,14.83-22.57,75.36,75.36,0,0,0,5.26-28.41,64.4,64.4,0,0,0-4.45-23.92A60.49,60.49,0,0,0,326.1,76.42a57.79,57.79,0,0,0-19-13.09,63.12,63.12,0,0,0-51.59,1.35l-.87.44,2.66-16.91H330V1H215.82l-14,101.24L252.88,113a19.52,19.52,0,0,1,6.5-6.4,19.11,19.11,0,0,1,10.32-2.8A18.44,18.44,0,0,1,283.08,109a19.11,19.11,0,0,1,0,26.45,18.21,18.21,0,0,1-13.39,5.32c-5.36,0-9.68-1.51-12.84-4.49-3-2.83-4.77-5.81-5.25-8.85Z"/><path d="M122.69,79.39a.48.48,0,0,0-.7,0l-6.6,6.33v-.55a7.05,7.05,0,0,0-7-7H86.41a7.06,7.06,0,0,0-7.06,7v21.93a7.06,7.06,0,0,0,7.06,7h21.93a7.05,7.05,0,0,0,7-7v-20l7.29-7A.5.5,0,0,0,122.69,79.39Zm-8.3,27.7a6.05,6.05,0,0,1-6,6H86.41a6.06,6.06,0,0,1-6.06-6V85.16a6.06,6.06,0,0,1,6.06-6h21.93a6.05,6.05,0,0,1,6,6v1.52L96.42,104l-5.5-6.09a.49.49,0,0,0-.7,0,.48.48,0,0,0,0,.7L96,105a.53.53,0,0,0,.35.17h0a.52.52,0,0,0,.35-.14l17.65-17Z"/></symbol></svg>