<?xml version="1.0" encoding="utf-8"?>
<!-- Generator: Adobe Illustrator 22.0.1, SVG Export Plug-In . SVG Version: 6.00 Build 0)  -->
<svg version="1.1" id="Layer_1" xmlns="http://www.w3.org/2000/svg" xmlns:xlink="http://www.w3.org/1999/xlink" x="0px" y="0px"
	 viewBox="0 0 400 305.2" style="enable-background:new 0 0 400 305.2;" xml:space="preserve">
<style type="text/css">
	.st0{display:none;}
	.st1{display:inline;}
	.st2{fill:url(#SVGID_1_);}
	.st3{fill:url(#SVGID_2_);}
	.st4{fill:url(#SVGID_3_);}
	.st5{fill:url(#SVGID_4_);}
	.st6{fill:url(#SVGID_5_);}
	.st7{fill:url(#SVGID_6_);}
	.st8{fill:url(#SVGID_7_);}
	.st9{fill:url(#SVGID_8_);}
	.st10{fill:url(#SVGID_9_);}
	.st11{fill:url(#SVGID_10_);}
	.st12{fill:url(#SVGID_11_);}
	.st13{fill:url(#SVGID_12_);}
	.st14{fill:url(#SVGID_13_);}
	.st15{fill:url(#SVGID_14_);}
	.st16{fill:url(#SVGID_15_);}
	.st17{fill:url(#SVGID_16_);}
	.st18{fill:url(#SVGID_17_);}
	.st19{fill:url(#SVGID_18_);}
	.st20{fill:url(#SVGID_19_);}
	.st21{fill:url(#SVGID_20_);}
	.st22{fill:url(#SVGID_21_);}
	.st23{fill:url(#SVGID_22_);}
	.st24{fill:url(#SVGID_23_);}
	.st25{fill:url(#SVGID_24_);}
	.st26{fill:url(#SVGID_25_);}
	.st27{fill:url(#SVGID_26_);}
	.st28{fill:url(#SVGID_27_);}
	.st29{fill:url(#SVGID_28_);}
	.st30{fill:url(#SVGID_29_);}
	.st31{fill:url(#SVGID_30_);}
</style>
<g class="st0">
	<rect x="-6.5" y="-49.9" class="st1" width="406" height="412"/>
	<path class="st1" d="M399-49.4v411H-6v-411L399-49.4 M400-50.4H-7v413h407V-50.4L400-50.4z"/>
</g>
<g class="st0">
	<g class="st1">
		<g>
			<g>
				
					<linearGradient id="SVGID_1_" gradientUnits="userSpaceOnUse" x1="221.8816" y1="65.582" x2="221.8816" y2="26.8427" gradientTransform="matrix(1 0 0 -1 0 308)">
					<stop  offset="0" style="stop-color:#BF902D"/>
					<stop  offset="0.3274" style="stop-color:#FBF8CD"/>
					<stop  offset="0.6942" style="stop-color:#ECD485"/>
					<stop  offset="1" style="stop-color:#BF902D"/>
				</linearGradient>
				<path class="st2" d="M237.6,253.4c-0.9-4.4-3.3-7.6-7.4-9.5c-2.1-0.9-4.3-1.4-6.6-1.5c-4.2-0.2-8.3,0.5-12.1,2.6
					c-1.3,0.7-2.6,1.6-3.7,2.6c1.4,1.9,2.9,3.8,4.3,5.7c0.7-0.5,1.3-1,1.9-1.4c2.5-1.7,5.2-3,8.3-3.1c2.5-0.1,4.7,0.6,6.3,2.7
					c1.3,1.7,1.9,3.6,1.9,5.8v7.3l0,0c0.1,4.7-2.6,7.6-6.5,9.1c-2.1,0.8-4.2,1-6.4,0.8c-3.5-0.4-5.4-4.4-3.4-7.4
					c1.1-1.7,2.8-2.5,4.7-3.1c1-0.3,2.1-0.4,3.2-0.4c1,0,2,0,3,0v-6.2c-2,0-4.1,0-6.1,0.2c-2.5,0.3-4.9,0.9-7.1,2.1
					c-4.7,2.6-6.6,7.1-5.9,12c0.5,3.5,2.5,6,5.4,7.8c2.1,1.3,4.3,1.8,6.6,1.8c0.6,0,1.2,0,1.8,0l0,0c4.6,0,8-0.9,10.5-2.4
					c7.1-4,7.5-11.7,7.5-12.5c0-2.9,0-5.8,0-8.8C238,256.1,237.9,254.7,237.6,253.4z"/>
			</g>
			<g>
				
					<linearGradient id="SVGID_2_" gradientUnits="userSpaceOnUse" x1="38.25" y1="81.8135" x2="38.25" y2="26.8135" gradientTransform="matrix(1 0 0 -1 0 308)">
					<stop  offset="0" style="stop-color:#BF902D"/>
					<stop  offset="0.3274" style="stop-color:#FBF8CD"/>
					<stop  offset="0.6942" style="stop-color:#ECD485"/>
					<stop  offset="1" style="stop-color:#BF902D"/>
				</linearGradient>
				<path class="st3" d="M53.6,251.5c-1-2.1-2.2-3.9-3.7-5.3c3.1-2.7,4.2-6.4,3.7-10.4c-0.5-3.5-2.5-6-5.4-7.8
					c-2.1-1.3-4.3-1.8-6.6-1.9c-0.6,0-1.2,0-1.8,0.1h-0.1c-1,0-1.9,0-2.8,0.1v7c1.7-0.5,3.4-0.6,5.2-0.4c3.5,0.4,5.4,4.4,3.4,7.4
					c-0.7,1-1.5,1.7-2.5,2.2c-0.7,0.4-1.4,0.7-2.2,0.9c-1,0.3-2.1,0.4-3.2,0.4c-1,0-2,0-2.9,0h-0.1v6.2h0.1l0,0h0.4
					c1.9,0,3.7,0,5.6-0.2c0.4,0,0.8-0.1,1.1-0.2c2,0.7,3.5,2.1,4.6,4.1c0.2,0.3,0.3,0.6,0.4,0.9c0.4,1,0.5,2.1,0.5,3.2
					c0,1.3,0,2.6,0,3.9l0,0c0,0.3,0,0.7,0,1c0,1.3,0,2.6,0,3.9c-0.2,3.9-3.2,7-7.2,7.4c-5.6,0.6-9.5-3.5-10.5-8
					c-0.2-0.9-0.2-1.9-0.3-2.8c0-0.1,0-0.3,0-0.4c0-0.4,0-0.9,0-1.3V251c0-0.3-0.1-0.6-0.1-1v-7.3c0-0.1,0-0.2,0-0.3
					c0-0.4,0-0.8,0.1-1.2l0,0c0-4,0-8.4,0-12.7l0,0c-7.1,4-7.5,11.7-7.5,12.5v22.5c0,3.1,0.3,6.7,1.8,9.4c1.1,2.1,2.7,3.9,5.2,5.6
					c2.4,1.5,5.8,2.6,9.9,2.6l0,0c0.4,0,1-0.1,1.4-0.1c1.4,0,2.8-0.2,4.1-0.5c3.8-0.9,6.7-3,8.6-6.5c1.3-2.4,1.8-5,1.9-7.8
					c0-3.2,0-6.3,0-9.5C54.7,255,54.4,253.2,53.6,251.5z"/>
			</g>
			<g>
				
					<linearGradient id="SVGID_3_" gradientUnits="userSpaceOnUse" x1="148.85" y1="81.8136" x2="148.85" y2="26.8136" gradientTransform="matrix(1 0 0 -1 0 308)">
					<stop  offset="0" style="stop-color:#BF902D"/>
					<stop  offset="0.3274" style="stop-color:#FBF8CD"/>
					<stop  offset="0.6942" style="stop-color:#ECD485"/>
					<stop  offset="1" style="stop-color:#BF902D"/>
				</linearGradient>
				<path class="st4" d="M158,246L158,246v15.6l0,0c0,0.4,0,0.9,0,1.3c0,1.1-0.1,2.2-0.3,3.2c-0.9,4.6-4.9,8.6-10.5,8
					c-3.9-0.4-7-3.5-7.2-7.4c-0.1-1.6,0-3.3,0-4.9l0,0c0-1.3,0-2.6,0-4s0.2-2.8,0.9-4.1c1.5-2.8,3.8-4.4,7-4.6
					c1.6-0.1,3.3,0.3,4.7,1.1v-6.7v-0.8c-1.8-0.6-3.8-0.8-5.8-0.7c-6.2,0.6-10.7,3.7-13.3,9.4c-0.8,1.7-1.1,3.4-1.1,5.3
					c0,3.2,0,6.3,0,9.5c0,2.7,0.6,5.3,1.9,7.8c1.9,3.5,4.8,5.5,8.6,6.5c1.4,0.3,2.8,0.5,4.1,0.5c0.4,0,1,0.1,1.4,0.1l0,0
					c4.1,0,7.6-1,9.9-2.6c2.5-1.6,4.1-3.5,5.2-5.6c1.5-2.7,1.8-6.3,1.8-9.4v-37.4H158V246z"/>
			</g>
			<g>
				
					<linearGradient id="SVGID_4_" gradientUnits="userSpaceOnUse" x1="112.05" y1="81.8136" x2="112.05" y2="26.8136" gradientTransform="matrix(1 0 0 -1 0 308)">
					<stop  offset="0" style="stop-color:#BF902D"/>
					<stop  offset="0.3274" style="stop-color:#FBF8CD"/>
					<stop  offset="0.6942" style="stop-color:#ECD485"/>
					<stop  offset="1" style="stop-color:#BF902D"/>
				</linearGradient>
				<path class="st5" d="M121.2,246L121.2,246v15.6l0,0c0,0.4,0,0.9,0,1.3c0,1.1-0.1,2.2-0.3,3.2c-0.9,4.6-4.9,8.6-10.5,8
					c-3.9-0.4-7-3.5-7.2-7.4c-0.1-1.6,0-3.3,0-4.9l0,0c0-1.3,0-2.6,0-4s0.2-2.8,0.9-4.1c1.5-2.8,3.8-4.4,7-4.6
					c1.6-0.1,3.3,0.3,4.7,1.1v-6.7v-0.8c-1.8-0.6-3.8-0.8-5.8-0.7c-6.2,0.6-10.7,3.7-13.3,9.4c-0.8,1.7-1.1,3.4-1.1,5.3
					c0,3.2,0,6.3,0,9.5c0,2.7,0.6,5.3,1.9,7.8c1.9,3.5,4.8,5.5,8.6,6.5c1.4,0.3,2.8,0.5,4.1,0.5c0.4,0,1,0.1,1.4,0.1l0,0
					c4.1,0,7.6-1,9.9-2.6c2.5-1.6,4.1-3.5,5.2-5.6c1.5-2.7,1.8-6.3,1.8-9.4v-37.4H121V246H121.2z"/>
			</g>
			<g>
				
					<linearGradient id="SVGID_5_" gradientUnits="userSpaceOnUse" x1="189.55" y1="81.6055" x2="189.55" y2="12.2055" gradientTransform="matrix(1 0 0 -1 0 308)">
					<stop  offset="0" style="stop-color:#BF902D"/>
					<stop  offset="0.3274" style="stop-color:#FBF8CD"/>
					<stop  offset="0.6942" style="stop-color:#ECD485"/>
					<stop  offset="1" style="stop-color:#BF902D"/>
				</linearGradient>
				<path class="st6" d="M203.7,284.1c-0.3-1.2-0.4-2.5-0.4-3.8v-23.1c0-3.1-0.3-6.7-1.8-9.4c-1.1-2.1-2.7-3.9-5.2-5.6
					c-2.4-1.5-5.8-2.6-9.9-2.6l0,0c-0.4,0-1,0.1-1.4,0.1c-1.4,0-2.8,0.2-4.1,0.5c-1.1,0.3-2,0.6-3,1v-14.9h-7.5v54.5h7.5
					c0,0,0.1-26.3,0.1-26.8c0.2-3.9,3.2-7,7.2-7.4c5.6-0.6,9.5,3.5,10.5,8c0.2,1.1,0.3,2.2,0.3,3.2c0,0.3,0,0.6,0,0.9l0,0V276
					c0,1.6,0,3.1,0,4.7c0,0.6,0,1.1,0,1.7c0.1,2.2,0.5,4.4,1.4,6.5c1.2,2.7,3.1,4.6,5.7,5.7c0.4,0.2,0.8,0.3,1.3,0.4
					c1.4,0.4,2.9,0.6,4.3,0.7v-7.1C206,288.1,204.4,286.7,203.7,284.1z"/>
			</g>
			<g>
				
					<linearGradient id="SVGID_6_" gradientUnits="userSpaceOnUse" x1="66.413" y1="65.1" x2="66.413" y2="26.8504" gradientTransform="matrix(1 0 0 -1 0 308)">
					<stop  offset="0" style="stop-color:#BF902D"/>
					<stop  offset="0.3274" style="stop-color:#FBF8CD"/>
					<stop  offset="0.6942" style="stop-color:#ECD485"/>
					<stop  offset="1" style="stop-color:#BF902D"/>
				</linearGradient>
				<path class="st7" d="M66.6,267.6c0-0.2,0-0.5-0.1-0.7c0-0.5,0-1,0-1.4V262l0,0v-3.9c0-0.3,0-0.5,0-0.8v-14.4h-7.6v19
					c0,1.5,0,3,0,4.5c0,0.3,0,0.6,0,0.8c0.1,2.4,0.7,4.7,1.8,6.9c1.4,2.5,3.3,4.3,5.7,5.5c0.9,0.4,1.9,0.8,2.9,1
					c1.1,0.3,2.3,0.4,3.4,0.5c0.7-1.1,1.2-2.4,1.2-4c0.1-1-0.1-2-0.4-2.9C70,273.9,67,271.2,66.6,267.6z"/>
			</g>
			<g>
				
					<linearGradient id="SVGID_7_" gradientUnits="userSpaceOnUse" x1="86.3" y1="65.0923" x2="86.3" y2="27.4923" gradientTransform="matrix(1 0 0 -1 0 308)">
					<stop  offset="0" style="stop-color:#BF902D"/>
					<stop  offset="0.3274" style="stop-color:#FBF8CD"/>
					<stop  offset="0.6942" style="stop-color:#ECD485"/>
					<stop  offset="1" style="stop-color:#BF902D"/>
				</linearGradient>
				<path class="st8" d="M84.5,246.2L84.5,246.2v15.6c0,0.4,0,0.9,0,1.3c0,1.1-0.1,2.2-0.3,3.2c-0.5,2.3-1.7,4.5-3.6,6
					c0,0.1,0.1,0.2,0.1,0.3c0.3,1.3,0.3,2.1,0.3,2.1c0.2,1.2,0.2,2.4,0.1,3.6c-0.1,0.8-0.2,1.5-0.3,2.3c1.6-0.5,3-1.1,4.2-1.8
					c2.5-1.6,4.1-3.5,5.2-5.6c1.5-2.7,1.8-6.3,1.8-9.4V243h-7.5C84.5,243,84.5,246.2,84.5,246.2z"/>
			</g>
		</g>
		<g>
			<g>
				
					<linearGradient id="SVGID_8_" gradientUnits="userSpaceOnUse" x1="300.55" y1="65.8698" x2="300.55" y2="14.27" gradientTransform="matrix(1 0 0 -1 0 308)">
					<stop  offset="0" style="stop-color:#BF902D"/>
					<stop  offset="0.3274" style="stop-color:#FBF8CD"/>
					<stop  offset="0.6942" style="stop-color:#ECD485"/>
					<stop  offset="1" style="stop-color:#BF902D"/>
				</linearGradient>
				<path class="st9" d="M315.6,251.3L315.6,251.3C315.6,251.2,315.6,251.2,315.6,251.3c-0.4-0.8-0.7-1.5-1.1-2.1
					c-5.1-7.9-15.2-7.1-15.2-7.1l0,0c-2.5,0-4.9,0.6-7.1,1.9c-5.2,2.9-8.1,7.2-8.2,13.3c0,2.8,0,5.6,0,8.3c0,2.6,0.6,5.1,1.8,7.4
					c2.8,5.4,8.5,8.7,14.7,8.1c1.5-0.1,2.9-0.5,4.2-1v-6.9c-2.3,1.3-4.8,1.6-7.4,0.7c-3-1-4.9-3.2-5.6-6.4c-0.1-0.5-0.1-1-0.1-1.6
					c0-1.4,0-2.7,0-4.1c0-1.3,0-2.7,0-4c0-3.6,1.7-6.1,4.9-7.6c3.4-1.5,7.3-1.1,10,1.7c1.9,2,3,4.4,3,7.2c0,1.2,0,2.5,0,3.7l0,0
					v15.4c0,0.3,0,0.7,0,1c-0.1,3.5-2.6,6.5-6,7.3c-1.5,0.4-3.1,0.4-4.6,0.2c-2.4-0.3-4.7-1-6.6-2.5c-0.4-0.3-0.8-0.7-1.3-1.1
					c-1.5,1.9-3.1,3.7-4.6,5.6c0.9,1,2,1.8,3.2,2.5c2.1,1.2,4.3,1.8,6.6,2.2c3.3,0.5,6.6,0.6,9.9-0.3c4.7-1.3,8-4.1,9.8-8.6
					c0.9-2.4,1.2-4.8,1.2-7.4c0-6.1,0-12.3,0-18.4C317,255.7,316.5,253.3,315.6,251.3z"/>
			</g>
			<g>
				
					<linearGradient id="SVGID_9_" gradientUnits="userSpaceOnUse" x1="341.15" y1="81.6055" x2="341.15" y2="12.2055" gradientTransform="matrix(1 0 0 -1 0 308)">
					<stop  offset="0" style="stop-color:#BF902D"/>
					<stop  offset="0.3274" style="stop-color:#FBF8CD"/>
					<stop  offset="0.6942" style="stop-color:#ECD485"/>
					<stop  offset="1" style="stop-color:#BF902D"/>
				</linearGradient>
				<path class="st10" d="M355.3,284.1c-0.3-1.2-0.4-2.5-0.4-3.8v-23.1c0-3.1-0.3-6.7-1.8-9.4c-1.1-2.1-2.7-3.9-5.2-5.6
					c-2.4-1.5-5.8-2.6-9.9-2.6l0,0c-0.4,0-1,0.1-1.4,0.1c-1.4,0-2.8,0.2-4.1,0.5c-1.1,0.3-2,0.6-3,1v-14.9H322v54.5h7.5
					c0,0,0.1-26.3,0.1-26.8c0.2-3.9,3.2-7,7.2-7.4c5.6-0.6,9.5,3.5,10.5,8c0.2,1.1,0.3,2.2,0.3,3.2c0,0.3,0,0.6,0,0.9l0,0V276
					c0,1.6,0,3.1,0,4.7c0,0.6,0,1.1,0,1.7c0.1,2.2,0.5,4.4,1.4,6.5c1.2,2.7,3.1,4.6,5.7,5.7c0.4,0.2,0.8,0.3,1.3,0.4
					c1.4,0.4,2.9,0.6,4.3,0.7v-7.1C357.6,288.1,355.9,286.7,355.3,284.1z"/>
			</g>
			<g>
				
					<linearGradient id="SVGID_10_" gradientUnits="userSpaceOnUse" x1="274.95" y1="64.9" x2="274.95" y2="26.8394" gradientTransform="matrix(1 0 0 -1 0 308)">
					<stop  offset="0" style="stop-color:#BF902D"/>
					<stop  offset="0.3274" style="stop-color:#FBF8CD"/>
					<stop  offset="0.6942" style="stop-color:#ECD485"/>
					<stop  offset="1" style="stop-color:#BF902D"/>
				</linearGradient>
				<path class="st11" d="M278.7,243.7c0-0.2,0-0.4,0-0.6c-2.5,0-5,0-7.5,0c0,0.1,0,0.2,0,0.3c0,6.6,0,31.1,0,37.8h7.5
					C278.7,274.6,278.7,250.2,278.7,243.7z"/>
			</g>
			<g>
				
					<linearGradient id="SVGID_11_" gradientUnits="userSpaceOnUse" x1="274.95" y1="81.6" x2="274.95" y2="70.9" gradientTransform="matrix(1 0 0 -1 0 308)">
					<stop  offset="0" style="stop-color:#BF902D"/>
					<stop  offset="0.3274" style="stop-color:#FBF8CD"/>
					<stop  offset="0.6942" style="stop-color:#ECD485"/>
					<stop  offset="1" style="stop-color:#BF902D"/>
				</linearGradient>
				<rect x="271.2" y="226.4" class="st12" width="7.5" height="10.7"/>
			</g>
			<g>
				
					<linearGradient id="SVGID_12_" gradientUnits="userSpaceOnUse" x1="262.2" y1="81.9" x2="262.2" y2="12.3" gradientTransform="matrix(1 0 0 -1 0 308)">
					<stop  offset="0" style="stop-color:#BF902D"/>
					<stop  offset="0.3274" style="stop-color:#FBF8CD"/>
					<stop  offset="0.6942" style="stop-color:#ECD485"/>
					<stop  offset="1" style="stop-color:#BF902D"/>
				</linearGradient>
				<path class="st13" d="M263.8,284.1c-0.3-1.2-0.4-2.5-0.4-3.8v-54.2h-7.6c0,0,0.1,55.7,0.1,56.3c0.1,2.2,0.5,4.4,1.4,6.5
					c1.2,2.7,3.1,4.6,5.7,5.7c0.4,0.2,0.8,0.3,1.3,0.4c1.4,0.4,2.9,0.6,4.3,0.7v-7.1C266.1,288.1,264.4,286.7,263.8,284.1z"/>
			</g>
			<g>
				
					<linearGradient id="SVGID_13_" gradientUnits="userSpaceOnUse" x1="369.6" y1="78.0835" x2="369.6" y2="26.839" gradientTransform="matrix(1 0 0 -1 0 308)">
					<stop  offset="0" style="stop-color:#BF902D"/>
					<stop  offset="0.3274" style="stop-color:#FBF8CD"/>
					<stop  offset="0.6942" style="stop-color:#ECD485"/>
					<stop  offset="1" style="stop-color:#BF902D"/>
				</linearGradient>
				<path class="st14" d="M373.2,273.9c-0.6-0.1-1.1-0.3-1.6-0.5c-1.8-0.7-3-2.1-3.6-4.2c-0.3-1.3-0.4-2.6-0.4-3.9
					c0-4.1,0-12,0-19.5h5.4v-7.5h-5.4c0-3.2,0-6,0-7.9v-0.6h-7.5v0.5c0,5.8,0,24.1,0,29.9c0,2.4,0,4.8,0.1,7.2
					c0.1,2.2,0.5,4.4,1.4,6.5c1.4,3,3.6,5.1,6.8,6.1c0.1,0,0.1,0,0.2,0.1c1.9,0.6,4.1,0.8,5.8,0.9c2.2,0.1,4.7,0,4.7,0v-6.8
					C377.2,274.2,375.4,274.4,373.2,273.9z"/>
			</g>
		</g>
	</g>
	<g class="st1">
		<g>
			
				<linearGradient id="SVGID_14_" gradientUnits="userSpaceOnUse" x1="157.9708" y1="292.6165" x2="139.0289" y2="141.0812" gradientTransform="matrix(1 0 0 -1 0 308)">
				<stop  offset="0" style="stop-color:#BF902D"/>
				<stop  offset="0.3274" style="stop-color:#FBF8CD"/>
				<stop  offset="0.6942" style="stop-color:#ECD485"/>
				<stop  offset="1" style="stop-color:#BF902D"/>
			</linearGradient>
			<path class="st15" d="M184.1,120.4c0,0-67.7,6.3-71.3-57.7c0,0,34.8-1.1,46.4,15.9c0,0-17.8-7.2-27.3-5.2
				C131.9,73.4,130.4,114.8,184.1,120.4z"/>
			
				<linearGradient id="SVGID_15_" gradientUnits="userSpaceOnUse" x1="157.054" y1="292.7319" x2="138.1119" y2="141.1949" gradientTransform="matrix(1 0 0 -1 0 308)">
				<stop  offset="0" style="stop-color:#BF902D"/>
				<stop  offset="0.3274" style="stop-color:#FBF8CD"/>
				<stop  offset="0.6942" style="stop-color:#ECD485"/>
				<stop  offset="1" style="stop-color:#BF902D"/>
			</linearGradient>
			<path class="st16" d="M137.9,121.8c0,0-17.3-2.8-40.7,27.6c0,0,50.2,35.2,89-22.6c0,0-34.8,39.4-68.5,14.1
				C117.8,140.9,122,130,137.9,121.8z"/>
			<g>
				
					<linearGradient id="SVGID_16_" gradientUnits="userSpaceOnUse" x1="187.9174" y1="288.874" x2="168.9756" y2="137.3387" gradientTransform="matrix(1 0 0 -1 0 308)">
					<stop  offset="0" style="stop-color:#BF902D"/>
					<stop  offset="0.3274" style="stop-color:#FBF8CD"/>
					<stop  offset="0.6942" style="stop-color:#ECD485"/>
					<stop  offset="1" style="stop-color:#BF902D"/>
				</linearGradient>
				<path class="st17" d="M197.7,120.4c0,0-62.2-30.5-25.3-101c0,0,22.8,16.6,26.5,44.8c0,0-11.1-16.8-19.1-23.3
					C179.9,40.9,151.1,81.4,197.7,120.4z"/>
				
					<linearGradient id="SVGID_17_" gradientUnits="userSpaceOnUse" x1="230.8541" y1="283.5071" x2="211.9122" y2="131.9715" gradientTransform="matrix(1 0 0 -1 0 308)">
					<stop  offset="0" style="stop-color:#BF902D"/>
					<stop  offset="0.3274" style="stop-color:#FBF8CD"/>
					<stop  offset="0.6942" style="stop-color:#ECD485"/>
					<stop  offset="1" style="stop-color:#BF902D"/>
				</linearGradient>
				<path class="st18" d="M207.9,120.4c0,0,62.2-30.5,25.3-101c0,0-22.8,16.6-26.5,44.8c0,0,11.1-16.8,19.1-23.3
					C225.8,40.9,254.6,81.4,207.9,120.4z"/>
			</g>
			
				<linearGradient id="SVGID_18_" gradientUnits="userSpaceOnUse" x1="265.0985" y1="279.225" x2="246.1568" y2="127.6915" gradientTransform="matrix(1 0 0 -1 0 308)">
				<stop  offset="0" style="stop-color:#BF902D"/>
				<stop  offset="0.3274" style="stop-color:#FBF8CD"/>
				<stop  offset="0.6942" style="stop-color:#ECD485"/>
				<stop  offset="1" style="stop-color:#BF902D"/>
			</linearGradient>
			<path class="st19" d="M221.5,120.4c0,0,67.7,6.3,71.3-57.7c0,0-34.8-1.1-46.4,15.9c0,0,17.8-7.2,27.3-5.2
				C273.7,73.4,275.3,114.8,221.5,120.4z"/>
			
				<linearGradient id="SVGID_19_" gradientUnits="userSpaceOnUse" x1="277.3737" y1="277.6902" x2="258.4319" y2="126.1548" gradientTransform="matrix(1 0 0 -1 0 308)">
				<stop  offset="0" style="stop-color:#BF902D"/>
				<stop  offset="0.3274" style="stop-color:#FBF8CD"/>
				<stop  offset="0.6942" style="stop-color:#ECD485"/>
				<stop  offset="1" style="stop-color:#BF902D"/>
			</linearGradient>
			<path class="st20" d="M267.7,121.8c0,0,17.3-2.8,40.7,27.6c0,0-50.2,35.2-89-22.6c0,0,34.8,39.4,68.5,14.1
				C287.8,140.9,283.6,130,267.7,121.8z"/>
			
				<linearGradient id="SVGID_20_" gradientUnits="userSpaceOnUse" x1="169.3155" y1="143.7174" x2="235.9183" y2="143.7174" gradientTransform="matrix(1 0 0 -1 0 308)">
				<stop  offset="0" style="stop-color:#BF902D"/>
				<stop  offset="0.3274" style="stop-color:#FBF8CD"/>
				<stop  offset="0.6942" style="stop-color:#ECD485"/>
				<stop  offset="1" style="stop-color:#BF902D"/>
			</linearGradient>
			<path class="st21" d="M228.8,186.6c-1.8-0.8-4.5,0.8-4.5,0.8s2.1-2.5,2.5-4s-4.1-25.3-4.6-27s-11.2-5.3-12.5-6.2s0-5.5,0.6-8
				s1.6-7.8-0.6-12.2c-2.3-4.4-6.9-4.2-6.9-4.2s-4.7-0.2-6.9,4.2c-2.3,4.4-1.2,9.8-0.6,12.2c0.6,2.5,1.8,7.1,0.6,8
				c-1.3,0.9-12,4.5-12.5,6.2s-5,25.5-4.6,27s2.5,4,2.5,4s-2.7-1.7-4.5-0.8c-1.8,0.8-6.9,2.9-7.2,6.6c-0.2,3.7,20.9,10.3,33.3,9.5
				c12.4,0.8,33.5-5.9,33.3-9.5C235.7,189.5,230.6,187.4,228.8,186.6z"/>
			<g>
				
					<linearGradient id="SVGID_21_" gradientUnits="userSpaceOnUse" x1="302.1861" y1="274.5894" x2="283.2441" y2="123.0525" gradientTransform="matrix(1 0 0 -1 0 308)">
					<stop  offset="0" style="stop-color:#BF902D"/>
					<stop  offset="0.3274" style="stop-color:#FBF8CD"/>
					<stop  offset="0.6942" style="stop-color:#ECD485"/>
					<stop  offset="1" style="stop-color:#BF902D"/>
				</linearGradient>
				<path class="st22" d="M292.7,103.5c-3.2,0-5.8,2.6-5.8,5.8c0,3.2,2.6,5.8,5.8,5.8c3.2,0,5.8-2.6,5.8-5.8
					S295.9,103.5,292.7,103.5z M294.6,111.1H291v-3.6h3.6V111.1z"/>
				
					<linearGradient id="SVGID_22_" gradientUnits="userSpaceOnUse" x1="302.1866" y1="274.593" x2="283.2439" y2="123.0512" gradientTransform="matrix(1 0 0 -1 0 308)">
					<stop  offset="0" style="stop-color:#BF902D"/>
					<stop  offset="0.3274" style="stop-color:#FBF8CD"/>
					<stop  offset="0.6942" style="stop-color:#ECD485"/>
					<stop  offset="1" style="stop-color:#BF902D"/>
				</linearGradient>
				<path class="st23" d="M292.7,101.4c-4.4,0-7.9,3.6-7.9,7.9c0,4.4,3.6,7.9,7.9,7.9c4.4,0,7.9-3.6,7.9-7.9
					C300.7,104.9,297.1,101.4,292.7,101.4z M292.7,116c-3.7,0-6.7-3-6.7-6.7s3-6.7,6.7-6.7s6.7,3,6.7,6.7
					C299.5,113,296.4,116,292.7,116z"/>
			</g>
			<g>
				
					<linearGradient id="SVGID_23_" gradientUnits="userSpaceOnUse" x1="117.5707" y1="297.6664" x2="98.6287" y2="146.1297" gradientTransform="matrix(1 0 0 -1 0 308)">
					<stop  offset="0" style="stop-color:#BF902D"/>
					<stop  offset="0.3274" style="stop-color:#FBF8CD"/>
					<stop  offset="0.6942" style="stop-color:#ECD485"/>
					<stop  offset="1" style="stop-color:#BF902D"/>
				</linearGradient>
				<path class="st24" d="M105.2,103.5c-3.2,0-5.8,2.6-5.8,5.8c0,3.2,2.6,5.8,5.8,5.8c3.2,0,5.8-2.6,5.8-5.8
					S108.4,103.5,105.2,103.5z M107,111.1h-3.6v-3.6h3.6V111.1z"/>
				
					<linearGradient id="SVGID_24_" gradientUnits="userSpaceOnUse" x1="117.5714" y1="297.6708" x2="98.6287" y2="146.1293" gradientTransform="matrix(1 0 0 -1 0 308)">
					<stop  offset="0" style="stop-color:#BF902D"/>
					<stop  offset="0.3274" style="stop-color:#FBF8CD"/>
					<stop  offset="0.6942" style="stop-color:#ECD485"/>
					<stop  offset="1" style="stop-color:#BF902D"/>
				</linearGradient>
				<path class="st25" d="M105.2,101.4c-4.4,0-7.9,3.6-7.9,7.9c0,4.4,3.6,7.9,7.9,7.9c4.4,0,7.9-3.6,7.9-7.9
					C113.2,104.9,109.6,101.4,105.2,101.4z M105.2,116c-3.7,0-6.7-3-6.7-6.7s3-6.7,6.7-6.7s6.7,3,6.7,6.7
					C111.9,113,108.9,116,105.2,116z"/>
			</g>
			<g>
				
					<linearGradient id="SVGID_25_" gradientUnits="userSpaceOnUse" x1="202.4694" y1="287.055" x2="183.5253" y2="135.502" gradientTransform="matrix(1 0 0 -1 0 308)">
					<stop  offset="0" style="stop-color:#BF902D"/>
					<stop  offset="0.3274" style="stop-color:#FBF8CD"/>
					<stop  offset="0.6942" style="stop-color:#ECD485"/>
					<stop  offset="1" style="stop-color:#BF902D"/>
				</linearGradient>
				<path class="st26" d="M202.8,12.5c-3.2,0-5.8,2.6-5.8,5.8s2.6,5.8,5.8,5.8s5.8-2.6,5.8-5.8S206,12.5,202.8,12.5z M204.6,20.1
					H201v-3.6h3.6V20.1z"/>
				
					<linearGradient id="SVGID_26_" gradientUnits="userSpaceOnUse" x1="202.4695" y1="287.0561" x2="183.5297" y2="135.5371" gradientTransform="matrix(1 0 0 -1 0 308)">
					<stop  offset="0" style="stop-color:#BF902D"/>
					<stop  offset="0.3274" style="stop-color:#FBF8CD"/>
					<stop  offset="0.6942" style="stop-color:#ECD485"/>
					<stop  offset="1" style="stop-color:#BF902D"/>
				</linearGradient>
				<path class="st27" d="M202.8,10.4c-4.4,0-7.9,3.6-7.9,7.9c0,4.4,3.6,7.9,7.9,7.9c4.4,0,7.9-3.6,7.9-7.9
					C210.8,13.9,207.2,10.4,202.8,10.4z M202.8,25c-3.7,0-6.7-3-6.7-6.7s3-6.7,6.7-6.7s6.7,3,6.7,6.7S206.5,25,202.8,25z"/>
			</g>
			<g>
				<g>
					
						<linearGradient id="SVGID_27_" gradientUnits="userSpaceOnUse" x1="151.602" y1="293.4157" x2="132.6579" y2="141.8625" gradientTransform="matrix(1 0 0 -1 0 308)">
						<stop  offset="0" style="stop-color:#BF902D"/>
						<stop  offset="0.3274" style="stop-color:#FBF8CD"/>
						<stop  offset="0.6942" style="stop-color:#ECD485"/>
						<stop  offset="1" style="stop-color:#BF902D"/>
					</linearGradient>
					<path class="st28" d="M147.5,41.6c-3.2,0-5.8,2.6-5.8,5.8s2.6,5.8,5.8,5.8s5.8-2.6,5.8-5.8C153.3,44.2,150.7,41.6,147.5,41.6z
						 M149.3,49.2h-3.6v-3.6h3.6V49.2z"/>
					
						<linearGradient id="SVGID_28_" gradientUnits="userSpaceOnUse" x1="151.6019" y1="293.4151" x2="132.6586" y2="141.8684" gradientTransform="matrix(1 0 0 -1 0 308)">
						<stop  offset="0" style="stop-color:#BF902D"/>
						<stop  offset="0.3274" style="stop-color:#FBF8CD"/>
						<stop  offset="0.6942" style="stop-color:#ECD485"/>
						<stop  offset="1" style="stop-color:#BF902D"/>
					</linearGradient>
					<path class="st29" d="M147.5,39.5c-4.4,0-7.9,3.6-7.9,7.9c0,4.4,3.6,7.9,7.9,7.9c4.4,0,7.9-3.6,7.9-7.9
						C155.4,43,151.9,39.5,147.5,39.5z M147.5,54.1c-3.7,0-6.7-3-6.7-6.7s3-6.7,6.7-6.7s6.7,3,6.7,6.7S151.2,54.1,147.5,54.1z"/>
				</g>
				<g>
					
						<linearGradient id="SVGID_29_" gradientUnits="userSpaceOnUse" x1="260.5002" y1="279.802" x2="241.5563" y2="128.2501" gradientTransform="matrix(1 0 0 -1 0 308)">
						<stop  offset="0" style="stop-color:#BF902D"/>
						<stop  offset="0.3274" style="stop-color:#FBF8CD"/>
						<stop  offset="0.6942" style="stop-color:#ECD485"/>
						<stop  offset="1" style="stop-color:#BF902D"/>
					</linearGradient>
					<path class="st30" d="M258.1,41.6c-3.2,0-5.8,2.6-5.8,5.8s2.6,5.8,5.8,5.8c3.2,0,5.8-2.6,5.8-5.8
						C263.9,44.2,261.3,41.6,258.1,41.6z M259.9,49.2h-3.6v-3.6h3.6V49.2z"/>
					
						<linearGradient id="SVGID_30_" gradientUnits="userSpaceOnUse" x1="260.5002" y1="279.8015" x2="241.5574" y2="128.259" gradientTransform="matrix(1 0 0 -1 0 308)">
						<stop  offset="0" style="stop-color:#BF902D"/>
						<stop  offset="0.3274" style="stop-color:#FBF8CD"/>
						<stop  offset="0.6942" style="stop-color:#ECD485"/>
						<stop  offset="1" style="stop-color:#BF902D"/>
					</linearGradient>
					<path class="st31" d="M258.1,39.5c-4.4,0-7.9,3.6-7.9,7.9c0,4.4,3.6,7.9,7.9,7.9c4.4,0,7.9-3.6,7.9-7.9
						C266.1,43,262.5,39.5,258.1,39.5z M258.1,54.1c-3.7,0-6.7-3-6.7-6.7s3-6.7,6.7-6.7c3.7,0,6.7,3,6.7,6.7
						C264.8,51.1,261.8,54.1,258.1,54.1z"/>
				</g>
			</g>
		</g>
	</g>
</g>
<g>
	<g>
		<g>
			<path d="M174.8,173.3c0,0-101.4,9.4-106.8-86.4c0,0,52.1-1.6,69.5,23.8c0,0-26.7-10.8-40.9-7.8
				C96.6,102.9,94.3,164.9,174.8,173.3z"/>
			<path d="M105.6,175.4c0,0-25.9-4.2-61,41.3c0,0,75.2,52.7,133.3-33.9c0,0-52.1,59-102.6,21.1C75.5,204,81.8,187.7,105.6,175.4z"
				/>
			<g>
				<path d="M195.2,173.3c0,0-93.2-45.7-37.9-151.3c0,0,34.2,24.9,39.7,67.1c0,0-16.6-25.2-28.6-34.9
					C168.5,54.2,125.3,114.9,195.2,173.3z"/>
				<path d="M210.4,173.3c0,0,93.2-45.7,37.9-151.3c0,0-34.2,24.9-39.7,67.1c0,0,16.6-25.2,28.6-34.9
					C237.3,54.2,280.4,114.9,210.4,173.3z"/>
			</g>
			<path d="M230.8,173.3c0,0,101.4,9.4,106.8-86.4c0,0-52.1-1.6-69.5,23.8c0,0,26.7-10.8,40.9-7.8
				C309,102.9,311.4,164.9,230.8,173.3z"/>
			<path d="M300,175.4c0,0,25.9-4.2,61,41.3c0,0-75.2,52.7-133.3-33.9c0,0,52.1,59,102.6,21.1C330.1,204,323.8,187.7,300,175.4z"/>
			<path d="M241.8,272.5c-2.7-1.2-6.7,1.2-6.7,1.2s3.1-3.7,3.7-6c0.6-2.2-6.1-37.9-6.9-40.4c-0.7-2.5-16.8-7.9-18.7-9.3
				c-1.9-1.3,0-8.2,0.9-12c0.9-3.7,2.4-11.7-0.9-18.3c-3.4-6.6-10.3-6.3-10.3-6.3s-7-0.3-10.3,6.3c-3.4,6.6-1.8,14.7-0.9,18.3
				c0.9,3.7,2.7,10.6,0.9,12c-1.9,1.3-18,6.7-18.7,9.3c-0.7,2.5-7.5,38.2-6.9,40.4s3.7,6,3.7,6s-4-2.5-6.7-1.2
				c-2.7,1.2-10.3,4.3-10.8,9.9c-0.3,5.5,31.3,15.4,49.9,14.2c18.6,1.2,50.2-8.8,49.9-14.2C252.1,276.8,244.4,273.7,241.8,272.5z"/>
			<g>
				<path d="M337.5,148c-4.8,0-8.7,3.9-8.7,8.7s3.9,8.7,8.7,8.7c4.8,0,8.7-3.9,8.7-8.7S342.3,148,337.5,148z M340.3,159.4h-5.4V154
					h5.4V159.4z"/>
				<path d="M337.5,144.8c-6.6,0-11.8,5.4-11.8,11.8c0,6.6,5.4,11.8,11.8,11.8c6.6,0,11.8-5.4,11.8-11.8
					C349.5,150.1,344.1,144.8,337.5,144.8z M337.5,166.7c-5.5,0-10-4.5-10-10c0-5.5,4.5-10,10-10c5.5,0,10,4.5,10,10
					C347.7,162.2,343,166.7,337.5,166.7z"/>
			</g>
			<g>
				<path d="M56.6,148c-4.8,0-8.7,3.9-8.7,8.7s3.9,8.7,8.7,8.7c4.8,0,8.7-3.9,8.7-8.7S61.4,148,56.6,148z M59.3,159.4h-5.4V154h5.4
					V159.4z"/>
				<path d="M56.6,144.8c-6.6,0-11.8,5.4-11.8,11.8c0,6.6,5.4,11.8,11.8,11.8c6.6,0,11.8-5.4,11.8-11.8
					C68.6,150.1,63.2,144.8,56.6,144.8z M56.6,166.7c-5.5,0-10-4.5-10-10c0-5.5,4.5-10,10-10s10,4.5,10,10
					C66.6,162.2,62.1,166.7,56.6,166.7z"/>
			</g>
			<g>
				<path d="M202.8,11.7c-4.8,0-8.7,3.9-8.7,8.7s3.9,8.7,8.7,8.7s8.7-3.9,8.7-8.7S207.6,11.7,202.8,11.7z M205.5,23h-5.4v-5.4h5.4
					V23z"/>
				<path d="M202.8,8.5c-6.6,0-11.8,5.4-11.8,11.8c0,6.6,5.4,11.8,11.8,11.8c6.6,0,11.8-5.4,11.8-11.8
					C214.8,13.8,209.4,8.5,202.8,8.5z M202.8,30.4c-5.5,0-10-4.5-10-10s4.5-10,10-10s10,4.5,10,10S208.3,30.4,202.8,30.4z"/>
			</g>
			<g>
				<g>
					<path d="M120,55.2c-4.8,0-8.7,3.9-8.7,8.7s3.9,8.7,8.7,8.7c4.8,0,8.7-3.9,8.7-8.7S124.7,55.2,120,55.2z M122.7,66.6h-5.4v-5.4
						h5.4V66.6z"/>
					<path d="M120,52.1c-6.6,0-11.8,5.4-11.8,11.8c0,6.6,5.4,11.8,11.8,11.8c6.6,0,11.8-5.4,11.8-11.8
						C131.8,57.3,126.5,52.1,120,52.1z M120,74c-5.5,0-10-4.5-10-10s4.5-10,10-10c5.5,0,10,4.5,10,10S125.5,74,120,74z"/>
				</g>
				<g>
					<path d="M285.6,55.2c-4.8,0-8.7,3.9-8.7,8.7s3.9,8.7,8.7,8.7s8.7-3.9,8.7-8.7S290.4,55.2,285.6,55.2z M288.3,66.6h-5.4v-5.4
						h5.4V66.6z"/>
					<path d="M285.6,52.1c-6.6,0-11.8,5.4-11.8,11.8c0,6.6,5.4,11.8,11.8,11.8c6.6,0,11.8-5.4,11.8-11.8
						C297.6,57.3,292.2,52.1,285.6,52.1z M285.6,74c-5.5,0-10-4.5-10-10s4.5-10,10-10s10,4.5,10,10C295.7,69.5,291.2,74,285.6,74z"
						/>
				</g>
			</g>
		</g>
	</g>
</g>
</svg>
