<?xml version="1.0" encoding="utf-8"?>
<!-- Generator: Adobe Illustrator 22.0.1, SVG Export Plug-In . SVG Version: 6.00 Build 0)  -->
<svg version="1.1" id="Layer_1" xmlns="http://www.w3.org/2000/svg" xmlns:xlink="http://www.w3.org/1999/xlink" x="0px" y="0px"
	 viewBox="0 0 1000 1000" style="enable-background:new 0 0 1000 1000;" xml:space="preserve">
<style type="text/css">
	.st0{fill:#FFFFFF;}
</style>
<rect class="st0" width="1000" height="1000"/>
<g transform="translate(1, 1)">
	<g shape-rendering="crispEdges">
		<g>
			<rect x="390.3" y="42.5" width="43.5" height="43.5"/>
			<rect x="433.8" y="42.5" width="43.5" height="43.5"/>
			<rect x="477.3" y="42.5" class="st0" width="43.5" height="43.5"/>
			<rect x="520.7" y="42.5" class="st0" width="43.5" height="43.5"/>
			<rect x="564.2" y="42.5" class="st0" width="43.5" height="43.5"/>
		</g>
		<g>
			<rect x="390.3" y="86" class="st0" width="43.5" height="43.5"/>
			<rect x="433.8" y="86" width="43.5" height="43.5"/>
			<rect x="477.3" y="86" class="st0" width="43.5" height="43.5"/>
			<rect x="520.7" y="86" class="st0" width="43.5" height="43.5"/>
			<rect x="564.2" y="86" width="43.5" height="43.5"/>
		</g>
		<g>
			<rect x="390.3" y="129.4" class="st0" width="43.5" height="43.5"/>
			<rect x="433.8" y="129.4" width="43.5" height="43.5"/>
			<rect x="477.3" y="129.4" width="43.5" height="43.5"/>
			<rect x="520.7" y="129.4" class="st0" width="43.5" height="43.5"/>
			<rect x="564.2" y="129.4" class="st0" width="43.5" height="43.5"/>
		</g>
		<g>
			<rect x="390.3" y="172.9" class="st0" width="43.5" height="43.5"/>
			<rect x="433.8" y="172.9" class="st0" width="43.5" height="43.5"/>
			<rect x="477.3" y="172.9" width="43.5" height="43.5"/>
			<rect x="520.7" y="172.9" width="43.5" height="43.5"/>
			<rect x="564.2" y="172.9" width="43.5" height="43.5"/>
		</g>
		<g>
			<rect x="390.3" y="216.4" class="st0" width="43.5" height="43.5"/>
			<rect x="433.8" y="216.4" class="st0" width="43.5" height="43.5"/>
			<rect x="477.3" y="216.4" width="43.5" height="43.5"/>
			<rect x="520.7" y="216.4" class="st0" width="43.5" height="43.5"/>
			<rect x="564.2" y="216.4" class="st0" width="43.5" height="43.5"/>
		</g>
		<g>
			<rect x="390.3" y="259.9" class="st0" width="43.5" height="43.5"/>
			<rect x="433.8" y="259.9" class="st0" width="43.5" height="43.5"/>
			<rect x="477.3" y="259.9" class="st0" width="43.5" height="43.5"/>
			<rect x="520.7" y="259.9" width="43.5" height="43.5"/>
			<rect x="564.2" y="259.9" width="43.5" height="43.5"/>
		</g>
		<g>
			<rect x="390.3" y="303.3" width="43.5" height="43.5"/>
			<rect x="433.8" y="303.3" class="st0" width="43.5" height="43.5"/>
			<rect x="477.3" y="303.3" width="43.5" height="43.5"/>
			<rect x="520.7" y="303.3" class="st0" width="43.5" height="43.5"/>
			<rect x="564.2" y="303.3" width="43.5" height="43.5"/>
		</g>
		<g>
			<rect x="390.3" y="346.8" width="43.5" height="43.5"/>
			<rect x="433.8" y="346.8" width="43.5" height="43.5"/>
			<rect x="477.3" y="346.8" width="43.5" height="43.5"/>
			<rect x="520.7" y="346.8" class="st0" width="43.5" height="43.5"/>
			<rect x="564.2" y="346.8" width="43.5" height="43.5"/>
		</g>
		<g>
			<rect x="42.5" y="390.3" width="43.5" height="43.5"/>
			<rect x="86" y="390.3" width="43.5" height="43.5"/>
			<rect x="129.4" y="390.3" class="st0" width="43.5" height="43.5"/>
			<rect x="172.9" y="390.3" width="43.5" height="43.5"/>
			<rect x="216.4" y="390.3" width="43.5" height="43.5"/>
			<rect x="259.9" y="390.3" class="st0" width="43.5" height="43.5"/>
			<rect x="303.3" y="390.3" width="43.5" height="43.5"/>
			<rect x="346.8" y="390.3" class="st0" width="43.5" height="43.5"/>
			<rect x="390.3" y="390.3" class="st0" width="43.5" height="43.5"/>
			<rect x="433.8" y="390.3" width="43.5" height="43.5"/>
			<rect x="477.3" y="390.3" width="43.5" height="43.5"/>
			<rect x="520.7" y="390.3" class="st0" width="43.5" height="43.5"/>
			<rect x="564.2" y="390.3" class="st0" width="43.5" height="43.5"/>
			<rect x="607.7" y="390.3" class="st0" width="43.5" height="43.5"/>
			<rect x="651.2" y="390.3" width="43.5" height="43.5"/>
			<rect x="694.7" y="390.3" class="st0" width="43.5" height="43.5"/>
			<rect x="738.1" y="390.3" class="st0" width="43.5" height="43.5"/>
			<rect x="781.6" y="390.3" class="st0" width="43.5" height="43.5"/>
			<rect x="825.1" y="390.3" class="st0" width="43.5" height="43.5"/>
			<rect x="868.6" y="390.3" class="st0" width="43.5" height="43.5"/>
			<rect x="912" y="390.3" width="43.5" height="43.5"/>
		</g>
		<g>
			<rect x="42.5" y="433.8" width="43.5" height="43.5"/>
			<rect x="86" y="433.8" class="st0" width="43.5" height="43.5"/>
			<rect x="129.4" y="433.8" width="43.5" height="43.5"/>
			<rect x="172.9" y="433.8" class="st0" width="43.5" height="43.5"/>
			<rect x="216.4" y="433.8" width="43.5" height="43.5"/>
			<rect x="259.9" y="433.8" class="st0" width="43.5" height="43.5"/>
			<rect x="303.3" y="433.8" class="st0" width="43.5" height="43.5"/>
			<rect x="346.8" y="433.8" class="st0" width="43.5" height="43.5"/>
			<rect x="390.3" y="433.8" class="st0" width="43.5" height="43.5"/>
			<rect x="433.8" y="433.8" width="43.5" height="43.5"/>
			<rect x="477.3" y="433.8" class="st0" width="43.5" height="43.5"/>
			<rect x="520.7" y="433.8" width="43.5" height="43.5"/>
			<rect x="564.2" y="433.8" class="st0" width="43.5" height="43.5"/>
			<rect x="607.7" y="433.8" width="43.5" height="43.5"/>
			<rect x="651.2" y="433.8" class="st0" width="43.5" height="43.5"/>
			<rect x="694.7" y="433.8" class="st0" width="43.5" height="43.5"/>
			<rect x="738.1" y="433.8" class="st0" width="43.5" height="43.5"/>
			<rect x="781.6" y="433.8" width="43.5" height="43.5"/>
			<rect x="825.1" y="433.8" width="43.5" height="43.5"/>
			<rect x="868.6" y="433.8" class="st0" width="43.5" height="43.5"/>
			<rect x="912" y="433.8" class="st0" width="43.5" height="43.5"/>
		</g>
		<g>
			<rect x="42.5" y="477.3" class="st0" width="43.5" height="43.5"/>
			<rect x="86" y="477.3" class="st0" width="43.5" height="43.5"/>
			<rect x="129.4" y="477.3" width="43.5" height="43.5"/>
			<rect x="172.9" y="477.3" width="43.5" height="43.5"/>
			<rect x="216.4" y="477.3" class="st0" width="43.5" height="43.5"/>
			<rect x="259.9" y="477.3" width="43.5" height="43.5"/>
			<rect x="303.3" y="477.3" width="43.5" height="43.5"/>
			<rect x="346.8" y="477.3" width="43.5" height="43.5"/>
			<rect x="390.3" y="477.3" class="st0" width="43.5" height="43.5"/>
			<rect x="433.8" y="477.3" width="43.5" height="43.5"/>
			<rect x="477.3" y="477.3" class="st0" width="43.5" height="43.5"/>
			<rect x="520.7" y="477.3" width="43.5" height="43.5"/>
			<rect x="564.2" y="477.3" width="43.5" height="43.5"/>
			<rect x="607.7" y="477.3" width="43.5" height="43.5"/>
			<rect x="651.2" y="477.3" width="43.5" height="43.5"/>
			<rect x="694.7" y="477.3" width="43.5" height="43.5"/>
			<rect x="738.1" y="477.3" class="st0" width="43.5" height="43.5"/>
			<rect x="781.6" y="477.3" class="st0" width="43.5" height="43.5"/>
			<rect x="825.1" y="477.3" width="43.5" height="43.5"/>
			<rect x="868.6" y="477.3" width="43.5" height="43.5"/>
			<rect x="912" y="477.3" width="43.5" height="43.5"/>
		</g>
		<g>
			<rect x="42.5" y="520.7" width="43.5" height="43.5"/>
			<rect x="86" y="520.7" width="43.5" height="43.5"/>
			<rect x="129.4" y="520.7" width="43.5" height="43.5"/>
			<rect x="172.9" y="520.7" width="43.5" height="43.5"/>
			<rect x="216.4" y="520.7" width="43.5" height="43.5"/>
			<rect x="259.9" y="520.7" class="st0" width="43.5" height="43.5"/>
			<rect x="303.3" y="520.7" class="st0" width="43.5" height="43.5"/>
			<rect x="346.8" y="520.7" width="43.5" height="43.5"/>
			<rect x="390.3" y="520.7" class="st0" width="43.5" height="43.5"/>
			<rect x="433.8" y="520.7" class="st0" width="43.5" height="43.5"/>
			<rect x="477.3" y="520.7" class="st0" width="43.5" height="43.5"/>
			<rect x="520.7" y="520.7" width="43.5" height="43.5"/>
			<rect x="564.2" y="520.7" class="st0" width="43.5" height="43.5"/>
			<rect x="607.7" y="520.7" class="st0" width="43.5" height="43.5"/>
			<rect x="651.2" y="520.7" class="st0" width="43.5" height="43.5"/>
			<rect x="694.7" y="520.7" width="43.5" height="43.5"/>
			<rect x="738.1" y="520.7" width="43.5" height="43.5"/>
			<rect x="781.6" y="520.7" class="st0" width="43.5" height="43.5"/>
			<rect x="825.1" y="520.7" width="43.5" height="43.5"/>
			<rect x="868.6" y="520.7" class="st0" width="43.5" height="43.5"/>
			<rect x="912" y="520.7" class="st0" width="43.5" height="43.5"/>
		</g>
		<g>
			<rect x="42.5" y="564.2" class="st0" width="43.5" height="43.5"/>
			<rect x="86" y="564.2" width="43.5" height="43.5"/>
			<rect x="129.4" y="564.2" width="43.5" height="43.5"/>
			<rect x="172.9" y="564.2" width="43.5" height="43.5"/>
			<rect x="216.4" y="564.2" class="st0" width="43.5" height="43.5"/>
			<rect x="259.9" y="564.2" class="st0" width="43.5" height="43.5"/>
			<rect x="303.3" y="564.2" width="43.5" height="43.5"/>
			<rect x="346.8" y="564.2" class="st0" width="43.5" height="43.5"/>
			<rect x="390.3" y="564.2" width="43.5" height="43.5"/>
			<rect x="433.8" y="564.2" class="st0" width="43.5" height="43.5"/>
			<rect x="477.3" y="564.2" class="st0" width="43.5" height="43.5"/>
			<rect x="520.7" y="564.2" class="st0" width="43.5" height="43.5"/>
			<rect x="564.2" y="564.2" width="43.5" height="43.5"/>
			<rect x="607.7" y="564.2" class="st0" width="43.5" height="43.5"/>
			<rect x="651.2" y="564.2" class="st0" width="43.5" height="43.5"/>
			<rect x="694.7" y="564.2" width="43.5" height="43.5"/>
			<rect x="738.1" y="564.2" class="st0" width="43.5" height="43.5"/>
			<rect x="781.6" y="564.2" width="43.5" height="43.5"/>
			<rect x="825.1" y="564.2" class="st0" width="43.5" height="43.5"/>
			<rect x="868.6" y="564.2" class="st0" width="43.5" height="43.5"/>
			<rect x="912" y="564.2" width="43.5" height="43.5"/>
		</g>
		<g>
			<rect x="390.3" y="607.7" width="43.5" height="43.5"/>
			<rect x="433.8" y="607.7" width="43.5" height="43.5"/>
			<rect x="477.3" y="607.7" class="st0" width="43.5" height="43.5"/>
			<rect x="520.7" y="607.7" width="43.5" height="43.5"/>
			<rect x="564.2" y="607.7" class="st0" width="43.5" height="43.5"/>
			<rect x="607.7" y="607.7" class="st0" width="43.5" height="43.5"/>
			<rect x="651.2" y="607.7" width="43.5" height="43.5"/>
			<rect x="694.7" y="607.7" width="43.5" height="43.5"/>
			<rect x="738.1" y="607.7" width="43.5" height="43.5"/>
			<rect x="781.6" y="607.7" width="43.5" height="43.5"/>
			<rect x="825.1" y="607.7" class="st0" width="43.5" height="43.5"/>
			<rect x="868.6" y="607.7" class="st0" width="43.5" height="43.5"/>
			<rect x="912" y="607.7" class="st0" width="43.5" height="43.5"/>
		</g>
		<g>
			<rect x="390.3" y="651.2" class="st0" width="43.5" height="43.5"/>
			<rect x="433.8" y="651.2" class="st0" width="43.5" height="43.5"/>
			<rect x="477.3" y="651.2" class="st0" width="43.5" height="43.5"/>
			<rect x="520.7" y="651.2" class="st0" width="43.5" height="43.5"/>
			<rect x="564.2" y="651.2" width="43.5" height="43.5"/>
			<rect x="607.7" y="651.2" width="43.5" height="43.5"/>
			<rect x="651.2" y="651.2" class="st0" width="43.5" height="43.5"/>
			<rect x="694.7" y="651.2" width="43.5" height="43.5"/>
			<rect x="738.1" y="651.2" width="43.5" height="43.5"/>
			<rect x="781.6" y="651.2" class="st0" width="43.5" height="43.5"/>
			<rect x="825.1" y="651.2" width="43.5" height="43.5"/>
			<rect x="868.6" y="651.2" class="st0" width="43.5" height="43.5"/>
			<rect x="912" y="651.2" class="st0" width="43.5" height="43.5"/>
		</g>
		<g>
			<rect x="390.3" y="694.7" class="st0" width="43.5" height="43.5"/>
			<rect x="433.8" y="694.7" class="st0" width="43.5" height="43.5"/>
			<rect x="477.3" y="694.7" width="43.5" height="43.5"/>
			<rect x="520.7" y="694.7" width="43.5" height="43.5"/>
			<rect x="564.2" y="694.7" width="43.5" height="43.5"/>
			<rect x="607.7" y="694.7" class="st0" width="43.5" height="43.5"/>
			<rect x="651.2" y="694.7" width="43.5" height="43.5"/>
			<rect x="694.7" y="694.7" class="st0" width="43.5" height="43.5"/>
			<rect x="738.1" y="694.7" class="st0" width="43.5" height="43.5"/>
			<rect x="781.6" y="694.7" class="st0" width="43.5" height="43.5"/>
			<rect x="825.1" y="694.7" width="43.5" height="43.5"/>
			<rect x="868.6" y="694.7" class="st0" width="43.5" height="43.5"/>
			<rect x="912" y="694.7" width="43.5" height="43.5"/>
		</g>
		<g>
			<rect x="390.3" y="738.1" width="43.5" height="43.5"/>
			<rect x="433.8" y="738.1" class="st0" width="43.5" height="43.5"/>
			<rect x="477.3" y="738.1" width="43.5" height="43.5"/>
			<rect x="520.7" y="738.1" class="st0" width="43.5" height="43.5"/>
			<rect x="564.2" y="738.1" class="st0" width="43.5" height="43.5"/>
			<rect x="607.7" y="738.1" width="43.5" height="43.5"/>
			<rect x="651.2" y="738.1" class="st0" width="43.5" height="43.5"/>
			<rect x="694.7" y="738.1" class="st0" width="43.5" height="43.5"/>
			<rect x="738.1" y="738.1" class="st0" width="43.5" height="43.5"/>
			<rect x="781.6" y="738.1" class="st0" width="43.5" height="43.5"/>
			<rect x="825.1" y="738.1" class="st0" width="43.5" height="43.5"/>
			<rect x="868.6" y="738.1" class="st0" width="43.5" height="43.5"/>
			<rect x="912" y="738.1" width="43.5" height="43.5"/>
		</g>
		<g>
			<rect x="390.3" y="781.6" width="43.5" height="43.5"/>
			<rect x="433.8" y="781.6" width="43.5" height="43.5"/>
			<rect x="477.3" y="781.6" width="43.5" height="43.5"/>
			<rect x="520.7" y="781.6" width="43.5" height="43.5"/>
			<rect x="564.2" y="781.6" class="st0" width="43.5" height="43.5"/>
			<rect x="607.7" y="781.6" class="st0" width="43.5" height="43.5"/>
			<rect x="651.2" y="781.6" width="43.5" height="43.5"/>
			<rect x="694.7" y="781.6" width="43.5" height="43.5"/>
			<rect x="738.1" y="781.6" class="st0" width="43.5" height="43.5"/>
			<rect x="781.6" y="781.6" width="43.5" height="43.5"/>
			<rect x="825.1" y="781.6" class="st0" width="43.5" height="43.5"/>
			<rect x="868.6" y="781.6" width="43.5" height="43.5"/>
			<rect x="912" y="781.6" class="st0" width="43.5" height="43.5"/>
		</g>
		<g>
			<rect x="390.3" y="825.1" class="st0" width="43.5" height="43.5"/>
			<rect x="433.8" y="825.1" width="43.5" height="43.5"/>
			<rect x="477.3" y="825.1" class="st0" width="43.5" height="43.5"/>
			<rect x="520.7" y="825.1" width="43.5" height="43.5"/>
			<rect x="564.2" y="825.1" width="43.5" height="43.5"/>
			<rect x="607.7" y="825.1" width="43.5" height="43.5"/>
			<rect x="651.2" y="825.1" width="43.5" height="43.5"/>
			<rect x="694.7" y="825.1" width="43.5" height="43.5"/>
			<rect x="738.1" y="825.1" width="43.5" height="43.5"/>
			<rect x="781.6" y="825.1" width="43.5" height="43.5"/>
			<rect x="825.1" y="825.1" class="st0" width="43.5" height="43.5"/>
			<rect x="868.6" y="825.1" width="43.5" height="43.5"/>
			<rect x="912" y="825.1" width="43.5" height="43.5"/>
		</g>
		<g>
			<rect x="390.3" y="868.6" width="43.5" height="43.5"/>
			<rect x="433.8" y="868.6" width="43.5" height="43.5"/>
			<rect x="477.3" y="868.6" width="43.5" height="43.5"/>
			<rect x="520.7" y="868.6" width="43.5" height="43.5"/>
			<rect x="564.2" y="868.6" width="43.5" height="43.5"/>
			<rect x="607.7" y="868.6" width="43.5" height="43.5"/>
			<rect x="651.2" y="868.6" width="43.5" height="43.5"/>
			<rect x="694.7" y="868.6" class="st0" width="43.5" height="43.5"/>
			<rect x="738.1" y="868.6" class="st0" width="43.5" height="43.5"/>
			<rect x="781.6" y="868.6" class="st0" width="43.5" height="43.5"/>
			<rect x="825.1" y="868.6" width="43.5" height="43.5"/>
			<rect x="868.6" y="868.6" width="43.5" height="43.5"/>
			<rect x="912" y="868.6" width="43.5" height="43.5"/>
		</g>
		<g>
			<rect x="390.3" y="912" width="43.5" height="43.5"/>
			<rect x="433.8" y="912" class="st0" width="43.5" height="43.5"/>
			<rect x="477.3" y="912" width="43.5" height="43.5"/>
			<rect x="520.7" y="912" class="st0" width="43.5" height="43.5"/>
			<rect x="564.2" y="912" width="43.5" height="43.5"/>
			<rect x="607.7" y="912" class="st0" width="43.5" height="43.5"/>
			<rect x="651.2" y="912" width="43.5" height="43.5"/>
			<rect x="694.7" y="912" class="st0" width="43.5" height="43.5"/>
			<rect x="738.1" y="912" width="43.5" height="43.5"/>
			<rect x="781.6" y="912" width="43.5" height="43.5"/>
			<rect x="825.1" y="912" class="st0" width="43.5" height="43.5"/>
			<rect x="868.6" y="912" class="st0" width="43.5" height="43.5"/>
			<rect x="912" y="912" class="st0" width="43.5" height="43.5"/>
		</g>
	</g>
	<g>
		<path class="st0" d="M-1-1h391.3l0,0v391.3l0,0H-1l0,0V-1L-1-1z M42.5,42.5h304.3l0,0v304.3l0,0H42.5l0,0V42.5L42.5,42.5z"/>
		<path d="M42.5,42.5h304.3l0,0v304.3l0,0H42.5l0,0V42.5L42.5,42.5z M86,86h217.4l0,0v217.4l0,0H86l0,0V86L86,86z"/>
		<path class="st0" d="M86,86h217.4l0,0v217.4l0,0H86l0,0V86L86,86z M129.4,129.4h130.4l0,0v130.4l0,0H129.4l0,0V129.4L129.4,129.4z
			"/>
		<rect x="129.4" y="129.4" width="130.4" height="130.4"/>
	</g>
	<g>
		<path class="st0" d="M607.7-1H999l0,0v391.3l0,0H607.7l0,0V-1L607.7-1z M651.2,42.5h304.3l0,0v304.3l0,0H651.2l0,0V42.5
			L651.2,42.5z"/>
		<path d="M651.2,42.5h304.3l0,0v304.3l0,0H651.2l0,0V42.5L651.2,42.5z M694.7,86H912l0,0v217.4l0,0H694.7l0,0V86L694.7,86z"/>
		<path class="st0" d="M694.7,86H912l0,0v217.4l0,0H694.7l0,0V86L694.7,86z M738.1,129.4h130.4l0,0v130.4l0,0H738.1l0,0V129.4
			L738.1,129.4z"/>
		<rect x="738.1" y="129.4" width="130.4" height="130.4"/>
	</g>
	<g>
		<path class="st0" d="M-1,607.7h391.3l0,0V999l0,0H-1l0,0V607.7L-1,607.7z M42.5,651.2h304.3l0,0v304.3l0,0H42.5l0,0V651.2
			L42.5,651.2z"/>
		<path d="M42.5,651.2h304.3l0,0v304.3l0,0H42.5l0,0V651.2L42.5,651.2z M86,694.7h217.4l0,0V912l0,0H86l0,0V694.7L86,694.7z"/>
		<path class="st0" d="M86,694.7h217.4l0,0V912l0,0H86l0,0V694.7L86,694.7z M129.4,738.1h130.4l0,0v130.4l0,0H129.4l0,0V738.1
			L129.4,738.1z"/>
		<rect x="129.4" y="738.1" width="130.4" height="130.4"/>
	</g>
</g>
</svg>
