<?xml version="1.0" encoding="utf-8"?>
<!-- Generator: Adobe Illustrator 17.0.0, SVG Export Plug-In . SVG Version: 6.00 Build 0)  -->
<!DOCTYPE svg PUBLIC "-//W3C//DTD SVG 1.1//EN" "http://www.w3.org/Graphics/SVG/1.1/DTD/svg11.dtd">
<svg version="1.1" id="Layer_1" xmlns="http://www.w3.org/2000/svg" xmlns:xlink="http://www.w3.org/1999/xlink" x="0px" y="0px"
	 width="174px" height="104.5px" viewBox="0 0 174 104.5" enable-background="new 0 0 174 104.5" xml:space="preserve">
<path fill="#795E9D" d="M14,98c0,2.209-1.791,4-4,4l0,0c-2.209,0-4-1.791-4-4V6c0-2.209,1.791-4,4-4l0,0c2.209,0,4,1.791,4,4V98z"/>
<path fill="#795E9D" d="M56.667,98c0,2.209-1.791,4-4,4l0,0c-2.209,0-4-1.791-4-4V46c0-2.209,1.791-4,4-4l0,0c2.209,0,4,1.791,4,4
	V98z"/>
<path fill="#795E9D" d="M6,96c-2.209,0-4-1.791-4-4l0,0c0-2.209,1.791-4,4-4h52c2.209,0,4,1.791,4,4l0,0c0,2.209-1.791,4-4,4H6z"/>
<path fill="#795E9D" d="M6,56c-2.209,0-4-1.791-4-4l0,0c0-2.209,1.791-4,4-4h52c2.209,0,4,1.791,4,4l0,0c0,2.209-1.791,4-4,4H6z"/>
<path fill="#795E9D" d="M122.667,98c0,2.209-1.791,4-4,4l0,0c-2.209,0-4-1.791-4-4V46c0-2.209,1.791-4,4-4l0,0c2.209,0,4,1.791,4,4
	V98z"/>
<path fill="#795E9D" d="M82,98c0,2.209-1.791,4-4,4l0,0c-2.209,0-4-1.791-4-4V46c0-2.209,1.791-4,4-4l0,0c2.209,0,4,1.791,4,4V98z"
	/>
<path fill="#795E9D" d="M114.667,96c-2.209,0-4-1.791-4-4l0,0c0-2.209,1.791-4,4-4h52c2.209,0,4,1.791,4,4l0,0c0,2.209-1.791,4-4,4
	H114.667z"/>
<path fill="#795E9D" d="M72,56c-2.209,0-4-1.791-4-4l0,0c0-2.209,1.791-4,4-4h52c2.209,0,4,1.791,4,4l0,0c0,2.209-1.791,4-4,4H72z"
	/>
</svg>
