<?xml version="1.0" standalone="no"?>
<!DOCTYPE svg PUBLIC "-//W3C//DTD SVG 20010904//EN"
 "http://www.w3.org/TR/2001/REC-SVG-20010904/DTD/svg10.dtd">
<svg version="1.0" xmlns="http://www.w3.org/2000/svg"
 width="16.000000pt" height="16.000000pt" viewBox="0 0 16.000000 16.000000"
 preserveAspectRatio="xMidYMid meet">
<metadata>
Created by potrace 1.11, written by Peter Selinger 2001-2013
</metadata>
<g transform="translate(0.000000,16.000000) scale(0.001563,-0.001563)"
fill="#000000" stroke="none">
<path d="M968 10220 c-185 -39 -346 -108 -481 -209 -205 -151 -355 -359 -430
-597 -61 -191 -56 138 -56 -4299 0 -4011 0 -4061 19 -4150 47 -214 108 -345
236 -511 165 -213 393 -357 684 -432 60 -15 376 -16 4150 -18 4444 -2 4146 -6
4325 53 186 60 337 154 475 293 96 96 182 216 234 325 31 63 88 225 80 225 -3
0 0 8 5 19 6 10 13 36 17 57 4 22 9 1875 10 4119 2 4424 6 4133 -52 4315 -41
130 -123 288 -195 375 -50 62 -176 183 -231 223 -137 101 -312 179 -463 208
-11 2 -31 7 -45 11 -14 4 -1863 9 -4110 10 -3932 2 -4088 1 -4172 -17z"/>
</g>
</svg>
