<?xml version="1.0" standalone="no"?>
<!DOCTYPE svg PUBLIC "-//W3C//DTD SVG 1.1//EN" "http://www.w3.org/Graphics/SVG/1.1/DTD/svg11.dtd" >
<svg xmlns="http://www.w3.org/2000/svg" xmlns:xlink="http://www.w3.org/1999/xlink" version="1.1">
<metadata>
Created by FontForge 20170731 at Thu Aug 11 21:01:23 2022
 By Aleksey,,,
Copyright (c) 1988, 1995 Adobe Systems Incorporated.  All Rights Reserved.ITC Serif Gothic is a registered trademark of International Typeface Corporation.
</metadata>
<defs>
<font id="SerifGothic-Heavy" horiz-adv-x="1251" >
  <font-face 
    font-family="ITC Serif Gothic Heavy"
    font-weight="500"
    font-stretch="normal"
    units-per-em="2048"
    panose-1="0 0 0 0 0 0 0 0 0 0"
    ascent="1638"
    descent="-410"
    x-height="1004"
    cap-height="1458"
    bbox="-342 -512 2048 2003"
    underline-thickness="102"
    underline-position="-307"
    unicode-range="U+0020-FB02"
  />
<missing-glyph horiz-adv-x="624" 
 />
    <glyph glyph-name=".notdef" horiz-adv-x="624" 
 />
    <glyph glyph-name=".null" horiz-adv-x="0" 
 />
    <glyph glyph-name="nonmarkingreturn" horiz-adv-x="682" 
 />
    <glyph glyph-name="space" unicode=" " horiz-adv-x="624" 
 />
    <glyph glyph-name="exclam" unicode="!" horiz-adv-x="681" 
d="M76 1458h502q-66 -46 -70 -151l-25 -752q-2 -34 3 -70t16 -47h-332q25 29 25 92q0 39 -26.5 379.5t-37.5 464.5q-1 8 -3 15t-3.5 12t-6 11.5t-6.5 9.5t-8 9.5t-8 8.5t-10 9t-10 9zM348 -23q-85 0 -138.5 55t-53.5 136t53.5 135.5t138.5 54.5t139 -54.5t54 -135.5
t-54 -136t-139 -55z" />
    <glyph glyph-name="quotedbl" unicode="&#x22;" horiz-adv-x="681" 
d="M408 903v555h245v-555h-245zM33 903v555h246v-555h-246z" />
    <glyph glyph-name="numbersign" unicode="#" 
d="M1079 608l-8 -198h-178l-55 -410h-209l55 410h-188l-58 -410h-209l58 410h-178l8 198h198l33 242h-176l8 199h197l55 409h209l-55 -409h188l55 409h209l-55 -409h160l-8 -199h-179l-34 -242h157zM748 850h-191l-33 -242h189z" />
    <glyph glyph-name="dollar" unicode="$" 
d="M907 1481v-410q-23 21 -36.5 31.5t-43 29.5t-64 28t-73.5 9q-44 0 -73 -17.5t-29 -51.5q0 -28 26.5 -58.5t68.5 -61t92.5 -65.5t101.5 -81t93 -99t68.5 -126.5t26.5 -157.5q0 -193 -121.5 -319.5t-329.5 -145.5l15 -90q9 -50 39 -66h-219v154q-7 0 -45 10t-64 10
q-17 0 -32.5 -8t-24 -16.5t-23.5 -26.5v479q100 -112 189 -135v436q-93 79 -144 157.5t-51 178.5q0 143 48 230.5t147 132.5l-5 63q-4 56 -28 90h198v-121q46 -1 112 -9.5t93 -8.5q53 0 88 35zM614 629v-340q113 45 113 168q0 16 -3 31t-6 25.5t-12 24t-13 20t-18 19.5
t-18 16.5t-22 18t-21 17.5z" />
    <glyph glyph-name="percent" unicode="%" horiz-adv-x="1820" 
d="M1399 1491l-758 -1358q-2 -4 -14.5 -24.5t-21 -35t-16 -34t-7.5 -31.5q0 -20 16 -41h-233l763 1364q3 6 15.5 27.5t21 36.5t16 31.5t7.5 23.5q0 18 -17 41h228zM246 1087q0 -62 41 -106.5t112 -44.5q72 0 113 44.5t41 106.5t-41.5 107t-112.5 45t-112 -45t-41 -107z
M27 1087q0 154 108.5 262.5t263.5 108.5t264 -108.5t109 -262.5t-109 -262t-264 -108t-263.5 108t-108.5 262zM1219 371q0 -62 41 -107t112 -45t112.5 45t41.5 107t-41 106.5t-113 44.5q-71 0 -112 -44.5t-41 -106.5zM999 371q0 154 109 262t264 108t264 -108t109 -262
t-109 -262.5t-264 -108.5t-264 108.5t-109 262.5z" />
    <glyph glyph-name="ampersand" unicode="&#x26;" horiz-adv-x="1366" 
d="M696 872h535q27 0 49.5 12t33 23t32.5 37v-383h-152q0 -15 3 -44.5t3 -47.5q0 -65 -18.5 -132t-61.5 -134t-106 -119t-160.5 -84.5t-216.5 -32.5q-158 0 -288 70t-206.5 199.5t-76.5 291.5q0 116 44 209.5t126 145.5q-24 31 -40 73t-16 82q0 190 131.5 321.5t319.5 131.5
q44 0 103 -9t61 -9q45 0 77 18v-432q-98 94 -210 94q-80 0 -125 -44t-45 -114q0 -78 34.5 -127t104.5 -59v-6q-93 0 -160.5 -68t-67.5 -164q0 -118 72.5 -192t171.5 -74q62 0 110.5 20t76 52t41.5 67.5t14 71.5q0 25 -2 39h-121q-14 0 -27.5 -8t-19.5 -14t-23 -25v364z" />
    <glyph glyph-name="quotesingle" unicode="'" horiz-adv-x="454" 
d="M350 1458v-555h-246v555h246z" />
    <glyph glyph-name="parenleft" unicode="(" horiz-adv-x="796" 
d="M698 -121l-182 -289q-12 41 -49 84q-12 14 -57.5 59t-85 86.5t-91.5 116t-88.5 153t-62 191.5t-25.5 236q0 242 77.5 418t242.5 315q47 39 74 64t57.5 64.5t46.5 80.5l164 -299q-202 -127 -289.5 -274.5t-87.5 -376.5q0 -114 27.5 -212t79 -174t111.5 -133.5t138 -109.5z
" />
    <glyph glyph-name="parenright" unicode=")" horiz-adv-x="796" 
d="M98 1169l183 289q12 -41 49 -84q12 -14 57.5 -59t85 -86.5t91 -116t88 -153t62 -191.5t25.5 -236q0 -242 -77 -418t-242 -315q-47 -39 -74 -64t-57.5 -64.5t-46.5 -80.5l-164 299q202 127 289.5 275t87.5 377q0 114 -27.5 211.5t-79.5 173.5t-112 133.5t-138 109.5z" />
    <glyph glyph-name="asterisk" unicode="*" horiz-adv-x="909" 
d="M186 741l-141 246q138 29 279 64v22q-179 47 -283 62l143 247q61 -83 191 -213l18 13q-26 142 -84 276h291q-58 -134 -84 -276l19 -13q126 126 190 213l143 -247q-102 -15 -282 -62v-22q146 -37 278 -64l-141 -246q-74 118 -197 213l-18 -10q16 -76 88 -274h-283
q72 198 88 274l-18 10q-123 -95 -197 -213z" />
    <glyph glyph-name="plus" unicode="+" horiz-adv-x="1228" 
d="M115 383v238h381v383h237v-383h381v-238h-381v-383h-237v383h-381z" />
    <glyph glyph-name="comma" unicode="," horiz-adv-x="624" 
d="M565 281l-219 -406q-33 -64 -33 -72q0 -12 15 -32h-258l73 340q15 67 15 98q0 11 -1.5 19.5t-6 16.5t-7.5 11.5t-11 12t-11 12.5h444z" />
    <glyph glyph-name="hyphen" unicode="-" horiz-adv-x="681" 
d="M86 647h287q51 0 80 1.5t71.5 10.5t73.5 27v-330h-287q-51 0 -80 -1.5t-71.5 -10.5t-73.5 -27v330z" />
    <glyph glyph-name="period" unicode="." horiz-adv-x="624" 
d="M311 358q85 0 139 -54.5t54 -135.5t-54 -136t-139 -55t-138.5 55t-53.5 136t53.5 135.5t138.5 54.5z" />
    <glyph glyph-name="slash" unicode="/" horiz-adv-x="569" 
d="M186 -33h-239l438 1524h240z" />
    <glyph glyph-name="zero" unicode="0" 
d="M399 893v-328q0 -123 61.5 -194.5t166.5 -71.5q104 0 165.5 71.5t61.5 194.5v328q0 123 -61.5 194.5t-165.5 71.5q-105 0 -166.5 -71.5t-61.5 -194.5zM627 -33q-202 0 -343.5 114t-183.5 279q-32 120 -32 369t32 369q42 165 183.5 279t343.5 114t343 -114t183 -279
q33 -124 33 -369t-33 -369q-42 -165 -183 -279t-343 -114z" />
    <glyph glyph-name="one" unicode="1" 
d="M569 1458h295q-2 -3 -13.5 -15.5t-15.5 -19.5t-9 -25t-5 -42v-1254q0 -24 5 -42t9 -25t15.5 -19.5t13.5 -15.5h-409q2 3 13.5 15.5t15.5 19.5t9 25t5 42v797h-4q-58 -92 -127 -176l-248 184q52 35 110 113z" />
    <glyph glyph-name="two" unicode="2" 
d="M1139 0h-1127l555 641q18 20 54.5 60.5t53.5 60t43 54t37.5 58.5t21 56.5t9.5 64.5q0 80 -51 129.5t-129 49.5t-129 -49.5t-51 -129.5q0 -50 20 -102h-407q15 33 51 182q9 37 19.5 68t31.5 75.5t46.5 80t67 73t91 62.5t120 41t152.5 16q147 0 267.5 -68.5t189 -187
t68.5 -262.5q0 -66 -14.5 -125t-34 -100.5t-58 -91.5t-66.5 -79t-82 -82.5t-83 -84.5l-103 -109h342q36 0 55 14.5t40 46.5v-362z" />
    <glyph glyph-name="three" unicode="3" 
d="M20 635h369q-6 -54 -6 -66q0 -119 59 -188.5t174 -69.5t174.5 69.5t59.5 188.5q0 96 -67 162t-171 94v4q71 18 115.5 61.5t44.5 106.5q0 68 -37 115t-114 47t-114.5 -47t-37.5 -115q0 -11 6 -65h-346q35 41 45 88q17 84 38.5 148t57.5 127.5t84 104.5t119 66t160 25
q183 0 306.5 -123.5t123.5 -310.5q0 -87 -37 -178q145 -125 145 -367q0 -112 -39.5 -211.5t-110 -173.5t-175 -117t-228.5 -43q-148 0 -268.5 73t-190.5 191.5t-85 260.5q-8 74 -54 143z" />
    <glyph glyph-name="four" unicode="4" 
d="M410 561h280v377h-4zM754 1458h303q-2 -3 -13.5 -15.5t-15.5 -19.5t-9 -25t-5 -42v-789h92q48 0 74 29v-330h-166v-164q0 -24 5 -42t9 -25t15.5 -19.5t13.5 -15.5h-410q2 3 13.5 15.5t15.5 19.5t9 25t5 42v164h-497l-213 260q37 0 59 27z" />
    <glyph glyph-name="five" unicode="5" 
d="M274 1458h707v-362q-14 22 -23 32.5t-27.5 19.5t-43.5 9h-359l-16 -158q62 35 145 35t156 -28t127.5 -77t94 -114t59.5 -141t20 -156q0 -244 -161.5 -397.5t-415.5 -153.5q-153 0 -258.5 50.5t-221.5 166.5q-17 17 -65 17l291 288q74 -190 247 -190q110 0 169 63.5
t59 147.5q0 113 -70.5 182.5t-206.5 69.5q-147 0 -291 -133z" />
    <glyph glyph-name="six" unicode="6" 
d="M494 1458h542q-68 -52 -114 -110l-267 -342h7q231 0 374.5 -143.5t143.5 -360.5q0 -148 -73 -270.5t-201.5 -193.5t-284.5 -71t-284.5 71t-202 193.5t-73.5 270.5q0 27 3 53.5t12.5 57t16 52t25.5 58t27.5 53.5t35 60.5t35.5 58.5t42.5 66.5t42.5 66.5q20 31 55.5 84.5
t61 92.5t52 82t40.5 73t14 45q0 10 -3 18t-5.5 11.5t-11 12.5t-10.5 11zM627 721q-91 0 -150 -59.5t-59 -151.5t59 -151.5t150 -59.5t150 59.5t59 151.5t-59 151.5t-150 59.5z" />
    <glyph glyph-name="seven" unicode="7" 
d="M115 1458h1061l-492 -1278q-45 -115 -45 -127q0 -10 3 -18t6 -11.5t11 -12t11 -11.5h-494q53 52 88 113.5t80 165.5l383 878h-518q-25 0 -43.5 -9t-27.5 -19.5t-23 -32.5v362z" />
    <glyph glyph-name="eight" unicode="8" 
d="M627 -33q-154 0 -280 68t-199.5 193t-73.5 284q0 121 50 219t144 156q-35 40 -52 81t-17 103q0 177 121.5 298.5t300.5 121.5t300 -121t121 -299q0 -98 -73 -182q93 -55 152 -155t59 -222q0 -159 -73.5 -284t-199.5 -193t-280 -68zM627 705q-90 0 -149.5 -58.5
t-59.5 -144.5t59.5 -144.5t149.5 -58.5t149.5 58.5t59.5 144.5t-59.5 144.5t-149.5 58.5zM621 942q50 0 81 32.5t31 84.5q0 49 -33 82t-79 33t-79.5 -33t-33.5 -82q0 -51 31 -84t82 -33z" />
    <glyph glyph-name="nine" unicode="9" 
d="M752 0h-543q69 52 115 111l266 342h-6q-231 0 -374.5 143t-143.5 360q0 148 73 270.5t201.5 193.5t284.5 71t284.5 -71t201.5 -193.5t73 -270.5q0 -27 -3 -53.5t-12.5 -57t-16 -52t-25.5 -58t-27.5 -53.5t-35 -60.5t-35.5 -58.5t-42.5 -66.5t-42.5 -66.5
q-20 -31 -55.5 -84.5t-61 -92.5t-52 -82t-40.5 -73t-14 -45q0 -10 3 -18t6 -11.5t11 -12t11 -11.5zM618 737q91 0 150 59.5t59 151.5t-59 151.5t-150 59.5t-149.5 -59.5t-58.5 -151.5t58.5 -151.5t149.5 -59.5z" />
    <glyph glyph-name="colon" unicode=":" horiz-adv-x="624" 
d="M311 -23q-85 0 -138.5 55t-53.5 136t53.5 135.5t138.5 54.5t139 -54.5t54 -135.5t-54 -136t-139 -55zM311 608q-85 0 -138.5 55t-53.5 136t53.5 135.5t138.5 54.5t139 -54.5t54 -135.5t-54 -136t-139 -55z" />
    <glyph glyph-name="semicolon" unicode=";" horiz-adv-x="624" 
d="M567 281l-219 -406q-33 -64 -33 -72q0 -12 15 -32h-258l73 340q15 67 15 98q0 11 -1.5 19.5t-6 16.5t-7.5 11.5t-11 12t-11 12.5h444zM311 989q85 0 139 -54.5t54 -135.5t-54 -136t-139 -55t-138.5 55t-53.5 136t53.5 135.5t138.5 54.5z" />
    <glyph glyph-name="less" unicode="&#x3c;" horiz-adv-x="1228" 
d="M414 502l721 -299v-236l-1041 439v192l1041 438v-235z" />
    <glyph glyph-name="equal" unicode="=" horiz-adv-x="1228" 
d="M1114 844v-238h-999v238h999zM1114 397v-237h-999v237h999z" />
    <glyph glyph-name="greater" unicode="&#x3e;" horiz-adv-x="1228" 
d="M1135 598v-192l-1041 -439v236l721 299l-721 299v235z" />
    <glyph glyph-name="question" unicode="?" horiz-adv-x="909" 
d="M473 424h-305q10 30 10 45v328q55 -19 105 -19q97 0 149.5 52.5t52.5 127.5t-52.5 128t-149.5 53q-84 0 -189 -82v434q35 -47 78 -47q18 0 72 7t92 7q93 0 182 -38.5t156 -104t108 -158.5t41 -196q0 -180 -97.5 -298t-266.5 -149zM315 358q85 0 139 -54.5t54 -135.5
t-54 -136t-139 -55t-138.5 55t-53.5 136t53.5 135.5t138.5 54.5z" />
    <glyph glyph-name="at" unicode="@" horiz-adv-x="1638" 
d="M999 727q0 75 -42 120.5t-115 45.5q-90 0 -147.5 -60.5t-57.5 -152.5q0 -74 42.5 -120t115.5 -46q90 0 147 60.5t57 152.5zM1077 1096h193q-12 -68 -39.5 -214t-44.5 -241.5t-17 -110.5q0 -13 7.5 -23.5t17.5 -10.5q83 0 136.5 92t53.5 219q0 149 -68 263t-184.5 173.5
t-263.5 59.5q-177 0 -308 -74.5t-198 -203.5t-67 -296q0 -254 153.5 -413.5t419.5 -159.5q244 0 402 120h200q-220 -309 -610 -309q-157 0 -299.5 53.5t-251 150t-173 241.5t-64.5 317t64.5 317t173 241.5t251 150t299.5 53.5q136 0 263 -44t226 -122.5t158.5 -196.5
t59.5 -256q0 -121 -40 -224t-100 -168t-133.5 -111.5t-138 -66t-115.5 -19.5q-103 0 -106 98l-4 4q-32 -44 -83.5 -73t-113.5 -29q-136 0 -237 104.5t-101 261.5q0 121 49.5 227t145 173t217.5 67q85 0 145 -28t107 -91z" />
    <glyph glyph-name="A" unicode="A" horiz-adv-x="1366" 
d="M537 526h303l-150 484h-4zM936 231h-504l-35 -90q-14 -38 -14 -67q0 -36 33 -74h-469q33 23 47 63l481 1205q37 92 37 116q0 36 -33 74h350l523 -1354q21 -56 65 -104h-465q33 38 33 74q0 29 -14 67z" />
    <glyph glyph-name="B" unicode="B" horiz-adv-x="1138" 
d="M459 1149v-811h57q100 0 155.5 63t55.5 172q0 93 -50 154.5t-136 89.5v4q116 47 116 164q0 77 -34.5 122.5t-100.5 45.5q-27 0 -63 -4zM121 152v1339q41 -41 88 -41q31 0 122 20.5t146 20.5q225 0 363.5 -119t138.5 -330q0 -123 -59 -198q145 -100 145 -332
q0 -223 -148.5 -367.5t-388.5 -144.5h-458q51 30 51 152z" />
    <glyph glyph-name="C" unicode="C" 
d="M1180 428v-461q-45 27 -62 27q-10 0 -109 -13.5t-165 -13.5q-169 0 -314 58t-246.5 159t-159.5 242t-58 303t58 303t159.5 242t246.5 159t314 58q61 0 147 -20.5t101 -20.5q47 0 88 41v-475q-76 67 -154.5 102t-181.5 35q-186 0 -306 -114t-120 -310q0 -181 122.5 -302.5
t303.5 -121.5q101 0 179.5 30.5t156.5 92.5z" />
    <glyph glyph-name="D" unicode="D" horiz-adv-x="1366" 
d="M129 152v1339q41 -41 88 -41q26 0 140 20.5t186 20.5q109 0 217 -33.5t203.5 -99t169 -155t116.5 -210t43 -254.5q0 -114 -33 -221.5t-99.5 -201.5t-159.5 -164.5t-222 -111t-278 -40.5h-422q51 30 51 152zM467 1153v-815q221 0 347 101.5t126 299.5q0 88 -26 158.5
t-70.5 117.5t-105.5 78.5t-128.5 45.5t-142.5 14z" />
    <glyph glyph-name="E" unicode="E" horiz-adv-x="1024" 
d="M119 152v1155q0 58 -12.5 93t-45.5 54v4h891v-387q-63 72 -153 72h-342v-256h229q27 0 49.5 11.5t33.5 23t32 36.5v-458q-21 25 -32 36.5t-33.5 23t-49.5 11.5h-229v-256h348q90 0 153 72v-387h-890q51 30 51 152z" />
    <glyph glyph-name="F" unicode="F" horiz-adv-x="909" 
d="M887 1458v-387q-22 26 -32.5 37t-33 23t-49.5 12h-315v-256h229q27 0 49.5 11.5t33.5 23t32 36.5v-458q-21 25 -32 36.5t-33.5 23t-49.5 11.5h-229v-419q0 -122 51 -152h-440q51 30 51 152v1253q0 27 -15 53h783z" />
    <glyph glyph-name="G" unicode="G" horiz-adv-x="1478" 
d="M1386 895v-582q0 -55 9 -80t37 -47q-230 -219 -582 -219q-158 0 -301.5 58.5t-248.5 158.5t-166.5 242.5t-61.5 302.5t61.5 302.5t166.5 242.5t248.5 158.5t301.5 58.5q61 0 147 -20.5t101 -20.5q47 0 88 41v-475q-76 67 -154.5 102t-181.5 35q-186 0 -306 -114
t-120 -310q0 -181 122.5 -302.5t303.5 -121.5q101 0 199 37v215h-283q-35 0 -55.5 -12.5t-46.5 -40.5v444q26 -28 46.5 -40.5t55.5 -12.5h620z" />
    <glyph glyph-name="H" unicode="H" 
d="M1118 1307v-1155q0 -122 51 -152h-440q51 30 51 152v434h-319v-434q0 -122 51 -152h-440q51 30 51 152v1155q0 121 -51 151h440q-51 -30 -51 -151v-406h319v406q0 121 -51 151h440q-51 -30 -51 -151z" />
    <glyph glyph-name="I" unicode="I" horiz-adv-x="569" 
d="M111 152v1155q0 120 -52 151h441q-51 -30 -51 -151v-1155q0 -122 51 -152h-441q52 31 52 152z" />
    <glyph glyph-name="J" unicode="J" horiz-adv-x="796" 
d="M276 1458h441q-51 -30 -51 -151v-912q0 -55 -12 -110.5t-41.5 -114t-74.5 -102.5t-118 -72.5t-164 -28.5q-28 0 -73.5 4t-65.5 4q-47 0 -82 -41v416q93 -67 160 -67q133 0 133 112v912q0 120 -52 151z" />
    <glyph glyph-name="K" unicode="K" 
d="M457 586v-434q0 -122 51 -152h-440q51 30 51 152v1155q0 121 -51 151h440q-51 -30 -51 -151v-371h4l145 227q9 13 26.5 40t27.5 42.5t24.5 38.5t23 37t17 29.5t12.5 25.5t4 15q0 11 -1.5 19t-5.5 15.5t-6 11.5t-8.5 11.5t-8.5 9.5h534q-38 -27 -71 -72l-494 -598
q91 -14 165 -52t128.5 -99t93.5 -137t68 -172q32 -105 49 -156t45 -102t59 -70h-432q0 14 3 43t3 43q0 95 -31.5 175.5t-90 140t-127 103.5t-156.5 81z" />
    <glyph glyph-name="L" unicode="L" horiz-adv-x="909" 
d="M909 0h-831q51 30 51 152v1155q0 121 -51 151h440q-51 -30 -51 -151v-992h289q90 0 153 72v-387z" />
    <glyph glyph-name="M" unicode="M" horiz-adv-x="1593" 
d="M553 1458l244 -694h4l248 694h337q-26 -43 -26 -84q0 -42 10 -114l166 -1076q20 -122 72 -184h-443q32 36 37 61q2 9 2 19q0 53 -4 90l-74 696h-4l-321 -899h-17l-327 899h-4l-64 -708q-4 -39 -4 -78q0 -18 7.5 -35t13 -23.5t18.5 -21.5h-440q49 58 69 184l168 1076
q10 72 10 114q0 41 -26 84h348z" />
    <glyph glyph-name="N" unicode="N" horiz-adv-x="1366" 
d="M135 152v1155q0 121 -51 151h387q311 -551 418 -815h4v664q0 121 -51 151h440q-51 -30 -51 -151v-1155q0 -122 51 -152h-387q-65 132 -220 407t-198 384h-4v-639q0 -122 51 -152h-440q51 30 51 152z" />
    <glyph glyph-name="O" unicode="O" horiz-adv-x="1705" 
d="M852 1153q-99 0 -182 -36t-137.5 -95.5t-84.5 -135.5t-30 -157t30 -157t84.5 -135.5t137.5 -95.5t182 -36t182 36t137.5 95.5t84.5 135.5t30 157t-30 157t-84.5 135.5t-137.5 95.5t-182 36zM852 1491q155 0 299 -58t251 -158t171.5 -243t64.5 -303t-64.5 -303
t-171.5 -243t-251 -158t-299 -58t-299 58t-251 158t-171.5 243t-64.5 303t64.5 303t171.5 243t251 158t299 58z" />
    <glyph glyph-name="P" unicode="P" horiz-adv-x="1138" 
d="M526 0h-440q51 30 51 152v1339q45 -39 101 -39q29 0 134.5 19.5t159.5 19.5q106 0 197.5 -30.5t157 -82t112 -119.5t69 -144t22.5 -154q0 -142 -65.5 -261.5t-190 -192.5t-281.5 -73q-41 0 -78 6v-288q0 -122 51 -152zM475 1141v-357q24 -12 66 -12q89 0 142.5 50
t53.5 141t-53.5 140.5t-142.5 49.5q-42 0 -66 -12z" />
    <glyph glyph-name="Q" unicode="Q" horiz-adv-x="1705" 
d="M586 690h540v-4q-34 -24 -34 -53q0 -38 100 -170q94 114 94 266q0 81 -30 157t-84.5 135.5t-137.5 95.5t-182 36t-182 -36t-137.5 -95.5t-84.5 -135.5t-30 -157t30 -157t84.5 -135.5t137.5 -95.5t182 -36q36 0 63 6q-54 69 -110 133.5t-125.5 141.5t-93.5 104zM1720 -98
h-573v4q35 21 35 53q0 13 -39 64q-136 -56 -291 -56t-299 58t-251 158t-171.5 243t-64.5 303t64.5 303t171.5 243t251 158t299 58t299 -58t251 -158t171.5 -243t64.5 -303q0 -159 -60 -295t-167 -239q126 -133 309 -293z" />
    <glyph glyph-name="R" unicode="R" 
d="M457 1174v-312q16 -2 51 -2q67 0 112.5 46t45.5 112t-45.5 112t-112.5 46q-35 0 -51 -2zM119 152v1339q45 -39 100 -39q29 0 135 19.5t160 19.5q158 0 274 -64.5t173 -171t57 -239.5q0 -278 -172 -301v-4q68 -14 127 -57t101 -100t76 -130.5t54.5 -142.5t34.5 -142
q7 -42 21 -71.5t21 -37t30 -30.5h-469q26 35 26 111q0 180 -114.5 299t-296.5 170v-428q0 -122 51 -152h-440q51 30 51 152z" />
    <glyph glyph-name="S" unicode="S" horiz-adv-x="909" 
d="M717 1491v-420q-1 1 -20 16.5t-23 18.5t-22.5 16.5t-27 17.5t-26 13.5t-31 12.5t-31.5 6.5t-36 3.5q-99 0 -99 -76q0 -33 26.5 -64.5t68 -61.5t92.5 -63.5t102 -78t92.5 -97.5t68 -129t26.5 -166q0 -218 -138.5 -345.5t-373.5 -127.5q-43 0 -114.5 12.5t-100.5 12.5
q-48 0 -93 -25v488q66 -83 131 -127.5t150 -44.5q83 0 134.5 47t51.5 123q0 38 -16 72t-43.5 62t-63.5 55t-75.5 54t-78.5 55.5t-75 63t-63.5 72.5t-43.5 88t-16 106q0 175 105.5 292.5t281.5 117.5q47 0 110.5 -12.5t90.5 -12.5q28 0 44 4.5t32 20.5h4z" />
    <glyph glyph-name="T" unicode="T" horiz-adv-x="909" 
d="M674 0h-441q52 31 52 152v991h-172q-35 0 -56 -12.5t-47 -40.5v368h887v-368q-26 28 -46.5 40.5t-55.5 12.5h-172v-991q0 -122 51 -152z" />
    <glyph glyph-name="U" unicode="U" 
d="M752 1458h440q-51 -30 -51 -151v-852q0 -120 -40 -214t-110 -153.5t-161 -90t-197 -30.5t-197 30.5t-161 90t-110 153.5t-40 214v852q0 121 -51 151h440q-51 -30 -51 -151v-822q0 -81 50 -130.5t120 -49.5t120 49.5t50 130.5v822q0 121 -51 151z" />
    <glyph glyph-name="V" unicode="V" horiz-adv-x="1366" 
d="M934 1458h483q-44 -36 -110 -203l-441 -1138q-22 -59 -22 -68q0 -22 20 -49h-329l-508 1325q-13 35 -36 77t-40 56h467q-2 -3 -10.5 -14t-11.5 -16t-8 -14.5t-7 -19t-2 -20.5q0 -14 4 -32t8 -29.5t12 -32.5t11 -29l260 -729h4l260 729q3 8 11 29t12 32.5t8 29.5t4 32
q0 11 -2 20.5t-7 19t-8 14.5t-11.5 16t-10.5 14z" />
    <glyph glyph-name="W" unicode="W" horiz-adv-x="1933" 
d="M1915 1350l-459 -1248q-18 -54 -18 -57q0 -18 18 -45h-313l-187 551h-4l-131 -440q-16 -56 -16 -66q0 -18 18 -45h-307l-489 1321q-28 75 -78 137h461q-39 -35 -39 -65q0 -22 18 -78l262 -783h4l129 435l-147 370q-33 85 -62 121h453q-39 -35 -39 -65q0 -7 23 -78
l250 -791h6l272 791q23 71 23 78q0 33 -35 65h459q-53 -53 -72 -108z" />
    <glyph glyph-name="X" unicode="X" 
d="M1038 1204l-225 -407l346 -602q83 -143 164 -195h-530q47 31 47 66q0 24 -35 92l-178 354l-150 -324q-2 -5 -13 -26.5t-14 -28.5t-9.5 -22t-8.5 -25.5t-2 -19.5q0 -29 41 -66h-512q94 82 145 178l336 619l-233 411q-77 135 -178 250h497q-34 -31 -34 -65q0 -25 24 -74
l98 -215h4l115 211q33 58 33 78q0 14 -8.5 26.5t-18 19.5t-26.5 19h506q-77 -67 -181 -254z" />
    <glyph glyph-name="Y" unicode="Y" 
d="M850 0h-440q51 30 51 152v510l-320 512q-26 43 -65.5 100.5t-82 117.5t-46.5 66h506q-35 -32 -35 -65q0 -23 37 -90l180 -326h4l172 332q31 60 31 84q0 33 -35 65h522q-41 -35 -82 -96l-448 -700v-510q0 -122 51 -152z" />
    <glyph glyph-name="Z" unicode="Z" horiz-adv-x="1138" 
d="M-23 0l621 1143h-350q-27 0 -49.5 -12t-33 -23t-32.5 -37v387h1000l-637 -1143h471q27 0 49.5 12.5t32 22.5t32.5 37v-387h-1104z" />
    <glyph glyph-name="bracketleft" unicode="[" horiz-adv-x="681" 
d="M420 1165v-1282h84q62 0 110 23v-277h-475q27 34 27 80v1630q0 45 -27 80h475v-276q-46 22 -110 22h-84z" />
    <glyph glyph-name="backslash" unicode="\" horiz-adv-x="569" 
d="M625 -33h-240l-438 1524h239z" />
    <glyph glyph-name="bracketright" unicode="]" horiz-adv-x="681" 
d="M68 1419h475q-27 -35 -27 -80v-1630q0 -46 27 -80h-475v277q48 -23 110 -23h84v1282h-84q-64 0 -110 -22v276z" />
    <glyph glyph-name="asciicircum" unicode="^" horiz-adv-x="1228" 
d="M1079 711h-239l-226 508l-225 -508h-239l356 747h217z" />
    <glyph glyph-name="underscore" unicode="_" horiz-adv-x="1024" 
d="M0 -154h1024v-102h-1024v102z" />
    <glyph glyph-name="grave" unicode="`" horiz-adv-x="569" 
d="M-94 1473h370l201 -304h-248z" />
    <glyph glyph-name="a" unicode="a" 
d="M1130 694v-592q0 -24 5 -42t9.5 -25.5t15.5 -19t14 -15.5h-293v131h-4q-61 -164 -265 -164q-163 0 -288 71t-190.5 192t-65.5 272q0 155 75 278.5t198.5 189.5t270.5 66q124 0 204 -31.5t151 -86.5q13 -10 52 -42.5t54.5 -43t44.5 -23t56 -12.5q-2 -3 -13.5 -15.5
t-16 -19.5t-9.5 -25.5t-5 -42.5zM815 346v311q-27 35 -76.5 58.5t-113.5 23.5q-106 0 -170 -68t-64 -169q0 -102 64 -170t170 -68q64 0 113.5 23.5t76.5 58.5z" />
    <glyph glyph-name="b" unicode="b" 
d="M416 664v-314q60 -86 178 -86q114 0 184 62t70 176q0 113 -70 175t-184 62q-95 0 -178 -75zM100 293v1063q0 24 -5 42t-9 25t-15.5 19.5t-13.5 15.5h359v-500q72 43 127 60.5t129 17.5q221 0 360 -150.5t139 -385.5q0 -104 -30.5 -192.5t-83.5 -150.5t-123.5 -105.5
t-149.5 -64t-163 -20.5q-102 0 -178.5 28t-166.5 85q-14 9 -49.5 32t-51 31.5t-40.5 22.5t-43.5 19t-34.5 5q2 2 13.5 15t15.5 20t9 25.5t5 42.5z" />
    <glyph glyph-name="c" unicode="c" horiz-adv-x="909" 
d="M854 360v-393q-29 21 -57 21q-27 0 -79 -10.5t-95 -10.5q-158 0 -286 67t-202 190t-74 278q0 117 43.5 217t118.5 169.5t178.5 108.5t221.5 39q43 0 95 -10t79 -10q29 0 57 20v-399q-106 102 -215 102q-111 0 -182.5 -68t-71.5 -169q0 -102 71.5 -170t182.5 -68
q128 0 215 96z" />
    <glyph glyph-name="d" unicode="d" 
d="M823 350v314q-83 75 -178 75q-114 0 -184 -62t-70 -175q0 -114 70 -176t184 -62q118 0 178 86zM1139 1458v-1165q0 -24 5 -42.5t9 -25.5t15.5 -20t13.5 -15q-16 0 -34.5 -5t-43.5 -19t-40.5 -22.5t-51 -31.5t-49.5 -32q-90 -57 -166.5 -85t-178.5 -28q-84 0 -163 20.5
t-149.5 64t-123.5 105.5t-83.5 150.5t-30.5 192.5q0 235 139 385.5t360 150.5q74 0 129 -17.5t127 -60.5v398q0 24 -5 42t-9 25t-15.5 19.5t-13.5 15.5h359z" />
    <glyph glyph-name="e" unicode="e" 
d="M373 608h512q-43 82 -104.5 124t-151.5 42t-151.5 -42t-104.5 -124zM1217 391h-830q94 -162 297 -162q139 0 254 68v-330h-4q-24 27 -55 27q-19 0 -105 -12q-108 -15 -139 -15q-123 0 -231 42t-182.5 114t-117.5 170.5t-43 208.5q0 147 72.5 269t204.5 193.5t297 71.5
q123 0 228 -47.5t175 -127t109 -182.5t39 -214q0 -11 2 -20t6 -17.5t7 -13t8.5 -12.5t7.5 -11z" />
    <glyph glyph-name="f" unicode="f" horiz-adv-x="681" 
d="M655 1004v-338h-4q-16 32 -35.5 46.5t-54.5 14.5h-92v-625q0 -24 5 -42t9 -25t15.5 -19.5t13.5 -15.5h-401q2 3 13.5 15.5t15.5 19.5t9 25t5 42v625h-43q-48 0 -74 -29v306h117v71q0 107 29.5 182t88.5 119t139 63t189 19q26 0 49 35v-311q-30 -1 -46 -2.5t-41 -5.5
t-38.5 -11t-27.5 -19t-20.5 -31t-6.5 -44v-65h186z" />
    <glyph glyph-name="g" unicode="g" 
d="M1143 711v-613q0 -133 -43 -238.5t-120 -174t-181 -104.5t-228 -36q-49 0 -145 17q-79 14 -119 14q-12 0 -21.5 -3.5t-15 -7.5t-14 -10.5t-12.5 -9.5v385q155 -108 291 -108q141 0 215.5 57t74.5 193h-4q-65 -105 -233 -105q-107 0 -201.5 34t-168 99t-116.5 169t-43 233
q0 102 41 198t113 171t179 120t231 45q102 0 178.5 -27.5t165.5 -84.5q16 -10 50 -32t50.5 -32t41 -23t43 -18.5t34.5 -5.5q-2 -3 -13.5 -15.5t-15.5 -19.5t-9 -25t-5 -42zM827 346v311q-27 35 -76.5 58.5t-113.5 23.5q-114 0 -184 -62t-70 -175q0 -114 70 -176t184 -62
q64 0 113.5 23.5t76.5 58.5z" />
    <glyph glyph-name="h" unicode="h" horiz-adv-x="1138" 
d="M416 1458v-459q85 37 182 37q191 0 313.5 -118t122.5 -304v-512q0 -24 5 -42t9 -25t15.5 -19.5t13.5 -15.5h-401q2 3 13.5 15.5t15.5 19.5t9 25t5 42v504q0 62 -43.5 104t-128.5 42q-54 0 -92.5 -28t-38.5 -75v-547q0 -24 5 -42t9 -25t15.5 -19.5t13.5 -15.5h-402
q2 3 13.5 15.5t15.5 19.5t9 25t5 42v1254q0 24 -5 42t-9 25t-15.5 19.5t-13.5 15.5h359z" />
    <glyph glyph-name="i" unicode="i" horiz-adv-x="569" 
d="M442 1004v-902q0 -24 5 -42t9 -25t15.5 -19.5t13.5 -15.5h-401q2 3 13.5 15.5t15.5 19.5t9 25t5 42v799q0 24 -5 42.5t-9 25.5t-15.5 20t-13.5 15h358zM117 1241q0 69 47 118.5t121 49.5t121 -49.5t47 -118.5t-47 -118.5t-121 -49.5t-121 49.5t-47 118.5z" />
    <glyph glyph-name="j" unicode="j" horiz-adv-x="569" 
d="M451 1004v-1002q0 -189 -119 -300.5t-301 -111.5q-48 0 -76.5 -7.5t-60.5 -37.5v398q25 -22 37 -30.5t33.5 -17t45.5 -8.5q61 0 93 33.5t32 87.5v893q0 24 -5 42.5t-9 25.5t-15.5 20t-13.5 15h359zM125 1241q0 69 47 118.5t121 49.5t121 -49.5t47 -118.5t-47 -118.5
t-121 -49.5t-121 49.5t-47 118.5z" />
    <glyph glyph-name="k" unicode="k" horiz-adv-x="1024" 
d="M408 1458v-715h6l133 158q39 45 39 68q0 14 -25 35h496v-5q-52 -24 -90 -59l-322 -309q54 -3 99 -24t75.5 -50t55 -74.5t38.5 -85t25.5 -97t16.5 -93.5t10 -90q7 -67 71 -117h-395q0 9 4 49.5t4 67.5q0 49 -8 95.5t-27 89.5t-46 75.5t-68.5 52t-91.5 19.5v-347
q0 -24 5 -42t9 -25t15.5 -19.5t13.5 -15.5h-402q2 3 13.5 15.5t15.5 19.5t9 25t5 42v1254q0 24 -5 42t-9 25t-15.5 19.5t-13.5 15.5h359z" />
    <glyph glyph-name="l" unicode="l" horiz-adv-x="569" 
d="M438 1458v-1356q0 -24 5 -42t9 -25t15.5 -19.5t13.5 -15.5h-401q2 3 13.5 15.5t15.5 19.5t9 25t5 42v1254q0 24 -5 42t-9 25t-15.5 19.5t-13.5 15.5h358z" />
    <glyph glyph-name="m" unicode="m" horiz-adv-x="1820" 
d="M119 102v609q0 24 -5 42t-9 25t-15.5 19.5t-13.5 15.5q20 6 50 24t75.5 49t70.5 46q93 57 164 80.5t180 23.5q91 0 159.5 -26t131.5 -78q66 34 106.5 52t108.5 35t138 17q191 0 313.5 -118t122.5 -304v-512q0 -24 5 -42t9 -25t15.5 -19.5t13.5 -15.5h-402q2 3 13.5 15.5
t15.5 19.5t9 25t5 42v510q0 60 -40.5 93.5t-118.5 33.5q-72 0 -114 -28.5t-42 -75.5v-533q0 -24 5 -42t9 -25t15.5 -19.5t13.5 -15.5h-401q2 3 13.5 15.5t15.5 19.5t9 25t5 42v510q0 60 -42 93.5t-126 33.5q-70 0 -109 -27.5t-39 -58.5v-551q0 -24 5 -42t9 -25t15.5 -19.5
t13.5 -15.5h-401q2 3 13.5 15.5t15.5 19.5t9 25t5 42z" />
    <glyph glyph-name="n" unicode="n" horiz-adv-x="1138" 
d="M1077 0h-401q2 3 13.5 15.5t15.5 19.5t9 25t5 42v510q0 58 -40.5 92.5t-119.5 34.5q-52 0 -97.5 -29t-45.5 -81v-527q0 -24 5 -42t9 -25t15.5 -19.5t13.5 -15.5h-402q2 3 13.5 15.5t15.5 19.5t9 25t5 42v609q0 24 -5 42t-9 25t-15.5 19.5t-13.5 15.5q16 0 34.5 5.5
t43 18.5t41 23t50.5 32t50 32q89 57 166 84.5t179 27.5q104 0 199.5 -56.5t154.5 -155t59 -210.5v-512q0 -24 5 -42t9 -25t15.5 -19.5t13.5 -15.5z" />
    <glyph glyph-name="o" unicode="o" 
d="M625 739q-110 0 -175 -71.5t-65 -165.5t65 -166t175 -72q109 0 174 72t65 166t-64.5 165.5t-174.5 71.5zM625 1036q124 0 231 -45t178.5 -120t112.5 -171t41 -198t-41 -198.5t-112.5 -171t-178.5 -120t-231 -45.5t-231 45.5t-179 120t-113 171t-41 198.5t41 198t113 171
t179 120t231 45z" />
    <glyph glyph-name="p" unicode="p" 
d="M100 -307v1018q0 24 -5 42t-9 25t-15.5 19.5t-13.5 15.5q16 0 34.5 5.5t43 18.5t41 23t50.5 32t50 32q89 57 166 84.5t179 27.5q106 0 203 -34t175 -98.5t125 -168t47 -231.5q0 -239 -141.5 -388t-357.5 -149q-74 0 -129 17.5t-127 60.5v-352q0 -24 5 -42.5t9 -25.5
t15.5 -20t13.5 -15h-402q2 2 13.5 15t15.5 20t9 25.5t5 42.5zM416 653v-313q84 -76 178 -76q113 0 183.5 62.5t70.5 175.5q0 114 -70 175.5t-184 61.5q-118 0 -178 -86z" />
    <glyph glyph-name="q" unicode="q" 
d="M1192 -410h-401q2 2 13.5 15t15.5 20t9 25.5t5 42.5v352q-72 -43 -127 -60.5t-129 -17.5q-216 0 -358 149t-142 388q0 128 47 231.5t125.5 168t175.5 98.5t203 34q102 0 178.5 -27.5t165.5 -84.5q16 -10 50 -32t50.5 -32t41 -23t43 -18.5t34.5 -5.5q-2 -3 -13.5 -15.5
t-15.5 -19.5t-9 -25t-5 -42v-1018q0 -24 5 -42.5t9 -25.5t15.5 -20t13.5 -15zM834 342v313q-60 86 -179 86q-114 0 -184 -61.5t-70 -175.5q0 -113 70.5 -175.5t183.5 -62.5q95 0 179 76z" />
    <glyph glyph-name="r" unicode="r" horiz-adv-x="681" 
d="M477 0h-401q2 3 13.5 15.5t15.5 19.5t9 25t5 42v799q0 24 -5 42.5t-9 25.5t-15.5 20t-13.5 15h297v-101h4q31 57 84.5 85.5t146.5 47.5q53 10 80 45v-409q-54 37 -110 37q-94 0 -144 -74v-533q0 -24 5 -42t9 -25t15.5 -19.5t13.5 -15.5z" />
    <glyph glyph-name="s" unicode="s" horiz-adv-x="796" 
d="M653 1057v-365q-79 99 -190 99q-41 0 -62.5 -18.5t-21.5 -37.5q0 -25 27.5 -47.5t68.5 -40t89.5 -47t89.5 -64t68.5 -95t27.5 -136.5q0 -70 -23 -130t-69.5 -107t-125.5 -74t-182 -27q-32 0 -139 15q-86 12 -105 12q-32 0 -59 -27v439q47 -79 112 -129t140 -50
q127 0 127 78q0 24 -27.5 48.5t-68.5 45t-89.5 51.5t-89.5 65t-68.5 88t-27.5 118q0 154 96 234.5t250 80.5q44 0 99.5 -9t64.5 -9q39 0 88 39z" />
    <glyph glyph-name="t" unicode="t" horiz-adv-x="681" 
d="M524 0h-401q2 3 13.5 15.5t15.5 19.5t9 25t5 42v625h-225l536 594v-317h193v-320q-38 43 -113 43h-76v-625q0 -24 5 -42t9 -25t15.5 -19.5t13.5 -15.5z" />
    <glyph glyph-name="u" unicode="u" horiz-adv-x="1138" 
d="M59 1004h402q-2 -2 -13.5 -15t-15.5 -20t-9 -25.5t-5 -42.5v-510q0 -57 38.5 -92t110.5 -35q55 0 104.5 32.5t49.5 57.5v547q0 24 -5 42.5t-9 25.5t-15.5 20t-13.5 15h401q-2 -2 -13.5 -15t-15.5 -20t-9 -25.5t-5 -42.5v-608q0 -24 5 -42.5t9 -25.5t15.5 -20t13.5 -15
q-16 0 -34.5 -5t-43.5 -19t-40.5 -22.5t-51 -31.5t-49.5 -32q-90 -57 -166.5 -85t-177.5 -28q-104 0 -199.5 56.5t-155 155t-59.5 210.5v512q0 24 -5 42.5t-9 25.5t-15.5 20t-13.5 15z" />
    <glyph glyph-name="v" unicode="v" horiz-adv-x="1024" 
d="M670 1004h420q-37 -34 -68 -103l-326 -723q-5 -11 -14.5 -31t-13.5 -28.5t-9 -22t-6.5 -25t-1.5 -24.5q0 -22 25 -47h-287l-358 858q-38 95 -76 146h418q-35 -35 -35 -56q0 -27 20 -82l164 -460h4l156 450q23 62 23 92q0 21 -35 56z" />
    <glyph glyph-name="w" unicode="w" horiz-adv-x="1593" 
d="M930 0l-135 485h-4l-113 -364l-8.5 -25.5t-8 -27.5t-2.5 -21q0 -22 25 -47h-305l-330 821q-45 111 -98 183h420q-35 -35 -35 -56q0 -23 22 -94l146 -455h4l123 467q20 72 20 82q0 21 -35 56h361q-35 -35 -35 -56q0 -8 14 -69l121 -478h4l160 453q19 52 19 94q0 21 -35 56
h434q-52 -45 -103 -158l-323 -725q-29 -66 -29 -74q0 -22 25 -47h-299z" />
    <glyph glyph-name="x" unicode="x" horiz-adv-x="1138" 
d="M-33 1004h498q-25 -25 -25 -48q0 -24 29 -77l98 -168h4l103 192q20 36 20 53q0 24 -24 48h506q-59 -39 -224 -238l-194 -238l332 -399q73 -85 129 -129h-500q24 24 24 47q0 27 -32 80l-138 217l-145 -213q-39 -56 -39 -84q0 -22 25 -47h-512l88 88q195 195 387 436
q-111 150 -287 342q-79 86 -123 138z" />
    <glyph glyph-name="y" unicode="y" horiz-adv-x="1024" 
d="M979 825l-508 -1034q-53 -109 -53 -145q0 -21 35 -56h-424q52 57 104 160l227 453l-319 637q-48 99 -104 164h446q-35 -35 -35 -56q0 -11 2.5 -20.5t11 -28.5t13.5 -33l153 -379h4l148 375q22 56 22 86q0 22 -34 56h422q-50 -57 -111 -179z" />
    <glyph glyph-name="z" unicode="z" horiz-adv-x="1024" 
d="M100 1004h924l-571 -738h344q13 0 24.5 1t21 2.5t20 5t16.5 5t16 7.5t13.5 7.5t13.5 9t11.5 9t12.5 10t12 9.5v-332h-1026l560 737h-230q-40 0 -73 -11t-46 -20.5t-43 -33.5v332z" />
    <glyph glyph-name="braceleft" unicode="{" horiz-adv-x="681" 
d="M682 1458v-184h-113q-69 0 -93.5 -31t-24.5 -98v-428q0 -29 -8 -53t-17.5 -41t-30.5 -32t-35 -23t-43 -17.5t-42.5 -13t-45.5 -11.5v-4q107 -26 147 -51q74 -47 75 -139v-428q0 -67 24.5 -98t93.5 -31h113v-185h-213q-48 0 -95 17.5t-87 50t-65 86.5t-25 121v440
q0 121 -199 121v197q199 0 199 120v441q0 67 25 121t65 86.5t87 49.5t95 17h213z" />
    <glyph glyph-name="bar" unicode="|" horiz-adv-x="454" 
d="M109 1536h237v-2048h-237v2048z" />
    <glyph glyph-name="braceright" unicode="}" horiz-adv-x="681" 
d="M684 623v-197q-199 0 -199 -121v-440q0 -67 -25 -121t-65 -86.5t-87 -50t-95 -17.5h-213v185h113q69 0 93.5 31t24.5 98v428q0 48 16.5 82t56 55t63.5 29.5t79 21.5q2 1 3.5 1.5t3.5 0.5v4q-32 8 -45.5 11.5t-42.5 13t-43 17.5t-35 23t-30.5 32t-17.5 41t-8 53v428
q0 67 -24.5 98t-93.5 31h-113v184h213q48 0 95 -17t87 -49.5t65 -86.5t25 -121v-441q0 -120 199 -120z" />
    <glyph glyph-name="asciitilde" unicode="~" horiz-adv-x="1228" 
d="M1014 692l73 -196q-2 -3 -22 -29t-25 -31.5t-24.5 -28t-29.5 -29.5t-30.5 -22t-37.5 -20.5t-40 -11t-47 -5.5q-25 0 -66.5 12t-68.5 22.5t-88 35.5q-172 70 -221 70q-61 0 -101.5 -41t-70.5 -107l-74 197q3 4 19.5 25.5t22 28t21 25.5t25 26.5t26 21.5t30.5 20.5
t32.5 14.5t38 11t41.5 3q52 0 224 -70q170 -69 221 -69q105 0 172 147z" />
    <glyph glyph-name="exclamdown" unicode="&#xa1;" horiz-adv-x="681" 
d="M610 -410h-501q29 29 48 71.5t21 80.5q2 58 7.5 179t9 194t6 180t2.5 199q0 66 -19 116h332q-24 -28 -24 -92q0 -44 28 -399.5t37 -429.5q7 -56 53 -99zM338 1071q85 0 138.5 -54.5t53.5 -135.5t-53.5 -136t-138.5 -55t-139 55t-54 136t54 135.5t139 54.5z" />
    <glyph glyph-name="cent" unicode="&#xa2;" 
d="M631 543v426q-63 -28 -100 -85.5t-37 -127.5q0 -72 37 -128.5t100 -84.5zM963 1290v-399q-73 69 -138 88v-449q78 18 138 84v-393q-29 21 -58 21q-31 0 -80 -11v-100q0 -24 5 -42t9 -25t15.5 -19.5t13.5 -15.5h-237v200q-203 30 -332 174t-129 353t129 352.5t332 173.5
v57q0 24 -5 42.5t-9 25.5t-15.5 20t-13.5 15h237v-162q67 -10 80 -10q30 0 58 20z" />
    <glyph glyph-name="sterling" unicode="&#xa3;" 
d="M735 582h-194v-252h90q82 0 139 65t57 150v92h408q-23 -22 -31.5 -31t-18.5 -26t-14 -37q-1 -7 -4 -26q-29 -175 -90 -279q-138 -238 -459 -238h-462q51 30 51 152v426h-45q-18 0 -34.5 -8t-23.5 -14t-22 -21v370h135v158q0 83 34 161t92.5 137t143 94.5t179.5 35.5
q42 0 101 -12.5t69 -12.5q33 0 65 25v-410q-85 95 -201 95q-75 0 -117 -43t-42 -117v-111h114q18 0 34.5 8t23.5 14t22 21v-366z" />
    <glyph glyph-name="currency" unicode="&#xa4;" 
d="M215 199l-125 125l119 118q-44 51 -69 126.5t-25 160.5t25 160.5t69 126.5l-119 119l125 125l117 -117q104 94 291 94q186 0 290 -94l117 117l125 -125l-119 -119q44 -51 69 -126.5t25 -160.5t-25 -160.5t-69 -126.5l119 -118l-125 -125l-117 116q-104 -94 -290 -94
q-187 0 -291 94zM623 1012q-116 0 -188.5 -82t-72.5 -201t72.5 -201t188.5 -82t188 82t72 201t-72 201t-188 82z" />
    <glyph glyph-name="yen" unicode="&#xa5;" 
d="M776 582v-430q0 -122 51 -152h-417q51 30 51 152v430h-244q-22 0 -76 -13v209h242l-41 72h-192q-26 0 -76 -12v209h157l-71 127q-79 141 -195 284h506q-35 -32 -35 -65q0 -9 3 -20t6.5 -18.5t12.5 -27t13 -29.5l152 -321h4l141 321q31 68 31 95q0 33 -35 65h520
q-44 -39 -80 -96l-186 -315h76q25 0 75 12v-209h-268l-43 -72h160q22 0 76 13v-209h-318z" />
    <glyph glyph-name="brokenbar" unicode="&#xa6;" horiz-adv-x="454" 
d="M109 1382h237v-716h-237v716zM109 358h237v-716h-237v716z" />
    <glyph glyph-name="section" unicode="&#xa7;" 
d="M348 596q0 -56 52.5 -96t142.5 -78q175 -74 209 -74q61 0 106 52.5t45 119.5q0 56 -52 96t-142 78q-175 74 -209 74q-61 0 -106.5 -52.5t-45.5 -119.5zM164 23h287q-13 -33 -13 -66q0 -70 50.5 -107.5t136.5 -37.5t136 37.5t50 107.5q0 47 -38.5 85.5t-100.5 67.5
t-136.5 57.5t-149 63t-136.5 75.5t-100.5 103t-38.5 138q0 123 55.5 199t159.5 126q-70 44 -105 112.5t-35 148.5q0 173 121 265.5t320 92.5q85 0 152.5 -14t123.5 -45t91.5 -86t47.5 -132q13 -85 33 -114h-291q13 32 13 65q0 70 -49.5 106t-124.5 36t-124.5 -36t-49.5 -106
q0 -41 23.5 -74.5t63.5 -57.5t92 -45t109.5 -42t115 -43.5t109.5 -54t92 -70t63.5 -95t23.5 -124.5q0 -114 -57 -191.5t-150 -121.5q70 -44 104.5 -112t34.5 -148q0 -120 -62.5 -202.5t-164 -119.5t-234.5 -37q-81 0 -149.5 18t-115 46t-81.5 65.5t-54 74.5t-28 75
q-15 70 -20 117z" />
    <glyph glyph-name="dieresis" unicode="&#xa8;" horiz-adv-x="569" 
d="M502 1475q71 0 114 -48.5t43 -111.5t-43 -111.5t-114 -48.5q-70 0 -114 49t-44 111t44 111t114 49zM68 1475q71 0 114 -48.5t43 -111.5t-43 -111.5t-114 -48.5q-70 0 -114 49t-44 111t44 111t114 49z" />
    <glyph glyph-name="copyright" unicode="&#xa9;" horiz-adv-x="1638" 
d="M27 729q0 159 58 299.5t160.5 242.5t251.5 161t322 59t322 -59t252 -161t161 -242.5t58 -299.5t-58 -299.5t-161 -242.5t-252 -161t-322 -59t-322 59t-251.5 161t-160.5 242.5t-58 299.5zM281 729q0 -259 151 -416t387 -157q237 0 388 157t151 416t-151.5 416.5
t-387.5 157.5t-387 -157.5t-151 -416.5zM1206 862h-184q-15 63 -60 94t-112 31q-97 0 -146 -68t-49 -182q0 -115 48.5 -182.5t146.5 -67.5q70 0 115 33.5t57 97.5h192q-21 -152 -122.5 -235.5t-241.5 -83.5q-191 0 -305.5 123.5t-114.5 314.5t114.5 315t305.5 124
q141 0 239 -86.5t117 -227.5z" />
    <glyph glyph-name="ordfeminine" unicode="&#xaa;" horiz-adv-x="751" 
d="M705 1284v-354q0 -14 3 -25t6 -16t9 -11.5t8 -9.5h-188v99h-4q-22 -56 -70.5 -87.5t-118.5 -31.5q-149 0 -243.5 88.5t-94.5 232.5q0 141 104 231.5t251 90.5q81 0 132.5 -19t98.5 -53q10 -7 34 -26t34.5 -25.5t29 -14t35.5 -7.5q-1 -2 -6 -7t-7.5 -8.5t-6 -10t-5 -15.5
t-1.5 -21zM504 1075v189q-57 49 -131 49q-69 0 -110.5 -41.5t-41.5 -102.5q0 -62 41.5 -102.5t110.5 -40.5q74 0 131 49z" />
    <glyph glyph-name="guillemotleft" unicode="&#xab;" horiz-adv-x="909" 
d="M203 203l-199 293l199 305h221l-209 -312l203 -286h-215zM625 203l-199 293l199 305h221l-209 -312l203 -286h-215z" />
    <glyph glyph-name="logicalnot" unicode="&#xac;" horiz-adv-x="1228" 
d="M877 215v391h-762v238h999v-629h-237z" />
    <glyph glyph-name="registered" unicode="&#xae;" horiz-adv-x="1638" 
d="M508 1143h330q327 0 327 -252q0 -200 -233 -217l211 -357h-189l-190 347h-68v-347h-188v826zM696 809h138q133 0 133 94t-133 94h-138v-188zM27 729q0 159 58 299.5t160.5 242.5t251.5 161t322 59t322 -59t252 -161t161 -242.5t58 -299.5t-58 -299.5t-161 -242.5
t-252 -161t-322 -59t-322 59t-251.5 161t-160.5 242.5t-58 299.5zM281 729q0 -259 151 -416t387 -157q237 0 388 157t151 416t-151.5 416.5t-387.5 157.5t-387 -157.5t-151 -416.5z" />
    <glyph glyph-name="macron" unicode="&#xaf;" horiz-adv-x="569" 
d="M-86 1401h743v-170h-743v170z" />
    <glyph glyph-name="degree" unicode="&#xb0;" horiz-adv-x="819" 
d="M567 1198q0 72 -43 119t-114 47t-114.5 -47t-43.5 -119t43.5 -119t114.5 -47t114 47t43 119zM410 905q-120 0 -206.5 85t-86.5 208t86.5 208t206.5 85t206 -85t86 -208t-86 -208t-206 -85z" />
    <glyph glyph-name="plusminus" unicode="&#xb1;" horiz-adv-x="1228" 
d="M1114 768v-238h-381v-235h-237v235h-381v238h381v236h237v-236h381zM115 0v238h999v-238h-999z" />
    <glyph glyph-name="twosuperior" unicode="&#xb2;" horiz-adv-x="749" 
d="M750 596h-732l361 385q9 10 41.5 42.5t42.5 44.5t28.5 37t24.5 45.5t6 43.5q0 47 -34 76.5t-85 29.5q-50 0 -83 -29.5t-33 -76.5q0 -30 14 -61h-266q8 15 15 36t13 45t7 27q10 34 20 59t36.5 64t60 64t92.5 44t133 19q146 0 244 -90t98 -221q0 -47 -11 -85.5t-37 -74
t-46.5 -57t-63.5 -61t-64 -60.5l-65 -66h223q16 0 27.5 5.5t17.5 12t15 19.5v-217z" />
    <glyph glyph-name="threesuperior" unicode="&#xb3;" horiz-adv-x="749" 
d="M0 977h240q-4 -20 -4 -39q0 -72 38.5 -114t112.5 -42t113 42.5t39 113.5q0 57 -44.5 97.5t-111.5 56.5v2q46 11 75 36.5t29 63.5q0 41 -24 69.5t-74 28.5t-74 -28.5t-24 -69.5q0 -19 4 -39h-225q24 28 28 53q15 64 34 110t52.5 88t86.5 63.5t126 21.5q119 0 199 -74
t80 -186q0 -50 -23 -109q95 -73 95 -219q0 -139 -99.5 -233.5t-261.5 -94.5q-144 0 -241 92t-113 224q-5 44 -33 86z" />
    <glyph glyph-name="acute" unicode="&#xb4;" horiz-adv-x="569" 
d="M293 1473h371l-324 -304h-248z" />
    <glyph glyph-name="mu" unicode="&#xb5;" horiz-adv-x="1138" 
d="M1036 901v-608q0 -24 5 -42.5t9 -25.5t15.5 -20t13.5 -15q-16 0 -34.5 -5t-43.5 -19t-40.5 -22.5t-51 -31.5t-49.5 -32q-90 -57 -166.5 -85t-177.5 -28q-48 0 -98 15v-392h-359q2 2 13.5 15t15.5 20t9 25.5t5 42.5v1208q0 24 -5 42.5t-9 25.5t-15.5 20t-13.5 15h402
q-2 -2 -13.5 -15t-15.5 -20t-9 -25.5t-5 -42.5v-510q0 -57 37 -92t102 -35q60 0 112 32t52 69v536q0 24 -5 42.5t-9 25.5t-15.5 20t-13.5 15h401q-2 -2 -13.5 -15t-15.5 -20t-9 -25.5t-5 -42.5z" />
    <glyph glyph-name="paragraph" unicode="&#xb6;" horiz-adv-x="1269" 
d="M1155 1458v-1825h-246v1641h-198v-1641h-246v1108q-225 0 -341 93.5t-116 265.5t116 265t341 93h690z" />
    <glyph glyph-name="periodcentered" unicode="&#xb7;" horiz-adv-x="624" 
d="M119 502q0 76 55 134t137 58t137.5 -58t55.5 -134t-55.5 -134.5t-137.5 -58.5t-137 58.5t-55 134.5z" />
    <glyph glyph-name="cedilla" unicode="&#xb8;" horiz-adv-x="569" 
d="M229 20h115l-94 -147q33 10 65 10q88 0 141.5 -45t53.5 -112q0 -88 -68 -140.5t-170 -52.5q-146 0 -268 51l41 92q102 -36 168 -36q104 0 104 65q0 34 -22 58t-72 24q-22 0 -76 -14l-45 39z" />
    <glyph glyph-name="onesuperior" unicode="&#xb9;" horiz-adv-x="749" 
d="M532 1409v-752q0 -14 3 -25t5.5 -15t10 -12t8.5 -9h-266l9 9t10 11.5t6.5 15.5t3.5 25v478h-5q-37 -55 -81 -105l-160 111q26 16 71 67l222 262h190q-1 -1 -6 -5.5t-6.5 -6.5t-5 -7.5t-5 -10.5t-3 -13t-1.5 -18z" />
    <glyph glyph-name="ordmasculine" unicode="&#xba;" horiz-adv-x="751" 
d="M219 1169q0 -56 43 -99.5t113 -43.5q71 0 114 43t43 100q0 56 -43 100t-114 44q-70 0 -113 -44t-43 -100zM375 1491q160 0 263 -97t103 -225t-103 -224.5t-263 -96.5t-262.5 96.5t-102.5 224.5q0 129 102.5 225.5t262.5 96.5z" />
    <glyph glyph-name="guillemotright" unicode="&#xbb;" horiz-adv-x="909" 
d="M707 801l198 -293l-198 -305h-222l209 311l-202 287h215zM285 801l198 -293l-198 -305h-222l209 311l-202 287h215z" />
    <glyph glyph-name="onequarter" unicode="&#xbc;" horiz-adv-x="1875" 
d="M1311 336h182v227h-4zM1534 874h197q-1 -1 -8 -8.5t-9.5 -11.5t-6 -15.5t-3.5 -25.5v-473h59q32 0 47 18v-198h-106v-99q0 -19 3.5 -29t13.5 -20.5t10 -11.5h-267l9 9t10 11.5t6.5 15.5t3.5 25v99h-313q-18 0 -146 155q21 0 35 17zM1458 1491l-749 -1358q-3 -5 -15 -24.5
t-20.5 -34.5t-16.5 -34.5t-8 -31.5q0 -18 17 -41h-234l756 1364q3 6 12 21.5t16 28t14.5 27t12 25.5t4.5 17q0 20 -16 41h227zM594 1409v-752q0 -14 3 -25t5.5 -15t10 -12t8.5 -9h-267l9 9t10 11.5t6.5 15.5t3.5 25v478h-4q-34 -51 -82 -105l-160 111q28 17 72 67l221 262
h191q-1 -1 -6 -5.5t-6.5 -6.5t-5 -7.5t-5 -10.5t-3 -13t-1.5 -18z" />
    <glyph glyph-name="onehalf" unicode="&#xbd;" horiz-adv-x="1875" 
d="M1432 1491l-750 -1358q-2 -4 -14.5 -24.5t-21 -35t-16 -34t-7.5 -31.5q0 -20 16 -41h-233l755 1364q3 6 15.5 27.5t21 36.5t16 31.5t7.5 23.5q0 18 -17 41h228zM594 1409v-752q0 -14 3 -25t5.5 -15t10 -12t8.5 -9h-267l9 9t10 11.5t6.5 15.5t3.5 25v478h-4
q-34 -51 -82 -105l-160 111q28 17 72 67l221 262h191q-1 -1 -6 -5.5t-6.5 -6.5t-5 -7.5t-5 -10.5t-3 -13t-1.5 -18zM1835 0h-731l360 385q11 11 42 42.5t42 44.5t29 37t24.5 45t6.5 44q0 47 -34 77t-85 30q-50 0 -83.5 -30t-33.5 -77q0 -30 14 -61h-266q8 15 15 36t13 45
t7 27q10 34 20 59t36.5 64t60 64t92.5 44t133 19q146 0 244 -90t98 -221q0 -47 -10.5 -85.5t-36.5 -74t-46.5 -57t-63.5 -61t-64 -60.5l-66 -66h224q22 0 34 9t25 28v-217z" />
    <glyph glyph-name="threequarters" unicode="&#xbe;" horiz-adv-x="1875" 
d="M1311 336h182v227h-4zM1534 874h197q-1 -1 -8 -8.5t-9.5 -11.5t-6 -15.5t-3.5 -25.5v-473h59q32 0 47 18v-198h-106v-99q0 -19 3.5 -29t13.5 -20.5t10 -11.5h-267l9 9t10 11.5t6.5 15.5t3.5 25v99h-313q-18 0 -146 155q21 0 35 17zM1518 1491l-750 -1358
q-2 -4 -14.5 -24.5t-21 -35t-16 -34t-7.5 -31.5q0 -20 16 -41h-233l755 1364q3 6 15.5 27.5t21 36.5t16 31.5t7.5 23.5q0 18 -17 41h228zM68 977h239q-4 -20 -4 -39q0 -71 39 -113.5t113 -42.5t112.5 42t38.5 114q0 57 -44 97.5t-111 56.5v2q46 11 75 36.5t29 63.5
q0 41 -24 69.5t-74 28.5t-74.5 -28.5t-24.5 -69.5q0 -19 4 -39h-225q25 29 29 53q11 63 30.5 111t53 88.5t88 62t127.5 21.5q119 0 198.5 -74t79.5 -186q0 -52 -22 -109q94 -73 94 -219q0 -139 -99 -233.5t-261 -94.5q-144 0 -241.5 92.5t-113.5 223.5q-5 46 -32 86z" />
    <glyph glyph-name="questiondown" unicode="&#xbf;" horiz-adv-x="909" 
d="M438 625h305q-10 -30 -10 -45v-328q-53 18 -104 18q-97 0 -150 -52.5t-53 -127.5t53 -127.5t150 -52.5q83 0 188 82v-434q-35 47 -78 47q-18 0 -72 -7.5t-92 -7.5q-125 0 -237 65t-181 180.5t-69 252.5q0 180 98 298t267 149zM596 690q-85 0 -139 55t-54 136t54 135.5
t139 54.5t138.5 -54.5t53.5 -135.5t-53.5 -136t-138.5 -55z" />
    <glyph glyph-name="Agrave" unicode="&#xc0;" horiz-adv-x="1366" 
d="M537 526h303l-150 484h-4zM936 231h-504l-35 -90q-14 -38 -14 -67q0 -36 33 -74h-469q33 23 47 63l481 1205q37 92 37 116q0 36 -33 74h350l523 -1354q21 -56 65 -104h-465q33 38 33 74q0 29 -14 67zM287 1862h370l201 -303h-248z" />
    <glyph glyph-name="Aacute" unicode="&#xc1;" horiz-adv-x="1366" 
d="M537 526h303l-150 484h-4zM936 231h-504l-35 -90q-14 -38 -14 -67q0 -36 33 -74h-469q33 23 47 63l481 1205q37 92 37 116q0 36 -33 74h350l523 -1354q21 -56 65 -104h-465q33 38 33 74q0 29 -14 67zM674 1862h370l-323 -303h-248z" />
    <glyph glyph-name="Acircumflex" unicode="&#xc2;" horiz-adv-x="1366" 
d="M537 526h303l-150 484h-4zM936 231h-504l-35 -90q-14 -38 -14 -67q0 -36 33 -74h-469q33 23 47 63l481 1205q37 92 37 116q0 36 -33 74h350l523 -1354q21 -56 65 -104h-465q33 38 33 74q0 29 -14 67zM281 1559l229 303h311l232 -303h-265l-122 161l-123 -161h-262z" />
    <glyph glyph-name="Atilde" unicode="&#xc3;" horiz-adv-x="1366" 
d="M537 526h303l-150 484h-4zM936 231h-504l-35 -90q-14 -38 -14 -67q0 -36 33 -74h-469q33 23 47 63l481 1205q37 92 37 116q0 36 -33 74h350l523 -1354q21 -56 65 -104h-465q33 38 33 74q0 29 -14 67zM424 1563h-145q12 109 76 191.5t171 82.5q10 0 19.5 -0.5t20.5 -2.5
t18.5 -3t20 -4.5t18 -5t19.5 -6t18 -6t20 -7t18 -6.5q12 -4 31.5 -11.5t31 -11.5t25.5 -9t24 -7t17 -2q21 0 36 6.5t24 20.5t13 25t9 30h146q-20 -128 -78.5 -194t-179.5 -66q-57 0 -154 37q-4 2 -22.5 9t-24 9t-20 7t-22.5 6.5t-19.5 3.5t-20.5 2q-39 0 -63 -26t-27 -62z
" />
    <glyph glyph-name="Adieresis" unicode="&#xc4;" horiz-adv-x="1366" 
d="M537 526h303l-150 484h-4zM936 231h-504l-35 -90q-14 -38 -14 -67q0 -36 33 -74h-469q33 23 47 63l481 1205q37 92 37 116q0 36 -33 74h350l523 -1354q21 -56 65 -104h-465q33 38 33 74q0 29 -14 67zM883 1864q71 0 114 -48.5t43 -111.5t-43 -111.5t-114 -48.5
q-70 0 -114 49t-44 111t44 111t114 49zM449 1864q71 0 114 -48.5t43 -111.5t-43 -111.5t-114 -48.5q-70 0 -114 49t-44 111t44 111t114 49z" />
    <glyph glyph-name="Aring" unicode="&#xc5;" horiz-adv-x="1366" 
d="M537 526h303l-150 484h-4zM936 231h-504l-35 -90q-14 -38 -14 -67q0 -36 33 -74h-469q33 23 47 63l481 1205q37 92 37 116q0 36 -33 74h350l523 -1354q21 -56 65 -104h-465q33 38 33 74q0 29 -14 67zM440 1778q0 94 64 159.5t162 65.5t161.5 -65.5t63.5 -159.5
t-63.5 -160t-161.5 -66t-162 66t-64 160zM770 1778q0 44 -29 74t-75 30q-45 0 -75 -30.5t-30 -73.5t30 -74t75 -31q46 0 75 30.5t29 74.5z" />
    <glyph glyph-name="AE" unicode="&#xc6;" horiz-adv-x="1820" 
d="M1755 0h-862q51 30 51 152v153h-418l-108 -176q-31 -51 -31 -72q0 -9 3.5 -17.5t6.5 -13t11 -14t10 -12.5h-531q31 24 45 43q12 16 133.5 177.5t256.5 342t278.5 373.5t236.5 324t93 141q0 9 -3.5 17.5t-6.5 13t-11 14t-10 12.5h850v-358q-37 43 -115 43h-368v-256h217
q27 0 49.5 12t32.5 22.5t32 36.5v-458q-22 26 -32 36.5t-32.5 22.5t-49.5 12h-217v-256h336q90 0 153 72v-387zM702 571h252v387h-4z" />
    <glyph glyph-name="Ccedilla" unicode="&#xc7;" 
d="M1180 428v-461q-7 7 -27 17q-17 10 -35 10q-10 0 -108 -12q-96 -15 -166 -15h-15l-59 -94q33 10 66 10q88 0 141 -45t53 -112q0 -88 -68 -140.5t-169 -52.5q-147 0 -269 51l41 92q102 -36 168 -36q105 0 105 65q0 34 -22.5 58t-72.5 24q-21 0 -75 -14l-45 39l98 165
q-193 25 -342.5 128.5t-231 265.5t-81.5 358q0 162 58 303t159.5 242t246.5 159t314 58q61 0 147 -20.5t101 -20.5q47 0 88 41v-475q-76 67 -154.5 102t-181.5 35q-186 0 -306 -114t-120 -310q0 -181 122.5 -302.5t303.5 -121.5q101 0 179.5 30.5t156.5 92.5z" />
    <glyph glyph-name="Egrave" unicode="&#xc8;" horiz-adv-x="1024" 
d="M119 152v1155q0 58 -12.5 93t-45.5 54v4h891v-387q-63 72 -153 72h-342v-256h229q27 0 49.5 11.5t33.5 23t32 36.5v-458q-21 25 -32 36.5t-33.5 23t-49.5 11.5h-229v-256h348q90 0 153 72v-387h-890q51 30 51 152zM162 1862h370l201 -303h-248z" />
    <glyph glyph-name="Eacute" unicode="&#xc9;" horiz-adv-x="1024" 
d="M119 152v1155q0 58 -12.5 93t-45.5 54v4h891v-387q-63 72 -153 72h-342v-256h229q27 0 49.5 11.5t33.5 23t32 36.5v-458q-21 25 -32 36.5t-33.5 23t-49.5 11.5h-229v-256h348q90 0 153 72v-387h-890q51 30 51 152zM549 1862h371l-324 -303h-248z" />
    <glyph glyph-name="Ecircumflex" unicode="&#xca;" horiz-adv-x="1024" 
d="M119 152v1155q0 58 -12.5 93t-45.5 54v4h891v-387q-63 72 -153 72h-342v-256h229q27 0 49.5 11.5t33.5 23t32 36.5v-458q-21 25 -32 36.5t-33.5 23t-49.5 11.5h-229v-256h348q90 0 153 72v-387h-890q51 30 51 152zM156 1559l229 303h311l232 -303h-264l-123 161
l-123 -161h-262z" />
    <glyph glyph-name="Edieresis" unicode="&#xcb;" horiz-adv-x="1024" 
d="M119 152v1155q0 58 -12.5 93t-45.5 54v4h891v-387q-63 72 -153 72h-342v-256h229q27 0 49.5 11.5t33.5 23t32 36.5v-458q-21 25 -32 36.5t-33.5 23t-49.5 11.5h-229v-256h348q90 0 153 72v-387h-890q51 30 51 152zM758 1864q71 0 114 -48.5t43 -111.5t-43 -111.5
t-114 -48.5q-70 0 -114 49t-44 111t44 111t114 49zM324 1864q71 0 114 -48.5t43 -111.5t-43 -111.5t-114 -48.5q-70 0 -114 49t-44 111t44 111t114 49z" />
    <glyph glyph-name="Igrave" unicode="&#xcc;" horiz-adv-x="569" 
d="M111 152v1155q0 120 -52 151h441q-51 -30 -51 -151v-1155q0 -122 51 -152h-441q52 31 52 152zM-94 1862h370l201 -303h-248z" />
    <glyph glyph-name="Iacute" unicode="&#xcd;" horiz-adv-x="569" 
d="M111 152v1155q0 120 -52 151h441q-51 -30 -51 -151v-1155q0 -122 51 -152h-441q52 31 52 152zM293 1862h371l-324 -303h-248z" />
    <glyph glyph-name="Icircumflex" unicode="&#xce;" horiz-adv-x="569" 
d="M111 152v1155q0 120 -52 151h441q-51 -30 -51 -151v-1155q0 -122 51 -152h-441q52 31 52 152zM-100 1559l229 303h311l232 -303h-264l-123 161l-123 -161h-262z" />
    <glyph glyph-name="Idieresis" unicode="&#xcf;" horiz-adv-x="569" 
d="M111 152v1155q0 120 -52 151h441q-51 -30 -51 -151v-1155q0 -122 51 -152h-441q52 31 52 152zM502 1864q71 0 114 -48.5t43 -111.5t-43 -111.5t-114 -48.5q-70 0 -114 49t-44 111t44 111t114 49zM68 1864q71 0 114 -48.5t43 -111.5t-43 -111.5t-114 -48.5q-70 0 -114 49
t-44 111t44 111t114 49z" />
    <glyph glyph-name="Eth" unicode="&#xd0;" horiz-adv-x="1366" 
d="M129 152v434h-53q-14 0 -53 -13v328h106v590q41 -41 88 -41q26 0 140 20.5t186 20.5q109 0 217 -33.5t203.5 -99t169 -155t116.5 -210t43 -254.5q0 -114 -33 -221.5t-99.5 -201.5t-159.5 -164.5t-222 -111t-278 -40.5h-422q51 30 51 152zM467 586v-248q221 0 347 101.5
t126 299.5q0 88 -26 158.5t-70.5 117.5t-105.5 78.5t-128.5 45.5t-142.5 14v-252h100q33 0 99 12v-340q-71 13 -99 13h-100z" />
    <glyph glyph-name="Ntilde" unicode="&#xd1;" horiz-adv-x="1366" 
d="M135 152v1155q0 121 -51 151h387q311 -551 418 -815h4v664q0 121 -51 151h440q-51 -30 -51 -151v-1155q0 -122 51 -152h-387q-65 132 -220 407t-198 384h-4v-639q0 -122 51 -152h-440q51 30 51 152zM442 1563h-145q12 109 76.5 191.5t171.5 82.5q10 0 19.5 -0.5
t20.5 -2.5t18.5 -3t20 -4.5t18 -5t19.5 -6t18 -6t20 -7t18 -6.5q12 -4 31.5 -11.5t31 -11.5t25.5 -9t24 -7t17 -2q21 0 36 6.5t24 20.5t13 25t9 30h145q-20 -128 -78.5 -194t-179.5 -66q-56 0 -153 37t-130 37q-39 0 -63 -26t-27 -62z" />
    <glyph glyph-name="Ograve" unicode="&#xd2;" horiz-adv-x="1705" 
d="M852 1153q-99 0 -182 -36t-137.5 -95.5t-84.5 -135.5t-30 -157t30 -157t84.5 -135.5t137.5 -95.5t182 -36t182 36t137.5 95.5t84.5 135.5t30 157t-30 157t-84.5 135.5t-137.5 95.5t-182 36zM852 1491q155 0 299 -58t251 -158t171.5 -243t64.5 -303t-64.5 -303
t-171.5 -243t-251 -158t-299 -58t-299 58t-251 158t-171.5 243t-64.5 303t64.5 303t171.5 243t251 158t299 58zM475 1862h371l201 -303h-248z" />
    <glyph glyph-name="Oacute" unicode="&#xd3;" horiz-adv-x="1705" 
d="M852 1153q-99 0 -182 -36t-137.5 -95.5t-84.5 -135.5t-30 -157t30 -157t84.5 -135.5t137.5 -95.5t182 -36t182 36t137.5 95.5t84.5 135.5t30 157t-30 157t-84.5 135.5t-137.5 95.5t-182 36zM852 1491q155 0 299 -58t251 -158t171.5 -243t64.5 -303t-64.5 -303
t-171.5 -243t-251 -158t-299 -58t-299 58t-251 158t-171.5 243t-64.5 303t64.5 303t171.5 243t251 158t299 58zM862 1862h371l-324 -303h-247z" />
    <glyph glyph-name="Ocircumflex" unicode="&#xd4;" horiz-adv-x="1705" 
d="M852 1153q-99 0 -182 -36t-137.5 -95.5t-84.5 -135.5t-30 -157t30 -157t84.5 -135.5t137.5 -95.5t182 -36t182 36t137.5 95.5t84.5 135.5t30 157t-30 157t-84.5 135.5t-137.5 95.5t-182 36zM852 1491q155 0 299 -58t251 -158t171.5 -243t64.5 -303t-64.5 -303
t-171.5 -243t-251 -158t-299 -58t-299 58t-251 158t-171.5 243t-64.5 303t64.5 303t171.5 243t251 158t299 58zM469 1559l229 303h312l231 -303h-264l-123 161l-123 -161h-262z" />
    <glyph glyph-name="Otilde" unicode="&#xd5;" horiz-adv-x="1705" 
d="M852 1153q-99 0 -182 -36t-137.5 -95.5t-84.5 -135.5t-30 -157t30 -157t84.5 -135.5t137.5 -95.5t182 -36t182 36t137.5 95.5t84.5 135.5t30 157t-30 157t-84.5 135.5t-137.5 95.5t-182 36zM852 1491q155 0 299 -58t251 -158t171.5 -243t64.5 -303t-64.5 -303
t-171.5 -243t-251 -158t-299 -58t-299 58t-251 158t-171.5 243t-64.5 303t64.5 303t171.5 243t251 158t299 58zM612 1563h-145q12 109 76.5 191.5t171.5 82.5q10 0 19.5 -0.5t20.5 -2.5t18.5 -3t20 -4.5t18 -5t19.5 -6t18 -6t20 -7t18 -6.5q12 -4 31.5 -11.5t31 -11.5
t25.5 -9t24 -7t17 -2q21 0 36 6.5t24 20.5t13 25t9 30h145q-20 -128 -78.5 -194t-179.5 -66q-57 0 -154 37q-4 2 -22.5 9t-24 9t-20 7t-22.5 6.5t-19.5 3.5t-20.5 2q-39 0 -63 -26t-27 -62z" />
    <glyph glyph-name="Odieresis" unicode="&#xd6;" horiz-adv-x="1705" 
d="M852 1153q-99 0 -182 -36t-137.5 -95.5t-84.5 -135.5t-30 -157t30 -157t84.5 -135.5t137.5 -95.5t182 -36t182 36t137.5 95.5t84.5 135.5t30 157t-30 157t-84.5 135.5t-137.5 95.5t-182 36zM852 1491q155 0 299 -58t251 -158t171.5 -243t64.5 -303t-64.5 -303
t-171.5 -243t-251 -158t-299 -58t-299 58t-251 158t-171.5 243t-64.5 303t64.5 303t171.5 243t251 158t299 58zM1071 1864q71 0 114.5 -48.5t43.5 -111.5t-43.5 -111.5t-114.5 -48.5q-70 0 -114 49t-44 111t44 111t114 49zM637 1864q71 0 114.5 -48.5t43.5 -111.5
t-43.5 -111.5t-114.5 -48.5q-70 0 -114 49t-44 111t44 111t114 49z" />
    <glyph glyph-name="multiply" unicode="&#xd7;" horiz-adv-x="1228" 
d="M446 500l-331 336l168 168l331 -336l330 333l168 -167l-330 -334l332 -332l-168 -168l-332 332l-331 -332l-168 168z" />
    <glyph glyph-name="Oslash" unicode="&#xd8;" horiz-adv-x="1705" 
d="M485 498l572 608q-51 26 -96 36.5t-109 10.5q-99 0 -182 -36t-137.5 -95.5t-84.5 -135.5t-30 -157q0 -125 67 -231zM1421 1491h269l-244 -262q192 -210 192 -500q0 -160 -64.5 -303t-171.5 -243t-251 -158t-299 -58q-246 0 -444 135l-125 -135h-269l236 271
q-184 202 -184 491q0 160 64.5 303t171.5 243t251 158t299 58q246 0 442 -133zM1210 973l-571 -617q96 -51 213 -51q99 0 182 36t137.5 95.5t84.5 135.5t30 157q0 139 -76 244z" />
    <glyph glyph-name="Ugrave" unicode="&#xd9;" 
d="M752 1458h440q-51 -30 -51 -151v-852q0 -120 -40 -214t-110 -153.5t-161 -90t-197 -30.5t-197 30.5t-161 90t-110 153.5t-40 214v852q0 121 -51 151h440q-51 -30 -51 -151v-822q0 -81 50 -130.5t120 -49.5t120 49.5t50 130.5v822q0 121 -51 151zM248 1862h370l201 -303
h-248z" />
    <glyph glyph-name="Uacute" unicode="&#xda;" 
d="M752 1458h440q-51 -30 -51 -151v-852q0 -120 -40 -214t-110 -153.5t-161 -90t-197 -30.5t-197 30.5t-161 90t-110 153.5t-40 214v852q0 121 -51 151h440q-51 -30 -51 -151v-822q0 -81 50 -130.5t120 -49.5t120 49.5t50 130.5v822q0 121 -51 151zM635 1862h371l-324 -303
h-248z" />
    <glyph glyph-name="Ucircumflex" unicode="&#xdb;" 
d="M752 1458h440q-51 -30 -51 -151v-852q0 -120 -40 -214t-110 -153.5t-161 -90t-197 -30.5t-197 30.5t-161 90t-110 153.5t-40 214v852q0 121 -51 151h440q-51 -30 -51 -151v-822q0 -81 50 -130.5t120 -49.5t120 49.5t50 130.5v822q0 121 -51 151zM242 1559l229 303h311
l232 -303h-264l-123 161l-123 -161h-262z" />
    <glyph glyph-name="Udieresis" unicode="&#xdc;" 
d="M752 1458h440q-51 -30 -51 -151v-852q0 -120 -40 -214t-110 -153.5t-161 -90t-197 -30.5t-197 30.5t-161 90t-110 153.5t-40 214v852q0 121 -51 151h440q-51 -30 -51 -151v-822q0 -81 50 -130.5t120 -49.5t120 49.5t50 130.5v822q0 121 -51 151zM844 1864q71 0 114 -48.5
t43 -111.5t-43 -111.5t-114 -48.5q-70 0 -114 49t-44 111t44 111t114 49zM410 1864q71 0 114 -48.5t43 -111.5t-43 -111.5t-114 -48.5q-70 0 -114 49t-44 111t44 111t114 49z" />
    <glyph glyph-name="Yacute" unicode="&#xdd;" 
d="M850 0h-440q51 30 51 152v510l-320 512q-26 43 -65.5 100.5t-82 117.5t-46.5 66h506q-35 -32 -35 -65q0 -23 37 -90l180 -326h4l172 332q31 60 31 84q0 33 -35 65h522q-41 -35 -82 -96l-448 -700v-510q0 -122 51 -152zM682 1862h371l-324 -303h-248z" />
    <glyph glyph-name="Thorn" unicode="&#xde;" horiz-adv-x="1138" 
d="M131 152v1155q0 121 -51 151h440q-51 -30 -51 -151v-43h2q54 6 57 6q106 0 197.5 -30.5t156.5 -82t111.5 -120t69 -144.5t22.5 -154q0 -142 -65.5 -261.5t-189.5 -192t-281 -72.5q-41 0 -78 6h-2v-67q0 -122 51 -152h-440q51 30 51 152zM469 920v-357q27 -12 68 -12
q89 0 142.5 49.5t53.5 140.5t-53.5 141t-142.5 50q-41 0 -68 -12z" />
    <glyph glyph-name="germandbls" unicode="&#xdf;" 
d="M424 0h-358q2 3 13.5 15.5t15.5 19.5t9 25t5 42v902q0 223 122 355t344 132q221 0 358.5 -123t137.5 -305q0 -104 -82 -193q94 -45 140.5 -131.5t46.5 -189.5q0 -148 -66.5 -275.5t-190 -206.5t-276.5 -79q-25 0 -55.5 4t-46.5 4q-25 0 -54 -29v346q83 -16 97 -16
q78 0 134.5 23.5t86 63.5t42.5 84.5t13 96.5q0 48 -14 86.5t-36.5 65t-57 48t-69 35t-79.5 25.5q74 24 119 71t45 118q0 180 -172 180q-82 0 -127 -45t-45 -135v-1014z" />
    <glyph glyph-name="agrave" unicode="&#xe0;" 
d="M1130 694v-592q0 -24 5 -42t9.5 -25.5t15.5 -19t14 -15.5h-293v131h-4q-61 -164 -265 -164q-163 0 -288 71t-190.5 192t-65.5 272q0 155 75 278.5t198.5 189.5t270.5 66q124 0 204 -31.5t151 -86.5q13 -10 52 -42.5t54.5 -43t44.5 -23t56 -12.5q-2 -3 -13.5 -15.5
t-16 -19.5t-9.5 -25.5t-5 -42.5zM815 346v311q-27 35 -76.5 58.5t-113.5 23.5q-106 0 -170 -68t-64 -169q0 -102 64 -170t170 -68q64 0 113.5 23.5t76.5 58.5zM266 1473h371l201 -304h-248z" />
    <glyph glyph-name="aacute" unicode="&#xe1;" 
d="M1130 694v-592q0 -24 5 -42t9.5 -25.5t15.5 -19t14 -15.5h-293v131h-4q-61 -164 -265 -164q-163 0 -288 71t-190.5 192t-65.5 272q0 155 75 278.5t198.5 189.5t270.5 66q124 0 204 -31.5t151 -86.5q13 -10 52 -42.5t54.5 -43t44.5 -23t56 -12.5q-2 -3 -13.5 -15.5
t-16 -19.5t-9.5 -25.5t-5 -42.5zM815 346v311q-27 35 -76.5 58.5t-113.5 23.5q-106 0 -170 -68t-64 -169q0 -102 64 -170t170 -68q64 0 113.5 23.5t76.5 58.5zM653 1473h371l-324 -304h-247z" />
    <glyph glyph-name="acircumflex" unicode="&#xe2;" 
d="M1130 694v-592q0 -24 5 -42t9.5 -25.5t15.5 -19t14 -15.5h-293v131h-4q-61 -164 -265 -164q-163 0 -288 71t-190.5 192t-65.5 272q0 155 75 278.5t198.5 189.5t270.5 66q124 0 204 -31.5t151 -86.5q13 -10 52 -42.5t54.5 -43t44.5 -23t56 -12.5q-2 -3 -13.5 -15.5
t-16 -19.5t-9.5 -25.5t-5 -42.5zM815 346v311q-27 35 -76.5 58.5t-113.5 23.5q-106 0 -170 -68t-64 -169q0 -102 64 -170t170 -68q64 0 113.5 23.5t76.5 58.5zM260 1169l229 304h312l231 -304h-264l-123 162l-123 -162h-262z" />
    <glyph glyph-name="atilde" unicode="&#xe3;" 
d="M1130 694v-592q0 -24 5 -42t9.5 -25.5t15.5 -19t14 -15.5h-293v131h-4q-61 -164 -265 -164q-163 0 -288 71t-190.5 192t-65.5 272q0 155 75 278.5t198.5 189.5t270.5 66q124 0 204 -31.5t151 -86.5q13 -10 52 -42.5t54.5 -43t44.5 -23t56 -12.5q-2 -3 -13.5 -15.5
t-16 -19.5t-9.5 -25.5t-5 -42.5zM815 346v311q-27 35 -76.5 58.5t-113.5 23.5q-106 0 -170 -68t-64 -169q0 -102 64 -170t170 -68q64 0 113.5 23.5t76.5 58.5zM403 1174h-145q12 109 76.5 191.5t171.5 82.5q10 0 19.5 -0.5t20.5 -2.5t18.5 -3t20 -4.5t18 -5t19.5 -6t18 -6
t20 -7t18 -6.5q12 -4 31.5 -11.5t31 -11.5t25.5 -9t24 -7t17 -2q21 0 36 6.5t24 20.5t13 25t9 30h145q-20 -128 -78.5 -194t-179.5 -66q-56 0 -153 37q-4 2 -22.5 9t-24 9t-20 7t-22.5 6.5t-19.5 3.5t-20.5 2q-39 0 -63.5 -26t-27.5 -62z" />
    <glyph glyph-name="adieresis" unicode="&#xe4;" 
d="M1130 694v-592q0 -24 5 -42t9.5 -25.5t15.5 -19t14 -15.5h-293v131h-4q-61 -164 -265 -164q-163 0 -288 71t-190.5 192t-65.5 272q0 155 75 278.5t198.5 189.5t270.5 66q124 0 204 -31.5t151 -86.5q13 -10 52 -42.5t54.5 -43t44.5 -23t56 -12.5q-2 -3 -13.5 -15.5
t-16 -19.5t-9.5 -25.5t-5 -42.5zM815 346v311q-27 35 -76.5 58.5t-113.5 23.5q-106 0 -170 -68t-64 -169q0 -102 64 -170t170 -68q64 0 113.5 23.5t76.5 58.5zM862 1475q71 0 114.5 -48.5t43.5 -111.5t-43.5 -111.5t-114.5 -48.5q-70 0 -113.5 49t-43.5 111t43.5 111
t113.5 49zM428 1475q71 0 114.5 -48.5t43.5 -111.5t-43.5 -111.5t-114.5 -48.5q-70 0 -114 49t-44 111t44 111t114 49z" />
    <glyph glyph-name="aring" unicode="&#xe5;" 
d="M1130 694v-592q0 -24 5 -42t9.5 -25.5t15.5 -19t14 -15.5h-293v131h-4q-61 -164 -265 -164q-163 0 -288 71t-190.5 192t-65.5 272q0 155 75 278.5t198.5 189.5t270.5 66q124 0 204 -31.5t151 -86.5q13 -10 52 -42.5t54.5 -43t44.5 -23t56 -12.5q-2 -3 -13.5 -15.5
t-16 -19.5t-9.5 -25.5t-5 -42.5zM815 346v311q-27 35 -76.5 58.5t-113.5 23.5q-106 0 -170 -68t-64 -169q0 -102 64 -170t170 -68q64 0 113.5 23.5t76.5 58.5zM420 1389q0 94 63.5 159.5t161.5 65.5t161.5 -65.5t63.5 -159.5t-63.5 -160t-161.5 -66t-161.5 66t-63.5 160z
M750 1389q0 44 -29.5 74t-75.5 30q-45 0 -74.5 -30.5t-29.5 -73.5q0 -44 29.5 -74.5t74.5 -30.5q46 0 75.5 30.5t29.5 74.5z" />
    <glyph glyph-name="ae" unicode="&#xe6;" horiz-adv-x="1705" 
d="M170 729v318q42 -29 78 -29q25 0 108.5 9t128.5 9q97 0 172 -27t150 -83q140 110 297 110q237 0 386.5 -150.5t149.5 -393.5q0 -67 43 -107h-776q66 -156 240 -156q139 0 254 68v-330q-31 27 -60 27q-4 0 -83 -13.5t-119 -13.5q-110 0 -186.5 23t-143.5 90
q-133 -113 -330 -113q-112 0 -206 38.5t-155 121.5t-61 197q0 166 110.5 263t274.5 97q111 0 185 -45q-12 87 -63 127.5t-146 40.5q-110 0 -248 -78zM621 270v127q-62 58 -140 58q-55 0 -90 -32.5t-35 -88.5t35 -88.5t90 -32.5q79 0 140 57zM885 602h454q-73 172 -227 172
q-151 0 -227 -172z" />
    <glyph glyph-name="ccedilla" unicode="&#xe7;" horiz-adv-x="909" 
d="M854 360v-393q-29 21 -57 21q-27 0 -79 -10.5t-95 -10.5q-9 0 -11 2l-61 -96q33 10 65 10q88 0 141.5 -45t53.5 -112q0 -88 -68 -140.5t-170 -52.5q-146 0 -268 51l41 92q102 -36 168 -36q104 0 104 65q0 34 -22 58t-72 24q-21 0 -75 -14l-46 39l101 165
q-197 36 -320 178.5t-123 346.5q0 117 43.5 217t118.5 169.5t178.5 108.5t221.5 39q52 0 94 -10q67 -10 80 -10q29 0 57 20v-399q-106 102 -215 102q-111 0 -182.5 -68t-71.5 -169q0 -102 71.5 -170t182.5 -68q128 0 215 96z" />
    <glyph glyph-name="egrave" unicode="&#xe8;" 
d="M373 608h512q-43 82 -104.5 124t-151.5 42t-151.5 -42t-104.5 -124zM1217 391h-830q94 -162 297 -162q139 0 254 68v-330h-4q-24 27 -55 27q-19 0 -105 -12q-108 -15 -139 -15q-123 0 -231 42t-182.5 114t-117.5 170.5t-43 208.5q0 147 72.5 269t204.5 193.5t297 71.5
q123 0 228 -47.5t175 -127t109 -182.5t39 -214q0 -11 2 -20t6 -17.5t7 -13t8.5 -12.5t7.5 -11zM248 1473h370l201 -304h-248z" />
    <glyph glyph-name="eacute" unicode="&#xe9;" 
d="M373 608h512q-43 82 -104.5 124t-151.5 42t-151.5 -42t-104.5 -124zM1217 391h-830q94 -162 297 -162q139 0 254 68v-330h-4q-24 27 -55 27q-19 0 -105 -12q-108 -15 -139 -15q-123 0 -231 42t-182.5 114t-117.5 170.5t-43 208.5q0 147 72.5 269t204.5 193.5t297 71.5
q123 0 228 -47.5t175 -127t109 -182.5t39 -214q0 -11 2 -20t6 -17.5t7 -13t8.5 -12.5t7.5 -11zM635 1473h371l-324 -304h-248z" />
    <glyph glyph-name="ecircumflex" unicode="&#xea;" 
d="M373 608h512q-43 82 -104.5 124t-151.5 42t-151.5 -42t-104.5 -124zM1217 391h-830q94 -162 297 -162q139 0 254 68v-330h-4q-24 27 -55 27q-19 0 -105 -12q-108 -15 -139 -15q-123 0 -231 42t-182.5 114t-117.5 170.5t-43 208.5q0 147 72.5 269t204.5 193.5t297 71.5
q123 0 228 -47.5t175 -127t109 -182.5t39 -214q0 -11 2 -20t6 -17.5t7 -13t8.5 -12.5t7.5 -11zM242 1169l229 304h311l232 -304h-264l-123 162l-123 -162h-262z" />
    <glyph glyph-name="edieresis" unicode="&#xeb;" 
d="M373 608h512q-43 82 -104.5 124t-151.5 42t-151.5 -42t-104.5 -124zM1217 391h-830q94 -162 297 -162q139 0 254 68v-330h-4q-24 27 -55 27q-19 0 -105 -12q-108 -15 -139 -15q-123 0 -231 42t-182.5 114t-117.5 170.5t-43 208.5q0 147 72.5 269t204.5 193.5t297 71.5
q123 0 228 -47.5t175 -127t109 -182.5t39 -214q0 -11 2 -20t6 -17.5t7 -13t8.5 -12.5t7.5 -11zM844 1475q71 0 114 -48.5t43 -111.5t-43 -111.5t-114 -48.5q-70 0 -114 49t-44 111t44 111t114 49zM410 1475q71 0 114 -48.5t43 -111.5t-43 -111.5t-114 -48.5q-70 0 -114 49
t-44 111t44 111t114 49z" />
    <glyph glyph-name="igrave" unicode="&#xec;" horiz-adv-x="569" 
d="M442 1004v-902q0 -24 5 -42t9 -25t15.5 -19.5t13.5 -15.5h-401q2 3 13.5 15.5t15.5 19.5t9 25t5 42v799q0 24 -5 42.5t-9 25.5t-15.5 20t-13.5 15h358zM-94 1473h370l201 -304h-248z" />
    <glyph glyph-name="iacute" unicode="&#xed;" horiz-adv-x="569" 
d="M442 1004v-902q0 -24 5 -42t9 -25t15.5 -19.5t13.5 -15.5h-401q2 3 13.5 15.5t15.5 19.5t9 25t5 42v799q0 24 -5 42.5t-9 25.5t-15.5 20t-13.5 15h358zM293 1473h371l-324 -304h-248z" />
    <glyph glyph-name="icircumflex" unicode="&#xee;" horiz-adv-x="569" 
d="M442 1004v-902q0 -24 5 -42t9 -25t15.5 -19.5t13.5 -15.5h-401q2 3 13.5 15.5t15.5 19.5t9 25t5 42v799q0 24 -5 42.5t-9 25.5t-15.5 20t-13.5 15h358zM-100 1169l229 304h311l232 -304h-264l-123 162l-123 -162h-262z" />
    <glyph glyph-name="idieresis" unicode="&#xef;" horiz-adv-x="569" 
d="M442 1004v-902q0 -24 5 -42t9 -25t15.5 -19.5t13.5 -15.5h-401q2 3 13.5 15.5t15.5 19.5t9 25t5 42v799q0 24 -5 42.5t-9 25.5t-15.5 20t-13.5 15h358zM502 1475q71 0 114 -48.5t43 -111.5t-43 -111.5t-114 -48.5q-70 0 -114 49t-44 111t44 111t114 49zM68 1475
q71 0 114 -48.5t43 -111.5t-43 -111.5t-114 -48.5q-70 0 -114 49t-44 111t44 111t114 49z" />
    <glyph glyph-name="eth" unicode="&#xf0;" 
d="M625 264q109 0 174 72t65 166t-64.5 165.5t-174.5 71.5t-175 -71.5t-65 -165.5t65 -166t175 -72zM926 1325l-160 -72q422 -414 422 -696q0 -164 -69 -298t-198.5 -213t-295.5 -79q-124 0 -231 45.5t-179 120t-113 171t-41 198.5q0 80 25 157.5t73 144.5t114 118.5
t153 81.5t184 32q-10 10 -42.5 46.5t-53.5 58.5l-156 -70l-137 141l156 66q-71 67 -131 111l295 69q4 -4 84 -74l172 74z" />
    <glyph glyph-name="ntilde" unicode="&#xf1;" horiz-adv-x="1138" 
d="M1077 0h-401q2 3 13.5 15.5t15.5 19.5t9 25t5 42v510q0 58 -40.5 92.5t-119.5 34.5q-52 0 -97.5 -29t-45.5 -81v-527q0 -24 5 -42t9 -25t15.5 -19.5t13.5 -15.5h-402q2 3 13.5 15.5t15.5 19.5t9 25t5 42v609q0 24 -5 42t-9 25t-15.5 19.5t-13.5 15.5q16 0 34.5 5.5
t43 18.5t41 23t50.5 32t50 32q89 57 166 84.5t179 27.5q104 0 199.5 -56.5t154.5 -155t59 -210.5v-512q0 -24 5 -42t9 -25t15.5 -19.5t13.5 -15.5zM328 1174h-146q12 109 76.5 191.5t171.5 82.5q10 0 19.5 -0.5t20.5 -2.5t18.5 -3t20 -4.5t18 -5t19.5 -6t18 -6t20 -7
t18 -6.5q12 -4 31.5 -11.5t31 -11.5t25.5 -9t24 -7t17 -2q21 0 36 6.5t24 20.5t13 25t9 30h145q-20 -128 -78.5 -194t-179.5 -66q-56 0 -153 37q-4 2 -22.5 9t-24 9t-20 7t-22.5 6.5t-19.5 3.5t-20.5 2q-39 0 -63 -26t-27 -62z" />
    <glyph glyph-name="ograve" unicode="&#xf2;" 
d="M625 739q-110 0 -175 -71.5t-65 -165.5t65 -166t175 -72q109 0 174 72t65 166t-64.5 165.5t-174.5 71.5zM625 1036q124 0 231 -45t178.5 -120t112.5 -171t41 -198t-41 -198.5t-112.5 -171t-178.5 -120t-231 -45.5t-231 45.5t-179 120t-113 171t-41 198.5t41 198t113 171
t179 120t231 45zM248 1473h370l201 -304h-248z" />
    <glyph glyph-name="oacute" unicode="&#xf3;" 
d="M625 739q-110 0 -175 -71.5t-65 -165.5t65 -166t175 -72q109 0 174 72t65 166t-64.5 165.5t-174.5 71.5zM625 1036q124 0 231 -45t178.5 -120t112.5 -171t41 -198t-41 -198.5t-112.5 -171t-178.5 -120t-231 -45.5t-231 45.5t-179 120t-113 171t-41 198.5t41 198t113 171
t179 120t231 45zM635 1473h371l-324 -304h-248z" />
    <glyph glyph-name="ocircumflex" unicode="&#xf4;" 
d="M625 739q-110 0 -175 -71.5t-65 -165.5t65 -166t175 -72q109 0 174 72t65 166t-64.5 165.5t-174.5 71.5zM625 1036q124 0 231 -45t178.5 -120t112.5 -171t41 -198t-41 -198.5t-112.5 -171t-178.5 -120t-231 -45.5t-231 45.5t-179 120t-113 171t-41 198.5t41 198t113 171
t179 120t231 45zM242 1169l229 304h311l232 -304h-264l-123 162l-123 -162h-262z" />
    <glyph glyph-name="otilde" unicode="&#xf5;" 
d="M625 739q-110 0 -175 -71.5t-65 -165.5t65 -166t175 -72q109 0 174 72t65 166t-64.5 165.5t-174.5 71.5zM625 1036q124 0 231 -45t178.5 -120t112.5 -171t41 -198t-41 -198.5t-112.5 -171t-178.5 -120t-231 -45.5t-231 45.5t-179 120t-113 171t-41 198.5t41 198t113 171
t179 120t231 45zM385 1174h-145q12 109 76 191.5t171 82.5q10 0 19.5 -0.5t20.5 -2.5t18.5 -3t20 -4.5t18 -5t19.5 -6t18 -6t20 -7t18 -6.5q12 -4 31.5 -11.5t31 -11.5t25.5 -9t24 -7t17 -2q21 0 36 6.5t24 20.5t13 25t9 30h146q-20 -128 -78.5 -194t-179.5 -66
q-57 0 -154 37q-4 2 -22.5 9t-24 9t-20 7t-22.5 6.5t-19.5 3.5t-20.5 2q-39 0 -63 -26t-27 -62z" />
    <glyph glyph-name="odieresis" unicode="&#xf6;" 
d="M625 739q-110 0 -175 -71.5t-65 -165.5t65 -166t175 -72q109 0 174 72t65 166t-64.5 165.5t-174.5 71.5zM625 1036q124 0 231 -45t178.5 -120t112.5 -171t41 -198t-41 -198.5t-112.5 -171t-178.5 -120t-231 -45.5t-231 45.5t-179 120t-113 171t-41 198.5t41 198t113 171
t179 120t231 45zM844 1475q71 0 114 -48.5t43 -111.5t-43 -111.5t-114 -48.5q-70 0 -114 49t-44 111t44 111t114 49zM410 1475q71 0 114 -48.5t43 -111.5t-43 -111.5t-114 -48.5q-70 0 -114 49t-44 111t44 111t114 49z" />
    <glyph glyph-name="divide" unicode="&#xf7;" horiz-adv-x="1228" 
d="M1114 383h-999v238h999v-238zM430 911q0 74 52.5 129.5t131.5 55.5q80 0 132.5 -55.5t52.5 -129.5t-52.5 -129t-132.5 -55t-132 55t-52 129zM430 92q0 74 52 129t132 55t132.5 -55t52.5 -129t-52.5 -129t-132.5 -55t-132 55t-52 129z" />
    <glyph glyph-name="oslash" unicode="&#xf8;" 
d="M410 397l290 330q-30 12 -75 12q-110 0 -175 -71.5t-65 -165.5q0 -57 25 -105zM823 637l-307 -346q46 -27 109 -27q109 0 174 72t65 166q0 76 -41 135zM987 1085h252l-195 -225q69 -74 106.5 -167t37.5 -191q0 -102 -41 -198.5t-112.5 -171t-178.5 -120t-231 -45.5
q-164 0 -291 76l-74 -80h-252l178 203q-125 140 -125 336q0 102 41 198t113 171t179 120t231 45q140 0 268 -61z" />
    <glyph glyph-name="ugrave" unicode="&#xf9;" horiz-adv-x="1138" 
d="M59 1004h402q-2 -2 -13.5 -15t-15.5 -20t-9 -25.5t-5 -42.5v-510q0 -57 38.5 -92t110.5 -35q55 0 104.5 32.5t49.5 57.5v547q0 24 -5 42.5t-9 25.5t-15.5 20t-13.5 15h401q-2 -2 -13.5 -15t-15.5 -20t-9 -25.5t-5 -42.5v-608q0 -24 5 -42.5t9 -25.5t15.5 -20t13.5 -15
q-16 0 -34.5 -5t-43.5 -19t-40.5 -22.5t-51 -31.5t-49.5 -32q-90 -57 -166.5 -85t-177.5 -28q-104 0 -199.5 56.5t-155 155t-59.5 210.5v512q0 24 -5 42.5t-9 25.5t-15.5 20t-13.5 15zM190 1473h371l201 -304h-248z" />
    <glyph glyph-name="uacute" unicode="&#xfa;" horiz-adv-x="1138" 
d="M59 1004h402q-2 -2 -13.5 -15t-15.5 -20t-9 -25.5t-5 -42.5v-510q0 -57 38.5 -92t110.5 -35q55 0 104.5 32.5t49.5 57.5v547q0 24 -5 42.5t-9 25.5t-15.5 20t-13.5 15h401q-2 -2 -13.5 -15t-15.5 -20t-9 -25.5t-5 -42.5v-608q0 -24 5 -42.5t9 -25.5t15.5 -20t13.5 -15
q-16 0 -34.5 -5t-43.5 -19t-40.5 -22.5t-51 -31.5t-49.5 -32q-90 -57 -166.5 -85t-177.5 -28q-104 0 -199.5 56.5t-155 155t-59.5 210.5v512q0 24 -5 42.5t-9 25.5t-15.5 20t-13.5 15zM578 1473h370l-323 -304h-248z" />
    <glyph glyph-name="ucircumflex" unicode="&#xfb;" horiz-adv-x="1138" 
d="M59 1004h402q-2 -2 -13.5 -15t-15.5 -20t-9 -25.5t-5 -42.5v-510q0 -57 38.5 -92t110.5 -35q55 0 104.5 32.5t49.5 57.5v547q0 24 -5 42.5t-9 25.5t-15.5 20t-13.5 15h401q-2 -2 -13.5 -15t-15.5 -20t-9 -25.5t-5 -42.5v-608q0 -24 5 -42.5t9 -25.5t15.5 -20t13.5 -15
q-16 0 -34.5 -5t-43.5 -19t-40.5 -22.5t-51 -31.5t-49.5 -32q-90 -57 -166.5 -85t-177.5 -28q-104 0 -199.5 56.5t-155 155t-59.5 210.5v512q0 24 -5 42.5t-9 25.5t-15.5 20t-13.5 15zM184 1169l230 304h311l231 -304h-264l-123 162l-123 -162h-262z" />
    <glyph glyph-name="udieresis" unicode="&#xfc;" horiz-adv-x="1138" 
d="M59 1004h402q-2 -2 -13.5 -15t-15.5 -20t-9 -25.5t-5 -42.5v-510q0 -57 38.5 -92t110.5 -35q55 0 104.5 32.5t49.5 57.5v547q0 24 -5 42.5t-9 25.5t-15.5 20t-13.5 15h401q-2 -2 -13.5 -15t-15.5 -20t-9 -25.5t-5 -42.5v-608q0 -24 5 -42.5t9 -25.5t15.5 -20t13.5 -15
q-16 0 -34.5 -5t-43.5 -19t-40.5 -22.5t-51 -31.5t-49.5 -32q-90 -57 -166.5 -85t-177.5 -28q-104 0 -199.5 56.5t-155 155t-59.5 210.5v512q0 24 -5 42.5t-9 25.5t-15.5 20t-13.5 15zM786 1475q71 0 114.5 -48.5t43.5 -111.5t-43.5 -111.5t-114.5 -48.5q-70 0 -113.5 49
t-43.5 111t43.5 111t113.5 49zM352 1475q71 0 114.5 -48.5t43.5 -111.5t-43.5 -111.5t-114.5 -48.5q-70 0 -113.5 49t-43.5 111t43.5 111t113.5 49z" />
    <glyph glyph-name="yacute" unicode="&#xfd;" horiz-adv-x="1024" 
d="M979 825l-508 -1034q-53 -109 -53 -145q0 -21 35 -56h-424q52 57 104 160l227 453l-319 637q-48 99 -104 164h446q-35 -35 -35 -56q0 -11 2.5 -20.5t11 -28.5t13.5 -33l153 -379h4l148 375q22 56 22 86q0 22 -34 56h422q-50 -57 -111 -179zM520 1473h371l-324 -304h-248z
" />
    <glyph glyph-name="thorn" unicode="&#xfe;" 
d="M100 -307v1663q0 24 -5 42t-9 25t-15.5 19.5t-13.5 15.5h359v-461q92 39 207 39q106 0 203 -34t175.5 -98.5t125.5 -168t47 -231.5q0 -239 -142 -388t-358 -149q-74 0 -129 17.5t-129 60.5v-352q0 -24 5 -42.5t9 -25.5t15.5 -20t13.5 -15h-402q2 2 13.5 15t15.5 20
t9 25.5t5 42.5zM416 653v-313q65 -76 180 -76q113 0 183.5 62.5t70.5 175.5q0 114 -70 175.5t-184 61.5q-52 0 -100 -26t-80 -60z" />
    <glyph glyph-name="ydieresis" unicode="&#xff;" horiz-adv-x="1024" 
d="M979 825l-508 -1034q-53 -109 -53 -145q0 -21 35 -56h-424q52 57 104 160l227 453l-319 637q-48 99 -104 164h446q-35 -35 -35 -56q0 -11 2.5 -20.5t11 -28.5t13.5 -33l153 -379h4l148 375q22 56 22 86q0 22 -34 56h422q-50 -57 -111 -179zM729 1475q71 0 114.5 -48.5
t43.5 -111.5t-43.5 -111.5t-114.5 -48.5q-70 0 -114 49t-44 111t44 111t114 49zM295 1475q71 0 114.5 -48.5t43.5 -111.5t-43.5 -111.5t-114.5 -48.5q-70 0 -114 49t-44 111t44 111t114 49z" />
    <glyph glyph-name="dotlessi" unicode="&#x131;" horiz-adv-x="569" 
d="M442 1004v-902q0 -24 5 -42t9 -25t15.5 -19.5t13.5 -15.5h-401q2 3 13.5 15.5t15.5 19.5t9 25t5 42v799q0 24 -5 42.5t-9 25.5t-15.5 20t-13.5 15h358z" />
    <glyph glyph-name="Lslash" unicode="&#x141;" horiz-adv-x="909" 
d="M909 0h-831q51 30 51 152v376l-121 -55v315l121 56v463q0 121 -51 151h440q-51 -30 -51 -151v-310l190 86v-315l-190 -86v-367h289q90 0 153 72v-387z" />
    <glyph glyph-name="lslash" unicode="&#x142;" horiz-adv-x="569" 
d="M438 1458v-416l117 78v-286l-117 -78v-654q0 -24 5 -42t9 -25t15.5 -19.5t13.5 -15.5h-401q2 3 13.5 15.5t15.5 19.5t9 25t5 42v445l-117 -78v287l117 78v522q0 24 -5 42t-9 25t-15.5 19.5t-13.5 15.5h358z" />
    <glyph glyph-name="OE" unicode="&#x152;" horiz-adv-x="2048" 
d="M2001 0h-809q22 80 22 125h-4q-141 -158 -401 -158q-153 0 -288 55t-234.5 153t-157 242t-57.5 312t57.5 312t157 242t234.5 153t288 55q260 0 401 -158h4q0 45 -22 125h809v-358q-37 43 -115 43h-352v-256h201q27 0 49.5 12t32.5 22.5t32 36.5v-458q-22 26 -32 36.5
t-32.5 22.5t-49.5 12h-201v-256h313q91 0 154 72v-387zM1212 729q0 189 -117 306.5t-284 117.5t-284 -117.5t-117 -306.5t117 -306.5t284 -117.5t284 117.5t117 306.5z" />
    <glyph glyph-name="oe" unicode="&#x153;" horiz-adv-x="1933" 
d="M1114 614h438q-19 68 -79.5 114t-139.5 46q-77 0 -137.5 -46t-81.5 -114zM1622 297v-330q-31 27 -59 27q-4 0 -83.5 -13.5t-119.5 -13.5q-137 0 -227.5 30t-167.5 116q-61 -74 -155 -110t-198 -36q-152 0 -277 67t-198.5 190t-73.5 278t73.5 278t198.5 189.5t277 66.5
q108 0 194 -36.5t169 -108.5q83 72 168 108.5t190 36.5q111 0 209 -41t170 -115.5t114 -185t42 -241.5q0 -26 30 -56h-780q31 -78 97.5 -123t152.5 -45q139 0 254 68zM387 502q0 -102 60 -170t163 -68t163.5 68t60.5 170t-60.5 169.5t-163.5 67.5t-163 -67.5t-60 -169.5z
" />
    <glyph glyph-name="Scaron" unicode="&#x160;" horiz-adv-x="909" 
d="M717 1491v-420q-1 1 -20 16.5t-23 18.5t-22.5 16.5t-27 17.5t-26 13.5t-31 12.5t-31.5 6.5t-36 3.5q-99 0 -99 -76q0 -33 26.5 -64.5t68 -61.5t92.5 -63.5t102 -78t92.5 -97.5t68 -129t26.5 -166q0 -218 -138.5 -345.5t-373.5 -127.5q-43 0 -114.5 12.5t-100.5 12.5
q-48 0 -93 -25v488q66 -83 131 -127.5t150 -44.5q83 0 134.5 47t51.5 123q0 38 -16 72t-43.5 62t-63.5 55t-75.5 54t-78.5 55.5t-75 63t-63.5 72.5t-43.5 88t-16 106q0 175 105.5 292.5t281.5 117.5q47 0 110.5 -12.5t90.5 -12.5q28 0 44 4.5t32 20.5h4zM657 1559h-311
l-231 303h264l123 -162l123 162h262z" />
    <glyph glyph-name="scaron" unicode="&#x161;" horiz-adv-x="796" 
d="M653 1057v-365q-79 99 -190 99q-41 0 -62.5 -18.5t-21.5 -37.5q0 -25 27.5 -47.5t68.5 -40t89.5 -47t89.5 -64t68.5 -95t27.5 -136.5q0 -70 -23 -130t-69.5 -107t-125.5 -74t-182 -27q-32 0 -139 15q-86 12 -105 12q-32 0 -59 -27v439q47 -79 112 -129t140 -50
q127 0 127 78q0 24 -27.5 48.5t-68.5 45t-89.5 51.5t-89.5 65t-68.5 88t-27.5 118q0 154 96 234.5t250 80.5q44 0 99.5 -9t64.5 -9q39 0 88 39zM555 1169h-311l-232 304h264l123 -162l123 162h262z" />
    <glyph glyph-name="Ydieresis" unicode="&#x178;" 
d="M850 0h-440q51 30 51 152v510l-320 512q-26 43 -65.5 100.5t-82 117.5t-46.5 66h506q-35 -32 -35 -65q0 -23 37 -90l180 -326h4l172 332q31 60 31 84q0 33 -35 65h522q-41 -35 -82 -96l-448 -700v-510q0 -122 51 -152zM891 1864q71 0 114.5 -48.5t43.5 -111.5
t-43.5 -111.5t-114.5 -48.5q-70 0 -114 49t-44 111t44 111t114 49zM457 1864q71 0 114 -48.5t43 -111.5t-43 -111.5t-114 -48.5q-70 0 -114 49t-44 111t44 111t114 49z" />
    <glyph glyph-name="Zcaron" unicode="&#x17d;" horiz-adv-x="1138" 
d="M-23 0l621 1143h-350q-27 0 -49.5 -12t-33 -23t-32.5 -37v387h1000l-637 -1143h471q27 0 49.5 12.5t32 22.5t32.5 37v-387h-1104zM772 1559h-311l-232 303h265l122 -162l123 162h262z" />
    <glyph glyph-name="zcaron" unicode="&#x17e;" horiz-adv-x="1024" 
d="M100 1004h924l-571 -738h344q13 0 24.5 1t21 2.5t20 5t16.5 5t16 7.5t13.5 7.5t13.5 9t11.5 9t12.5 10t12 9.5v-332h-1026l560 737h-230q-40 0 -73 -11t-46 -20.5t-43 -33.5v332zM668 1169h-312l-231 304h264l123 -162l123 162h262z" />
    <glyph glyph-name="florin" unicode="&#x192;" 
d="M1104 903v-313q-50 33 -146 33h-149l-70 -404q-34 -194 -78.5 -315.5t-119 -198t-175.5 -106t-255 -29.5q-56 0 -97 -14v325q41 -14 97 -14q44 0 80 9.5t62 24t47.5 39.5t35 49t26 60.5t19.5 66t16 72.5l88 435h-98q-95 0 -145 -33v313h301q10 82 24 148t38 136.5
t60 122.5t85.5 94.5t120.5 64.5t159 22q34 0 65 -3t46 -3q46 0 82 16v-305q-58 4 -93 4q-139 0 -201 -75t-73 -222h248z" />
    <glyph glyph-name="circumflex" unicode="&#x2c6;" horiz-adv-x="569" 
d="M-100 1169l229 304h311l232 -304h-264l-123 162l-123 -162h-262z" />
    <glyph glyph-name="caron" unicode="&#x2c7;" horiz-adv-x="569" 
d="M440 1169h-311l-231 304h264l123 -162l123 162h262z" />
    <glyph glyph-name="breve" unicode="&#x2d8;" horiz-adv-x="569" 
d="M-70 1479h146q3 -69 62.5 -104.5t148.5 -35.5t148.5 35.5t62.5 104.5h145q-6 -150 -100 -232t-256 -82t-256.5 82t-100.5 232z" />
    <glyph glyph-name="dotaccent" unicode="&#x2d9;" horiz-adv-x="569" 
d="M127 1315q0 62 44 111t114 49q71 0 114 -48.5t43 -111.5t-43 -111.5t-114 -48.5q-70 0 -114 49t-44 111z" />
    <glyph glyph-name="ring" unicode="&#x2da;" horiz-adv-x="569" 
d="M59 1389q0 94 64 159.5t162 65.5t161.5 -65.5t63.5 -159.5t-63.5 -160t-161.5 -66t-162 66t-64 160zM389 1389q0 44 -29 74t-75 30q-45 0 -75 -30.5t-30 -73.5t30 -74t75 -31q46 0 75 30.5t29 74.5z" />
    <glyph glyph-name="ogonek" unicode="&#x2db;" horiz-adv-x="569" 
d="M543 -252l41 -74q-165 -123 -310 -123q-95 0 -154 49.5t-59 139.5q0 45 18 84t45 66.5t69.5 51.5t81 39t90 28t85.5 20t78 14v-25q-288 -108 -288 -256q0 -42 29 -70t77 -28q82 0 197 84z" />
    <glyph glyph-name="tilde" unicode="&#x2dc;" horiz-adv-x="569" 
d="M43 1174h-145q12 109 76 191.5t171 82.5q10 0 19.5 -0.5t20.5 -2.5t18.5 -3t20 -4.5t18 -5t19.5 -6t18 -6t20 -7t18 -6.5q12 -4 31.5 -11.5t31 -11.5t25.5 -9t24 -7t17 -2q21 0 36 6.5t24 20.5t13 25t9 30h146q-20 -128 -78.5 -194t-179.5 -66q-57 0 -154 37
q-4 2 -22.5 9t-24 9t-20 7t-22.5 6.5t-19.5 3.5t-20.5 2q-39 0 -63 -26t-27 -62z" />
    <glyph glyph-name="hungarumlaut" unicode="&#x2dd;" horiz-adv-x="569" 
d="M-113 1229l158 297h266l-256 -297h-168zM258 1229l158 297h266l-256 -297h-168z" />
    <glyph glyph-name="endash" unicode="&#x2013;" horiz-adv-x="1024" 
d="M0 614h1024v-225h-1024v225z" />
    <glyph glyph-name="emdash" unicode="&#x2014;" horiz-adv-x="2048" 
d="M0 614h2048v-225h-2048v225z" />
    <glyph glyph-name="quoteleft" unicode="&#x2018;" horiz-adv-x="569" 
d="M53 1458h424q-28 -31 -28 -63q0 -19 10 -84l57 -344h-227q10 23 10 39q0 5 -3.5 12t-13 24t-16.5 31z" />
    <glyph glyph-name="quoteright" unicode="&#x2019;" horiz-adv-x="569" 
d="M281 967h-228l58 344q10 65 10 84q0 31 -29 63h424l-213 -385q-7 -14 -16.5 -31t-13 -24t-3.5 -12q0 -13 11 -39z" />
    <glyph glyph-name="quotesinglbase" unicode="&#x201a;" horiz-adv-x="569" 
d="M547 281l-219 -406q-33 -64 -33 -72q0 -13 14 -32h-258l74 340q14 63 14 98q0 11 -1.5 19.5t-6 16.5t-7.5 11.5t-11 12t-11 12.5h445z" />
    <glyph glyph-name="quotedblleft" unicode="&#x201c;" horiz-adv-x="1138" 
d="M53 1458h424q-28 -31 -28 -63q0 -19 10 -84l57 -344h-227q10 23 10 39q0 5 -3.5 12t-13 24t-16.5 31zM623 1458h424q-29 -32 -29 -63q0 -19 10 -84l57 -344h-227q10 23 10 39q0 5 -32 67z" />
    <glyph glyph-name="quotedblright" unicode="&#x201d;" horiz-adv-x="1138" 
d="M92 1458h424l-213 -385q-7 -14 -16.5 -31t-13 -24t-3.5 -12q0 -13 11 -39h-228l58 344q10 65 10 84q0 31 -29 63zM662 1458h423l-213 -385q-32 -62 -32 -67q0 -16 10 -39h-227l57 344q10 65 10 84q0 32 -28 63z" />
    <glyph glyph-name="quotedblbase" unicode="&#x201e;" horiz-adv-x="1138" 
d="M549 281l-219 -406q-33 -64 -33 -72q0 -13 14 -32h-258l74 340q14 63 14 98q0 11 -1.5 19.5t-6 16.5t-7.5 11.5t-11 12t-11 12.5h445zM1071 281l-219 -406q-33 -64 -33 -72q0 -12 15 -32h-259l74 340q15 67 15 98q0 11 -1.5 19.5t-6 16.5t-7.5 11.5t-11 12t-11 12.5h444z
" />
    <glyph glyph-name="dagger" unicode="&#x2020;" 
d="M489 782h-206q-103 0 -160 -28v286q57 -28 160 -28h206v329q0 66 -20 117h311q-20 -51 -20 -117v-329h207q102 0 159 28v-286q-57 28 -159 28h-207v-1040q0 -66 20 -117h-311q20 51 20 117v1040z" />
    <glyph glyph-name="daggerdbl" unicode="&#x2021;" 
d="M760 797v-506h207q102 0 159 28v-286q-57 28 -159 28h-207v-315q0 -66 20 -117h-311q20 51 20 117v315h-206q-103 0 -160 -28v286q57 -28 160 -28h206v506h-206q-101 0 -160 -29v287q59 -29 160 -29h206v315q0 66 -20 117h311q-20 -51 -20 -117v-315h207q100 0 159 29
v-287q-59 29 -159 29h-207z" />
    <glyph glyph-name="bullet" unicode="&#x2022;" horiz-adv-x="1024" 
d="M512 1094q153 0 259 -105t106 -260q0 -154 -106 -259t-259 -105t-259 105t-106 259q0 155 106 260t259 105z" />
    <glyph glyph-name="ellipsis" unicode="&#x2026;" horiz-adv-x="2048" 
d="M1706 -23q-85 0 -139 55t-54 136t54 135.5t139 54.5t138.5 -54.5t53.5 -135.5t-53.5 -136t-138.5 -55zM1024 -23q-85 0 -139 55t-54 136t54 135.5t139 54.5t139 -54.5t54 -135.5t-54 -136t-139 -55zM342 -23q-85 0 -138.5 55t-53.5 136t53.5 135.5t138.5 54.5t139 -54.5
t54 -135.5t-54 -136t-139 -55z" />
    <glyph glyph-name="perthousand" unicode="&#x2030;" horiz-adv-x="2048" 
d="M131 -33l764 1364q3 6 12 21.5t16 28t14.5 27t12 25.5t4.5 17q0 20 -16 41h227l-757 -1358q-3 -5 -15 -24.5t-20.5 -34.5t-16.5 -34.5t-8 -31.5q0 -18 17 -41h-234zM328 1239q-49 0 -79 -30.5t-30 -75.5t30.5 -76t78.5 -31t78 31t30 76t-30 75.5t-78 30.5zM328 1458
q98 0 174.5 -49t114.5 -122t38 -154t-38 -154.5t-114.5 -122.5t-174.5 -49q-74 0 -137 28.5t-104 75t-64 104.5t-23 118q0 81 38 154t115 122t175 49zM983 432q-49 0 -79 -30.5t-30 -75.5t30.5 -76t78.5 -31t78.5 31t30.5 76t-30 75.5t-79 30.5zM983 651q98 0 175 -49
t115 -122t38 -154q0 -60 -23 -118t-64 -104.5t-104 -75t-137 -28.5t-137 28.5t-104 75t-64 104.5t-23 118q0 81 38 154t115 122t175 49zM1710 432q-48 0 -78 -30.5t-30 -75.5t30 -76t78 -31t78.5 31t30.5 76t-30 75.5t-79 30.5zM1710 651q98 0 175 -49t115 -122t38 -154
q0 -60 -23 -118t-64 -104.5t-104 -75t-137 -28.5t-137 28.5t-104 75t-64 104.5t-23 118q0 81 38 154t115 122t175 49z" />
    <glyph glyph-name="guilsinglleft" unicode="&#x2039;" horiz-adv-x="569" 
d="M285 203l-199 293l199 305h221l-209 -312l203 -286h-215z" />
    <glyph glyph-name="guilsinglright" unicode="&#x203a;" horiz-adv-x="569" 
d="M285 801l198 -293l-198 -305h-222l209 311l-202 287h215z" />
    <glyph glyph-name="fraction" unicode="&#x2044;" horiz-adv-x="342" 
d="M684 1491l-750 -1358q-2 -4 -14.5 -24.5t-21 -35t-16 -34t-7.5 -31.5q0 -20 16 -41h-233l756 1364q3 6 12 21.5t16 28t14.5 27t12 25.5t4.5 17q0 20 -16 41h227z" />
    <glyph glyph-name="trademark" unicode="&#x2122;" horiz-adv-x="2048" 
d="M74 1274v184h704v-184h-229v-660h-246v660h-229zM1974 1458v-844h-221v553h-4l-186 -553h-181l-186 553h-4v-553h-221v844h319l183 -489l182 489h319z" />
    <glyph glyph-name="minus" unicode="&#x2212;" horiz-adv-x="1228" 
d="M115 621h999v-238h-999v238z" />
    <glyph glyph-name="fi" unicode="&#xfb01;" horiz-adv-x="1024" 
d="M942 1004v-902q0 -24 5 -42t9 -25t15.5 -19.5t13.5 -15.5h-381q2 3 13.5 15.5t15.5 19.5t9 25t5 42v799q0 24 -5 42.5t-9 25.5t-15.5 20t-13.5 15h338zM627 1241q0 69 47 118.5t121 49.5t121 -49.5t47 -118.5t-47 -118.5t-121 -49.5t-121 49.5t-47 118.5zM109 1004v88
q0 189 89.5 277.5t286.5 88.5q12 0 26.5 10.5t23.5 24.5v-311q-36 -2 -54 -5t-39 -13t-30 -32.5t-9 -58.5v-69h156v-342q-36 65 -82 65h-74v-625q0 -24 5 -42t9 -25t15.5 -19.5t13.5 -15.5h-380q2 3 13.5 15.5t15.5 19.5t9 25t5 42v625h-43q-16 0 -28.5 -5.5t-17 -9.5
t-14.5 -16v308h103z" />
    <glyph glyph-name="fl" unicode="&#xfb02;" horiz-adv-x="1024" 
d="M647 102v1254q0 24 -5 42t-9 25t-15.5 19.5t-13.5 15.5h338v-1356q0 -24 5 -42t9 -25t15.5 -19.5t13.5 -15.5h-381q2 3 13.5 15.5t15.5 19.5t9 25t5 42zM109 1004v88q0 189 89.5 277.5t286.5 88.5q12 0 26.5 10.5t23.5 24.5v-311q-36 -2 -54 -5t-39 -13t-30 -32.5
t-9 -58.5v-69h156v-342q-36 65 -82 65h-74v-625q0 -24 5 -42t9 -25t15.5 -19.5t13.5 -15.5h-380q2 3 13.5 15.5t15.5 19.5t9 25t5 42v625h-43q-16 0 -28.5 -5.5t-17 -9.5t-14.5 -16v308h103z" />
    </font>
</defs>
</svg>
