<?xml version="1.0" standalone="no"?>
<!DOCTYPE svg PUBLIC "-//W3C//DTD SVG 1.1//EN" "http://www.w3.org/Graphics/SVG/1.1/DTD/svg11.dtd" >
<svg xmlns="http://www.w3.org/2000/svg" xmlns:xlink="http://www.w3.org/1999/xlink" version="1.1">
<metadata>
Created by FontForge 20170731 at Thu Aug 11 21:01:23 2022
 By Aleksey,,,
Copyright (c) 1988, 1995 Adobe Systems Incorporated.  All Rights Reserved.ITC Serif Gothic is a registered trademark of International Typeface Corporation.
</metadata>
<defs>
<font id="SerifGothic-Light" horiz-adv-x="1138" >
  <font-face 
    font-family="ITC Serif Gothic Light"
    font-weight="300"
    font-stretch="normal"
    units-per-em="2048"
    panose-1="0 0 0 0 0 0 0 0 0 0"
    ascent="1638"
    descent="-410"
    x-height="1004"
    cap-height="1458"
    bbox="-342 -512 2048 1946"
    underline-thickness="102"
    underline-position="-307"
    unicode-range="U+0020-FB02"
  />
<missing-glyph horiz-adv-x="569" 
 />
    <glyph glyph-name=".notdef" horiz-adv-x="569" 
 />
    <glyph glyph-name=".null" horiz-adv-x="0" 
 />
    <glyph glyph-name="nonmarkingreturn" horiz-adv-x="682" 
 />
    <glyph glyph-name="space" unicode=" " horiz-adv-x="569" 
 />
    <glyph glyph-name="exclam" unicode="!" horiz-adv-x="454" 
d="M279 360h-103q10 38 10 80q0 110 -11 472t-11 466q0 44 -12 80h151q-12 -36 -12 -80q0 -104 -11.5 -466t-11.5 -472q0 -38 11 -80zM158 70q0 30 19.5 49.5t49.5 19.5q31 0 50.5 -19.5t19.5 -49.5t-20 -50t-50 -20t-49.5 20t-19.5 50z" />
    <glyph glyph-name="quotedbl" unicode="&#x22;" horiz-adv-x="681" 
d="M174 995v463h102v-463h-102zM406 995v463h102v-463h-102z" />
    <glyph glyph-name="numbersign" unicode="#" 
d="M1024 569v-94h-231l-66 -475h-104l65 475h-293l-67 -475h-105l68 475h-228v94h240l45 324h-227v94h241l66 471h104l-67 -471h295l65 471h105l-66 -471h219v-94h-231l-47 -324h219zM748 893h-295l-45 -324h292z" />
    <glyph glyph-name="dollar" unicode="$" 
d="M569 745v-647q117 29 183.5 113t66.5 205q0 205 -250 329zM569 0v-139h-106q8 19 8 49v90q-59 0 -134.5 16.5t-94.5 16.5q-30 0 -62 -13v144q138 -66 291 -66v701q-60 33 -89 51t-73 52.5t-65 65t-37.5 78t-16.5 103.5q0 117 80 189.5t201 86.5v93q0 30 -8 49h106v-142
q34 0 83.5 -15t68.5 -15q20 0 47 6v-141q-118 67 -256 67q-85 0 -150 -50t-65 -132q0 -52 21.5 -94t58 -72t83.5 -56.5t99.5 -52t104.5 -53.5t99 -65.5t83.5 -83t58 -112t21.5 -146.5q0 -150 -102.5 -264t-254.5 -146z" />
    <glyph glyph-name="percent" unicode="%" horiz-adv-x="1820" 
d="M414 16l762 1401q8 16 8 37q0 24 -8 37h141q-27 -27 -41 -55l-744 -1381q-14 -24 -14 -45q0 -15 4 -43h-145q19 16 37 49zM1253 614q136 0 231 -94.5t95 -228.5t-95 -229t-231 -95t-230.5 95t-94.5 229t94.5 228.5t230.5 94.5zM1253 528q-100 0 -169.5 -69.5
t-69.5 -167.5q0 -99 70 -168.5t169 -69.5q100 0 170 70t70 168t-70 167.5t-170 69.5zM449 1491q136 0 230.5 -95t94.5 -229t-94.5 -228.5t-230.5 -94.5t-231 94.5t-95 228.5t95 229t231 95zM449 1405q-100 0 -170 -70t-70 -168t70 -167.5t170 -69.5t169.5 69.5t69.5 167.5
q0 99 -70 168.5t-169 69.5z" />
    <glyph glyph-name="ampersand" unicode="&#x26;" horiz-adv-x="1366" 
d="M813 1458v-135q-106 70 -201 70q-122 0 -211.5 -88t-89.5 -209q0 -80 52 -153t131 -101q-146 -34 -230 -135t-84 -248q0 -111 67 -203t170 -141t214 -49t214 49t169.5 141t66.5 203q0 117 -71 207h-195q-43 0 -76 -17v115h512q45 0 76 16v-114h-194q47 -113 47 -207
q0 -112 -45.5 -206t-122 -155.5t-175.5 -96t-206 -34.5t-205.5 34.5t-175 96t-122.5 155.5t-46 206q0 142 46.5 236t162.5 169q-78 110 -78 228q0 163 109 281t258 118q62 0 120.5 -20.5t61.5 -20.5q23 0 51 8z" />
    <glyph glyph-name="quotesingle" unicode="'" horiz-adv-x="454" 
d="M176 995v463h103v-463h-103z" />
    <glyph glyph-name="parenleft" unicode="(" horiz-adv-x="681" 
d="M584 -133l-49 -78q-13 40 -56 68q-72 52 -137 124t-123 165.5t-92.5 212t-34.5 243.5q0 273 87 467t292 352q3 2 14 10t15 11.5t13.5 11t14 12.5t10.5 12t9 13l43 -72q-196 -120 -310 -330t-114 -487q0 -218 121 -423.5t297 -311.5z" />
    <glyph glyph-name="parenright" unicode=")" horiz-adv-x="681" 
d="M98 1413l49 78q13 -40 56 -68q72 -52 137 -124t123 -165.5t92.5 -212t34.5 -243.5q0 -273 -87 -467t-292 -352q-3 -2 -14 -10t-15 -11.5t-13.5 -11t-14 -12.5t-10.5 -12t-9 -13l-43 72q196 120 310 330t114 487q0 218 -121 423.5t-297 311.5z" />
    <glyph glyph-name="asterisk" unicode="*" horiz-adv-x="909" 
d="M170 850l-68 117l277 106q-6 6 -6 19q0 8 6 20l-277 105l68 118l229 -186q16 12 35 18l-47 291h135l-47 -291q19 -6 35 -18l229 186l68 -118l-277 -105q7 -14 7 -20q0 -12 -7 -19l277 -106l-68 -117l-225 186q-12 -19 -39 -22l47 -291h-135l47 291q-27 3 -39 22z" />
    <glyph glyph-name="plus" unicode="+" horiz-adv-x="1228" 
d="M561 555v449h107v-449h446v-106h-446v-449h-107v449h-446v106h446z" />
    <glyph glyph-name="comma" unicode="," horiz-adv-x="569" 
d="M354 92l-143 -338q-4 -16 -4 -24q0 -3 1 -9.5t1 -9.5h-74l92 320q9 27 9 35q0 11 -11 26h129z" />
    <glyph glyph-name="hyphen" unicode="-" horiz-adv-x="454" 
d="M45 451v88h277q53 0 88 14v-88h-277q-53 0 -88 -14z" />
    <glyph glyph-name="period" unicode="." horiz-adv-x="569" 
d="M354 70q0 -30 -19.5 -50t-49.5 -20t-50 20t-20 50t19.5 49.5t50.5 19.5q30 0 49.5 -19.5t19.5 -49.5z" />
    <glyph glyph-name="slash" unicode="/" horiz-adv-x="569" 
d="M473 1491h102l-481 -1524h-102z" />
    <glyph glyph-name="zero" unicode="0" 
d="M168 893v-328q0 -249 101 -376.5t300 -127.5t300.5 127.5t101.5 376.5v328q0 249 -101.5 376.5t-300.5 127.5t-300 -127.5t-101 -376.5zM1077 913v-368q0 -130 -31 -232.5t-81 -166t-118.5 -105t-136.5 -58t-141 -16.5t-141 16.5t-136.5 58t-118.5 105t-81 166t-31 232.5
v368q0 130 31 232.5t81 166t118.5 105t136.5 58t141 16.5t141 -16.5t136.5 -58t118.5 -105t81 -166t31 -232.5z" />
    <glyph glyph-name="one" unicode="1" 
d="M272 889l-86 88q59 48 115 113l352 401v-1415q0 -27 17 -76h-140q17 49 17 76v1132z" />
    <glyph glyph-name="two" unicode="2" 
d="M1030 0h-960v4l444 430q23 22 81 75.5t93.5 87t85.5 90t78.5 102.5t50 105t21.5 116q0 157 -115 272t-270 115q-87 0 -168 -49t-132 -134.5t-51 -183.5q0 -8 5 -65h-123q1 4 6.5 27.5t5.5 37.5q0 78 31 157.5t87.5 148t148.5 112t202 43.5q147 0 258 -70.5t166 -182
t55 -243.5q0 -33 -5 -65.5t-11 -58.5t-21.5 -56.5t-24.5 -50t-33 -49.5t-34.5 -44t-41 -45t-41 -41.5t-45.5 -44t-44 -42.5l-410 -400v-4h625q42 0 86 12v-106z" />
    <glyph glyph-name="three" unicode="3" 
d="M20 537h125q0 -217 105.5 -346.5t279.5 -129.5q183 0 310 120.5t127 303.5q0 83 -30.5 153t-78 113.5t-99 70t-100.5 32.5q88 24 141.5 88.5t53.5 157.5q0 119 -87 208t-204 89q-129 0 -210.5 -92t-86.5 -224h-114q8 36 8 52q0 39 16.5 85.5t52 94.5t82.5 88t115.5 65
t144.5 25q166 0 278 -114t112 -275q0 -72 -25 -136.5t-82 -99.5q106 -52 162.5 -160t56.5 -233q0 -149 -77 -266.5t-200 -178.5t-266 -61q-88 0 -167.5 30t-137.5 79t-100.5 111.5t-64 128.5t-21.5 128q0 34 -19 93z" />
    <glyph glyph-name="four" unicode="4" 
d="M872 1491v-1100h148q42 0 86 12v-106h-234v-221q0 -27 17 -76h-139q16 46 16 76v221h-721l-82 147q40 13 55 33l850 1014h4zM762 1206l-670 -815h674v815h-4z" />
    <glyph glyph-name="five" unicode="5" 
d="M786 1364h-460l-35 -371q92 43 209 43q144 0 265.5 -67t193 -186t71.5 -263q0 -146 -66 -272.5t-187 -203.5t-269 -77q-105 0 -186 24t-119.5 52t-84.5 68.5t-69 54.5q-8 5 -24.5 15.5t-24.5 15.5l100 79q153 -215 408 -215q114 0 211 64.5t151 167.5t54 217
q0 184 -129.5 308t-315.5 124q-152 0 -303 -129h-6l63 645h639v-106q-44 12 -86 12z" />
    <glyph glyph-name="six" unicode="6" 
d="M537 1458h153l-332 -479l4 -4q119 61 218 61q141 0 259 -73.5t184.5 -196t66.5 -264.5q0 -143 -65.5 -265t-186 -196t-269.5 -74t-269 74t-185.5 196t-65.5 265q0 100 31.5 189t99.5 192l283 428q60 94 74 147zM569 942q-180 0 -296.5 -129t-116.5 -311q0 -118 51 -218.5
t146.5 -161.5t215.5 -61t215.5 61t147 161.5t51.5 218.5q0 182 -117 311t-297 129z" />
    <glyph glyph-name="seven" unicode="7" 
d="M96 1458h926v-4l-530 -1356q-13 -35 -13 -51q0 -26 6 -47h-180q34 61 35 63l530 1297v4h-688q-42 0 -86 -12v106z" />
    <glyph glyph-name="eight" unicode="8" 
d="M569 61q154 0 271.5 110t117.5 263q0 102 -54.5 189t-144 136.5t-190.5 49.5t-190.5 -49.5t-144 -136.5t-54.5 -189q0 -153 117.5 -263t271.5 -110zM569 -33q-208 0 -351.5 136.5t-143.5 324.5q0 153 80 266t217 170q-78 43 -124 117.5t-46 169.5q0 97 52 176
t135.5 121.5t178.5 42.5t179 -42.5t136 -121.5t52 -176q0 -95 -46 -169.5t-124 -117.5q140 -57 220.5 -170t80.5 -266q0 -188 -144 -324.5t-352 -136.5zM567 1397q-111 0 -185.5 -70.5t-74.5 -175.5t77 -176.5t183 -71.5q107 0 183.5 71t76.5 177t-74 176t-186 70z" />
    <glyph glyph-name="nine" unicode="9" 
d="M602 0h-153l331 479l-4 4q-119 -61 -217 -61q-141 0 -259 73.5t-184.5 196t-66.5 264.5q0 143 65.5 265t185.5 196t269 74t269.5 -74t186 -196t65.5 -265q0 -100 -32 -189t-100 -192l-282 -428q-60 -94 -74 -147zM569 516q180 0 297 129t117 311q0 118 -51.5 218.5
t-147 161.5t-215.5 61t-215.5 -61t-146.5 -161.5t-51 -218.5q0 -182 116.5 -311t296.5 -129z" />
    <glyph glyph-name="colon" unicode=":" horiz-adv-x="569" 
d="M215 70q0 30 19.5 49.5t50.5 19.5q30 0 49.5 -19.5t19.5 -49.5t-19.5 -50t-49.5 -20t-50 20t-20 50zM215 600q0 30 20 50t50 20t49.5 -20t19.5 -50t-19.5 -50t-49.5 -20t-50 20t-20 50z" />
    <glyph glyph-name="semicolon" unicode=";" horiz-adv-x="569" 
d="M354 92l-143 -338q-4 -16 -4 -24q0 -3 1 -9.5t1 -9.5h-74l92 320q9 27 9 35q0 11 -11 26h129zM281 670q30 0 49.5 -20t19.5 -50t-19.5 -50t-49.5 -20t-50 20t-20 50t20 50t50 20z" />
    <glyph glyph-name="less" unicode="&#x3c;" horiz-adv-x="1228" 
d="M1135 80v-113l-1041 482v106l1041 481v-112l-914 -422z" />
    <glyph glyph-name="equal" unicode="=" horiz-adv-x="1228" 
d="M1114 754v-107h-999v107h999zM1114 356v-106h-999v106h999z" />
    <glyph glyph-name="greater" unicode="&#x3e;" horiz-adv-x="1228" 
d="M94 924v112l1041 -481v-106l-1041 -482v113l914 422z" />
    <glyph glyph-name="question" unicode="?" horiz-adv-x="909" 
d="M342 362h-111q11 63 11 93v147q0 29 -11 92q66 -8 86 -8q169 0 278.5 100.5t109.5 268.5q0 143 -113.5 242.5t-257.5 99.5q-97 0 -234 -78v137q18 -6 45 -6q7 0 74.5 20.5t118.5 20.5q202 0 337.5 -127.5t135.5 -337.5q0 -92 -33.5 -168t-85.5 -124t-118 -81.5t-127 -47
t-115 -13.5v-137q0 -35 10 -93zM279 139q30 0 49.5 -19.5t19.5 -49.5t-19.5 -50t-49.5 -20t-50 20t-20 50t19.5 49.5t50.5 19.5z" />
    <glyph glyph-name="at" unicode="@" horiz-adv-x="1638" 
d="M508 580q0 -89 51 -147t123 -58q94 0 178 79.5t131 193.5t47 224q0 89 -51 147t-123 58q-94 0 -178 -79.5t-131 -193.5t-47 -224zM1104 1008l53 135h111l-201 -606q-27 -79 -27 -125q0 -47 54 -47q80 0 161 79.5t131 196.5t50 223q0 119 -48.5 220.5t-129.5 169
t-185.5 105.5t-216.5 38q-139 0 -262 -54.5t-208.5 -145.5t-135 -213t-49.5 -255t49.5 -255t135 -213t208.5 -145.5t262 -54.5q156 0 304.5 76.5t238.5 206.5h108q-94 -173 -273 -275t-378 -102q-213 0 -389 103.5t-274.5 278t-98.5 380.5t98.5 380.5t274.5 278t389 103.5
q140 0 266 -48t218.5 -131t147 -201.5t54.5 -252.5q0 -115 -43 -225t-110.5 -188.5t-151.5 -126.5t-164 -48q-57 0 -96 37.5t-43 106.5l-4 -4q-127 -142 -271 -142q-113 0 -185.5 89.5t-72.5 217.5q0 109 36 218t98 195.5t153 141t193 54.5q74 0 132.5 -43t90.5 -133z" />
    <glyph glyph-name="A" unicode="A" horiz-adv-x="1251" 
d="M969 422h-697l-137 -336q-10 -23 -10 -45q0 -20 14 -41h-170q10 9 19.5 22t19 32.5t15.5 31.5t16.5 37.5t13.5 32.5l549 1335h4l649 -1448q11 -22 29 -43h-168q14 21 14 41q0 15 -8 31zM313 520h615l-326 719z" />
    <glyph glyph-name="B" unicode="B" 
d="M258 98h277q117 0 212 38.5t155.5 123t60.5 203.5q0 60 -17 109t-43.5 80.5t-64.5 58t-72.5 43t-74.5 33.5q-17 7 -25 10q190 73 190 258q0 150 -109 244t-260 94q-57 0 -119.5 -17.5t-109.5 -46.5v-1231zM147 76v1382q54 -20 91 -20q22 0 111.5 26.5t139.5 26.5
q128 0 236.5 -53.5t175 -155.5t66.5 -231q0 -144 -101 -232q95 -47 151 -143t56 -207q0 -65 -17.5 -128.5t-57.5 -125.5t-98.5 -109.5t-147 -76.5t-195.5 -29h-426q16 46 16 76z" />
    <glyph glyph-name="C" unicode="C" 
d="M1079 1458v-158q-154 93 -313 93q-44 0 -95 -10t-110 -34t-115.5 -59t-109 -89t-92 -120.5t-63 -157t-23.5 -194.5t23.5 -194.5t63 -156.5t92 -120.5t109 -89t115.5 -58.5t110 -34t95 -10q140 0 305 86v-144q-24 8 -45 8q-14 0 -103 -24.5t-159 -24.5q-89 0 -183 27
t-188 87.5t-168 146.5t-120 216.5t-46 284.5t46 284.5t120 216.5t168 146.5t188 87.5t183 27q64 0 154 -23q10 -2 35.5 -9t40 -10t26.5 -3q42 0 59 12z" />
    <glyph glyph-name="D" unicode="D" horiz-adv-x="1251" 
d="M246 1350v-1252h248q128 0 238.5 53t185.5 141.5t118 205.5t43 245q0 137 -47.5 257t-130.5 206.5t-200 136.5t-252 50q-103 0 -203 -43zM135 76v1382q3 0 35.5 -6t48.5 -6q17 0 107 22.5t163 22.5q145 0 275.5 -60t223.5 -161t147.5 -240t54.5 -291q0 -175 -56.5 -317.5
t-152 -233.5t-219 -139.5t-260.5 -48.5h-383q16 46 16 76z" />
    <glyph glyph-name="E" unicode="E" horiz-adv-x="909" 
d="M135 76v1306q0 30 -16 76h739v-115q-33 17 -76 17h-536v-586h375q42 0 75 17v-132q-33 17 -75 17h-375v-578h536q43 0 76 17v-115h-739q16 46 16 76z" />
    <glyph glyph-name="F" unicode="F" horiz-adv-x="909" 
d="M782 1360h-536v-586h375q42 0 75 17v-132q-33 17 -75 17h-375v-600q0 -36 14 -76h-141q16 46 16 76v1306q0 30 -16 76h739v-115q-33 17 -76 17z" />
    <glyph glyph-name="G" unicode="G" horiz-adv-x="1366" 
d="M1149 186v500h-385q-45 0 -76 -16v131q33 -17 76 -17h496v-583q0 -30 16 -76q-235 -158 -479 -158q-203 0 -373 102.5t-267.5 277.5t-97.5 382t97.5 382t267.5 277.5t373 102.5q64 0 160 -20.5t104 -20.5q30 0 49 8v-141q-167 76 -313 76q-132 0 -251 -54t-204 -144
t-134.5 -212t-49.5 -254t49.5 -253.5t134.5 -211.5t204 -144t251 -54q84 0 183.5 32t168.5 88z" />
    <glyph glyph-name="H" unicode="H" horiz-adv-x="1251" 
d="M1102 1382v-1306q0 -30 16 -76h-143q16 46 16 76v608h-733v-608q0 -30 16 -76h-143q16 46 16 76v1306q0 30 -16 76h143q-16 -46 -16 -76v-600h733v600q0 30 -16 76h143q-16 -46 -16 -76z" />
    <glyph glyph-name="I" unicode="I" horiz-adv-x="454" 
d="M299 0h-143q16 46 16 76v1306q0 30 -16 76h143q-16 -46 -16 -76v-1306q0 -30 16 -76z" />
    <glyph glyph-name="J" unicode="J" horiz-adv-x="681" 
d="M412 1458h143q-16 -46 -16 -76v-1077q0 -158 -91 -248t-241 -90q-29 0 -78 17q-50 16 -53 16q-5 0 -16.5 -1t-16.5 -1v115q73 -47 154 -47q108 0 169.5 66.5t61.5 184.5v1065q0 30 -16 76z" />
    <glyph glyph-name="K" unicode="K" 
d="M1122 0h-143q16 46 16 76q0 94 -29 185.5t-88.5 174t-142 147t-197 105t-245.5 47.5l493 600q9 11 23.5 28t21.5 25.5t13 19t6 17.5q0 20 -10 33h196q-62 -62 -75 -78l-476 -571q169 -34 310.5 -138.5t226 -261.5t84.5 -333q0 -30 16 -76zM274 0h-143q16 46 16 76v1306
q0 30 -16 76h143q-16 -46 -16 -76v-1306q0 -30 16 -76z" />
    <glyph glyph-name="L" unicode="L" horiz-adv-x="909" 
d="M141 76v1306q0 30 -16 76h143q-16 -46 -16 -76v-1284h536q43 0 76 17v-115h-739q16 46 16 76z" />
    <glyph glyph-name="M" unicode="M" horiz-adv-x="1478" 
d="M1184 1491l270 -1397q6 -35 37 -94h-148q13 23 13 49q0 29 -4 49l-195 1006h-4l-412 -1153h-4l-407 1163h-4l-209 -1022q-4 -18 -4 -47q0 -22 10 -45h-135q17 39 26 80l289 1411h4l432 -1249h4l437 1249h4z" />
    <glyph glyph-name="N" unicode="N" horiz-adv-x="1251" 
d="M977 1458h143q-16 -46 -16 -76v-1415h-4l-840 1190h-4v-1081q0 -30 16 -76h-143q16 46 16 76v1415h5l839 -1198h4v1089q0 30 -16 76z" />
    <glyph glyph-name="O" unicode="O" horiz-adv-x="1593" 
d="M797 1491q203 0 373 -102.5t267 -277.5t97 -382t-97 -382t-267 -277.5t-373 -102.5t-373 102.5t-267.5 277.5t-97.5 382t97.5 382t267.5 277.5t373 102.5zM797 1393q-132 0 -251 -54t-204 -144t-134.5 -212t-49.5 -254t49.5 -253.5t134.5 -211.5t204 -144t251 -54t251 54
t204 144t134.5 211.5t49.5 253.5t-49.5 254t-134.5 212t-204 144t-251 54z" />
    <glyph glyph-name="P" unicode="P" horiz-adv-x="1024" 
d="M268 0h-143q16 46 16 76v1382q35 -22 90 -22q21 0 122 27.5t171 27.5q129 0 241.5 -64t179.5 -175.5t67 -243.5t-67 -244t-179.5 -176t-241.5 -64t-272 60v-508q0 -30 16 -76zM252 1327v-639q133 -65 272 -65q158 0 267.5 114t109.5 271t-109.5 271t-267.5 114
q-137 0 -272 -66z" />
    <glyph glyph-name="Q" unicode="Q" horiz-adv-x="1593" 
d="M1466 -92h-196q8 16 8 22q0 9 -12 25l-92 119q-172 -107 -377 -107q-203 0 -373 102.5t-267.5 277.5t-97.5 382t97.5 382t267.5 277.5t373 102.5t373 -102.5t267 -277.5t97 -382q0 -179 -70 -330t-196 -258l129 -161q11 -13 35 -36t34 -36zM752 616h180q-12 -14 -12 -32
q0 -12 20 -37l262 -328q109 91 171.5 226t62.5 284q0 132 -49.5 254t-134.5 212t-204 144t-251 54t-251 -54t-204 -144t-134.5 -212t-49.5 -254t49.5 -253.5t134.5 -211.5t204 -144t251 -54q189 0 315 88z" />
    <glyph glyph-name="R" unicode="R" 
d="M131 76v1382q56 -16 84 -16q18 0 102 24.5t152 24.5q132 0 237.5 -64t163.5 -173t58 -240q0 -98 -49.5 -187t-128.5 -133q127 -49 219.5 -144.5t139 -217t46.5 -256.5q0 -30 16 -76h-143q16 46 16 76q0 226 -153 395.5t-397 210.5v6q144 30 233.5 116t89.5 228
q0 151 -97.5 256t-246.5 105q-83 0 -157 -22t-74 -58v-1237q0 -30 16 -76h-143q16 46 16 76z" />
    <glyph glyph-name="S" unicode="S" horiz-adv-x="796" 
d="M41 -12v162q48 -39 122 -61.5t142 -22.5q151 0 251.5 98.5t100.5 247.5q0 88 -33.5 158t-86.5 116t-117.5 85.5t-129 78t-117.5 81.5t-86.5 107t-33.5 144q0 138 90.5 223.5t227.5 85.5q53 0 115.5 -19.5t80.5 -19.5q28 0 43 6v-139q-123 74 -237 74q-94 0 -157.5 -62
t-63.5 -157q0 -60 33.5 -107.5t86.5 -82t117.5 -68.5t129 -78t117.5 -98.5t86.5 -142t33.5 -198.5q0 -191 -128 -311.5t-321 -120.5q-48 0 -110 17q-62 16 -95 16q-31 0 -61 -12z" />
    <glyph glyph-name="T" unicode="T" horiz-adv-x="909" 
d="M526 0h-143q16 46 16 76v1284h-290q-43 0 -76 -17v115h844v-115q-33 17 -76 17h-291v-1284q0 -30 16 -76z" />
    <glyph glyph-name="U" unicode="U" 
d="M90 1458h143q-16 -46 -16 -76v-841q0 -107 21 -191.5t55 -136.5t81.5 -86t95 -47.5t99.5 -13.5t100 13.5t95 47.5t81.5 86t55.5 136.5t21 191.5v841q0 27 -17 76h144q-17 -49 -17 -76v-841q0 -126 -30 -227.5t-78 -164.5t-110.5 -105.5t-123 -59.5t-121.5 -17t-121.5 17
t-123 59.5t-110.5 105.5t-78 164.5t-30 227.5v841q0 30 -16 76z" />
    <glyph glyph-name="V" unicode="V" horiz-adv-x="1251" 
d="M1126 1458h177q-33 -38 -46 -69l-624 -1422h-4l-647 1434q-18 40 -31 57h170q-15 -22 -15 -41q0 -12 9 -33l520 -1153l500 1160q6 12 6 26q0 19 -15 41z" />
    <glyph glyph-name="W" unicode="W" horiz-adv-x="1820" 
d="M1174 -33l-273 582l-250 -582h-4l-645 1438q-13 29 -31 53h168q-14 -21 -14 -41q0 -5 5.5 -20.5t15.5 -38.5t14 -33l487 -1108l203 475l-363 766h164q-14 -21 -14 -41q0 -6 5 -18.5t17.5 -40t18.5 -39.5l491 -1102l465 1086q37 88 37 114q0 20 -14 41h168
q-30 -52 -45 -90l-602 -1401h-4z" />
    <glyph glyph-name="X" unicode="X" horiz-adv-x="1024" 
d="M584 799l430 -717q25 -43 61 -82h-180q14 21 14 41q0 15 -28 57l-361 598l-368 -598q-5 -9 -13.5 -22.5t-13 -21.5t-4.5 -13q0 -20 14 -41h-186q13 11 37 45l475 754l-377 606q-8 14 -37 53h186q-14 -21 -14 -41q0 -15 43 -84l260 -430l273 443q36 64 36 71q0 20 -14 41
h180q-35 -35 -59 -78z" />
    <glyph glyph-name="Y" unicode="Y" horiz-adv-x="1024" 
d="M584 0h-144q17 49 17 76v598l-455 733q-24 36 -39 51h182q-14 -21 -14 -41q0 -12 31 -63l352 -559l371 561q3 6 13.5 21t15 24t4.5 16q0 19 -15 41h178q-11 -12 -45 -61l-469 -723v-598q0 -27 17 -76z" />
    <glyph glyph-name="Z" unicode="Z" horiz-adv-x="1024" 
d="M147 1458h797v-4l-719 -1352v-4h672q43 0 76 17v-115h-922v4l723 1352v4h-551q-43 0 -76 -17v115z" />
    <glyph glyph-name="bracketleft" unicode="[" horiz-adv-x="681" 
d="M240 1380v-1470h239q42 0 66 12v-90h-416q16 46 16 76v1474q0 30 -16 76h416v-90q-24 12 -66 12h-239z" />
    <glyph glyph-name="backslash" unicode="\" horiz-adv-x="569" 
d="M-6 1491h102l482 -1524h-103z" />
    <glyph glyph-name="bracketright" unicode="]" horiz-adv-x="681" 
d="M442 -90v1470h-239q-42 0 -66 -12v90h416q-16 -46 -16 -76v-1474q0 -30 16 -76h-416v90q24 -12 66 -12h239z" />
    <glyph glyph-name="asciicircum" unicode="^" horiz-adv-x="1228" 
d="M209 530h-119l471 928h107l473 -928h-117l-412 803z" />
    <glyph glyph-name="underscore" unicode="_" horiz-adv-x="1024" 
d="M0 -154h1024v-102h-1024v102z" />
    <glyph glyph-name="grave" unicode="`" horiz-adv-x="454" 
d="M49 1389h158l227 -285h-108z" />
    <glyph glyph-name="a" unicode="a" 
d="M1016 756v-680q0 -30 16 -76h-110v147h-4q-66 -92 -150.5 -136t-196.5 -44q-101 0 -195 40t-165.5 109.5t-114.5 170.5t-43 215q0 152 73.5 276t191.5 191t253 67q101 0 201 -45.5t180 -120.5q42 -39 80 -39q-16 -46 -16 -75zM922 297v416q-6 54 -60.5 108.5t-135.5 89.5
t-159 35q-181 0 -302.5 -129.5t-121.5 -314.5t121.5 -315t302.5 -130q115 0 219.5 67.5t135.5 172.5z" />
    <glyph glyph-name="b" unicode="b" 
d="M201 1458v-571q56 63 163 106t222 43q218 0 359.5 -151.5t141.5 -380.5q0 -158 -72.5 -282t-192 -189.5t-263.5 -65.5q-78 0 -146.5 23.5t-106.5 51t-84.5 65t-71.5 51.5q-34 20 -60 24q16 46 16 76v1124q0 30 -16 76h111zM201 754v-504q66 -87 162.5 -140t195.5 -53
q186 0 312 127.5t126 317.5t-126 317t-312 127q-99 0 -195.5 -53t-162.5 -139z" />
    <glyph glyph-name="c" unicode="c" horiz-adv-x="909" 
d="M864 1014v-150q-67 41 -129.5 61.5t-142.5 20.5q-196 0 -325.5 -129.5t-129.5 -314.5t129.5 -315t325.5 -130q130 0 262 66v-139q-21 12 -55 12q-18 0 -94.5 -14.5t-139.5 -14.5q-101 0 -195 40t-165.5 109.5t-114.5 170.5t-43 215q0 152 73.5 276t191.5 191t253 67
q89 0 162 -17.5t82 -17.5q32 0 55 13z" />
    <glyph glyph-name="d" unicode="d" 
d="M930 887v571h110q-16 -46 -16 -76v-1124q0 -30 16 -76q-24 -4 -59 -24q-23 -13 -71.5 -51t-88 -65.5t-114.5 -51t-162 -23.5q-218 0 -360 152t-142 381q0 158 72.5 281.5t192 189t263.5 65.5q96 0 200 -44t159 -105zM930 250v504q-66 86 -162.5 139t-196.5 53
q-186 0 -312 -127t-126 -317t126 -317.5t312 -127.5q99 0 196 53t163 140z" />
    <glyph glyph-name="e" unicode="e" 
d="M1083 467h-925q39 -193 153.5 -301.5t290.5 -108.5q149 0 279 70v-139q-50 8 -70 8l-87 -14q-88 -15 -157 -15q-130 0 -245 72t-184.5 196t-69.5 267t69.5 267t184.5 195.5t245 71.5q152 0 270.5 -76t181.5 -205t64 -288zM158 557h835q-17 80 -50 148t-83 123
t-123.5 86.5t-161.5 31.5t-160.5 -31.5t-122.5 -86.5t-83 -123t-51 -148z" />
    <glyph glyph-name="f" unicode="f" horiz-adv-x="569" 
d="M266 1004h297v-107q-43 12 -86 12h-211v-833q0 -27 17 -76h-127q16 46 16 76v833h-90q-23 0 -47 -8v103h137v104q0 75 25.5 137t63.5 100t84.5 64.5t86 37.5t70.5 11q40 0 67 12v-118q-27 12 -67 12q-105 0 -170.5 -76t-65.5 -196v-88z" />
    <glyph glyph-name="g" unicode="g" 
d="M1016 745v-720q0 -226 -133 -359t-357 -133q-39 0 -120.5 18.5t-104.5 18.5q-27 0 -45 -12v153q60 -38 143.5 -63t149.5 -25q373 0 373 483q-56 -60 -151.5 -99.5t-207.5 -39.5q-129 0 -242 73.5t-179 197t-66 264.5q0 106 39.5 204.5t105 170.5t155.5 115.5t187 43.5
q53 0 102.5 -11t82.5 -23.5t80 -44.5t68.5 -49t76.5 -62q20 -17 59 -25q-16 -46 -16 -76zM922 231v519q-53 86 -149.5 141t-209.5 55q-110 0 -203 -68.5t-143.5 -170t-50.5 -205.5t50.5 -205.5t143.5 -170.5t203 -69q231 0 359 174z" />
    <glyph glyph-name="h" unicode="h" 
d="M219 1458v-579q74 72 153.5 114.5t186.5 42.5q204 0 329.5 -127t125.5 -340v-493q0 -30 16 -76h-127q17 49 17 76v493q0 160 -97.5 266.5t-261.5 106.5q-90 0 -190 -56.5t-152 -133.5v-676q0 -27 17 -76h-127q16 46 16 76v1306q0 30 -16 76h110z" />
    <glyph glyph-name="i" unicode="i" horiz-adv-x="454" 
d="M291 0h-127q16 46 16 76v852q0 30 -16 76h110v-928q0 -27 17 -76zM295 1268q0 -29 -19.5 -48.5t-48.5 -19.5q-28 0 -47.5 19.5t-19.5 48.5q0 28 19.5 47.5t47.5 19.5q29 0 48.5 -19.5t19.5 -47.5z" />
    <glyph glyph-name="j" unicode="j" horiz-adv-x="454" 
d="M289 1004v-1049q0 -171 -111.5 -284t-265.5 -113q-37 0 -72 -7v113q27 -12 68 -12q135 0 211 88t76 235v953q0 27 -17 76h111zM242 1335q29 0 48 -19.5t19 -47.5q0 -29 -19 -48.5t-48 -19.5q-28 0 -48 19.5t-20 48.5q0 28 20 47.5t48 19.5z" />
    <glyph glyph-name="k" unicode="k" horiz-adv-x="1024" 
d="M997 1004l-450 -392q106 -13 184 -60.5t122 -122t64.5 -162t20.5 -191.5q0 -30 16 -76h-127q17 49 17 76q0 228 -106 346.5t-318 118.5q-46 0 -90 -9l522 472h145zM246 1458v-1382q0 -30 16 -76h-127q17 49 17 76v1306q0 27 -17 76h111z" />
    <glyph glyph-name="l" unicode="l" horiz-adv-x="454" 
d="M274 1458v-1382q0 -27 17 -76h-127q16 46 16 76v1306q0 30 -16 76h110z" />
    <glyph glyph-name="m" unicode="m" horiz-adv-x="1820" 
d="M115 76v653q0 27 -17 76q7 1 14 4.5t15.5 9t14 10t15.5 13t15 12.5q52 43 71 59t63.5 47t74 42.5t75 22.5t93.5 11q237 0 379 -176q64 74 155.5 125t192.5 51q188 0 308 -127.5t120 -339.5v-493q0 -30 16 -76h-127q17 49 17 76v477q0 173 -89.5 281t-232.5 108
q-94 0 -181.5 -47t-150.5 -143v-676q0 -27 17 -76h-127q16 46 16 76v616q0 96 -84.5 173t-226.5 77q-90 0 -190 -56.5t-152 -133.5v-676q0 -30 16 -76h-127q17 49 17 76z" />
    <glyph glyph-name="n" unicode="n" 
d="M219 752v-676q0 -27 17 -76h-127q16 46 16 76v653q0 30 -16 76q8 1 18.5 7t17 11t19.5 16t18 15q52 43 71 59t63.5 47t74 42.5t75 22.5t93.5 11q204 0 329.5 -127t125.5 -340v-493q0 -30 16 -76h-127q17 49 17 76v493q0 160 -97.5 266.5t-261.5 106.5q-90 0 -190 -56.5
t-152 -133.5z" />
    <glyph glyph-name="o" unicode="o" 
d="M569 57q183 0 310 131t127 314t-127 313.5t-310 130.5t-309.5 -130.5t-126.5 -313.5t126.5 -314t309.5 -131zM569 -33q-147 0 -268 71.5t-189.5 194t-68.5 269.5t68.5 269.5t189.5 193.5t268 71t268 -71t190 -193.5t69 -269.5t-69 -269.5t-190 -194t-268 -71.5z" />
    <glyph glyph-name="p" unicode="p" 
d="M106 -367v1112q0 30 -16 76q23 4 60 25q23 13 71.5 51t88 65t114.5 50.5t162 23.5q218 0 359.5 -151.5t141.5 -380.5q0 -158 -72.5 -282t-192 -189.5t-263.5 -65.5q-96 0 -199.5 44.5t-158.5 105.5v-484q0 -29 16 -75h-127q16 46 16 75zM201 754v-504q66 -87 162.5 -140
t195.5 -53q186 0 312 127.5t126 317.5t-126 317t-312 127q-99 0 -195.5 -53t-162.5 -139z" />
    <glyph glyph-name="q" unicode="q" 
d="M1024 745v-1112q0 -29 16 -75h-127q17 49 17 75v484q-55 -61 -159 -105.5t-200 -44.5q-144 0 -263.5 65.5t-192 189.5t-72.5 282q0 150 64 271.5t179 191t259 69.5q87 0 162 -23.5t114.5 -50.5t88 -65t71.5 -51q37 -21 59 -25q-16 -46 -16 -76zM930 250v504
q-66 86 -162.5 139t-196.5 53q-186 0 -312 -127t-126 -317t126 -317.5t312 -127.5q99 0 196 53t163 140z" />
    <glyph glyph-name="r" unicode="r" horiz-adv-x="569" 
d="M236 674v-598q0 -30 16 -76h-127q16 46 16 76v852q0 30 -16 76h111v-164h4q36 77 122 120.5t173 43.5q40 0 67 12v-119q-27 12 -67 12q-225 0 -299 -235z" />
    <glyph glyph-name="s" unicode="s" horiz-adv-x="681" 
d="M541 1030v-145q-115 61 -203 61q-86 0 -134 -47t-48 -131q-1 -44 25.5 -78t69 -56.5t94.5 -44.5t104 -49t95 -62t70 -92t27 -130q0 -119 -96.5 -204t-231.5 -85q-69 0 -133 20.5t-71 20.5q-41 0 -68 -12v147q56 -36 125.5 -61t126.5 -25q65 0 121 19.5t96.5 66.5
t40.5 115q0 51 -26.5 91.5t-69 67.5t-94.5 51.5t-103.5 51.5t-94.5 59.5t-70 84t-27 116.5q0 112 79.5 184t186.5 72q30 0 81 -9t60 -9q41 0 68 12z" />
    <glyph glyph-name="t" unicode="t" horiz-adv-x="569" 
d="M270 1004h289v-95h-289v-833q0 -27 17 -76h-127q16 46 16 76v833h-113l207 287v-192z" />
    <glyph glyph-name="u" unicode="u" 
d="M920 252v676q0 27 -17 76h127q-16 -46 -16 -76v-654q0 -29 16 -75q-7 -1 -14 -4.5t-15.5 -9t-14 -10t-15.5 -13t-15 -12.5q-110 -92 -157 -121q-101 -62 -219 -62q-204 0 -329.5 127t-125.5 340v494q0 30 -16 76h127q-17 -49 -17 -76v-494q0 -160 97.5 -266.5
t261.5 -106.5q90 0 190 57t152 134z" />
    <glyph glyph-name="v" unicode="v" horiz-adv-x="909" 
d="M92 930l361 -774l376 780q9 15 9 33q0 13 -11 35h148q-16 -19 -37 -60l-489 -977h-5l-473 979q-11 24 -37 58h156q-10 -20 -10 -35q0 -12 12 -39z" />
    <glyph glyph-name="w" unicode="w" horiz-adv-x="1593" 
d="M1106 -33l-303 815l-309 -815h-5l-501 975q-11 22 -39 62h164q-11 -22 -11 -35q0 -14 21 -51l356 -728l318 846h4l323 -846l359 721q20 35 20 58q0 15 -10 35h154q-20 -25 -39 -64l-498 -973h-4z" />
    <glyph glyph-name="x" unicode="x" horiz-adv-x="909" 
d="M403 549l-327 393q-35 44 -56 62h177q-11 -15 -11 -29q0 -13 15 -31l264 -319l268 319q15 18 15 31q0 14 -11 29h178q-24 -21 -57 -62l-332 -395l394 -486q30 -38 57 -61h-172q10 13 10 29q0 13 -14 30l-340 416l-340 -416q-15 -18 -15 -30q0 -14 11 -29h-183
q37 32 60 61z" />
    <glyph glyph-name="y" unicode="y" horiz-adv-x="909" 
d="M184 -369l209 441l-403 874q-16 36 -35 58h151q-10 -20 -10 -35q0 -4 2.5 -9l6 -12t4.5 -10l348 -754l354 750q12 24 12 35q0 15 -10 35h158q-34 -48 -45 -72l-623 -1282q-16 -36 -16 -58q0 -14 10 -34h-156q5 9 20.5 34t22.5 39z" />
    <glyph glyph-name="z" unicode="z" horiz-adv-x="909" 
d="M883 106v-106h-858v4l645 905h-447q-43 0 -86 -12v107h733v-5l-649 -905h576q43 0 86 12z" />
    <glyph glyph-name="braceleft" unicode="{" horiz-adv-x="681" 
d="M125 596v78q127 0 127 295v295q0 105 44 166t120 61h90v-78h-86q-34 0 -54 -53t-20 -129v-293q0 -71 -15.5 -129.5t-39 -92.5t-41 -51.5t-31.5 -25.5v-4q15 -8 32.5 -25.5t41 -51t38.5 -90.5t15 -126v-293q0 -76 20 -129t54 -53h86v-78h-90q-76 0 -120 61t-44 166v295
q0 285 -127 285z" />
    <glyph glyph-name="bar" unicode="|" horiz-adv-x="454" 
d="M174 1536h107v-2048h-107v2048z" />
    <glyph glyph-name="braceright" unicode="}" horiz-adv-x="681" 
d="M557 684v-78q-127 0 -127 -295v-295q0 -105 -44 -166t-120 -61h-90v78h86q34 0 54 53t20 129v293q0 71 15.5 129.5t39 92.5t41 51.5t31.5 25.5v4q-15 8 -32.5 25.5t-41 51t-38.5 90.5t-15 126v293q0 76 -20 129t-54 53h-86v78h90q76 0 120 -61t44 -166v-295
q0 -285 127 -285z" />
    <glyph glyph-name="asciitilde" unicode="~" horiz-adv-x="1228" 
d="M1014 625l73 -66q-28 -40 -50 -66t-54.5 -55t-70.5 -44t-81 -15q-12 0 -26 2t-24.5 4t-26.5 7.5t-24.5 8t-27 11t-25 11.5t-28 13.5t-26.5 12.5q-146 69 -236 69q-34 0 -61 -11.5t-48 -34.5t-33.5 -42.5t-29.5 -50.5l-74 70q92 176 256 176q82 0 238 -70q10 -4 33 -14.5
t33.5 -15t30 -12.5t30.5 -12t25.5 -8t25.5 -6t21 -2q27 0 50.5 9.5t48.5 33.5t35 36.5t36 47.5q4 4 6 7z" />
    <glyph glyph-name="exclamdown" unicode="&#xa1;" horiz-adv-x="454" 
d="M176 676h103q-11 -42 -11 -80q0 -110 11.5 -472t11.5 -466q0 -44 12 -80h-151q12 36 12 80q0 104 11 466t11 472q0 42 -10 80zM297 967q0 -30 -20 -50t-50 -20t-49.5 20t-19.5 50t19.5 49.5t49.5 19.5q31 0 50.5 -20t19.5 -49z" />
    <glyph glyph-name="cent" unicode="&#xa2;" 
d="M662 344v834q-158 -25 -261.5 -139.5t-103.5 -278.5t104 -278t261 -138zM961 406v-138q-18 6 -48 6q-11 0 -66 -12t-87 -14v-123q0 -32 10 -55h-108v178q-200 22 -336 167t-136 345t136 345t336 167v104q0 30 -11 56h109v-160q37 -4 88 -17.5t65 -13.5q25 0 45 10v-137
q-104 56 -198 64v-834q90 0 201 62z" />
    <glyph glyph-name="sterling" unicode="&#xa3;" 
d="M616 799v-111h-329v-594h291q187 0 294 106.5t107 266.5q0 38 -6 76h112q0 -110 -28.5 -205t-86.5 -172t-157.5 -121.5t-230.5 -44.5h-418q16 46 16 76v612h-94q-23 0 -47 -8v106h141v240q0 209 109 337t303 128q36 0 99.5 -18.5t72.5 -18.5q27 0 43 8v-147
q-40 35 -97 58.5t-114 23.5q-141 0 -223 -92t-82 -256v-263h239q39 0 86 13z" />
    <glyph glyph-name="currency" unicode="&#xa4;" 
d="M999 1237l78 -78l-114 -117q114 -120 114 -313q0 -177 -110 -313l110 -117l-78 -78l-108 119q-136 -119 -322 -119q-185 0 -321 119l-109 -119l-78 78l111 117q-111 137 -111 313q0 192 115 313l-115 117l78 78l115 -113q137 113 315 113q179 0 316 -113zM569 1135
q-166 0 -285.5 -120t-119.5 -286t119.5 -285.5t285.5 -119.5t286 119.5t120 285.5t-120 286t-286 120z" />
    <glyph glyph-name="yen" unicode="&#xa5;" 
d="M629 0h-140q17 49 17 76v436h-266q-23 0 -47 -8v106h313v72l-49 88h-217q-23 0 -47 -8v106h208l-309 539q-13 26 -35 51h160q-14 -19 -14 -33q0 -6 3.5 -14t11.5 -21t11 -20l332 -575l352 579q19 30 19 51q0 14 -14 33h163q-14 -16 -41 -61l-317 -529h180q20 0 47 9v-107
h-286l-52 -84v-76h291q23 0 47 8v-106h-338v-436q0 -27 17 -76z" />
    <glyph glyph-name="brokenbar" unicode="&#xa6;" horiz-adv-x="454" 
d="M174 1382h107v-716h-107v716zM174 358h107v-716h-107v716z" />
    <glyph glyph-name="section" unicode="&#xa7;" 
d="M176 -76h123q-6 -18 -6 -55q0 -68 43 -119t103.5 -74.5t125.5 -23.5t126 23.5t104 74.5t43 119q0 64 -42.5 123t-110.5 107.5t-150 96t-164 97.5t-150 102.5t-110.5 120.5t-42.5 143q0 101 70 183t173 110q-41 29 -68.5 93t-27.5 131q0 157 103.5 236t265.5 79
q146 0 251 -84t105 -199q0 -37 10 -75h-119q9 24 9 51q0 96 -81.5 154.5t-193.5 58.5q-69 0 -123.5 -18.5t-91.5 -66t-37 -118.5q0 -66 42 -124.5t108.5 -103.5t147.5 -88.5t162 -88.5t147.5 -94t108.5 -115t42 -142q0 -199 -246 -323q47 -39 79 -106.5t32 -139.5
q0 -95 -53 -167.5t-134 -108t-174 -35.5q-166 0 -273 82t-107 198q0 43 -19 86zM166 674q0 -57 38 -111t106 -103t139 -92t160 -98.5t147 -101.5q17 3 42.5 15t56 35t57 52t44 69.5t17.5 84.5q0 59 -40 111.5t-109.5 97t-142.5 83t-159.5 88.5t-140.5 95q-23 -7 -55 -23.5
t-70 -43.5t-64 -69.5t-26 -88.5z" />
    <glyph glyph-name="dieresis" unicode="&#xa8;" horiz-adv-x="454" 
d="M301 1208q0 30 20 50t50 20t49.5 -20t19.5 -50t-19.5 -49.5t-49.5 -19.5q-31 0 -50.5 19.5t-19.5 49.5zM16 1208q0 30 20 50t50 20t50 -20t20 -50t-20 -49.5t-50 -19.5t-50 19.5t-20 49.5z" />
    <glyph glyph-name="copyright" unicode="&#xa9;" horiz-adv-x="1638" 
d="M1477 729q0 139 -52 263.5t-140.5 213t-210 140t-255.5 51.5t-255 -51.5t-209.5 -140t-140.5 -213t-52 -263.5t52 -263.5t140.5 -213t209.5 -140t255 -51.5t255.5 51.5t210 140t140.5 213t52 263.5zM1229 893h-113q-20 99 -95.5 157t-178.5 58q-162 0 -253 -108t-91 -275
q0 -154 97.5 -268.5t246.5 -114.5q106 0 180.5 63.5t93.5 167.5h113q-34 -148 -138.5 -236.5t-250.5 -88.5q-201 0 -325 136.5t-124 340.5t124 340.5t325 136.5q93 0 175 -35.5t140.5 -107t73.5 -166.5zM1581 729q0 -153 -60 -293.5t-162 -243t-243.5 -164t-296.5 -61.5
t-296.5 61.5t-243.5 164t-162 243t-60 293.5t60 293.5t162 243t243.5 164t296.5 61.5t296.5 -61.5t243.5 -164t162 -243t60 -293.5z" />
    <glyph glyph-name="ordfeminine" unicode="&#xaa;" horiz-adv-x="684" 
d="M645 1307v-394q0 -17 12 -45h-86v125h-4q-69 -145 -213 -145q-138 0 -236 94.5t-98 226.5q0 131 98.5 226.5t235.5 95.5q126 0 250 -100q29 -23 53 -23q-12 -18 -12 -61zM571 1108v188q-3 43 -71.5 78t-151.5 35q-117 0 -181.5 -65t-64.5 -173q0 -111 68 -176t190 -65
q70 0 134.5 61.5t76.5 116.5z" />
    <glyph glyph-name="guillemotleft" unicode="&#xab;" horiz-adv-x="1024" 
d="M469 502l254 315h121l-254 -315l254 -316h-121zM180 502l254 315h121l-254 -315l254 -316h-121z" />
    <glyph glyph-name="logicalnot" unicode="&#xac;" horiz-adv-x="1228" 
d="M1008 362v285h-893v107h999v-392h-106z" />
    <glyph glyph-name="registered" unicode="&#xae;" horiz-adv-x="1638" 
d="M1581 729q0 -153 -60 -293.5t-162 -243t-243.5 -164t-296.5 -61.5t-296.5 61.5t-243.5 164t-162 243t-60 293.5t60 293.5t162 243t243.5 164t296.5 61.5t296.5 -61.5t243.5 -164t162 -243t60 -293.5zM1477 729q0 139 -52 263.5t-140.5 213t-210 140t-255.5 51.5
t-255 -51.5t-209.5 -140t-140.5 -213t-52 -263.5t52 -263.5t140.5 -213t209.5 -140t255 -51.5t255.5 51.5t210 140t140.5 213t52 263.5zM641 276h-106v906h348q138 0 216.5 -61.5t78.5 -190.5q0 -113 -63.5 -178t-164.5 -78l269 -398h-129l-256 398h-193v-398zM641 1087
v-319h215q215 0 215 160q0 84 -58.5 121.5t-156.5 37.5h-215z" />
    <glyph glyph-name="macron" unicode="&#xaf;" horiz-adv-x="454" 
d="M530 1276v-94h-604v94h604z" />
    <glyph glyph-name="degree" unicode="&#xb0;" horiz-adv-x="819" 
d="M410 979q91 0 155 63.5t64 155.5t-64 155.5t-155 63.5t-155.5 -63.5t-64.5 -155.5t64.5 -155.5t155.5 -63.5zM117 1198q0 124 85.5 208.5t207.5 84.5t207 -84.5t85 -208.5t-85 -208.5t-207 -84.5t-207.5 84.5t-85.5 208.5z" />
    <glyph glyph-name="plusminus" unicode="&#xb1;" horiz-adv-x="1228" 
d="M561 653v351h107v-351h446v-106h-446v-348h-107v348h-446v106h446zM1114 0h-999v106h999v-106z" />
    <glyph glyph-name="twosuperior" unicode="&#xb2;" horiz-adv-x="681" 
d="M651 676v-80h-624v4l288 256q13 11 53.5 46.5t61.5 54.5t55 55t51.5 62.5t31.5 61t14 66.5q0 88 -75 153.5t-175 65.5q-84 0 -149.5 -63t-65.5 -144q0 -26 2 -38h-90q0 3 3 16.5t3 21.5q0 47 20 94.5t56.5 89t96.5 67.5t132 26q130 0 227 -89.5t97 -207.5
q0 -45 -15 -85.5t-48.5 -80.5t-59.5 -65.5t-74 -67.5l-258 -229h360q44 0 82 10z" />
    <glyph glyph-name="threesuperior" unicode="&#xb3;" horiz-adv-x="681" 
d="M-4 918h92q5 -122 70.5 -197.5t167.5 -75.5q128 0 202 66t74 176q0 94 -60 153t-132 66v4q127 39 127 145q0 62 -57.5 114t-131.5 52q-82 0 -133 -52.5t-51 -123.5h-86q6 18 6 23q0 33 15 69.5t45 72t84.5 58.5t123.5 23q112 0 189 -69t77 -165q0 -101 -69 -141
q62 -34 98.5 -96t36.5 -139q0 -135 -106 -220.5t-252 -85.5q-71 0 -133 27.5t-101.5 70t-62.5 92.5t-23 97q0 12 -4.5 31.5t-5.5 24.5z" />
    <glyph glyph-name="acute" unicode="&#xb4;" horiz-adv-x="454" 
d="M248 1389h158l-277 -285h-109z" />
    <glyph glyph-name="mu" unicode="&#xb5;" 
d="M920 252v676q0 27 -17 76h127q-16 -46 -16 -76v-654q0 -11 2 -24t5.5 -29t4.5 -24q-36 -18 -70 -47q-110 -92 -157 -121q-101 -62 -219 -62q-117 0 -210 43t-147 123h-4v-500q0 -26 17 -75h-127q16 46 16 75v1295q0 30 -16 76h127q-17 -49 -17 -76v-494
q0 -160 97.5 -266.5t261.5 -106.5q90 0 190 57t152 134z" />
    <glyph glyph-name="paragraph" unicode="&#xb6;" horiz-adv-x="1228" 
d="M559 -367v1035q-178 0 -301 114.5t-123 274.5q0 192 120 296.5t337 104.5h444v-1825h-102v1735h-272v-1735h-103z" />
    <glyph glyph-name="periodcentered" unicode="&#xb7;" horiz-adv-x="569" 
d="M207 502q0 31 23 54.5t55 23.5t54.5 -23.5t22.5 -54.5q0 -32 -22.5 -55t-54.5 -23t-55 23t-23 55z" />
    <glyph glyph-name="cedilla" unicode="&#xb8;" horiz-adv-x="454" 
d="M-8 -385l28 61q65 -28 121 -28q24 0 48 4.5t47 14.5t37 28.5t14 44.5q0 41 -32 59.5t-79 18.5q-39 0 -82 -15l-31 29l123 168h80l-96 -117l4 -4q27 12 70 12q69 0 109 -46t40 -111q0 -69 -54.5 -114.5t-148.5 -45.5q-62 0 -102.5 8.5t-95.5 32.5z" />
    <glyph glyph-name="onesuperior" unicode="&#xb9;" horiz-adv-x="681" 
d="M403 1491v-850q0 -19 11 -45h-103q11 26 11 45v680l-189 -193l-47 54q39 27 76 67l223 242h18z" />
    <glyph glyph-name="ordmasculine" unicode="&#xba;" horiz-adv-x="684" 
d="M342 1409q-115 0 -187.5 -66.5t-72.5 -173.5t72.5 -173t187.5 -66t187.5 66t72.5 173t-72.5 173.5t-187.5 66.5zM342 1491q143 0 242.5 -95t99.5 -227t-99.5 -226.5t-242.5 -94.5t-242.5 94.5t-99.5 226.5t99.5 227t242.5 95z" />
    <glyph glyph-name="guillemotright" unicode="&#xbb;" horiz-adv-x="1024" 
d="M590 817l254 -315l-254 -316h-121l254 316l-254 315h121zM301 817l254 -315l-254 -316h-121l254 316l-254 315h121z" />
    <glyph glyph-name="onequarter" unicode="&#xbc;" horiz-adv-x="1708" 
d="M1233 1491h141q-27 -27 -41 -55l-827 -1381q-14 -24 -14 -45q0 -15 4 -43h-146q19 16 37 49l846 1401q8 16 8 37q0 24 -8 37zM209 1128l-47 54q39 27 76 67l223 242h18v-850q0 -22 10 -45h-102q10 23 10 45v680zM1599 178h-143v-133q0 -22 10 -45h-102q10 23 10 45v133
h-465l-53 88q29 11 37 21l559 608h4v-647h86q30 0 57 10v-80zM1374 248v475h-2l-432 -475h434z" />
    <glyph glyph-name="onehalf" unicode="&#xbd;" horiz-adv-x="1708" 
d="M1110 1491h141q-27 -27 -41 -55l-827 -1381q-14 -24 -14 -45q0 -15 4 -43h-146q19 16 37 49l846 1401q8 16 8 37q0 24 -8 37zM111 1128l-48 54q39 27 76 67l223 242h19v-850q0 -22 10 -45h-102q10 23 10 45v680zM1571 0h-625v4l289 256q12 11 53 47t61.5 54.5t54.5 54.5
t51.5 62.5t31.5 61t14 66.5q0 88 -75 153.5t-175 65.5q-84 0 -149.5 -63t-65.5 -144q0 -26 2 -38h-90q0 3 3 16.5t3 21.5q0 47 20 94.5t57 89t97 67.5t132 26q130 0 226.5 -89.5t96.5 -207.5q0 -45 -15 -85.5t-48.5 -80.5t-59.5 -65.5t-74 -67.5l-258 -229h361q44 0 82 10
v-80z" />
    <glyph glyph-name="threequarters" unicode="&#xbe;" horiz-adv-x="1708" 
d="M1282 1491h141q-27 -27 -41 -55l-827 -1381q-14 -24 -14 -45q0 -15 4 -43h-146q19 16 37 49l846 1401q8 16 8 37q0 24 -8 37zM1649 178h-144v-133q0 -19 11 -45h-103q10 23 10 45v133h-465l-53 88q29 11 37 21l559 608h4v-647h86q31 0 58 10v-80zM1423 248v475h-2
l-432 -475h434zM72 918h92q5 -122 70 -197.5t167 -75.5q128 0 202.5 66t74.5 176q0 94 -60.5 153t-132.5 66v4q127 39 127 145q0 63 -57 114.5t-131 51.5q-82 0 -133 -52.5t-51 -123.5h-86q6 18 6 23q0 33 15 69.5t45 72t84.5 58.5t123.5 23q112 0 189 -69t77 -165
q0 -101 -69 -141q62 -34 98.5 -96t36.5 -139q0 -135 -106.5 -220.5t-252.5 -85.5q-71 0 -132.5 27.5t-101.5 70t-62.5 92.5t-22.5 97q0 12 -4.5 31.5t-5.5 24.5z" />
    <glyph glyph-name="questiondown" unicode="&#xbf;" horiz-adv-x="909" 
d="M567 674h111q-10 -57 -10 -92v-148q0 -34 10 -92q-66 8 -86 8q-169 0 -278 -100t-109 -268q0 -95 54 -175t138.5 -123.5t177.5 -43.5q99 0 234 77v-137q-18 6 -45 6q-7 0 -74.5 -20.5t-118.5 -20.5q-202 0 -337.5 127.5t-135.5 337.5q0 92 34 168t86 124t118 81.5t127 47
t115 13.5v138q0 29 -11 92zM631 897q-30 0 -50 20t-20 50q0 29 19.5 49t50.5 20q30 0 49.5 -19.5t19.5 -49.5t-19.5 -50t-49.5 -20z" />
    <glyph glyph-name="Agrave" unicode="&#xc0;" horiz-adv-x="1251" 
d="M969 422h-697l-137 -336q-10 -23 -10 -45q0 -20 14 -41h-170q10 9 19.5 22t19 32.5t15.5 31.5t16.5 37.5t13.5 32.5l549 1335h4l649 -1448q11 -22 29 -43h-168q14 21 14 41q0 15 -8 31zM313 520h615l-326 719zM424 1827h158l227 -285h-109z" />
    <glyph glyph-name="Aacute" unicode="&#xc1;" horiz-adv-x="1251" 
d="M969 422h-697l-137 -336q-10 -23 -10 -45q0 -20 14 -41h-170q10 9 19.5 22t19 32.5t15.5 31.5t16.5 37.5t13.5 32.5l549 1335h4l649 -1448q11 -22 29 -43h-168q14 21 14 41q0 15 -8 31zM313 520h615l-326 719zM623 1827h157l-276 -285h-109z" />
    <glyph glyph-name="Acircumflex" unicode="&#xc2;" horiz-adv-x="1251" 
d="M969 422h-697l-137 -336q-10 -23 -10 -45q0 -20 14 -41h-170q10 9 19.5 22t19 32.5t15.5 31.5t16.5 37.5t13.5 32.5l549 1335h4l649 -1448q11 -22 29 -43h-168q14 21 14 41q0 15 -8 31zM313 520h615l-326 719zM301 1542l231 285h140l231 -285h-133l-168 209l-168 -209
h-133z" />
    <glyph glyph-name="Atilde" unicode="&#xc3;" horiz-adv-x="1251" 
d="M969 422h-697l-137 -336q-10 -23 -10 -45q0 -20 14 -41h-170q10 9 19.5 22t19 32.5t15.5 31.5t16.5 37.5t13.5 32.5l549 1335h4l649 -1448q11 -22 29 -43h-168q14 21 14 41q0 15 -8 31zM313 520h615l-326 719zM358 1567h-75q33 198 180 198q45 0 149 -45q108 -47 138 -47
q40 0 66.5 30.5t33.5 72.5h76q-33 -199 -181 -199q-45 0 -149 45q-108 47 -137 47q-40 0 -67 -30t-34 -72z" />
    <glyph glyph-name="Adieresis" unicode="&#xc4;" horiz-adv-x="1251" 
d="M969 422h-697l-137 -336q-10 -23 -10 -45q0 -20 14 -41h-170q10 9 19.5 22t19 32.5t15.5 31.5t16.5 37.5t13.5 32.5l549 1335h4l649 -1448q11 -22 29 -43h-168q14 21 14 41q0 15 -8 31zM313 520h615l-326 719zM676 1647q0 30 19.5 49.5t49.5 19.5q31 0 50.5 -20t19.5 -49
q0 -30 -20 -50t-50 -20t-49.5 20t-19.5 50zM391 1647q0 29 19.5 49t50.5 20q30 0 49.5 -19.5t19.5 -49.5t-19.5 -50t-49.5 -20t-50 20t-20 50z" />
    <glyph glyph-name="Aring" unicode="&#xc5;" horiz-adv-x="1251" 
d="M969 422h-697l-137 -336q-10 -23 -10 -45q0 -20 14 -41h-170q10 9 19.5 22t19 32.5t15.5 31.5t16.5 37.5t13.5 32.5l549 1335h4l649 -1448q11 -22 29 -43h-168q14 21 14 41q0 15 -8 31zM313 520h615l-326 719zM602 1946q85 0 145 -60t60 -145t-60 -145t-145 -60t-145 60
t-60 145t60 145t145 60zM602 1606q57 0 96 39t39 96t-39 96t-96 39t-96 -39t-39 -96t39 -96t96 -39z" />
    <glyph glyph-name="AE" unicode="&#xc6;" horiz-adv-x="1705" 
d="M1417 676h-375v-578h537q43 0 76 17v-115h-740q17 49 17 76v346h-567l-240 -352q-19 -27 -19 -41q0 -11 9 -29h-168l942 1348q3 4 7.5 9.5t6.5 8.5t4 7.5t2 8.5q0 24 -18 76h764v-115q-33 17 -76 17h-537v-586h375q43 0 76 17v-132q-33 17 -76 17zM426 520h506v721h-4z
" />
    <glyph glyph-name="Ccedilla" unicode="&#xc7;" 
d="M1079 1458v-158q-154 93 -313 93q-44 0 -95 -10t-110 -34t-115.5 -59t-109 -89t-92 -120.5t-63 -157t-23.5 -194.5t23.5 -194.5t63 -156.5t92 -120.5t109 -89t115.5 -58.5t110 -34t95 -10q140 0 305 86v-144q-24 8 -45 8q-14 0 -103 -24.5t-159 -24.5h-4l-70 -84l4 -4
q27 12 70 12q69 0 109 -46t40 -111q0 -69 -54 -114.5t-148 -45.5q-62 0 -103 8.5t-96 32.5l29 61q65 -28 121 -28q24 0 47.5 4.5t46.5 14.5t37 28.5t14 44.5q0 41 -32 59.5t-79 18.5q-39 0 -82 -15l-30 29l104 143q-86 10 -171.5 42.5t-169 95t-147 146.5t-102.5 206
t-39 264q0 154 46 284.5t120 216.5t168 146.5t188 87.5t183 27q64 0 154 -23q10 -2 35.5 -9t40 -10t26.5 -3q42 0 59 12z" />
    <glyph glyph-name="Egrave" unicode="&#xc8;" horiz-adv-x="909" 
d="M135 76v1306q0 30 -16 76h739v-115q-33 17 -76 17h-536v-586h375q42 0 75 17v-132q-33 17 -75 17h-375v-578h536q43 0 76 17v-115h-739q16 46 16 76zM324 1827h157l228 -285h-109z" />
    <glyph glyph-name="Eacute" unicode="&#xc9;" horiz-adv-x="909" 
d="M135 76v1306q0 30 -16 76h739v-115q-33 17 -76 17h-536v-586h375q42 0 75 17v-132q-33 17 -75 17h-375v-578h536q43 0 76 17v-115h-739q16 46 16 76zM522 1827h158l-277 -285h-108z" />
    <glyph glyph-name="Ecircumflex" unicode="&#xca;" horiz-adv-x="909" 
d="M135 76v1306q0 30 -16 76h739v-115q-33 17 -76 17h-536v-586h375q42 0 75 17v-132q-33 17 -75 17h-375v-578h536q43 0 76 17v-115h-739q16 46 16 76zM201 1542l231 285h139l232 -285h-133l-168 209l-168 -209h-133z" />
    <glyph glyph-name="Edieresis" unicode="&#xcb;" horiz-adv-x="909" 
d="M135 76v1306q0 30 -16 76h739v-115q-33 17 -76 17h-536v-586h375q42 0 75 17v-132q-33 17 -75 17h-375v-578h536q43 0 76 17v-115h-739q16 46 16 76zM575 1647q0 29 19.5 49t50.5 20t50.5 -20t19.5 -49q0 -30 -20 -50t-50 -20t-50 20t-20 50zM291 1647q0 30 19.5 49.5
t49.5 19.5t50 -20t20 -49q0 -30 -20 -50t-50 -20t-49.5 20t-19.5 50z" />
    <glyph glyph-name="Igrave" unicode="&#xcc;" horiz-adv-x="454" 
d="M299 0h-143q16 46 16 76v1306q0 30 -16 76h143q-16 -46 -16 -76v-1306q0 -30 16 -76zM45 1827h158l227 -285h-108z" />
    <glyph glyph-name="Iacute" unicode="&#xcd;" horiz-adv-x="454" 
d="M299 0h-143q16 46 16 76v1306q0 30 -16 76h143q-16 -46 -16 -76v-1306q0 -30 16 -76zM244 1827h157l-276 -285h-109z" />
    <glyph glyph-name="Icircumflex" unicode="&#xce;" horiz-adv-x="454" 
d="M299 0h-143q16 46 16 76v1306q0 30 -16 76h143q-16 -46 -16 -76v-1306q0 -30 16 -76zM-78 1542l232 285h139l231 -285h-133l-168 209l-168 -209h-133z" />
    <glyph glyph-name="Idieresis" unicode="&#xcf;" horiz-adv-x="454" 
d="M299 0h-143q16 46 16 76v1306q0 30 -16 76h143q-16 -46 -16 -76v-1306q0 -30 16 -76zM297 1647q0 29 19.5 49t50.5 20q30 0 49.5 -19.5t19.5 -49.5t-19.5 -50t-49.5 -20t-50 20t-20 50zM12 1647q0 29 20 49t50 20t50 -20t20 -49q0 -30 -20 -50t-50 -20t-50 20t-20 50z
" />
    <glyph glyph-name="Eth" unicode="&#xd0;" horiz-adv-x="1251" 
d="M246 684v-586h248q128 0 238.5 53t185.5 141.5t118 205.5t43 245q0 137 -47.5 257t-130.5 206.5t-200 136.5t-252 50q-103 0 -203 -43v-568h268q43 0 76 17v-131q-31 16 -76 16h-268zM135 76v608h-47q-45 0 -76 -16v114h123v676q3 0 35.5 -6t48.5 -6q17 0 107 22.5
t163 22.5q145 0 275.5 -60t223.5 -161t147.5 -240t54.5 -291q0 -175 -56.5 -317.5t-152 -233.5t-219 -139.5t-260.5 -48.5h-383q16 46 16 76z" />
    <glyph glyph-name="Ntilde" unicode="&#xd1;" horiz-adv-x="1251" 
d="M977 1458h143q-16 -46 -16 -76v-1415h-4l-840 1190h-4v-1081q0 -30 16 -76h-143q16 46 16 76v1415h5l839 -1198h4v1089q0 30 -16 76zM383 1567h-76q33 198 180 198q46 0 150 -45q108 -47 137 -47q40 0 66.5 30.5t33.5 72.5h76q-33 -199 -180 -199q-45 0 -149 45
q-108 47 -138 47q-40 0 -66.5 -30t-33.5 -72z" />
    <glyph glyph-name="Ograve" unicode="&#xd2;" horiz-adv-x="1593" 
d="M797 1491q203 0 373 -102.5t267 -277.5t97 -382t-97 -382t-267 -277.5t-373 -102.5t-373 102.5t-267.5 277.5t-97.5 382t97.5 382t267.5 277.5t373 102.5zM797 1393q-132 0 -251 -54t-204 -144t-134.5 -212t-49.5 -254t49.5 -253.5t134.5 -211.5t204 -144t251 -54t251 54
t204 144t134.5 211.5t49.5 253.5t-49.5 254t-134.5 212t-204 144t-251 54zM618 1827h158l228 -285h-109z" />
    <glyph glyph-name="Oacute" unicode="&#xd3;" horiz-adv-x="1593" 
d="M797 1491q203 0 373 -102.5t267 -277.5t97 -382t-97 -382t-267 -277.5t-373 -102.5t-373 102.5t-267.5 277.5t-97.5 382t97.5 382t267.5 277.5t373 102.5zM797 1393q-132 0 -251 -54t-204 -144t-134.5 -212t-49.5 -254t49.5 -253.5t134.5 -211.5t204 -144t251 -54t251 54
t204 144t134.5 211.5t49.5 253.5t-49.5 254t-134.5 212t-204 144t-251 54zM817 1827h158l-277 -285h-108z" />
    <glyph glyph-name="Ocircumflex" unicode="&#xd4;" horiz-adv-x="1593" 
d="M797 1491q203 0 373 -102.5t267 -277.5t97 -382t-97 -382t-267 -277.5t-373 -102.5t-373 102.5t-267.5 277.5t-97.5 382t97.5 382t267.5 277.5t373 102.5zM797 1393q-132 0 -251 -54t-204 -144t-134.5 -212t-49.5 -254t49.5 -253.5t134.5 -211.5t204 -144t251 -54t251 54
t204 144t134.5 211.5t49.5 253.5t-49.5 254t-134.5 212t-204 144t-251 54zM496 1542l231 285h139l232 -285h-133l-168 209l-168 -209h-133z" />
    <glyph glyph-name="Otilde" unicode="&#xd5;" horiz-adv-x="1593" 
d="M797 1491q203 0 373 -102.5t267 -277.5t97 -382t-97 -382t-267 -277.5t-373 -102.5t-373 102.5t-267.5 277.5t-97.5 382t97.5 382t267.5 277.5t373 102.5zM797 1393q-132 0 -251 -54t-204 -144t-134.5 -212t-49.5 -254t49.5 -253.5t134.5 -211.5t204 -144t251 -54t251 54
t204 144t134.5 211.5t49.5 253.5t-49.5 254t-134.5 212t-204 144t-251 54zM553 1567h-76q33 198 180 198q46 0 150 -45q108 -47 137 -47q40 0 66.5 30.5t33.5 72.5h76q-33 -199 -180 -199q-45 0 -149 45q-108 47 -138 47q-40 0 -66.5 -30t-33.5 -72z" />
    <glyph glyph-name="Odieresis" unicode="&#xd6;" horiz-adv-x="1593" 
d="M797 1491q203 0 373 -102.5t267 -277.5t97 -382t-97 -382t-267 -277.5t-373 -102.5t-373 102.5t-267.5 277.5t-97.5 382t97.5 382t267.5 277.5t373 102.5zM797 1393q-132 0 -251 -54t-204 -144t-134.5 -212t-49.5 -254t49.5 -253.5t134.5 -211.5t204 -144t251 -54t251 54
t204 144t134.5 211.5t49.5 253.5t-49.5 254t-134.5 212t-204 144t-251 54zM870 1647q0 29 20 49t50 20t50 -20t20 -49q0 -30 -20 -50t-50 -20t-50 20t-20 50zM586 1647q0 30 19.5 49.5t49.5 19.5q31 0 50.5 -20t19.5 -49q0 -30 -20 -50t-50 -20t-49.5 20t-19.5 50z" />
    <glyph glyph-name="multiply" unicode="&#xd7;" horiz-adv-x="1228" 
d="M541 518l-426 430l71 72l426 -430l428 432l74 -72l-428 -432l428 -430l-74 -74l-428 432l-426 -430l-71 72z" />
    <glyph glyph-name="Oslash" unicode="&#xd8;" horiz-adv-x="1593" 
d="M319 291l900 936q-86 78 -196.5 122t-225.5 44q-132 0 -251 -54t-204 -144t-134.5 -212t-49.5 -254q0 -250 161 -438zM1280 1161l-897 -934q83 -77 189.5 -119t224.5 -42q132 0 251 54t204 144t134.5 211.5t49.5 253.5q0 242 -156 432zM1450 1468h123l-223 -233
q88 -101 136 -231.5t48 -274.5q0 -207 -97 -382t-267 -277.5t-373 -102.5q-138 0 -263 49t-223 138l-172 -179h-121l232 242q-191 217 -191 512q0 207 97.5 382t267.5 277.5t373 102.5q282 0 491 -193z" />
    <glyph glyph-name="Ugrave" unicode="&#xd9;" 
d="M90 1458h143q-16 -46 -16 -76v-841q0 -107 21 -191.5t55 -136.5t81.5 -86t95 -47.5t99.5 -13.5t100 13.5t95 47.5t81.5 86t55.5 136.5t21 191.5v841q0 27 -17 76h144q-17 -49 -17 -76v-841q0 -126 -30 -227.5t-78 -164.5t-110.5 -105.5t-123 -59.5t-121.5 -17t-121.5 17
t-123 59.5t-110.5 105.5t-78 164.5t-30 227.5v841q0 30 -16 76zM391 1827h158l227 -285h-108z" />
    <glyph glyph-name="Uacute" unicode="&#xda;" 
d="M90 1458h143q-16 -46 -16 -76v-841q0 -107 21 -191.5t55 -136.5t81.5 -86t95 -47.5t99.5 -13.5t100 13.5t95 47.5t81.5 86t55.5 136.5t21 191.5v841q0 27 -17 76h144q-17 -49 -17 -76v-841q0 -126 -30 -227.5t-78 -164.5t-110.5 -105.5t-123 -59.5t-121.5 -17t-121.5 17
t-123 59.5t-110.5 105.5t-78 164.5t-30 227.5v841q0 30 -16 76zM590 1827h158l-277 -285h-109z" />
    <glyph glyph-name="Ucircumflex" unicode="&#xdb;" 
d="M90 1458h143q-16 -46 -16 -76v-841q0 -107 21 -191.5t55 -136.5t81.5 -86t95 -47.5t99.5 -13.5t100 13.5t95 47.5t81.5 86t55.5 136.5t21 191.5v841q0 27 -17 76h144q-17 -49 -17 -76v-841q0 -126 -30 -227.5t-78 -164.5t-110.5 -105.5t-123 -59.5t-121.5 -17t-121.5 17
t-123 59.5t-110.5 105.5t-78 164.5t-30 227.5v841q0 30 -16 76zM268 1542l232 285h139l231 -285h-133l-168 209l-168 -209h-133z" />
    <glyph glyph-name="Udieresis" unicode="&#xdc;" 
d="M90 1458h143q-16 -46 -16 -76v-841q0 -107 21 -191.5t55 -136.5t81.5 -86t95 -47.5t99.5 -13.5t100 13.5t95 47.5t81.5 86t55.5 136.5t21 191.5v841q0 27 -17 76h144q-17 -49 -17 -76v-841q0 -126 -30 -227.5t-78 -164.5t-110.5 -105.5t-123 -59.5t-121.5 -17t-121.5 17
t-123 59.5t-110.5 105.5t-78 164.5t-30 227.5v841q0 30 -16 76zM643 1647q0 29 19.5 49t50.5 20q30 0 49.5 -19.5t19.5 -49.5t-19.5 -50t-49.5 -20t-50 20t-20 50zM358 1647q0 29 20 49t50 20t50 -20t20 -49q0 -30 -20 -50t-50 -20t-50 20t-20 50z" />
    <glyph glyph-name="Yacute" unicode="&#xdd;" horiz-adv-x="1024" 
d="M584 0h-144q17 49 17 76v598l-455 733q-24 36 -39 51h182q-14 -21 -14 -41q0 -12 31 -63l352 -559l371 561q3 6 13.5 21t15 24t4.5 16q0 19 -15 41h178q-11 -12 -45 -61l-469 -723v-598q0 -27 17 -76zM532 1827h158l-276 -285h-109z" />
    <glyph glyph-name="Thorn" unicode="&#xde;" horiz-adv-x="1024" 
d="M141 76v1306q0 30 -16 76h143q-16 -46 -16 -76v-192q10 0 106 27.5t166 27.5q129 0 241.5 -64t179.5 -175.5t67 -243.5t-67 -243.5t-179.5 -175.5t-241.5 -64q-132 0 -272 59v-262q0 -30 16 -76h-143q16 46 16 76zM252 1081v-639q133 -65 272 -65q158 0 267.5 114
t109.5 271t-109.5 271t-267.5 114q-137 0 -272 -66z" />
    <glyph glyph-name="germandbls" unicode="&#xdf;" 
d="M106 76v930q0 97 28.5 184t81 154.5t136 107t185.5 39.5q170 0 295.5 -118.5t125.5 -287.5q0 -155 -92 -258q95 -53 151 -155.5t56 -216.5q0 -213 -135 -350.5t-338 -137.5q-32 0 -89 9.5t-69 9.5q-13 0 -34 -2.5t-31 -3.5v139q105 -62 223 -62q157 0 270 117.5
t113 278.5q0 133 -83 232.5t-212 121.5q76 28 128 102t52 160q0 140 -95 236t-234 96q-105 0 -183 -52.5t-116.5 -135.5t-38.5 -181v-1032h-111q16 46 16 76z" />
    <glyph glyph-name="agrave" unicode="&#xe0;" 
d="M1016 756v-680q0 -30 16 -76h-110v147h-4q-66 -92 -150.5 -136t-196.5 -44q-101 0 -195 40t-165.5 109.5t-114.5 170.5t-43 215q0 152 73.5 276t191.5 191t253 67q101 0 201 -45.5t180 -120.5q42 -39 80 -39q-16 -46 -16 -75zM922 297v416q-6 54 -60.5 108.5t-135.5 89.5
t-159 35q-181 0 -302.5 -129.5t-121.5 -314.5t121.5 -315t302.5 -130q115 0 219.5 67.5t135.5 172.5zM410 1389h157l228 -285h-109z" />
    <glyph glyph-name="aacute" unicode="&#xe1;" 
d="M1016 756v-680q0 -30 16 -76h-110v147h-4q-66 -92 -150.5 -136t-196.5 -44q-101 0 -195 40t-165.5 109.5t-114.5 170.5t-43 215q0 152 73.5 276t191.5 191t253 67q101 0 201 -45.5t180 -120.5q42 -39 80 -39q-16 -46 -16 -75zM922 297v416q-6 54 -60.5 108.5t-135.5 89.5
t-159 35q-181 0 -302.5 -129.5t-121.5 -314.5t121.5 -315t302.5 -130q115 0 219.5 67.5t135.5 172.5zM608 1389h158l-277 -285h-108z" />
    <glyph glyph-name="acircumflex" unicode="&#xe2;" 
d="M1016 756v-680q0 -30 16 -76h-110v147h-4q-66 -92 -150.5 -136t-196.5 -44q-101 0 -195 40t-165.5 109.5t-114.5 170.5t-43 215q0 152 73.5 276t191.5 191t253 67q101 0 201 -45.5t180 -120.5q42 -39 80 -39q-16 -46 -16 -75zM922 297v416q-6 54 -60.5 108.5t-135.5 89.5
t-159 35q-181 0 -302.5 -129.5t-121.5 -314.5t121.5 -315t302.5 -130q115 0 219.5 67.5t135.5 172.5zM287 1104l231 285h139l232 -285h-133l-168 209l-168 -209h-133z" />
    <glyph glyph-name="atilde" unicode="&#xe3;" 
d="M1016 756v-680q0 -30 16 -76h-110v147h-4q-66 -92 -150.5 -136t-196.5 -44q-101 0 -195 40t-165.5 109.5t-114.5 170.5t-43 215q0 152 73.5 276t191.5 191t253 67q101 0 201 -45.5t180 -120.5q42 -39 80 -39q-16 -46 -16 -75zM922 297v416q-6 54 -60.5 108.5t-135.5 89.5
t-159 35q-181 0 -302.5 -129.5t-121.5 -314.5t121.5 -315t302.5 -130q115 0 219.5 67.5t135.5 172.5zM344 1128h-76q33 199 181 199q45 0 149 -45q108 -47 137 -47q40 0 67 30t34 72h75q-33 -198 -180 -198q-45 0 -149 45q-108 47 -138 47q-40 0 -66.5 -30.5t-33.5 -72.5z
" />
    <glyph glyph-name="adieresis" unicode="&#xe4;" 
d="M1016 756v-680q0 -30 16 -76h-110v147h-4q-66 -92 -150.5 -136t-196.5 -44q-101 0 -195 40t-165.5 109.5t-114.5 170.5t-43 215q0 152 73.5 276t191.5 191t253 67q101 0 201 -45.5t180 -120.5q42 -39 80 -39q-16 -46 -16 -75zM922 297v416q-6 54 -60.5 108.5t-135.5 89.5
t-159 35q-181 0 -302.5 -129.5t-121.5 -314.5t121.5 -315t302.5 -130q115 0 219.5 67.5t135.5 172.5zM662 1208q0 30 19.5 50t49.5 20t50 -20t20 -50t-19.5 -49.5t-50.5 -19.5q-30 0 -49.5 19.5t-19.5 49.5zM377 1208q0 30 19.5 50t49.5 20t50 -20t20 -50t-20 -49.5
t-50 -19.5t-49.5 19.5t-19.5 49.5z" />
    <glyph glyph-name="aring" unicode="&#xe5;" 
d="M1016 756v-680q0 -30 16 -76h-110v147h-4q-66 -92 -150.5 -136t-196.5 -44q-101 0 -195 40t-165.5 109.5t-114.5 170.5t-43 215q0 152 73.5 276t191.5 191t253 67q101 0 201 -45.5t180 -120.5q42 -39 80 -39q-16 -46 -16 -75zM922 297v416q-6 54 -60.5 108.5t-135.5 89.5
t-159 35q-181 0 -302.5 -129.5t-121.5 -314.5t121.5 -315t302.5 -130q115 0 219.5 67.5t135.5 172.5zM588 1507q85 0 145 -59.5t60 -144.5t-60 -145t-145 -60t-145 60t-60 145t60 144.5t145 59.5zM588 1167q57 0 96 39.5t39 96.5t-39 96t-96 39t-96 -39t-39 -96t39 -96.5
t96 -39.5z" />
    <glyph glyph-name="ae" unicode="&#xe6;" horiz-adv-x="2048" 
d="M2011 467h-946q0 -108 60.5 -203t159.5 -151t208 -56q195 0 328 76v-149q-27 12 -68 12q-21 0 -103 -14.5t-128 -14.5q-142 0 -249 43.5t-200 145.5h-4v-80q0 -30 16 -76h-110v145h-4q-127 -178 -385 -178q-159 0 -282 72.5t-188 193.5t-65 269t65 269t188 193t282 72
q134 0 271.5 -64.5t205.5 -162.5q58 99 176 163t252 64q145 0 263.5 -73.5t187 -204t69.5 -291.5zM975 299v446q-68 92 -170 146.5t-219 54.5q-193 0 -319 -124.5t-126 -319.5t126 -320t319 -125q141 0 249 71t140 171zM1065 557h856q-31 159 -149.5 274t-278.5 115
q-166 0 -284 -112t-144 -277z" />
    <glyph glyph-name="ccedilla" unicode="&#xe7;" horiz-adv-x="909" 
d="M864 1014v-150q-67 41 -129.5 61.5t-142.5 20.5q-196 0 -325.5 -129.5t-129.5 -314.5t129.5 -315t325.5 -130q130 0 262 66v-139q-11 7 -25 10q-8 2 -30 2q-20 0 -82 -12t-107 -15l-71 -86l4 -4q27 12 69 12q69 0 109.5 -46t40.5 -111q0 -69 -54.5 -114.5t-148.5 -45.5
q-62 0 -103 8.5t-96 32.5l29 61q65 -28 121 -28q24 0 47.5 4.5t46.5 14.5t37 28.5t14 44.5q0 41 -31.5 59.5t-78.5 18.5q-39 0 -82 -15l-31 29l103 139q-130 7 -241 75.5t-179 189t-68 266.5q0 152 73.5 276t191.5 191t253 67q88 0 162 -16q70 -19 82 -19q32 0 55 13z" />
    <glyph glyph-name="egrave" unicode="&#xe8;" 
d="M1083 467h-925q39 -193 153.5 -301.5t290.5 -108.5q149 0 279 70v-139q-50 8 -70 8l-87 -14q-88 -15 -157 -15q-130 0 -245 72t-184.5 196t-69.5 267t69.5 267t184.5 195.5t245 71.5q152 0 270.5 -76t181.5 -205t64 -288zM158 557h835q-17 80 -50 148t-83 123
t-123.5 86.5t-161.5 31.5t-160.5 -31.5t-122.5 -86.5t-83 -123t-51 -148zM401 1389h158l227 -285h-108z" />
    <glyph glyph-name="eacute" unicode="&#xe9;" 
d="M1083 467h-925q39 -193 153.5 -301.5t290.5 -108.5q149 0 279 70v-139q-50 8 -70 8l-87 -14q-88 -15 -157 -15q-130 0 -245 72t-184.5 196t-69.5 267t69.5 267t184.5 195.5t245 71.5q152 0 270.5 -76t181.5 -205t64 -288zM158 557h835q-17 80 -50 148t-83 123
t-123.5 86.5t-161.5 31.5t-160.5 -31.5t-122.5 -86.5t-83 -123t-51 -148zM600 1389h158l-277 -285h-108z" />
    <glyph glyph-name="ecircumflex" unicode="&#xea;" 
d="M1083 467h-925q39 -193 153.5 -301.5t290.5 -108.5q149 0 279 70v-139q-50 8 -70 8l-87 -14q-88 -15 -157 -15q-130 0 -245 72t-184.5 196t-69.5 267t69.5 267t184.5 195.5t245 71.5q152 0 270.5 -76t181.5 -205t64 -288zM158 557h835q-17 80 -50 148t-83 123
t-123.5 86.5t-161.5 31.5t-160.5 -31.5t-122.5 -86.5t-83 -123t-51 -148zM279 1104l231 285h139l232 -285h-133l-168 209l-168 -209h-133z" />
    <glyph glyph-name="edieresis" unicode="&#xeb;" 
d="M1083 467h-925q39 -193 153.5 -301.5t290.5 -108.5q149 0 279 70v-139q-50 8 -70 8l-87 -14q-88 -15 -157 -15q-130 0 -245 72t-184.5 196t-69.5 267t69.5 267t184.5 195.5t245 71.5q152 0 270.5 -76t181.5 -205t64 -288zM158 557h835q-17 80 -50 148t-83 123
t-123.5 86.5t-161.5 31.5t-160.5 -31.5t-122.5 -86.5t-83 -123t-51 -148zM653 1208q0 30 20 50t50 20t50 -20t20 -50t-19.5 -49.5t-50.5 -19.5t-50.5 19.5t-19.5 49.5zM369 1208q0 30 19.5 50t49.5 20t50 -20t20 -50t-20 -49.5t-50 -19.5t-49.5 19.5t-19.5 49.5z" />
    <glyph glyph-name="igrave" unicode="&#xec;" horiz-adv-x="454" 
d="M274 1004v-928q0 -27 17 -76h-127q16 46 16 76v852q0 30 -16 76h110zM49 1389h158l227 -285h-108z" />
    <glyph glyph-name="iacute" unicode="&#xed;" horiz-adv-x="454" 
d="M274 1004v-928q0 -27 17 -76h-127q16 46 16 76v852q0 30 -16 76h110zM248 1389h158l-277 -285h-109z" />
    <glyph glyph-name="icircumflex" unicode="&#xee;" horiz-adv-x="454" 
d="M274 1004v-928q0 -27 17 -76h-127q16 46 16 76v852q0 30 -16 76h110zM-74 1104l232 285h139l231 -285h-133l-168 209l-168 -209h-133z" />
    <glyph glyph-name="idieresis" unicode="&#xef;" horiz-adv-x="454" 
d="M274 1004v-928q0 -27 17 -76h-127q16 46 16 76v852q0 30 -16 76h110zM301 1208q0 30 20 50t50 20t49.5 -20t19.5 -50t-19.5 -49.5t-49.5 -19.5q-31 0 -50.5 19.5t-19.5 49.5zM16 1208q0 30 20 50t50 20t50 -20t20 -50t-20 -49.5t-50 -19.5t-50 19.5t-20 49.5z" />
    <glyph glyph-name="eth" unicode="&#xf0;" 
d="M133 502q0 -183 126.5 -314t309.5 -131t310 131t127 314t-127 313.5t-310 130.5t-309.5 -130.5t-126.5 -313.5zM389 1430l84 28q117 -103 148 -133l286 133l43 -78l-262 -123q408 -400 408 -755q0 -147 -69 -269.5t-190 -194t-268 -71.5t-268 71.5t-189.5 194
t-68.5 269.5t68.5 269.5t189.5 193.5t268 71q135 0 230 -57l4 4q-84 124 -191 240l-274 -129l-43 80l250 116q-83 83 -156 140z" />
    <glyph glyph-name="ntilde" unicode="&#xf1;" 
d="M219 752v-676q0 -27 17 -76h-127q16 46 16 76v653q0 30 -16 76q8 1 18.5 7t17 11t19.5 16t18 15q52 43 71 59t63.5 47t74 42.5t75 22.5t93.5 11q204 0 329.5 -127t125.5 -340v-493q0 -30 16 -76h-127q17 49 17 76v493q0 160 -97.5 266.5t-261.5 106.5q-90 0 -190 -56.5
t-152 -133.5zM311 1128h-75q33 199 180 199q45 0 149 -45q108 -47 137 -47q40 0 67 30t34 72h76q-33 -198 -181 -198q-45 0 -149 45q-108 47 -137 47q-40 0 -67 -30.5t-34 -72.5z" />
    <glyph glyph-name="ograve" unicode="&#xf2;" 
d="M569 57q183 0 310 131t127 314t-127 313.5t-310 130.5t-309.5 -130.5t-126.5 -313.5t126.5 -314t309.5 -131zM569 -33q-147 0 -268 71.5t-189.5 194t-68.5 269.5t68.5 269.5t189.5 193.5t268 71t268 -71t190 -193.5t69 -269.5t-69 -269.5t-190 -194t-268 -71.5zM381 1389
h158l227 -285h-109z" />
    <glyph glyph-name="oacute" unicode="&#xf3;" 
d="M569 57q183 0 310 131t127 314t-127 313.5t-310 130.5t-309.5 -130.5t-126.5 -313.5t126.5 -314t309.5 -131zM569 -33q-147 0 -268 71.5t-189.5 194t-68.5 269.5t68.5 269.5t189.5 193.5t268 71t268 -71t190 -193.5t69 -269.5t-69 -269.5t-190 -194t-268 -71.5zM580 1389
h157l-276 -285h-109z" />
    <glyph glyph-name="ocircumflex" unicode="&#xf4;" 
d="M569 57q183 0 310 131t127 314t-127 313.5t-310 130.5t-309.5 -130.5t-126.5 -313.5t126.5 -314t309.5 -131zM569 -33q-147 0 -268 71.5t-189.5 194t-68.5 269.5t68.5 269.5t189.5 193.5t268 71t268 -71t190 -193.5t69 -269.5t-69 -269.5t-190 -194t-268 -71.5zM258 1104
l231 285h140l231 -285h-133l-168 209l-168 -209h-133z" />
    <glyph glyph-name="otilde" unicode="&#xf5;" 
d="M569 57q183 0 310 131t127 314t-127 313.5t-310 130.5t-309.5 -130.5t-126.5 -313.5t126.5 -314t309.5 -131zM569 -33q-147 0 -268 71.5t-189.5 194t-68.5 269.5t68.5 269.5t189.5 193.5t268 71t268 -71t190 -193.5t69 -269.5t-69 -269.5t-190 -194t-268 -71.5zM315 1128
h-75q33 199 180 199q45 0 149 -45q108 -47 138 -47q40 0 66.5 30t33.5 72h76q-33 -198 -181 -198q-45 0 -149 45q-108 47 -137 47q-40 0 -67 -30.5t-34 -72.5z" />
    <glyph glyph-name="odieresis" unicode="&#xf6;" 
d="M569 57q183 0 310 131t127 314t-127 313.5t-310 130.5t-309.5 -130.5t-126.5 -313.5t126.5 -314t309.5 -131zM569 -33q-147 0 -268 71.5t-189.5 194t-68.5 269.5t68.5 269.5t189.5 193.5t268 71t268 -71t190 -193.5t69 -269.5t-69 -269.5t-190 -194t-268 -71.5zM633 1208
q0 30 19.5 50t49.5 20t50 -20t20 -50t-20 -49.5t-50 -19.5t-49.5 19.5t-19.5 49.5zM348 1208q0 30 20 50t50 20t49.5 -20t19.5 -50t-19.5 -49.5t-49.5 -19.5t-50 19.5t-20 49.5z" />
    <glyph glyph-name="divide" unicode="&#xf7;" horiz-adv-x="1228" 
d="M1114 449h-999v106h999v-106zM614 1036q49 0 82 -33t33 -81t-33 -81.5t-82 -33.5t-81.5 33.5t-32.5 81.5t32.5 81t81.5 33zM614 197q49 0 82 -33.5t33 -81.5t-33 -81.5t-82 -33.5t-81.5 33.5t-32.5 81.5t32.5 81.5t81.5 33.5z" />
    <glyph glyph-name="oslash" unicode="&#xf8;" 
d="M885 809l-584 -655q53 -47 124 -72t144 -25q183 0 310 131t127 314q0 179 -121 307zM242 211l579 655q-118 80 -252 80q-183 0 -309.5 -130.5t-126.5 -313.5q0 -166 109 -291zM1008 1077h114l-176 -198q150 -160 150 -377q0 -147 -69 -269.5t-190 -194t-268 -71.5
q-190 0 -329 117l-138 -156h-112l188 213q-135 150 -135 361q0 147 68.5 269.5t189.5 193.5t268 71q167 0 314 -102z" />
    <glyph glyph-name="ugrave" unicode="&#xf9;" 
d="M920 252v676q0 27 -17 76h127q-16 -46 -16 -76v-654q0 -29 16 -75q-7 -1 -14 -4.5t-15.5 -9t-14 -10t-15.5 -13t-15 -12.5q-110 -92 -157 -121q-101 -62 -219 -62q-204 0 -329.5 127t-125.5 340v494q0 30 -16 76h127q-17 -49 -17 -76v-494q0 -160 97.5 -266.5
t261.5 -106.5q90 0 190 57t152 134zM377 1389h158l227 -285h-109z" />
    <glyph glyph-name="uacute" unicode="&#xfa;" 
d="M920 252v676q0 27 -17 76h127q-16 -46 -16 -76v-654q0 -29 16 -75q-7 -1 -14 -4.5t-15.5 -9t-14 -10t-15.5 -13t-15 -12.5q-110 -92 -157 -121q-101 -62 -219 -62q-204 0 -329.5 127t-125.5 340v494q0 30 -16 76h127q-17 -49 -17 -76v-494q0 -160 97.5 -266.5
t261.5 -106.5q90 0 190 57t152 134zM575 1389h158l-276 -285h-109z" />
    <glyph glyph-name="ucircumflex" unicode="&#xfb;" 
d="M920 252v676q0 27 -17 76h127q-16 -46 -16 -76v-654q0 -29 16 -75q-7 -1 -14 -4.5t-15.5 -9t-14 -10t-15.5 -13t-15 -12.5q-110 -92 -157 -121q-101 -62 -219 -62q-204 0 -329.5 127t-125.5 340v494q0 30 -16 76h127q-17 -49 -17 -76v-494q0 -160 97.5 -266.5
t261.5 -106.5q90 0 190 57t152 134zM254 1104l231 285h140l231 -285h-133l-168 209l-168 -209h-133z" />
    <glyph glyph-name="udieresis" unicode="&#xfc;" 
d="M920 252v676q0 27 -17 76h127q-16 -46 -16 -76v-654q0 -29 16 -75q-7 -1 -14 -4.5t-15.5 -9t-14 -10t-15.5 -13t-15 -12.5q-110 -92 -157 -121q-101 -62 -219 -62q-204 0 -329.5 127t-125.5 340v494q0 30 -16 76h127q-17 -49 -17 -76v-494q0 -160 97.5 -266.5
t261.5 -106.5q90 0 190 57t152 134zM629 1208q0 30 19.5 50t49.5 20t50 -20t20 -50t-20 -49.5t-50 -19.5t-49.5 19.5t-19.5 49.5zM344 1208q0 30 20 50t50 20t49.5 -20t19.5 -50t-19.5 -49.5t-49.5 -19.5t-50 19.5t-20 49.5z" />
    <glyph glyph-name="yacute" unicode="&#xfd;" horiz-adv-x="909" 
d="M184 -369l209 441l-403 874q-16 36 -35 58h151q-10 -20 -10 -35q0 -4 2.5 -9l6 -12t4.5 -10l348 -754l354 750q12 24 12 35q0 15 -10 35h158q-34 -48 -45 -72l-623 -1282q-16 -36 -16 -58q0 -14 10 -34h-156q5 9 20.5 34t22.5 39zM475 1389h158l-277 -285h-108z" />
    <glyph glyph-name="thorn" unicode="&#xfe;" 
d="M106 -367v1749q0 30 -16 76h111v-581h4q71 76 161 117.5t220 41.5q218 0 359.5 -151.5t141.5 -380.5q0 -158 -72.5 -282t-192 -189.5t-263.5 -65.5q-96 0 -199.5 44.5t-158.5 105.5v-484q0 -29 16 -75h-127q16 46 16 75zM201 754v-504q66 -87 162.5 -140t195.5 -53
q186 0 312 127.5t126 317.5t-126 317t-312 127q-99 0 -195.5 -53t-162.5 -139z" />
    <glyph glyph-name="ydieresis" unicode="&#xff;" horiz-adv-x="909" 
d="M184 -369l209 441l-403 874q-16 36 -35 58h151q-10 -20 -10 -35q0 -4 2.5 -9l6 -12t4.5 -10l348 -754l354 750q12 24 12 35q0 15 -10 35h158q-34 -48 -45 -72l-623 -1282q-16 -36 -16 -58q0 -14 10 -34h-156q5 9 20.5 34t22.5 39zM528 1208q0 30 20 50t50 20t50 -20
t20 -50t-20 -49.5t-50 -19.5t-50 19.5t-20 49.5zM244 1208q0 30 19.5 50t49.5 20t50 -20t20 -50t-19.5 -49.5t-50.5 -19.5q-30 0 -49.5 19.5t-19.5 49.5z" />
    <glyph glyph-name="dotlessi" unicode="&#x131;" horiz-adv-x="454" 
d="M274 1004v-928q0 -27 17 -76h-127q16 46 16 76v852q0 30 -16 76h110z" />
    <glyph glyph-name="Lslash" unicode="&#x141;" horiz-adv-x="909" 
d="M252 1382v-530l231 115v-99l-231 -114v-656h536q43 0 76 17v-115h-739q16 46 16 76v622l-157 -77v98l157 78v585q0 30 -16 76h143q-16 -46 -16 -76z" />
    <glyph glyph-name="lslash" unicode="&#x142;" horiz-adv-x="454" 
d="M274 1458v-590l152 97v-88l-152 -97v-704q0 -27 17 -76h-127q16 46 16 76v643l-143 -92v88l143 92v575q0 30 -16 76h110z" />
    <glyph glyph-name="OE" unicode="&#x152;" horiz-adv-x="2048" 
d="M1430 98h518q42 0 75 17v-115h-708q16 46 16 76v219h-8q-99 -151 -245.5 -239.5t-334.5 -88.5q-143 0 -272 60t-221.5 161.5t-146.5 243t-54 297.5t54 297.5t146.5 243t221.5 161.5t272 60q191 0 348.5 -96t235.5 -258h4v245q0 30 -16 76h708v-115q-33 17 -75 17h-518
v-586h356q43 0 76 17v-132q-33 17 -76 17h-356v-578zM1331 729q0 193 -69.5 342.5t-204 235.5t-314.5 86q-170 0 -308 -94t-213 -245.5t-75 -324.5t75 -324.5t213 -245t308 -93.5q180 0 314.5 85.5t204 235t69.5 342.5z" />
    <glyph glyph-name="oe" unicode="&#x153;" horiz-adv-x="2048" 
d="M2007 467h-954q4 -73 32.5 -139t72.5 -114.5t99.5 -84.5t115 -54t116.5 -18q153 0 299 76v-149q-21 12 -64 12q-12 0 -109.5 -14.5t-150.5 -14.5q-66 0 -138 20.5t-138.5 57t-117.5 95.5t-69 128h-4q-47 -136 -177 -218.5t-290 -82.5q-213 0 -354 145.5t-141 389.5
q0 149 63 271t176.5 192.5t255.5 70.5q180 0 304 -88.5t170 -220.5h4q27 90 101.5 162t170 109.5t190.5 37.5q83 0 161 -22t146.5 -69t119.5 -113t80.5 -160t29.5 -205zM963 502q0 117 -56 219t-156 163.5t-221 61.5q-174 0 -289.5 -130t-115.5 -314q0 -185 115.5 -315
t289.5 -130q121 0 221 62t156 164t56 219zM1053 557h864q-5 69 -37.5 137.5t-87 125t-135 91.5t-172.5 35t-172.5 -35t-135 -91.5t-87 -125t-37.5 -137.5z" />
    <glyph glyph-name="Scaron" unicode="&#x160;" horiz-adv-x="796" 
d="M41 -12v162q48 -39 122 -61.5t142 -22.5q151 0 251.5 98.5t100.5 247.5q0 88 -33.5 158t-86.5 116t-117.5 85.5t-129 78t-117.5 81.5t-86.5 107t-33.5 144q0 138 90.5 223.5t227.5 85.5q53 0 115.5 -19.5t80.5 -19.5q28 0 43 6v-139q-123 74 -237 74q-94 0 -157.5 -62
t-63.5 -157q0 -60 33.5 -107.5t86.5 -82t117.5 -68.5t129 -78t117.5 -98.5t86.5 -142t33.5 -198.5q0 -191 -128 -311.5t-321 -120.5q-48 0 -110 17q-62 16 -95 16q-31 0 -61 -12zM700 1827l-231 -285h-139l-232 285h133l168 -209l168 209h133z" />
    <glyph glyph-name="scaron" unicode="&#x161;" horiz-adv-x="681" 
d="M541 1030v-145q-115 61 -203 61q-86 0 -134 -47t-48 -131q-1 -44 25.5 -78t69 -56.5t94.5 -44.5t104 -49t95 -62t70 -92t27 -130q0 -119 -96.5 -204t-231.5 -85q-69 0 -133 20.5t-71 20.5q-41 0 -68 -12v147q56 -36 125.5 -61t126.5 -25q65 0 121 19.5t96.5 66.5
t40.5 115q0 51 -26.5 91.5t-69 67.5t-94.5 51.5t-103.5 51.5t-94.5 59.5t-70 84t-27 116.5q0 112 79.5 184t186.5 72q30 0 81 -9t60 -9q41 0 68 12zM643 1389l-231 -285h-140l-231 285h133l168 -209l168 209h133z" />
    <glyph glyph-name="Ydieresis" unicode="&#x178;" horiz-adv-x="1024" 
d="M584 0h-144q17 49 17 76v598l-455 733q-24 36 -39 51h182q-14 -21 -14 -41q0 -12 31 -63l352 -559l371 561q3 6 13.5 21t15 24t4.5 16q0 19 -15 41h178q-11 -12 -45 -61l-469 -723v-598q0 -27 17 -76zM586 1647q0 30 19.5 49.5t49.5 19.5q31 0 50.5 -20t19.5 -49
q0 -30 -20 -50t-50 -20t-49.5 20t-19.5 50zM301 1647q0 29 19.5 49t50.5 20q30 0 49.5 -19.5t19.5 -49.5t-19.5 -50t-49.5 -20t-50 20t-20 50z" />
    <glyph glyph-name="Zcaron" unicode="&#x17d;" horiz-adv-x="1024" 
d="M147 1458h797v-4l-719 -1352v-4h672q43 0 76 17v-115h-922v4l723 1352v4h-551q-43 0 -76 -17v115zM813 1827l-231 -285h-140l-231 285h133l168 -209l168 209h133z" />
    <glyph glyph-name="zcaron" unicode="&#x17e;" horiz-adv-x="909" 
d="M883 106v-106h-858v4l645 905h-447q-43 0 -86 -12v107h733v-5l-649 -905h576q43 0 86 12zM756 1389l-232 -285h-139l-231 285h133l168 -209l168 209h133z" />
    <glyph glyph-name="florin" unicode="&#x192;" 
d="M713 862h305v-119q-52 21 -107 21h-211l-122 -750q-32 -199 -157 -327.5t-319 -128.5q-54 0 -96 -11v117q50 -8 98 -8q53 0 98.5 12t81 36t63.5 53.5t50 72t38 83.5t29.5 96.5t22 102t17.5 107.5l84 545h-205q-55 0 -107 -21v119h324l43 234q37 202 147 298.5t306 96.5
q38 0 57 8v-121q-47 15 -82 15q-76 0 -136 -26.5t-98.5 -73t-62 -103.5t-33.5 -125z" />
    <glyph glyph-name="circumflex" unicode="&#x2c6;" horiz-adv-x="454" 
d="M-74 1104l232 285h139l231 -285h-133l-168 209l-168 -209h-133z" />
    <glyph glyph-name="caron" unicode="&#x2c7;" horiz-adv-x="454" 
d="M528 1389l-231 -285h-139l-232 285h133l168 -209l168 209h133z" />
    <glyph glyph-name="breve" unicode="&#x2d8;" horiz-adv-x="454" 
d="M-63 1374h77q38 -166 217 -166q180 0 218 166h77q-26 -127 -102 -193.5t-193 -66.5q-139 0 -212 69.5t-82 190.5z" />
    <glyph glyph-name="dotaccent" unicode="&#x2d9;" horiz-adv-x="454" 
d="M160 1208q0 30 19.5 50t49.5 20t50 -20t20 -50t-19.5 -49.5t-50.5 -19.5q-30 0 -49.5 19.5t-19.5 49.5z" />
    <glyph glyph-name="ring" unicode="&#x2da;" horiz-adv-x="454" 
d="M227 1507q85 0 145 -59.5t60 -144.5t-60 -145t-145 -60t-144.5 60t-59.5 145t59.5 144.5t144.5 59.5zM227 1167q57 0 96 39.5t39 96.5t-39 96t-96 39t-96 -39t-39 -96t39 -96.5t96 -39.5z" />
    <glyph glyph-name="ogonek" unicode="&#x2db;" horiz-adv-x="454" 
d="M494 -276l22 -62q-88 -88 -244 -88q-64 0 -112.5 41t-48.5 117q0 37 14.5 69.5t33.5 55.5t54 44.5t61 34.5t69 27t63.5 19.5t58.5 14.5l12 3v-18q-42 -17 -66 -27.5t-66.5 -34t-66 -45.5t-42.5 -56.5t-19 -72.5q0 -51 28 -74.5t70 -23.5q78 0 179 76z" />
    <glyph glyph-name="tilde" unicode="&#x2dc;" horiz-adv-x="454" 
d="M-16 1128h-76q33 199 180 199q46 0 150 -45q108 -47 137 -47q40 0 66.5 30t33.5 72h76q-33 -198 -180 -198q-46 0 -150 45q-108 47 -137 47q-40 0 -66.5 -30.5t-33.5 -72.5z" />
    <glyph glyph-name="hungarumlaut" unicode="&#x2dd;" horiz-adv-x="454" 
d="M141 1104h-102l131 285h158zM432 1104h-102l131 285h157z" />
    <glyph glyph-name="endash" unicode="&#x2013;" horiz-adv-x="1024" 
d="M0 465v74h1024v-74h-1024z" />
    <glyph glyph-name="emdash" unicode="&#x2014;" horiz-adv-x="2048" 
d="M0 539h2048v-74h-2048v74z" />
    <glyph glyph-name="quoteleft" unicode="&#x2018;" horiz-adv-x="454" 
d="M260 1120l-143 338h129q-10 -13 -10 -26q0 -11 8 -35l92 -320h-74q0 3 1 9.5t1 9.5q0 8 -4 24z" />
    <glyph glyph-name="quoteright" unicode="&#x2019;" horiz-adv-x="454" 
d="M338 1458l-143 -338q-5 -20 -5 -24q0 -3 1.5 -9.5t1.5 -9.5h-74l92 320q8 24 8 35q0 13 -10 26h129z" />
    <glyph glyph-name="quotesinglbase" unicode="&#x201a;" horiz-adv-x="454" 
d="M338 94l-143 -338q-5 -20 -5 -24q0 -3 1.5 -9.5t1.5 -9.5h-74l92 320q8 24 8 35q0 13 -10 26h129z" />
    <glyph glyph-name="quotedblleft" unicode="&#x201c;" horiz-adv-x="796" 
d="M602 1120l-143 338h129q-10 -13 -10 -26q0 -11 8 -35l92 -320h-74q0 3 1 9.5t1 9.5q0 8 -4 24zM260 1120l-143 338h129q-10 -13 -10 -26q0 -11 8 -35l92 -320h-74q0 3 1 9.5t1 9.5q0 8 -4 24z" />
    <glyph glyph-name="quotedblright" unicode="&#x201d;" horiz-adv-x="796" 
d="M680 1458l-143 -338q-5 -20 -5 -24q0 -3 1.5 -9.5t1.5 -9.5h-74l92 320q8 24 8 35q0 13 -10 26h129zM338 1458l-143 -338q-5 -20 -5 -24q0 -3 1.5 -9.5t1.5 -9.5h-74l92 320q8 24 8 35q0 13 -10 26h129z" />
    <glyph glyph-name="quotedblbase" unicode="&#x201e;" horiz-adv-x="796" 
d="M680 94l-143 -338q-5 -20 -5 -24q0 -3 1.5 -9.5t1.5 -9.5h-74l92 320q8 24 8 35q0 13 -10 26h129zM338 94l-143 -338q-5 -20 -5 -24q0 -3 1.5 -9.5t1.5 -9.5h-74l92 320q8 24 8 35q0 13 -10 26h129z" />
    <glyph glyph-name="dagger" unicode="&#x2020;" 
d="M616 987h244q114 0 197 25v-127q-80 24 -197 24h-244v-1069q0 -106 21 -192h-135q20 82 20 192v1069h-243q-117 0 -197 -24v127q83 -25 197 -25h243v346q0 84 -14 125h123q-15 -44 -15 -125v-346z" />
    <glyph glyph-name="daggerdbl" unicode="&#x2021;" 
d="M508 1458h123q-15 -44 -15 -125v-346h244q114 0 197 25v-127q-80 24 -197 24h-244v-745h244q118 0 197 24v-127q-83 25 -197 25h-244v-246q0 -106 21 -192h-135q20 82 20 192v246h-243q-114 0 -197 -25v127q80 -24 197 -24h243v745h-243q-117 0 -197 -24v127
q83 -25 197 -25h243v346q0 84 -14 125z" />
    <glyph glyph-name="bullet" unicode="&#x2022;" horiz-adv-x="1024" 
d="M154 717q0 153 103.5 255.5t254.5 102.5t254.5 -102.5t103.5 -255.5t-103.5 -256t-254.5 -103t-254.5 103t-103.5 256z" />
    <glyph glyph-name="ellipsis" unicode="&#x2026;" horiz-adv-x="2048" 
d="M272 70q0 30 20 49.5t50 19.5t50 -19.5t20 -49.5t-20 -50t-50 -20t-50 20t-20 50zM954 70q0 30 20 49.5t50 19.5t50 -19.5t20 -49.5t-20 -50t-50 -20t-50 20t-20 50zM1636 70q0 30 20 49.5t50 19.5t50 -19.5t20 -49.5t-20 -50t-50 -20t-50 20t-20 50z" />
    <glyph glyph-name="perthousand" unicode="&#x2030;" horiz-adv-x="2048" 
d="M1722 614q136 0 231 -94.5t95 -228.5t-95 -229t-231 -95t-230.5 95t-94.5 229t94.5 228.5t230.5 94.5zM1722 528q-100 0 -169.5 -69.5t-69.5 -167.5q0 -99 69.5 -168.5t169.5 -69.5t170 70t70 168t-70 167.5t-170 69.5zM1079 1436l-743 -1381q-14 -24 -14 -45
q0 -15 4 -43h-146q19 16 37 49l762 1401q8 16 8 37q0 24 -8 37h141q-27 -27 -41 -55zM971 614q136 0 230.5 -94.5t94.5 -228.5t-94.5 -229t-230.5 -95t-231 95t-95 229t95 228.5t231 94.5zM971 528q-100 0 -170 -69.5t-70 -167.5t70 -168t170 -70q99 0 169 69.5t70 168.5
q0 98 -69.5 167.5t-169.5 69.5zM348 1491q136 0 231 -95t95 -229t-95 -228.5t-231 -94.5t-230.5 94.5t-94.5 228.5t94.5 229t230.5 95zM348 1405q-100 0 -169.5 -69.5t-69.5 -168.5q0 -98 69.5 -167.5t169.5 -69.5t170 69.5t70 167.5t-70 168t-170 70z" />
    <glyph glyph-name="guilsinglleft" unicode="&#x2039;" horiz-adv-x="681" 
d="M154 502l254 315h120l-254 -315l254 -316h-120z" />
    <glyph glyph-name="guilsinglright" unicode="&#x203a;" horiz-adv-x="681" 
d="M274 817l254 -315l-254 -316h-120l254 316l-254 315h120z" />
    <glyph glyph-name="fraction" unicode="&#x2044;" horiz-adv-x="342" 
d="M541 1491h141q-27 -27 -41 -55l-827 -1381q-15 -26 -15 -45q0 -15 4 -43h-145q19 16 37 49l846 1401q8 16 8 37q0 24 -8 37z" />
    <glyph glyph-name="trademark" unicode="&#x2122;" horiz-adv-x="2027" 
d="M166 1458h655v-94h-274v-750h-107v750h-274v94zM1862 1458v-844h-107v750h-4l-305 -750h-62l-305 750h-4v-750h-106v844h178l272 -684l264 684h179z" />
    <glyph glyph-name="minus" unicode="&#x2212;" horiz-adv-x="1228" 
d="M1114 449h-999v106h999v-106z" />
    <glyph glyph-name="fi" unicode="&#xfb01;" horiz-adv-x="1024" 
d="M569 1004v-107q-43 12 -86 12h-211v-833q0 -27 17 -76h-127q16 46 16 76v833h-90q-23 0 -47 -8v103h137v104q0 75 25.5 137t63.5 100t84.5 64.5t86 37.5t70.5 11q40 0 67 12v-118q-27 12 -67 12q-105 0 -170.5 -76t-65.5 -196v-88h297zM803 1300q29 0 48 -19.5t19 -47.5
q0 -29 -19 -48.5t-48 -19.5q-28 0 -48 19.5t-20 48.5q0 28 20 47.5t48 19.5zM850 1004v-928q0 -30 16 -76h-127q17 49 17 76v852q0 27 -17 76h111z" />
    <glyph glyph-name="fl" unicode="&#xfb02;" horiz-adv-x="1024" 
d="M569 1004v-107q-43 12 -86 12h-211v-833q0 -27 17 -76h-127q16 46 16 76v833h-90q-23 0 -47 -8v103h137v104q0 75 25.5 137t63.5 100t84.5 64.5t86 37.5t70.5 11q40 0 67 12v-118q-27 12 -67 12q-105 0 -170.5 -76t-65.5 -196v-88h297zM850 1458v-1382q0 -30 16 -76h-127
q17 49 17 76v1306q0 27 -17 76h111z" />
    </font>
</defs>
</svg>
