<?xml version="1.0" standalone="no"?>
<!DOCTYPE svg PUBLIC "-//W3C//DTD SVG 20010904//EN"
 "http://www.w3.org/TR/2001/REC-SVG-20010904/DTD/svg10.dtd">
<svg version="1.0" xmlns="http://www.w3.org/2000/svg"
 width="150.000000pt" height="150.000000pt" viewBox="0 0 150.000000 150.000000"
 preserveAspectRatio="xMidYMid meet">
<metadata>
Created by potrace 1.11, written by Peter Selinger 2001-2013
</metadata>
<g transform="translate(0.000000,150.000000) scale(0.100000,-0.100000)"
fill="#000000" stroke="none">
<path d="M78 1182 c-22 -4 -20 11 -23 -211 -2 -157 -5 -185 -19 -193 -21 -12
-21 -44 1 -56 14 -8 16 -29 16 -142 1 -113 -2 -134 -16 -145 -23 -16 -21 -47
3 -68 11 -9 20 -23 20 -31 0 -33 55 -26 64 8 5 22 8 23 148 21 165 -2 161 -2
153 -16 -9 -14 24 -37 46 -32 9 3 20 15 23 28 3 12 15 25 26 28 28 7 28 57 0
64 -11 3 -20 10 -21 17 0 6 -1 63 -1 128 -1 114 -1 117 26 140 25 22 26 24 11
46 -9 12 -23 22 -31 22 -8 0 -13 4 -9 9 7 12 -22 41 -40 41 -16 0 -38 -34 -28
-44 8 -7 3 -8 -164 -10 -83 0 -133 3 -134 9 0 6 -2 91 -3 190 -2 99 -4 183 -5
186 -2 10 -24 16 -43 11z m337 -471 c7 -1 11 -50 10 -136 l0 -135 -150 2 -149
3 -1 130 c0 130 0 130 24 135 20 4 227 5 266 1z"/>
<path d="M649 819 c-4 -9 -6 -19 -3 -21 3 -3 -6 -8 -20 -12 -32 -8 -45 -45
-21 -62 10 -8 22 -11 26 -8 12 7 11 17 13 -199 1 -153 4 -190 16 -197 19 -12
21 -12 40 0 12 8 15 41 16 195 0 102 4 188 7 192 4 3 67 7 139 7 l133 0 1
-129 c1 -113 -1 -133 -17 -150 -21 -23 -16 -65 8 -65 8 0 12 -4 8 -10 -7 -11
29 -50 46 -50 6 0 16 13 21 28 l11 29 195 0 c175 0 197 2 208 18 9 13 10 23 3
36 -9 18 -25 19 -209 19 l-200 0 0 134 c0 123 2 135 19 141 10 3 21 15 24 26
5 19 -15 49 -34 49 -5 0 -9 6 -9 14 0 21 -27 38 -50 31 -11 -3 -20 -15 -20
-26 0 -21 8 -20 -153 -22 -111 -2 -137 4 -137 32 0 24 -48 24 -61 0z"/>
</g>
</svg>
