<svg width="110" height="40" viewBox="0 0 110 40" fill="none" xmlns="http://www.w3.org/2000/svg"><path d="M35.92 15.465c0-2.583.789-4.691 2.368-6.324 1.579-1.632 3.605-2.448 6.08-2.448 2.11 0 3.904.586 5.38 1.759 1.475 1.173 2.387 2.758 2.736 4.754h-3.07c-.285-1.172-.876-2.091-1.773-2.757-.896-.666-1.987-.999-3.272-.999-1.682 0-3.003.543-3.963 1.629-.96 1.085-1.44 2.547-1.44 4.386 0 1.838.48 3.304 1.44 4.398.96 1.093 2.28 1.64 3.963 1.64 1.285 0 2.376-.333 3.272-.998.897-.666 1.488-1.585 1.773-2.758h3.07c-.349 1.997-1.26 3.582-2.736 4.754-1.476 1.173-3.27 1.76-5.38 1.76-2.475 0-4.502-.817-6.08-2.45-1.58-1.631-2.368-3.747-2.368-6.346zm26.898 2.662l-3.285.5c-1.539.237-2.308.824-2.308 1.759 0 1.077.73 1.616 2.19 1.616 1.094 0 1.935-.293 2.522-.88.587-.586.88-1.323.88-2.21v-.785zm-3.975 6.086c-1.46 0-2.547-.34-3.26-1.022-.715-.682-1.072-1.585-1.072-2.71 0-2.156 1.58-3.455 4.737-3.899l3.57-.5v-.19c0-1.505-.88-2.258-2.642-2.258-1.54 0-2.412.61-2.618 1.83h-2.76c.126-1.204.63-2.198 1.51-2.983.881-.784 2.194-1.176 3.94-1.176 1.76 0 3.09.404 3.986 1.212.896.808 1.345 1.941 1.345 3.4v5.681c0 .998.119 1.775.357 2.33h-2.69c-.016 0-.036-.06-.06-.179a6.005 6.005 0 01-.07-.582 9.74 9.74 0 01-.036-.856c-.841 1.268-2.253 1.902-4.237 1.902zm13.023-.285h-2.832V6.098h2.832v17.83zm14.903-5.349h-9.401c.11.982.468 1.763 1.07 2.341.604.579 1.397.868 2.38.868.651 0 1.239-.158 1.762-.475a2.66 2.66 0 001.118-1.284h2.857a5.757 5.757 0 01-2.13 3.031c-1.04.769-2.266 1.153-3.678 1.153-1.84 0-3.328-.61-4.462-1.83-1.135-1.22-1.702-2.766-1.702-4.636 0-1.823.57-3.352 1.714-4.588 1.142-1.236 2.618-1.854 4.426-1.854 1.81 0 3.273.606 4.392 1.818 1.118 1.213 1.677 2.738 1.677 4.576l-.023.88zm-6.046-4.968c-.888 0-1.626.261-2.213.784-.587.523-.952 1.22-1.095 2.092h6.57c-.128-.872-.477-1.569-1.048-2.092-.571-.523-1.31-.784-2.214-.784zm14.308 7.797v2.448c-.349.095-.84.143-1.475.143-2.412 0-3.618-1.212-3.618-3.637v-6.514h-1.88V11.59h1.88V8.38h2.832v3.21h2.31v2.258h-2.31v6.229c0 .966.46 1.45 1.38 1.45l.881-.12zm10.024-3.28l-3.284.498c-1.539.238-2.31.825-2.31 1.76 0 1.077.731 1.616 2.19 1.616 1.096 0 1.937-.293 2.523-.88.588-.586.881-1.323.881-2.21v-.785zm-3.975 6.085c-1.459 0-2.546-.34-3.26-1.022-.714-.682-1.071-1.585-1.071-2.71 0-2.156 1.579-3.455 4.736-3.899l3.57-.5v-.19c0-1.505-.881-2.258-2.641-2.258-1.54 0-2.412.61-2.619 1.83h-2.76c.126-1.204.63-2.198 1.511-2.983.88-.784 2.193-1.176 3.939-1.176 1.761 0 3.09.404 3.986 1.212.897.808 1.345 1.941 1.345 3.4v5.681c0 .998.119 1.775.357 2.33h-2.689c-.016 0-.036-.06-.06-.179a6.07 6.07 0 01-.071-.582 9.66 9.66 0 01-.036-.856c-.841 1.268-2.253 1.902-4.237 1.902z" fill="#0A1070"/><g opacity=".8"><mask id="a" maskUnits="userSpaceOnUse" x="37" y="28" width="73" height="8"><path opacity=".8" d="M37.817 28.169H110V36H37.817v-7.831z" fill="#fff"/></mask><g mask="url(#a)"><path opacity=".8" clip-rule="evenodd" d="M38.983 29.158l1.784 2.295 1.79-2.295h.459v4.922h-.507v-4.063l-1.728 2.191h-.028l-1.722-2.19v4.062h-.506v-4.922h.458zm7.812 3.113l-1.173.16c-.324.04-.556.118-.698.232a.545.545 0 00-.211.447c0 .23.078.396.236.495.157.1.351.15.583.15.393 0 .702-.11.927-.33.224-.22.336-.468.336-.745v-.41zm-1.319 1.893c-.412 0-.723-.094-.933-.281-.211-.187-.316-.445-.316-.773 0-.597.444-.953 1.333-1.068l1.235-.16v-.097c0-.596-.333-.894-1-.894-.564 0-.893.233-.985.7h-.493c.05-.342.198-.614.44-.818.244-.203.597-.305 1.06-.305.49 0 .858.119 1.103.357s.368.56.368.967v1.547c0 .346.035.593.104.741h-.486c-.05-.138-.076-.34-.076-.603-.268.458-.72.687-1.354.687zm5.584-3.613h.66l-1.465 1.456 1.576 2.073h-.61l-1.313-1.74-.798.777v.963h-.493v-5.2h.493v3.633l1.95-1.962zm1.794-.873a.355.355 0 01-.257-.094.326.326 0 01-.097-.246.35.35 0 01.097-.253c.065-.067.15-.1.257-.1a.344.344 0 01.354.353.32.32 0 01-.1.246.358.358 0 01-.254.094zm-.25 4.402v-3.529h.493v3.53h-.493zm2.329-3.529v.541c.083-.157.222-.3.416-.43.195-.13.445-.194.75-.194.426 0 .756.125.99.374.233.25.35.578.35.985v2.253h-.493v-2.156c0-.328-.078-.581-.232-.76-.156-.177-.388-.266-.698-.266-.31 0-.565.095-.764.284-.199.19-.298.456-.298.798v2.1h-.493v-3.529h.472zm6.563.645v-.645h.472v3.356c0 .5-.143.906-.427 1.22-.285.315-.693.472-1.225.472-.463 0-.83-.111-1.1-.333a1.416 1.416 0 01-.51-.79h.506c.07.208.202.373.4.495.196.123.435.184.718.184.356 0 .636-.105.84-.315.203-.21.305-.485.305-.822v-.659c-.273.476-.71.715-1.312.715-.509 0-.914-.176-1.215-.527-.3-.352-.451-.777-.451-1.276 0-.5.15-.925.451-1.276.301-.351.706-.527 1.215-.527.616 0 1.06.243 1.333.728zm-.34 2.052c.226-.258.34-.584.34-.977s-.112-.718-.337-.974c-.224-.257-.526-.385-.906-.385s-.684.13-.913.388c-.229.259-.343.582-.343.97 0 .389.114.714.343.975.23.261.534.392.913.392.38 0 .68-.13.903-.389zm4.587-2.059c.269-.48.708-.721 1.319-.721.523 0 .933.18 1.229.537.296.359.444.797.444 1.314 0 .513-.148.949-.444 1.307-.296.358-.706.538-1.229.538-.62 0-1.067-.245-1.34-.735v.651h-.472v-5.2h.493v2.31zm-.014 1.13c0 .398.111.73.334.999.222.268.525.402.909.402s.69-.134.92-.402c.229-.268.343-.601.343-.999 0-.402-.114-.737-.343-1.005-.23-.268-.536-.402-.92-.402s-.687.133-.91.399c-.222.265-.333.602-.333 1.008zm7.264.139h-2.936c.023.37.148.672.375.908s.52.354.881.354c.264 0 .496-.068.695-.205.198-.136.337-.315.416-.537h.513a1.655 1.655 0 01-.589.856c-.287.22-.634.33-1.042.33-.536 0-.961-.18-1.273-.538-.313-.358-.469-.796-.469-1.314 0-.508.16-.943.483-1.303.321-.36.74-.541 1.252-.541.514 0 .926.172 1.236.517.31.344.465.773.465 1.286l-.007.187zM71.3 30.912c-.332 0-.61.107-.833.322a1.337 1.337 0 00-.395.822h2.436c-.032-.347-.156-.624-.371-.832-.215-.208-.494-.312-.837-.312zm4.23 2.704v.444a1.5 1.5 0 01-.374.034c-.61 0-.916-.32-.916-.964v-2.163h-.674v-.416h.674v-1.005h.492v1.005h.813v.416h-.813v2.129c0 .37.163.555.487.555l.312-.035zm2.316 0v.444a1.507 1.507 0 01-.376.034c-.61 0-.915-.32-.915-.964v-2.163h-.674v-.416h.674v-1.005h.492v1.005h.813v.416h-.813v2.129c0 .37.162.555.486.555l.313-.035zm4.043-1.158H78.95c.024.37.148.672.375.908s.52.354.881.354c.264 0 .496-.068.695-.205.2-.136.338-.315.416-.537h.514a1.66 1.66 0 01-.59.856c-.287.22-.634.33-1.04.33-.538 0-.963-.18-1.275-.538-.313-.358-.469-.796-.469-1.314 0-.508.161-.943.483-1.303.322-.36.74-.541 1.253-.541.514 0 .926.172 1.236.517.31.344.464.773.464 1.286l-.007.187zm-1.694-1.546c-.333 0-.61.107-.833.322a1.333 1.333 0 00-.395.822h2.436c-.033-.347-.156-.624-.371-.832-.216-.208-.495-.312-.837-.312zm4.515-.389v.465a2.108 2.108 0 00-.173-.007c-.315 0-.57.094-.764.28-.195.188-.292.46-.292.816v2.003h-.493v-3.529h.472v.548a1.13 1.13 0 01.41-.406c.19-.117.43-.176.722-.176l.118.006zm5.552.673v-.645h.472v3.356c0 .5-.142.906-.426 1.22-.285.315-.694.472-1.226.472-.463 0-.83-.111-1.1-.333a1.414 1.414 0 01-.51-.79h.507c.07.208.202.373.399.495.197.123.436.184.718.184.356 0 .636-.105.84-.315.204-.21.305-.485.305-.822v-.659c-.272.476-.71.715-1.311.715-.51 0-.915-.176-1.215-.527-.301-.352-.452-.777-.452-1.276 0-.5.151-.925.452-1.276.3-.351.705-.527 1.215-.527.615 0 1.06.243 1.332.728zm-.34 2.052c.227-.258.34-.584.34-.977s-.112-.718-.337-.974c-.224-.257-.526-.385-.905-.385-.38 0-.684.13-.913.388-.23.259-.343.582-.343.97 0 .389.113.714.343.975.23.261.533.392.913.392.379 0 .68-.13.902-.389zm4.467-.977l-1.174.16c-.324.04-.556.118-.697.232a.546.546 0 00-.212.447c0 .23.079.396.236.495.158.1.352.15.583.15.393 0 .703-.11.927-.33.224-.22.337-.468.337-.745v-.41zm-1.32 1.893c-.411 0-.722-.094-.933-.281-.21-.187-.316-.445-.316-.773 0-.597.444-.953 1.333-1.068l1.236-.16v-.097c0-.596-.334-.894-1-.894-.565 0-.893.233-.986.7h-.492c.05-.342.197-.614.44-.818.243-.203.596-.305 1.06-.305.49 0 .858.119 1.102.357.246.238.368.56.368.967v1.547c0 .346.035.593.104.741H94.5c-.051-.138-.076-.34-.076-.603-.269.458-.72.687-1.354.687zm6.03-2.143v2.06h-.494v-2.157c0-.319-.073-.57-.219-.752-.145-.183-.368-.274-.669-.274a.975.975 0 00-.729.291c-.19.194-.285.458-.285.79v2.101h-.493v-3.529h.472v.541c.227-.416.6-.624 1.118-.624.56 0 .944.227 1.153.68a1.402 1.402 0 011.242-.68c.411 0 .73.128.954.385.225.256.337.581.337.974v2.253h-.493v-2.156c0-.314-.073-.564-.219-.749-.146-.185-.366-.277-.662-.277a.978.978 0 00-.726.291c-.192.194-.288.472-.288.832zm6.882.437h-2.937c.023.37.148.672.375.908s.521.354.882.354c.264 0 .495-.068.694-.205.199-.136.337-.315.416-.537h.514a1.649 1.649 0 01-.591.856c-.286.22-.633.33-1.041.33-.537 0-.961-.18-1.273-.538-.312-.358-.469-.796-.469-1.314 0-.508.161-.943.483-1.303.321-.36.739-.541 1.252-.541.514 0 .926.172 1.236.517.31.344.465.773.465 1.286l-.006.187zm-1.695-1.546c-.333 0-.61.107-.833.322a1.339 1.339 0 00-.395.822h2.436c-.032-.347-.156-.624-.371-.832-.215-.208-.494-.312-.837-.312zm3.926 3.252c-.477 0-.832-.113-1.066-.337a1.253 1.253 0 01-.385-.85h.5c.018.237.107.422.267.556.16.134.387.2.684.2.291 0 .519-.054.684-.162a.498.498 0 00.246-.434.448.448 0 00-.226-.412 1.484 1.484 0 00-.545-.184 10.594 10.594 0 01-.642-.118 1.09 1.09 0 01-.548-.29c-.151-.149-.226-.357-.226-.625 0-.287.118-.531.354-.735.236-.203.555-.305.958-.305.445 0 .773.113.986.34.213.226.333.485.361.776h-.493a.753.753 0 00-.25-.495c-.143-.127-.349-.191-.618-.191-.263 0-.466.055-.607.166a.516.516 0 00-.212.423c0 .153.055.273.164.36a.833.833 0 00.405.17c.162.026.337.06.525.101.187.042.362.088.524.139a.79.79 0 01.405.298.934.934 0 01.164.569c0 .286-.122.531-.365.735-.242.203-.591.305-1.044.305z" stroke="#fff" stroke-width=".6"/></g><mask id="b" maskUnits="userSpaceOnUse" x="38" y="28" width="72" height="8"><path opacity=".8" d="M38.983 29.158l1.784 2.295 1.79-2.295h.459v4.922h-.507v-4.063l-1.728 2.191h-.028l-1.722-2.19v4.062h-.506v-4.922h.458zm7.812 3.113l-1.173.16c-.324.04-.556.118-.698.232a.545.545 0 00-.211.447c0 .23.078.396.236.495.157.1.351.15.583.15.393 0 .702-.11.927-.33.224-.22.336-.468.336-.745v-.41zm-1.319 1.893c-.412 0-.723-.094-.933-.281-.211-.187-.316-.445-.316-.773 0-.597.444-.953 1.333-1.068l1.235-.16v-.097c0-.596-.333-.894-1-.894-.564 0-.893.233-.985.7h-.493c.05-.342.198-.614.44-.818.244-.203.597-.305 1.06-.305.49 0 .858.119 1.103.357s.368.56.368.967v1.547c0 .346.035.593.104.741h-.486c-.05-.138-.076-.34-.076-.603-.268.458-.72.687-1.354.687zm5.584-3.613h.66l-1.465 1.456 1.576 2.073h-.61l-1.313-1.74-.798.777v.963h-.493v-5.2h.493v3.633l1.95-1.962zm1.794-.873a.355.355 0 01-.257-.094.326.326 0 01-.097-.246.35.35 0 01.097-.253c.065-.067.15-.1.257-.1a.344.344 0 01.354.353.32.32 0 01-.1.246.358.358 0 01-.254.094zm-.25 4.402v-3.529h.493v3.53h-.493zm2.329-3.529v.541c.083-.157.222-.3.416-.43.195-.13.445-.194.75-.194.426 0 .756.125.99.374.233.25.35.578.35.985v2.253h-.493v-2.156c0-.328-.078-.581-.232-.76-.156-.177-.388-.266-.698-.266-.31 0-.565.095-.764.284-.199.19-.298.456-.298.798v2.1h-.493v-3.529h.472zm6.563.645v-.645h.472v3.356c0 .5-.143.906-.427 1.22-.285.315-.693.472-1.225.472-.463 0-.83-.111-1.1-.333a1.416 1.416 0 01-.51-.79h.506c.07.208.202.373.4.495.196.123.435.184.718.184.356 0 .636-.105.84-.315.203-.21.305-.485.305-.822v-.659c-.273.476-.71.715-1.312.715-.51 0-.914-.176-1.215-.527-.3-.352-.451-.777-.451-1.276 0-.5.15-.925.451-1.276.301-.351.706-.527 1.215-.527.616 0 1.06.243 1.333.728zm-.34 2.052c.227-.258.34-.584.34-.977s-.112-.718-.337-.974c-.224-.257-.526-.385-.906-.385s-.684.13-.913.388c-.229.259-.343.582-.343.97 0 .389.114.714.343.975.23.261.534.392.913.392.38 0 .68-.13.903-.389zm4.587-2.059c.269-.48.708-.721 1.319-.721.523 0 .933.18 1.229.537.296.359.444.797.444 1.314 0 .513-.148.949-.444 1.307-.296.358-.706.538-1.229.538-.62 0-1.067-.245-1.34-.735v.651h-.472v-5.2h.493v2.31zm-.014 1.13c0 .398.111.73.334.999.222.268.525.402.909.402s.69-.134.92-.402c.229-.268.343-.601.343-.999 0-.402-.114-.737-.343-1.005-.23-.268-.536-.402-.92-.402s-.687.133-.91.399c-.222.265-.333.602-.333 1.008zm7.264.139h-2.936c.023.37.148.672.375.908s.52.354.881.354c.264 0 .496-.068.695-.205.198-.136.337-.315.416-.537h.513a1.655 1.655 0 01-.589.856c-.287.22-.634.33-1.042.33-.536 0-.961-.18-1.273-.538-.313-.358-.469-.796-.469-1.314 0-.508.16-.943.483-1.303.321-.36.74-.541 1.252-.541.514 0 .926.172 1.236.517.31.344.465.773.465 1.286l-.007.187zM71.3 30.912c-.332 0-.61.107-.833.322a1.337 1.337 0 00-.395.822h2.436c-.032-.347-.156-.624-.371-.832-.215-.208-.494-.312-.837-.312zm4.23 2.704v.444a1.5 1.5 0 01-.374.034c-.61 0-.916-.32-.916-.964v-2.163h-.674v-.416h.674v-1.005h.492v1.005h.813v.416h-.813v2.129c0 .37.163.555.487.555l.312-.035zm2.316 0v.444a1.507 1.507 0 01-.376.034c-.61 0-.915-.32-.915-.964v-2.163h-.674v-.416h.674v-1.005h.492v1.005h.813v.416h-.813v2.129c0 .37.162.555.486.555l.313-.035zm4.043-1.158H78.95c.024.37.148.672.375.908s.52.354.881.354c.264 0 .496-.068.695-.205.2-.136.338-.315.416-.537h.514a1.66 1.66 0 01-.59.856c-.287.22-.634.33-1.04.33-.538 0-.963-.18-1.275-.538-.313-.358-.469-.796-.469-1.314 0-.508.161-.943.483-1.303.322-.36.74-.541 1.253-.541.514 0 .926.172 1.236.517.31.344.464.773.464 1.286l-.007.187zm-1.694-1.546c-.333 0-.61.107-.833.322a1.333 1.333 0 00-.395.822h2.436c-.033-.347-.156-.624-.371-.832-.216-.208-.495-.312-.837-.312zm4.515-.389v.465a2.108 2.108 0 00-.173-.007c-.315 0-.57.094-.764.28-.195.188-.292.46-.292.816v2.003h-.493v-3.529h.472v.548a1.13 1.13 0 01.41-.406c.19-.117.43-.176.722-.176l.118.006zm5.552.673v-.645h.472v3.356c0 .5-.142.906-.426 1.22-.285.315-.694.472-1.226.472-.463 0-.83-.111-1.1-.333a1.414 1.414 0 01-.51-.79h.507c.07.208.202.373.399.495.197.123.436.184.718.184.356 0 .636-.105.84-.315.204-.21.305-.485.305-.822v-.659c-.272.476-.71.715-1.311.715-.51 0-.915-.176-1.215-.527-.301-.352-.452-.777-.452-1.276 0-.5.151-.925.452-1.276.3-.351.705-.527 1.215-.527.615 0 1.06.243 1.332.728zm-.34 2.052c.227-.258.34-.584.34-.977s-.112-.718-.337-.974c-.224-.257-.526-.385-.905-.385-.38 0-.684.13-.913.388-.23.259-.343.582-.343.97 0 .389.113.714.343.975.23.261.533.392.913.392.379 0 .68-.13.902-.389zm4.467-.977l-1.174.16c-.324.04-.556.118-.697.232a.546.546 0 00-.212.447c0 .23.079.396.236.495.158.1.352.15.583.15.393 0 .703-.11.927-.33.224-.22.337-.468.337-.745v-.41zm-1.32 1.893c-.411 0-.722-.094-.933-.281-.21-.187-.316-.445-.316-.773 0-.597.444-.953 1.333-1.068l1.236-.16v-.097c0-.596-.334-.894-1-.894-.565 0-.893.233-.986.7h-.492c.05-.342.197-.614.44-.818.243-.203.596-.305 1.06-.305.49 0 .858.119 1.102.357.246.238.368.56.368.967v1.547c0 .346.035.593.104.741H94.5c-.051-.138-.076-.34-.076-.603-.269.458-.72.687-1.354.687zm6.03-2.143v2.06h-.494v-2.157c0-.319-.073-.57-.219-.752-.145-.183-.368-.274-.669-.274a.975.975 0 00-.729.291c-.19.194-.285.458-.285.79v2.101h-.493v-3.529h.472v.541c.227-.416.6-.624 1.118-.624.56 0 .944.227 1.153.68a1.402 1.402 0 011.242-.68c.411 0 .73.128.954.385.225.256.337.581.337.974v2.253h-.493v-2.156c0-.314-.073-.564-.219-.749-.146-.185-.366-.277-.662-.277a.978.978 0 00-.726.291c-.192.194-.288.472-.288.832zm6.882.437h-2.937c.023.37.148.672.375.908s.521.354.882.354c.264 0 .495-.068.694-.205.199-.136.337-.315.416-.537h.514a1.649 1.649 0 01-.591.856c-.286.22-.633.33-1.041.33-.537 0-.961-.18-1.273-.538-.312-.358-.469-.796-.469-1.314 0-.508.161-.943.483-1.303.321-.36.739-.541 1.252-.541.514 0 .926.172 1.236.517.31.344.465.773.465 1.286l-.006.187zm-1.695-1.546c-.333 0-.61.107-.833.322a1.339 1.339 0 00-.395.822h2.436c-.032-.347-.156-.624-.371-.832-.215-.208-.494-.312-.837-.312zm3.926 3.252c-.477 0-.832-.113-1.066-.337a1.253 1.253 0 01-.385-.85h.5c.018.237.107.422.267.556.16.134.387.2.684.2.291 0 .519-.054.684-.162a.498.498 0 00.246-.434.448.448 0 00-.226-.412 1.484 1.484 0 00-.545-.184 10.594 10.594 0 01-.642-.118 1.09 1.09 0 01-.548-.29c-.151-.149-.226-.357-.226-.625 0-.287.118-.531.354-.735.236-.203.555-.305.958-.305.445 0 .773.113.986.34.213.226.333.485.361.776h-.493a.753.753 0 00-.25-.495c-.143-.127-.349-.191-.618-.191-.263 0-.466.055-.607.166a.516.516 0 00-.212.423c0 .153.055.273.164.36a.833.833 0 00.405.17c.162.026.337.06.525.101.187.042.362.088.524.139a.79.79 0 01.405.298.934.934 0 01.164.569c0 .286-.122.531-.365.735-.242.203-.591.305-1.044.305z" fill="#fff"/></mask></g><path d="M38.983 29.158l1.784 2.295 1.79-2.295h.459v4.922h-.507v-4.063l-1.728 2.191h-.028l-1.722-2.19v4.063h-.506v-4.923h.458zm7.812 3.113l-1.173.16c-.324.04-.556.118-.698.232a.546.546 0 00-.211.447c0 .23.078.396.236.496.157.099.351.149.583.149.393 0 .702-.11.927-.33.224-.22.336-.468.336-.745v-.41zm-1.319 1.893c-.412 0-.723-.094-.933-.281-.211-.187-.316-.445-.316-.773 0-.596.444-.952 1.333-1.068l1.235-.16v-.097c0-.596-.333-.894-1-.894-.564 0-.893.234-.985.7h-.493c.05-.342.198-.614.44-.818.244-.203.597-.305 1.06-.305.49 0 .858.12 1.103.357.245.238.368.56.368.967v1.547c0 .346.035.594.104.742h-.486c-.05-.14-.076-.34-.076-.604-.268.458-.72.687-1.354.687zm5.584-3.613h.66l-1.465 1.456 1.576 2.074h-.61l-1.313-1.74-.798.776v.964h-.493v-5.2h.493v3.633l1.95-1.963zm1.794-.873a.355.355 0 01-.257-.094.326.326 0 01-.097-.246.35.35 0 01.097-.253c.065-.067.15-.1.257-.1a.344.344 0 01.354.353.32.32 0 01-.1.246.357.357 0 01-.254.094zm-.25 4.402v-3.529h.493v3.53h-.493zm2.329-3.529v.541c.083-.157.222-.3.416-.43.195-.13.445-.194.75-.194.426 0 .756.125.99.375.233.25.35.577.35.984v2.253h-.493v-2.156c0-.328-.078-.581-.232-.759-.156-.178-.388-.267-.698-.267-.31 0-.565.095-.764.284-.199.19-.298.456-.298.798v2.1h-.493v-3.529h.472zm6.563.645v-.645h.472v3.356c0 .5-.143.906-.427 1.22-.285.315-.693.472-1.225.472-.463 0-.83-.11-1.1-.333a1.416 1.416 0 01-.51-.79h.506c.07.208.202.373.4.495.196.123.435.184.718.184.356 0 .636-.105.84-.315.203-.21.305-.485.305-.822v-.659c-.273.477-.71.715-1.312.715-.509 0-.914-.176-1.215-.527-.3-.352-.451-.777-.451-1.276 0-.5.15-.925.451-1.276.301-.351.706-.527 1.215-.527.616 0 1.06.243 1.333.728zm-.34 2.052c.227-.258.34-.584.34-.977s-.112-.718-.337-.974c-.224-.257-.526-.385-.906-.385s-.684.13-.913.388c-.229.259-.343.583-.343.97 0 .39.114.714.343.975.23.261.534.392.913.392.38 0 .68-.13.903-.389zm4.587-2.059c.269-.48.708-.72 1.32-.72.522 0 .932.178 1.228.537.296.358.444.796.444 1.313 0 .514-.148.95-.444 1.307-.296.359-.706.538-1.229.538-.62 0-1.067-.245-1.34-.735v.651h-.472v-5.2h.493v2.31zm-.014 1.13c0 .398.111.73.334.999.222.268.525.402.909.402s.69-.134.92-.402c.229-.268.343-.601.343-.999 0-.402-.114-.737-.343-1.005-.23-.268-.536-.402-.92-.402s-.687.133-.91.399c-.222.265-.333.602-.333 1.008zm7.264.139h-2.936c.023.37.148.673.375.908.227.236.52.354.881.354.264 0 .496-.068.695-.205.198-.136.337-.315.416-.537h.513a1.655 1.655 0 01-.589.856c-.287.22-.634.33-1.042.33-.536 0-.961-.18-1.273-.538-.313-.358-.469-.796-.469-1.314 0-.508.16-.942.483-1.303.321-.36.74-.54 1.252-.54.514 0 .926.171 1.236.516.31.344.466.773.466 1.286l-.008.187zM71.3 30.912c-.332 0-.61.107-.833.322a1.336 1.336 0 00-.395.822h2.436c-.032-.347-.156-.624-.371-.832-.215-.208-.494-.312-.837-.312zm4.23 2.704v.444a1.5 1.5 0 01-.374.034c-.61 0-.916-.32-.916-.963v-2.164h-.674v-.416h.674v-1.005h.492v1.005h.813v.416h-.813v2.129c0 .37.163.555.487.555l.312-.035zm2.316 0v.444a1.507 1.507 0 01-.376.034c-.61 0-.915-.32-.915-.963v-2.164h-.674v-.416h.674v-1.005h.492v1.005h.813v.416h-.813v2.129c0 .37.162.555.486.555l.313-.035zm4.043-1.158H78.95c.024.37.148.673.375.908.227.236.52.354.881.354.264 0 .496-.068.695-.205.2-.136.338-.315.416-.537h.514a1.66 1.66 0 01-.59.856c-.287.22-.634.33-1.04.33-.538 0-.963-.18-1.275-.538-.313-.358-.469-.796-.469-1.314 0-.508.161-.942.483-1.303.322-.36.74-.54 1.253-.54.514 0 .926.171 1.236.516.31.344.464.773.464 1.286l-.007.187zm-1.694-1.546c-.333 0-.61.107-.833.322a1.332 1.332 0 00-.395.822h2.436c-.033-.347-.156-.624-.371-.832-.216-.208-.495-.312-.837-.312zm4.515-.388v.464a2.108 2.108 0 00-.173-.007c-.315 0-.57.094-.764.281-.195.187-.292.459-.292.815v2.004h-.493v-3.53h.472v.548a1.13 1.13 0 01.41-.405c.19-.118.43-.177.722-.177l.118.007zm5.552.672v-.645h.472v3.356c0 .5-.142.906-.426 1.22-.285.315-.694.472-1.226.472-.463 0-.83-.11-1.1-.333a1.414 1.414 0 01-.51-.79h.507c.07.208.202.373.399.495.197.123.436.184.718.184.356 0 .636-.105.84-.315.204-.21.305-.485.305-.822v-.659c-.272.477-.71.715-1.311.715-.51 0-.915-.176-1.215-.527-.301-.352-.452-.777-.452-1.276 0-.5.151-.925.452-1.276.3-.351.705-.527 1.215-.527.615 0 1.06.243 1.332.728zm-.34 2.052c.227-.258.34-.584.34-.977s-.112-.718-.336-.974c-.225-.257-.527-.385-.906-.385-.38 0-.684.13-.913.388-.23.259-.343.583-.343.97 0 .39.113.714.343.975.23.261.533.392.913.392.379 0 .68-.13.902-.389zm4.467-.977l-1.174.16c-.324.04-.556.118-.697.232a.546.546 0 00-.212.447c0 .23.079.396.236.496.158.099.352.149.583.149.393 0 .703-.11.927-.33.224-.22.337-.468.337-.745v-.41zm-1.32 1.893c-.411 0-.722-.094-.933-.281-.21-.187-.316-.445-.316-.773 0-.596.444-.952 1.333-1.068l1.236-.16v-.097c0-.596-.333-.894-1-.894-.565 0-.893.234-.986.7h-.492c.05-.342.197-.614.44-.818.243-.203.596-.305 1.06-.305.49 0 .858.12 1.102.357.246.238.368.56.368.967v1.547c0 .346.035.594.104.742H94.5c-.051-.14-.076-.34-.076-.604-.269.458-.72.687-1.354.687zm6.03-2.143v2.06h-.494v-2.157c0-.319-.073-.57-.219-.752-.145-.183-.368-.274-.669-.274a.975.975 0 00-.729.291c-.19.194-.285.458-.285.79v2.102h-.493v-3.53h.472v.541c.227-.416.6-.624 1.118-.624.56 0 .944.227 1.153.68a1.402 1.402 0 011.242-.68c.412 0 .73.128.954.385.225.256.337.581.337.974v2.253h-.493v-2.156c0-.314-.073-.564-.219-.749-.146-.184-.366-.277-.662-.277a.978.978 0 00-.726.291c-.192.194-.288.472-.288.832zm6.882.437h-2.937c.023.37.148.673.375.908.227.236.521.354.882.354.264 0 .495-.068.694-.205.199-.136.337-.315.416-.537h.514a1.653 1.653 0 01-.59.856c-.287.22-.634.33-1.041.33-.538 0-.962-.18-1.274-.538-.312-.358-.469-.796-.469-1.314 0-.508.161-.942.483-1.303.321-.36.739-.54 1.252-.54.514 0 .926.171 1.236.516.31.344.465.773.465 1.286l-.006.187zm-1.695-1.546c-.333 0-.61.107-.832.322a1.334 1.334 0 00-.396.822h2.436c-.032-.347-.156-.624-.371-.832-.215-.208-.494-.312-.837-.312zm3.926 3.252c-.477 0-.832-.112-1.066-.337a1.253 1.253 0 01-.385-.849h.5c.018.236.107.42.267.555.16.134.387.2.684.2.291 0 .519-.053.684-.162a.498.498 0 00.246-.433.448.448 0 00-.226-.413 1.482 1.482 0 00-.545-.184 10.752 10.752 0 01-.642-.118 1.09 1.09 0 01-.548-.29c-.151-.149-.226-.357-.226-.625 0-.286.118-.531.354-.735.236-.203.555-.305.958-.305.445 0 .773.113.986.34.213.226.333.485.361.776h-.493a.753.753 0 00-.25-.495c-.143-.127-.349-.191-.618-.191-.263 0-.466.055-.607.166a.516.516 0 00-.212.423c0 .153.055.273.164.36a.834.834 0 00.405.17c.162.026.337.06.525.101.187.042.362.088.524.139.161.05.297.15.405.298a.933.933 0 01.164.569c0 .286-.122.531-.365.735-.242.203-.591.305-1.044.305z" fill="#0A1070"/><path d="M20.878 4c-2.97 0-6.19.692-8.704 1.723-2.922 1.198-6.202 2.952-8.55 5.207 1.053-.658 2.325-1.273 3.828-1.782 2.271-.77 6.646-2.506 9.192-.444 2.545 2.062 2.461 6.724 1.852 10.23-.609 3.505-1.853 8.06-5.219 9.148-3.366 1.09-6.902-1.84-9.134-4.065-.762-.76-1.597-1.589-2.343-2.487 1.786 2.905 4.92 5.325 6.784 6.887 6.366 5.334 9.674 7.58 12.232 6.53 4.887-2.003 6.659-8.02 7.704-12.808 1.044-4.788 2.57-12.257-.456-15.72C26.554 4.689 23.841 4 20.88 4h-.001z" fill="url(#paint0_linear)"/><mask id="c" maskUnits="userSpaceOnUse" x="0" y="4" width="31" height="32"><path d="M12.763 5.456C14.805 4.782 17.6 4 20.327 4c.207 0 .414.005.62.014-.708.109-1.4.236-2.055.347-3.059.518-7.5 1.766-8.551 5.188-1.052 3.422 1.91 7.07 4.39 9.586 2.481 2.517 6.196 5.261 9.32 4.328 3.125-.933 4.233-5.567 4.914-7.896.52-1.773.75-3.37.779-4.757.1.37.178.763.231 1.184.356 2.794-.335 6.743-.954 9.462-1.218 5.358-3.5 12.28-8.78 13.684-5.279 1.403-10.502-3.406-13.767-7.021C3.208 24.504-.98 19.917.206 14.705c.62-2.729 4.691-6.653 12.557-9.25z" fill="#fff"/></mask><g mask="url(#c)"><path fill-rule="evenodd" clip-rule="evenodd" d="M42.002 45.95l-54.19-10.466L.569-10.742 54.76-.276 42.003 45.95z" fill="url(#paint1_linear)"/></g><mask id="d" maskUnits="userSpaceOnUse" x="0" y="4" width="31" height="32"><path d="M12.763 5.456C14.805 4.782 17.6 4 20.327 4c.207 0 .414.005.62.014-.708.109-1.4.236-2.055.347-3.059.518-7.5 1.766-8.551 5.188-1.052 3.422 1.91 7.07 4.39 9.586 2.481 2.517 6.196 5.261 9.32 4.328 3.125-.933 4.233-5.567 4.914-7.896.52-1.773.75-3.37.779-4.757.1.37.178.763.231 1.184.356 2.794-.335 6.743-.954 9.462-1.218 5.358-3.5 12.28-8.78 13.684-5.279 1.403-10.502-3.406-13.767-7.021C3.208 24.504-.98 19.917.206 14.705c.62-2.729 4.691-6.653 12.557-9.25z" fill="#fff"/></mask><g mask="url(#d)"><path d="M-1.764.771v36.727h38.538V.77H-1.764z" fill="url(#paint2_linear)"/></g><mask id="e" maskUnits="userSpaceOnUse" x="2" y="20" width="21" height="16"><path d="M21.88 23.579c.786 3.781.578 7.61-2.322 10.182a9.272 9.272 0 01-2.432 1.538c-4.155-.616-8.031-4.282-10.65-7.18-1.426-1.58-3.03-3.345-4.283-5.267a48.25 48.25 0 001.621.34c4.13.798 9.668 1.126 12.28-1.336.281-.264.51-.552.697-.858 1.569 1.256 3.354 2.306 5.089 2.58z" fill="#fff"/></mask><g mask="url(#e)"><path fill-rule="evenodd" clip-rule="evenodd" d="M58.976 33.28L3.123 49.369l-19.527-47.44L39.449-14.16l19.527 47.44z" fill="url(#paint3_linear)"/></g><mask id="f" maskUnits="userSpaceOnUse" x="2" y="19" width="23" height="17"><path d="M21.88 23.58c4.26.543 2.9 8.765 0 11.337-.722.64-3.23 1.82-4.754.382-4.155-.616-8.031-4.282-10.65-7.18-1.426-1.58-3.03-3.345-4.283-5.267.552.127.955-1.336 1.48-1.235 4.13.797 4.876.158 7.489-2.304.28-.265 5.443 1.991 5.629 1.685 1.569 1.257 3.354 2.306 5.089 2.581z" fill="#fff"/></mask><g mask="url(#f)"><path d="M-1.764 8.45v.425c.176-.135.35-.266.52-.391.6-.444 1.229-.923 1.886-1.394-.839.396-1.643.86-2.406 1.36zm17.912 4.105c.771 2.332 2.56 6.84-.053 9.301-2.613 2.462-8.151 2.134-12.281 1.337-1.78-.344-3.786-.818-5.578-1.522v12.873c.95.237 1.887.453 2.784.661 5.627 1.304 14.014 2.569 18.538-1.444 4.525-4.013 2.495-11.084.364-16.262-1.082-2.629-2.865-6.335-4.993-8.505a9.474 9.474 0 00-.985-.876c.845 1.187 1.617 2.66 2.204 4.437z" fill="url(#paint4_linear)"/></g><defs><linearGradient id="paint0_linear" x1="28.761" y1="26.014" x2="11.646" y2="23.766" gradientUnits="userSpaceOnUse"><stop stop-color="#000056"/><stop offset="1" stop-color="#1010CB"/></linearGradient><linearGradient id="paint1_linear" x1="37.209" y1="33.324" x2="51.914" y2="-40.986" gradientUnits="userSpaceOnUse"><stop stop-color="#01F5FC"/><stop offset="1" stop-color="#1010CB"/></linearGradient><linearGradient id="paint2_linear" x1="16.449" y1="4.382" x2="16.449" y2="37.498" gradientUnits="userSpaceOnUse"><stop stop-color="#01F5FC"/><stop offset="1" stop-color="#1010CB"/></linearGradient><linearGradient id="paint3_linear" x1="39.379" y1="28.705" x2="17.771" y2="-45.205" gradientUnits="userSpaceOnUse"><stop stop-color="#00FFFD"/><stop offset="1" stop-color="#1010CB"/></linearGradient><linearGradient id="paint4_linear" x1="-6.196" y1="19.316" x2="21.358" y2="29.49" gradientUnits="userSpaceOnUse"><stop stop-color="#00FFFD"/><stop offset="1" stop-color="#1010CB"/></linearGradient></defs></svg>