<?xml version="1.0" encoding="utf-8"?>
<!-- Generator: Adobe Illustrator 25.0.1, SVG Export Plug-In . SVG Version: 6.00 Build 0)  -->
<svg version="1.1" id="Layer_1" xmlns="http://www.w3.org/2000/svg" xmlns:xlink="http://www.w3.org/1999/xlink" x="0px" y="0px"
	 viewBox="0 0 423 156" style="enable-background:new 0 0 423 156;" xml:space="preserve">
<style type="text/css">
	.st0{fill:#040404;}
</style>
<g id="nAYtnb.tif">
	<g>
		<path class="st0" d="M409.26,138.77c-0.81,0.93-1.76,1.51-3.05,1.74c-2.45,0.43-4.85,1.12-7.28,1.66
			c-2.99,0.67-3.67,0.15-4.15-2.84c-1.24-7.79-2.57-15.56-3.73-23.36c-0.25-1.7-0.75-2.11-2.43-1.72c-2.34,0.54-4.75,0.84-7.14,1.11
			c-1.4,0.16-1.94,0.83-2.2,2.18c-1.45,7.66-2.98,15.31-4.49,22.97c-0.54,2.76-1.26,3.19-3.92,2.33c-2.21-0.72-4.42-1.45-6.63-2.15
			c-1.76-0.56-2.26-1.68-1.79-3.44c5.03-18.73,6.82-37.86,6.94-57.19c0.01-1.44-0.39-2.11-1.79-1.56c-1.69,0.66-1.94-0.32-2.17-1.58
			c-0.5-2.86-1.02-5.72-1.61-8.56c-0.37-1.82,0.19-2.72,2.12-3.1c7.67-1.53,15.41-2.58,23.12-3.82c4.1-0.66,8.22-1.22,12.32-1.91
			c1.3-0.22,1.92-0.05,2.09,1.45c0.28,2.47,0.79,4.91,1.26,7.36c0.25,1.28,0.03,2.06-1.48,2.19c-0.89,0.07-1.75,0.53-2.65,0.69
			c-1.03,0.18-1.32,0.71-1.27,1.71c0.96,21.09,2.24,42.13,8.84,62.41c0.28,0.85,0.4,1.78,1.08,2.45
			C409.26,138.1,409.26,138.44,409.26,138.77z M388.77,88.54c-0.09,0-0.17,0-0.26,0c0-1.57,0.02-3.14,0-4.71
			c-0.08-6.6-0.07-6.52-6.55-5.23c-1.55,0.31-1.72,0.98-1.7,2.29c0.09,5.55,0.17,11.1,0.07,16.65c-0.04,2.16,0.7,2.8,2.74,2.35
			c1.29-0.28,2.63-0.47,3.94-0.49c1.4-0.02,1.84-0.53,1.79-1.92C388.7,94.5,388.77,91.52,388.77,88.54z"/>
		<path class="st0" d="M340.56,98.45c-2.67,10.5-5.2,20.45-7.74,30.41c-0.49,1.93-1.03,3.84-1.55,5.76
			c-0.29,1.08-0.71,2.13-2.03,2.2c-1.4,0.07-1.68-1.04-2.02-2.11c-3.05-9.55-6.12-19.09-9.23-28.62c-0.18-0.55,0.03-1.66-0.83-1.52
			c-0.75,0.12-0.32,1.13-0.32,1.71c0.09,10.62-0.14,21.27,2.25,31.74c0.36,1.55-0.37,2.6-2.02,2.67c-3.74,0.16-7.48,0.3-11.22,0.33
			c-1.83,0.01-2.33-1.12-2.15-2.85c0.66-6.61,1.29-13.23,1.82-19.85c1.23-15.33,2.11-30.67,0.79-46.04
			c-0.47-5.48-1.66-10.81-3.57-15.98c-0.36-0.98-0.94-1.85,0.15-2.91c1.1-1.07,1.89-0.34,2.86-0.01c1.16,0.4,2.63,1.74,3.36,1.09
			c0.84-0.75-0.01-2.47-0.1-3.78c-0.54-8.03-2.24-15.89-3.4-23.82c-1.02-6.98-9.38-9.42-14.49-6.38c-3.98,2.37-8.17,4.21-12.81,5.13
			c-5.97,1.18-11.31-0.06-16.39-3.18c-3.97-2.44-7.7-5.2-11.16-8.28c-4.51-4-9.86-5.66-15.68-6.03c-2.98-0.19-6.01-0.18-8.97,0.16
			c-6.41,0.73-10.9,4.47-14.25,9.75c-4.04,6.37-5.82,13.44-6.45,20.86c-0.2,2.31-0.47,4.61-1.07,6.86
			c-0.68,2.53-2.26,3.81-4.87,4.29c-7.39,1.35-14.88,1.59-22.32,2.43c-4.3,0.48-8.62,0.83-12.93,1.21
			c-0.62,0.05-1.68,0.49-1.78-0.18c-0.13-0.95,1.04-0.84,1.71-0.94c6.92-1.02,13.84-1.99,20.76-2.98c4.7-0.67,9.34-1.57,13.81-3.25
			c2.29-0.86,3.7-2.27,4.21-4.7c1.09-5.16,1.83-10.45,3.5-15.43c4.85-14.48,16.08-23.05,31.19-21.55c7.18,0.71,13.9,3.07,18.75,9.1
			c2.51,3.13,5.89,5.4,9.16,7.65c6.19,4.25,12.7,2.62,19.02,0.24c4.01-1.52,7.59-4.04,11.95-4.84c4.13-0.76,7.3,0.37,9.83,3.69
			c2.92,3.82,3.47,8.31,3.99,12.85c0.74,6.53,1.09,13.08,1.04,19.65c-0.02,2.13,0.6,3.54,2.77,3.97c4.29,0.84,5.61,3.65,6.35,7.75
			c2.33,12.81,5.15,25.53,7.8,38.29c0.09,0.42-0.19,1.16,0.47,1.2c0.65,0.04,0.55-0.72,0.7-1.14c3.13-9.03,5.3-18.31,7.33-27.63
			c1.27-5.84,2.4-11.7,3.53-17.57c0.19-0.98,0.45-1.46,1.56-1.39c3.5,0.22,6.97-0.2,10.46-0.41c2.81-0.17,3.53,0.95,2.55,3.62
			c-2.59,7.05-3.13,14.41-3.13,21.82c0,16.77,1.92,33.33,6.14,49.56c1.5,5.75,0.51,5.81-4.51,5.2c-3.05-0.37-6.12-0.69-9.18-0.94
			c-2.11-0.17-2.81-1.07-2.52-3.25c1.37-10.26,1.7-20.52-0.35-30.74C341.16,100.52,340.91,99.76,340.56,98.45z"/>
		<path class="st0" d="M57.09,86.23c0-2.08-0.09-4.16,0.03-6.23c0.09-1.55-0.53-1.96-1.85-1.5c-1.39,0.48-1.84-0.09-2.06-1.39
			c-0.49-2.94-1.05-5.88-1.66-8.8c-0.39-1.87,0.28-2.75,2.17-3.06c7.63-1.22,15.24-2.55,22.86-3.79c4.1-0.67,8.23-1.19,12.31-1.91
			c1.56-0.28,2.2,0.07,2.38,1.7c0.26,2.3,0.7,4.59,1.17,6.87c0.32,1.54-0.05,2.37-1.74,2.47c-0.73,0.04-1.43,0.46-2.17,0.55
			c-1.29,0.17-1.53,0.91-1.48,2.06c0.4,9.79,0.92,19.57,2.11,29.3c1.44,11.79,3.23,23.51,7.38,34.72c0.58,1.57,0.01,2.62-1.51,3.01
			c-3.06,0.77-6.16,1.36-9.23,2.1c-2.07,0.5-2.93-0.51-3.23-2.35c-1.2-7.54-2.42-15.08-3.6-22.62c-0.54-3.47-0.51-3.47-3.97-2.89
			c-1.31,0.22-2.63,0.7-3.93,0.64c-3.26-0.15-4.06,1.7-4.54,4.48c-1.2,7.03-2.68,14.01-4.05,21.02c-0.5,2.58-1.31,3.08-3.75,2.3
			c-2.29-0.74-4.58-1.48-6.87-2.23c-1.61-0.53-2.22-1.61-1.76-3.25C54.87,120.67,56.23,103.49,57.09,86.23z M76.5,88.49
			c-0.09,0-0.17,0-0.26,0c0-1.57,0.02-3.14,0-4.71c-0.09-6.63-0.17-6.65-6.84-5.1c-1.14,0.26-1.44,0.64-1.42,1.75
			c0.08,5.88,0.09,11.77,0.11,17.65c0,1.38,0.33,2.2,2.01,1.87c1.62-0.32,3.28-0.49,4.94-0.57c1.2-0.06,1.51-0.57,1.49-1.69
			C76.46,94.62,76.5,91.56,76.5,88.49z"/>
		<path class="st0" d="M208.31,67.53c-0.21-1.61,0.83-2,2.09-2.21c6.55-1.12,13.09-2.28,19.65-3.35c5.17-0.84,10.36-1.52,15.52-2.39
			c1.57-0.26,2.41-0.15,2.6,1.69c0.24,2.31,0.72,4.59,1.15,6.87c0.25,1.31,0.2,2.3-1.52,2.38c-0.73,0.03-1.44,0.41-2.17,0.54
			c-1.23,0.22-1.76,0.77-1.7,2.15c0.45,11.12,1.12,22.22,2.61,33.26c1.41,10.45,3.19,20.82,6.89,30.77
			c0.63,1.71-0.12,2.65-1.78,3.04c-2.75,0.64-5.49,1.3-8.25,1.91c-2.81,0.62-3.55,0.06-4-2.75c-1.26-7.87-2.59-15.72-3.77-23.6
			c-0.24-1.59-0.68-2.03-2.28-1.6c-1.76,0.47-3.61,0.91-5.4,0.85c-3.31-0.11-4.03,1.77-4.51,4.51c-1.22,7.03-2.68,14.01-4.05,21.02
			c-0.5,2.57-1.31,3.05-3.77,2.26c-2.29-0.74-4.58-1.49-6.87-2.23c-1.64-0.53-2.16-1.63-1.72-3.27c5.03-18.64,6.81-37.68,6.98-56.91
			c0.02-1.69-0.27-2.53-2.15-1.95c-0.66,0.2-1.38,0.55-1.6-0.71C209.69,74.36,208.98,70.95,208.31,67.53z M233.38,88.47
			c-0.14,0-0.28,0-0.42,0c0-2.81,0.07-5.63-0.05-8.43c-0.03-0.73,0.83-2.46-0.98-2.1c-2.38,0.48-5.25-0.53-7.03,2.02
			c-0.08,0.11-0.01,0.32-0.01,0.49c0.03,5.88,0.07,11.77,0.08,17.65c0,1.41,0.39,2.17,2.03,1.85c1.62-0.31,3.28-0.49,4.94-0.57
			c1.23-0.06,1.49-0.61,1.47-1.72C233.34,94.6,233.38,91.54,233.38,88.47z"/>
		<path class="st0" d="M132.46,83.93c0-7.22,0.08-14.45-0.06-21.67c-0.03-1.81,0.56-2.49,2.22-2.73c2.38-0.34,4.69-1.07,7.12-1.22
			c1.97-0.12,2.84,0.7,2.64,2.59c-0.71,6.7-0.94,13.41-1.04,20.14c-0.16,10.8,0.32,21.58,0.92,32.36
			c0.38,6.88,0.82,13.75,1.18,20.63c0.16,3.04-0.37,3.11-3.36,3.57c-4.99,0.77-7.61-1.23-10.02-5.57
			c-5.38-9.72-11.46-19.05-17.28-28.53c-0.26-0.43-0.34-1.27-1.1-1.05c-0.19,0.06-0.16,0.89-0.21,1.36
			c-0.86,9.35-1.5,18.71-0.85,28.11c0.12,1.79-0.91,2.64-2.66,2.23c-3.88-0.92-7.72-1.97-11.6-2.9c-1.15-0.28-1.35-0.71-1.13-1.9
			c1.81-9.54,3.49-19.1,4.46-28.77c1.02-10.18,1.26-20.37,0.5-30.58c-0.22-2.93,0.25-3.51,3.22-3.52c2.5-0.01,5,0.08,7.49-0.03
			c1.38-0.06,1.97,0.3,2.33,1.76c3.33,13.67,9.42,26.15,16.71,38.1c0.29,0.48,0.89,1.31,1.03,1.24c0.77-0.32,0.36-1.12,0.36-1.71
			c0.03-7.31,0.02-9.61,0.02-16.92C133.07,88.93,132.76,83.93,132.46,83.93z"/>
		<path class="st0" d="M272.31,139.01c-10.57-0.23-20.9-7.93-18.96-20.47c0.65-4.21,2.7-7.57,6.87-9.02
			c4.32-1.5,8.22-0.25,11.53,2.72c2.91,2.61,3.52,7.05,1.69,10.52c-0.78,1.49-1.95,2.68-3.58,2.82c-2.24,0.19-1.45,1.16-0.73,2.1
			c2.08,2.73,4.86,4.05,8.28,3.51c4.41-0.7,7.78-2.94,9.32-7.28c2.12-5.98-0.48-12.95-5.89-16.29c-2.71-1.67-5.7-2.65-8.67-3.71
			c-0.94-0.33-1.88-0.64-2.82-0.98c-11.39-4.14-14.86-10.56-12.39-22.42c3.96-18.96,25.88-22.35,37.7-13.38
			c3.8,2.88,4.94,6.79,4.04,11.28c-0.78,3.89-2.51,7.22-6.69,8.56c-3.06,0.98-5.76,0.37-7.96-1.97c-1.88-2.01-1.93-4.45-0.33-7.62
			c1.39-2.74,0.99-3.65-1.91-4.44c-4.71-1.28-8.9,0.22-10.26,3.67c-1.66,4.19,0.14,8.99,4.28,11.32c2.85,1.6,5.97,2.56,9.1,3.28
			c21.74,4.95,19.94,29.32,8.92,39.17C287.87,135.72,280.97,138.72,272.31,139.01z"/>
		<path class="st0" d="M173.34,121.76c-0.37-14.08-0.41-27.04-3.42-39.74c-0.99-4.17-1-4.19-5.15-3.66
			c-3.63,0.47-7.25,0.96-10.86,1.52c-1.51,0.23-2.3,0.11-2.62-1.79c-0.76-4.44-1.07-8.88-1.13-13.37c-0.03-2.17,0.81-2.95,2.99-2.8
			c15.87,1.07,31.5-0.76,47.01-3.99c2.78-0.58,3.7-0.05,3.83,2.66c0.12,2.49,0.13,4.99,0.45,7.45c0.28,2.1-0.7,2.61-2.5,2.91
			c-5.24,0.88-10.46,1.84-15.66,2.91c-3.88,0.8-3.89,0.9-3.86,4.94c0.12,17.2,0.94,34.34,4.48,51.24c0.49,2.34,1.3,4.62,1.98,6.92
			c0.53,1.79-0.16,2.87-2.04,2.9c-3.91,0.05-7.82-0.05-11.73,0.05c-1.45,0.04-1.83-0.44-1.81-1.82
			C173.38,132.25,173.34,126.43,173.34,121.76z"/>
		<path class="st0" d="M12.11,112.65c0.2-14.27-0.43-28.85-3.08-43.29c-0.39-2.12-0.96-4.2-1.41-6.31
			c-0.35-1.62,0.09-3.04,1.94-2.92c7.84,0.5,15.33-1.42,22.88-3.01c4.55-0.96,9.07-2.07,13.7-2.59c3.5-0.39,4.31,0.49,3.69,3.85
			c-0.78,4.25-1.93,8.4-3.35,12.48c-0.72,2.07-1.91,2.53-3.75,1.34c-5.9-3.82-12.02-2.9-18.23-1c-0.73,0.22-1.15,0.59-1.27,1.32
			c-0.88,5.33-1.57,10.67-0.99,16.1c0.2,1.88,1.06,2.39,2.78,2.14c2.81-0.42,5.55-1.09,7.98-2.61c0.88-0.55,1.58-0.58,2.47-0.04
			c0.93,0.56,0.78,1.31,0.74,2.16c-0.24,4.31-0.47,8.62-0.66,12.93c-0.04,0.86-0.02,1.62-1.04,2c-0.98,0.36-1.71,0.24-2.42-0.57
			c-2.31-2.63-5.24-2.4-8.28-1.74c-1.29,0.28-1.18,1.15-1.18,2.07c0.04,10.78,1.42,21.34,5.2,31.5c1.18,3.17,0.56,4.05-2.77,4.05
			c-3.58,0-7.16,0.01-10.74,0c-2.49-0.01-3.14-0.71-3-3.11C11.8,129.29,12.2,121.16,12.11,112.65z"/>
		<path class="st0" d="M217.85,37.89c1.19,0.12,3.36,0.18,5.47,0.59c6.12,1.17,11.28-1.02,16.06-4.47c4.3-3.11,8.46-6.41,12.75-9.54
			c1.08-0.79,2.31-2.05,3.8-1.05c1.45,0.97,1.18,2.66,0.97,4.12c-0.43,3-1.98,5.6-3.26,8.29c-2.56,5.38-5.2,10.73-8.24,15.87
			c-3.75,6.34-9.22,8.21-16.07,5.33c-5.92-2.49-10.77-6.47-14.95-11.29c-0.43-0.49-0.75-1.09-1.08-1.67
			C210.98,39.94,212.19,37.85,217.85,37.89z"/>
		<path class="st0" d="M366.02,32.2c-0.94,3.57-1.77,6.76-2.61,9.95c-0.14,0.54-0.07,1.34-0.78,1.42c-0.97,0.11-0.84-0.87-1.03-1.42
			c-0.85-2.47-1.64-4.96-2.62-7.4c-0.33,2.89-0.44,5.76,0.23,8.57c0.53,2.21-1.15,1.6-2.06,1.56c-0.91-0.05-2.67,1.18-2.47-1.34
			c0.53-6.61,1.49-13.21,0.72-19.88c-0.17-1.5-0.45-2.95-0.92-4.37c-0.15-0.45-0.56-0.99-0.17-1.4c0.53-0.56,1.05,0.14,1.56,0.26
			c2.71,0.63,4.1,2.24,4.4,5.14c0.3,2.96,1.11,5.87,1.72,8.8c0.06,0.3,0.23,0.8,0.42,0.83c0.57,0.09,0.48-0.51,0.58-0.83
			c1.22-3.71,1.96-7.55,2.76-11.36c0.27-1.3,3.69-2.59,4.73-1.8c0.37,0.28,0.18,0.54,0.09,0.85c-2.13,7.39-0.73,14.67,0.86,21.89
			c0.44,2.01-0.13,1.99-1.66,1.85c-3.26-0.29-3.24-0.24-3.04-3.5C366.85,37.51,367,35.03,366.02,32.2z"/>
		<path class="st0" d="M333.74,43.12c-4.11,3.85-8.73,3.11-10.92-1.75c-2.78-6.16-2.22-12.29,1.07-18.13
			c1.09-1.94,2.83-3.27,5.11-3.66c3.11-0.53,5.5,0.44,6.72,2.63c1.29,2.32,1.08,7.07-0.43,8.82c-1.27,1.47-2.96,1.72-4.46,0.68
			c-1.59-1.1-1.31-2.96-0.86-4.58c0.24-0.87,1.2-0.67,1.94-0.7c0.44-0.02,1.05,0.52,1.26-0.1c0.12-0.36-0.22-0.94-0.46-1.35
			c-1.27-2.12-3.64-2.07-5.26,0.21c-1.97,2.78-2.32,6.02-2.07,9.29c0.18,2.4,0.67,4.78,2.03,6.85c0.62,0.93,1.43,1.8,2.65,0.89
			c1.09-0.81,1.49-2.07,1.23-3.33c-0.17-0.84-1.16-0.44-1.71-0.33c-1.41,0.26-1.91-0.38-2.15-1.64c-0.3-1.55,0.9-1.29,1.68-1.51
			c2.48-0.68,4.97-1.35,7.46-1.98c0.7-0.18,1.91-0.91,1.85,0.52c-0.05,1.2,1.42,3.05-0.62,3.59c-1.66,0.45-1.58,1.32-1.45,2.5
			c0.15,1.4,0.4,2.81,0.42,4.21c0.01,0.7,0.74,2-0.41,2.05c-0.99,0.04-2.63-0.11-2.55-1.95C333.82,44.02,333.77,43.69,333.74,43.12z
			"/>
		<path class="st0" d="M350.04,19.96c0.7-0.07,1.38-0.12,1.51,0.82c0.1,0.76,0.79,1.85-0.22,2.19c-1.44,0.48-1.13,1.46-1.08,2.39
			c0.27,6.06,0.75,12.11,2.71,17.9c0.45,1.34,0,1.75-1.12,1.7c-1.04-0.05-2.6,1.73-3.06-0.71c-0.37-1.96-0.62-3.93-1-5.89
			c-0.13-0.71,0.11-1.94-1.24-1.6c-0.99,0.25-2.46-0.26-2.72,1.51c-0.29,1.97-0.75,3.91-1.08,5.87c-0.2,1.17-0.61,1.93-1.95,1.32
			c-0.98-0.45-2.55-0.18-1.93-2.28c1.29-4.39,1.75-8.95,1.93-13.52c0.06-1.67,0.45-3.24-1.06-4.85c-1.45-1.55-0.52-3.08,1.69-3.46
			C344.29,20.85,347.17,20.41,350.04,19.96z M346.86,29.21c0-0.9,0.1-1.57-0.03-2.2c-0.12-0.62,0.51-1.78-1.04-1.6
			c-1.06,0.12-1.67,0.4-1.59,1.62c0.1,1.47,0.14,2.95,0.09,4.43c-0.04,1.2,0.64,1.11,1.42,0.94
			C347.97,31.9,346.34,30.06,346.86,29.21z"/>
		<path class="st0" d="M403.68,36c0.07,5.88-6.81,10.24-12.12,7.68c-2.38-1.15-3.44-3.4-2.82-5.99c0.32-1.34,1.09-2.22,2.55-2.29
			c1.45-0.07,2.91-0.01,3.59,1.59c0.53,1.25,0.52,2.41-0.9,3.18c-1.1,0.59-0.21,1.06,0.2,1.42c0.92,0.79,1.98,0.79,3.01,0.21
			c1.42-0.8,2.2-2.02,2.03-3.69c-0.2-1.91-1.34-3.18-3.02-3.97c-0.75-0.35-1.57-0.55-2.34-0.84c-3.8-1.4-4.54-2.59-4.14-6.52
			c0.33-3.15,2.38-5.31,5.52-5.84c2.12-0.36,4.14-0.14,6.01,1c1.63,0.99,1.77,2.53,1.35,4.15c-0.34,1.33-1.22,2.14-2.69,2.12
			c-1.54-0.02-2.55-0.77-2.04-2.31c0.45-1.33,0.44-2.12-1.06-2.26c-1.42-0.13-2.42,0.56-2.61,2.06c-0.18,1.4,0.45,2.45,1.72,3.01
			c1.13,0.5,2.34,0.84,3.5,1.27C402.44,31.09,403.64,32.79,403.68,36z"/>
		<path class="st0" d="M228.67,24.94c0.01,2.66-0.46,4.89-1.89,6.86c-2.44,3.36-7,3.35-9.43-0.03c-2.75-3.81-2.57-9.87,0.4-13.47
			c2.15-2.61,5.91-2.75,8.3-0.35C228.06,19.98,228.6,22.52,228.67,24.94z"/>
		<path class="st0" d="M376.92,44.07c0.04,0-0.31-0.06-0.62,0.01c-2.22,0.49-2.81-0.04-2.28-2.48c1.24-5.81,0.97-11.73,0.33-17.6
			c-0.23-2.18,0.04-3.33,2.69-3.14c1.95,0.14,3.95-0.43,5.93-0.6c0.65-0.06,1.98-0.91,1.72,0.66c-0.2,1.22,1.06,3.21-1.35,3.58
			c-0.89,0.14-1.84,0.11-2.74,0c-1.68-0.2-2.35,0.38-2.41,2.14c-0.1,2.64,0.41,3.16,3.08,2.63c0.65-0.13,1.54-1.01,1.95-0.04
			c0.37,0.86,0.39,2,0.19,2.93c-0.25,1.13-1.26,0.36-1.9,0.34c-3.35-0.1-3.95,0.78-3.59,4.94c0.18,2.01,0.66,3.18,3.09,2.63
			c1.69-0.38,3.46-0.5,5.05-1.25c1.01-0.47,1.27-0.27,1.33,0.81c0.2,3.4,0.02,3.61-3.39,3.84
			C381.76,43.61,379.53,43.84,376.92,44.07z"/>
		<path class="st0" d="M234.92,22.09c0.2-4.27,5.63-8.35,10.52-7.88c1.83,0.17,3.61,0.57,5.11,1.75c0.62,0.49,1.07,1.09,0.92,1.91
			c-0.16,0.86-0.95,0.79-1.59,0.89c-0.82,0.13-1.64,0.33-2.46,0.37c-3.98,0.21-7.77,0.87-10.69,3.94c-0.39,0.41-0.9,0.86-1.52,0.41
			C234.77,23.15,234.91,22.58,234.92,22.09z"/>
		<path class="st0" d="M161.94,53.75c-0.25,0.12-0.56,0.29-0.89,0.42c-0.36,0.14-0.68-0.09-0.61-0.39c0.05-0.21,0.48-0.37,0.77-0.46
			C161.5,53.22,161.86,53.12,161.94,53.75z"/>
	</g>
</g>
</svg>
