<svg width="60" height="40" viewBox="0 0 60 40" fill="none" xmlns="http://www.w3.org/2000/svg"><g clip-path="url(#clip0)"><path d="M46.184 1.974c.31.039.617.017.926.02.796.006 1.59-.002 2.386.002.381.002.68.258.747.637.023.133.076.161.202.16.921.001 1.84.012 2.76.018.176 0 .351.003.527.006.99.024 1.623.877 1.35 1.829a72.967 72.967 0 00-1.253 5.002 43.088 43.088 0 00-.724 4.478c-.06.583-.102 1.164-.156 1.747-.01.1.02.152.12.18 2.27.718 3.843 2.24 4.933 4.315.648 1.234 1.104 2.537 1.3 3.924.102.712.128 1.432.104 2.15a16.102 16.102 0 01-.644 4.029c-.632 2.115-1.71 3.97-3.202 5.595-.763.83-1.593 1.58-2.56 2.165-1.414.853-2.943 1.283-4.596 1.233-1.76-.053-3.376-.55-4.8-1.614a8.17 8.17 0 01-1.712-1.754c-.105-.144-.11-.144-.248-.041-.702.53-1.402 1.064-2.106 1.591-.892.666-2.042.436-2.61-.516-.475-.796-.945-1.594-1.417-2.392-.013-.02-.023-.04-.035-.06-.03-.05-.06-.1-.13-.076-.059.021-.065.071-.066.124.002.1.001.204.006.308.033.787-.501 1.473-1.276 1.621-1.917.364-3.834.724-5.75 1.079a1.358 1.358 0 01-1.62-1.483c.012-.14-.033-.175-.185-.152a57.967 57.967 0 00-3.1.615c-1.98.44-3.951.917-5.915 1.411-.453.114-.812-.018-1.001-.374-.015-.029-.03-.058-.042-.086-.088-.23-.088-.23-.328-.139-1.087.417-2.172.836-3.26 1.252-.773.294-1.54-.16-1.66-.98 0-.006 0-.009-.003-.014-.04-.254-.047-.26-.287-.17-1.944.75-3.886 1.503-5.83 2.253-.828.318-1.616-.151-1.744-1.028-.398-2.706-.798-5.41-1.199-8.114l-.976-6.63c-.249-1.681-.497-3.367-.749-5.053a1.82 1.82 0 01-.02-.39c.005-.07.015-.1.095-.075.938.256 1.562.868 1.597 1.926 0 .014.004.028.01.068.07-.314.12-.607.305-.85.005.043.008.085.014.125.327 2.207.656 4.418.98 6.625.52 3.532 1.04 7.065 1.563 10.598.03.211.033.432.115.635.017.001.03 0 .037-.02.05.006.088-.022.13-.036 1.286-.496 2.57-.992 3.855-1.49.409-.158.817-.322 1.223-.483.031-.051-.002-.101-.01-.146l-.804-4.017c-.097-.49-.19-.981-.287-1.47l1.17-.395 1.442-.486c.004.028.005.056.009.085.309 2.128.615 4.256.928 6.384.046.319.07.642.153.954.016.007.03.005.032-.018h-.003c.055.012.099-.021.144-.038.723-.275 1.442-.55 2.161-.828.586-.225 1.171-.456 1.756-.68.565.306.815.803.854 1.456.038-.123.061-.22.095-.312.047-.131.078-.269.188-.368.013.14.1.04.14.031 2.896-.708 5.796-1.41 8.745-1.864.563-.087 1.12-.188 1.687-.247-.049.547-.1 1.091-.147 1.639-.008.083-.044.167.001.248.017.004.03.005.032-.017l-.003.002c.047.011.092 0 .137-.01 1.37-.256 2.74-.512 4.11-.77.256-.049.516-.074.764-.161.002-.036.01-.075.01-.111a50.64 50.64 0 01.003-1.96c.016-.857.04-1.716.092-2.57.04-.662.06-1.325.132-1.982.02.029.044.058.061.09l4.547 7.664c.033.055.047.131.118.16.02.002.025-.006.03-.022l-.001.002c.035-.02.072-.04.104-.063.785-.592 1.569-1.184 2.35-1.78.44-.334.87-.675 1.304-1.013.02.04.042.08.062.124.583 1.291 1.422 2.367 2.613 3.155a6.33 6.33 0 002.69.996c.551.136 1.111.133 1.67.07 1.328-.146 2.51-.67 3.571-1.474.907-.685 1.65-1.528 2.31-2.447.58-.806 1.083-1.656 1.46-2.581.012-.025.025-.05.035-.077.655-1.625.956-3.317.978-5.064a9.542 9.542 0 00-.71-3.771c-.427-1.041-.955-2.019-1.728-2.85a6.172 6.172 0 00-2.184-1.514c.03-.034.083.005.114-.035-1.156-.168-1.872-.946-1.946-2.355-.006.05-.011.083-.016.113-.11.585-.34 1.104-.803 1.499-.212.179-.443.306-.73.324-.289.018-.572.09-.852.158-1.44.386-2.632 1.178-3.644 2.255a13.559 13.559 0 00-3.188 5.596c-.143.5-.27 1.002-.306 1.525-.12.61-.173 1.229-.19 1.848-.014.476.005.952.036 1.43-.404-.566-.814-1.125-1.212-1.695-.563-.804-1.139-1.6-1.639-2.448.029-.015.055-.033.084-.048 1.514-.816 2.757-1.918 3.576-3.455a5.963 5.963 0 00.712-2.76 4.122 4.122 0 00-.312-1.833c-.397-.927-1.11-1.534-2.009-1.938-1.256-.564-2.59-.688-3.946-.686-.763.002-1.52.093-2.28.173a52.33 52.33 0 00-4.526.662c-.115.024-.238.019-.34.09-.001.064-.008.131-.007.195.028.53.027 1.058.027 1.586a82.607 82.607 0 01-.115 3.977c-.12 2.269-.268 4.532-.458 6.796-.808.141-1.619.282-2.427.426l-3.67.639c0-.235-.005-.472-.007-.707l-.01-1.802c.037-.006.073-.012.11-.02l4.725-.947c.04-.008.099.015.11-.057-.004-.037-.007-.073-.013-.11-.122-.706-.247-1.412-.363-2.12-.082-.503-.156-1.004-.232-1.51-.045.006-.092.009-.138.02-.764.155-1.526.313-2.29.468-.683.138-1.366.276-2.049.41.012-.306.017-.61.031-.916.024-.594.035-1.188.095-1.779.905-.137 1.806-.29 2.713-.41 1-.131 2-.232 3.002-.35.233-.026.19-.015.162-.184-.203-1.217-.407-2.431-.616-3.645-.063-.364-.104-.73-.2-1.088a.306.306 0 00-.15-.015c-.83.125-1.656.257-2.486.382-.697.106-1.395.215-2.092.322-.897.138-1.794.273-2.691.408-.666.1-1.333.2-2 .302-.444.07-.885.142-1.33.211-.036.006-.069-.01-.065.066.027.49.043.983.064 1.473.043.991.09 1.983.133 2.977.04.904.076 1.809.116 2.71.038.92.08 1.835.122 2.754.032.714.067 1.428.1 2.14.04.88.079 1.761.12 2.64l.096 2.018c-.01.038.003.084-.032.115l-.027-.108c-.854-4.048-1.355-8.144-1.69-12.262a148.156 148.156 0 01-.328-5.109c-.004-.1.03-.213-.038-.307-.02-.001-.045-.008-.047.025v-.003c-.048-.028-.086.006-.129.017l-1.742.512c-1.289.38-2.574.762-3.863 1.143-.069.032-.03.09-.025.132.305 2.061.616 4.12.921 6.18.073.48.137.962.206 1.444-.353.114-.702.229-1.055.34l-1.503.474-.138-1.984c-.084-1.2-.175-2.401-.26-3.602-.076-1.066-.147-2.135-.226-3.2-.01-.119.016-.246-.055-.356-.014-.001-.03-.005-.03.02l.004-.002c-.058-.015-.11.015-.161.031-.718.211-1.436.422-2.154.636-.886.261-1.771.526-2.657.79-.289-.233-.435-.558-.544-.9-.046-.151-.13-.327-.074-.457.056-.13.261-.117.403-.159 1.572-.466 3.145-.93 4.717-1.393.199-.06.21-.11.07-.255-1.012-1.031-1.63-2.269-1.895-3.688-.251-1.34-.257-2.683.09-4.001.405-1.558 1.089-2.975 2.272-4.105 1.089-1.04 2.396-1.587 3.89-1.687 1.52-.1 2.85.367 3.984 1.392.127.114.14.112.25-.023 1.03-1.275 2.362-1.983 3.998-2.09.95-.062 1.862.105 2.713.548a.33.33 0 00.213.033c.526-.092 1.053-.178 1.593-.27-.168.839-.613 1.358-1.506 1.39.87.162 1.327.71 1.316 1.578l-.003.098.011 1.385a5.913 5.913 0 00-.792-1.502c-.449-.599-.964-1.126-1.647-1.455a3.22 3.22 0 00-1.662-.315c-.325-.016-.635.054-.94.149-1.084.333-1.835 1.055-2.363 2.038a8.06 8.06 0 00-.834 2.452c-.021.124-.064.185-.192.225-.92.279-1.838.563-2.756.854-.577.183-1.149.376-1.723.565-.023.004-.024.024-.023.044.067.705.136 1.41.202 2.118.047.042.084-.006.12-.02.79-.282 1.58-.57 2.366-.854-.08.486-.24.94-.558 1.324a2.194 2.194 0 01-1.296.764.552.552 0 00-.067.006c-.645.107-1.235.025-1.707-.483-.2-.217-.351-.47-.448-.747a3.902 3.902 0 01.012-2.655c.248-.699.587-1.344 1.156-1.836.377-.325.81-.523 1.322-.465.378.04.701.22.992.46.045.036.083.092.12-.004.128-.17.255-.338.378-.509.333-.459.663-.918.97-1.396-.016-.115-.106-.182-.18-.254a3.514 3.514 0 00-2.499-1.062c-1.54-.029-2.78.587-3.726 1.797-.619.79-.954 1.71-1.185 2.672-.19.795-.228 1.606-.224 2.418.003.685.077 1.36.277 2.018.361 1.185 1.072 2.051 2.271 2.452.796.266 1.616.285 2.44.156.166-.026.34-.034.493-.125.068.027.129-.008.188-.027.95-.269 1.722-.803 2.342-1.565.55-.677.925-1.448 1.185-2.28.014.03.034.063.046.097.25.661.596 1.264 1.09 1.77.81.832 1.793 1.227 2.955 1.164a3.484 3.484 0 002.098-.76c.683-.533 1.135-1.244 1.504-2.014.135-.279.227-.578.353-.86.01.936.017 1.875.03 2.811.002.135-.027.275.023.407.017.004.033.007.032-.018v.006c.036-.003.072-.001.109-.01a45.686 45.686 0 012.887-.603 39.972 39.972 0 012.52-.38c-.003.089-.012.175-.01.265.006.223-.042.45 0 .672.391.017.784.009 1.176-.022 1.612-.131 3.1-.614 4.42-1.577.77-.56 1.433-1.212 1.9-2.051.122-.221.218-.458.335-.682-.017.348-.055.692-.089 1.038-.112 1.141-.215 2.282-.316 3.424-.011.133-.07.269-.018.406h.081a43.31 43.31 0 012-.196c.86-.065 1.717-.108 2.576-.131.528-.014 1.055-.033 1.58-.017l-.167 1.048c-.005.03-.041.073.022.088.042 0 .083.005.125.003.702-.05 1.407-.1 2.11-.156.19-.016.384 0 .569-.061-.004-.162.056-.318.058-.477.004-.315.076-.62.096-.932.01-.159.023-.322.059-.476.063-.293.079-.588.14-.88.035-.162.04-.332.09-.494.014.03.032.055.044.084.424.952.847 1.903 1.277 2.852.105.23.193.468.332.68.02.002.036.006.056.004.9-.06 1.797-.117 2.698-.176.03-.001.066.004.08-.04.042-.397.082-.793.13-1.19.16-1.347.388-2.68.662-4.007.27-1.295.575-2.58.918-3.853.092-.34.177-.682.266-1.022-.025-.044-.065-.024-.099-.023-.888-.007-1.775-.016-2.66-.02-.112.001-.23-.031-.338.015-.047.245-.093.491-.134.737-.143.84-.283 1.68-.428 2.52-.134.784-.27 1.568-.407 2.353-.082-.067-.087-.168-.112-.256a7.986 7.986 0 01-.284-1.437c-.04-.385-.096-.768-.135-1.156-.039-.39-.061-.783-.095-1.174-.024-.311-.063-.62-.074-.931-.011-.342-.023-.683-.031-1.025-.005-.142.04-.29-.009-.433l-1.692-.016c.136-.072.29-.077.456-.122-.778-.281-1.133-.748-1.078-1.381zm.48 14.332a1.388 1.388 0 00-.058.004l-2.571.188c-.174.014-.202.065-.106.219a6 6 0 01.511 1.06c.081.215.106.222.28.074a9.694 9.694 0 011.929-1.298l.075-.037c.054-.03.055-.083.042-.134-.014-.051-.054-.076-.102-.076z" fill="#1B3266"/><path d="M25.429 2.575c-.347-.148-.547-.426-.675-.77a1.992 1.992 0 01-.109-.515c-.008-.087.019-.118.106-.135.802-.133 1.604-.269 2.404-.405.405-.069.81-.138 1.216-.201.262-.042.387.08.36.344a82.87 82.87 0 00-.253 3.416 150.125 150.125 0 00-.165 3.712c-.005.17.07.225.234.174.256-.081.256-.081.273-.343.106-1.49.21-2.983.32-4.473.04-.544.083-1.092.12-1.637.03-.4.125-.514.516-.576 1.117-.177 2.238-.284 3.37-.233 1.228.053 2.413.282 3.516.853.078.041.134.042.184-.044.059-.1.153-.136.27-.137.98-.007 1.962-.02 2.94-.03 1.187-.013 2.377-.026 3.564-.036.671-.008 1.34-.018 2.011-.02.326-.001.479.134.548.451l.003-.002c-.047.067-.052.147-.07.222-.172.642-.661 1.018-1.3.986.196.074.397.106.568.22.035.022.093.026.089.09-.082-.025-.078.04-.087.09-.125.746-.245 1.492-.37 2.235l-.803 4.746-3.569.115c.032-.458.106-.909.171-1.363.827-.044 1.651-.09 2.479-.14.095-.005.201.033.284-.046.004-.025.009-.047-.018-.06.004-.105.019-.213.012-.317-.029-.555-.021-1.113-.033-1.67-.046-.058-.11-.026-.163-.024l-2.34.138.26-1.444c.541-.007 1.082-.023 1.622-.022.524.003 1.046.028 1.568.042.034.002.09.03.087-.045.004-.025.01-.046-.019-.06.005-.125.016-.25.016-.373a60.193 60.193 0 00-.034-1.222c-.011-.339-.026-.675-.04-1.011.003-.053-.037-.044-.067-.043l-.346.003c-1.736.02-3.472.037-5.208.06-.125 0-.255-.022-.38.023-.008.036-.021.071-.024.108-.068.716-.13 1.43-.207 2.145-.021.208-.01.424-.079.626 0-.008.004-.02.002-.028-.392-1.396-1.256-2.392-2.559-3.004-.846-.394-1.75-.547-2.678-.579a10.55 10.55 0 00-2.303.177c-.056.01-.132-.014-.163.07-.02.393-.036.788-.053 1.181-.028.649-.055 1.298-.08 1.947-.042 1.181-.085 2.363-.124 3.547-.002.075-.03.107-.102.114-.13.014-.258.03-.385.048-.856.112-1.713.228-2.57.343a54.032 54.032 0 01.032-3.488c.04-1.067.106-2.133.196-3.197.024-.286.04-.572.058-.859l-.024-.018a.053.053 0 00-.007.019l.003-.003c-.113-.018-.219.023-.325.038-.555.099-1.113.194-1.67.29z" fill="#1B3266"/><path d="M5.02 37.704c-.082-.203-.084-.421-.115-.636-.523-3.532-1.04-7.064-1.564-10.597l-.979-6.625c-.006-.043-.009-.082-.014-.124.16-.317.42-.524.725-.677.213-.107.436-.201.682-.208.025.035.064.049.105.06l1.362.336c0 .033.001.064.005.098l.327 2.461c.273 2.045.546 4.087.821 6.133.027.194.022.395.103.579-.002.02-.006.038-.007.055.003.045.003.092.008.137l.178 1.35c.185 1.385.374 2.769.556 4.154.043.324.106.65.118.977-.634.688-1.271 1.376-1.903 2.07-.129.143-.284.264-.374.44-.008.005-.02.013-.034.017zM27.175 9.797c.856-.116 1.713-.229 2.57-.344.129-.017.255-.037.384-.048.073-.007.1-.038.102-.114.04-1.181.082-2.363.124-3.547.025-.649.052-1.298.08-1.947.017-.392.037-.788.053-1.18.022.01.047.014.063.026l1.34 1.211c-.01.162-.007.324-.012.485-.008.436-.056.87-.059 1.306-.001.464-.059.927-.06 1.39-.003.427-.052.851-.057 1.278-.003.478-.053.952-.064 1.432-.012.582-.053 1.166-.079 1.751-.002.036-.013.075.024.102v.045c-.04.008-.06.038-.087.064-.265.265-.533.527-.798.795-.208.21-.408.426-.614.64-.042-.224.003-.45.001-.673-.003-.087.006-.176.009-.265.45-.502.9-1.004 1.37-1.532l-.27.041c-1.69.266-3.38.532-5.071.795a.32.32 0 00-.208.116c-.295.35-.601.69-.896 1.04-.148.175-.317.334-.438.533v-.006a.193.193 0 00-.032.018c-.05-.132-.021-.272-.024-.406-.015-.937-.019-1.876-.029-2.812l-.016-1.054c-.005-.433-.014-.869-.017-1.302-.007-.665-.012-1.333-.02-1.998l-.01-1.386c-.002-.03 0-.064.003-.097.045-.182.054-.374.138-.547.116-.244.27-.452.51-.585l.872.34c0 .177-.003.352-.003.528 0 .296.002.593.005.889.004.584.014 1.165.019 1.75.003.463-.004.926 0 1.387.005.573.018 1.149.02 1.722.004.463-.006.926.004 1.388.002.137-.004.276.007.456.154-.228.283-.418.415-.608.251-.36.502-.719.75-1.077z" fill="#FDDE78"/><path d="M5.225 19.233c-.455-.113-.907-.226-1.363-.336-.04-.01-.079-.024-.104-.06.087-.058.191-.035.29-.068-.405-.098-.802-.205-1.093-.533a973.03 973.03 0 012.657-.79c.718-.215 1.436-.426 2.154-.637.051-.016.103-.046.16-.031-.322.298-.644.595-.97.89-.576.524-1.155 1.046-1.731 1.565z" fill="#FDE8A7"/><path d="M2.23 16.869c-.188.929-.836 1.53-1.75 1.63-.096.01-.135.008-.105-.107.166-.685.58-1.133 1.247-1.344l.608-.18z" fill="#1B3266"/><path d="M25.963 3.36l-.872-.34c.257-.176.548-.244.883-.26-.196-.079-.391-.069-.545-.185.557-.095 1.115-.194 1.672-.287.107-.018.213-.059.326-.037-.018.02-.034.045-.054.06l-1.41 1.05z" fill="#FDE8A7"/><path d="M17.982 33.315l-.097-2.017c-.041-.88-.08-1.762-.12-2.642-.033-.714-.068-1.428-.1-2.14-.042-.918-.083-1.834-.122-2.752-.04-.905-.076-1.81-.116-2.711-.042-.992-.09-1.983-.133-2.977-.021-.49-.037-.983-.064-1.473-.003-.076.032-.06.066-.066.444-.072.886-.144 1.33-.21.666-.103 1.333-.2 2-.303.896-.135 1.793-.273 2.69-.409.697-.106 1.395-.212 2.092-.32.83-.13 1.657-.258 2.486-.384.05-.008.101-.007.15.016l-.937 1.537c-.196.325-.384.651-.578.977-.04.067-.07.14-.163.154l-1.037.16c-.833.128-1.662.257-2.495.388-.866.137-1.733.277-2.602.417-.104.018-.057.1-.057.152-.002.157.013.314.017.47.012.46.02.915.032 1.374l.04 1.455c.01.338.016.674.025 1.012.014.47.026.943.043 1.413.012.294-.002.592.035.885-.004.02-.008.036-.009.055.005.232.007.461.011.694l.04 1.454c.01.339.016.674.025 1.013.012.461.03.923.042 1.385.011.355.013.713.024 1.068.014.481.02.962.047 1.441.009.166-.044.341.046.5v.05c-.04.006-.067.03-.09.06-.492.582-.986 1.165-1.477 1.748-.7-.319-.906-.938-.986-1.641-.046.05-.011.122-.058.166z" fill="#FDDE78"/><path d="M29.662 16.052c.102-.071.227-.066.34-.09a51.861 51.861 0 014.525-.662c.76-.08 1.515-.171 2.28-.173 1.354-.002 2.691.122 3.947.686.899.404 1.611 1.01 2.009 1.938.252.586.34 1.2.311 1.832-.997-.211-1.997-.42-3.025-.637.034.05.044.067.059.087.437.615.489 1.285.276 1.99-.254.846-.758 1.532-1.39 2.13-.71.678-1.534 1.19-2.406 1.631-.406.206-.824.378-1.237.566-.005 0-.014 0-.02.002-.016.007-.036.011-.053.019-.643.249-1.295.473-1.958.659-.618.175-1.239.337-1.875.444l.002-.03c.02-.019.044-.034.062-.055.857-.906 1.712-1.815 2.569-2.72.717-.287 1.405-.631 2.055-1.05.433-.28.84-.592 1.175-.99.25-.296.44-.619.427-1.025l.026-.012c.73-.531 1.46-1.063 2.193-1.59.085-.063.045-.101-.004-.152a3.019 3.019 0 00-.941-.652c-.596-.273-1.224-.411-1.868-.497-.985-.133-1.973-.14-2.962-.089-.623.033-1.243.097-1.86.183-.366-.208-.707-.456-1.06-.685-.534-.35-1.066-.705-1.597-1.058z" fill="#FDE8A7"/><path d="M15.866 15.641c.07.094.034.206.039.307.08 1.706.188 3.408.327 5.11.338 4.118.836 8.216 1.69 12.261l.027.108c-.106.404-.31.745-.656.991-.345-.044-.678-.15-1.02-.219-.34-.069-.67-.19-1.018-.221 0-.037.002-.075-.004-.11-.218-1.337-.439-2.675-.654-4.012-.266-1.668-.59-3.325-.774-5.007-.079-.725-.175-1.45-.262-2.175-.12-1.002-.236-2.004-.353-3.003-.062-.517-.118-1.038-.176-1.558.728-.632 1.456-1.261 2.182-1.896.203-.18.422-.342.603-.548v.003c.017-.013.032-.02.049-.03z" fill="#FCC500"/><path d="M13.035 18.113l.175 1.559c.117 1.001.234 2.003.354 3.002.087.726.183 1.45.262 2.175.185 1.68.505 3.34.774 5.007.215 1.337.436 2.675.653 4.013.006.036.004.073.005.109-.018.015-.038.028-.053.044-.59.644-1.182 1.284-1.77 1.934-.182.2-.384.386-.537.613h.002c-.011.005-.023.013-.031.018-.086-.313-.107-.635-.154-.954-.312-2.128-.618-4.256-.928-6.385-.004-.028-.005-.056-.008-.081.019-.038.032-.076.057-.11.5-.729 1.006-1.456 1.504-2.186.194-.284.403-.552.57-.852.028-.01.018-.018.002-.03-.031-.041-.075-.05-.119-.064-.868-.276-1.732-.555-2.6-.834-.067-.482-.133-.963-.206-1.443-.308-2.06-.616-4.12-.921-6.18-.006-.042-.044-.1.025-.133.043.065.12.044.177.06.432.12.868.233 1.303.345.485.126.976.25 1.464.373zM29.662 16.052c.532.353 1.06.708 1.595 1.055.353.229.69.477 1.059.684l-.004.05c-.042.358-.09.718-.127 1.076-.04.397-.087.793-.132 1.187a146.35 146.35 0 00-.226 2.197c-.05.525-.104 1.052-.154 1.576-.086.855-.151 1.708-.226 2.564 0 .01 0 .019-.002.03a.08.08 0 00.002.025c-.03.188-.044.377-.062.566a65.01 65.01 0 00-.171 2.204c-.034.61-.123 1.215-.128 1.826-.006.74-.034 1.481-.05 2.22-.039.031-.083.062-.118.096-.506.462-1.009.924-1.517 1.386-.287.26-.576.519-.85.794l.003-.002c-.012.004-.023.012-.032.017-.045-.084-.009-.168 0-.248.045-.548.097-1.092.146-1.639.141-.164.28-.33.421-.495.46-.535.926-1.069 1.384-1.61.19-.225.404-.431.562-.684.015-.063-.027-.102-.063-.144-.371-.428-.753-.852-1.11-1.294-.244-.3-.52-.575-.756-.883.19-2.264.337-4.528.457-6.796.071-1.325.112-2.652.116-3.978a27.2 27.2 0 00-.027-1.585c.002-.064.009-.13.01-.195z" fill="#FDDE78"/><path d="M53.082 17.63c.835.349 1.566.851 2.183 1.513.774.829 1.302 1.807 1.728 2.85a9.554 9.554 0 01.71 3.771c-.022 1.747-.325 3.44-.978 5.065a.893.893 0 01-.035.076c-.142-.138-.271-.288-.407-.431-.386-.402-.752-.825-1.138-1.226-.128-.131-.241-.281-.384-.396.007-.028.009-.056.019-.083.32-1.01.537-2.038.53-3.105a7.649 7.649 0 00-.102-1.269c-.263-1.463-.936-2.701-2.068-3.679-.245-.21-.494-.42-.794-.548l.003-.005c-.21-.67-.421-1.34-.635-2.01.39-.34.858-.486 1.368-.523z" fill="#FCC500"/><path d="M54.76 28.854c.144.116.257.265.385.396.386.402.752.822 1.138 1.227.136.142.265.293.407.43a12.456 12.456 0 01-1.46 2.582c-.663.919-1.402 1.762-2.31 2.447-1.061.803-2.24 1.328-3.572 1.475-.558.062-1.117.065-1.669-.07-.247-.782-.498-1.56-.74-2.344-.072-.233-.175-.458-.203-.702l.003-.003c.05.006.102.006.152.015a7.295 7.295 0 002.044.075 5.909 5.909 0 003.449-1.544c.822-.746 1.423-1.654 1.883-2.66.194-.427.364-.863.471-1.32.009-.002.014-.004.023-.004z" fill="#F9B300"/><path d="M51.711 18.16c.21.669.421 1.339.635 2.009-.78-.391-1.608-.466-2.457-.345-1.16.166-2.17.682-3.08 1.409-1.075.858-1.824 1.955-2.313 3.24a8.693 8.693 0 00-.407 1.526l-2.381.713c.038-.52.163-1.025.306-1.524A13.558 13.558 0 0145.2 19.59c1.013-1.077 2.206-1.872 3.648-2.257.177.005.348.041.514.094.584.183 1.071.493 1.367 1.054.184.347.24.724.246 1.113.055-.242.093-.488.196-.716.127-.283.288-.535.54-.72z" fill="#FDE8A7"/><path d="M41.705 26.71c.795-.238 1.587-.477 2.382-.714-.005.036-.008.075-.018.108-.146.58-.25 1.168-.316 1.758a9.858 9.858 0 00-.03 2.026c.09.91.324 1.777.806 2.56.53.857 1.25 1.49 2.204 1.84.03.246.132.47.203.704.242.783.493 1.562.741 2.343a6.33 6.33 0 01-2.69-.996c-1.192-.786-2.03-1.864-2.613-3.156-.02-.043-.042-.083-.062-.124l-.036-.089-.023-.032h.003c-.014-.048-.024-.099-.044-.145a9.423 9.423 0 01-.537-1.961c-.046-.282-.084-.564-.124-.846-.03-.477-.05-.953-.037-1.43.02-.618.071-1.237.191-1.847z" fill="#FDDE78"/><path d="M5.225 19.233c.576-.522 1.155-1.04 1.732-1.562.325-.295.644-.593.97-.89l-.003.002.029-.02c.07.11.046.235.055.355.08 1.067.15 2.135.227 3.201.085 1.2.175 2.402.26 3.603.046.659.093 1.321.137 1.983-.498.6-1.001 1.198-1.496 1.8-.211.255-.439.5-.626.773l.003-.003-.03.026.003-.002c-.08-.184-.075-.385-.102-.58a3690.586 3690.586 0 01-1.149-8.594.318.318 0 01-.01-.092z" fill="#FCC500"/><path d="M35.278 25.368c.017-.008.037-.012.054-.02.023.042.042.082.067.123l.797 1.254c.797 1.26 1.596 2.52 2.392 3.78.354.56.706 1.121 1.057 1.683-.288.964-.578 1.926-.86 2.89-.081.278-.193.55-.228.84v-.002l-.03.023c-.07-.03-.085-.103-.117-.16l-4.547-7.664c-.017-.032-.04-.062-.061-.09l.001-.065.03-.029c.42-.727.84-1.454 1.25-2.185.067-.121.155-.235.195-.378z" fill="#FDDE78"/><path d="M12.742 14.461c-.15.091-.327.1-.493.125-.824.129-1.641.11-2.44-.156-1.2-.4-1.91-1.267-2.271-2.452-.2-.658-.274-1.333-.277-2.017-.004-.813.034-1.623.224-2.418.231-.963.566-1.883 1.185-2.673.946-1.212 2.183-1.829 3.726-1.797a3.522 3.522 0 012.5 1.062c.073.072.163.14.178.255-.202.017-.403.032-.605.053-.361.038-.72.082-1.082.12-.434-.144-.878-.167-1.328-.137a3.134 3.134 0 00-2.019.912c-.436.427-.742.944-.976 1.507a8.069 8.069 0 00-.504 1.872c-.075.476-.153.954-.12 1.436.065.99.445 1.841 1.164 2.527.884.844 2.08 1.119 3.202.529l-.064 1.252z" fill="#FDE8A7"/><path d="M31.038 30.927c-.161.25-.372.46-.562.685-.458.54-.924 1.072-1.384 1.61-.141.163-.28.33-.421.495-.567.061-1.124.16-1.687.246-2.95.456-5.849 1.156-8.746 1.864-.036.01-.124.11-.14-.03.379-.557.91-.82 1.595-.817-.238-.058-.471-.073-.67-.2.492-.583.986-1.165 1.477-1.748a.166.166 0 01.09-.059c1.517-.297 3.034-.593 4.552-.893l3.22-.631c.89-.172 1.785-.347 2.676-.522z" fill="#F9B300"/><path d="M31.038 30.927c-.891.175-1.785.347-2.676.522l-3.22.631c-1.518.297-3.035.594-4.552.893v-.05c.808-1.085 1.613-2.17 2.42-3.255 1.222-.212 2.447-.424 3.669-.64.808-.14 1.619-.281 2.427-.425.237.309.514.583.757.884.359.442.738.862 1.109 1.294.039.044.08.083.066.146z" fill="#FDE8A7"/><path d="M39.645 32.19c-.352-.56-.703-1.122-1.057-1.681-.796-1.26-1.593-2.52-2.392-3.781-.265-.42-.531-.838-.797-1.255-.025-.037-.045-.08-.067-.121.005-.003.014-.002.02-.002.055.007.11.01.165.016l1.239.189c.25.038.5.07.75.106.4.06.797.124 1.197.186.5.847 1.075 1.644 1.64 2.448.397.567.807 1.13 1.21 1.694.041.282.079.564.125.846.113.672.288 1.328.537 1.961.02.046.03.097.043.145-.041-.002-.083 0-.121-.013-.533-.157-1.063-.32-1.593-.479l-.9-.258zM46.84 10.989c-.049.161-.054.331-.09.494-.06.289-.076.587-.14.879-.032.154-.045.318-.058.476-.022.312-.092.62-.096.933-.001.159-.062.314-.058.476L45.12 13.21c.07-.347.143-.697.21-1.045.008-.047.03-.098-.01-.146v-.014l.037-.056c.09-.268.124-.548.184-.823.136-.642.255-1.288.385-1.93l.392-1.9c.105-.515.213-1.03.316-1.549l.22-1.128c.206-.137.413-.275.62-.418l1.023-.71c.049.142.003.29.008.432.009.342.02.683.032 1.025.01.31.05.62.074.931.03.39.056.783.095 1.174.036.385.095.768.134 1.156.05.49.147.968.284 1.437.025.088.03.192.112.256.003.045.003.092.014.138l.599 3.163c.009.04.026.077-.037.137-1.475-1.616-2.047-3.605-2.42-5.681-.087.486-.166.97-.246 1.45-.068.398-.14.792-.207 1.188-.035.232-.063.462-.098.691z" fill="#FCC500"/><path d="M20.23 18.557c.866-.14 1.732-.28 2.601-.417.83-.131 1.663-.257 2.495-.388.346-.053.692-.11 1.038-.16.093-.013.125-.087.163-.154.193-.326.384-.654.578-.977.31-.513.622-1.024.936-1.537.094.358.138.723.2 1.088.21 1.214.413 2.43.617 3.644.028.17.07.159-.163.186-1.001.117-2.002.218-3.001.35-.907.12-1.808.272-2.714.41-.077-.05-.155-.1-.23-.155l-.872-.634c-.532-.389-1.067-.775-1.599-1.164-.032-.021-.09-.033-.05-.092zM38.7 25.847l-1.197-.186c-.25-.038-.5-.07-.75-.107l-1.238-.188c-.056-.009-.11-.012-.166-.016.41-.191.83-.363 1.236-.566.872-.441 1.696-.955 2.407-1.63.629-.6 1.135-1.285 1.39-2.131.212-.705.16-1.375-.277-1.99-.013-.017-.025-.038-.058-.087 1.027.216 2.027.428 3.025.637a5.984 5.984 0 01-.712 2.761c-.82 1.537-2.062 2.639-3.576 3.455-.029.015-.055.033-.084.048z" fill="#F9B300"/><path d="M12.806 13.209c-1.121.59-2.318.312-3.202-.53-.72-.685-1.1-1.536-1.164-2.526-.033-.482.045-.963.12-1.436.1-.641.254-1.27.504-1.872.233-.56.54-1.08.976-1.507a3.133 3.133 0 012.019-.912c.45-.033.897-.01 1.328.138.082.49.16.982.248 1.473.017.088-.016.198.09.257-.037.096-.076.04-.12.004-.292-.24-.614-.42-.993-.46-.512-.055-.945.14-1.322.465-.57.494-.908 1.137-1.156 1.836a3.885 3.885 0 00-.011 2.655c.096.278.247.53.447.747.472.508 1.063.59 1.707.483a.55.55 0 01.067-.006c.154.392.304.784.457 1.176a.02.02 0 01.005.015z" fill="#FCC500"/><path d="M12.804 13.192l-.457-1.177c.52-.107.958-.352 1.297-.764.317-.384.476-.838.558-1.324.298-.355.594-.713.892-1.068l-.022-.035-2.503.689c-.196-.16-.398-.316-.59-.48-.151-.13-.323-.232-.443-.394.574-.189 1.15-.381 1.723-.565.918-.29 1.836-.575 2.756-.854.128-.04.17-.101.193-.225.15-.86.416-1.68.833-2.452.53-.982 1.279-1.705 2.364-2.038.306-.092.615-.165.94-.15.03.058.056.116.089.171.237.426.477.852.714 1.277a2.092 2.092 0 00-.92-.017c-.903.18-1.593.697-2.138 1.416-.596.792-.81 1.705-.784 2.681l-.354.187-.865.459a2.442 2.442 0 01-.007-.403c.02-.272.037-.545.058-.817l.015-.03c0-.003-.005-.006-.008-.009-.006.01-.01.022-.015.033-.034.042-.07.084-.098.13l-.879 1.374c-.004.022-.014.046-.01.069a5.282 5.282 0 01-.151 1.886c-.253.945-.769 1.702-1.625 2.198-.176.106-.356.209-.563.232z" fill="#FDE8A7"/><path d="M46.84 10.988c.032-.23.06-.457.1-.686.067-.398.14-.792.207-1.187.081-.484.16-.968.246-1.45.374 2.076.946 4.064 2.42 5.68.063-.057.043-.097.037-.136l-.599-3.164c-.008-.045-.008-.092-.013-.137l.406-2.354c.143-.84.283-1.68.429-2.52.04-.245.09-.49.133-.736.242.099.464.239.696.36.274.146.552.292.826.44-.014.05-.03.097-.042.146-.153.596-.308 1.192-.457 1.789-.202.797-.387 1.6-.56 2.405-.12.55-.238 1.102-.349 1.656-.095.477-.175.955-.27 1.432-.058.295-.088.595-.17.885l-.425.359c-.326.272-.647.55-.959.843-.14-.213-.227-.453-.332-.68-.43-.95-.85-1.9-1.276-2.852-.015-.037-.032-.066-.047-.093z" fill="#FDDE78"/><path d="M33.8 27.962l-.001.064c-.073.66-.093 1.324-.133 1.983a60.92 60.92 0 00-.091 2.57c-.012.652-.02 1.305-.003 1.96 0 .036-.005.072-.01.11l-.028-.007c-.7-.38-1.399-.76-2.102-1.137-.129-.07-.248-.158-.394-.19.017-.739.045-1.48.05-2.22.003-.611.095-1.217.128-1.826.042-.735.105-1.47.172-2.204.017-.189.032-.378.061-.566.263.162.525.324.785.489.345.22.683.454 1.032.666.174.11.332.25.534.308zM7.334 35.177c-.012-.327-.075-.653-.118-.977-.182-1.385-.372-2.768-.556-4.154-.06-.45-.12-.899-.178-1.35-.006-.044-.005-.092-.008-.137.208.058.378.19.563.29.511.282 1.01.58 1.518.866.202.113.407.218.608.33.097.488.191.98.288 1.47.268 1.338.539 2.676.804 4.017.008.045.044.095.01.146-.32-.06-.641-.12-.961-.174-.308-.053-.617-.098-.923-.15-.35-.068-.696-.14-1.047-.177z" fill="#FCC500"/><path d="M38.19 5.978c.068-.205.057-.418.079-.626.076-.713.139-1.43.207-2.146.002-.036.015-.072.023-.107.342.276.645.591.977.878.164.141.297.315.488.425l-.007.024c-.023.013-.028.035-.032.06-.09.795-.177 1.591-.267 2.384-.038.33-.08.66-.113.993-.008.075-.046.153.01.227v.016c-.01.01-.022.021-.03.032-.058.468-.12.936-.171 1.405-.057.493-.094.988-.162 1.478-.036.257-.047.516-.088.773-.023.144-.067.298-.01.447v.053c-.045.002-.077.028-.107.057-.493.44-.989.878-1.485 1.318-.052-.137.007-.273.018-.406.101-1.142.207-2.283.317-3.423.033-.347.072-.691.088-1.04l-.003.003c.01-.01.016-.024.025-.034.035-.504.114-1.004.133-1.508.037-.054.032-.113.039-.174.014-.189.013-.379.044-.564a1.8 1.8 0 00.027-.545z" fill="#FDDE78"/><path d="M49.874 13.406c.08-.291.113-.59.171-.886.095-.477.172-.955.27-1.432.11-.554.23-1.105.348-1.656.174-.804.359-1.605.56-2.405l.458-1.789c.011-.05.028-.098.042-.145.026-.01.052-.019.077-.031.5-.248 1.001-.495 1.504-.742-.089.34-.174.682-.266 1.022a66.542 66.542 0 00-.917 3.854 48.045 48.045 0 00-.663 4.007c-.048.396-.087.793-.13 1.19-.021-.01-.043-.015-.062-.027-.26-.187-.518-.38-.785-.559-.204-.133-.38-.306-.607-.401zM23.012 29.67l-2.419 3.256c-.09-.16-.037-.335-.046-.5-.028-.48-.033-.96-.047-1.441-.008-.356-.013-.713-.023-1.069-.012-.461-.03-.923-.043-1.385l-.024-1.012-.04-1.455c-.005-.232-.01-.461-.012-.693.025.01.052.017.076.032.568.392 1.136.788 1.707 1.177.286.194.559.404.857.58l.01 1.801c-.002.238 0 .472.004.71zM20.23 18.557c-.038.059.017.07.046.092.532.389 1.067.775 1.6 1.164l.872.634c.074.055.152.102.23.154-.06.591-.07 1.185-.095 1.779-.014.306-.02.61-.03.916-.21.171-.418.34-.624.51l-1.818 1.484c-.015.01-.027.021-.041.029h-.006c-.04-.294-.023-.592-.035-.886-.02-.47-.031-.943-.043-1.413l-.024-1.012c-.014-.484-.03-.971-.04-1.455-.013-.456-.02-.914-.033-1.373-.004-.157-.016-.314-.017-.47 0-.053-.05-.135.057-.153z" fill="#FCC500"/><path d="M9.16 30.044c-.201-.108-.406-.213-.608-.33-.505-.286-1.006-.586-1.517-.865-.186-.1-.356-.232-.564-.29.001-.02.005-.039.006-.055l-.002.002c.016-.001.03-.006.03-.026l-.004.003c.058.015.11-.015.161-.035l6.988-2.37c.08-.028.158-.082.251-.06-.17.3-.379.571-.57.852-.497.73-1.003 1.455-1.504 2.186-.024.034-.038.072-.057.11l-1.443.486c-.387.129-.776.26-1.166.392z" fill="#F9B300"/><path d="M37.922 8.806s.003-.002 0 0c-.114.222-.21.459-.333.683-.466.838-1.131 1.491-1.9 2.05-1.32.964-2.807 1.447-4.42 1.578-.391.03-.784.04-1.176.022.206-.213.407-.429.615-.639.262-.268.532-.53.797-.795.027-.026.05-.056.088-.064.161-.004.323-.005.482-.014.839-.05 1.649-.219 2.415-.574.758-.351 1.38-.859 1.787-1.606.303-.553.439-1.148.462-1.772.003-.092.033-.13.12-.149.407-.085.814-.177 1.22-.265-.018.504-.097 1.005-.132 1.508-.01.013-.016.024-.025.037z" fill="#FCC500"/><path d="M20.365 25.315h.005c.014.002.025.002.039.006.045-.003.092-.005.137-.01l2.972-.411c.826-.115 1.652-.232 2.479-.35.018.021.03.047.051.062.368.303.735.612 1.109.906.26.204.498.434.777.614-.008.072-.07.049-.11.057-1.574.319-3.148.631-4.725.946-.036.006-.073.015-.11.021-.297-.172-.57-.386-.856-.58-.571-.388-1.136-.785-1.707-1.176-.021-.015-.049-.022-.076-.032.01-.017.01-.033.015-.053zM24.487 8.935l.016 1.054c-.127.282-.218.578-.353.86-.372.769-.824 1.48-1.504 2.015a3.502 3.502 0 01-2.098.759c-.06-.11-.114-.22-.177-.33l-.674-1.207-.002-.014c.15-.01.304-.014.456-.035 1.33-.17 2.285-.86 2.854-2.083.255-.547.373-1.132.444-1.725.13.095.26.19.394.282l.644.424z" fill="#F9B300"/><path d="M13.904 26.019c-.093-.023-.172.03-.252.06-2.328.788-4.656 1.578-6.987 2.37-.051.016-.103.046-.161.034.187-.276.415-.518.626-.773.495-.602.996-1.201 1.496-1.8l1.503-.474c.353-.111.703-.226 1.055-.34.868.28 1.733.558 2.6.834.044.014.09.023.119.064.002.005.002.014.001.025zM25.997 24.55c-.827.118-1.653.235-2.479.35-.992.138-1.98.275-2.972.41-.045.006-.092.008-.137.01l.002-.032c.605-.495 1.213-.99 1.819-1.484.208-.171.417-.34.622-.51.683-.138 1.366-.273 2.048-.411.765-.155 1.527-.313 2.291-.468.045-.008.09-.011.138-.02l-.584.941c-.248.406-.5.811-.748 1.214z" fill="#FDE8A7"/><path d="M19.7 12.086l.674 1.208c.06.107.117.22.177.33-1.163.062-2.145-.333-2.956-1.164-.496-.507-.84-1.11-1.09-1.77-.01-.035-.031-.067-.046-.099a9.696 9.696 0 01-.323-1.383l-.044-.67.865-.459.354-.187c.033.53.072 1.06.194 1.582.138.584.348 1.137.71 1.618.374.501.858.86 1.484.994z" fill="#FDDE78"/><path d="M24.487 8.935c-.213-.142-.43-.282-.64-.426-.134-.09-.262-.187-.395-.282.028-.395.056-.787.02-1.18-.071-.843-.323-1.618-.885-2.266-.392-.452-.866-.795-1.442-.975l.003.003c-.237-.426-.477-.851-.715-1.277-.032-.055-.059-.116-.089-.17.585-.05 1.14.064 1.667.318.686.33 1.198.853 1.647 1.455.344.46.598.965.792 1.502.008.666.012 1.333.02 1.998l.017 1.3z" fill="#FCC500"/><path d="M37.502 13.67l1.485-1.319c.033-.028.062-.054.107-.057.07-.004.14-.008.207-.01.539-.026 1.08-.05 1.62-.077.623-.03 1.246-.063 1.868-.093.531-.027 1.062-.057 1.593-.08.312-.013.627-.051.94-.031v.014c-.527.435-1.053.87-1.577 1.306-.528-.014-1.055.003-1.58.016-.859.024-1.72.066-2.575.132a43.44 43.44 0 00-2.001.195.31.31 0 01-.087.003zM16.13 9.207c.07.471.188.931.324 1.384-.26.832-.632 1.604-1.185 2.281-.62.76-1.394 1.296-2.342 1.565-.06.016-.12.054-.188.027.021-.418.042-.835.066-1.253 0-.005-.002-.01-.001-.016.207-.023.386-.126.563-.227.856-.498 1.372-1.252 1.624-2.197a5.28 5.28 0 00.152-1.886c-.002-.023.005-.045.01-.07l.48.199c.166.063.322.151.497.193zM24.588 13.195c.12-.2.29-.359.438-.534.295-.35.6-.69.896-1.04a.327.327 0 01.208-.115c1.69-.263 3.38-.53 5.071-.795l.27-.042-1.37 1.532c-.845.095-1.683.23-2.52.381-.969.173-1.931.37-2.887.603-.034.006-.07.006-.106.01zM39.645 32.19c.297.087.598.173.896.262.533.157 1.063.319 1.593.479.038.01.083.008.121.013h-.002l.023.032.036.089c-.434.338-.865.682-1.304 1.014a731.08 731.08 0 01-2.35 1.78c-.032.025-.07.042-.104.062.038-.29.147-.56.229-.84.284-.964.574-1.926.861-2.89z" fill="#F9B300"/><path d="M13.035 18.113c-.49-.123-.979-.244-1.47-.37a69.863 69.863 0 01-1.303-.346c-.057-.018-.133.005-.177-.059l3.863-1.143c.58-.173 1.16-.342 1.743-.512.042-.011.083-.045.129-.017-.18.207-.4.369-.603.548-.723.635-1.454 1.267-2.182 1.9z" fill="#FDE8A7"/><path d="M31.038 33.315c.146.032.268.123.394.19.703.375 1.403.757 2.102 1.137l.028.008c-.248.087-.509.112-.765.16-1.37.259-2.74.514-4.11.77-.044.009-.09.022-.136.011.273-.276.563-.534.85-.794.505-.46 1.011-.924 1.517-1.386.038-.034.08-.065.12-.096zM7.334 35.177c.351.037.698.109 1.047.173.308.056.618.098.923.151.322.057.642.117.961.174-.408.16-.814.325-1.223.483-1.285.498-2.57.994-3.854 1.49-.043.017-.084.042-.13.036.089-.175.244-.297.373-.44.629-.69 1.269-1.379 1.903-2.067z" fill="#F9B300"/><path d="M51.711 18.159c-.251.185-.415.44-.541.72-.104.227-.142.473-.197.716-.003-.389-.062-.767-.246-1.114-.295-.56-.782-.868-1.366-1.053a1.923 1.923 0 00-.515-.095c.28-.068.563-.14.85-.157.292-.018.523-.146.732-.325.462-.392.693-.914.803-1.499.005-.03.01-.063.015-.113.075 1.41.79 2.187 1.946 2.356-.03.04-.083 0-.113.034-.507.038-.975.184-1.368.53z" fill="#FEFEFE"/><path d="M12.898 36.57c.153-.226.355-.414.537-.614.585-.647 1.18-1.29 1.77-1.934.015-.016.035-.028.053-.044.349.03.678.152 1.018.221.341.07.674.175 1.02.22-.33.266-.725.31-1.133.332.287.046.555.122.799.272-.586.227-1.171.455-1.756.68-.72.278-1.442.553-2.161.828-.049.017-.092.05-.147.038z" fill="#F9B300"/><path d="M25.997 24.55l.748-1.211c.193-.315.389-.629.584-.94.076.502.15 1.006.232 1.509.116.708.244 1.412.363 2.12.006.037.006.073.012.11-.278-.18-.52-.41-.777-.614-.373-.297-.74-.603-1.108-.906-.024-.021-.036-.044-.054-.068z" fill="#FCC500"/><path d="M16.959 35.023a2.143 2.143 0 00-.799-.272c.408-.022.804-.066 1.133-.333.347-.243.547-.585.656-.99.036-.032.022-.078.033-.116.047-.045.013-.117.055-.175.08.703.289 1.322.987 1.64.198.125.428.143.67.2-.686 0-1.217.26-1.595.817-.107.099-.141.24-.188.367-.034.093-.06.19-.096.313-.039-.65-.291-1.144-.856-1.451z" fill="#FEFEFE"/><path d="M12.569 9.515c.833-.228 1.669-.46 2.502-.688l.023.035c-.298.355-.594.713-.893 1.068l-2.365.854c-.037.014-.074.062-.121.02.284-.431.57-.86.854-1.289zM45.12 13.21l1.278 1.037c-.185.06-.379.046-.57.061-.702.056-1.407.106-2.109.156a.932.932 0 01-.125-.003c.37-.339.771-.643 1.159-.962.123-.098.228-.214.367-.289zM49.874 13.406c.228.095.403.268.603.404.268.18.522.374.786.559.019.012.04.016.063.026-.014.041-.05.036-.08.04-.901.06-1.799.119-2.7.176-.016.002-.035-.002-.055-.004.311-.292.633-.57.96-.843l.423-.358z" fill="#F9B300"/><path d="M45.12 13.21c-.142.075-.247.19-.367.292-.388.319-.786.623-1.159.962-.06-.015-.027-.06-.022-.088.053-.348.111-.7.167-1.048.527-.435 1.053-.87 1.576-1.306.045.044.022.096.01.146-.063.345-.133.692-.206 1.042z" fill="#FDDE78"/><path d="M13.724 6.294c-.105-.057-.075-.17-.09-.257-.088-.489-.165-.982-.247-1.474.361-.04.72-.082 1.082-.12.202-.02.404-.036.605-.054-.306.478-.639.937-.97 1.396-.124.17-.252.339-.38.51z" fill="#F9B300"/><path d="M45.475 3.487c.004-.064-.055-.065-.09-.09-.17-.111-.371-.147-.567-.22.638.032 1.127-.342 1.3-.987.018-.074.023-.155.07-.222-.058.636.296 1.1 1.072 1.382-.167.045-.323.046-.456.121-.291.11-.53.279-.647.584-.095.123-.112.272-.149.446-.01-.098-.017-.169-.026-.236-.057-.328-.201-.605-.507-.778z" fill="#FEFEFE"/><path d="M46.16 4.058c.116-.305.353-.474.646-.584l1.692.016c-.34.238-.679.476-1.023.711-.203.14-.413.278-.62.419-.22-.204-.466-.374-.696-.562zM53.304 4.323c-.5.247-1 .494-1.504.741-.026.013-.051.022-.077.032-.275-.146-.55-.295-.826-.442-.232-.12-.454-.26-.696-.36.112-.045.227-.013.338-.014.888 0 1.773.01 2.66.02.04-.001.08-.02.105.023z" fill="#FDE8A7"/><path d="M12.569 9.515c-.284.43-.57.858-.854 1.286-.066-.705-.135-1.41-.201-2.118-.002-.02 0-.037.022-.043.12.16.295.264.442.394.193.166.395.32.59.481z" fill="#FDDE78"/><path d="M7.95 16.763l-.029.02c-.001-.025.015-.021.029-.02zM15.866 15.641l-.046.025c.002-.033.024-.026.046-.025z" fill="#FDE8A7"/><path d="M24.556 13.206a.181.181 0 00.031-.017c.002.025-.015.02-.03.017zM38.527 35.941l.029-.022c-.001.016-.01.026-.029.022zM28.522 35.606c.011-.005.022-.013.03-.017 0 .019-.014.018-.03.017zM12.866 36.584l.031-.017c-.002.024-.015.023-.031.017zM5.02 37.704c.011-.008.023-.012.037-.02-.005.022-.018.024-.037.02z" fill="#F9B300"/><path d="M38.08 7.26c-.407.09-.811.18-1.22.266-.088.02-.115.057-.121.149-.023.624-.16 1.221-.462 1.772-.407.747-1.03 1.255-1.787 1.605-.766.354-1.576.522-2.415.575-.162.009-.323.01-.482.013v-.044c.02-.024.042-.048.066-.071.456-.48.916-.958 1.373-1.44.275-.083.531-.212.775-.364 1.02-.63 1.608-1.514 1.604-2.748.406.176.816.348 1.222.53.086.04.096.015.104-.063.023-.225-.01-.445-.046-.665-.21-1.281-.912-2.16-2.133-2.619-.432-.162-.881-.238-1.337-.292a6.802 6.802 0 00-1.328-.012c-.447-.403-.892-.809-1.34-1.212-.015-.015-.04-.019-.062-.026.028-.082.107-.06.163-.07a10.55 10.55 0 012.304-.177c.928.029 1.831.181 2.677.579 1.303.611 2.167 1.608 2.56 3.004.001.008-.002.02-.003.028.022.183.002.363-.029.545-.031.185-.03.375-.044.564-.007.061-.003.123-.04.174z" fill="#FDE8A7"/><path d="M46.16 4.058c.23.188.475.357.693.559-.074.375-.143.753-.22 1.128-.102.515-.21 1.03-.316 1.549-.13.634-.265 1.268-.392 1.899-.13.642-.25 1.288-.385 1.93-.057.276-.094.555-.184.823-.184-.162-.31-.374-.465-.557-.23-.272-.452-.554-.676-.831.268-1.583.536-3.163.802-4.746.125-.746.248-1.493.371-2.236.009-.047.002-.112.087-.09.306.171.45.448.506.782.013.067.017.137.027.236.04-.174.057-.323.151-.446z" fill="#FDDE78"/><path d="M25.963 3.36c.471-.35.942-.699 1.41-1.049.02-.015.035-.04.054-.06l-.003.002h.033c-.018.286-.034.573-.058.859a68.23 68.23 0 00-.196 3.196 58.47 58.47 0 00-.031 3.489c-.248.358-.497.72-.746 1.077l-.414.608c-.011-.18-.005-.319-.008-.456-.009-.464.001-.927-.003-1.388-.005-.573-.018-1.149-.02-1.722-.004-.463.003-.927 0-1.388-.005-.584-.015-1.165-.02-1.749a93.978 93.978 0 01-.004-.888c.003-.179.003-.355.006-.53z" fill="#FCC500"/><path d="M44.215 10.558c.224.277.445.559.676.83.158.187.284.396.465.558a.582.582 0 00-.034.057c-.313-.02-.628.018-.94.032-.53.021-1.062.052-1.593.08-.623.032-1.245.062-1.868.092-.54.027-1.081.05-1.62.078-.07.004-.14.008-.207.009v-.053l1.552-1.568 3.569-.115zM39.967 4.402c-.191-.107-.325-.283-.488-.425-.333-.284-.636-.602-.977-.878.125-.045.255-.023.38-.023 1.736-.023 3.472-.04 5.208-.06l.346-.003c.03-.001.07-.01.066.043-.353.433-.71.865-1.063 1.3-.448.005-.894.007-1.343.015-.71.007-1.421.02-2.13.031z" fill="#FDE8A7"/><path d="M39.967 4.402l2.13-.031 1.342-.015c.02.03.038.064.061.09.29.332.57.674.846 1.018.059.077.105.174.215.201-.004.022 0 .045.019.06.003.075-.054.047-.087.045-.523-.014-1.044-.04-1.568-.042-.54-.004-1.08.012-1.622.022-.236-.272-.51-.5-.762-.756-.188-.193-.385-.379-.579-.567-.002-.009.001-.017.005-.025z" fill="#F9B300"/><path d="M40.646 10.673l-1.551 1.568c-.058-.149-.014-.303.009-.446.044-.257.052-.516.088-.774.068-.49.105-.984.162-1.478.052-.469.113-.937.17-1.405.432.39.86.781 1.292 1.172-.065.454-.138.907-.17 1.363zM39.96 4.427c.194.188.388.376.579.567.25.257.528.484.761.756l-.259 1.444c-.495.297-.988.595-1.483.896-.054-.073-.018-.152-.01-.227.035-.33.075-.662.113-.992l.267-2.385c.004-.025.009-.047.032-.06z" fill="#FCC500"/><path d="M40.816 9.31l-1.292-1.172.03-.032c.132.023.267.006.4.007.702.003 1.406.014 2.108.009.203-.001.407.029.608-.012.006.12.124.154.186.227.197.225.4.442.603.662.03.03.052.064.1.065-.002.022 0 .044.018.06-.083.08-.19.04-.284.046-.822.05-1.65.095-2.477.14z" fill="#F9B300"/><path d="M42.672 8.113c-.203.04-.407.008-.607.012-.702.005-1.403-.006-2.108-.01-.133 0-.268.017-.4-.006v-.016c.496-.298.988-.596 1.484-.897l2.34-.138c.052-.002.116-.037.162.025-.3.332-.589.677-.87 1.03z" fill="#FDE8A7"/><path d="M44.561 5.665c-.11-.027-.156-.125-.215-.2a26.93 26.93 0 00-.846-1.018c-.023-.027-.04-.062-.06-.091.353-.433.709-.865 1.063-1.3.014.336.029.675.04 1.01.014.409.024.815.034 1.223 0 .128-.01.253-.016.376zM42.672 8.113c.282-.353.571-.698.871-1.033.01.556.002 1.111.033 1.67.004.105-.008.21-.012.317-.048.002-.073-.036-.1-.065-.2-.22-.406-.437-.603-.662-.065-.074-.182-.106-.189-.227z" fill="#FCC500"/><path d="M43.582 9.124c-.021-.015-.022-.038-.018-.06.027.013.023.035.018.06zM44.577 5.725c-.022-.016-.023-.038-.019-.06.03.013.026.035.019.06z" fill="#FCC500"/><path d="M27.456 2.252h-.032a.05.05 0 00.006-.018l.026.018z" fill="#FDE8A7"/><path d="M31.893 3.855a7.026 7.026 0 011.328.012c.456.054.905.13 1.337.292 1.218.455 1.92 1.338 2.132 2.62.037.22.07.44.047.664-.008.078-.018.102-.104.063-.406-.182-.813-.353-1.222-.53-.035-.282-.101-.557-.26-.799-.41-.615-1.028-.792-1.717-.82-.075-.001-.08.04-.087.096-.057.513-.123 1.022-.17 1.536a36.14 36.14 0 00-.146 3.102c-.456.479-.916.958-1.373 1.44-.02.023-.042.047-.066.07-.037-.027-.023-.065-.024-.102.027-.584.066-1.165.079-1.751.011-.477.058-.954.064-1.431.002-.427.054-.851.056-1.279.002-.463.057-.926.062-1.39.002-.435.05-.87.058-1.305a5.786 5.786 0 01.006-.488zM31.45 26.444c.074-.856.14-1.709.225-2.563.053-.525.104-1.052.154-1.577.07-.733.144-1.465.227-2.197.045-.396.09-.79.132-1.187.036-.358.085-.718.127-1.075.165.083.272.232.4.352.35.327.694.656 1.04.983l.749.71a18.42 18.42 0 00-.192 1.557c-.059.742-.167 1.48-.231 2.222-.857.905-1.712 1.814-2.57 2.72l-.061.055z" fill="#FCC500"/><path d="M34.5 19.889l-.747-.71c-.347-.33-.693-.658-1.04-.982-.129-.123-.236-.27-.4-.353l.002-.05c.619-.086 1.238-.15 1.861-.182.989-.051 1.977-.044 2.963.089.643.086 1.274.227 1.867.496.352.163.672.37.941.653.05.05.089.09.004.15-.732.53-1.463 1.06-2.193 1.592-.008.005-.017.007-.026.012a.88.88 0 00-.436-.659 1.445 1.445 0 00-.728-.195c-.69-.019-1.38.049-2.067.139z" fill="#F9B300"/><path d="M34.5 19.89c.689-.09 1.378-.158 2.07-.14.256.006.503.06.728.195.25.15.397.37.437.66.013.405-.177.728-.428 1.025-.334.398-.741.71-1.174.989-.65.419-1.338.766-2.055 1.05.064-.742.173-1.48.231-2.223.042-.522.106-1.043.192-1.557z" fill="#1B3266"/><path d="M33.8 27.962c-.202-.057-.36-.198-.534-.307-.349-.213-.687-.447-1.032-.667-.26-.167-.522-.326-.785-.488-.002-.009-.002-.017-.001-.026a17.111 17.111 0 001.874-.444 21.49 21.49 0 001.959-.66c-.04.14-.126.258-.197.382-.415.73-.835 1.457-1.251 2.185-.01.008-.024.015-.033.025zM13.904 26.018l.002-.03c.016.012.026.02-.002.03zM46.736 34.292c-.952-.351-1.675-.984-2.205-1.842-.481-.782-.715-1.648-.805-2.559a9.857 9.857 0 01.03-2.025c.063-.594.17-1.182.315-1.76.008-.035.01-.071.018-.107a8.95 8.95 0 01.407-1.527c.489-1.284 1.239-2.38 2.313-3.24.906-.723 1.917-1.24 3.08-1.408.85-.121 1.677-.043 2.456.345l-.003.005-.294.42c-.443.613-.883 1.23-1.326 1.844-.504-.085-.951.065-1.367.337-.453.298-.807.692-1.122 1.127-.592.822-1.01 1.733-1.365 2.677-.138.363-.311.723-.366 1.105-.11.758-.095 1.518.097 2.265.19.738.539 1.37 1.206 1.784.332.205.701.302 1.081.37-.547.552-1.098 1.103-1.643 1.657-.172.171-.363.326-.507.532z" fill="#F9B300"/><path d="M50.722 22.435c.443-.614.886-1.23 1.326-1.845.101-.138.196-.277.295-.42.303.13.552.338.794.549 1.13.974 1.802 2.212 2.068 3.679.076.418.102.841.102 1.269.007 1.067-.21 2.095-.53 3.105-.007.027-.012.055-.02.082l-.019.002c-.137-.026-.276.002-.415.004-.326.001-.652.014-.979.024-.34.011-.678.026-1.019.038.008-.036.019-.072.024-.108.142-.876.207-1.757.189-2.646-.017-.73-.088-1.452-.328-2.149-.255-.753-.676-1.356-1.488-1.584z" fill="#FDDE78"/><path d="M52.325 28.922l1.02-.038c.326-.01.652-.023.978-.024.14 0 .275-.03.415-.004a7.096 7.096 0 01-.471 1.318c-.457 1.007-1.058 1.916-1.883 2.661a5.908 5.908 0 01-3.449 1.545 7.291 7.291 0 01-2.044-.075 1.389 1.389 0 00-.152-.016c.14-.203.332-.355.502-.532.545-.554 1.095-1.105 1.643-1.657.201.027.407.035.609.009.775-.096 1.373-.49 1.852-1.091.493-.62.784-1.335.98-2.096z" fill="#FDE8A7"/><path d="M42.278 32.973c-.007-.012-.015-.02-.022-.032.007.012.015.02.022.032z" fill="#FCC500"/><path d="M6.51 28.478c-.002.019-.016.023-.03.025.009-.007.018-.018.03-.025z" fill="#FDE8A7"/><path d="M19.7 12.086c-.627-.135-1.11-.493-1.49-.997-.362-.482-.575-1.034-.71-1.618-.123-.519-.161-1.05-.194-1.582-.026-.98.188-1.89.784-2.681.545-.722 1.235-1.236 2.137-1.416.308-.061.617-.061.921.017l-.003-.003c-.023.055-.04.112-.066.166l-.566 1.28c-.386.014-.653.229-.877.519a2.108 2.108 0 00-.139.208c-.236.39-.375.817-.478 1.254-.18.77-.271 1.533.033 2.31.26.672.739 1.155 1.552 1.11-.074.115-.148.233-.223.348-.226.357-.473.702-.686 1.068.002.006.005.011.004.017zM16.13 9.207c-.175-.042-.331-.13-.494-.196-.16-.063-.32-.132-.48-.198.29-.46.585-.918.878-1.374.028-.046.067-.088.098-.13l.008.005-.058.818a2.17 2.17 0 00.008.402c.01.224.027.449.04.673z" fill="#FCC500"/><path d="M16.13 7.307l.015-.031.008.008c-.007.01-.013.021-.016.03l-.008-.007z" fill="#FCC500"/><path d="M37.922 8.805c.01-.01.015-.023.024-.033-.009.01-.015.02-.024.033z" fill="#1B3266"/><path d="M20.41 25.288l-.002.032c-.014 0-.024-.002-.038-.005a1.56 1.56 0 00.04-.027z" fill="#FDDE78"/><path d="M20.513 5.252l.566-1.28c.023-.054.043-.111.066-.166.58.18 1.05.523 1.442.975.563.648.814 1.423.885 2.266.033.396.008.788-.02 1.18-.071.596-.19 1.177-.445 1.725-.568 1.223-1.523 1.913-2.853 2.082-.152.018-.302.023-.456.035.212-.366.46-.71.686-1.067.074-.116.149-.234.22-.35.524-.05.909-.318 1.169-.768.225-.385.341-.807.339-1.249-.001-.857-.162-1.688-.53-2.466-.216-.46-.53-.824-1.07-.917z" fill="#FDE8A7"/><path d="M33.029 10.085a35.01 35.01 0 01.145-3.102c.047-.513.113-1.023.171-1.536.006-.055.012-.097.087-.095.689.028 1.307.204 1.716.82.16.241.226.514.26.798.008 1.235-.584 2.118-1.604 2.749-.244.154-.5.286-.775.366zM52.325 28.922c-.199.76-.487 1.477-.98 2.096-.478.598-1.077.995-1.852 1.09a2.475 2.475 0 01-.61-.008c-.38-.069-.749-.165-1.081-.37-.667-.415-1.016-1.046-1.206-1.784-.191-.747-.207-1.507-.097-2.265.055-.385.228-.742.366-1.105.355-.944.773-1.855 1.366-2.677.314-.436.67-.829 1.122-1.127.415-.272.862-.422 1.366-.337.815.228 1.233.83 1.492 1.584.236.697.31 1.42.327 2.15.021.886-.046 1.77-.189 2.646-.005.036-.016.071-.023.107zm-3.897-1.02c-.01.172-.027.383-.016.6.025.49.37.866.854.925.605.075 1.166-.327 1.315-.968.177-.754.184-1.522.085-2.285-.08-.645-.667-.889-1.21-.535a1.858 1.858 0 00-.476.48c-.376.52-.49 1.122-.552 1.783zM20.513 5.251c.537.093.853.457 1.071.918.368.78.53 1.609.53 2.466 0 .441-.116.864-.338 1.249-.263.45-.645.718-1.169.769-.813.045-1.292-.438-1.552-1.11-.302-.777-.214-1.54-.034-2.31.104-.44.242-.867.479-1.254.043-.07.087-.142.139-.208.221-.29.489-.505.874-.52z" fill="#1B3266"/><path d="M48.428 27.902c.062-.66.176-1.262.552-1.783a1.82 1.82 0 01.476-.48c.543-.354 1.13-.11 1.21.535.096.763.092 1.53-.085 2.285-.15.643-.707 1.043-1.315.968a.956.956 0 01-.854-.926c-.008-.213.005-.427.016-.6zM24.623 1.239c-.177.807-.62 1.303-1.494 1.337.87.162 1.327.71 1.316 1.578.045-.181.055-.373.138-.547.116-.244.271-.452.51-.584.257-.177.548-.244.883-.26-.195-.079-.39-.069-.545-.185-.347-.148-.546-.426-.674-.77a1.992 1.992 0 01-.11-.515c0-.022-.002-.042.002-.058l-.026.004zM2.955 18.239c-.288-.234-.435-.559-.544-.9-.034-.115-.09-.241-.091-.353l-.111-.007c-.214.866-.849 1.423-1.727 1.523-.022.002-.044.006-.058.005l-.005.067c.006 0 .014.003.02.004.938.255 1.562.868 1.597 1.925 0 .014.004.029.01.068.07-.314.12-.607.305-.849.16-.316.42-.523.725-.677.213-.106.436-.2.682-.207.087-.06.191-.036.291-.068-.409-.1-.806-.206-1.094-.531z" fill="#FEFEFE"/></g><defs><clipPath id="clip0"><path d="M0 0h60v40H0V0z" fill="#fff"/></clipPath></defs></svg>