<svg width="118" height="40" viewBox="0 0 118 40" fill="none" xmlns="http://www.w3.org/2000/svg"><path d="M42.01 26.753c.19.19.317.508.317.826 0 .254-.063.445-.127.635-.126.19-.253.318-.38.445-.19.127-.38.127-.633.127h-1.33v1.78c0 .063 0 .063-.063.063l-.063.063c-.064 0-.064 0-.064-.063l-.063-.064v-4.003c0-.063 0-.063.063-.063l.064-.064h1.456c.317 0 .57.127.823.318zm-.19 1.525c.19-.19.254-.381.254-.7 0-.317-.064-.508-.254-.698a.812.812 0 00-.633-.254h-1.33v1.906h1.33c.253.064.443-.064.633-.254zM46.253 30.566c0 .063 0 .063-.063.063l-.063.064h-.064c-.126-.064-.19-.191-.253-.318s-.127-.381-.127-.7c0-.317-.063-.571-.253-.698s-.38-.19-.633-.19h-1.393v1.779c0 .063 0 .063-.064.063l-.063.064c-.063 0-.063 0-.063-.064l-.064-.064v-4.003c0-.063 0-.063.064-.063l.063-.064h1.583c.253 0 .443.064.633.127.19.127.317.255.444.382.126.127.126.38.126.571 0 .255-.063.509-.19.7a.923.923 0 01-.57.38c.19.064.38.191.507.382.127.19.19.381.19.699 0 .254 0 .445.063.572.064.127.064.19.127.254l.063.064zm-1.393-2.034c.253 0 .443-.127.633-.318.19-.19.254-.444.254-.699a.817.817 0 00-.254-.635c-.19-.19-.443-.254-.696-.254H43.34v1.906h1.52zM49.61 30.502l.063.064c0 .063 0 .063-.063.063l-.064.064h-2.28c-.063 0-.063 0-.063-.064l-.063-.064v-4.003c0-.063 0-.063.063-.063l.064-.064h2.28c.063 0 .063 0 .063.064l.063.063c0 .064 0 .064-.063.064l-.064.063h-2.153v1.716h1.9c.063 0 .063 0 .063.064l.064.063c0 .064 0 .064-.064.064l-.063.063h-1.9v1.843h2.153c0-.064.064 0 .064 0zM54.295 26.499v4.066c0 .064 0 .064-.063.064l-.063.064c-.063 0-.063 0-.063-.064l-.064-.064v-3.621l-1.583 2.35c0 .064-.063.064-.063.064-.064 0-.064 0-.127-.063l-1.583-2.415v3.686c0 .063 0 .063-.063.063l-.064.064c-.063 0-.063 0-.063-.064l-.063-.064v-4.003s0-.063.063-.063l.063-.064c.064 0 .064 0 .127.064l1.71 2.542 1.71-2.542c.063-.064.063-.064.126-.064 0 0 .063 0 .063.064zM55.689 30.693l-.064.063c-.063 0-.063 0-.063-.063l-.063-.064v-4.003c0-.063 0-.063.063-.063l.063-.064c.064 0 .064 0 .064.064l.063.063v4.003l-.063.064zM59.995 26.499l.063.063v2.67c0 .253-.063.571-.19.762a1.244 1.244 0 01-.57.572c-.253.127-.507.19-.76.19s-.57-.063-.76-.19a1.244 1.244 0 01-.57-.572 1.696 1.696 0 01-.19-.763v-2.669c0-.063 0-.063.064-.063l.063-.064c.063 0 .063 0 .063.064l.064.063v2.67c0 .253.063.444.19.634.126.191.253.382.506.509.19.127.443.19.633.19s.444-.063.634-.19.38-.254.506-.509c.127-.254.19-.444.19-.635v-2.669c0-.063 0-.063.064-.063l.063-.064s-.063 0-.063.064zM64.997 26.499v4.066c0 .064 0 .064-.063.064l-.063.064c-.064 0-.064 0-.064-.064l-.063-.064v-3.621l-1.583 2.35c0 .064-.063.064-.063.064-.064 0-.064 0-.127-.063l-1.583-2.415v3.686c0 .063 0 .063-.063.063l-.064.064c-.063 0-.063 0-.063-.064l-.063-.064v-4.003s0-.063.063-.063l.063-.064c.063 0 .063 0 .127.064l1.71 2.542 1.71-2.542c.063-.064.063-.064.126-.064 0 0 .063 0 .063.064zM71.583 26.499v4.066c0 .064 0 .064-.063.064l-.063.064c-.064 0-.064 0-.064-.064l-.063-.064v-3.621l-1.583 2.35c0 .064-.064.064-.064.064-.063 0-.063 0-.126-.063l-1.583-2.415v3.686c0 .063 0 .063-.064.063l-.063.064c-.063 0-.063 0-.063-.064l-.064-.064v-4.003s0-.063.064-.063l.063-.064c.063 0 .063 0 .127.064l1.71 2.542 1.71-2.542c.063-.064.063-.064.126-.064l.063.064zM76.27 29.74c-.19.317-.444.571-.697.762-.317.19-.634.254-1.077.254-.443 0-.76-.063-1.076-.254-.317-.19-.57-.445-.697-.763-.19-.317-.253-.698-.253-1.143 0-.445.063-.826.253-1.144.19-.318.443-.572.697-.763.316-.19.633-.254 1.076-.254.443 0 .76.064 1.077.254.316.191.57.445.696.763.19.318.253.699.253 1.144 0 .38-.063.762-.253 1.143zm-.254-2.161c-.127-.318-.38-.508-.633-.699-.254-.19-.57-.254-.95-.254-.317 0-.634.063-.95.254-.253.19-.507.381-.633.699-.127.318-.254.635-.254 1.017 0 .38.064.699.254 1.016.126.318.38.509.633.7.253.19.57.253.95.253.316 0 .633-.063.95-.254.253-.19.506-.38.633-.699.127-.317.253-.635.253-1.016 0-.382-.063-.763-.253-1.017zM80.195 28.85c.127.19.254.445.254.699 0 .381-.127.635-.38.826-.254.19-.507.318-.887.318h-1.71c-.063 0-.063 0-.063-.064l-.063-.064v-4.003c0-.063 0-.063.063-.063l.063-.064h1.647c.316 0 .57.064.76.254.19.191.316.445.316.763 0 .254-.063.445-.19.635-.126.19-.253.318-.443.382.253.063.443.19.633.38zm-.443-1.97c-.127-.127-.38-.19-.633-.19h-1.457v1.715h1.457a.812.812 0 00.633-.254c.127-.19.253-.381.253-.7-.063-.253-.126-.444-.253-.571zm.127 3.368c.19-.127.253-.382.253-.7 0-.317-.064-.507-.253-.698-.19-.19-.444-.254-.76-.254h-1.52v1.842h1.52c.316 0 .57-.063.76-.19zM81.462 30.693l-.064.063c-.063 0-.063 0-.063-.063l-.063-.064v-4.003c0-.063 0-.063.063-.063l.064-.064s.063 0 .063.064l.063.063v4.003l-.063.064zM85.135 30.502l.063.064c0 .063 0 .063-.063.063l-.064.064h-2.216c-.063 0-.063 0-.063-.064l-.064-.064v-4.003c0-.063 0-.063.064-.063l.063-.064s.063 0 .063.064l.064.063v3.94h2.09c0-.064 0 0 .063 0zM88.3 30.502l.064.064c0 .063 0 .063-.063.063l-.063.064h-2.28c-.063 0-.063 0-.063-.064l-.064-.064v-4.003c0-.063 0-.063.064-.063l.063-.064h2.28c.063 0 .063 0 .063.064l.063.063c0 .064 0 .064-.063.064l-.063.063H86.02v1.716h1.9c.063 0 .063 0 .063.064l.064.063c0 .064 0 .064-.064.064l-.063.063h-1.9v1.843h2.153c.064-.064.127 0 .127 0zM93.937 28.66l.063.063v1.525c0 .064 0 .064-.063.127-.19.127-.38.254-.633.318-.19.063-.444.127-.697.127-.443 0-.823-.064-1.14-.254a2.188 2.188 0 01-.76-.763c-.19-.318-.253-.699-.253-1.143 0-.445.063-.827.253-1.144.19-.318.444-.572.76-.763.317-.19.697-.254 1.14-.254.253 0 .443 0 .633.064.19.063.38.127.57.254.063 0 .063.063.063.127 0 .063 0 .063-.063.063l-.063.064h-.064a2.13 2.13 0 00-1.076-.318c-.38 0-.697.064-1.013.254-.317.191-.507.382-.697.7-.19.317-.253.635-.253 1.016s.063.699.253 1.017c.19.317.38.508.697.699.316.19.633.254 1.013.254.19 0 .38 0 .57-.064.19-.063.38-.127.506-.254v-1.334h-1.076c-.063 0-.063 0-.063-.064l-.064-.063c0-.064 0-.064.064-.064l.063-.063h1.203c.063-.191.127-.191.127-.127zM98.053 30.566c0 .063 0 .063-.063.063h-.127l-.064-.064-.506-1.27h-2.026l-.507 1.27c0 .064-.063.064-.127.064h-.063l-.063-.064v-.063l1.646-4.003c0-.064 0-.064.063-.064h.064c.063 0 .126 0 .126.064l1.647 4.067zm-2.66-1.398h1.837l-.95-2.288-.887 2.288zM102.612 26.499v4.066c0 .064 0 .064-.063.064l-.063.064c-.064 0-.064 0-.064-.064l-.063-.064v-3.621l-1.583 2.35c0 .064-.063.064-.063.064-.064 0-.064 0-.127-.063l-1.583-2.415v3.686c0 .063 0 .063-.064.063l-.063.064c-.063 0-.063 0-.063-.064l-.064-.064v-4.003s0-.063.064-.063l.063-.064c.063 0 .063 0 .127.064l1.71 2.542 1.709-2.542c.064-.064.064-.064.127-.064 0 0 .063 0 .063.064zM106.285 30.502l.063.064c0 .063 0 .063-.063.063l-.063.064h-2.28c-.063 0-.063 0-.063-.064l-.064-.064v-4.003c0-.063 0-.063.064-.063l.063-.064h2.28c.063 0 .063 0 .063.064l.063.063c0 .064 0 .064-.063.064l-.063.063h-2.154v1.716h1.9c.064 0 .064 0 .064.064l.063.063c0 .064 0 .064-.063.064l-.064.063h-1.9v1.843h2.154c.063-.064.063 0 .063 0zM107.488 30.629c-.253-.127-.443-.254-.633-.508l-.063-.064c0-.063 0-.063.063-.063l.063-.064c.064 0 .064 0 .127.064.19.19.316.317.57.444.19.128.443.128.696.128.317 0 .57-.064.76-.255a.76.76 0 00.317-.572.721.721 0 00-.19-.508c-.127-.127-.253-.254-.38-.318-.127-.063-.38-.19-.633-.254-.254-.127-.507-.19-.634-.254-.126-.064-.316-.19-.379-.318-.127-.127-.19-.317-.19-.572 0-.19.063-.38.19-.571.126-.191.253-.318.443-.382.19-.063.443-.127.696-.127.254 0 .444.064.697.127.253.064.38.19.507.382a.197.197 0 01.063.127c0 .063 0 .063-.063.063 0 0-.064.064-.127.064s-.063 0-.063-.064c-.127-.127-.254-.254-.444-.317-.19-.064-.38-.128-.57-.128-.316 0-.57.064-.76.191a.667.667 0 00-.316.572c0 .19.063.318.126.445.127.127.254.19.38.317.127.064.317.128.57.255.254.127.507.19.697.254.19.063.317.19.443.381.127.19.19.381.19.635 0 .191-.063.382-.19.509-.126.19-.253.317-.443.381-.19.127-.443.127-.697.127-.316 0-.57-.063-.823-.127zM50.686 19.763a6.052 6.052 0 01-2.09 2.288c-.886.572-1.9.826-3.04.826-1.139 0-2.152-.254-3.039-.826a6.052 6.052 0 01-2.09-2.288c-.506-.953-.76-2.033-.76-3.177 0-1.144.254-2.224.76-3.177a6.052 6.052 0 012.09-2.288c.887-.571 1.9-.826 3.04-.826 1.14 0 2.153.255 3.04.826a6.052 6.052 0 012.09 2.288c.506.953.759 2.033.759 3.177 0 1.144-.253 2.224-.76 3.177zM48.66 14.49a3.879 3.879 0 00-1.33-1.525 3.343 3.343 0 00-1.9-.572c-.696 0-1.33.191-1.9.572-.57.381-1.013.89-1.266 1.525-.317.636-.443 1.335-.443 2.16 0 .763.126 1.526.443 2.161a4.3 4.3 0 001.267 1.525c.57.381 1.203.572 1.9.572.696 0 1.329-.19 1.899-.572a3.878 3.878 0 001.33-1.525c.316-.635.443-1.334.443-2.097a4.125 4.125 0 00-.443-2.224zM60.438 14.235c.443.699.697 1.716.697 2.923v4.702c0 .318-.127.572-.317.763-.19.19-.443.317-.76.317-.316 0-.57-.063-.76-.317a1.054 1.054 0 01-.316-.763v-4.702c0-.636-.127-1.144-.38-1.525-.254-.381-.697-.572-1.393-.572-.697 0-1.204.19-1.584.572-.38.381-.57.89-.57 1.461v4.703c0 .317-.126.571-.316.762-.19.19-.443.318-.76.318s-.57-.064-.76-.318a1.054 1.054 0 01-.316-.762V14.17c0-.317.126-.571.316-.762.19-.19.443-.318.76-.318s.57.127.76.318c.19.19.317.445.317.762v.445c.316-.445.696-.762 1.203-1.08.506-.318 1.076-.445 1.646-.445 1.267.127 2.09.445 2.533 1.144zM71.203 18.493c-.19.19-.443.254-.76.254h-5.762c.126.7.443 1.207.95 1.589a2.773 2.773 0 001.71.572c.506 0 .823-.064 1.14-.128.253-.063.506-.19.633-.254.126-.127.253-.19.316-.19.19-.127.38-.127.57-.127.253 0 .443.063.633.254.19.19.254.381.254.635 0 .318-.19.572-.507.89-.317.254-.76.508-1.33.699-.57.19-1.076.254-1.646.254-.95 0-1.837-.19-2.533-.636-.697-.38-1.267-.953-1.71-1.715-.38-.7-.57-1.525-.57-2.415 0-1.017.19-1.906.633-2.669.444-.762.95-1.334 1.647-1.715.696-.382 1.393-.636 2.216-.636.76 0 1.52.191 2.153.636.697.445 1.203 1.016 1.647 1.715.38.7.633 1.462.633 2.288 0 .318-.063.572-.317.699zm-6.459-1.462h4.56v-.127c-.064-.508-.317-.89-.697-1.27-.443-.382-.95-.509-1.457-.509-1.33 0-2.153.636-2.406 1.906zM81.019 10.486c.19.19.316.445.316.762 0 .318-.126.572-.316.7-.19.19-.444.253-.76.253h-2.723v9.595c0 .318-.127.572-.317.763-.19.19-.506.318-.823.318-.317 0-.57-.127-.823-.318a1.054 1.054 0 01-.317-.763v-9.531h-2.723c-.317 0-.57-.064-.76-.254a1.054 1.054 0 01-.316-.763c0-.317.126-.508.316-.699.19-.19.444-.254.76-.254h7.726c.316-.063.57 0 .76.19zM88.934 20.59c-.443.762-1.013 1.334-1.71 1.715a5.026 5.026 0 01-2.406.636c-.887 0-1.71-.19-2.406-.636-.697-.38-1.267-.953-1.71-1.715-.443-.763-.633-1.589-.633-2.542 0-.953.19-1.78.633-2.542.443-.762 1.013-1.334 1.71-1.715.696-.445 1.52-.636 2.406-.636.886 0 1.646.191 2.406.636.697.445 1.33 1.016 1.71 1.715.443.763.633 1.589.633 2.542 0 .953-.19 1.78-.633 2.542zm-1.836-4.067c-.254-.445-.57-.826-.95-1.017-.38-.254-.823-.38-1.33-.38-.507 0-.95.126-1.33.38-.38.255-.696.572-.95 1.017-.253.445-.38.953-.38 1.525s.127 1.08.38 1.525c.254.445.57.763.95 1.017.38.254.823.381 1.33.381.507 0 .95-.127 1.33-.381.38-.254.696-.572.95-1.017.253-.445.38-.953.38-1.525s-.127-1.08-.38-1.525zM98.813 13.473c.19.19.316.445.316.763v4.638c0 1.271-.316 2.224-1.013 2.987-.697.762-1.71 1.08-2.976 1.08-1.267 0-2.28-.381-2.976-1.08-.697-.7-1.014-1.716-1.014-2.987v-4.638c0-.318.127-.572.317-.763.19-.19.443-.318.76-.318.316 0 .57.127.76.318.19.19.316.445.316.763v4.638c0 .7.127 1.271.444 1.589.316.317.76.508 1.393.508s1.14-.19 1.456-.508c.317-.318.444-.89.444-1.589v-4.638c0-.318.126-.572.316-.763.19-.19.444-.318.76-.318.253.064.507.127.697.318zM107.615 13.663c.633.318.886.7.886 1.208 0 .254-.063.508-.253.699a.755.755 0 01-.57.317c-.19 0-.316 0-.443-.063-.127-.064-.253-.127-.317-.19-.126-.064-.19-.191-.316-.191a1.194 1.194 0 00-.507-.127c-.253-.064-.38-.064-.57-.064-.886 0-1.583.254-2.026.826-.507.572-.76 1.27-.76 2.097 0 .826.253 1.525.76 2.097.506.572 1.14.826 1.9.826.569 0 1.013-.064 1.266-.19.063-.064.19-.128.317-.191.126-.064.253-.127.316-.191.127-.064.254-.064.38-.064.317 0 .507.064.697.255.19.19.253.444.253.699 0 .254-.19.571-.507.762-.316.254-.759.445-1.266.572a7.044 7.044 0 01-1.71.19c-.886 0-1.71-.19-2.343-.635a4.565 4.565 0 01-1.583-1.715 5.479 5.479 0 01-.57-2.479c0-.953.19-1.779.57-2.541.38-.763.95-1.335 1.647-1.716.696-.445 1.519-.635 2.343-.635 1.013 0 1.773.127 2.406.444zM117.367 14.236c.443.698.633 1.715.633 2.922v4.639c0 .318-.127.572-.317.763-.19.19-.443.317-.76.317-.316 0-.569-.127-.759-.317a1.054 1.054 0 01-.317-.763v-4.639c0-.635-.127-1.143-.38-1.525-.253-.38-.697-.571-1.33-.571-.633 0-1.14.19-1.52.571-.38.382-.57.89-.57 1.462v4.639c0 .317-.126.571-.316.762-.19.19-.443.318-.76.318s-.57-.127-.76-.318a1.054 1.054 0 01-.317-.762V11.311c0-.317.127-.571.317-.762.19-.19.443-.318.76-.318s.57.127.76.318c.19.19.316.445.316.762v3.432c.317-.445.697-.763 1.204-1.08a2.849 2.849 0 011.583-.445c1.266 0 2.089.318 2.533 1.017z" fill="#1D1934"/><path d="M21.404 25.291a1.215 1.215 0 00-.127 1.716 1.205 1.205 0 001.71.127c2.026-1.652 3.166-4.13 3.166-6.735 0-4.83-3.926-8.77-8.739-8.77-4.812 0-8.738 3.94-8.738 8.77a8.757 8.757 0 003.23 6.799c.506.444 1.266.317 1.709-.191.443-.508.317-1.27-.19-1.716-4.623-3.749-2.026-11.31 3.926-11.31 5.953.127 8.612 7.561 4.053 11.31zM25.076 31.201c3.293-2.415 5.446-6.29 5.446-10.675a1.204 1.204 0 10-2.406 0c0 3.622-1.773 6.799-4.496 8.769-.507.381-.633 1.144-.253 1.652s1.14.635 1.71.254z" fill="#002DB8"/><path d="M12.412 3.75c-.634.191-1.014.827-.824 1.462.19.636.824 1.017 1.457.826 9.625-2.86 19.25 4.321 19.25 14.361 0 .635.507 1.207 1.204 1.207.633 0 1.203-.508 1.203-1.207C34.639 8.771 23.493.383 12.412 3.751z" fill="#002DB8"/><path d="M25.647 10.232c-8.486-6.926-21.404-.89-21.404 10.23 0 7.308 5.89 13.218 13.171 13.218.634 0 1.204-.509 1.204-1.208s-.507-1.207-1.204-1.207c-5.952 0-10.765-4.83-10.765-10.802 0-9.087 10.575-14.043 17.541-8.388.507.445 1.267.318 1.71-.19.38-.445.317-1.208-.253-1.652z" fill="#002DB8"/><path d="M1.203 19.382C.57 19.382 0 19.89 0 20.59 0 30.184 7.789 38 17.35 38a17.44 17.44 0 0011.146-4.067c.507-.444.57-1.207.127-1.715a1.205 1.205 0 00-1.71-.127c-2.66 2.287-6.08 3.495-9.625 3.495-8.296 0-15.008-6.736-15.008-15.06.126-.636-.444-1.144-1.077-1.144z" fill="#002DB8"/></svg>