<svg width="110" height="40" viewBox="0 0 110 40" fill="none" xmlns="http://www.w3.org/2000/svg"><g clip-path="url(#clip0)"><path d="M73.682 5.95H72.56V5h-5.127v8.15h1.964v-3.125h3.163v-1.1h1.122V5.95zm-4.285.975h2.321v1.2h-2.32v-1.2zM81.053 5.95H79.93V5H75.9v.95h-1.147v6.225h1.148v.95h4.03v-.95h1.122V5.95zm-1.939.975v4.3h-2.372v-4.3h2.372zM110 5h-6.096v1.925h2.066v6.225h1.964V6.925H110V5zM102.706 6.925V5h-6.223v8.15H102.706v-1.925h-4.26v-1.2h3.163V8.1h-3.162V6.925h4.259zM95.54 8.1V5h-1.965v3.1h-2.32V5H89.29v8.15h1.964v-3.125h2.321v3.125h1.964v-3.125h-.995V8.1h.995zM88.372 8.1V5.95H87.25V5h-4.03v.95h-1.147v6.225h1.148v.975h4.03v-1.175h1.121v-2.15H86.41v1.4h-2.372v-4.3h2.371V8.1h1.964zM95.36 26.85h-6.095v1.925h2.066V35h1.964v-6.225h2.066V26.85zM88.245 28.775V26.85h-6.198V35h1.939v-3.1h3.162v-1.925h-3.162v-1.2h4.259zM73.529 28.775V26.85H68.58v.975h-1.148v2.95h1.148V31.9h2.984v1.175h-4.132V35h4.948v-1.125h1.148v-2.95H72.38v-.95h-2.984v-1.2h4.132zM80.798 27.825h-1.046v-.95h-4.03v.95h-1.147v6.225h1.147V35h4.03v-.95h1.046v-6.225zm-1.964.95v4.3h-2.296v-4.3h2.296zM79.828 16.9v-.95h-4.03v.95h-1.147v7.175h1.964V22h2.372v2.075h1.964V16.9h-1.123zm-3.213 3.175V17.85h2.372v2.225h-2.372zM103.547 17.85v-1.925H98.6v.975h-1.123v2.95H98.6v1.1h2.984v1.2h-4.107v1.925h4.948V22.95h1.122V20h-1.122v-.95h-2.984v-1.2h4.106zM96.432 17.85v-1.925h-6.198v8.15h6.198V22.15h-4.234v-1.2h3.163v-1.9h-3.163v-1.2h4.234zM70.621 19v1.925h1.148v1.225h-2.372v-4.3h3.214v-1.925h-4.03v.975h-1.148v6.2h1.148v.975h4.03V22.9h1.122V19H70.62zM87.301 15.925v2.05h-1.097v1.075h-1.3v-1.075h-1.071V17h-.995v-1.075h-.97v8.15h1.965V20.85h1.173v1.35h1.097v-1.35H87.3v3.225h1.964v-8.15h-1.964zM5.381 5H2.856v2.475h2.525V5zM8.212 5H5.687v2.475h2.525V5zM11.069 5H8.544v2.475h2.525V5zM13.9 5h-2.525v2.475H13.9V5zM16.756 5h-2.525v2.475h2.525V5zM19.587 5h-2.525v2.475h2.525V5zM22.444 5h-2.525v2.475h2.525V5z" fill="#111"/><path d="M25.275 5H22.75v2.475h2.525V5z" fill="#FF6D01"/><path d="M42.133 5h-2.525v2.475h2.525V5z" fill="#FFB918"/><path d="M44.99 5h-2.525v2.475h2.525V5zM47.82 5h-2.524v2.475h2.525V5zM50.677 5h-2.525v2.475h2.525V5zM53.508 5h-2.525v2.475h2.525V5zM39.302 7.75h-2.525v2.475h2.525V7.75z" fill="#111"/><path d="M42.133 7.75h-2.525v2.475h2.525V7.75z" fill="#FFB918"/><path d="M44.99 7.75h-2.525v2.475h2.525V7.75zM47.82 7.75h-2.524v2.475h2.525V7.75zM50.677 7.75h-2.525v2.475h2.525V7.75zM53.508 7.75h-2.525v2.475h2.525V7.75zM56.364 7.75H53.84v2.475h2.524V7.75zM59.196 7.75H56.67v2.475h2.526V7.75z" fill="#111"/><path d="M36.446 10.5H33.92v2.475h2.525V10.5z" fill="#E61973"/><path d="M39.302 10.5h-2.525v2.475h2.525V10.5zM42.133 10.5h-2.525v2.475h2.525V10.5zM44.99 10.5h-2.525v2.475h2.525V10.5zM47.82 10.5h-2.524v2.475h2.525V10.5zM50.677 10.5h-2.525v2.475h2.525V10.5zM53.508 10.5h-2.525v2.475h2.525V10.5zM56.364 10.5H53.84v2.475h2.524V10.5zM59.196 10.5H56.67v2.475h2.526V10.5z" fill="#111"/><path d="M36.446 13.25H33.92v2.475h2.525V13.25z" fill="#E61973"/><path d="M39.302 13.25h-2.525v2.475h2.525V13.25zM42.133 13.25h-2.525v2.475h2.525V13.25zM56.364 13.25H53.84v2.475h2.524V13.25zM59.196 13.25H56.67v2.475h2.526V13.25zM36.446 16H33.92v2.475h2.525V16zM39.302 16h-2.525v2.475h2.525V16zM50.677 16h-2.525v2.475h2.525V16zM53.508 16h-2.525v2.475h2.525V16zM56.364 16H53.84v2.475h2.524V16zM59.196 16H56.67v2.475h2.526V16zM36.446 18.775H33.92v2.475h2.525v-2.475zM39.302 18.775h-2.525v2.475h2.525v-2.475zM50.677 18.775h-2.525v2.475h2.525v-2.475zM53.508 18.775h-2.525v2.475h2.525v-2.475zM56.364 18.775H53.84v2.475h2.524v-2.475zM59.196 18.775H56.67v2.475h2.526v-2.475zM36.446 21.525H33.92V24h2.525v-2.475zM39.302 21.525h-2.525V24h2.525v-2.475zM50.677 21.525h-2.525V24h2.525v-2.475zM53.508 21.525h-2.525V24h2.525v-2.475zM56.364 21.525H53.84V24h2.524v-2.475zM59.196 21.525H56.67V24h2.526v-2.475zM36.446 24.275H33.92v2.475h2.525v-2.475zM39.302 24.275h-2.525v2.475h2.525v-2.475zM42.133 24.275h-2.525v2.475h2.525v-2.475zM56.364 24.275H53.84v2.475h2.524v-2.475zM59.196 24.275H56.67v2.475h2.526v-2.475zM36.446 27.025H33.92V29.5h2.525v-2.475zM39.302 27.025h-2.525V29.5h2.525v-2.475zM42.133 27.025h-2.525V29.5h2.525v-2.475zM44.99 27.025h-2.525V29.5h2.525v-2.475zM47.82 27.025h-2.524V29.5h2.525v-2.475zM50.677 27.025h-2.525V29.5h2.525v-2.475zM53.508 27.025h-2.525V29.5h2.525v-2.475zM56.364 27.025H53.84V29.5h2.524v-2.475zM59.196 27.025H56.67V29.5h2.526v-2.475z" fill="#111"/><path d="M62.052 16h-2.525v2.475h2.525V16zM62.052 18.775h-2.525v2.475h2.525v-2.475z" fill="#14E792"/><path d="M62.052 21.525h-2.525V24h2.525v-2.475zM62.052 24.275h-2.525v2.475h2.525v-2.475z" fill="#111"/><path d="M62.052 27.025h-2.525V29.5h2.525v-2.475z" fill="#FF1827"/><path d="M39.302 29.775h-2.525v2.475h2.525v-2.475z" fill="#1787E7"/><path d="M42.133 29.775h-2.525v2.475h2.525v-2.475zM44.99 29.775h-2.525v2.475h2.525v-2.475zM47.82 29.775h-2.524v2.475h2.525v-2.475zM50.677 29.775h-2.525v2.475h2.525v-2.475zM53.508 29.775h-2.525v2.475h2.525v-2.475zM56.364 29.775H53.84v2.475h2.524v-2.475zM59.196 29.775H56.67v2.475h2.526v-2.475zM42.133 32.525h-2.525V35h2.525v-2.475zM44.99 32.525h-2.525V35h2.525v-2.475zM47.82 32.525h-2.524V35h2.525v-2.475zM50.677 32.525h-2.525V35h2.525v-2.475zM53.508 32.525h-2.525V35h2.525v-2.475z" fill="#111"/><path d="M56.364 32.525H53.84V35h2.524v-2.475z" fill="#FF6D01"/><path d="M5.381 7.75H2.856v2.475h2.525V7.75zM8.212 7.75H5.687v2.475h2.525V7.75z" fill="#111"/><path d="M2.525 7.725H0V10.2h2.525V7.725z" fill="#6314E7"/><path d="M11.069 7.75H8.544v2.475h2.525V7.75zM13.9 7.75h-2.525v2.475H13.9V7.75zM16.756 7.75h-2.525v2.475h2.525V7.75zM19.587 7.75h-2.525v2.475h2.525V7.75zM22.444 7.75h-2.525v2.475h2.525V7.75z" fill="#111"/><path d="M25.275 7.75H22.75v2.475h2.525V7.75z" fill="#FF6D01"/><path d="M5.381 10.475H2.856v2.475h2.525v-2.475zM8.212 10.475H5.687v2.475h2.525v-2.475z" fill="#111"/><path d="M2.525 10.475H0v2.475h2.525v-2.475z" fill="#6314E7"/><path d="M11.069 10.475H8.544v2.475h2.525v-2.475zM13.9 10.475h-2.525v2.475H13.9v-2.475zM16.756 10.475h-2.525v2.475h2.525v-2.475zM19.587 10.475h-2.525v2.475h2.525v-2.475zM22.444 10.475h-2.525v2.475h2.525v-2.475zM25.275 10.475H22.75v2.475h2.525v-2.475zM5.381 13.225H2.856V15.7h2.525v-2.475zM2.525 13.225H0V15.7h2.525v-2.475zM22.444 13.225h-2.525V15.7h2.525v-2.475zM25.275 13.225H22.75V15.7h2.525v-2.475zM5.381 15.95H2.856v2.475h2.525V15.95zM2.525 15.95H0v2.475h2.525V15.95zM25.275 15.95H22.75v2.475h2.525V15.95zM5.381 18.7H2.856v2.475h2.525V18.7zM2.525 18.7H0v2.475h2.525V18.7zM22.444 18.7h-2.525v2.475h2.525V18.7zM25.275 18.7H22.75v2.475h2.525V18.7zM5.381 21.45H2.856v2.475h2.525V21.45zM8.212 21.45H5.687v2.475h2.525V21.45zM2.525 21.45H0v2.475h2.525V21.45zM11.069 21.45H8.544v2.475h2.525V21.45zM13.9 21.45h-2.525v2.475H13.9V21.45zM16.756 21.45h-2.525v2.475h2.525V21.45zM19.587 21.45h-2.525v2.475h2.525V21.45zM22.444 21.45h-2.525v2.475h2.525V21.45zM25.275 21.45H22.75v2.475h2.525V21.45zM28.131 10.475h-2.525v2.475h2.525v-2.475zM28.131 13.225h-2.525V15.7h2.525v-2.475zM28.131 15.95h-2.525v2.475h2.525V15.95zM28.131 18.7h-2.525v2.475h2.525V18.7zM28.131 21.45h-2.525v2.475h2.525V21.45zM5.381 24.175H2.856v2.475h2.525v-2.475zM8.212 24.175H5.687v2.475h2.525v-2.475zM2.525 24.175H0v2.475h2.525v-2.475zM11.069 24.175H8.544v2.475h2.525v-2.475zM13.9 24.175h-2.525v2.475H13.9v-2.475zM16.756 24.175h-2.525v2.475h2.525v-2.475zM19.587 24.175h-2.525v2.475h2.525v-2.475zM22.444 24.175h-2.525v2.475h2.525v-2.475zM25.275 24.175H22.75v2.475h2.525v-2.475zM5.381 26.925H2.856V29.4h2.525v-2.475zM8.212 26.925H5.687V29.4h2.525v-2.475zM2.525 26.925H0V29.4h2.525v-2.475zM11.069 26.925H8.544V29.4h2.525v-2.475zM13.9 26.925h-2.525V29.4H13.9v-2.475zM16.756 26.925h-2.525V29.4h2.525v-2.475z" fill="#111"/><path d="M19.587 26.925h-2.525V29.4h2.525v-2.475z" fill="#E719DD"/><path d="M5.381 29.675H2.856v2.475h2.525v-2.475zM2.525 29.65H0v2.475h2.525V29.65z" fill="#111"/><path d="M5.381 32.4H2.856v2.475h2.525V32.4z" fill="#17BEE7"/><path d="M2.525 32.4H0v2.475h2.525V32.4z" fill="#111"/></g><defs><clipPath id="clip0"><path d="M0 0h110v40H0V0z" fill="#fff"/></clipPath></defs></svg>