<svg width="100" height="40" viewBox="0 0 100 40" fill="none" xmlns="http://www.w3.org/2000/svg"><path d="M94.577 17.858c-1.086-2.182-2.147-4.38-3.225-6.56-.376-.773-.743-1.554-1.143-2.31-.506-.963-1.747-1.13-2.433-.31-.449.541-.367 1.162-.081 1.76.522 1.09 1.06 2.165 1.592 3.248.58 1.17 1.159 2.349 1.747 3.519.449.9.922 1.8 1.363 2.699.653 1.314 1.282 2.635 1.927 3.957.457.932.922 1.855 1.388 2.779.171.342.326.692.506 1.035.261.494.767.653 1.265.645.555-.016 1.053-.24 1.306-.796.05-.112.074-.144.123-.303.057-.175.13-.382.057-.55-.612-1.241-1.2-2.444-1.82-3.686-.858-1.727-1.723-3.423-2.572-5.127zM9.842 21.95c-.662-.04-1.56.684-1.47 1.353.025.167-.032.342-.073.51-.188.876-.947 1.576-1.788 1.648-1.2.103-2.033-.342-2.392-1.338-.123-.326-.14-.692-.204-1.043-.14-.756-1.037-1.274-1.797-1.067-.547.144-.832.542-1.118.956 0 .374.008.422.057.931.025.247.041.335.057.422.572 2.604 3.078 4.42 5.936 3.926.293-.048.383.047.498.246.334.613.67 1.235 1.02 1.84.343.58.906.74 1.535.637.588-.088.89-.51 1.07-1.027.138-.399.016-.749-.164-1.1-.375-.692-.75-1.393-1.126-2.077.93-.964 1.347-2.118 1.371-3.392.016-.788-.645-1.378-1.412-1.425zM55.308 8.374c-.131-.103-.278-.254-.417-.302-.383-.104-.498-.088-.816 0-.384.143-.555.342-.727.589-1.33 1.815-2.637 3.647-3.96 5.47-1.355 1.879-2.718 3.75-4.081 5.621-.441.605-.303 1.56.293 1.99.686.494 1.56.359 2.066-.326.539-.724 1.07-1.457 1.6-2.198.955-1.33 1.902-2.667 2.858-3.996 1.191-1.649 2.408-3.289 3.584-4.953.49-.684.318-1.321-.4-1.895zM98.822 9.004c-.424-.804-1.347-1.083-2.13-.605-.548.334-.695.86-.703 1.433-.008 2.835-.008 5.677 0 8.511 0 .2.066.415.155.598.94 1.903 1.886 3.798 2.833 5.693 0-5.12-.008-10.064-.008-15.192-.016-.199-.073-.287-.147-.438zM2.698 14.522c.841-.184 1.25-.67 1.298-1.545.066-1.274 1.094-1.927 1.943-1.982 1.225-.08 2.205.684 2.376 1.807.04.302.057.613.171.892.22.549.956.955 1.47.86.751-.144 1.33-.717 1.306-1.402-.057-1.465-.555-2.73-1.739-3.734C8.323 8.407 6.968 8.033 5.45 8.2c-1.926.199-3.73 1.783-4.245 3.646-.049.184-.082.31-.147.63-.049.461-.049.692-.049 1.09.123.151.229.31.36.454.359.374.791.613 1.33.502zM3.972 21.536v-6.521c-1.029.501-2.017.637-2.964-.096v6.609c.972-.637 1.951-.661 2.964.008zM78.183 9.29c-.75-.589-1.584-1.034-2.522-1.082-1.543-.08-3.103-.04-4.646-.016-.596.008-1.175.613-1.224 1.194-.082.956.514 1.593 1.51 1.6 1.25.008 2.498 0 3.755 0 .988 0 1.984.829 2.074 1.784.074.725.106 1.457.074 2.181-.066 1.338-1.078 2.206-2.392 2.166-1.184-.04-2.368-.016-3.552-.008-.865.008-1.486.637-1.478 1.465.009.796.605 1.338 1.486 1.338.678.008 1.364 0 2.041 0h1.797c2.187-.008 4.13-1.441 4.76-3.535.293-.972.228-1.967.228-2.954-.008-1.648-.547-3.066-1.91-4.132zM28.946 8.24c-.547-.2-1.225-.064-1.568.438-.212.318-.302.764-.31 1.146-.008.7-.008 1.401-.016 2.102-.009 2.102 0 4.196 0 6.298v8.32c0 .215.008.422.024.637.049.82.906 1.25 1.641 1.099.84-.175 1.233-.693 1.233-1.569V12.587c0-.98.008-1.967 0-2.946 0-.669-.384-1.178-1.004-1.401zM83.563 8.176c-.89-.008-1.453.573-1.453 1.505V22.54c0 1.433 0 2.866-.008 4.299-.008.924.604 1.465 1.437 1.505.84.04 1.445-.621 1.445-1.49V9.705c0-.899-.596-1.528-1.42-1.528zM62.117 8.16c-1.854.032-3.29.804-4.32 2.309-.554.812-.84 1.712-.824 2.691.008.621.376 1.027.939 1.282.571.255 1.07.088 1.527-.287.457-.374.392-.907.473-1.385.204-1.186 1.51-2.03 2.703-1.72.995.255 1.673 1.115 1.698 2.158.016.724.669 1.353 1.412 1.37.661.023 1.412-.63 1.453-1.267.082-1.25-.334-2.372-1.135-3.304-.996-1.17-2.294-1.863-3.927-1.847zM22.561 21.958c-.685.071-1.257.692-1.273 1.385-.017.748-.327 1.377-.955 1.783-.743.478-1.576.47-2.36.088-.75-.366-.996-1.051-1.102-1.823-.049-.343-.188-.733-.416-.98-.433-.47-1.004-.597-1.625-.326-.637.279-.89.772-.857 1.449.057.398.073.82.188 1.202.628 2.11 2.75 3.798 5.461 3.551 2.123-.19 4.164-1.934 4.442-4.028.057-.43.106-.876.024-1.29-.114-.661-.833-1.083-1.527-1.011zM65.798 21.958c-.685-.024-1.502.541-1.494 1.497.008 1.003-.93 1.942-1.886 2.014-1.534.12-2.27-.733-2.49-1.704-.098-.422-.098-.9-.326-1.242-.294-.438-.825-.66-1.396-.541-.588.127-1.086.438-1.168 1.067-.057.437-.049.9.058 1.33.734 3.033 3.722 4.689 6.792 3.638a4.893 4.893 0 003.306-4.515c-.008-.883-.587-1.512-1.396-1.544zM34.563 14.498c.677-.167 1.102-.709 1.11-1.425.016-1.1.996-2.079 2.09-2.087 1.265-.008 2.245.852 2.31 2.023.017.247.074.502.163.732.205.55 1.005.932 1.568.78.923-.254 1.25-.827 1.16-1.878-.237-2.532-2.589-4.451-5.005-4.491-2.735-.04-5.144 2.19-5.217 4.817.057.27.065.565.188.796.326.621.987.892 1.633.733zM41.486 21.957c-.67.016-1.209.446-1.34 1.1-.056.286-.056.58-.138.851-.327 1.115-1.274 1.688-2.54 1.537-1.02-.12-1.82-1.139-1.812-2.086a1.31 1.31 0 00-.669-1.195c-.514-.302-1.02-.302-1.535.008-.522.319-.75.78-.661 1.33-.025 1.17.408 2.158 1.102 2.97 1.56 1.815 3.715 2.269 5.87 1.497 1.478-.526 2.45-1.625 2.964-3.074.212-.605.375-1.242.212-1.895-.155-.589-.808-1.058-1.453-1.043zM87.531 12.14c-.016.008-.04.024-.057.032v14.523c0 .159.016.318.025.477.057.844.947 1.25 1.649 1.1.8-.168 1.224-.694 1.224-1.49 0-2.269-.057-4.538.025-6.8.049-1.4-.188-2.666-.898-3.9-.743-1.267-1.323-2.62-1.968-3.942zM14.046 21.425c1.331-.542 1.478-.542 2.841.055.008-.071.008-.135.008-.199V9.585c0-.804-.653-1.425-1.477-1.417-.85.008-1.396.557-1.396 1.417v11.537c0 .096.016.2.024.303zM23.574 8.415c-.458-.319-.972-.359-1.462-.112-.53.263-.824.717-.824 1.314v11.904c.947-.614 1.878-.654 2.857-.025.008-.167.017-.27.017-.374V9.617c.008-.502-.172-.916-.588-1.202zM54.752 24.115c-1.061-2.15-2.122-4.3-3.2-6.481-.465.629-.89 1.258-1.363 1.847-.384.486-.694.94-.18 1.52.065.072.065.2.114.295 1.029 2.079 2.05 4.157 3.095 6.235.097.199.236.398.408.525.514.366 1.363.319 1.82-.056.515-.422.645-1.09.343-1.727-.359-.725-.686-1.45-1.037-2.158z" fill="#FF7C00"/><path d="M65.831 21.01l-5.152-7.134c-.457 1.083-1.265 1.553-2.416 1.569 1.747 2.42 3.462 4.785 5.2 7.19.482-1.004 1.233-1.553 2.368-1.625zM47.609 15.071a1.52 1.52 0 00.326-.947c-.024-1.513-.008-3.026-.008-4.539 0-.82-.612-1.409-1.428-1.417-.841 0-1.437.557-1.446 1.386-.008 2.97 0 5.94 0 9.004.882-1.21 1.715-2.356 2.556-3.487zM72.158 20.835c-.792.032-1.608.12-2.36-.446-.016.127-.024.183-.024.23 0 2.119 0 4.245.008 6.363 0 .119.009.238.041.35.229.716.809 1.019 1.486.971.865-.064 1.347-.589 1.355-1.345.008-1.871-.008-3.734.008-5.606.009-.398-.081-.533-.514-.517zM8.405 15.023v6.457c.971-.597 1.91-.605 2.833.04v-6.481c-1.217.573-1.902.47-2.833-.016zM32.816 15.039v6.44c.971-.58 1.91-.604 2.84.033v-6.513c-.946.573-1.885.55-2.84.04zM47.886 22.459c-.947.597-1.861.597-2.84.008 0 1.569-.009 3.065.007 4.562 0 .24.09.502.229.7.327.487 1.061.701 1.617.526.669-.215 1.02-.668 1.02-1.353v-4.093c0-.103-.016-.199-.033-.35zM72.256 11.91c-.824.023-1.657.047-2.44-.463v5.247c.783-.573 1.624-.453 2.44-.445.319 0 .425-.08.425-.398a127.015 127.015 0 010-3.536c0-.318-.115-.414-.425-.406z" fill="#FF7C00"/></svg>