<svg width="120" height="40" viewBox="0 0 120 40" fill="none" xmlns="http://www.w3.org/2000/svg">
<path d="M21.6671 10.0188C22.3134 10.7267 22.8982 11.4038 23.5445 12.0809C25.1757 10.6036 25.5143 8.78775 25.0526 6.66413C25.7605 6.9719 26.2221 7.46433 26.8685 7.80288C28.2842 7.12579 29.7307 6.44869 31.2696 5.71004C30.4694 5.0945 29.7615 4.50973 28.9921 3.92497C29.2999 3.27865 29.7615 2.72466 30.1308 2.13989C30.5925 2.13989 31.0234 2.13989 31.5466 2.13989C31.208 2.87854 30.5925 3.30942 30.2232 3.98652C30.931 4.54051 31.8236 4.78673 32.6238 5.37149C31.4235 6.23325 30.2539 7.06423 29.0844 7.89522C29.2999 8.84931 29.5153 9.74184 29.7615 10.7267C29.1767 10.819 28.6535 10.8806 28.0995 10.9422C28.0072 11.373 28.1303 11.8039 28.0995 12.2656C27.7918 12.6964 27.2686 13.0042 26.8685 13.4659C26.6222 14.2969 26.376 15.1586 26.1298 16.0512C25.3912 16.5436 24.6217 17.0668 23.76 17.6208C24.591 18.4825 24.8987 19.5905 25.268 20.7293C24.6833 20.8216 24.1293 20.8832 23.5445 20.9755C23.2675 21.868 23.3599 22.7913 23.1444 23.6839C23.6676 24.4841 24.1601 25.2535 24.6833 26.0229C24.2524 27.1001 23.8523 28.1773 23.4214 29.3161C24.2524 29.5931 25.0218 29.8085 25.7913 30.0855C25.8528 30.9165 25.545 31.6552 25.6066 32.5169C27.207 33.1017 28.8074 33.7172 30.4386 34.3328C30.4386 34.3635 30.4078 34.3943 30.4078 34.3943C27.4225 34.3943 24.4371 34.3943 21.4517 34.3943C21.2362 34.1173 21.0516 33.9019 20.8054 33.6249C20.99 31.3782 21.1439 29.1007 21.3286 26.8539C21.4825 24.9765 21.6364 23.0991 21.7902 21.2525C21.8518 20.6062 21.9133 19.9291 22.0365 19.2828C22.3442 17.9593 22.929 16.7898 23.76 15.7434C24.8679 14.3584 25.7913 12.8811 26.6838 11.3423C26.9608 10.8498 27.2378 10.3266 27.7302 10.0188C27.8226 9.64951 27.9149 9.31096 28.0072 9.03397C27.9764 8.66464 27.7302 8.57231 27.5148 8.35687C27.1762 8.60309 27.1455 9.00319 26.8992 9.31096C26.6838 9.28019 26.7761 8.91086 26.4684 8.84931C26.5607 10.7575 25.2065 11.9578 24.1601 13.2504C23.2675 14.3584 22.2827 15.4972 20.5592 15.4972C20.2822 14.5431 21.2362 13.6198 20.6823 12.5426C20.4668 12.4502 20.1283 12.3579 19.8205 12.2348C19.5127 12.3271 19.205 12.4502 18.928 12.5118C18.4048 13.4967 19.2665 14.4815 18.9895 15.4972C18.0354 15.3125 17.2044 15.0355 16.4966 14.3584C15.2963 13.2197 14.4037 11.8962 13.4804 10.5728C13.2957 10.3266 13.2342 10.0804 13.2342 9.77262C13.2034 9.46485 13.3265 9.1263 13.1111 8.84931C12.8341 8.91086 12.988 9.21863 12.8341 9.34174C12.4955 9.09552 12.4648 8.63387 12.157 8.29532C11.9416 8.41843 11.7877 8.60309 11.6338 8.81853C11.6953 9.40329 11.8492 9.98806 12.3417 10.4189C12.4955 10.542 12.5879 10.7575 12.6802 10.9114C13.7266 12.7888 14.8962 14.5739 16.2504 16.2358C17.2352 17.4361 17.6045 18.8519 17.7277 20.3292C18.1278 24.4225 18.4355 28.4851 18.7741 32.5785C18.8049 32.917 18.8049 33.2556 18.8356 33.6249C18.6202 33.8711 18.4355 34.1173 18.1893 34.3943C15.1424 34.3943 12.0954 34.3943 9.0485 34.3943C10.4335 33.6864 11.9723 33.3479 13.3881 32.6708C13.3573 31.9937 13.2342 31.3474 13.265 30.6087C14.3729 30.301 15.4809 29.9624 16.6812 29.6239C16.435 28.8544 16.1888 28.1466 15.9426 27.4387C16.2196 26.9463 16.4966 26.4538 16.8043 25.9306C16.4658 25.2227 15.9118 24.6687 15.5425 23.9917C15.6656 23.0068 15.8195 22.0219 15.9426 21.0678C15.3886 20.6985 14.7423 20.6985 14.1883 20.2984C14.5268 19.7752 15.1116 19.529 15.5117 19.0365C15.1424 18.6364 14.773 18.2363 14.3422 17.7439C14.3422 17.0976 14.3422 16.3589 14.3422 15.6511C13.4804 14.7277 12.6186 13.8044 11.7261 12.8503C10.5874 12.8503 9.41783 12.8503 8.2483 12.8503C8.21752 12.8196 8.21752 12.758 8.18674 12.7272C8.9254 12.1425 9.66405 11.5885 10.4027 11.0037C10.3104 10.1727 10.2488 9.40329 10.1873 8.63387C10.2796 8.32609 10.6489 8.20299 10.8644 7.86444C9.75638 7.09501 8.6484 6.35636 7.54042 5.58693C7.26343 4.78673 6.95566 4.0173 6.64789 3.18631C7.01721 2.81699 7.38654 2.47844 7.72509 2.13989C8.30985 2.13989 8.86384 2.13989 9.57172 2.13989C9.0485 2.50922 8.6484 2.78621 8.21752 3.06321C8.03286 3.77108 8.03286 4.47895 8.00208 5.30994C9.35628 5.92548 10.4027 7.34123 12.2185 6.87957C12.7418 7.46433 13.2342 8.01832 13.7574 8.57231C14.1267 8.57231 14.4961 8.57231 14.9269 8.57231C15.3886 9.74184 15.881 10.9114 16.3735 12.1425C17.1121 11.2807 17.5738 10.3882 18.2201 9.55718C18.8972 10.0804 19.5435 10.6036 20.2514 11.1576C20.713 10.7883 21.1439 10.4189 21.6671 10.0188Z" fill="#F2C601"/>
<path d="M55.7375 34.8869C51.3363 34.8869 47.8277 31.409 47.7969 27.0387C47.7662 22.6683 51.3979 18.9443 55.799 19.0674C61.2158 19.1905 63.8626 23.4685 63.8011 27.0387C63.7703 32.0246 59.3384 35.287 55.7375 34.8869ZM55.7682 22.8222C53.4599 22.853 51.6133 24.6996 51.6133 27.0079C51.6133 29.347 53.583 31.2859 55.9529 31.2244C58.1996 31.1628 60.077 29.1931 60.0462 26.9156C59.9539 24.6073 58.0765 22.8222 55.7682 22.8222Z" fill="black"/>
<path d="M98.3945 34.5791C98.3945 29.3778 98.3945 24.3919 98.3945 19.2829C100.703 19.3137 102.919 18.9751 105.135 19.5599C108.982 20.5447 111.352 24.0533 110.859 27.9928C110.398 31.7784 107.166 34.5791 103.257 34.6099C101.688 34.5791 100.087 34.5791 98.3945 34.5791ZM102.242 30.8859C104.119 31.1321 105.566 30.5781 106.489 29.0392C107.381 27.5927 107.32 26.1154 106.366 24.7304C105.381 23.3147 103.965 22.853 102.242 23.0069C102.242 25.6537 102.242 28.239 102.242 30.8859Z" fill="black"/>
<path d="M90.2078 22.8836C90.1463 23.7454 90.0539 24.3609 90.3309 25.1304C91.8082 25.1304 93.3163 25.1304 94.8244 25.1304C95.0706 26.3614 94.9475 27.4386 94.9167 28.6697C93.4086 28.6697 91.9006 28.6697 90.3617 28.6697C90.0539 29.4392 90.177 30.0855 90.2078 30.8857C92.4853 30.8857 94.7628 30.8857 97.0403 30.8857C97.4712 32.1168 97.1634 33.2555 97.2866 34.4558C93.6241 34.4558 90.0847 34.4558 86.4222 34.4558C86.4222 29.4699 86.4222 24.4225 86.4222 19.3135C89.9924 19.3135 93.501 19.3135 97.1019 19.3135C97.4404 20.4522 97.225 21.591 97.225 22.8836C94.8552 22.8836 92.5777 22.8836 90.2078 22.8836Z" fill="black"/>
<path d="M43.1803 30.1163C43.1803 31.532 43.1803 32.9786 43.1803 34.4866C41.9493 34.4866 40.7797 34.4866 39.5179 34.4866C39.1485 33.1017 39.5486 31.6244 39.3332 30.1779C38.9947 29.7162 38.4407 29.6239 38.0406 29.3469C36.3786 28.3004 35.3014 26.8539 35.086 24.915C34.8705 23.0991 34.9936 21.2525 34.9936 19.4059C36.2555 19.0981 37.425 19.3443 38.5638 19.252C39.0562 19.9906 38.7792 20.6985 38.8408 21.4064C38.8716 22.3297 38.81 23.253 38.8716 24.1763C38.9639 25.5613 40.1026 26.6385 41.3645 26.6077C42.5648 26.5769 43.642 25.5613 43.7651 24.2379C43.8574 23.2838 43.7959 22.2989 43.7959 21.314C43.7959 20.6985 43.7959 20.083 43.7959 19.4059C45.0577 19.1904 46.2581 19.252 47.5815 19.3751C47.6123 21.4064 47.7969 23.4069 47.4584 25.3766C47.1506 27.1925 46.0426 28.5159 44.473 29.4392C44.0729 29.6546 43.642 29.8701 43.1803 30.1163Z" fill="black"/>
<path d="M77.5276 23.0376C76.0811 22.7606 74.6961 23.0376 73.2804 22.853C73.0649 21.6834 73.0957 20.5447 73.2496 19.3444C77.4045 19.3444 81.4671 19.3444 85.622 19.3444C85.899 20.4831 85.7759 21.6526 85.6835 22.9145C84.2678 22.9145 82.9136 22.9145 81.4055 22.9145C81.4055 26.854 81.4055 30.6396 81.4055 34.5175C80.1129 34.5175 79.0049 34.5175 77.6815 34.5175C77.4045 30.7319 77.6507 26.8848 77.5276 23.0376Z" fill="black"/>
<path d="M75.7118 30.9166C75.958 32.1785 75.8656 33.2865 75.8041 34.5791C73.9575 34.5791 72.1108 34.5791 70.295 34.5791C68.5099 34.5791 66.7248 34.5791 64.8167 34.5791C64.8167 29.4701 64.8167 24.4226 64.8167 19.2829C66.0477 19.2213 67.1865 19.1905 68.5099 19.3136C68.5099 23.13 68.5099 26.9464 68.5099 30.9166C71.0336 30.9166 73.3727 30.9166 75.7118 30.9166Z" fill="black"/>
</svg>
