<?xml version="1.0" standalone="no"?>
<!DOCTYPE svg PUBLIC "-//W3C//DTD SVG 1.1//EN" "http://www.w3.org/Graphics/SVG/1.1/DTD/svg11.dtd" >
<svg xmlns="http://www.w3.org/2000/svg">
<metadata></metadata>
<defs>
<font id="product_sansregular" horiz-adv-x="1110" >
<font-face units-per-em="2048" ascent="1536" descent="-512" />
<missing-glyph horiz-adv-x="450" />
<glyph horiz-adv-x="0" />
<glyph horiz-adv-x="682" />
<glyph unicode=" "  horiz-adv-x="450" />
<glyph unicode="&#x09;" horiz-adv-x="450" />
<glyph unicode="&#xa0;" horiz-adv-x="450" />
<glyph unicode="!" horiz-adv-x="475" d="M98 127q0 57 41 98t98.5 41t98.5 -41t41 -98t-41 -98t-98.5 -41t-98.5 41t-41 98zM143 1004v462h189v-462l-21 -549h-147z" />
<glyph unicode="&#x22;" horiz-adv-x="655" d="M90 1004v462h172v-462h-172zM393 1004v462h172v-462h-172z" />
<glyph unicode="#" horiz-adv-x="1294" d="M47 416l27 155h250l41 277h-256l24 156h254l59 397h164l-59 -397h278l60 397h164l-60 -397h252l-24 -156h-250l-41 -277h256l-25 -155h-256l-61 -416h-164l61 416h-278l-62 -416h-163l61 416h-252zM487 571h279l41 277h-279z" />
<glyph unicode="$" horiz-adv-x="1091" d="M49 346l168 68q25 -98 95.5 -170t164.5 -90v491q-6 0 -10 4q-367 143 -367 410q0 139 102.5 246.5t274.5 124.5v176h156v-181q143 -23 230 -103.5t116 -170.5l-168 -72q-14 51 -60 97.5t-118 64.5v-461q178 -74 277.5 -165t99.5 -242q0 -172 -108.5 -272.5t-268.5 -125.5 v-180h-156v176q-145 20 -267 116.5t-161 258.5zM289 1059q0 -129 188 -215v403q-86 -14 -137 -64t-51 -124zM633 158q86 18 137 72.5t51 138.5q0 72 -47 120t-141 93v-424z" />
<glyph unicode="%" horiz-adv-x="1667" d="M66 1083.5q0 141.5 103 246t246.5 104.5t247 -104.5t103.5 -246t-103.5 -246t-247 -104.5t-246.5 104.5t-103 246zM217 1083q0 -90 57.5 -151.5t141.5 -61.5t141 61.5t57 151.5q0 92 -57 152.5t-141 60.5t-141.5 -60t-57.5 -153zM319 59l912 1358l115 -78l-910 -1355z M901 317.5q0 141.5 103.5 246t247 104.5t247 -104.5t103.5 -246t-103.5 -246t-247 -104.5t-247 104.5t-103.5 246zM1053 317q0 -90 57 -151.5t141 -61.5t141.5 61.5t57.5 151.5q0 92 -57.5 152.5t-141.5 60.5t-141 -60t-57 -153z" />
<glyph unicode="&#x26;" horiz-adv-x="1265" d="M74 485q0 127 67.5 244t186.5 189q-106 141 -107 243q0 141 104.5 239.5t249.5 98.5q123 0 208 -70.5t120 -177.5l-162 -86q-57 154 -166 154q-70 0 -116.5 -42t-46.5 -116q0 -70 47 -131l485 -635l131 219l148 -90l-170 -272l137 -178l-141 -107l-101 133 q-143 -133 -340 -133q-223 0 -378.5 149.5t-155.5 368.5zM246 485q0 -150 105 -248t257 -98q143 0 236 99l-414 542q-84 -47 -134 -127t-50 -168z" />
<glyph unicode="'" horiz-adv-x="352" d="M90 1004v462h172v-462h-172z" />
<glyph unicode="(" horiz-adv-x="675" d="M131 659.5q0 276.5 108.5 521t256.5 416.5l139 -98q-137 -164 -226.5 -388t-89.5 -451.5t89.5 -451.5t226.5 -388l-139 -99q-147 172 -256 417t-109 521.5z" />
<glyph unicode=")" horiz-adv-x="675" d="M41 -180q137 164 226 388t89 451.5t-89 451.5t-226 388l139 98q147 -172 256 -416.5t109 -521t-108.5 -521t-256.5 -417.5z" />
<glyph unicode="*" horiz-adv-x="892" d="M82 1151l49 149l227 -81l11 4v243h155v-243l8 -4l230 81l49 -149l-229 -78l-4 -14l157 -213l-127 -92l-155 213h-13l-155 -213l-127 92l157 213l-4 14z" />
<glyph unicode="+" horiz-adv-x="1126" d="M115 477v156h370v371h156v-371h371v-156h-371v-371h-156v371h-370z" />
<glyph unicode="," horiz-adv-x="475" d="M90 -172l119 172q-45 8 -78 42t-33 85q0 57 41 98t98.5 41t98.5 -41t41 -98q0 -59 -62 -152l-137 -204z" />
<glyph unicode="-" horiz-adv-x="884" d="M115 557v156h655v-156h-655z" />
<glyph unicode="." horiz-adv-x="475" d="M98 127q0 57 41 98t98.5 41t98.5 -41t41 -98t-41 -98t-98.5 -41t-98.5 41t-41 98z" />
<glyph unicode="/" horiz-adv-x="894" d="M41 -33l661 1594l152 -62l-661 -1593z" />
<glyph unicode="0" horiz-adv-x="1306" d="M90 700q0 313 155.5 523.5t407.5 210.5t408 -210t156 -524q0 -311 -156 -522t-408 -211t-407.5 211t-155.5 522zM283 700q0 -238 100 -395.5t270 -157.5q168 0 269.5 158t101.5 395q0 240 -101.5 396.5t-269.5 156.5q-170 0 -270 -156.5t-100 -396.5z" />
<glyph unicode="1" horiz-adv-x="786" d="M82 1208l412 193h120v-1401h-188v1167l-272 -118z" />
<glyph unicode="2" horiz-adv-x="1064" d="M82 0v188q401 403 514 527q100 113 135 171t35 144q0 88 -69.5 155.5t-186.5 67.5q-106 0 -172 -62.5t-84 -133.5l-172 69q35 111 145.5 209.5t286.5 98.5q195 0 319.5 -119t124.5 -285q0 -205 -223 -438l-409 -412h649v-180h-893z" />
<glyph unicode="3" horiz-adv-x="1087" d="M74 317l172 72q33 -115 108.5 -178.5t177.5 -63.5q115 0 198 72t83 178q0 104 -85 176t-204 72h-121v176h107q111 0 183.5 61.5t72.5 164.5q0 96 -70.5 151t-175.5 55q-180 0 -244 -182l-174 74q41 113 145.5 201t272.5 88q188 0 313 -110t125 -277q0 -203 -188 -302v-8 q102 -43 169 -131t67 -209q0 -186 -137.5 -308t-336.5 -122q-141 0 -274 88t-184 262z" />
<glyph unicode="4" horiz-adv-x="1206" d="M82 295v143l649 963h205v-930h180v-176h-180v-295h-188v295h-666zM295 471h453v653h-9z" />
<glyph unicode="5" horiz-adv-x="1136" d="M82 346l168 68q31 -119 110.5 -193t190.5 -74q129 0 213 80t84 209q0 127 -82 210t-213 83q-147 0 -236 -121l-190 82l90 711h735v-180h-577l-51 -402l8 -2q104 84 254 84q184 0 318 -132t134 -330.5t-138 -335t-345 -136.5q-152 0 -290 97.5t-183 281.5z" />
<glyph unicode="6" horiz-adv-x="1124" d="M82 436q0 195 164 434l381 564l151 -105l-334 -463l5 -4q51 33 155 33q164 0 301 -134t137 -325q0 -186 -142 -327.5t-337 -141.5q-209 0 -345 142.5t-136 326.5zM272 434q0 -121 85 -202.5t206 -81.5q119 0 204 81.5t85 202.5q0 119 -85 202t-204 83t-205 -83t-86 -202z " />
<glyph unicode="7" horiz-adv-x="1071" d="M82 1221l4 180h903v-193l-680 -1241l-168 86l650 1168h-709z" />
<glyph unicode="8" horiz-adv-x="1114" d="M82 387q0 117 63.5 206t165.5 140v8q-80 51 -131 130t-51 165q0 170 121 284t307 114t307 -114t121 -284q0 -86 -51 -164.5t-131 -130.5v-8q102 -51 165.5 -140t63.5 -206q0 -178 -137 -299t-338 -121t-338 121t-137 299zM274 397q0 -111 82 -180.5t201 -69.5t201 70 t82 180q0 109 -82 178.5t-201 69.5t-201 -69.5t-82 -178.5zM322 1040.5q0 -98.5 66.5 -159t168.5 -60.5t169 60.5t67 159t-67 155.5t-169 57t-168.5 -57t-66.5 -155.5z" />
<glyph unicode="9" horiz-adv-x="1124" d="M82 965q0 186 142.5 327.5t336.5 141.5q209 0 345 -142.5t136 -326.5q0 -190 -163 -430l-381 -568l-152 105l334 463l-4 4q-52 -33 -156 -33q-164 0 -301 134t-137 325zM272 967q0 -119 85 -202t204 -83t205 83t86 202q0 121 -85 202.5t-206 81.5q-119 0 -204 -82 t-85 -202z" />
<glyph unicode=":" horiz-adv-x="475" d="M98 127q0 57 41 98t98.5 41t98.5 -41t41 -98t-41 -98t-98.5 -41t-98.5 41t-41 98zM98 876.5q0 57.5 41 98.5t98.5 41t98.5 -41t41 -98.5t-41 -98.5t-98.5 -41t-98.5 41t-41 98.5z" />
<glyph unicode=";" horiz-adv-x="475" d="M90 -133l119 172q-45 8 -78 42t-33 85q0 59 41 99t98.5 40t98.5 -40t41 -99.5t-62 -151.5l-137 -204zM98 876.5q0 57.5 41 98.5t98.5 41t98.5 -41t41 -98.5t-41 -98.5t-98.5 -41t-98.5 41t-41 98.5z" />
<glyph unicode="&#x3c;" horiz-adv-x="1036" d="M115 485v140l798 379v-173l-602 -272v-8l602 -272v-173z" />
<glyph unicode="=" horiz-adv-x="1150" d="M115 381v156h921v-156h-921zM115 770v156h921v-156h-921z" />
<glyph unicode="&#x3e;" horiz-adv-x="1036" d="M123 106v173l602 272v8l-602 272v173l799 -379v-140z" />
<glyph unicode="?" horiz-adv-x="1009" d="M74 1196q43 117 148.5 210t269.5 93q186 0 302.5 -109.5t116.5 -279.5q0 -74 -38.5 -149.5t-68.5 -107.5t-83 -81l-10 -10q-125 -113 -125 -225v-82h-193v96q0 92 39 158.5t137 156.5q55 51 79 77t47.5 72t23.5 95q0 94 -60.5 151.5t-166.5 57.5q-176 0 -242 -197z M350 127q0 57 40 98t99.5 41t99.5 -41t40 -98t-40 -98t-99.5 -41t-99.5 41t-40 98z" />
<glyph unicode="@" horiz-adv-x="1777" d="M90 623q0 328 232.5 559t570.5 231q336 0 565.5 -231.5t229.5 -558.5q0 -184 -79 -305t-229 -121q-154 0 -229 149q-100 -150 -287 -149q-168 0 -282.5 117.5t-114.5 299.5q0 180 114.5 299t274.5 119q158 0 262 -121h8v93h148v-535q0 -53 29.5 -96t91.5 -43 q145 0 145 293q0 270 -188.5 456.5t-458.5 186.5t-458.5 -186.5t-188.5 -457t188.5 -456.5t458.5 -186q145 0 260 57l57 -139q-143 -66 -317 -66q-340 0 -571.5 230.5t-231.5 560.5zM631 614.5q0 -118.5 72.5 -190.5t175 -72t175 72t72.5 190.5t-72.5 190.5t-175 72 t-175 -72t-72.5 -190.5z" />
<glyph unicode="A" horiz-adv-x="1368" d="M25 0l553 1466h213l552 -1466h-208l-142 397h-616l-144 -397h-208zM440 573h488l-240 662h-8z" />
<glyph unicode="B" horiz-adv-x="1216" d="M147 0v1466h531q172 0 298 -113.5t126 -285.5q0 -104 -54.5 -184t-144.5 -121v-8q109 -37 178.5 -127t69.5 -209q0 -180 -132 -299t-312 -119h-560zM336 180h379q109 0 176 76t67 166t-69.5 165t-181.5 75h-371v-482zM336 838h342q106 0 170.5 70.5t64.5 154.5 t-62.5 153.5t-164.5 69.5h-350v-448z" />
<glyph unicode="C" horiz-adv-x="1492" d="M76 733.5q0 327.5 219 546.5t543 219q332 0 538 -239l-131 -127q-150 186 -407 186q-240 0 -405 -162t-165 -424t165 -424t405 -162q264 0 450 213l131 -131q-100 -121 -251.5 -191.5t-329.5 -70.5q-324 0 -543 219.5t-219 547z" />
<glyph unicode="D" horiz-adv-x="1415" d="M147 0v1466h449q338 0 540.5 -203.5t202.5 -529t-202.5 -529.5t-540.5 -204h-449zM336 180h260q254 0 402.5 145.5t148.5 407.5q0 260 -148.5 406.5t-402.5 146.5h-260v-1106z" />
<glyph unicode="E" d="M147 0v1466h857v-180h-668v-465h602v-176h-602v-465h668v-180h-857z" />
<glyph unicode="F" horiz-adv-x="1069" d="M147 0v1466h857v-180h-668v-481h602v-176h-602v-629h-189z" />
<glyph unicode="G" horiz-adv-x="1640" d="M76 733.5q0 325.5 222 545.5t540 220q158 0 301 -61.5t229 -163.5l-129 -129q-145 174 -401 174q-231 0 -400.5 -163t-169.5 -423t169 -423t401 -163q246 0 409 164q106 106 123 297h-532v176h710q11 -57 11 -110q0 -307 -183 -490q-207 -217 -538 -217 q-317 0 -539.5 220.5t-222.5 546z" />
<glyph unicode="H" horiz-adv-x="1404" d="M147 0v1466h189v-628h733v628h188v-1466h-188v662h-733v-662h-189z" />
<glyph unicode="I" horiz-adv-x="483" d="M147 0v1466h189v-1466h-189z" />
<glyph unicode="J" horiz-adv-x="1073" d="M49 307l172 72q66 -231 268 -232q131 0 202 85t71 231v1003h188v-999q0 -240 -132 -370t-337 -130q-160 0 -272.5 89t-159.5 251z" />
<glyph unicode="K" horiz-adv-x="1273" d="M147 0v1466h189v-755h8l645 755h244v-8l-545 -629l582 -821v-8h-232l-477 684l-225 -260v-424h-189z" />
<glyph unicode="L" horiz-adv-x="1019" d="M147 0v1466h189v-1286h635v-180h-824z" />
<glyph unicode="M" horiz-adv-x="1699" d="M147 0v1466h189l510 -893h8l510 893h188v-1466h-188v870l8 246h-8l-459 -805h-110l-459 805h-8l8 -246v-870h-189z" />
<glyph unicode="N" horiz-adv-x="1425" d="M147 0v1466h230l713 -1140h8l-8 282v858h188v-1466h-197l-745 1196h-8l8 -283v-913h-189z" />
<glyph unicode="O" horiz-adv-x="1658" d="M76 733.5q0 321.5 216 543.5t537 222q319 0 536.5 -223t217.5 -543q0 -322 -216 -544t-537.5 -222t-537.5 222.5t-216 544zM268 733q0 -256 163 -421t398.5 -165t398.5 165t163 421t-163 421t-398.5 165t-398.5 -165t-163 -421z" />
<glyph unicode="P" horiz-adv-x="1155" d="M147 0v1466h500q186 0 322.5 -123.5t136.5 -312t-136 -312.5t-323 -124h-311v-594h-189zM336 774h315q119 0 190.5 80t71.5 176t-71.5 176t-190.5 80h-315v-512z" />
<glyph unicode="Q" horiz-adv-x="1658" d="M76 733.5q0 321.5 216 543.5t537 222q319 0 536.5 -223t217.5 -543q0 -354 -256 -581l103 -154l-148 -96l-100 149q-164 -84 -353 -84q-322 0 -537.5 222.5t-215.5 544zM268 733q0 -256 162.5 -421t398.5 -165q127 0 248 58l-172 258l148 100l170 -256q168 164 168 426 q0 256 -163 421t-398.5 165t-398.5 -165t-163 -421z" />
<glyph unicode="R" horiz-adv-x="1183" d="M147 0v1466h500q186 0 322.5 -123.5t136.5 -312.5q0 -154 -100.5 -271.5t-249.5 -148.5l-4 -6l411 -596v-8h-223l-395 594h-209v-594h-189zM336 770h303q113 0 193.5 74t80.5 186q0 96 -71.5 176t-190.5 80h-315v-516z" />
<glyph unicode="S" horiz-adv-x="1132" d="M49 365l172 69q31 -121 126 -204t214 -83q123 0 210 64.5t87 175.5q0 123 -87 189.5t-275 123.5q-195 61 -295.5 158.5t-100.5 249.5q0 158 125 274.5t326 116.5q186 0 303 -93t152 -204l-172 -72q-18 70 -91 129.5t-188 59.5q-109 0 -185.5 -60.5t-76.5 -150.5 q0 -82 70.5 -138.5t207.5 -101.5q109 -35 181.5 -67.5t147.5 -87t113 -135t38 -187t-44 -190.5t-117 -133.5t-157 -75t-172 -25.5q-160 0 -312.5 104.5t-199.5 293.5z" />
<glyph unicode="T" horiz-adv-x="1105" d="M49 1286v180h1008v-180h-410v-1286h-188v1286h-410z" />
<glyph unicode="U" horiz-adv-x="1314" d="M115 545v921h188v-929q0 -174 91 -282t263 -108t263.5 107.5t91.5 282.5v929h188v-921q0 -260 -146.5 -419t-396.5 -159q-242 0 -392 160t-150 418z" />
<glyph unicode="V" horiz-adv-x="1294" d="M25 1466h208l402 -1190h8l418 1190h209l-533 -1466h-196z" />
<glyph unicode="W" horiz-adv-x="1888" d="M33 1466h196l310 -1153h8l317 957h176l318 -957h8l293 1153h196l-391 -1466h-192l-316 967h-8l-315 -967h-193z" />
<glyph unicode="X" horiz-adv-x="1294" d="M33 0l491 758l-463 708h226l356 -561h8l357 561h225l-463 -708l492 -758h-222l-389 600h-8l-389 -600h-221z" />
<glyph unicode="Y" horiz-adv-x="1216" d="M25 1466h221l362 -596h8l355 596h221l-485 -784v-682h-189v682z" />
<glyph unicode="Z" horiz-adv-x="1155" d="M66 0v197l780 1089h-748v180h967v-196l-780 -1090h788v-180h-1007z" />
<glyph unicode="[" horiz-adv-x="630" d="M147 -254v1876h418v-156h-246v-1564h246v-156h-418z" />
<glyph unicode="\" horiz-adv-x="894" d="M41 1499l152 62l661 -1594l-152 -61z" />
<glyph unicode="]" horiz-adv-x="630" d="M66 -98h245v1564h-245v156h417v-1876h-417v156z" />
<glyph unicode="^" horiz-adv-x="962" d="M25 840l383 626h147l383 -626h-197l-256 446h-8l-256 -446h-196z" />
<glyph unicode="_" horiz-adv-x="983" d="M0 -287h983v-155h-983v155z" />
<glyph unicode="`" horiz-adv-x="819" d="M197 1466h204l107 -262h-164z" />
<glyph unicode="a" horiz-adv-x="1048" d="M57 303q0 164 127 257t314 93q166 0 272 -61v29q0 111 -76 177t-186 66q-82 0 -148.5 -39t-91.5 -106l-172 74q35 90 137.5 166.5t270.5 76.5q193 0 319.5 -112.5t126.5 -317.5v-606h-180v139h-8q-113 -172 -330 -172q-160 0 -267.5 92.5t-107.5 243.5zM254 299 q0 -74 63.5 -117t145.5 -43q117 0 212 87t95 206q-80 66 -240 66q-137 0 -206.5 -59.5t-69.5 -139.5z" />
<glyph unicode="b" horiz-adv-x="1179" d="M115 0v1466h188v-462l-8 -140h8q45 74 136 123t206 49q195 0 336 -153.5t141 -381t-141 -381t-336 -153.5q-115 0 -206 49.5t-136 122.5h-8v-139h-180zM295 502q0 -166 93 -264.5t226 -98.5q131 0 225.5 99.5t94.5 263.5t-94.5 263t-225.5 99q-133 0 -226 -98t-93 -264z " />
<glyph unicode="c" horiz-adv-x="1069" d="M57 501.5q0 229.5 145.5 382t370.5 152.5q168 0 279 -82t162 -206l-172 -72q-78 188 -281 188q-125 0 -220 -102.5t-95 -260t95 -260t220 -102.5q211 0 291 189l168 -72q-51 -123 -165 -206t-282 -83q-225 0 -370.5 152.5t-145.5 382z" />
<glyph unicode="d" horiz-adv-x="1179" d="M57 501.5q0 227.5 141.5 381t336.5 153.5q115 0 205.5 -49t136.5 -123h8l-8 140v462h188v-1466h-180v139h-8q-45 -74 -136 -123t-206 -49q-195 0 -336.5 153.5t-141.5 381zM246 502q0 -164 94 -263.5t225 -99.5q133 0 226.5 98.5t93.5 264.5t-93.5 264t-226.5 98 q-131 0 -225 -99t-94 -263z" />
<glyph unicode="e" horiz-adv-x="1097" d="M57 502q0 219 138.5 376.5t353.5 157.5q223 0 357 -145.5t134 -388.5l-2 -35h-792q8 -152 101 -240t218 -88q203 0 275 172l168 -69q-49 -117 -162 -196t-277 -79q-227 0 -369.5 151.5t-142.5 383.5zM258 623h582q-6 86 -79 163.5t-216 77.5q-104 0 -181 -65.5 t-106 -175.5z" />
<glyph unicode="f" horiz-adv-x="753" d="M49 831v173h189v133q0 154 98 246t258 92q90 0 151 -27l-65 -162q-33 16 -86 17q-74 0 -121 -44.5t-47 -128.5v-126h262v-173h-262v-831h-188v831h-189z" />
<glyph unicode="g" horiz-adv-x="1179" d="M57 501.5q0 227.5 141.5 381t336.5 153.5q113 0 202.5 -49t139.5 -123h8v140h180v-953q0 -258 -149.5 -392t-364.5 -134q-178 0 -291 89t-162 204l172 71q29 -82 106 -137t175 -55q156 0 245 93t89 253v96h-8q-49 -74 -139.5 -123t-202.5 -49q-195 0 -336.5 153.5 t-141.5 381zM246 502q0 -164 94 -263.5t225 -99.5q133 0 226.5 98.5t93.5 264.5t-93.5 264t-226.5 98q-131 0 -225 -99t-94 -263z" />
<glyph unicode="h" d="M115 0v1466h188v-462l-8 -140h8q41 72 129 122t189 50q186 0 284.5 -114.5t98.5 -307.5v-614h-189v586q0 278 -246 278h-2q-117 0 -190.5 -93t-73.5 -216v-555h-188z" />
<glyph unicode="i" horiz-adv-x="450" d="M92 1349.5q0 55.5 39 94.5t94.5 39t94 -39t38.5 -94.5t-38.5 -94t-94 -38.5t-94.5 38.5t-39 94zM131 0v1004h188v-1004h-188z" />
<glyph unicode="j" horiz-adv-x="450" d="M-92 -442l49 163q27 -12 55 -12q119 0 119 156v1139h188v-1139q0 -166 -80 -247t-221 -81q-55 0 -110 21zM92 1349.5q0 55.5 39 94.5t94.5 39t94 -39t38.5 -94.5t-38.5 -94t-94 -38.5t-94.5 38.5t-39 94z" />
<glyph unicode="k" horiz-adv-x="989" d="M115 0v1466h188v-903l434 441h242v-9l-391 -391l409 -596v-8h-227l-315 473l-152 -151v-322h-188z" />
<glyph unicode="l" horiz-adv-x="417" d="M115 0v1466h188v-1466h-188z" />
<glyph unicode="m" horiz-adv-x="1744" d="M115 0v1004h180v-140h8q43 72 132 122t177 50q233 0 318 -192q122 192 348 192h2q178 0 268 -113.5t90 -308.5v-614h-188v586q0 152 -55.5 215t-167.5 63q-111 0 -183.5 -94t-72.5 -215v-555h-189v586q0 152 -55 215t-168 63q-111 0 -183.5 -94t-72.5 -215v-555h-188z " />
<glyph unicode="n" d="M115 0v1004h180v-140h8q41 72 129 122t189 50q186 0 284.5 -114.5t98.5 -307.5v-614h-189v586q0 278 -246 278h-2q-117 0 -190.5 -93t-73.5 -216v-555h-188z" />
<glyph unicode="o" horiz-adv-x="1146" d="M57 501.5q0 229.5 145.5 382t371 152.5t371 -152.5t145.5 -382t-145.5 -382t-371 -152.5t-371 152.5t-145.5 382zM246 502q0 -164 97 -263.5t230.5 -99.5t230.5 99.5t97 263.5t-97 263t-230.5 99t-230.5 -99t-97 -263z" />
<glyph unicode="p" horiz-adv-x="1171" d="M106 -442v1446h181v-140h8q45 74 136 123t206 49q195 0 336 -153.5t141 -381t-141 -381t-336 -153.5q-115 0 -206 49.5t-136 122.5h-8l8 -139v-442h-189zM287 502q0 -166 93 -264.5t226 -98.5q131 0 225.5 99.5t94.5 263.5t-94.5 263t-225.5 99q-133 0 -226 -98t-93 -264 z" />
<glyph unicode="q" horiz-adv-x="1171" d="M57 501.5q0 227.5 141.5 381t336.5 153.5q115 0 205.5 -49t136.5 -123h8v140h180v-1446h-188v442l8 139h-8q-45 -74 -136.5 -123t-205.5 -49q-195 0 -336.5 153.5t-141.5 381zM246 502q0 -164 94 -263.5t225 -99.5q133 0 226.5 98.5t93.5 264.5t-93.5 264t-226.5 98 q-131 0 -225 -99t-94 -263z" />
<glyph unicode="r" horiz-adv-x="743" d="M115 0v1004h180v-164h8q29 82 118 135t173 53t141 -24l-71 -177q-37 14 -101 15q-102 0 -181 -81t-79 -212v-549h-188z" />
<glyph unicode="s" horiz-adv-x="931" d="M49 254l168 70q80 -188 272 -189q88 0 144.5 39t56.5 102q0 98 -137 134l-203 49q-96 25 -182 93.5t-86 184.5q0 133 117.5 216t279.5 83q133 0 237.5 -60.5t149.5 -172.5l-164 -68q-55 133 -229 133q-84 0 -141.5 -34.5t-57.5 -94.5q0 -86 134 -116l198 -48 q141 -33 209 -112.5t68 -179.5q0 -135 -111 -225.5t-285 -90.5q-168 0 -277.5 82t-160.5 205z" />
<glyph unicode="t" horiz-adv-x="724" d="M49 831v173h176v307h189v-307h245v-173h-245v-512q0 -163 133 -163h2q51 0 86 16l65 -162q-61 -26 -151 -26q-158 0 -241 84t-83 237v526h-176z" />
<glyph unicode="u" d="M106 389v615h189v-584q0 -281 248 -281q117 0 190.5 94.5t73.5 217.5v553h188v-1004h-180v139h-8q-43 -72 -131 -122t-187 -50q-188 0 -285.5 115t-97.5 307z" />
<glyph unicode="v" horiz-adv-x="1019" d="M8 1004h205l295 -779h4l299 779h201l-410 -1004h-188z" />
<glyph unicode="w" horiz-adv-x="1544" d="M8 1004h197l223 -758h2l248 758h194l248 -758h2l221 758h193l-324 -1004h-192l-250 770l-248 -770h-190z" />
<glyph unicode="x" horiz-adv-x="966" d="M16 0l355 510l-346 494h213l247 -355l236 355h221l-350 -494l358 -510h-221l-248 371l-243 -371h-222z" />
<glyph unicode="y" horiz-adv-x="1019" d="M8 1004h205l299 -721h4l291 721h205l-629 -1446h-195l234 505z" />
<glyph unicode="z" horiz-adv-x="942" d="M66 0v164l571 667h-555v173h786v-164l-571 -668h580v-172h-811z" />
<glyph unicode="{" horiz-adv-x="651" d="M49 606v156q66 0 109 44t43 128v350q0 154 91 246t249 92h45v-156h-45q-72 0 -120 -51t-48 -137v-350q0 -186 -142 -240v-8q141 -49 142 -240v-350q0 -86 48 -137t120 -51h45v-156h-45q-158 0 -249 92t-91 246v350q0 84 -43 128t-109 44z" />
<glyph unicode="|" horiz-adv-x="466" d="M147 -246v1868h172v-1868h-172z" />
<glyph unicode="}" horiz-adv-x="651" d="M66 -98h45q72 0 120 51t48 137v350q0 190 141 240v8q-141 53 -141 240v350q0 86 -48.5 137t-119.5 51h-45v156h45q158 0 249 -92t91 -246v-350q0 -84 43 -128t108 -44v-156q-66 0 -108.5 -44t-42.5 -128v-350q0 -154 -91 -246t-249 -92h-45v156z" />
<glyph unicode="~" horiz-adv-x="1085" d="M66 508q0 123 74.5 198.5t172.5 75.5q74 0 241 -66.5t214 -66.5q45 0 72.5 32t31.5 73h148q0 -123 -75 -199t-173 -76q-68 0 -237.5 66.5t-217.5 66.5q-45 0 -72.5 -31.5t-31.5 -72.5h-147z" />
<glyph unicode="&#xa1;" horiz-adv-x="475" d="M98 897q0 57 41 98t98.5 41t98.5 -41t41 -98t-41 -98t-98.5 -41t-98.5 41t-41 98zM143 20l21 549h147l21 -549v-462h-189v462z" />
<glyph unicode="&#xa2;" horiz-adv-x="1069" d="M57 700.5q0 206.5 120 351t315 173.5v176h155v-176q137 -16 229.5 -93t137.5 -186l-172 -72q-59 141 -195 179v-705q143 35 205 178l168 -71q-45 -106 -140.5 -184t-232.5 -97v-174h-155v176q-195 29 -315 173.5t-120 351zM246 700q0 -135 70.5 -231t175.5 -123v707 q-104 -27 -175 -123.5t-71 -229.5z" />
<glyph unicode="&#xa3;" horiz-adv-x="1062" d="M66 0v164q201 92 200 299q0 12 -4 41h-196v158h137l-36 60t-40 70.5t-28.5 64.5t-25.5 85t-7 86q0 166 118.5 286t302.5 120q164 0 266.5 -88.5t139.5 -202.5l-172 -72q-23 76 -81 129t-153 53q-109 0 -171 -68.5t-62 -156.5q0 -66 23.5 -125t69.5 -133t63 -108h276v-158 h-235v-10q0 -180 -121 -308l6 -6h364q127 0 174 117l156 -66q-92 -231 -330 -231h-634z" />
<glyph unicode="&#xa4;" horiz-adv-x="1224" d="M123 297l123 119q-76 115 -76 250q0 137 76 249l-123 121l108 111l121 -117q113 84 260.5 84t259.5 -84l121 117l109 -111l-121 -118q74 -113 74 -252q0 -137 -74 -250l121 -119l-109 -111l-121 117q-116 -86 -259.5 -86t-260.5 86l-121 -117zM342 665.5 q0 -118.5 79 -201.5t191.5 -83t191.5 83t79 201.5t-79 201.5t-191.5 83t-191.5 -83t-79 -201.5z" />
<glyph unicode="&#xa5;" horiz-adv-x="1171" d="M25 1401h215l346 -578h8l338 578h215l-365 -578h244v-155h-342v-172h342v-156h-342v-340h-188v340h-351v156h351v172h-351v155h250z" />
<glyph unicode="&#xa6;" horiz-adv-x="466" d="M147 -246v844h172v-844h-172zM147 770v778h172v-778h-172z" />
<glyph unicode="&#xa7;" horiz-adv-x="1095" d="M82 -80l172 70q33 -125 111.5 -205t191.5 -80q109 0 186.5 59.5t77.5 147.5q0 102 -76.5 164.5t-252.5 116.5q-186 59 -274.5 149t-88.5 225q0 80 44 156t128 125q-172 106 -172 293q0 137 113.5 247.5t308.5 110.5q158 0 270.5 -94t147.5 -203l-172 -72 q-18 68 -85 128.5t-157 60.5q-102 0 -167.5 -54.5t-65.5 -124t58 -116.5t187 -90q98 -31 170 -64.5t139.5 -85t102.5 -126t35 -169.5q0 -88 -37 -162.5t-96 -119.5q133 -113 133 -291q0 -125 -71 -216t-172 -133t-214 -42q-160 0 -294 101.5t-181 293.5zM322 571 q0 -74 57 -121t188 -90q94 -31 166 -63q39 31 63.5 84t24.5 100q0 106 -75.5 168t-253.5 117q-6 0 -9 2q-74 -23 -117.5 -81t-43.5 -116z" />
<glyph unicode="&#xa8;" horiz-adv-x="819" d="M121 1350q0 49 34.5 82.5t82.5 33.5q51 0 83.5 -32.5t32.5 -83.5q0 -47 -33.5 -82t-82.5 -35q-45 0 -81 35t-36 82zM465 1350q0 49 35 82.5t82 33.5q51 0 83.5 -32.5t32.5 -83.5q0 -47 -33.5 -82t-82.5 -35q-45 0 -81 35t-36 82z" />
<glyph unicode="&#xa9;" horiz-adv-x="1089" d="M74 1028.5q0 194.5 138 332.5t333 138q193 0 332 -139t139 -332q0 -195 -138.5 -333t-333 -138t-332.5 138.5t-138 333zM172 1028q0 -152 110.5 -262.5t262.5 -110.5q154 0 263.5 109.5t109.5 263.5q0 156 -109 264.5t-264 108.5q-154 0 -263.5 -109.5t-109.5 -263.5z M309 1028q0 102 70 173t174 71q98 0 178 -80l-65 -59q-45 49 -113 49q-59 0 -104.5 -44t-45.5 -110q0 -63 45.5 -108.5t104.5 -45.5q74 0 123 64l69 -55q-73 -99 -192 -99q-102 0 -173 72t-71 172z" />
<glyph unicode="&#xaa;" horiz-adv-x="978" d="M82 850q0 143 117.5 226t283.5 83q143 0 242 -57v31q0 96 -68.5 149t-169.5 53q-152 0 -211 -116l-157 65q31 74 124 144.5t240 70.5q174 0 294 -100.5t120 -278.5v-534h-172v127h-8q-41 -68 -117 -112t-174 -44q-141 0 -242.5 80t-101.5 213zM270 846q0 -66 54.5 -97.5 t130.5 -31.5q104 0 187 69.5t83 174.5q-72 57 -211 57q-123 0 -183.5 -51.5t-60.5 -120.5z" />
<glyph unicode="&#xab;" horiz-adv-x="1138" d="M82 555l414 449l110 -103l-327 -346l327 -346l-110 -103zM492 555l413 449l111 -103l-328 -346l328 -346l-111 -103z" />
<glyph unicode="&#xac;" horiz-adv-x="1150" d="M98 633v155h889v-573h-147v418h-742z" />
<glyph unicode="&#xad;" horiz-adv-x="884" d="M115 557v156h655v-156h-655z" />
<glyph unicode="&#xae;" horiz-adv-x="1089" d="M74 1028.5q0 194.5 138 332.5t333 138q193 0 332 -139t139 -332q0 -195 -138.5 -333t-333 -138t-332.5 138.5t-138 333zM172 1028q0 -152 110.5 -262.5t262.5 -110.5q154 0 263.5 109.5t109.5 263.5q0 156 -109 264.5t-264 108.5q-154 0 -263.5 -109.5t-109.5 -263.5z M387 797v463h197q59 0 104 -43t45 -105q0 -47 -29.5 -85t-72.5 -50l-4 -4l123 -172v-4h-107l-113 172h-49v-172h-94zM481 1055h94q27 0 45.5 16t18.5 41q0 23 -17.5 40t-43.5 17h-97v-114z" />
<glyph unicode="&#xaf;" horiz-adv-x="819" d="M123 1276v147h573v-147h-573z" />
<glyph unicode="&#xb0;" horiz-adv-x="665" d="M66 1169q0 111 78.5 188t189 77t188.5 -77t78 -188q0 -109 -78.5 -186.5t-187.5 -77.5q-111 0 -189.5 78t-78.5 186zM205 1169q0 -53 38 -93t91 -40q51 0 89 40t38 93q0 55 -37 94.5t-90 39.5t-91 -39t-38 -95z" />
<glyph unicode="&#xb1;" horiz-adv-x="1126" d="M115 0v156h897v-156h-897zM115 606v156h370v321h156v-321h371v-156h-371v-321h-156v321h-370z" />
<glyph unicode="&#xb2;" horiz-adv-x="622" d="M49 1288q18 90 91 142.5t165 52.5q102 0 179 -61.5t77 -159.5q0 -96 -131 -228l-188 -186h323v-131h-512v123q260 262 275 276q86 86 86 146q0 39 -31 64.5t-76 25.5q-100 0 -125 -119z" />
<glyph unicode="&#xb3;" horiz-adv-x="661" d="M49 905l133 49q31 -123 142 -123q49 0 87 31t38 80q0 47 -35 74.5t-88 27.5h-84v123h75q47 0 77 27t30 70q0 39 -31 63.5t-71 24.5q-86 0 -119 -88l-127 51q59 168 246 168q111 0 180 -60.5t69 -156.5q0 -94 -92 -154q117 -68 117 -172q0 -109 -79.5 -174.5t-192.5 -65.5 q-100 0 -175 52.5t-100 152.5z" />
<glyph unicode="&#xb4;" horiz-adv-x="819" d="M311 1204l107 262h205l-148 -262h-164z" />
<glyph unicode="&#xb5;" d="M106 -442v1446h189v-584q0 -281 248 -281q117 0 190.5 94.5t73.5 217.5v553h188v-1004h-180v139h-8q-102 -172 -309 -172q-106 0 -203 82h-8l8 -115v-376h-189z" />
<glyph unicode="&#xb6;" horiz-adv-x="1277" d="M49 1036.5q0 194.5 134 312t325 117.5h606v-1908h-172v1728h-172v-1728h-172v1048h-90q-190 0 -324.5 118t-134.5 312.5z" />
<glyph unicode="&#xb7;" horiz-adv-x="360" d="M41 663.5q0 57.5 41 98.5t98.5 41t98 -41t40.5 -98.5t-40.5 -98.5t-98 -41t-98.5 41t-41 98.5z" />
<glyph unicode="&#xb8;" horiz-adv-x="819" d="M145 -348l107 47q23 -70 86 -70q37 0 60.5 24.5t23.5 57.5q0 35 -23.5 60.5t-60.5 25.5q-41 0 -68 -33l-96 46l72 190h114l-43 -98q20 4 41 4q78 0 132.5 -55.5t54.5 -139.5q0 -82 -59.5 -139t-147.5 -57q-66 0 -118 38.5t-75 98.5z" />
<glyph unicode="&#xb9;" horiz-adv-x="495" d="M49 1358l230 108h94v-749h-144v583l-131 -53z" />
<glyph unicode="&#xba;" horiz-adv-x="1056" d="M74 1028q0 203 128 337t326 134q197 0 326 -134t129 -337t-129 -337t-326 -134q-199 0 -326.5 134t-127.5 337zM254 1028q0 -133 81.5 -220t192.5 -87q109 0 192 87t83 220t-83 220t-192 87q-111 0 -192.5 -87t-81.5 -220z" />
<glyph unicode="&#xbb;" horiz-adv-x="1138" d="M123 209l328 346l-328 346l110 103l414 -449l-414 -449zM532 209l328 346l-328 346l111 103l414 -449l-414 -449z" />
<glyph unicode="&#xbc;" horiz-adv-x="1507" d="M98 1358l230 108h94v-749h-143v583l-132 -53zM205 59l954 1424l115 -78l-952 -1421zM801 147v99l356 504h137v-480h99v-123h-99v-147h-143v147h-350zM950 270h201v269h-8z" />
<glyph unicode="&#xbd;" horiz-adv-x="1589" d="M98 1358l230 108h94v-749h-143v583l-132 -53zM188 59l955 1424l114 -78l-952 -1421zM958 571q18 90 91 142.5t165 52.5q102 0 179 -61.5t77 -159.5q0 -96 -131 -228l-188 -186h324v-131h-512v123q260 262 274 276q86 86 86 146q0 39 -30.5 64.5t-75.5 25.5 q-100 0 -125 -119z" />
<glyph unicode="&#xbe;" horiz-adv-x="1697" d="M98 905l133 49q31 -123 142 -123q49 0 87 31t38 80q0 47 -35 74.5t-88 27.5h-84v123h76q47 0 76.5 27t29.5 70q0 39 -30.5 63.5t-71.5 24.5q-86 0 -119 -88l-127 51q59 168 246 168q111 0 180.5 -60.5t69.5 -156.5q0 -94 -93 -154q117 -68 117 -172q0 -109 -79.5 -174.5 t-192.5 -65.5q-100 0 -175 52.5t-100 152.5zM367 59l954 1424l115 -78l-953 -1421zM987 147v99l356 504h138v-480h98v-123h-98v-147h-144v147h-350zM1137 270h200v269h-8z" />
<glyph unicode="&#xbf;" horiz-adv-x="987" d="M76 -86q0 74 39 149.5t68.5 107.5t82.5 81l10 10q125 113 125 225v82h193v-96q0 -92 -39 -158.5t-137 -156.5q-55 -51 -79 -77t-47.5 -72t-23.5 -95q0 -94 60.5 -151.5t167.5 -57.5q176 0 241 197l176 -74q-43 -117 -148.5 -210t-268.5 -93q-186 0 -303 109.5t-117 279.5 zM358 897q0 57 40 98t99.5 41t99.5 -41t40 -98t-40 -98t-99.5 -41t-99.5 41t-40 98z" />
<glyph unicode="&#xc0;" horiz-adv-x="1368" d="M25 0l553 1466h213l552 -1466h-208l-142 397h-616l-144 -397h-208zM440 573h488l-240 662h-8zM451 1843h204l107 -262h-164z" />
<glyph unicode="&#xc1;" horiz-adv-x="1368" d="M25 0l553 1466h213l552 -1466h-208l-142 397h-616l-144 -397h-208zM440 573h488l-240 662h-8zM606 1581l107 262h205l-148 -262h-164z" />
<glyph unicode="&#xc2;" horiz-adv-x="1368" d="M25 0l553 1466h213l552 -1466h-208l-142 397h-616l-144 -397h-208zM391 1593v11l211 239h164l211 -239v-11h-182l-103 123h-16l-103 -123h-182zM440 573h488l-240 662h-8z" />
<glyph unicode="&#xc3;" horiz-adv-x="1368" d="M25 0l553 1466h213l552 -1466h-208l-142 397h-616l-144 -397h-208zM346 1614q0 119 70.5 180t156.5 61q53 0 139.5 -46t98.5 -46q61 0 68 72h155q0 -119 -70.5 -180.5t-156.5 -61.5q-53 0 -138 46.5t-100 46.5q-61 0 -67 -72h-156zM440 573h488l-240 662h-8z" />
<glyph unicode="&#xc4;" horiz-adv-x="1368" d="M25 0l553 1466h213l552 -1466h-208l-142 397h-616l-144 -397h-208zM395 1726q0 49 35 83t82 34q51 0 84 -32.5t33 -84.5q0 -47 -34 -81.5t-83 -34.5q-45 0 -81 34.5t-36 81.5zM440 573h488l-240 662h-8zM739 1726q0 49 35 83t82 34q51 0 84 -32.5t33 -84.5 q0 -47 -34 -81.5t-83 -34.5q-45 0 -81 34.5t-36 81.5z" />
<glyph unicode="&#xc5;" horiz-adv-x="1368" d="M25 0l522 1384q-76 63 -76 164q0 90 61.5 151.5t151.5 61.5q88 0 150.5 -62.5t62.5 -150.5q0 -98 -76 -164l522 -1384h-208l-142 397h-616l-144 -397h-208zM440 573h488l-240 662h-8zM602 1548.5q0 -32.5 21.5 -56.5t52.5 -26h8q33 0 57.5 25t24.5 57.5t-24.5 57 t-57.5 24.5t-57.5 -24.5t-24.5 -57z" />
<glyph unicode="&#xc6;" horiz-adv-x="1966" d="M8 0l885 1466h967v-180h-668v-465h602v-176h-602v-465h668v-180h-856v397h-535l-236 -397h-225zM573 573h431v713h-9z" />
<glyph unicode="&#xc7;" horiz-adv-x="1492" d="M76 733q0 328 219 547t543 219q332 0 538 -239l-131 -127q-150 186 -407 186q-240 0 -405 -162t-165 -424t165 -424t405 -162q264 0 450 213l131 -131q-98 -117 -244.5 -187.5t-318.5 -74.5l-29 -65q20 4 41 4q78 0 132.5 -55.5t54.5 -139.5q0 -82 -59.5 -139t-147.5 -57 q-66 0 -118 38.5t-75 98.5l107 47q23 -70 86 -70q37 0 60.5 24.5t23.5 57.5q0 35 -23.5 60.5t-60.5 25.5q-41 0 -68 -33l-96 46l61 163q-291 31 -480 244t-189 516z" />
<glyph unicode="&#xc8;" d="M147 0v1466h857v-180h-668v-465h602v-176h-602v-465h668v-180h-857zM362 1843h205l107 -262h-164z" />
<glyph unicode="&#xc9;" d="M147 0v1466h857v-180h-668v-465h602v-176h-602v-465h668v-180h-857zM481 1581l107 262h205l-148 -262h-164z" />
<glyph unicode="&#xca;" d="M147 0v1466h857v-180h-668v-465h602v-176h-602v-465h668v-180h-857zM283 1593v11l211 239h163l211 -239v-11h-182l-102 123h-17l-102 -123h-182z" />
<glyph unicode="&#xcb;" d="M147 0v1466h857v-180h-668v-465h602v-176h-602v-465h668v-180h-857zM279 1726q0 49 34.5 83t81.5 34q51 0 84 -32.5t33 -84.5q0 -47 -34 -81.5t-83 -34.5q-47 0 -81.5 34.5t-34.5 81.5zM623 1726q0 49 34.5 83t81.5 34q51 0 84 -32.5t33 -84.5q0 -47 -34 -81.5t-83 -34.5 q-47 0 -81.5 34.5t-34.5 81.5z" />
<glyph unicode="&#xcc;" horiz-adv-x="483" d="M12 1843h205l107 -262h-164zM147 0v1466h189v-1466h-189z" />
<glyph unicode="&#xcd;" horiz-adv-x="483" d="M147 0v1466h189v-1466h-189zM160 1581l106 262h205l-147 -262h-164z" />
<glyph unicode="&#xce;" horiz-adv-x="483" d="M-51 1593v11l211 239h164l211 -239v-11h-183l-102 123h-17l-102 -123h-182zM147 0v1466h189v-1466h-189z" />
<glyph unicode="&#xcf;" horiz-adv-x="483" d="M-14 1729q0 49 34.5 82.5t81.5 33.5q51 0 84 -32.5t33 -83.5q0 -47 -34 -82t-83 -35q-45 0 -80.5 35.5t-35.5 81.5zM147 0v1466h189v-1466h-189zM264 1729q0 49 35 82.5t82 33.5q51 0 84 -32.5t33 -83.5q0 -47 -34 -82t-83 -35q-45 0 -81 35.5t-36 81.5z" />
<glyph unicode="&#xd0;" horiz-adv-x="1538" d="M115 653v156h155v657h449q338 0 540.5 -203.5t202.5 -529t-202.5 -529.5t-540.5 -204h-449v653h-155zM459 180h260q254 0 402.5 145.5t148.5 407.5q0 260 -148.5 406.5t-402.5 146.5h-260v-477h409v-156h-409v-473z" />
<glyph unicode="&#xd1;" horiz-adv-x="1425" d="M147 0v1466h230l713 -1140h8l-8 282v858h188v-1466h-197l-745 1196h-8l8 -283v-913h-189zM385 1614q0 119 70.5 180t156.5 61q53 0 139.5 -46t98.5 -46q61 0 68 72h155q0 -119 -70.5 -180.5t-156.5 -61.5q-53 0 -138 46.5t-100 46.5q-61 0 -67 -72h-156z" />
<glyph unicode="&#xd2;" horiz-adv-x="1658" d="M76 733.5q0 321.5 216 543.5t537 222q319 0 536.5 -223t217.5 -543q0 -322 -216 -544t-537.5 -222t-537.5 222.5t-216 544zM268 733q0 -256 163 -421t398.5 -165t398.5 165t163 421t-163 421t-398.5 165t-398.5 -165t-163 -421zM600 1843h205l106 -262h-163z" />
<glyph unicode="&#xd3;" horiz-adv-x="1658" d="M76 733.5q0 321.5 216 543.5t537 222q319 0 536.5 -223t217.5 -543q0 -322 -216 -544t-537.5 -222t-537.5 222.5t-216 544zM268 733q0 -256 163 -421t398.5 -165t398.5 165t163 421t-163 421t-398.5 165t-398.5 -165t-163 -421zM748 1581l106 262h205l-148 -262h-163z " />
<glyph unicode="&#xd4;" horiz-adv-x="1658" d="M76 733.5q0 321.5 216 543.5t537 222q319 0 536.5 -223t217.5 -543q0 -322 -216 -544t-537.5 -222t-537.5 222.5t-216 544zM268 733q0 -256 163 -421t398.5 -165t398.5 165t163 421t-163 421t-398.5 165t-398.5 -165t-163 -421zM537 1595v11l211 239h163l211 -239v-11 h-182l-102 123h-17l-102 -123h-182z" />
<glyph unicode="&#xd5;" horiz-adv-x="1658" d="M76 733.5q0 321.5 216 543.5t537 222q319 0 536.5 -223t217.5 -543q0 -322 -216 -544t-537.5 -222t-537.5 222.5t-216 544zM268 733q0 -256 163 -421t398.5 -165t398.5 165t163 421t-163 421t-398.5 165t-398.5 -165t-163 -421zM485 1614q0 119 71 180t157 61 q53 0 139 -46t98 -46q61 0 68 72h156q0 -119 -71 -180.5t-157 -61.5q-53 0 -138 46.5t-99 46.5q-61 0 -68 -72h-156z" />
<glyph unicode="&#xd6;" horiz-adv-x="1658" d="M76 733.5q0 321.5 216 543.5t537 222q319 0 536.5 -223t217.5 -543q0 -322 -216 -544t-537.5 -222t-537.5 222.5t-216 544zM268 733q0 -256 163 -421t398.5 -165t398.5 165t163 421t-163 421t-398.5 165t-398.5 -165t-163 -421zM541 1726q0 49 34.5 83t81.5 34 q51 0 84 -32.5t33 -84.5q0 -47 -34 -81.5t-83 -34.5q-47 0 -81.5 34.5t-34.5 81.5zM885 1726q0 49 34.5 83t81.5 34q51 0 84 -32.5t33 -84.5q0 -47 -34 -81.5t-83 -34.5q-47 0 -81.5 34.5t-34.5 81.5z" />
<glyph unicode="&#xd7;" d="M123 238l326 317l-326 317l104 105l328 -320l328 320l104 -105l-328 -317l328 -317l-104 -105l-328 320l-328 -320z" />
<glyph unicode="&#xd8;" horiz-adv-x="1658" d="M76 733q0 322 216 544t537 222q180 0 340 -80l78 125l127 -82l-78 -123q135 -109 211 -266.5t76 -339.5q0 -322 -216 -544t-538 -222q-180 0 -340 78l-73 -121l-129 80l75 121q-135 106 -210.5 264t-75.5 344zM268 733q0 -281 193 -450l612 981q-117 55 -244 55 q-236 0 -398.5 -165t-162.5 -421zM588 201q112 -54 241 -54q236 0 399 165t163 421q0 276 -193 449z" />
<glyph unicode="&#xd9;" horiz-adv-x="1314" d="M115 545v921h188v-929q0 -174 91 -282t263 -108t263.5 107.5t91.5 282.5v929h188v-921q0 -260 -146.5 -419t-396.5 -159q-242 0 -392 160t-150 418zM440 1843h205l107 -262h-164z" />
<glyph unicode="&#xda;" horiz-adv-x="1314" d="M115 545v921h188v-929q0 -174 91 -282t263 -108t263.5 107.5t91.5 282.5v929h188v-921q0 -260 -146.5 -419t-396.5 -159q-242 0 -392 160t-150 418zM563 1581l107 262h204l-147 -262h-164z" />
<glyph unicode="&#xdb;" horiz-adv-x="1314" d="M115 545v921h188v-929q0 -174 91 -282t263 -108t263.5 107.5t91.5 282.5v929h188v-921q0 -260 -146.5 -419t-396.5 -159q-242 0 -392 160t-150 418zM365 1593v11l210 239h164l211 -239v-11h-182l-102 123h-17l-102 -123h-182z" />
<glyph unicode="&#xdc;" horiz-adv-x="1314" d="M115 545v921h188v-929q0 -174 91 -282t263 -108t263.5 107.5t91.5 282.5v929h188v-921q0 -260 -146.5 -419t-396.5 -159q-242 0 -392 160t-150 418zM369 1726q0 49 34.5 83t81.5 34q51 0 84 -32.5t33 -84.5q0 -47 -34 -81.5t-83 -34.5q-47 0 -81.5 34.5t-34.5 81.5z M713 1726q0 49 34.5 83t81.5 34q51 0 84 -32.5t33 -84.5q0 -47 -34 -81.5t-83 -34.5q-47 0 -81.5 34.5t-34.5 81.5z" />
<glyph unicode="&#xdd;" horiz-adv-x="1216" d="M25 1466h221l362 -596h8l355 596h221l-485 -784v-682h-189v682zM514 1581l107 262h204l-147 -262h-164z" />
<glyph unicode="&#xde;" horiz-adv-x="1155" d="M147 0v1466h189v-249h311q186 0 322.5 -124t136.5 -312.5t-136 -312.5t-323 -124h-311v-344h-189zM336 524h315q119 0 190.5 80t71.5 176.5t-71.5 176t-190.5 79.5h-315v-512z" />
<glyph unicode="&#xdf;" horiz-adv-x="1150" d="M147 0v1036q0 197 118 330t323 133q186 0 309 -112.5t123 -284.5q0 -213 -176 -305v-9q106 -45 173.5 -135t67.5 -221q0 -195 -136 -321.5t-341 -126.5q-45 0 -100 8v180q55 -8 100 -8q117 0 201 77.5t84 190.5q0 111 -88 187.5t-205 76.5h-76v176h51q119 0 185.5 62.5 t66.5 167.5q0 96 -69.5 156.5t-169.5 60.5q-117 0 -182.5 -81t-65.5 -202v-1036h-193z" />
<glyph unicode="&#xe0;" horiz-adv-x="1048" d="M57 303q0 164 127 257t314 93q166 0 272 -61v29q0 111 -76 177t-186 66q-82 0 -148.5 -39t-91.5 -106l-172 74q35 90 137.5 166.5t270.5 76.5q193 0 319.5 -112.5t126.5 -317.5v-606h-180v139h-8q-113 -172 -330 -172q-160 0 -267.5 92.5t-107.5 243.5zM254 299 q0 -74 63.5 -117t145.5 -43q117 0 212 87t95 206q-80 66 -240 66q-137 0 -206.5 -59.5t-69.5 -139.5zM311 1466h205l107 -262h-164z" />
<glyph unicode="&#xe1;" horiz-adv-x="1048" d="M57 303q0 164 127 257t314 93q166 0 272 -61v29q0 111 -76 177t-186 66q-82 0 -148.5 -39t-91.5 -106l-172 74q35 90 137.5 166.5t270.5 76.5q193 0 319.5 -112.5t126.5 -317.5v-606h-180v139h-8q-113 -172 -330 -172q-160 0 -267.5 92.5t-107.5 243.5zM254 299 q0 -74 63.5 -117t145.5 -43q117 0 212 87t95 206q-80 66 -240 66q-137 0 -206.5 -59.5t-69.5 -139.5zM420 1204l106 262h205l-147 -262h-164z" />
<glyph unicode="&#xe2;" horiz-adv-x="1048" d="M57 303q0 164 127 257t314 93q166 0 272 -61v29q0 111 -76 177t-186 66q-82 0 -148.5 -39t-91.5 -106l-172 74q35 90 137.5 166.5t270.5 76.5q193 0 319.5 -112.5t126.5 -317.5v-606h-180v139h-8q-113 -172 -330 -172q-160 0 -267.5 92.5t-107.5 243.5zM215 1217v10 l211 239h164l211 -239v-10h-183l-102 122h-16l-103 -122h-182zM254 299q0 -74 63.5 -117t145.5 -43q117 0 212 87t95 206q-80 66 -240 66q-137 0 -206.5 -59.5t-69.5 -139.5z" />
<glyph unicode="&#xe3;" horiz-adv-x="1048" d="M57 303q0 164 127 257t314 93q166 0 272 -61v29q0 111 -76 177t-186 66q-82 0 -148.5 -39t-91.5 -106l-172 74q35 90 137.5 166.5t270.5 76.5q193 0 319.5 -112.5t126.5 -317.5v-606h-180v139h-8q-113 -172 -330 -172q-160 0 -267.5 92.5t-107.5 243.5zM186 1239 q0 119 71 180.5t157 61.5q53 0 139 -46t98 -46q61 0 68 71h155q0 -119 -70.5 -180t-156.5 -61q-53 0 -138 46t-99 46q-61 0 -68 -72h-156zM254 299q0 -74 63.5 -117t145.5 -43q117 0 212 87t95 206q-80 66 -240 66q-137 0 -206.5 -59.5t-69.5 -139.5z" />
<glyph unicode="&#xe4;" horiz-adv-x="1048" d="M57 303q0 164 127 257t314 93q166 0 272 -61v29q0 111 -76 177t-186 66q-82 0 -148.5 -39t-91.5 -106l-172 74q35 90 137.5 166.5t270.5 76.5q193 0 319.5 -112.5t126.5 -317.5v-606h-180v139h-8q-113 -172 -330 -172q-160 0 -267.5 92.5t-107.5 243.5zM236 1348 q0 49 34.5 82.5t81.5 33.5q51 0 84 -32.5t33 -83.5q0 -47 -34 -82t-83 -35q-45 0 -80.5 36t-35.5 81zM254 299q0 -74 63.5 -117t145.5 -43q117 0 212 87t95 206q-80 66 -240 66q-137 0 -206.5 -59.5t-69.5 -139.5zM580 1348q0 49 34.5 82.5t81.5 33.5q51 0 84 -32.5 t33 -83.5q0 -47 -34 -82t-83 -35q-45 0 -80.5 36t-35.5 81z" />
<glyph unicode="&#xe5;" horiz-adv-x="1048" d="M57 303q0 164 127 257t314 93q166 0 272 -61v29q0 111 -76 177t-186 66q-82 0 -148.5 -39t-91.5 -106l-172 74q35 90 137.5 166.5t270.5 76.5q193 0 319.5 -112.5t126.5 -317.5v-606h-180v139h-8q-113 -172 -330 -172q-160 0 -267.5 92.5t-107.5 243.5zM254 299 q0 -74 63.5 -117t145.5 -43q117 0 212 87t95 206q-80 66 -240 66q-137 0 -206.5 -59.5t-69.5 -139.5zM313 1368q0 90 62.5 151.5t150.5 61.5t150.5 -62.5t62.5 -150.5t-62.5 -150.5t-150.5 -62.5t-150.5 62.5t-62.5 150.5zM436 1368q0 -37 26.5 -64.5t63.5 -27.5t63.5 27.5 t26.5 64.5t-26.5 63.5t-63.5 26.5t-63.5 -26.5t-26.5 -63.5z" />
<glyph unicode="&#xe6;" horiz-adv-x="1814" d="M57 303q0 164 129 255t316 91q166 0 272 -61v33q0 109 -81 176t-191 67q-168 0 -238 -141l-172 72q35 86 137.5 163.5t268.5 77.5q123 0 226 -53t163 -152q139 205 379 205q223 0 357 -145.5t134 -388.5l-2 -35h-792q8 -152 101 -240t218 -88q203 0 274 172l168 -69 q-49 -117 -161.5 -196t-276.5 -79q-285 0 -420 230q-139 -230 -422 -230q-162 0 -274.5 92.5t-112.5 243.5zM254 299q0 -76 66.5 -118t154.5 -42q115 0 207 85t92 204q-80 66 -239 66q-137 0 -209 -58.5t-72 -136.5zM975 623h581q-6 86 -78.5 163.5t-215.5 77.5 q-104 0 -181 -65.5t-106 -175.5z" />
<glyph unicode="&#xe7;" horiz-adv-x="1069" d="M57 502q0 229 145.5 381.5t370.5 152.5q168 0 279 -82t162 -206l-172 -72q-78 188 -281 188q-125 0 -220 -102.5t-95 -260t95 -260t220 -102.5q211 0 291 189l168 -72q-51 -121 -160.5 -203t-271.5 -86l-29 -65q20 4 41 4q78 0 132 -55.5t54 -139.5q0 -82 -59 -139 t-147 -57q-66 0 -118 38.5t-75 98.5l107 47q23 -70 86 -70q37 0 60.5 24.5t23.5 57.5q0 35 -24 60.5t-60 25.5q-41 0 -68 -33l-96 46l61 165q-188 33 -304 178.5t-116 348.5z" />
<glyph unicode="&#xe8;" horiz-adv-x="1097" d="M57 502q0 219 138.5 376.5t353.5 157.5q223 0 357 -145.5t134 -388.5l-2 -35h-792q8 -152 101 -240t218 -88q203 0 275 172l168 -69q-49 -117 -162 -196t-277 -79q-227 0 -369.5 151.5t-142.5 383.5zM258 623h582q-6 86 -79 163.5t-216 77.5q-104 0 -181 -65.5 t-106 -175.5zM326 1466h204l107 -262h-164z" />
<glyph unicode="&#xe9;" horiz-adv-x="1097" d="M57 502q0 219 138.5 376.5t353.5 157.5q223 0 357 -145.5t134 -388.5l-2 -35h-792q8 -152 101 -240t218 -88q203 0 275 172l168 -69q-49 -117 -162 -196t-277 -79q-227 0 -369.5 151.5t-142.5 383.5zM258 623h582q-6 86 -79 163.5t-216 77.5q-104 0 -181 -65.5 t-106 -175.5zM451 1204l106 262h205l-148 -262h-163z" />
<glyph unicode="&#xea;" horiz-adv-x="1097" d="M57 502q0 219 138.5 376.5t353.5 157.5q223 0 357 -145.5t134 -388.5l-2 -35h-792q8 -152 101 -240t218 -88q203 0 275 172l168 -69q-49 -117 -162 -196t-277 -79q-227 0 -369.5 151.5t-142.5 383.5zM258 623h582q-6 86 -79 163.5t-216 77.5q-104 0 -181 -65.5 t-106 -175.5zM262 1196v10l211 240h164l211 -240v-10h-182l-103 123h-16l-103 -123h-182z" />
<glyph unicode="&#xeb;" horiz-adv-x="1097" d="M57 502q0 219 138.5 376.5t353.5 157.5q223 0 357 -145.5t134 -388.5l-2 -35h-792q8 -152 101 -240t218 -88q203 0 275 172l168 -69q-49 -117 -162 -196t-277 -79q-227 0 -369.5 151.5t-142.5 383.5zM256 1348q0 49 35 82.5t82 33.5q51 0 83.5 -32.5t32.5 -83.5 q0 -47 -33.5 -82t-82.5 -35q-45 0 -81 36t-36 81zM258 623h582q-6 86 -79 163.5t-216 77.5q-104 0 -181 -65.5t-106 -175.5zM600 1348q0 49 35 82.5t82 33.5q51 0 84 -32.5t33 -83.5q0 -47 -34 -82t-83 -35q-45 0 -81 36t-36 81z" />
<glyph unicode="&#xec;" horiz-adv-x="450" d="M0 1466h205l106 -262h-164zM131 0v1004h188v-1004h-188z" />
<glyph unicode="&#xed;" horiz-adv-x="450" d="M131 0v1004h188v-1004h-188zM139 1204l107 262h205l-148 -262h-164z" />
<glyph unicode="&#xee;" horiz-adv-x="450" d="M-68 1217v10l211 239h164l211 -239v-10h-182l-103 122h-16l-102 -122h-183zM131 0v1004h188v-1004h-188z" />
<glyph unicode="&#xef;" horiz-adv-x="450" d="M-31 1350q0 49 35 82.5t82 33.5q51 0 84 -32.5t33 -83.5q0 -47 -34 -82t-83 -35q-45 0 -81 35t-36 82zM131 0v1004h188v-1004h-188zM248 1350q0 49 34.5 82.5t82.5 33.5q51 0 83.5 -32.5t32.5 -83.5q0 -47 -33.5 -82t-82.5 -35q-45 0 -81 35t-36 82z" />
<glyph unicode="&#xf0;" horiz-adv-x="1169" d="M82 475q0 217 145.5 356.5t341.5 139.5q170 0 258 -97l9 7q-68 158 -195 264l-264 -117l-58 137l177 78q-103 53 -226 82l64 158q199 -55 348 -158l209 92l57 -135l-137 -61q276 -270 276 -689q0 -252 -138 -408.5t-365 -156.5q-207 0 -354.5 147.5t-147.5 360.5z M274 473q0 -143 91.5 -234.5t218.5 -91.5q129 0 220 91.5t91 234.5q0 141 -90 232.5t-217 91.5q-131 0 -222.5 -91.5t-91.5 -232.5z" />
<glyph unicode="&#xf1;" d="M115 0v1004h180v-140h8q41 72 129 122t189 50q186 0 284.5 -114.5t98.5 -307.5v-614h-189v586q0 279 -248 278q-117 0 -190.5 -93t-73.5 -216v-555h-188zM227 1239q0 119 71 180.5t157 61.5q53 0 139 -46t98 -46q61 0 68 71h155q0 -119 -70.5 -180t-156.5 -61 q-53 0 -138 46t-99 46q-61 0 -68 -72h-156z" />
<glyph unicode="&#xf2;" horiz-adv-x="1146" d="M57 501.5q0 229.5 145.5 382t371 152.5t371 -152.5t145.5 -382t-145.5 -382t-371 -152.5t-371 152.5t-145.5 382zM246 502q0 -164 97 -263.5t230.5 -99.5t230.5 99.5t97 263.5t-97 263t-230.5 99t-230.5 -99t-97 -263zM334 1466h205l106 -262h-164z" />
<glyph unicode="&#xf3;" horiz-adv-x="1146" d="M57 501.5q0 229.5 145.5 382t371 152.5t371 -152.5t145.5 -382t-145.5 -382t-371 -152.5t-371 152.5t-145.5 382zM246 502q0 -164 97 -263.5t230.5 -99.5t230.5 99.5t97 263.5t-97 263t-230.5 99t-230.5 -99t-97 -263zM483 1204l107 262h205l-148 -262h-164z" />
<glyph unicode="&#xf4;" horiz-adv-x="1146" d="M57 501.5q0 229.5 145.5 382t371 152.5t371 -152.5t145.5 -382t-145.5 -382t-371 -152.5t-371 152.5t-145.5 382zM246 502q0 -164 97 -263.5t230.5 -99.5t230.5 99.5t97 263.5t-97 263t-230.5 99t-230.5 -99t-97 -263zM281 1217v10l211 239h163l211 -239v-10h-182 l-102 122h-17l-102 -122h-182z" />
<glyph unicode="&#xf5;" horiz-adv-x="1146" d="M57 501.5q0 229.5 145.5 382t371 152.5t371 -152.5t145.5 -382t-145.5 -382t-371 -152.5t-371 152.5t-145.5 382zM229 1239q0 119 71 180.5t157 61.5q53 0 139 -46t98 -46q61 0 68 71h156q0 -119 -71 -180t-157 -61q-53 0 -138 46t-99 46q-61 0 -68 -72h-156zM246 502 q0 -164 97 -263.5t230.5 -99.5t230.5 99.5t97 263.5t-97 263t-230.5 99t-230.5 -99t-97 -263z" />
<glyph unicode="&#xf6;" horiz-adv-x="1146" d="M57 501.5q0 229.5 145.5 382t371 152.5t371 -152.5t145.5 -382t-145.5 -382t-371 -152.5t-371 152.5t-145.5 382zM246 502q0 -164 97 -263.5t230.5 -99.5t230.5 99.5t97 263.5t-97 263t-230.5 99t-230.5 -99t-97 -263zM285 1348q0 49 34.5 82.5t81.5 33.5q51 0 84 -32.5 t33 -83.5q0 -47 -34 -82t-83 -35q-45 0 -80.5 36t-35.5 81zM629 1348q0 49 34.5 82.5t81.5 33.5q51 0 84 -32.5t33 -83.5q0 -47 -34 -82t-83 -35q-45 0 -80.5 36t-35.5 81z" />
<glyph unicode="&#xf7;" horiz-adv-x="1126" d="M115 477v156h897v-156h-897zM424 180.5q0 57.5 40 98t99.5 40.5t99 -40.5t39.5 -98t-39.5 -98.5t-99 -41t-99.5 41t-40 98.5zM424 929.5q0 57.5 40 98.5t99.5 41t99 -41t39.5 -98.5t-39.5 -98t-99 -40.5t-99.5 40.5t-40 98z" />
<glyph unicode="&#xf8;" horiz-adv-x="1146" d="M57 502q0 229 145.5 381.5t370.5 152.5q117 0 226 -49l53 86l119 -69l-58 -93q176 -154 177 -409q0 -229 -145.5 -382t-371.5 -153q-119 0 -221 45l-49 -80l-121 68l54 86q-178 156 -179 416zM246 502q0 -156 90 -256l366 590q-63 29 -129 28q-133 0 -230 -99t-97 -263z M449 166q54 -27 124 -27q133 0 230.5 99.5t97.5 263.5q0 154 -86 252z" />
<glyph unicode="&#xf9;" d="M106 389v615h189v-584q0 -281 248 -281q117 0 190.5 94.5t73.5 217.5v553h188v-1004h-180v139h-8q-43 -72 -131 -122t-187 -50q-188 0 -285.5 115t-97.5 307zM338 1466h205l106 -262h-164z" />
<glyph unicode="&#xfa;" d="M106 389v615h189v-584q0 -281 248 -281q117 0 190.5 94.5t73.5 217.5v553h188v-1004h-180v139h-8q-43 -72 -131 -122t-187 -50q-188 0 -285.5 115t-97.5 307zM457 1204l106 262h205l-147 -262h-164z" />
<glyph unicode="&#xfb;" d="M106 389v615h189v-584q0 -281 248 -281q117 0 190.5 94.5t73.5 217.5v553h188v-1004h-180v139h-8q-43 -72 -131 -122t-187 -50q-188 0 -285.5 115t-97.5 307zM262 1184v10l211 240h164l211 -240v-10h-182l-103 123h-16l-103 -123h-182z" />
<glyph unicode="&#xfc;" d="M106 389v615h189v-584q0 -281 248 -281q117 0 190.5 94.5t73.5 217.5v553h188v-1004h-180v139h-8q-43 -72 -131 -122t-187 -50q-188 0 -285.5 115t-97.5 307zM270 1350q0 49 35 82.5t82 33.5q51 0 84 -32.5t33 -83.5q0 -47 -34 -82t-83 -35q-47 0 -82 35t-35 82z M614 1350q0 49 35 82.5t82 33.5q51 0 84 -32.5t33 -83.5q0 -47 -34 -82t-83 -35q-47 0 -82 35t-35 82z" />
<glyph unicode="&#xfd;" horiz-adv-x="1019" d="M8 1004h205l299 -721h4l291 721h205l-629 -1446h-195l234 505zM430 1204l107 262h204l-147 -262h-164z" />
<glyph unicode="&#xfe;" horiz-adv-x="1179" d="M115 -442v1908h188v-462l-8 -140h8q45 74 136 123t206 49q195 0 336 -153.5t141 -381t-141 -381t-336 -153.5q-115 0 -206 49.5t-136 122.5h-8l8 -139v-442h-188zM295 502q0 -166 93 -264.5t226 -98.5q131 0 225.5 99.5t94.5 263.5t-94.5 263t-225.5 99q-133 0 -226 -98 t-93 -264z" />
<glyph unicode="&#xff;" horiz-adv-x="1019" d="M8 1004h205l299 -721h4l291 721h205l-629 -1446h-195l234 505zM225 1350q0 49 35 82.5t82 33.5q51 0 84 -32.5t33 -83.5q0 -47 -34 -82t-83 -35q-47 0 -82 35t-35 82zM569 1350q0 49 35 82.5t82 33.5q51 0 84 -32.5t33 -83.5q0 -47 -34 -82t-83 -35q-47 0 -82 35t-35 82z " />
<glyph unicode="&#x152;" horiz-adv-x="2353" d="M76 733.5q0 321.5 216 543.5t537 222q354 0 562 -260v227h856v-180h-668v-465h602v-176h-602v-465h668v-180h-856v225q-207 -258 -562 -258q-322 0 -537.5 222.5t-215.5 544zM268 733q0 -256 163 -421t398.5 -165t398.5 165t163 421t-163 421t-398.5 165t-398.5 -165 t-163 -421z" />
<glyph unicode="&#x153;" horiz-adv-x="1949" d="M57 501.5q0 229.5 145.5 382t370.5 152.5q139 0 251 -64.5t175 -174.5q61 111 165 175t237 64q223 0 357 -145.5t134 -388.5l-2 -35h-792q8 -152 101 -240t218 -88q203 0 275 172l168 -69q-49 -117 -162 -196t-277 -79q-143 0 -251.5 62.5t-172.5 175.5 q-63 -111 -174 -174.5t-250 -63.5q-225 0 -370.5 152.5t-145.5 382zM246 502q0 -164 97 -263.5t230.5 -99.5t230.5 99.5t97 263.5t-97 263t-230.5 99t-230.5 -99t-97 -263zM1110 623h582q-6 86 -79 163.5t-216 77.5q-104 0 -181 -65.5t-106 -175.5z" />
<glyph unicode="&#x2c6;" horiz-adv-x="819" d="M117 1217v10l211 239h164l210 -239v-10h-182l-102 122h-17l-102 -122h-182z" />
<glyph unicode="&#x2dc;" horiz-adv-x="819" d="M66 1237q0 119 70.5 180.5t156.5 61.5q53 0 139 -46.5t98 -46.5q61 0 68 72h156q0 -119 -71 -180t-157 -61q-53 0 -138 46t-99 46q-61 0 -68 -72h-155z" />
<glyph unicode="&#x2000;" horiz-adv-x="927" />
<glyph unicode="&#x2001;" horiz-adv-x="1855" />
<glyph unicode="&#x2002;" horiz-adv-x="927" />
<glyph unicode="&#x2003;" horiz-adv-x="1855" />
<glyph unicode="&#x2004;" horiz-adv-x="618" />
<glyph unicode="&#x2005;" horiz-adv-x="463" />
<glyph unicode="&#x2006;" horiz-adv-x="309" />
<glyph unicode="&#x2007;" horiz-adv-x="309" />
<glyph unicode="&#x2008;" horiz-adv-x="231" />
<glyph unicode="&#x2009;" horiz-adv-x="371" />
<glyph unicode="&#x200a;" horiz-adv-x="103" />
<glyph unicode="&#x2010;" horiz-adv-x="884" d="M115 557v156h655v-156h-655z" />
<glyph unicode="&#x2011;" horiz-adv-x="884" d="M115 557v156h655v-156h-655z" />
<glyph unicode="&#x2012;" horiz-adv-x="884" d="M115 557v156h655v-156h-655z" />
<glyph unicode="&#x2013;" horiz-adv-x="1212" d="M115 557v156h983v-156h-983z" />
<glyph unicode="&#x2014;" horiz-adv-x="1826" d="M115 557v156h1597v-156h-1597z" />
<glyph unicode="&#x2018;" horiz-adv-x="475" d="M98 1159q0 59 62 152l129 188l88 -57l-111 -156q45 -8 78 -42t33 -85q0 -57 -41 -98t-98.5 -41t-98.5 41t-41 98z" />
<glyph unicode="&#x2019;" horiz-adv-x="475" d="M98 1077l111 156q-45 8 -78 42t-33 85q0 57 41 98t98.5 41t98.5 -41t41 -98q0 -59 -62 -152l-129 -188z" />
<glyph unicode="&#x201a;" horiz-adv-x="475" d="M98 127q0 57 41 98t98.5 41t98.5 -41t41 -98q0 -59 -62 -152l-129 -188l-88 57l111 156q-45 8 -78 42t-33 85z" />
<glyph unicode="&#x201c;" horiz-adv-x="835" d="M98 1159q0 59 62 152l129 188l88 -57l-111 -156q45 -8 78 -42t33 -85q0 -57 -41 -98t-98.5 -41t-98.5 41t-41 98zM459 1159q0 59 61 152l129 188l88 -57l-110 -156q45 -8 77.5 -42t32.5 -85q0 -57 -41 -98t-98 -41t-98 41t-41 98z" />
<glyph unicode="&#x201d;" horiz-adv-x="835" d="M98 1077l111 156q-45 8 -78 42t-33 85q0 57 41 98t98.5 41t98.5 -41t41 -98q0 -59 -62 -152l-129 -188zM459 1077l110 156q-45 8 -77.5 42t-32.5 85q0 57 41 98t98 41t98 -41t41 -98q0 -59 -61 -152l-129 -188z" />
<glyph unicode="&#x201e;" horiz-adv-x="835" d="M98 127q0 57 41 98t98.5 41t98.5 -41t41 -98q0 -59 -62 -152l-129 -188l-88 57l111 156q-45 8 -78 42t-33 85zM459 127q0 57 41 98t98 41t98 -41t41 -98q0 -59 -61 -152l-129 -188l-88 57l110 156q-45 8 -77.5 42t-32.5 85z" />
<glyph unicode="&#x2022;" horiz-adv-x="819" d="M164 663.5q0 102.5 71.5 174t174 71.5t174 -71.5t71.5 -174t-71.5 -174t-174 -71.5t-174 71.5t-71.5 174z" />
<glyph unicode="&#x2026;" horiz-adv-x="1441" d="M98 127q0 57 41 98t98.5 41t98.5 -41t41 -98t-41 -98t-98.5 -41t-98.5 41t-41 98zM582 127q0 57 41 98t98 41t98 -41t41 -98t-41 -98t-98 -41t-98 41t-41 98zM1065 127q0 57 41 98t98.5 41t98 -41t40.5 -98t-40.5 -98t-98 -41t-98.5 41t-41 98z" />
<glyph unicode="&#x202f;" horiz-adv-x="371" />
<glyph unicode="&#x2039;" horiz-adv-x="729" d="M82 555l414 449l110 -103l-327 -346l327 -346l-110 -103z" />
<glyph unicode="&#x203a;" horiz-adv-x="729" d="M123 209l328 346l-328 346l110 103l414 -449l-414 -449z" />
<glyph unicode="&#x205f;" horiz-adv-x="463" />
<glyph unicode="&#x20ac;" horiz-adv-x="1288" d="M49 459v155h168q-4 27 -4 86q0 57 4 86h-168v156h199q68 225 246 358.5t409 133.5q172 0 305 -84l-90 -154q-100 55 -215 55q-154 0 -276.5 -79.5t-180.5 -229.5h457v-156h-493q-4 -57 -4 -86q0 -33 4 -86h493v-155h-457q57 -150 180.5 -229.5t276.5 -79.5q135 0 250 65 l86 -164q-145 -84 -336 -84q-231 0 -409.5 133t-245.5 359h-199z" />
<glyph unicode="&#x25fc;" horiz-adv-x="1003" d="M0 0v1004h1004v-1004h-1004z" />
</font>
</defs>
</svg>
